<svg width="257" height="258" viewBox="0 0 257 258" fill="none" xmlns="http://www.w3.org/2000/svg">
<g clip-path="url(#clip0_1327_5195)">
<g clip-path="url(#clip1_1327_5195)">
<path d="M0 1C84.48 1 168.96 1 256 1C256 85.48 256 169.96 256 257C171.52 257 87.04 257 0 257C0 172.52 0 88.04 0 1Z" fill="#011533"/>
<path d="M41 117C46.9172 117.355 49.8928 118.706 54 123C54.4538 124.217 54.9075 125.434 55.375 126.688C55.9112 127.781 56.4475 128.874 57 130C58.84 130.675 58.84 130.675 60.9375 130.938C63.7475 131.378 64.6767 131.568 66.4102 133.887C67.39 135.899 68.2543 137.891 69 140C70.5469 139.876 70.5469 139.876 72.125 139.75C77.4056 140.091 80.0809 142.147 83.8125 145.75C85.6085 149.153 85.7523 152.161 86 156C85.505 156.99 85.505 156.99 85 158C85.6806 157.526 86.3612 157.051 87.0625 156.563C90.6122 154.675 92.9672 154.069 97 154C101.369 155.36 104.295 157.031 107 160.75C107.495 161.864 107.495 161.864 108 163C107.229 163.049 106.458 163.098 105.664 163.149C104.661 163.223 103.658 163.298 102.625 163.375C101.627 163.445 100.63 163.514 99.6016 163.586C96.8449 163.764 96.8449 163.764 95 166C93.6033 169.743 93.8382 173.711 93.832 177.653C93.8287 178.39 93.8254 179.127 93.8219 179.886C93.8169 181.442 93.8145 182.998 93.8147 184.554C93.8125 186.926 93.7943 189.298 93.7754 191.67C93.7725 193.185 93.7705 194.7 93.7695 196.215C93.7623 196.92 93.7552 197.626 93.7478 198.353C93.7369 204.005 93.7369 204.005 96 209C102.608 211.582 109.265 211.196 116.27 211.012C118.006 210.978 118.006 210.978 119.778 210.943C122.213 210.894 124.648 210.839 127.083 210.779C130.817 210.688 134.552 210.613 138.287 210.541C140.656 210.491 143.025 210.439 145.395 210.387C146.513 210.364 147.632 210.341 148.785 210.317C149.82 210.291 150.855 210.264 151.921 210.237C152.832 210.216 153.743 210.194 154.681 210.172C157.158 210.084 157.158 210.084 160 209C161.278 205.167 161.182 201.532 161.203 197.535C161.209 196.706 161.215 195.876 161.22 195.021C161.23 193.267 161.236 191.513 161.24 189.758C161.25 187.076 161.281 184.395 161.312 181.713C161.319 180.008 161.324 178.303 161.328 176.598C161.347 175.396 161.347 175.396 161.366 174.17C161.352 170.863 161.238 168.44 159.648 165.501C157.296 163.359 155.447 163.398 152.312 163.25C150.822 163.165 150.822 163.165 149.301 163.078C148.162 163.04 148.162 163.04 147 163C148.92 159.447 150.533 157.107 154 155C159.002 154.24 163.595 154.339 168.188 156.5C168.786 156.995 169.384 157.49 170 158C169.629 156.763 169.629 156.763 169.25 155.5C168.911 150.748 170.288 147.851 173 144C176.428 140.884 178.829 139.782 183.375 139.75C184.571 139.833 185.768 139.915 187 140C187.083 139.258 187.165 138.515 187.25 137.75C188.175 134.357 189.165 133.069 192 131C195.25 130.75 195.25 130.75 198 131C198.083 130.299 198.165 129.598 198.25 128.875C199.451 124.273 201.647 121.068 205.375 118.125C208.432 116.815 210.707 116.77 214 117C219.383 136.56 215.568 157.408 206 175C203.565 178.884 200.903 182.456 198 186C197.482 186.681 196.964 187.361 196.43 188.063C192.743 192.657 188.4 196.285 183.812 199.938C183.206 200.423 182.599 200.908 181.974 201.408C177.491 204.882 177.491 204.882 174.862 205.514C174.248 205.675 173.633 205.835 173 206C172.67 206.66 172.34 207.32 172 208C169.676 209.064 167.383 210.025 165 210.938C164.313 211.204 163.626 211.471 162.918 211.745C161.554 212.271 160.188 212.793 158.821 213.31C157.375 213.858 155.934 214.421 154.496 214.989C133.262 222.846 108.099 219.778 87.8398 210.563C85.5313 209.42 83.254 208.247 81 207C81 206.34 81 205.68 81 205C80.34 205 79.68 205 79 205C79 204.34 79 203.68 79 203C78.01 203.33 77.02 203.66 76 204C72.0207 201.404 68.5477 198.152 65 195C64.2059 194.303 63.4119 193.605 62.5938 192.887C49.8288 180.954 39.9271 162.664 38.8127 145.039C38.7327 141.794 38.727 138.558 38.75 135.313C38.7423 134.211 38.7345 133.11 38.7266 131.975C38.7395 126.614 38.7956 121.995 41 117Z" fill="#1D3964"/>
<path d="M142.625 56.563C151.781 61.9365 157.305 68.7482 160.621 78.9028C161.134 81.7449 161.17 84.4884 161.187 87.3755C161.201 88.4763 161.215 89.5772 161.23 90.7114C160.991 94.1152 160.213 96.8246 159 100C157.35 99.6705 155.7 99.3405 154 99.0005C154.046 98.0105 154.092 97.0205 154.14 96.0005C154.44 87.0723 154.291 80.638 148.011 73.852C139.393 65.6061 132.329 64.5721 120.707 64.7973C117.673 64.9636 114.943 65.2916 112 66.0005C112 66.6605 112 67.3205 112 68.0005C113.825 68.3408 113.825 68.3408 115.687 68.688C119.994 69.7609 122.13 71.5575 125 75.0005C125.577 75.6811 126.155 76.3617 126.75 77.063C129.613 81.5016 129.597 86.8871 129 92.0005C127.171 97.8527 124.11 101.694 119 105C115.125 105.813 115.125 105.813 112 106C112.859 108.233 112.859 108.233 115.375 109.125C122.977 110.961 129.589 110.947 136.441 106.973C136.955 106.652 137.47 106.331 138 106C138.66 105.67 139.32 105.34 140 105C140.33 105.66 140.66 106.32 141 107C144.045 107.47 144.045 107.47 147.562 107.625C148.76 107.7 149.957 107.775 151.191 107.852C152.118 107.901 153.045 107.95 154 108C148.905 115.067 142.333 118.629 134 121C123.131 122.2 114.005 120.155 105.125 113.75C97.5339 107.339 94.3975 99.7741 92.9995 90.0005C92.6614 79.9654 96.0711 71.6676 102.23 63.8559C112.486 53.1018 129.226 50.2192 142.625 56.563Z" fill="#CFE1F3"/>
<path d="M138 65.5621C145.565 69.6556 152.238 75.7128 155 83.9996C155.07 86.3945 155.084 88.7913 155.062 91.1871C155.053 92.4594 155.044 93.7317 155.035 95.0426C155.024 96.0184 155.012 96.9942 155 97.9996C154.01 98.3296 153.02 98.6596 152 98.9996C151.629 98.484 151.257 97.9684 150.875 97.4371C148.968 95.6364 148.968 95.6364 145.812 96.3121C144.884 96.539 143.956 96.7659 143 96.9996C142.619 98.991 142.287 100.992 142 103C143.811 104.811 146.613 104.382 149.062 104.562C150.167 104.646 151.272 104.73 152.41 104.816C153.265 104.877 154.119 104.937 155 105C154.67 105.99 154.34 106.98 154 108C151.875 108.053 149.75 108.092 147.625 108.125C145.85 108.159 145.85 108.159 144.039 108.195C141 108 141 108 139 106C137.608 106.959 137.608 106.959 136.188 107.937C130.598 111.554 125.494 111.542 119 111C116.417 110.237 114.391 109.275 112 108C112 107.34 112 106.68 112 106C112.592 105.853 113.183 105.706 113.793 105.554C120.849 103.551 123.668 101.109 127.312 94.6871C129.042 87.9262 128.427 82.1446 125 75.9996C121.239 71.2712 117.594 69.8009 112 67.9996C112 67.3396 112 66.6796 112 65.9996C119.314 62.456 130.49 62.5031 138 65.5621Z" fill="#021533"/>
<path d="M99 168C106.415 167.977 113.829 167.959 121.244 167.948C124.686 167.943 128.129 167.936 131.572 167.925C135.526 167.912 139.48 167.907 143.434 167.902C145.296 167.895 145.296 167.895 147.196 167.887C148.337 167.887 149.478 167.887 150.654 167.887C151.664 167.884 152.675 167.882 153.716 167.88C156 168 156 168 157 169C157.1 171.511 157.139 173.989 157.125 176.5C157.131 177.554 157.131 177.554 157.137 178.629C157.127 183.874 157.127 183.874 156 185C154.226 185.099 152.447 185.128 150.67 185.13C149.532 185.133 148.394 185.136 147.222 185.139C145.983 185.137 144.745 185.135 143.469 185.133C142.207 185.134 140.946 185.135 139.646 185.136C136.973 185.137 134.3 185.135 131.626 185.131C128.193 185.125 124.759 185.128 121.326 185.134C118.061 185.139 114.796 185.135 111.531 185.133C110.293 185.135 109.054 185.137 107.778 185.139C106.64 185.136 105.502 185.133 104.33 185.13C103.323 185.129 102.315 185.128 101.277 185.127C99 185 99 185 98 184C97.9007 181.689 97.8703 179.376 97.875 177.063C97.8724 175.795 97.8698 174.528 97.8672 173.223C98 170 98 170 99 168Z" fill="#85ADD5"/>
<path d="M97.9995 190C117.469 190 136.939 190 156.999 190C156.999 194.95 156.999 199.9 156.999 205C155.999 206 155.999 206 153.715 206.12C152.705 206.118 151.695 206.116 150.654 206.114C149.512 206.113 148.371 206.113 147.196 206.113C145.954 206.108 144.712 206.103 143.433 206.098C141.537 206.096 141.537 206.096 139.603 206.093C136.238 206.089 132.873 206.08 129.508 206.069C126.076 206.058 122.644 206.054 119.212 206.049C112.475 206.038 105.737 206.021 98.9995 206C96.6097 201.22 97.9995 195.344 97.9995 190Z" fill="#76A6D8"/>
<path d="M214 117C215.612 123.765 216.266 130.05 216 137C215.227 136.965 214.453 136.931 213.656 136.895C204.127 136.647 197.618 138.075 190 144C189.079 145.041 188.183 146.105 187.312 147.188C185 150 185 150 182 151C180.776 152.63 180.776 152.63 179.812 154.563C179.214 155.697 178.616 156.831 178 158C178.639 158.103 179.279 158.206 179.938 158.313C180.618 158.54 181.299 158.766 182 159C182.33 159.99 182.66 160.98 183 162C183.99 162.66 184.98 163.32 186 164C184.02 165.65 182.04 167.3 180 169C179.67 168.01 179.34 167.02 179 166C174.634 164.867 174.634 164.867 170.5 166.313C169.675 166.87 168.85 167.426 168 168C166.015 168.712 164.018 169.39 162 170C161.567 169.031 161.134 168.061 160.688 167.063C159.066 164.539 158.266 164.061 155.285 163.379C152.515 163.147 149.78 163.01 147 163C148.92 159.447 150.533 157.107 154 155C159.002 154.24 163.595 154.339 168.188 156.5C168.786 156.995 169.384 157.49 170 158C169.752 157.175 169.505 156.35 169.25 155.5C168.911 150.748 170.288 147.851 173 144C176.428 140.884 178.829 139.782 183.375 139.75C184.571 139.833 185.768 139.915 187 140C187.083 139.258 187.165 138.515 187.25 137.75C188.175 134.357 189.165 133.069 192 131C195.25 130.75 195.25 130.75 198 131C198.083 130.299 198.165 129.598 198.25 128.875C199.451 124.273 201.647 121.068 205.375 118.125C208.432 116.815 210.707 116.77 214 117Z" fill="#75A7DA"/>
<path d="M41 117C46.9172 117.355 49.8928 118.706 54 123C54.4538 124.217 54.9075 125.434 55.375 126.688C55.9112 127.781 56.4475 128.874 57 130C58.84 130.674 58.84 130.674 60.9375 130.938C63.7475 131.377 64.6767 131.567 66.4102 133.887C67.39 135.899 68.2543 137.89 69 140C70.5469 139.876 70.5469 139.876 72.125 139.75C77.4056 140.091 80.0809 142.147 83.8125 145.75C85.6085 149.153 85.7523 152.16 86 156C85.505 156.99 85.505 156.99 85 158C85.6806 157.526 86.3612 157.051 87.0625 156.562C90.6122 154.674 92.9672 154.068 97 154C101.369 155.36 104.295 157.031 107 160.75C107.495 161.864 107.495 161.864 108 163C107.241 163.014 106.481 163.028 105.699 163.043C102.721 163.186 99.9203 163.388 97 164C94.712 166.355 94.712 166.355 94 169C90.6793 168.934 88.0124 168.837 85.375 166.656C82.6894 163.579 80.6211 160.365 78.625 156.812C76.3159 152.919 73.9226 151.713 69.8359 149.988C68 149 68 149 66.0625 146.062C62.9564 141.45 58.3415 139.118 53.1094 137.367C50.3 136.878 47.5995 136.907 44.75 136.938C43.6723 136.947 42.5947 136.956 41.4844 136.965C40.2546 136.982 40.2546 136.982 39 137C38.9456 134.792 38.907 132.583 38.875 130.375C38.8518 129.145 38.8286 127.915 38.8047 126.648C38.997 123.057 39.6974 120.333 41 117Z" fill="#77A8DB"/>
<path d="M127.5 129.875C131 130 131 130 132 131C132.086 132.343 132.107 133.69 132.098 135.035C132.094 135.844 132.091 136.653 132.088 137.486C132.08 138.336 132.071 139.187 132.062 140.062C132.058 140.917 132.053 141.771 132.049 142.65C132.037 144.767 132.019 146.883 132 149C132.659 148.263 132.659 148.263 133.332 147.512C135 146 135 146 137.688 145.812C138.451 145.874 139.214 145.936 140 146C139.64 151.048 136.956 153.522 133.438 156.812C132.917 157.315 132.397 157.817 131.861 158.334C130.583 159.565 129.293 160.784 128 162C123.451 158.205 118.946 154.428 115 150C115 148.68 115 147.36 115 146C116.65 146 118.3 146 120 146C120.33 146.99 120.66 147.98 121 149C121.66 149 122.32 149 123 149C122.988 147.712 122.977 146.424 122.965 145.098C122.955 143.419 122.946 141.741 122.938 140.062C122.929 139.212 122.921 138.362 122.912 137.486C122.909 136.677 122.906 135.869 122.902 135.035C122.897 134.286 122.892 133.537 122.886 132.766C123.1 129.445 124.086 129.997 127.5 129.875Z" fill="#D7E7F7"/>
<path d="M99 168C106.415 167.977 113.829 167.959 121.244 167.948C124.686 167.943 128.129 167.936 131.572 167.925C135.526 167.912 139.48 167.907 143.434 167.902C145.296 167.895 145.296 167.895 147.196 167.887C148.337 167.887 149.478 167.887 150.654 167.887C151.664 167.884 152.675 167.882 153.716 167.88C156 168 156 168 157 169C157.371 174.841 157.371 174.841 157 177C156.01 177.66 155.02 178.32 154 179C153.505 177.02 153.505 177.02 153 175C151.68 175.33 150.36 175.66 149 176C149 175.34 149 174.68 149 174C142.77 173.975 136.541 173.957 130.311 173.945C128.191 173.94 126.07 173.933 123.95 173.925C120.907 173.913 117.863 173.907 114.82 173.902C113.868 173.897 112.916 173.892 111.935 173.887C110.614 173.887 110.614 173.887 109.266 173.887C108.489 173.884 107.712 173.882 106.911 173.88C104.913 173.881 104.913 173.881 103 175C100.375 174.063 100.375 174.063 98 173C98.33 171.35 98.66 169.7 99 168Z" fill="#CAE0F6"/>
<path d="M100 47C100 47.99 100 48.98 100 50C98.9726 50.4241 97.9452 50.8482 96.8867 51.2852C75.5679 60.239 56.5433 74.101 47.2266 96.0391C45.7464 99.6669 44.3545 103.324 43 107C42.01 107 41.02 107 40 107C40.5148 101.608 41.9093 97.2805 44.375 92.4375C44.7251 91.7471 45.0753 91.0568 45.436 90.3455C55.1787 71.8843 70.2303 58.9823 88.9375 50.0625C89.5765 49.7555 90.2154 49.4486 90.8738 49.1323C94.2337 47.5862 96.2229 47 100 47Z" fill="#2B4C79"/>
<path d="M69 159C72.1138 159.334 72.9336 159.921 75 162.375C75.66 163.241 76.32 164.108 77 165C79.126 166.763 79.126 166.763 81 168C80.6664 171.114 80.0789 171.934 77.625 174C76.3256 174.99 76.3256 174.99 75 176C73.2368 178.126 73.2368 178.126 72 180C68.8862 179.666 68.0664 179.079 66 176.625C65.34 175.759 64.68 174.892 64 174C61.874 172.237 61.874 172.237 60 171C60.258 167.518 61.2156 166.812 63.9375 164.438C64.9481 163.633 65.9588 162.829 67 162C67.66 161.01 68.32 160.02 69 159Z" fill="#061833"/>
<path d="M110.969 194.887C112.741 194.887 114.513 194.893 116.285 194.903C117.216 194.904 118.147 194.905 119.106 194.907C122.091 194.912 125.077 194.925 128.062 194.938C130.081 194.943 132.1 194.947 134.119 194.951C139.079 194.962 144.04 194.98 149 195C149 196.65 149 198.3 149 200C135.14 200 121.28 200 107 200C106.67 198.68 106.34 197.36 106 196C107 195 107 195 110.969 194.887Z" fill="#0C2345"/>
<path d="M114.121 172.748C114.958 172.755 115.794 172.762 116.656 172.77C117.943 172.771 117.943 172.771 119.256 172.771C121.072 172.774 122.888 172.782 124.704 172.794C127.489 172.813 130.273 172.815 133.059 172.815C134.82 172.82 136.582 172.826 138.344 172.832C139.18 172.833 140.017 172.835 140.879 172.836C146.768 172.884 146.768 172.884 149 174C149 175.32 149 176.64 149 178C143.198 178.074 137.396 178.129 131.593 178.165C129.618 178.18 127.643 178.201 125.668 178.227C122.833 178.263 119.999 178.28 117.164 178.293C116.278 178.309 115.391 178.324 114.478 178.34C113.657 178.34 112.836 178.341 111.991 178.341C111.267 178.348 110.543 178.354 109.797 178.361C108 178 108 178 106 175C108.635 172.365 110.535 172.762 114.121 172.748Z" fill="#031838"/>
<path d="M183 63C190.838 64.2017 196.969 72.6496 201.625 78.5C207.445 86.536 212.78 96.2847 215 106C213.68 106 212.36 106 211 106C210.732 105.201 210.464 104.402 210.188 103.578C205.015 89.0813 196.37 78.1499 185.438 67.5C183 65 183 65 183 63Z" fill="#274674"/>
<path d="M183 171C186.06 171.328 187.058 172.057 189.312 174.25C191 177 191 177 191.125 179.5C189.5 183.111 187.163 184.645 184 187C182.35 185.35 180.7 183.7 179 182C178.01 183.485 178.01 183.485 177 185C176.34 184.34 175.68 183.68 175 183C175.125 180.5 175.125 180.5 176 178C177.315 177.298 178.651 176.635 180 176C181.753 173.468 181.753 173.468 183 171Z" fill="#051733"/>
<path d="M148.188 95.375C149.116 95.5813 150.044 95.7875 151 96C151.33 96.99 151.66 97.98 152 99C154.31 99.33 156.62 99.66 159 100C158.34 101.65 157.68 103.3 157 105C154.709 105.054 152.417 105.093 150.125 105.125C148.211 105.16 148.211 105.16 146.258 105.195C143 105 143 105 141 103C141.188 100 141.188 100 142 97C145 95 145 95 148.188 95.375Z" fill="#3D679D"/>
<path d="M136 43C142.385 43.1688 148.189 44.4776 154.25 46.375C154.923 46.5841 155.596 46.7931 156.289 47.0085C160.398 48.3387 164.188 49.9756 168 52C168 52.99 168 53.98 168 55C163.952 54.3204 160.334 53.076 156.5 51.625C149.768 49.1699 143.026 47.4355 136 46C136 45.01 136 44.02 136 43Z" fill="#5281B6"/>
<path d="M179 152C179.66 152.33 180.32 152.66 181 153C179.515 155.475 179.515 155.475 178 158C178.639 158.103 179.279 158.206 179.938 158.312C180.618 158.539 181.299 158.766 182 159C182.33 159.99 182.66 160.98 183 162C183.99 162.66 184.98 163.32 186 164C184.02 165.65 182.04 167.3 180 169C179.67 168.01 179.34 167.02 179 166C174.79 165.043 172.743 164.868 169 167C175.15 156.442 175.15 156.442 179 152Z" fill="#234879"/>
<path d="M191 178C192.32 178.66 193.64 179.32 195 180C194.812 181.812 194.812 181.812 194 184C192.345 185.019 190.677 186.018 189 187C187.672 189.067 187.672 189.067 187 191C183.489 190.707 182.195 190.19 179.625 187.688C178 185 178 185 178.25 182.688C178.497 182.131 178.745 181.574 179 181C180.98 182.65 182.96 184.3 185 186C188.78 182.523 188.78 182.523 191 178Z" fill="#061732"/>
<path d="M100 47C100 47.99 100 48.98 100 50C97.4379 51.126 94.8754 52.2508 92.3125 53.375C91.5913 53.6921 90.87 54.0092 90.127 54.3359C86.4402 55.952 82.7504 57.5354 79 59C78.67 58.34 78.34 57.68 78 57C80.7653 53.6086 84.5543 52.0959 88.4375 50.3125C89.4401 49.832 89.4401 49.832 90.4629 49.3418C93.9438 47.7238 96.0969 47 100 47Z" fill="#6294CA"/>
<path d="M205 85C207.672 88.2639 209.377 91.6701 211.125 95.5C211.643 96.6241 212.161 97.7481 212.695 98.9062C213.708 101.307 214.489 103.46 215 106C213.68 106 212.36 106 211 106C210.685 105.143 210.371 104.286 210.047 103.402C207.758 97.2879 205.475 91.5343 202 86C202.99 85.67 203.98 85.34 205 85Z" fill="#1F3963"/>
<path d="M70 163C72.31 164.98 74.62 166.96 77 169C75.02 171.31 73.04 173.62 71 176C68.69 174.02 66.38 172.04 64 170C65.98 167.69 67.96 165.38 70 163Z" fill="#F6F9FB"/>
<path d="M77 56C77.66 56.33 78.32 56.66 79 57C79 57.99 79 58.98 79 60C76.7344 61.9375 76.7344 61.9375 73.75 64C72.7755 64.6806 71.8009 65.3612 70.7969 66.0625C69.8739 66.7019 68.9509 67.3413 68 68C66.6614 68.9929 65.3257 69.9899 64 71C64.491 66.7449 67.0605 63.9097 70 61C72.269 59.2008 74.5865 57.609 77 56Z" fill="#426A9D"/>
<path d="M184 175C185.98 176.65 187.96 178.3 190 180C188.771 183.688 187.061 184.724 184 187C182.35 185.02 180.7 183.04 179 181C179.639 180.752 180.279 180.505 180.938 180.25C183.187 179.184 183.187 179.184 183.75 176.875C183.833 176.256 183.915 175.637 184 175Z" fill="#F2F5F7"/>
<path d="M187 98C187.66 98 188.32 98 189 98C189.083 98.6187 189.165 99.2375 189.25 99.875C189.813 102.184 189.813 102.184 192.062 103.25C192.702 103.498 193.341 103.745 194 104C193.381 104.433 192.762 104.866 192.125 105.312C189.78 106.997 189.78 106.997 188 110C187.381 109.216 186.762 108.433 186.125 107.625C184.101 105.032 184.101 105.032 182 103C182.639 102.732 183.279 102.464 183.938 102.188C186.331 101.113 186.331 101.113 187 98Z" fill="#F3F5F8"/>
<path d="M64 98C64.2475 98.6187 64.495 99.2375 64.75 99.875C66.2063 102.351 67.3781 102.951 70 104C69.3813 104.433 68.7625 104.866 68.125 105.312C65.7803 106.997 65.7803 106.997 64 110C63.7525 109.216 63.505 108.433 63.25 107.625C61.8461 104.677 60.9932 104.098 58 103C58.6187 102.732 59.2375 102.464 59.875 102.188C62.2995 101.044 62.2995 101.044 64 98Z" fill="#F3F5F8"/>
<path d="M114 117C118.618 116.819 121.774 117.189 126 119C126.66 118.67 127.32 118.34 128 118C129.333 118.334 130.667 118.667 132 119C132.66 118.67 133.32 118.34 134 118C136 117.96 138 117.957 140 118C136.458 121.542 132.526 121.159 127.688 121.188C122.705 121.16 118.657 120.733 114 119C114 118.34 114 117.68 114 117Z" fill="#6F9ED0"/>
<path d="M105 173C107 175 107 175 107 179C105.812 180.812 105.812 180.812 104 182C101.312 181.688 101.312 181.688 99 181C99 178.69 99 176.38 99 174C100.207 174.031 100.207 174.031 101.438 174.062C103.934 174.296 103.934 174.296 105 173Z" fill="#A9CBEB"/>
<path d="M45 91C46.6445 92.6094 46.6445 92.6094 48 95C47.1992 98.0156 47.1992 98.0156 45.6875 101.25C45.1964 102.328 44.7052 103.405 44.1992 104.516C43.8035 105.335 43.4077 106.155 43 107C42.01 107 41.02 107 40 107C40.5077 101.034 42.3859 96.3619 45 91Z" fill="#183158"/>
<path d="M183 63C186.578 63.5964 188.544 64.9999 191.25 67.375C191.956 67.9809 192.663 68.5867 193.391 69.2109C195 71 195 71 195 74C191.178 73.4404 189.41 71.7868 186.75 69.0625C186.044 68.3522 185.337 67.642 184.609 66.9102C183 65 183 65 183 63Z" fill="#2E507E"/>
<path d="M136 43C141.915 43.4522 147.352 44.1583 153 46C148.512 48.646 144.954 47.9609 140 47C136.938 45.9375 136.938 45.9375 135 45C135.33 44.34 135.66 43.68 136 43Z" fill="#6497CD"/>
<path d="M150.688 180.938C152.457 180.951 152.457 180.951 154.262 180.965C155.165 180.977 156.069 180.988 157 181C157 181.99 157 182.98 157 184C150.73 184 144.46 184 138 184C142.437 181.042 145.454 180.886 150.688 180.938Z" fill="#92BCE6"/>
<path d="M101.125 129.875C102.074 129.916 103.023 129.957 104 130C103.34 130.557 102.68 131.114 102 131.688C99.7453 133.841 99.7453 133.841 99.7503 136.75C99.8328 137.493 99.9153 138.235 100 139C100.66 139 101.32 139 102 139C102 139.66 102 140.32 102 141C99.6253 140.688 99.6253 140.688 97.0003 140C95.0003 137 95.0003 137 95.2503 134.438C96.3948 130.718 97.207 130.032 101.125 129.875Z" fill="#F3F5F8"/>
<path d="M51 81C52.32 81 53.64 81 55 81C53.3582 85.7761 50.7345 89.7938 48 94C47.34 93.67 46.68 93.34 46 93C46.5763 88.2452 48.5507 85.0295 51 81Z" fill="#22406B"/>
<path d="M152 174C152.66 174.33 153.32 174.66 154 175C154.33 175.99 154.66 176.98 155 178C155.66 177.67 156.32 177.34 157 177C157 178.32 157 179.64 157 181C153.713 181.8 152.29 182.097 149 181C149 179.35 149 177.7 149 176C149.99 176 150.98 176 152 176C152 175.34 152 174.68 152 174Z" fill="#A1C5E9"/>
<path d="M182 159C182.33 159.99 182.66 160.98 183 162C183.99 162.66 184.98 163.32 186 164C183.03 166.475 183.03 166.475 180 169C179.67 168.01 179.34 167.02 179 166C177.5 164.333 177.5 164.333 176 163C179.75 159 179.75 159 182 159Z" fill="#E6EEF6"/>
<path d="M155 129C156.707 130.281 158.374 131.618 160 133C160 133.66 160 134.32 160 135C159.01 135 158.02 135 157 135C156.34 136.32 155.68 137.64 155 139C153.624 137.71 152.292 136.373 151 135C151 133 151 133 153 130.875C153.66 130.256 154.32 129.637 155 129Z" fill="#5883B9"/>
<path d="M90 51.9997C90 52.6597 90 53.3197 90 53.9997C84.555 56.4747 84.555 56.4747 79 58.9997C78.67 58.3397 78.34 57.6797 78 56.9997C81.6378 52.9981 84.5729 51.6982 90 51.9997Z" fill="#5281B6"/>
<path d="M180 176C180.99 176.99 181.98 177.98 183 179C181.793 179.371 181.793 179.371 180.562 179.75C177.829 180.722 177.829 180.722 177.188 183.125C177.126 183.744 177.064 184.363 177 185C176.34 184.34 175.68 183.68 175 183C175.125 180.5 175.125 180.5 176 178C178.062 176.688 178.062 176.688 180 176Z" fill="#0B1E3B"/>
<path d="M209 98C210.32 98.33 211.64 98.66 213 99C213.66 101.31 214.32 103.62 215 106C213.68 106 212.36 106 211 106C210.34 103.36 209.68 100.72 209 98Z" fill="#172E55"/>
<path d="M171 72C171.66 72.33 172.32 72.66 173 73C173 73.66 173 74.32 173 75C173.66 75 174.32 75 175 75C175 75.66 175 76.32 175 77C173 78.625 173 78.625 171 80C170.01 79.01 169.02 78.02 168 77C169.875 73.125 169.875 73.125 171 72Z" fill="#5B89C0"/>
<path d="M69 62C69.99 62.33 70.98 62.66 72 63C72 63.66 72 64.32 72 65C70.25 66.5078 70.25 66.5078 68 68.125C67.2575 68.6638 66.515 69.2027 65.75 69.7578C65.1725 70.1677 64.595 70.5777 64 71C64.7838 67.1386 66.4281 64.9867 69 62Z" fill="#385D8F"/>
<path d="M140 107C146.93 107.495 146.93 107.495 154 108C152.35 109.98 150.7 111.96 149 114C148.34 113.67 147.68 113.34 147 113C147.99 111.68 148.98 110.36 150 109C146.7 109 143.4 109 140 109C140 108.34 140 107.68 140 107Z" fill="#8BB5DE"/>
<path d="M200 78C202.799 80.5279 204.458 82.2041 205 86C203.125 85.8125 203.125 85.8125 201 85C199.688 82.5625 199.688 82.5625 199 80C199.33 79.34 199.66 78.68 200 78Z" fill="#23406D"/>
<path d="M133 157C130.03 159.475 130.03 159.475 127 162C126.01 160.68 125.02 159.36 124 158C130.75 155.875 130.75 155.875 133 157Z" fill="#B5D1ED"/>
<path d="M213 136C213.99 136.33 214.98 136.66 216 137C216 139.31 216 141.62 216 144C215.01 144 214.02 144 213 144C213 141.36 213 138.72 213 136Z" fill="#2D5183"/>
<path d="M181 82C181.66 82 182.32 82 183 82C183 82.66 183 83.32 183 84C183.66 84 184.32 84 185 84C184.34 85.65 183.68 87.3 183 89C181 87.625 181 87.625 179 86C179 85.34 179 84.68 179 84C179.66 84 180.32 84 181 84C181 83.34 181 82.68 181 82Z" fill="#EEF1F5"/>
<path d="M70 81C71.32 82.65 72.64 84.3 74 86C73.34 86 72.68 86 72 86C71.67 86.99 71.34 87.98 71 89C69.68 87.68 68.36 86.36 67 85C67.99 83.68 68.98 82.36 70 81Z" fill="#EBF0F2"/>
<path d="M157 46.9996C157.33 48.3196 157.66 49.6396 158 50.9996C153.545 50.0096 153.545 50.0096 149 48.9996C149 48.3396 149 47.6796 149 46.9996C152.053 46.0184 153.947 46.0184 157 46.9996Z" fill="#588CC1"/>
<path d="M114 44.0004C113.67 44.9904 113.34 45.9804 113 47.0004C111.02 47.3304 109.04 47.6604 107 48.0004C106.67 47.0104 106.34 46.0204 106 45.0004C108.709 43.646 111.009 43.9354 114 44.0004Z" fill="#71A1D3"/>
<path d="M201 157C202.32 158.32 203.64 159.64 205 161C204.01 161.33 203.02 161.66 202 162C201.67 162.66 201.34 163.32 201 164C200.01 162.68 199.02 161.36 198 160C198.99 159.01 199.98 158.02 201 157Z" fill="#EAF1F7"/>
<path d="M101.125 129.875C102.074 129.916 103.022 129.957 104 130C101.637 132.526 100.335 133.888 97 135C96.34 135.66 95.68 136.32 95 137C96.0932 130.076 96.0932 130.076 101.125 129.875Z" fill="#E7ECF2"/>
<path d="M190 118C192.062 118.25 192.062 118.25 194 119C194.33 119.66 194.66 120.32 195 121C194.34 121 193.68 121 193 121C193 121.66 193 122.32 193 123C192.01 123 191.02 123 190 123C190 122.34 190 121.68 190 121C189.34 120.67 188.68 120.34 188 120C188.66 119.34 189.32 118.68 190 118Z" fill="#537EB5"/>
<path d="M82 188C83.32 189.32 84.64 190.64 86 192C85.34 192 84.68 192 84 192C83.67 192.99 83.34 193.98 83 195C81.5 193.625 81.5 193.625 80 192C80 191.34 80 190.68 80 190C80.66 190 81.32 190 82 190C82 189.34 82 188.68 82 188Z" fill="#E8F0F6"/>
<path d="M114 117C120.523 116.631 120.523 116.631 122.938 118.5C123.288 118.995 123.639 119.49 124 120C117.375 120.125 117.375 120.125 114 119C114 118.34 114 117.68 114 117Z" fill="#74A8DC"/>
<path d="M45 91C45.99 92.32 46.98 93.64 48 95C46.625 96.5 46.625 96.5 45 98C44.34 98 43.68 98 43 98C43.875 93.25 43.875 93.25 45 91Z" fill="#1C3760"/>
<path d="M82 71C83.32 72.32 84.64 73.64 86 75C84.68 75.99 83.36 76.98 82 78C82 77.34 82 76.68 82 76C81.34 76 80.68 76 80 76C80.66 74.35 81.32 72.7 82 71Z" fill="#EFF4F7"/>
<path d="M183 63C184.875 63.3125 184.875 63.3125 187 64C187.66 64.99 188.32 65.98 189 67C188.34 67.66 187.68 68.32 187 69C185.624 67.7103 184.292 66.3731 183 65C183 64.34 183 63.68 183 63Z" fill="#375A8A"/>
<path d="M152 174C152.66 174.33 153.32 174.66 154 175C153.67 176.32 153.34 177.64 153 179C151.68 179 150.36 179 149 179C149 178.01 149 177.02 149 176C149.99 176 150.98 176 152 176C152 175.34 152 174.68 152 174Z" fill="#ADD0F1"/>
<path d="M70 163C70.33 164.32 70.66 165.64 71 167C69.0625 169.25 69.0625 169.25 67 171C66.01 170.67 65.02 170.34 64 170C65.98 167.69 67.96 165.38 70 163Z" fill="#E9EEF4"/>
<path d="M151 157C151.66 157 152.32 157 153 157C152.67 158.65 152.34 160.3 152 162C150.68 162 149.36 162 148 162C149.875 158.125 149.875 158.125 151 157Z" fill="#89B6E1"/>
<path d="M149 95.9997C147.793 96.371 147.793 96.371 146.562 96.7497C143.829 97.7221 143.829 97.7221 143.188 100.125C143.095 101.053 143.095 101.053 143 102C142.34 102 141.68 102 141 102C141.602 99.9793 142.273 97.9786 143 95.9997C145.491 94.7542 146.411 95.2229 149 95.9997Z" fill="#446FA3"/>
</g>
</g>
<defs>
<clipPath id="clip0_1327_5195">
<rect width="256" height="257.104" fill="white" transform="translate(0.457031 0.888672)"/>
</clipPath>
<clipPath id="clip1_1327_5195">
<rect width="256" height="256" fill="white" transform="translate(0 1)"/>
</clipPath>
</defs>
</svg>
