<svg width="256" height="256" viewBox="0 0 256 256" fill="none" xmlns="http://www.w3.org/2000/svg">
<rect width="256" height="256" fill="#212529"/>
<path d="M123.173 40.1255C123.147 40.1758 122.318 40.2763 121.337 40.3518C120.382 40.4272 119.301 40.5529 118.949 40.6032C118.597 40.6786 117.867 40.7792 117.314 40.8798C111.381 41.7598 103.586 44.3746 97.5771 47.5175C88.1234 52.4455 79.4491 60.2649 73.6411 69.0398C71.8811 71.6798 71.7051 71.8809 69.3417 73.4398C62.0132 78.3 55.7371 84.5846 50.8869 91.9198C49.504 94.0318 48.976 94.9118 47.1909 98.1803C44.928 102.304 42.0617 110.626 41.1314 115.805C40.7543 117.943 40.4777 119.828 40.3269 121.488C40.0754 123.851 40.0754 132.676 40.3269 134.663L40.6537 137.303C40.9303 139.716 42.2629 145.373 43.2183 148.265C45.4309 154.953 48.6994 161.289 52.8731 166.946C53.8537 168.279 54.7337 169.41 54.8091 169.485C54.8846 169.561 55.3371 170.064 55.8149 170.617C59.4606 174.941 64.6149 179.467 69.3669 182.56C71.4286 183.917 72.0069 184.42 72.7109 185.577C73.5406 186.935 77.3371 192.064 78.5943 193.497C80.0526 195.181 83.0697 198.173 84.6789 199.556C85.6091 200.386 86.4389 201.09 86.5143 201.165C87.3691 202.02 91.3417 204.836 94.0823 206.521C98.7589 209.387 106.302 212.605 111.381 213.888C112.462 214.164 117.691 215.22 118.571 215.346C123.877 216.1 133.808 216.05 138.082 215.245C138.837 215.095 139.792 214.919 140.194 214.843C148.743 213.41 158.523 209.186 166.343 203.579C169.913 201.04 175.294 196.061 177.682 193.12C178.085 192.642 178.462 192.189 178.562 192.114C178.914 191.812 182.183 187.337 183.113 185.853C184.043 184.395 184.496 183.968 186.985 182.308C198.752 174.514 207.954 162.571 212.43 149.245C213.737 145.348 215.095 139.842 215.371 137.127C215.447 136.473 215.598 135.115 215.723 134.16C215.95 132.349 215.899 122.544 215.648 120.96C215.573 120.482 215.447 119.501 215.346 118.823C215.271 118.119 214.919 116.258 214.592 114.674C214.24 113.09 213.913 111.531 213.863 111.255C213.561 109.821 211.851 104.994 210.72 102.329C208.441 97.0425 205.501 92.0664 201.97 87.5198C199.632 84.5278 193.472 78.418 190.48 76.2055C189.097 75.1746 187.915 74.2443 187.84 74.1689C187.765 74.0935 186.935 73.5403 185.954 72.9369C184.37 71.9563 184.018 71.5792 182.258 68.9392C173.207 55.362 159.077 45.5563 142.985 41.7598C141.301 41.3575 139.038 40.93 137.931 40.754C136.825 40.6032 135.593 40.4272 135.166 40.3518C134.336 40.2009 123.323 39.9998 123.173 40.1255ZM132.425 43.6455C133.808 43.7209 135.216 43.8215 135.568 43.8969C140.923 44.7518 140.144 44.6009 143.211 45.3803C154.098 48.146 163.577 53.5266 171.573 61.4466C174.062 63.9106 177.531 67.8832 177.531 68.2603C177.531 68.3358 176.777 68.0592 175.872 67.6569C174.338 66.9529 169.536 65.2432 168.53 65.0169C168.304 64.9666 167.022 64.6398 165.689 64.2878C164.357 63.9609 162.773 63.5838 162.169 63.5083C161.566 63.4078 161.013 63.3072 160.937 63.2569C160.862 63.2318 160.133 63.106 159.303 63.0306C158.473 62.93 157.291 62.7792 156.663 62.6786C156.034 62.578 152.766 62.5026 149.371 62.5026C143.463 62.5278 142.784 62.578 137.177 63.5083C135.568 63.7598 131.595 64.7152 130.011 65.218L128.126 65.7963L125.637 65.0923C122.343 64.162 117.918 63.2569 114.8 62.8295C112.009 62.4775 101.65 62.3769 99.0857 62.7038C91.7943 63.6089 87.5703 64.7152 78.8457 68.0592C78.0663 68.3609 81.3097 64.5392 84.5783 61.2958C91.1657 54.7838 99.312 49.73 108.087 46.7632C110.777 45.8329 115.454 44.6512 117.817 44.2992C118.798 44.1483 119.979 43.9723 120.457 43.8969C120.935 43.8215 122.695 43.6958 124.354 43.6203C126.014 43.5198 127.397 43.4443 127.422 43.4192C127.472 43.3689 129.634 43.4695 132.425 43.6455ZM111.28 65.9975C112.537 66.098 114.272 66.274 115.177 66.3998C116.082 66.5506 117.289 66.7266 117.867 66.802C118.446 66.8775 119.703 67.154 120.633 67.4055L122.343 67.858L121.337 68.2855C113.669 71.5792 105.774 76.5323 98.4571 82.6169C92.8754 87.2683 85.1817 95.0626 81.4857 99.8398C81.008 100.468 80.5554 101.021 80.48 101.097C79.8011 101.725 75.3509 108.112 73.44 111.255C72.208 113.291 69.5931 118.345 68.5371 120.708L67.808 122.343L67.3554 120.457C67.104 119.426 66.7269 117.264 66.5257 115.68C66.2994 114.096 66.0731 112.336 65.9977 111.783C65.8217 110.525 65.8217 101.977 65.9977 100.971L66.2743 98.7083C66.928 91.9449 69.5177 83.5472 73.0126 76.8592L74.32 74.37L76.3314 73.2889C81.184 70.6489 88.7269 67.9083 93.5543 67.0535C94.032 66.978 94.7109 66.8523 95.0629 66.7769C95.6411 66.6512 96.6971 66.5003 98.3817 66.2489C98.8343 66.1986 100.469 66.0729 101.977 65.9975C103.511 65.8969 104.768 65.8215 104.793 65.7963C104.894 65.7209 108.967 65.8466 111.28 65.9975ZM154.475 66.0226C155.808 66.098 157.065 66.1986 157.241 66.274C157.392 66.3243 158.197 66.4249 158.976 66.5003C164.482 67.0283 174.414 70.322 180.121 73.5403L181.831 74.4706L183.691 78.2923C186.834 84.7792 188.997 92.0455 189.726 98.5826C189.826 99.3369 189.927 100.368 190.002 100.845C190.153 102.002 190.178 110.827 190.027 111.783C189.952 112.185 189.826 113.216 189.726 114.045C189.474 116.258 189.349 117.113 188.921 119.074C188.72 120.029 188.494 121.111 188.443 121.463C188.242 122.393 188.142 122.393 187.689 121.312C185.074 115.026 180.523 107.433 175.495 100.996C169.989 93.9312 161.792 85.8352 153.897 79.7003C148.315 75.3506 139.742 70.2969 134.336 68.1095L133.657 67.8329L134.411 67.6318C134.839 67.506 135.593 67.3552 136.146 67.2798C136.674 67.1792 137.353 67.0283 137.655 66.9278C137.931 66.802 138.258 66.7015 138.384 66.7015C138.786 66.7015 141.728 66.3243 142.206 66.2489C142.482 66.1735 144.066 66.0729 145.726 65.9975C147.385 65.8969 148.768 65.8215 148.793 65.7963C148.869 65.7209 151.71 65.8466 154.475 66.0226ZM130.037 70.1963C132.35 71.026 132.576 71.1266 136.121 72.7609C142.96 75.954 151.483 81.7118 158.297 87.7963C161.44 90.5872 167.575 96.898 170.114 99.9655C170.818 100.795 171.447 101.524 171.522 101.6C171.849 101.876 176.45 108.087 177.28 109.394C177.758 110.148 178.235 110.802 178.336 110.852C178.462 110.903 178.537 111.028 178.537 111.129C178.537 111.229 179.115 112.285 179.819 113.442C181.429 116.107 183.214 119.652 184.496 122.72C185.502 125.083 185.879 125.988 185.954 126.24C185.979 126.315 186.055 126.541 186.13 126.743C186.231 126.944 186.357 127.321 186.432 127.572C186.784 128.653 182.661 137.856 179.417 143.211C175.419 149.849 170.039 156.587 163.577 163.074C161.239 165.437 158.901 167.7 158.423 168.103C153.017 172.729 149.95 175.092 145.726 177.858C140.873 181.026 134.587 184.194 129.936 185.853L127.95 186.557L126.039 185.828C117.365 182.61 109.545 177.984 101.374 171.296C97.8034 168.379 97.1497 167.751 92.6743 163.325C84.176 154.877 78.2674 146.983 73.6914 137.931C71.5794 133.757 69.5931 128.98 69.5931 128C69.5931 127.145 71.9063 121.488 73.5657 118.219C78.0411 109.469 84.0251 101.399 92.0457 93.2775C101.424 83.7735 111.381 76.5575 121.211 72.1575C123.399 71.1769 126.944 69.7438 127.925 69.442C127.95 69.4169 128.905 69.7689 130.037 70.1963ZM67.9337 79.3986C66.6263 82.0386 63.8857 90.8386 63.5337 93.6546C63.4583 94.082 63.3577 94.7358 63.2823 95.0626C63.1063 95.7415 62.9806 96.722 62.704 99.4626C62.4526 101.725 62.4526 111.28 62.6789 113.467C63.1063 117.188 64.1371 122.443 65.0674 125.561L65.7463 127.773L65.2937 129.458C64.5143 132.425 63.2069 138.459 63.0309 139.842C62.9303 140.596 62.7794 141.828 62.6789 142.583C62.4526 144.468 62.4526 154.601 62.704 156.788C62.88 158.523 62.9806 159.227 63.2823 160.937C63.3577 161.415 63.4834 162.144 63.5589 162.571C64.0366 165.563 65.9223 171.698 67.7326 176.199L68.3611 177.783L66.1989 175.947C60.3406 171.069 55.8651 165.84 52.1189 159.529C36.5806 133.305 42.4891 99.6889 66.0229 80.1529C67.1291 79.2478 68.1097 78.4935 68.2354 78.4683C68.336 78.4683 68.2103 78.8958 67.9337 79.3986ZM193.874 83.7483C201.09 90.7632 206.446 99.4375 209.538 109.017C210.418 111.783 211.575 116.585 211.826 118.697C211.902 119.325 212.027 120.055 212.078 120.356C212.279 121.412 212.505 125.159 212.505 127.748C212.53 130.413 212.254 135.291 212.078 135.568C212.053 135.643 211.927 136.322 211.851 137.076C211.525 140.068 209.463 147.938 208.331 150.503C208.155 150.905 207.678 151.986 207.301 152.891C205.566 156.939 201.518 163.753 199.355 166.267C199.029 166.619 198.375 167.424 197.897 168.027C196.514 169.737 191.913 174.263 189.801 175.972C187.991 177.456 187.211 177.933 187.79 177.204C188.192 176.701 190.53 170.29 191.209 167.725C192.014 164.784 192.768 161.063 192.994 159.051C193.095 158.221 193.246 157.316 193.296 157.04C193.522 156.084 193.598 144.72 193.371 143.261C193.271 142.482 193.095 141.074 192.994 140.144C192.919 139.213 192.793 138.409 192.743 138.333C192.718 138.258 192.592 137.755 192.517 137.252C192.165 134.939 190.555 128.628 190.254 128.327C190.203 128.276 190.379 127.522 190.631 126.667C191.159 124.983 192.089 121.236 192.265 120.205C192.315 119.853 192.416 119.351 192.491 119.049C192.667 118.244 193.12 115.026 193.321 113.04C193.547 110.727 193.547 101.424 193.321 99.3369C192.994 96.4706 192.315 92.6489 191.486 89.0786C191.159 87.7209 189.977 84.1506 188.946 81.5609C188.343 80.0272 187.84 78.6946 187.84 78.594C187.84 78.3175 191.561 81.5106 193.874 83.7483ZM68.688 135.543C69.6183 137.831 72.2331 142.784 74.0686 145.725C81.4354 157.668 92.976 169.888 104.969 178.411C109.922 181.931 117.163 186.055 121.211 187.689L122.343 188.141L121.086 188.493C120.407 188.669 119.502 188.896 119.074 188.946C115.378 189.549 113.216 189.851 111.406 190.002C108.917 190.203 102.505 190.178 100.846 189.977C100.217 189.901 99.1611 189.776 98.4571 189.7C97.376 189.6 95.9177 189.373 93.5543 188.921C88.752 188.066 81.9131 185.627 77.0857 183.088L74.32 181.655L73.264 179.643C69.6937 172.98 67.0537 164.583 66.2743 157.417C66.1989 156.663 66.0731 155.581 66.0229 155.028C65.872 153.746 65.8469 144.896 65.9726 144.217C66.048 143.94 66.1737 142.909 66.2743 141.954C66.3497 140.973 66.7017 138.811 67.0537 137.127C67.3806 135.417 67.6571 133.959 67.6571 133.858C67.6571 133.456 68.1349 134.26 68.688 135.543ZM189.223 138.157C190.455 146.983 190.505 153.268 189.323 160.132C188.645 164.269 187.558 168.329 186.08 172.251C185.803 173.005 185.426 173.961 185.275 174.388C185.125 174.791 184.245 176.601 183.339 178.386L181.68 181.629L179.669 182.711C174.816 185.351 167.575 187.965 162.446 188.971C154.601 190.48 146.631 190.555 138.434 189.197C137.202 188.996 135.618 188.669 134.914 188.493C133.707 188.167 133.682 188.141 134.286 187.89C140.622 185.351 150.654 179.191 156.437 174.313C160.937 170.541 162.446 169.159 165.262 166.343C172.88 158.775 178.009 152.288 182.937 144.066C184.245 141.879 187.161 136.196 187.865 134.411C188.167 133.657 188.167 133.657 188.619 135.392C188.871 136.372 189.122 137.604 189.223 138.157ZM82.5417 189.323C87.4446 191.159 93.2526 192.592 98.4571 193.271C100.393 193.522 111.632 193.597 113.04 193.371C113.744 193.271 114.926 193.095 115.68 193.019C117.842 192.768 123.122 191.661 125.662 190.932L127.975 190.279L130.942 191.058C133.833 191.837 136.8 192.516 138.56 192.768C139.038 192.843 139.717 192.944 140.043 192.994C142.306 193.371 144.393 193.472 149.497 193.497C156.009 193.497 158.523 193.271 163.577 192.24C167.525 191.435 174.087 189.323 176.601 188.066C177.104 187.789 177.531 187.639 177.531 187.689C177.531 188.091 173.961 192.215 171.472 194.679C161.113 204.912 147.461 211.147 132.777 212.379C131.118 212.505 124.606 212.505 123.349 212.379C122.67 212.304 121.463 212.153 120.709 212.077C116.032 211.6 110.425 210.217 105.749 208.382C95.6707 204.493 86.7798 198.046 79.952 189.675C78.544 187.965 78.0914 187.211 78.7954 187.789C78.9463 187.915 80.656 188.619 82.5417 189.323Z" fill="white"/>
</svg>
