<svg width="256" height="256" viewBox="0 0 256 256" fill="none" xmlns="http://www.w3.org/2000/svg">
<rect width="256" height="256" fill="#212528"/>
<path d="M66.808 89.4375C65.9395 89.9895 65.2251 90.7526 64.7313 91.6555C64.2375 92.5583 63.9806 93.5716 63.9844 94.6007V172.613C63.9979 174.949 64.6716 177.234 65.9277 179.204C67.1839 181.173 68.9713 182.748 71.0838 183.746L119.166 206.496C121.936 207.772 124.95 208.432 127.999 208.432C131.049 208.432 134.063 207.772 136.833 206.496L184.915 183.746C187.028 182.748 188.815 181.173 190.071 179.204C191.327 177.234 192.001 174.949 192.014 172.613V94.6007C192.02 93.562 191.755 92.5399 191.246 91.6346C190.737 90.7294 190.001 89.9722 189.11 89.4375L171.12 80.16V72.0925C171.118 70.6083 170.699 69.1545 169.91 67.8975L159.18 50.4718C158.641 49.5853 157.883 48.8525 156.979 48.344C156.074 47.8355 155.054 47.5684 154.017 47.5684C152.979 47.5684 151.959 47.8355 151.055 48.344C150.151 48.8525 149.393 49.5853 148.854 50.4718L138.487 67.4941L133.163 58.8619C132.611 57.9934 131.848 57.279 130.945 56.7852C130.042 56.2915 129.029 56.0345 127.999 56.0383C126.968 56.069 125.96 56.3492 125.06 56.855C124.161 57.3609 123.398 58.0772 122.836 58.9426L117.592 67.4941L107.024 50.4718C106.485 49.5853 105.727 48.8525 104.823 48.344C103.918 47.8355 102.898 47.5684 101.861 47.5684C100.824 47.5684 99.8035 47.8355 98.8992 48.344C97.9949 48.8525 97.2368 49.5853 96.6978 50.4718L86.0892 67.8975C85.3 69.1545 84.8807 70.6083 84.8791 72.0925V80.16L66.808 89.4375ZM171.12 89.3568L176.767 92.1804L171.12 94.8427V89.3568ZM151.435 61.6855H156.598L160.632 68.2202H147.402L151.435 61.6855ZM163.052 76.2876V98.6344L158.131 100.974V76.2876H163.052ZM145.062 76.2876H150.064V104.766L145.062 107.186V76.2876ZM99.3197 61.6855H104.483L108.517 68.2202H95.286L99.3197 61.6855ZM110.937 76.2876V107.105L106.016 104.766V76.2876H110.937ZM92.9465 76.2876H97.9483V100.974L92.9465 98.6344V76.2876ZM84.8791 89.3568V94.8427L79.2319 92.1804L84.8791 89.3568ZM74.4721 176.404C73.7503 176.067 73.1394 175.532 72.7108 174.86C72.2822 174.189 72.0536 173.409 72.0518 172.613V97.6663L123.925 122.191V199.558L74.4721 176.404ZM123.925 113.236L119.004 110.897V84.7584H123.925V113.236ZM121.344 76.691L125.458 70.0757H130.46L134.574 76.691H121.344ZM136.995 84.7584V110.978L131.993 113.317V84.7584H136.995ZM132.033 199.639V122.272L183.987 97.6663V172.613C183.987 173.42 183.749 174.209 183.305 174.883C182.86 175.557 182.228 176.086 181.486 176.404L132.033 199.639Z" fill="url(#paint0_linear_849_30988)"/>
<defs>
<linearGradient id="paint0_linear_849_30988" x1="127.999" y1="47.5684" x2="127.999" y2="208.432" gradientUnits="userSpaceOnUse">
<stop stop-color="white"/>
<stop offset="1" stop-color="white" stop-opacity="0.85"/>
</linearGradient>
</defs>
</svg>
