<svg width="256" height="256" viewBox="0 0 256 256" fill="none" xmlns="http://www.w3.org/2000/svg">
<g clip-path="url(#clip0_1411_452)">
<path d="M256 0H0V256H256V0Z" fill="#0C0D0F"/>
<path d="M190.089 107.647C187.087 136.416 161.934 157.799 133.009 157.799H121.871V184.131C121.871 198.719 110.045 210.545 95.4567 210.545H74.8409C69.735 210.545 65.5959 206.406 65.5959 201.3V147.089L79.4581 127.639C81.967 124.119 86.5789 122.806 90.566 124.476L98.451 127.778C102.425 129.443 107.023 128.135 109.525 124.626L128.008 98.7151C130.504 95.2159 135.091 93.9135 139.053 95.5791L154.241 101.964C158.212 103.633 162.809 102.327 165.309 98.8195L183.082 73.8838C188.653 83.6786 191.376 95.3146 190.089 107.647Z" fill="url(#paint0_linear_1411_452)"/>
<path d="M74.6541 124.898C76.9194 121.72 80.2146 119.276 84.0474 118.538C87.0359 117.963 89.9821 118.265 92.707 119.406L100.59 122.708C101.044 122.898 101.522 122.995 102.011 122.995C103.212 122.995 104.347 122.41 105.045 121.431L123.189 95.9939C125.454 92.8186 128.748 90.378 132.579 89.6426C135.556 89.0708 138.484 89.3704 141.186 90.5061L156.374 96.8908C156.832 97.0836 157.314 97.1812 157.807 97.1812C159.004 97.1812 160.133 96.5996 160.828 95.6256L179.866 68.9146C169.678 54.7124 153.039 45.4551 134.232 45.4551H74.8409C69.735 45.4551 65.5959 49.5942 65.5959 54.7001V137.608L74.6541 124.898Z" fill="url(#paint1_linear_1411_452)"/>
</g>
<defs>
<linearGradient id="paint0_linear_1411_452" x1="106.432" y1="107.484" x2="141.188" y2="168.308" gradientUnits="userSpaceOnUse">
<stop stop-color="#909CF7"/>
<stop offset="1" stop-color="#4B38D8"/>
</linearGradient>
<linearGradient id="paint1_linear_1411_452" x1="87.5633" y1="41.7177" x2="123.38" y2="104.397" gradientUnits="userSpaceOnUse">
<stop stop-color="#909CF7"/>
<stop offset="1" stop-color="#4B38D8"/>
</linearGradient>
<clipPath id="clip0_1411_452">
<rect width="256" height="256" fill="white"/>
</clipPath>
</defs>
</svg>
