<svg width="256" height="256" viewBox="0 0 256 256" fill="none" xmlns="http://www.w3.org/2000/svg">
<g clip-path="url(#clip0_1761_2101)">
<rect width="256" height="256" fill="white"/>
<g clip-path="url(#clip1_1761_2101)">
<path d="M18.3386 -13H237.661C254.955 -13 269 1.04492 269 18.3386V237.661C269 254.955 254.955 269 237.661 269H18.3386C1.04492 269 -13 254.955 -13 237.661V18.3386C-13 1.04492 1.04492 -13 18.3386 -13Z" fill="#F8A66B"/>
<path d="M70.3984 205.398C69.3516 205.398 68.1992 204.648 66.9492 203.148C65.8984 201.648 65 199.852 64.1992 197.898C63.6016 195.949 63.3008 194.301 63.3008 193.102C63.6016 187.199 64.9492 180.5 67.3984 173.102C68.1484 171 69.3008 170.051 70.8516 170.352C71.1484 167.75 71.4492 164.5 71.75 160.551C72.1992 156.602 72.75 152.051 73.3516 146.898C72.6016 144.801 71 143.699 68.5508 143.699C67.9492 143.699 65.6484 144.102 61.75 144.852C57.9492 145.602 52.3516 146.75 44.9492 148.301C44.8008 148.301 44.6484 148.398 44.5 148.551C44.3516 148.551 44.1016 148.449 43.8008 148.301C42.3008 148.301 41.5508 147.398 41.5508 145.551C41.5508 143.449 42.5508 141.898 44.5508 141L44.3008 141.25C46.5508 140.199 52.1484 138.551 60.8984 136.449C67.3984 134.801 72.6484 132.648 76.6016 130.102L77.9492 118.5C78.5508 112.898 79.5508 107.148 80.9492 101.199C82.3008 95.1484 84.25 89 86.6484 82.75C91.6484 69.25 97.5508 58.3984 104.398 50.1992C110.148 43.5508 115.898 40.1992 121.699 40.1992C126.699 40.1992 131.102 42.5508 134.898 47.25C135.5 47.8516 135.801 48.5508 135.801 49.3008C135.801 50.9492 134.898 51.8516 133.051 51.8516C132 51.8516 131.102 51.3984 130.301 50.5C127.898 47.6016 125.199 46.1484 122.301 46.1484C115.5 46.1484 108.25 53.6992 100.699 68.6992C97.6484 74.75 95 82 92.6992 90.3008C90.4492 98.5 88.6484 107.75 87.4492 118.102L87.1992 122L86.75 128.148C91.1484 129.5 96 130.199 101.301 130.199L115.852 129.75C120.398 129.898 122.648 131.398 122.648 134.301C122.648 136.898 121.449 138.199 119 138.199H101.25C94.8984 138.648 89.3008 140.398 84.4492 143.449C79.8984 178.648 76 198.75 72.8516 203.75C72.1992 204.801 71.3008 205.398 70.3984 205.398ZM126.852 198.102C123.352 198.102 120.648 197.648 118.648 196.75C116.852 195.852 115.898 194.852 115.898 193.75C115.898 192.852 116.352 192 117.25 191.199C118.301 190.449 120.102 190 122.5 189.852C125.551 189.699 129.75 189.551 135.25 189.398C140.699 189.25 146.699 189.102 153.25 188.949C159.898 188.801 166.449 188.699 172.801 188.699H182.602C185.801 188.699 188.602 188.801 191.051 188.949C193.648 189.102 195.551 189.352 196.75 189.648C197.949 189.949 198.551 190.801 198.551 192.199C198.551 193.852 197.852 194.949 196.5 195.398C195.148 195.852 193.449 196.102 191.5 196.102C188 196.102 183.449 196.199 177.852 196.352C172.25 196.648 166.25 196.898 159.852 197.051C153.5 197.352 147.301 197.602 141.398 197.75C135.699 197.949 130.801 198.102 126.852 198.102Z" fill="white"/>
</g>
</g>
<defs>
<clipPath id="clip0_1761_2101">
<rect width="256" height="256" fill="white"/>
</clipPath>
<clipPath id="clip1_1761_2101">
<rect width="256" height="256" fill="white"/>
</clipPath>
</defs>
</svg>
