<svg width="256" height="256" viewBox="0 0 256 256" fill="none" xmlns="http://www.w3.org/2000/svg">
<g clip-path="url(#clip0_336_2197)">
<rect width="256" height="256" fill="url(#paint0_linear_336_2197)"/>
<g filter="url(#filter0_d_336_2197)">
<path fill-rule="evenodd" clip-rule="evenodd" d="M125.71 40L125.76 82.2425L164.134 60.1472L131.4 41.2499C129.776 40.4301 127.747 40.0152 125.71 40Z" fill="#3787F2"/>
<path fill-rule="evenodd" clip-rule="evenodd" d="M164.053 60.0803L125.771 82.244L164.089 104.428V60.1005L164.053 60.0803Z" fill="#0F6EED"/>
<path fill-rule="evenodd" clip-rule="evenodd" d="M189.819 74.9781L196.491 78.8414C198.072 79.8561 199.507 81.4728 200.565 83.3072L164.065 104.436V60.1113L189.819 74.9781Z" fill="#0E65DA"/>
<path fill-rule="evenodd" clip-rule="evenodd" d="M164.001 104.348L200.543 83.3046C201.669 85.2605 202.373 87.4593 202.373 89.4353V126.501L164.001 104.348Z" fill="#0D5DC9"/>
<path fill-rule="evenodd" clip-rule="evenodd" d="M164.001 148.72L164.049 104.443L202.373 126.508V126.567L164.001 148.72Z" fill="#0E65DA"/>
<path fill-rule="evenodd" clip-rule="evenodd" d="M125.771 170.897L164.147 192.99L164.2 148.713L125.771 170.897Z" fill="#0E65DA"/>
<path fill-rule="evenodd" clip-rule="evenodd" d="M125.771 170.884L164.091 148.7L125.771 126.516V170.884Z" fill="#3787F2"/>
<path fill-rule="evenodd" clip-rule="evenodd" d="M125.771 170.91L125.824 213.153C127.782 213.145 129.735 212.768 131.329 212.019L156.279 197.656L164.19 193.089L125.771 170.91Z" fill="#0D5DC9"/>
<path fill-rule="evenodd" clip-rule="evenodd" d="M125.828 170.91L125.78 213.153C123.829 213.148 121.886 212.773 120.292 212.029L94.1488 196.978L87.416 193.089L125.828 170.91Z" fill="#0E65DA"/>
<path fill-rule="evenodd" clip-rule="evenodd" d="M125.775 170.897L87.4084 192.99L87.3555 148.713L125.775 170.897Z" fill="#0F6EED"/>
<path fill-rule="evenodd" clip-rule="evenodd" d="M55.0796 174.429L87.3158 192.99L87.3687 148.713L50.8037 169.824C51.9043 171.737 53.4148 173.42 55.0796 174.429Z" fill="#0F6EED"/>
<path fill-rule="evenodd" clip-rule="evenodd" d="M50.809 169.809L87.2678 148.701L49 126.547V163.707C49 165.673 49.6932 167.861 50.809 169.809Z" fill="#217AF1"/>
<path fill-rule="evenodd" clip-rule="evenodd" d="M87.3741 148.722L87.3182 104.443L49 126.511V126.567L87.3741 148.722Z" fill="#0F6EED"/>
<path fill-rule="evenodd" clip-rule="evenodd" d="M87.3741 104.35L50.8267 83.3046C49.6983 85.2605 49 87.4618 49 89.4378V126.506L87.3741 104.35Z" fill="#0C56B9"/>
<path fill-rule="evenodd" clip-rule="evenodd" d="M62.3081 74.5404L54.8569 78.8542C53.2807 79.8689 51.8562 81.4805 50.8037 83.3072L87.303 104.439V60.1113L62.3081 74.5404Z" fill="#0E65DA"/>
<path fill-rule="evenodd" clip-rule="evenodd" d="M87.3909 60.0803L125.674 82.2465L87.3555 104.428V60.1005L87.3909 60.0803Z" fill="#217AF1"/>
<path fill-rule="evenodd" clip-rule="evenodd" d="M125.713 40L125.665 82.2425L87.2939 60.1472L120.066 41.2296C121.683 40.4225 123.695 40.0152 125.713 40Z" fill="#4D94F3"/>
<path fill-rule="evenodd" clip-rule="evenodd" d="M190.005 163.642L196.674 167.506C198.258 168.518 199.693 170.137 200.75 171.971L164.251 193.1V148.775L190.005 163.642Z" fill="#0F6EED"/>
<path fill-rule="evenodd" clip-rule="evenodd" d="M164.187 193.102L200.731 172.062C201.857 174.015 202.558 176.216 202.558 178.193V215.256L164.187 193.102Z" fill="#0C56B9"/>
<path d="M125.806 190.304L125.826 170.883L125.793 170.862L125.826 170.842V170.883L143.587 181.107L143.562 181.122L125.826 170.883L125.851 190.304H125.806ZM107.986 181.183L107.963 181.17L125.826 170.883L107.986 181.183ZM125.826 170.883L151.946 155.763L164.124 148.732L164.159 148.752L125.826 170.883ZM87.4315 169.314L87.3808 169.286L87.4063 148.78V148.782L87.4315 169.314ZM164.23 169.19L164.256 148.808L164.303 148.836V169.147L164.23 169.19ZM70.5254 158.445C70.5204 158.437 70.5178 158.427 70.5128 158.42L87.3001 148.699L69.5488 138.422V138.391L87.3202 148.651V148.732L87.3355 148.739L70.5254 158.445ZM164.124 148.732V148.714L164.147 148.699L164.124 148.684V148.651L181.896 138.391V138.394L164.124 148.732ZM181.896 114.674L164.124 104.442V104.404L164.144 104.392L181.896 114.641V114.674ZM69.5488 114.674V114.644L87.3001 104.394L87.3202 104.407V104.44L69.5488 114.674ZM87.353 104.371V104.364L87.3556 104.362V104.371H87.353ZM87.3556 104.303H87.353V83.8527H87.3556V104.303ZM132.055 85.8765L125.722 82.2206L120.961 84.9681L125.674 82.2407L125.697 62.8198H125.75L125.773 82.2407L132.055 85.8765Z" fill="white"/>
<path d="M125.733 82.2407L125.71 62.8198C126.897 62.8223 128.081 63.0854 128.981 63.6066L143.471 71.9711L125.733 82.2407Z" fill="#65A2F5"/>
<path d="M164.089 104.373L132.053 85.878L125.771 82.2421L143.509 71.9726L164.089 83.8541V104.307L164.041 104.335L164.089 104.363V104.373Z" fill="#217AF1"/>
<path d="M164.098 104.417V104.404L164.065 104.384V104.374L164.119 104.404L164.098 104.417ZM164.065 104.318V83.8651L178.568 92.2372C179.459 92.7531 180.268 93.6338 180.865 94.6433L164.065 104.318Z" fill="#3787F2"/>
<path d="M181.853 114.647L164.102 104.398L164.049 104.367L164.001 104.34L164.049 104.312L180.849 94.6367C181.466 95.689 181.853 96.8807 181.853 97.9487V114.647Z" fill="#217AF1"/>
<path d="M164.126 148.652V104.443L181.897 114.675V138.392L164.126 148.652Z" fill="#3787F2"/>
<path d="M143.532 181.13L125.771 170.906L164.104 148.775L164.2 148.831L164.175 169.213L143.532 181.13Z" fill="#4D94F3"/>
<path d="M125.771 170.881V170.841L151.891 155.761L125.771 170.881ZM164.069 148.712V148.682L164.091 148.697L164.069 148.712Z" fill="#D22229"/>
<path d="M125.796 190.331L125.771 170.91L143.506 181.15L128.966 189.544C128.091 190.05 126.949 190.311 125.796 190.331Z" fill="#0C56B9"/>
<path d="M125.7 190.331C124.503 190.331 123.306 190.068 122.401 189.544L107.964 181.21L125.804 170.91L125.783 190.331H125.7Z" fill="#217AF1"/>
<path d="M107.913 181.194L87.3807 169.338L87.3555 148.806L125.671 170.927L125.742 170.887L125.775 170.907L107.913 181.194Z" fill="#3787F2"/>
<path d="M87.3351 169.291L72.8047 160.901C71.9014 160.38 71.0791 159.48 70.4795 158.45L87.2894 148.744L87.3603 148.785L87.3351 169.291Z" fill="#4D94F3"/>
<path d="M70.5128 158.438C69.9182 157.405 69.5488 156.244 69.5488 155.201V138.44L87.3001 148.717L70.5128 158.438Z" fill="#65A2F5"/>
<path d="M87.3202 148.654L69.5488 138.395V114.678L87.3202 104.443V148.654Z" fill="#4D94F3"/>
<path d="M69.5488 114.662V97.9604C69.5488 96.9078 69.9233 95.739 70.5254 94.6992L87.3001 104.412L69.5488 114.662ZM87.353 104.382V104.321H87.3556V104.379L87.353 104.382Z" fill="#0F6EED"/>
<path d="M87.2741 104.42L87.254 104.407L70.4795 94.6937C71.0766 93.6615 71.8989 92.7608 72.8047 92.2372L87.3073 83.8651V104.384L87.2741 104.404V104.42Z" fill="#3787F2"/>
<path d="M87.3555 104.377V83.8574L107.884 72.0038L125.674 82.2458L120.96 84.9732L87.3555 104.377Z" fill="#0F6EED"/>
<path d="M125.628 82.2407L107.839 71.999L122.377 63.6066C123.278 63.0854 124.462 62.8223 125.651 62.8198L125.628 82.2407Z" fill="#7FB2F7"/>
<path d="M164.251 169.149V148.838L180.894 158.383C180.295 159.441 179.462 160.367 178.541 160.898L164.251 169.149Z" fill="#65A2F5"/>
</g>
</g>
<defs>
<filter id="filter0_d_336_2197" x="1" y="14" width="249.558" height="271.256" filterUnits="userSpaceOnUse" color-interpolation-filters="sRGB">
<feFlood flood-opacity="0" result="BackgroundImageFix"/>
<feColorMatrix in="SourceAlpha" type="matrix" values="0 0 0 0 0 0 0 0 0 0 0 0 0 0 0 0 0 0 127 0" result="hardAlpha"/>
<feOffset dy="22"/>
<feGaussianBlur stdDeviation="24"/>
<feComposite in2="hardAlpha" operator="out"/>
<feColorMatrix type="matrix" values="0 0 0 0 0.239216 0 0 0 0 0.329412 0 0 0 0 0.443137 0 0 0 0.09 0"/>
<feBlend mode="normal" in2="BackgroundImageFix" result="effect1_dropShadow_336_2197"/>
<feBlend mode="normal" in="SourceGraphic" in2="effect1_dropShadow_336_2197" result="shape"/>
</filter>
<linearGradient id="paint0_linear_336_2197" x1="128" y1="0" x2="128" y2="256" gradientUnits="userSpaceOnUse">
<stop stop-color="white"/>
<stop offset="1" stop-color="#E0E6ED"/>
</linearGradient>
<clipPath id="clip0_336_2197">
<rect width="256" height="256" fill="white"/>
</clipPath>
</defs>
</svg>
