<svg width="256" height="256" viewBox="0 0 256 256" fill="none" xmlns="http://www.w3.org/2000/svg">
<g clip-path="url(#clip0_1874_885)">
<rect width="256" height="256" fill="white"/>
<g clip-path="url(#clip1_1874_885)">
<path d="M0 0H256V256H0V0Z" fill="#F3F3F3"/>
<path d="M168.161 179.557C172.068 179.557 175.09 178.876 177.227 177.514C179.365 176.151 180.471 174.288 180.545 171.922L214.711 182.783C213.383 187.3 210.546 191.422 206.197 195.149C201.921 198.806 196.503 201.71 189.943 203.86C183.383 206.011 176.048 207.087 167.94 207.087C161.011 207.087 154.524 206.333 148.479 204.828C142.509 203.322 137.238 201.064 132.668 198.053C128.172 194.97 124.633 191.136 122.054 186.547C119.474 181.958 118.184 176.618 118.184 170.524C118.184 164.43 119.474 159.089 122.054 154.501C124.633 149.913 128.172 146.113 132.668 143.102C137.238 140.019 142.546 137.725 148.59 136.22C154.634 134.714 161.084 133.962 167.94 133.962C174.942 133.962 181.355 134.714 187.179 136.22C193.076 137.725 198.125 140.055 202.327 143.21C206.601 146.292 209.882 150.235 212.167 155.039C214.526 159.77 215.705 165.398 215.705 171.922H155.335V172.03C155.335 173.104 155.63 174.109 156.219 175.04C156.809 175.972 157.619 176.797 158.651 177.514C159.758 178.159 161.084 178.66 162.632 179.019C164.254 179.378 166.097 179.557 168.161 179.557ZM167.94 161.168C164.327 161.168 161.342 161.814 158.983 163.104C156.625 164.323 155.445 166.079 155.445 168.373V168.589H180.323V168.373C180.323 167.226 179.991 166.223 179.328 165.363C178.738 164.43 177.89 163.677 176.785 163.104C175.679 162.459 174.353 161.993 172.805 161.706C171.33 161.348 169.708 161.168 167.94 161.168Z" fill="#62A446"/>
<path d="M81.3234 138.341V205.014H43.0234V138.341H81.3234ZM81.2134 179.421L87.1904 150.493C87.8544 147.41 89.1464 144.865 91.0644 142.858C93.0245 140.801 95.4025 139.187 98.0384 138.126C100.653 137.061 103.416 136.408 106.23 136.19C109.034 135.904 111.617 136.011 113.978 136.513C116.34 136.943 118.222 137.696 119.624 138.771L111.211 178.775C109.071 177.054 106.451 175.872 103.352 175.226C100.326 174.581 97.2634 174.366 94.1644 174.581C91.0644 174.725 88.3344 175.226 85.9724 176.086C83.6114 176.947 82.0254 178.058 81.2134 179.421Z" fill="#61A446"/>
<path d="M210.832 48.5701V127.345H173.624V48.5711L210.832 48.5701ZM162.225 54.0701V95.0831C162.225 96.6601 162.476 97.9501 162.979 98.9541C163.552 99.8861 164.269 100.567 165.129 100.997C166.061 101.356 167.029 101.535 168.032 101.535C169.059 101.531 170.078 101.349 171.044 100.997C172.118 100.639 172.979 100.209 173.624 99.7071L165.021 126.268C163.014 127.272 160.541 128.096 157.601 128.742C154.734 129.387 151.722 129.709 148.568 129.709C145.7 129.709 142.869 129.351 140.073 128.634C137.277 127.989 134.732 126.878 132.438 125.3C130.215 123.723 128.423 121.644 127.061 119.063C125.699 116.482 125.018 113.256 125.018 109.385V54.0711L162.225 54.0701ZM40.7695 81.9631C40.7695 77.8771 41.9165 74.3281 44.2095 71.3171C46.5755 68.3061 49.7665 65.7971 53.7815 63.7901C57.7955 61.7101 62.3475 60.1701 67.4385 59.1651C72.5285 58.1621 77.8335 57.6601 83.3535 57.6601C90.1635 57.6601 96.4735 58.2701 102.281 59.4881C108.159 60.7071 113.464 62.3201 118.196 64.3281V89.2761C116.189 87.7701 113.536 86.4801 110.238 85.4041C107.012 84.3291 103.571 83.5041 99.9145 82.9311C96.3295 82.3571 92.9245 82.0711 89.6985 82.0711C87.5475 82.0711 85.5765 82.2141 83.7835 82.5011C82.0635 82.7161 80.6655 83.0741 79.5895 83.5761C78.5865 84.0781 78.0845 84.7231 78.0845 85.5121C78.0845 85.9421 78.2275 86.2651 78.5145 86.4801C78.8725 86.6951 79.3745 86.8381 80.0195 86.9101C80.6655 86.9821 81.4895 87.0171 82.4935 87.0171H91.2035C94.7885 87.0171 98.3735 87.2681 101.958 87.7701C105.614 88.2001 108.912 89.0971 111.851 90.4591C114.862 91.8211 117.264 93.7921 119.056 96.3731C120.849 98.8831 121.745 102.216 121.745 106.374C121.745 110.747 120.526 114.475 118.088 117.558C115.723 120.569 112.461 123.042 108.303 124.978C104.216 126.842 99.5925 128.204 94.4295 129.064C89.3395 129.925 84.0345 130.355 78.5145 130.355C71.9905 130.355 65.5385 129.745 59.1575 128.527C52.8495 127.308 47.4365 125.516 42.9195 123.15V96.9101C44.7125 98.8461 47.2575 100.459 50.5545 101.75C53.9245 102.969 57.5445 103.901 61.4165 104.546C65.3595 105.119 69.0515 105.406 72.4925 105.406C74.7145 105.406 76.7225 105.299 78.5145 105.084C80.3065 104.797 81.7045 104.403 82.7085 103.901C83.7835 103.327 84.3215 102.61 84.3215 101.75C84.3215 101.392 84.2135 101.14 83.9985 100.997C83.7835 100.854 83.4255 100.746 82.9235 100.675C82.4935 100.603 81.8835 100.567 81.0955 100.567H74.6435C72.1335 100.567 69.3385 100.495 66.2555 100.352C63.224 100.134 60.2079 99.7393 57.2225 99.1691C54.2115 98.5241 51.4505 97.5561 48.9425 96.2661C46.5045 94.9031 44.5325 93.0761 43.0275 90.7811C41.5215 88.4151 40.7695 85.4761 40.7695 81.9631Z" fill="#808080"/>
</g>
</g>
<defs>
<clipPath id="clip0_1874_885">
<rect width="256" height="256" fill="white"/>
</clipPath>
<clipPath id="clip1_1874_885">
<rect width="256" height="256" fill="white"/>
</clipPath>
</defs>
</svg>
