<svg xmlns="http://www.w3.org/2000/svg" width="256" height="256" fill="none"><path fill="#F3F3F3" d="M0 0h256v256H0z"/><path fill="#62A446" d="M168.161 179.557c3.907 0 6.929-.681 9.066-2.043 2.138-1.363 3.244-3.226 3.318-5.592l34.166 10.861c-1.328 4.517-4.165 8.639-8.514 12.366-4.276 3.657-9.694 6.561-16.254 8.711-6.56 2.151-13.895 3.227-22.003 3.227-6.929 0-13.416-.754-19.461-2.259-5.97-1.506-11.241-3.764-15.811-6.775-4.496-3.083-8.035-6.917-10.614-11.506-2.58-4.589-3.87-9.929-3.87-16.023 0-6.094 1.29-11.435 3.87-16.023 2.579-4.588 6.118-8.388 10.614-11.399 4.57-3.083 9.878-5.377 15.922-6.882 6.044-1.506 12.494-2.258 19.35-2.258 7.002 0 13.415.752 19.239 2.258 5.897 1.505 10.946 3.835 15.148 6.99 4.274 3.082 7.555 7.025 9.84 11.829 2.359 4.731 3.538 10.359 3.538 16.883h-60.37v.108c0 1.074.295 2.079.884 3.01.59.932 1.4 1.757 2.432 2.474 1.107.645 2.433 1.146 3.981 1.505 1.622.359 3.465.538 5.529.538Zm-.221-18.389c-3.613 0-6.598.646-8.957 1.936-2.358 1.219-3.538 2.975-3.538 5.269v.216h24.878v-.216c0-1.147-.332-2.15-.995-3.01-.59-.933-1.438-1.686-2.543-2.259-1.106-.645-2.432-1.111-3.98-1.398-1.475-.358-3.097-.538-4.865-.538Z"/><path fill="#61A446" d="M81.323 138.341v66.673h-38.3v-66.673h38.3Zm-.11 41.08 5.977-28.928c.664-3.083 1.956-5.628 3.874-7.635a19.893 19.893 0 0 1 6.974-4.732 27.314 27.314 0 0 1 8.192-1.936c2.804-.286 5.387-.179 7.748.323 2.362.43 4.244 1.183 5.646 2.258l-8.413 40.004c-2.14-1.721-4.76-2.903-7.859-3.549-3.026-.645-6.089-.86-9.188-.645-3.1.144-5.83.645-8.192 1.505-2.361.861-3.948 1.972-4.76 3.335Z"/><path fill="gray" d="M210.831 48.57V127.345h-37.208V48.571h37.208Zm-48.607 5.5v41.013c0 1.577.251 2.867.754 3.871.573.932 1.29 1.613 2.15 2.043.932.359 1.9.538 2.903.538a8.898 8.898 0 0 0 3.012-.538c1.074-.358 1.935-.788 2.58-1.29l-8.603 26.561c-2.007 1.004-4.48 1.828-7.42 2.474-2.867.645-5.879.967-9.033.967-2.868 0-5.699-.358-8.495-1.075-2.796-.645-5.341-1.756-7.635-3.334-2.223-1.577-4.015-3.656-5.377-6.237s-2.043-5.807-2.043-9.678V54.071h37.207ZM40.769 81.963c0-4.086 1.147-7.635 3.44-10.646 2.366-3.011 5.557-5.52 9.572-7.527 4.014-2.08 8.566-3.62 13.657-4.625 5.09-1.003 10.395-1.505 15.915-1.505 6.81 0 13.12.61 18.927 1.828 5.878 1.219 11.183 2.832 15.915 4.84v24.948c-2.007-1.506-4.66-2.796-7.958-3.872-3.226-1.075-6.667-1.9-10.323-2.473-3.585-.574-6.99-.86-10.216-.86-2.151 0-4.122.143-5.915.43-1.72.215-3.118.573-4.194 1.075-1.003.502-1.505 1.147-1.505 1.936 0 .43.143.753.43.968.358.215.86.358 1.505.43.646.072 1.47.107 2.474.107h8.71c3.585 0 7.17.251 10.754.753 3.656.43 6.954 1.327 9.893 2.689 3.011 1.362 5.413 3.333 7.205 5.914 1.793 2.51 2.689 5.843 2.689 10.001 0 4.373-1.219 8.101-3.657 11.184-2.365 3.011-5.627 5.484-9.785 7.42-4.087 1.864-8.71 3.226-13.873 4.086-5.09.861-10.395 1.291-15.915 1.291-6.524 0-12.976-.61-19.357-1.828-6.308-1.219-11.721-3.011-16.238-5.377V96.91c1.793 1.936 4.338 3.549 7.635 4.84 3.37 1.219 6.99 2.151 10.862 2.796 3.943.573 7.635.86 11.076.86 2.222 0 4.23-.107 6.022-.322 1.792-.287 3.19-.681 4.194-1.183 1.075-.574 1.613-1.291 1.613-2.151 0-.358-.108-.61-.323-.753-.215-.143-.573-.251-1.075-.322-.43-.072-1.04-.108-1.828-.108h-6.452c-2.51 0-5.305-.072-8.388-.215a77.897 77.897 0 0 1-9.033-1.183c-3.011-.645-5.772-1.613-8.28-2.903-2.438-1.363-4.41-3.19-5.915-5.485-1.506-2.366-2.258-5.305-2.258-8.818Z"/></svg>