<svg width="256" height="256" viewBox="0 0 256 256" fill="none" xmlns="http://www.w3.org/2000/svg">
<rect width="256" height="256" fill="#1D1F25"/>
<mask id="mask0_1213_5215" style="mask-type:alpha" maskUnits="userSpaceOnUse" x="0" y="0" width="256" height="256">
<rect width="256" height="256" fill="#C4C4C4"/>
</mask>
<g mask="url(#mask0_1213_5215)">
<path d="M120.8 213.883C108.548 213.257 96.3731 210.017 85.5799 204.51C78.9456 201.124 73.4947 197.452 67.6881 192.453C64.6503 189.838 58.4762 183.499 58.7371 183.263C58.7864 183.218 80.4409 168.078 106.858 149.619C189.928 91.5719 199.804 84.6702 200.335 84.2872L200.853 83.9137L201.504 85.0426C206.671 94.0075 210.304 104.557 211.832 115.034C212.292 118.19 212.742 123.678 212.742 126.137V126.757L212.375 126.418C210.91 125.061 207.673 122.954 205.035 121.641C200.407 119.337 196.31 118.221 190.786 117.762C187.91 117.523 182.948 117.871 180.152 118.506C174.436 119.807 169.381 122.224 164.654 125.92C163.274 126.999 160.201 130.042 159.111 131.408C155.83 135.523 153.625 139.716 152.243 144.469C151.614 146.633 151.484 147.247 151.159 149.602C150.644 153.326 150.665 156.471 151.229 160.411C152.081 166.361 154.759 172.503 158.699 177.545C159.782 178.932 162.375 181.604 163.896 182.902C167.664 186.118 171.865 188.45 176.717 190.02C178.423 190.572 181.904 191.364 183.195 191.493C183.614 191.535 183.954 191.6 183.951 191.637C183.933 191.836 179.899 195.131 177.579 196.842C161.16 208.951 141.249 214.927 120.8 213.883H120.8ZM187.795 182.595C184.22 182.226 180.841 181.248 177.736 179.679C170.617 176.086 165.368 169.597 163.413 161.976C162.737 159.336 162.574 158.006 162.574 155.102C162.574 152.198 162.737 150.868 163.413 148.229C165.9 138.532 173.656 130.853 183.449 128.391C186.114 127.721 187.459 127.56 190.391 127.56C193.324 127.56 194.668 127.721 197.333 128.391C207.127 130.853 214.883 138.532 217.369 148.229C218.046 150.868 218.208 152.198 218.208 155.102C218.208 158.006 218.046 159.336 217.369 161.976C214.616 172.71 205.541 180.772 194.342 182.431C192.933 182.64 189.147 182.734 187.795 182.595ZM52.033 174.518C49.7828 171.079 46.1623 164.537 46.2624 164.093C46.2814 164.009 68.1904 148.64 94.9491 129.939C121.708 111.239 153.267 89.1829 165.08 80.9255C176.893 72.6681 186.601 65.9124 186.653 65.9124C186.769 65.9124 188.803 67.9855 190.279 69.6077C192.679 72.244 195.561 75.82 195.402 75.965C195.346 76.0155 163.234 98.4673 124.041 125.858L52.7803 175.662L52.033 174.518ZM42.0805 153.685C40.7896 149.571 39.8374 145.626 39.1445 141.522C38.9931 140.625 38.9705 140.257 39.0611 140.162C39.1294 140.09 58.5389 126.507 82.1934 109.977C105.848 93.4477 134.472 73.4428 145.803 65.522L166.404 51.1217L167.307 51.5992C168.922 52.4532 171.943 54.2729 173.894 55.5664C175.794 56.8259 179.105 59.2123 179.1 59.3182C179.1 59.3921 42.8188 154.633 42.596 154.717C42.4622 154.768 42.3495 154.542 42.0805 153.685ZM38 127.295C38 111.204 42.6878 95.1761 51.409 81.448C57.0722 72.5335 64.6186 64.4511 73.1629 58.1494C83.1284 50.8004 94.3387 45.6973 106.294 43.0696C121.162 39.8011 136.579 40.4117 151.205 44.8471C153.018 45.397 155.93 46.3961 156.042 46.5074C156.068 46.5326 155.666 46.8524 155.15 47.2191C153.723 48.2329 38.3028 128.894 38.1411 128.99C38.0306 129.055 38 128.688 38 127.295Z" fill="white"/>
</g>
</svg>
