<svg width="256" height="256" viewBox="0 0 256 256" fill="none" xmlns="http://www.w3.org/2000/svg">
<rect width="256" height="256" fill="#009B00"/>
<g filter="url(#filter0_d_40_19)">
<path fill-rule="evenodd" clip-rule="evenodd" d="M76.5407 62.8973V193.102H179.459V110.404L131.936 62.8973H76.5407ZM135.088 51.9014C135.985 51.9014 136.845 52.2577 137.48 52.8919L189.464 104.857C190.099 105.492 190.455 106.353 190.455 107.25V200.715C190.455 202.583 188.94 204.098 187.072 204.098H68.9282C67.0596 204.098 65.5448 202.583 65.5448 200.715V55.2847C65.5448 53.4161 67.0596 51.9014 68.9282 51.9014H135.088Z" fill="url(#paint0_linear_40_19)"/>
<path fill-rule="evenodd" clip-rule="evenodd" d="M157.105 47.96C155.511 47.96 154.074 48.92 153.464 50.3925C152.854 51.865 153.191 53.5601 154.318 54.6875L187.667 88.0563C188.794 89.1839 190.49 89.5216 191.963 88.9116C193.436 88.3017 194.396 86.8644 194.396 85.2701V51.9013C194.396 49.7246 192.632 47.96 190.455 47.96H157.105Z" fill="url(#paint1_linear_40_19)"/>
</g>
<defs>
<filter id="filter0_d_40_19" x="57.5448" y="47.96" width="176.852" height="204.138" filterUnits="userSpaceOnUse" color-interpolation-filters="sRGB">
<feFlood flood-opacity="0" result="BackgroundImageFix"/>
<feColorMatrix in="SourceAlpha" type="matrix" values="0 0 0 0 0 0 0 0 0 0 0 0 0 0 0 0 0 0 127 0" result="hardAlpha"/>
<feOffset dx="16" dy="24"/>
<feGaussianBlur stdDeviation="12"/>
<feColorMatrix type="matrix" values="0 0 0 0 0 0 0 0 0 0 0 0 0 0 0 0 0 0 0.12 0"/>
<feBlend mode="normal" in2="BackgroundImageFix" result="effect1_dropShadow_40_19"/>
<feBlend mode="normal" in="SourceGraphic" in2="effect1_dropShadow_40_19" result="shape"/>
</filter>
<linearGradient id="paint0_linear_40_19" x1="65.536" y1="55.3814" x2="188.24" y2="204.74" gradientUnits="userSpaceOnUse">
<stop stop-color="white"/>
<stop offset="0.770844" stop-color="white" stop-opacity="0.867292"/>
<stop offset="1" stop-color="white" stop-opacity="0.72"/>
</linearGradient>
<linearGradient id="paint1_linear_40_19" x1="153.161" y1="48.9032" x2="184.596" y2="95.5037" gradientUnits="userSpaceOnUse">
<stop stop-color="white"/>
<stop offset="0.770844" stop-color="white" stop-opacity="0.867292"/>
<stop offset="1" stop-color="white" stop-opacity="0.72"/>
</linearGradient>
</defs>
</svg>
