<svg width="256" height="256" viewBox="0 0 256 256" fill="none" xmlns="http://www.w3.org/2000/svg">
<rect width="256" height="256" fill="#2A1D51"/>
<g clip-path="url(#clip0_1606_1040)">
<rect width="192" height="192" transform="translate(32 32)" fill="#2A1D51"/>
<path d="M130.51 189.635C163.929 189.635 191.021 161.491 191.021 126.775C191.021 92.0577 163.929 63.9141 130.51 63.9141C97.09 63.9141 69.998 92.0577 69.998 126.775C69.998 161.491 97.09 189.635 130.51 189.635Z" fill="white"/>
<path d="M137 224.75C102 224.75 66.5393 224.03 31.9141 224.03C31.9141 160.03 31.9838 95.9538 31.9838 31.9541C95.9836 31.9541 160.298 32.0059 224.298 32.0059C224.298 96.0056 224.75 160.75 224.75 224.75C195.626 224.75 166.5 224.75 137 224.75ZM166.543 63.7069C157.928 72.0619 156.302 82.8191 162.243 92.1626C168.462 101.945 180.141 105.802 190.619 102.018C199.015 98.9868 207.517 88.7006 206.065 79.0376C203.334 82.6076 200.824 85.4801 198.774 88.6503C193.898 96.1923 185.33 99.8456 177.537 97.4283C163.767 93.1578 160.281 79.0459 170.57 67.2086C177.218 61.7426 184.211 61.2109 191.831 65.0096C193.052 63.6499 194.155 62.4229 195.309 61.1374C185.984 55.1809 175.824 56.1364 166.543 63.7069ZM123.749 181.881C123.812 177.996 123.674 173.862 123.855 169.345C125.392 169.404 130.801 169.308 131.622 169.478C131.684 173.473 131.693 177.47 131.822 181.462C131.939 185.068 134.622 187.905 137.785 187.926C141.011 187.947 143.534 185.25 143.671 181.443C143.778 178.446 143.771 175.442 143.685 172.445C143.622 170.227 144.193 169.014 146.765 168.889C148.829 168.789 151.007 168.252 152.875 167.363C161.039 163.478 166.083 156.999 166.763 147.949C167.408 139.348 163.658 132.619 155.811 128.231C163.458 122.133 165.174 114.266 162.59 105.567C159.877 96.4278 153.458 91.0039 143.975 89.4949C143.879 89.1791 143.746 88.9458 143.744 88.7118C143.72 84.7121 143.708 80.7131 143.699 76.7134C143.687 71.0996 141.558 68.0621 137.653 68.0906C133.755 68.1191 131.801 71.0081 131.778 76.8274C131.761 81.0311 131.774 85.2356 131.774 89.4521C128.751 89.4521 126.202 89.4521 123.434 89.4521C123.434 84.9926 123.441 80.7589 123.432 76.5251C123.42 71.3479 121.078 68.0824 117.443 68.1506C113.833 68.2174 111.646 71.4319 111.638 76.6984C111.632 80.9149 111.637 85.1313 111.637 89.6913C110.103 89.6913 108.887 89.6921 107.669 89.6913C102.42 89.6883 97.1671 89.5781 91.9216 89.7161C87.3608 89.8354 85.9996 93.6123 87.0316 97.7741C87.6856 100.41 90.4351 101.913 93.5888 101.733C96.1478 101.586 98.7218 101.703 101.278 101.703C101.278 120.546 101.278 138.878 101.278 157.659C98.5096 157.659 95.9168 157.603 93.3278 157.671C89.0041 157.785 86.2958 159.954 86.2216 163.26C86.1451 166.701 88.9501 168.926 93.5176 168.999C99.0091 169.088 108.959 169.542 111.626 169.5C111.658 172.737 111.606 176.768 111.642 180.005C111.69 184.394 114.239 187.659 117.143 187.636C120.632 187.608 123.208 186.917 123.749 181.881ZM57.4853 134.199C56.9723 124.035 57.7733 114.083 60.9301 104.28C73.8721 64.0788 121.481 42.7706 159.781 63.1991C162.601 60.7616 165.383 58.3571 168.212 55.9121C138.809 37.1164 92.4481 41.2286 64.7318 75.4834C37.6726 108.924 40.9973 158.676 72.3976 188.238C102.633 216.705 152.58 217.266 183.026 189.536C198.336 175.592 207.297 158.312 209.588 137.826C211.088 124.421 210.17 111.128 204.451 98.3539C202.131 100.299 200.322 102.042 198.284 103.455C196.624 104.604 196.064 105.562 196.764 107.709C199.925 117.414 200.315 127.518 199.009 137.458C193.792 177.15 159.701 203.763 119.54 198.96C85.6681 194.91 60.8258 168.631 57.4853 134.199ZM199.745 64.3661C193.738 70.0009 187.73 75.6348 181.177 81.7811C180.21 80.6448 178.684 78.8396 177.143 77.0456C175.184 74.7634 172.911 73.7089 170.408 76.0661C168.089 78.2486 167.802 80.9299 169.892 83.4258C172.054 86.0066 174.418 88.4261 176.79 90.8201C180.644 94.7104 183.394 94.8648 187.397 90.9693C195.189 83.3883 202.805 75.6273 210.486 67.9331C210.926 67.4936 211.35 67.0196 211.686 66.4999C213.303 63.9994 212.814 61.7201 210.732 59.7881C208.676 57.8786 206.42 57.9266 204.341 59.7356C202.839 61.0444 201.521 62.5639 199.745 64.3661Z" fill="#2A1D51"/>
<path d="M57.5036 134.552C60.8261 168.632 85.6686 194.91 119.54 198.961C159.702 203.763 193.792 177.15 199.009 137.459C200.316 127.519 199.926 117.414 196.764 107.71C196.065 105.562 196.624 104.605 198.284 103.455C200.323 102.043 202.131 100.3 204.451 98.3541C210.171 111.128 211.088 124.422 209.589 137.827C207.297 158.313 198.336 175.592 183.026 189.537C152.58 217.266 102.633 216.705 72.3975 188.239C40.9975 158.676 37.6732 108.925 64.7318 75.4837C92.4486 41.2288 138.809 37.1172 168.212 55.9123C165.383 58.3579 162.601 60.7619 159.781 63.1993C121.481 42.7711 73.8724 64.079 60.9301 104.28C57.7739 114.084 56.9729 124.036 57.5036 134.552Z" fill="white"/>
<path d="M199.932 64.1774C201.52 62.5635 202.839 61.0437 204.341 59.7356C206.42 57.9265 208.675 57.8783 210.732 59.7875C212.814 61.72 213.303 63.9991 211.686 66.4994C211.35 67.0191 210.925 67.493 210.486 67.9328C202.805 75.627 195.189 83.3879 187.397 90.9689C183.394 94.8643 180.644 94.7102 176.789 90.8199C174.417 88.4257 172.053 86.0063 169.892 83.4254C167.802 80.9293 168.088 78.2484 170.407 76.0655C172.911 73.7086 175.183 74.7627 177.143 77.0454C178.683 78.839 180.209 80.6446 181.177 81.7809C187.73 75.6346 193.737 70.0003 199.932 64.1774Z" fill="white"/>
<path d="M170.403 67.3502C160.588 78.9639 163.766 93.1584 177.536 97.4289C185.329 99.8462 193.897 96.1929 198.773 88.6509C200.823 85.4807 203.333 82.6082 206.064 79.0382C207.516 88.7012 199.014 98.9874 190.618 102.019C180.14 105.803 168.461 101.945 162.242 92.1632C156.301 82.8197 157.933 71.6364 166.936 63.3467C168.24 64.6082 169.488 66.1539 170.403 67.3502Z" fill="#3ACFB7"/>
<path d="M170.405 67.3129C169.252 66.2284 167.973 64.8409 166.887 63.4519C175.562 55.9444 185.984 55.1809 195.309 61.1374C194.154 62.4229 193.052 63.6499 191.83 65.0097C184.211 61.2109 177.199 61.7899 170.405 67.3129Z" fill="#3DD0B9"/>
<path d="M113.834 157.314C113.597 155.814 113.781 141.104 113.781 134.987C124.435 134.987 134.777 134.702 145.092 135.106C150.361 135.312 154.268 140.051 154.872 145.391C155.444 150.441 151.493 156.072 145.406 157.259C142.496 157.274 113.601 157.201 113.834 157.314Z" fill="#2A1D51"/>
<path d="M141.459 101.112C146.969 102.096 150.342 105.795 150.855 111.417C151.352 116.865 148.008 121.432 141.465 123.317C134.809 123.63 116.37 123.143 113.822 123.351C113.793 114.356 113.756 108.096 114.351 101.383C121.461 101.562 138.638 101.109 141.459 101.112Z" fill="#2A1D51"/>
</g>
<defs>
<clipPath id="clip0_1606_1040">
<rect width="192" height="192" fill="white" transform="translate(32 32)"/>
</clipPath>
</defs>
</svg>
