<svg width="256" height="256" viewBox="0 0 256 256" fill="none" xmlns="http://www.w3.org/2000/svg">
<rect width="256" height="256" fill="#4BA6EE"/>
<path d="M90.0415 83.586C97.9054 89.9657 107.254 94.2553 117.218 96.0568V42.8887L128.047 36.6406L138.866 42.8887V96.0568C148.833 94.2535 158.184 89.9641 166.052 83.586L185.71 94.9562C153.738 126.588 102.262 126.588 70.2898 94.9562L90.0415 83.586ZM113.933 219.359C125.335 175.842 99.5728 131.259 56.1765 119.407V142.156C65.6361 145.775 74.0287 151.725 80.5763 159.452L34.5283 186.036V198.541L45.3567 204.755L91.3961 178.171C94.8182 187.703 95.7763 197.945 94.1815 207.947L113.933 219.359ZM199.866 119.407C156.493 131.285 130.76 175.858 142.16 219.359L161.861 207.981C160.27 197.979 161.228 187.738 164.646 178.205L210.652 204.755L221.472 198.507V186.036L175.424 159.452C181.973 151.727 190.365 145.778 199.823 142.156L199.866 119.407Z" fill="white"/>
</svg>
