<svg width="256" height="256" viewBox="0 0 256 256" fill="none" xmlns="http://www.w3.org/2000/svg">
<g clip-path="url(#clip0_1370_99)">
<rect width="256" height="256" fill="url(#paint0_linear_1370_99)"/>
<rect width="256" height="256" rx="60" fill="white" fill-opacity="0.01"/>
<rect x="5.5" y="5.5" width="245" height="245" rx="54.5" stroke="white" stroke-opacity="0.64" stroke-width="11" stroke-linejoin="round"/>
<path fill-rule="evenodd" clip-rule="evenodd" d="M165.667 94.3248C173.999 94.3248 180.46 97.1793 185.05 102.888C189.679 108.559 191.993 116.601 191.993 127.016C191.993 137.431 189.66 145.532 184.992 151.318C180.363 157.066 173.922 159.939 165.667 159.939C161.539 159.939 157.759 159.187 154.326 157.683C150.931 156.14 148.077 153.787 145.762 150.624H145.068L143.043 158.782H136.157V68.75H145.762V90.6219C145.762 95.5207 145.608 99.9182 145.299 103.814H145.762C150.237 97.4879 156.872 94.3248 165.667 94.3248ZM164.278 102.367C157.72 102.367 152.995 104.258 150.102 108.038C147.209 111.78 145.762 118.106 145.762 127.016C145.762 135.927 147.247 142.311 150.218 146.169C153.188 149.987 157.952 151.897 164.509 151.897C170.411 151.897 174.809 149.756 177.702 145.474C180.595 141.154 182.041 134.963 182.041 126.901C182.041 118.646 180.595 112.493 177.702 108.443C174.809 104.393 170.334 102.367 164.278 102.367Z" fill="white"/>
<path fill-rule="evenodd" clip-rule="evenodd" d="M91.488 151.897C97.8914 151.897 102.559 150.18 105.491 146.747C108.422 143.314 109.984 137.528 110.177 129.389V127.248C110.177 118.376 108.673 111.992 105.664 108.096C102.655 104.2 97.8915 102.252 91.3723 102.252C85.7405 102.252 81.4202 104.451 78.4114 108.848C75.4412 113.207 73.956 119.379 73.956 127.364C73.956 135.349 75.4219 141.443 78.3537 145.648C81.3238 149.814 85.7019 151.897 91.488 151.897V151.897ZM90.0415 159.94C81.8638 159.94 75.4798 157.066 70.8895 151.318C66.2991 145.571 64.0039 137.547 64.0039 127.248C64.0039 116.871 66.3184 108.771 70.9474 102.946C75.5762 97.1214 82.018 94.209 90.273 94.209C98.9522 94.209 105.625 97.4878 110.293 104.045H110.814L112.202 95.3662H119.782V187.25H110.177V160.113C110.177 156.256 110.389 152.977 110.814 150.277H110.062C105.626 156.719 98.9522 159.94 90.0415 159.94Z" fill="#C8E8FF"/>
</g>
<defs>
<linearGradient id="paint0_linear_1370_99" x1="128" y1="0" x2="128" y2="256" gradientUnits="userSpaceOnUse">
<stop stop-color="#4AA9F9"/>
<stop offset="1" stop-color="#095FBB"/>
</linearGradient>
<clipPath id="clip0_1370_99">
<rect width="256" height="256" fill="white"/>
</clipPath>
</defs>
</svg>
