<!--?xml version="1.0" encoding="UTF-8"?-->
<svg width="256px" height="256px" viewBox="0 0 49 49" version="1.1" xmlns="http://www.w3.org/2000/svg" xmlns:xlink="http://www.w3.org/1999/xlink">
    <title>lndhub-logo</title>
    <defs>
        <filter x="-26.2%" y="-25.6%" width="152.5%" height="151.2%" filterUnits="objectBoundingBox" id="filter-1">
            <feOffset dx="0" dy="1" in="SourceAlpha" result="shadowOffsetOuter1"></feOffset>
            <feGaussianBlur stdDeviation="2" in="shadowOffsetOuter1" result="shadowBlurOuter1"></feGaussianBlur>
            <feColorMatrix values="0 0 0 0 0   0 0 0 0 0   0 0 0 0 0  0 0 0 0.109702797 0" type="matrix" in="shadowBlurOuter1" result="shadowMatrixOuter1"></feColorMatrix>
            <feMerge>
                <feMergeNode in="shadowMatrixOuter1"></feMergeNode>
                <feMergeNode in="SourceGraphic"></feMergeNode>
            </feMerge>
        </filter>
        <linearGradient x1="50%" y1="2.83824061%" x2="50%" y2="100%" id="linearGradient-2">
            <stop stop-color="#174697" offset="0%"></stop>
            <stop stop-color="#0C2550" offset="100%"></stop>
        </linearGradient>
        <linearGradient x1="50%" y1="0%" x2="50%" y2="97.8843027%" id="linearGradient-3">
            <stop stop-color="#3F78DC" offset="0%"></stop>
            <stop stop-color="#2F5FB3" offset="100%"></stop>
        </linearGradient>
        <linearGradient x1="50%" y1="2.72534321%" x2="50%" y2="100%" id="linearGradient-4">
            <stop stop-color="#8BD7F9" offset="0%"></stop>
            <stop stop-color="#68BBE1" offset="100%"></stop>
        </linearGradient>
    </defs>
    <g id="LNDHub" stroke="none" stroke-width="1" fill="none" fill-rule="evenodd">
        <g id="Desktop-HD-Copy-4" transform="translate(-28.000000, -28.000000)">
            <g id="lndhub-logo" transform="translate(32.000000, 30.934175)">

                <g id="Group">
                    <g id="Group-Copy" filter="url(#filter-1)">
                        <path d="M10.2555408,0.0253071774 L29.7403398,0.0253071774 C33.3064147,0.0253071774 34.5995597,0.396609622 35.9032634,1.09383799 C37.2069671,1.79106636 38.2301214,2.81422066 38.9273497,4.11792436 C39.6245781,5.42162807 39.9958806,6.71477302 39.9958806,10.280848 L39.9958806,17.1471651 C39.9958806,20.7132401 39.6245781,22.006385 38.9273497,23.3100887 C38.2301214,24.6137924 37.2069671,25.6369467 35.9032634,26.3341751 C34.5995597,27.0314035 33.3064147,27.4027059 29.7403398,27.4027059 L10.2555408,27.4027059 C6.68946584,27.4027059 5.39632089,27.0314035 4.09261719,26.3341751 C2.78891348,25.6369467 1.76575919,24.6137924 1.06853082,23.3100887 C0.371302445,22.006385 1.60494146e-16,20.7132401 -2.76224082e-16,17.1471651 L2.76224082e-16,10.280848 C-1.60494146e-16,6.71477302 0.371302445,5.42162807 1.06853082,4.11792436 C1.76575919,2.81422066 2.78891348,1.79106636 4.09261719,1.09383799 C5.39632089,0.396609622 6.68946584,0.0253071774 10.2555408,0.0253071774 Z" id="Rectangle-Copy" fill="url(#linearGradient-2)"></path>
                        <path d="M10.2555408,9.43604045 L29.7403398,9.43604045 C33.3064147,9.43604045 34.5995597,9.80734289 35.9032634,10.5045713 C37.2069671,11.2017996 38.2301214,12.2249539 38.9273497,13.5286576 C39.6245781,14.8323613 39.9958806,16.1255063 39.9958806,19.6915812 L39.9958806,30.1609871 L39.9958806,30.1609871 L0,30.1609871 L7.29641152e-16,19.6915812 C-4.23942521e-16,16.1255063 0.371302445,14.8323613 1.06853082,13.5286576 C1.76575919,12.2249539 2.78891348,11.2017996 4.09261719,10.5045713 C5.39632089,9.80734289 6.68946584,9.43604045 10.2555408,9.43604045 Z" id="Rectangle-Copy-2" fill="url(#linearGradient-3)"></path>
                        <path d="M9.55349057,19.3980301 L30.44239,19.3980301 C33.1660047,19.3980301 34.5995597,19.7693325 35.9032634,20.4665609 C37.2069671,21.1637892 38.2301214,22.1869435 38.9273497,23.4906472 C39.6245781,24.794351 39.9958806,26.2279059 39.9958806,28.9515206 L39.9958806,31.3435368 C39.9958806,34.0671515 39.6245781,35.5007065 38.9273497,36.8044102 C38.2301214,38.1081139 37.2069671,39.1312682 35.9032634,39.8284966 C34.5995597,40.525725 33.1660047,40.8970274 30.44239,40.8970274 L9.55349057,40.8970274 C6.82987589,40.8970274 5.39632089,40.525725 4.09261719,39.8284966 C2.78891348,39.1312682 1.76575919,38.1081139 1.06853082,36.8044102 C0.371302445,35.5007065 4.27715735e-16,34.0671515 -5.67847764e-16,31.3435368 L5.02536088e-16,28.9515206 C-3.78521509e-16,26.2279059 0.371302445,24.794351 1.06853082,23.4906472 C1.76575919,22.1869435 2.78891348,21.1637892 4.09261719,20.4665609 C5.39632089,19.7693325 6.82987589,19.3980301 9.55349057,19.3980301 Z" id="Rectangle-Copy-3" fill="url(#linearGradient-4)"></path>
                    </g>
                    <path d="M30.9083619,24.0526601 C30.78159,24.0526601 30.6548181,24.1121949 30.5461565,24.2114197 L24.4067756,30.224443 C24.2437832,30.3832027 24.1894524,30.6411872 24.2618935,30.8793267 C24.3343346,31.1174663 24.5516578,31.256381 24.768981,31.256381 L26.797331,31.256381 L24.9863042,36.0390166 C24.8957529,36.2970011 24.968194,36.5946756 25.1674069,36.7534352 C25.2579582,36.8328151 25.3666199,36.8526601 25.4752815,36.8526601 C25.6020533,36.8526601 25.7469355,36.7931252 25.8374868,36.6939004 L32.0493088,30.4824275 C32.1579704,30.3832027 32.2304114,30.204598 32.2304114,30.0259934 C32.2304114,29.688629 31.994978,29.4306446 31.6871034,29.4306446 L31.6871034,29.4306446 L29.6949739,29.4306446 L31.4154494,24.8663035 C31.5060007,24.608319 31.4335597,24.3106446 31.2343467,24.1518849 C31.1256851,24.09235 31.0170235,24.0526601 30.9083619,24.0526601 L30.9083619,24.0526601 Z" id="Shape" fill="#FFFFFF" fill-rule="nonzero"></path>
                </g>
            </g>
        </g>
    </g>
</svg>