<?xml version="1.0" encoding="UTF-8"?>
<svg width="50px" height="51px" viewBox="0 0 50 51" version="1.1" xmlns="http://www.w3.org/2000/svg" xmlns:xlink="http://www.w3.org/1999/xlink">
    <title>Artboard Copy 3</title>
    <defs>
        <linearGradient x1="50%" y1="2.83824061%" x2="50%" y2="100%" id="linearGradient-1">
            <stop stop-color="#174697" offset="0%"></stop>
            <stop stop-color="#0C2550" offset="100%"></stop>
        </linearGradient>
        <linearGradient x1="50%" y1="0%" x2="50%" y2="97.8843027%" id="linearGradient-2">
            <stop stop-color="#3F78DC" offset="0%"></stop>
            <stop stop-color="#2F5FB3" offset="100%"></stop>
        </linearGradient>
        <linearGradient x1="50%" y1="2.72534321%" x2="50%" y2="100%" id="linearGradient-3">
            <stop stop-color="#8BD7F9" offset="0%"></stop>
            <stop stop-color="#68BBE1" offset="100%"></stop>
        </linearGradient>
    </defs>
    <g id="Artboard-Copy-3" stroke="none" stroke-width="1" fill="none" fill-rule="evenodd">
        <g id="Group">
            <g id="Group-Copy">
                <polygon id="Rectangle-Copy" fill="url(#linearGradient-1)" points="0 0.0316339717 49.9948507 0.0316339717 49.9948507 34.2533824 0 34.2533824"></polygon>
                <path d="M12.819426,11.7950506 L37.1754247,11.7950506 C41.6330184,11.7950506 43.2494496,12.2591786 44.8790792,13.1307141 C46.5087088,14.0022495 47.7876517,15.2811924 48.6591872,16.910822 C49.5307226,18.5404517 49.9948507,20.1568829 49.9948507,24.6144766 L49.9948507,37.7012339 L49.9948507,37.7012339 L0,37.7012339 L3.45280103e-16,24.6144766 C-2.00617683e-16,20.1568829 0.464128056,18.5404517 1.33566352,16.910822 C2.20719898,15.2811924 3.48614185,14.0022495 5.11577148,13.1307141 C6.74540111,12.2591786 8.3618323,11.7950506 12.819426,11.7950506 Z" id="Rectangle-Copy-2" fill="url(#linearGradient-2)"></path>
                <path d="M12.819426,24.2475376 L37.1754247,24.2475376 C41.6330184,24.2475376 43.2494496,24.7116656 44.8790792,25.5832011 C46.5087088,26.4547366 47.7876517,27.7336794 48.6591872,29.3633091 C49.5307226,30.9929387 49.9948507,32.6093699 49.9948507,37.0669636 L49.9948507,51.1212843 L49.9948507,51.1212843 L0,51.1212843 L3.45280103e-16,37.0669636 C-2.00617683e-16,32.6093699 0.464128056,30.9929387 1.33566352,29.3633091 C2.20719898,27.7336794 3.48614185,26.4547366 5.11577148,25.5832011 C6.74540111,24.7116656 8.3618323,24.2475376 12.819426,24.2475376 Z" id="Rectangle-Copy-3" fill="url(#linearGradient-3)"></path>
            </g>
            <path d="M38.6354524,30.0658251 C38.4769875,30.0658251 38.3185227,30.1402437 38.1826956,30.2642747 L30.5084696,37.7805537 C30.304729,37.9790034 30.2368155,38.301484 30.3273669,38.5991584 C30.4179182,38.8968328 30.6895722,39.0704762 30.9612263,39.0704762 L33.4966638,39.0704762 L31.2328803,45.0487708 C31.1196911,45.3712514 31.2102424,45.7433444 31.4592586,45.9417941 C31.5724478,46.0410189 31.7082748,46.0658251 31.8441018,46.0658251 C32.0025667,46.0658251 32.1836694,45.9914065 32.2968585,45.8673755 L40.061636,38.1030344 C40.197463,37.9790034 40.2880143,37.7557475 40.2880143,37.5324917 C40.2880143,37.1107863 39.9937225,36.7883057 39.6088793,36.7883057 L39.6088793,36.7883057 L37.1187174,36.7883057 L39.2693117,31.0828793 C39.3825009,30.7603987 39.2919496,30.3883057 39.0429334,30.1898561 C38.9071064,30.1154375 38.7712794,30.0658251 38.6354524,30.0658251 L38.6354524,30.0658251 Z" id="Shape" fill="#FFFFFF" fill-rule="nonzero"></path>
        </g>
    </g>
</svg>