<svg width="256" height="256" viewBox="0 0 256 256" fill="none" xmlns="http://www.w3.org/2000/svg">
<g clip-path="url(#clip0_1367_5133)">
<rect width="256" height="256" fill="url(#paint0_linear_1367_5133)"/>
<mask id="mask0_1367_5133" style="mask-type:alpha" maskUnits="userSpaceOnUse" x="-5" y="-5" width="266" height="266">
<path d="M3.36268 101.519C4.98101 78.44 7.49842 60.2856 11.7102 46.0871C15.9082 31.9371 21.7107 21.9919 29.7332 15.0206C37.7488 8.04934 48.4063 3.69229 62.999 1.49993C77.647 -0.692429 95.9743 -0.664766 119.053 0.946653L154.027 3.3949C177.105 5.01324 195.267 7.53065 209.465 11.7425C223.608 15.9405 233.554 21.7429 240.525 29.7585C247.496 37.7811 251.86 48.4316 254.046 63.0243C256.245 77.6792 256.21 96.0065 254.599 119.085L252.151 154.059C250.539 177.138 248.015 195.292 243.803 209.491C239.605 223.641 233.802 233.586 225.787 240.557C217.764 247.528 207.114 251.885 192.521 254.078C177.873 256.27 159.539 256.242 136.46 254.631L101.486 252.183C78.4078 250.564 60.2534 248.047 46.0549 243.835C31.9049 239.637 21.9597 233.835 14.9884 225.819C8.02403 217.797 3.66006 207.146 1.4677 192.553C-0.724656 177.898 -0.696993 159.571 0.914426 136.493L3.36268 101.519Z" fill="url(#paint1_linear_1367_5133)"/>
<path d="M3.36268 101.519C4.98101 78.44 7.49842 60.2856 11.7102 46.0871C15.9082 31.9371 21.7107 21.9919 29.7332 15.0206C37.7488 8.04934 48.4063 3.69229 62.999 1.49993C77.647 -0.692429 95.9743 -0.664766 119.053 0.946653L154.027 3.3949C177.105 5.01324 195.267 7.53065 209.465 11.7425C223.608 15.9405 233.554 21.7429 240.525 29.7585C247.496 37.7811 251.86 48.4316 254.046 63.0243C256.245 77.6792 256.21 96.0065 254.599 119.085L252.151 154.059C250.539 177.138 248.015 195.292 243.803 209.491C239.605 223.641 233.802 233.586 225.787 240.557C217.764 247.528 207.114 251.885 192.521 254.078C177.873 256.27 159.539 256.242 136.46 254.631L101.486 252.183C78.4078 250.564 60.2534 248.047 46.0549 243.835C31.9049 239.637 21.9597 233.835 14.9884 225.819C8.02403 217.797 3.66006 207.146 1.4677 192.553C-0.724656 177.898 -0.696993 159.571 0.914426 136.493L3.36268 101.519Z" stroke="white" stroke-width="8.99075"/>
<path d="M3.36268 101.519C4.98101 78.44 7.49842 60.2856 11.7102 46.0871C15.9082 31.9371 21.7107 21.9919 29.7332 15.0206C37.7488 8.04934 48.4063 3.69229 62.999 1.49993C77.647 -0.692429 95.9743 -0.664766 119.053 0.946653L154.027 3.3949C177.105 5.01324 195.267 7.53065 209.465 11.7425C223.608 15.9405 233.554 21.7429 240.525 29.7585C247.496 37.7811 251.86 48.4316 254.046 63.0243C256.245 77.6792 256.21 96.0065 254.599 119.085L252.151 154.059C250.539 177.138 248.015 195.292 243.803 209.491C239.605 223.641 233.802 233.586 225.787 240.557C217.764 247.528 207.114 251.885 192.521 254.078C177.873 256.27 159.539 256.242 136.46 254.631L101.486 252.183C78.4078 250.564 60.2534 248.047 46.0549 243.835C31.9049 239.637 21.9597 233.835 14.9884 225.819C8.02403 217.797 3.66006 207.146 1.4677 192.553C-0.724656 177.898 -0.696993 159.571 0.914426 136.493L3.36268 101.519Z" stroke="url(#paint2_linear_1367_5133)" stroke-width="8.99075"/>
</mask>
<g mask="url(#mask0_1367_5133)">
<g filter="url(#filter0_iii_1367_5133)">
<path d="M-2.84669 109.008C-2.55515 16.0383 17.4241 -3.81849 110.386 -3.54029L145.439 -3.43061C238.407 -3.15287 258.271 16.8329 257.987 109.802L257.877 144.855C257.599 237.823 237.613 257.681 144.651 257.402L109.592 257.293C16.6227 257.009 -3.23458 237.022 -2.94948 144.06L-2.84669 109.008Z" fill="url(#paint3_linear_1367_5133)"/>
<path d="M-2.84669 109.008C-2.55515 16.0383 17.4241 -3.81849 110.386 -3.54029L145.439 -3.43061C238.407 -3.15287 258.271 16.8329 257.987 109.802L257.877 144.855C257.599 237.823 237.613 257.681 144.651 257.402L109.592 257.293C16.6227 257.009 -3.23458 237.022 -2.94948 144.06L-2.84669 109.008Z" fill="black" fill-opacity="0.7"/>
</g>
<path d="M1.64161 109.017C1.70957 85.8827 3.0096 67.5939 6.26467 53.1461C9.50963 38.7544 14.6425 28.4437 22.1751 20.9532C29.7077 13.4626 40.0507 8.40415 54.4646 5.24301C68.9332 2.07128 87.222 0.882932 110.364 0.950432L145.416 1.06012C168.558 1.13452 186.84 2.43501 201.288 5.69008C215.68 8.93505 225.997 14.0606 233.48 21.5936C240.971 29.1331 246.036 39.4688 249.19 53.8831C252.362 68.3518 253.551 86.6474 253.483 109.782L253.374 144.842C253.306 167.976 252.005 186.258 248.743 200.706C245.499 215.105 240.373 225.415 232.84 232.906C225.301 240.397 214.965 245.455 200.551 248.616C186.082 251.781 167.787 252.976 144.652 252.908L109.592 252.799C86.4573 252.724 68.1754 251.424 53.7276 248.169C39.3289 244.924 29.0188 239.798 21.5282 232.266C14.0441 224.726 8.97919 214.39 5.81805 199.976C2.65276 185.5 1.46442 167.211 1.53238 144.077L1.64161 109.017Z" stroke="white" stroke-width="8.99075"/>
<path d="M1.64161 109.017C1.70957 85.8827 3.0096 67.5939 6.26467 53.1461C9.50963 38.7544 14.6425 28.4437 22.1751 20.9532C29.7077 13.4626 40.0507 8.40415 54.4646 5.24301C68.9332 2.07128 87.222 0.882932 110.364 0.950432L145.416 1.06012C168.558 1.13452 186.84 2.43501 201.288 5.69008C215.68 8.93505 225.997 14.0606 233.48 21.5936C240.971 29.1331 246.036 39.4688 249.19 53.8831C252.362 68.3518 253.551 86.6474 253.483 109.782L253.374 144.842C253.306 167.976 252.005 186.258 248.743 200.706C245.499 215.105 240.373 225.415 232.84 232.906C225.301 240.397 214.965 245.455 200.551 248.616C186.082 251.781 167.787 252.976 144.652 252.908L109.592 252.799C86.4573 252.724 68.1754 251.424 53.7276 248.169C39.3289 244.924 29.0188 239.798 21.5282 232.266C14.0441 224.726 8.97919 214.39 5.81805 199.976C2.65276 185.5 1.46442 167.211 1.53238 144.077L1.64161 109.017Z" stroke="url(#paint4_linear_1367_5133)" stroke-width="8.99075"/>
<path d="M4.93397 109.027C5.00701 85.9682 6.30571 67.9706 9.48725 53.8743C12.6403 39.8699 17.5456 30.1983 24.4996 23.2802C31.454 16.3689 41.153 11.5268 55.1846 8.45363C69.2981 5.3611 87.3026 4.17097 110.368 4.23665L145.42 4.34634C168.486 4.41891 186.477 5.71808 200.579 8.89226C214.584 12.0522 224.256 16.9575 231.167 23.9119C238.078 30.8664 242.92 40.5654 245.994 54.597C249.086 68.7036 250.276 86.708 250.21 109.773L250.101 144.833C250.028 167.891 248.729 185.889 245.555 199.985C242.402 213.989 237.489 223.661 230.535 230.573C223.58 237.484 213.882 242.333 199.857 245.406C185.744 248.498 167.739 249.688 144.674 249.616L109.622 249.513C86.5559 249.44 68.5583 248.142 54.4624 244.967C40.4575 241.807 30.786 236.902 23.8747 229.947C16.9634 222.993 12.1145 213.294 9.04126 199.263C5.94919 185.156 4.7586 167.145 4.83164 144.086L4.93397 109.027Z" stroke="url(#paint5_linear_1367_5133)" stroke-opacity="0.05" stroke-width="15.5609"/>
<path fill-rule="evenodd" clip-rule="evenodd" d="M11.0868 54.2328C7.94897 68.1529 6.64748 86.0052 6.57259 109.036L6.4698 144.088C6.40182 167.119 7.58916 184.978 10.649 198.914C13.6743 212.747 18.4119 222.128 25.0406 228.796C31.662 235.458 41.0143 240.253 54.8222 243.37C68.7419 246.501 86.601 247.802 109.625 247.871L144.684 247.98C167.701 248.049 185.574 246.861 199.51 243.808C213.336 240.776 222.717 236.039 229.385 229.417C236.047 222.788 240.842 213.436 243.959 199.628C247.097 185.708 248.398 167.849 248.467 144.825L248.57 109.773C248.644 86.7419 247.45 68.8833 244.397 54.9474C241.365 41.1141 236.627 31.7338 230.006 25.065C223.377 18.4036 214.032 13.6082 200.217 10.491C186.297 7.36001 168.445 6.05851 145.414 5.98363L110.362 5.88084C87.3383 5.8124 69.4723 7.0002 55.5364 10.0531C41.703 13.0853 32.3228 17.8229 25.654 24.4448C18.9925 31.073 14.204 40.418 11.0868 54.2328ZM110.39 -3.54084C17.4217 -3.81858 -2.55709 16.0451 -2.84909 109.008L-2.95188 144.06C-3.22962 237.029 16.634 257.007 109.596 257.293L144.656 257.402C237.618 257.68 257.603 237.816 257.882 144.854L257.991 109.802C258.276 16.8323 238.412 -3.15342 145.443 -3.43115L110.39 -3.54084Z" fill="url(#paint6_linear_1367_5133)"/>
<g filter="url(#filter1_diii_1367_5133)">
<path d="M75.0564 163.994L50.8333 163.922C45.0998 163.904 40.435 168.776 40.4155 174.808C40.3961 180.84 45.0274 185.729 50.7683 185.754L74.9845 185.825C80.7249 185.844 85.3897 180.971 85.4092 174.939C85.4217 168.908 80.7973 164.019 75.0564 163.994Z" fill="#F23E94"/>
<path d="M50.8324 164.576L75.0486 164.648C80.3869 164.665 84.7689 169.245 84.7479 174.944C84.7339 180.643 80.3318 185.193 74.9865 185.176L50.7703 185.104C45.4251 185.087 41.0501 180.507 41.0641 174.809C41.0781 169.11 45.4871 164.559 50.8324 164.576Z" stroke="url(#paint7_linear_1367_5133)" stroke-opacity="0.1" stroke-width="1.30712" stroke-linejoin="round"/>
<path d="M183.282 186.151L207.498 186.223C213.239 186.241 217.903 181.368 217.923 175.336C217.936 169.305 213.304 164.409 207.563 164.391L183.354 164.319C177.614 164.301 172.949 169.173 172.922 175.206C172.909 181.23 177.541 186.126 183.282 186.151Z" fill="#F23E94"/>
<path d="M207.509 185.573L183.299 185.501C177.954 185.477 173.579 180.904 173.6 175.205C173.614 169.506 178.016 164.956 183.362 164.973L207.578 165.045C212.923 165.062 217.298 169.642 217.277 175.341C217.263 181.04 212.861 185.59 207.516 185.573L207.509 185.573Z" stroke="url(#paint8_linear_1367_5133)" stroke-opacity="0.1" stroke-width="1.30712" stroke-linejoin="round"/>
<path d="M139.008 164.121L119.29 164.053C113.557 164.042 108.892 168.907 108.873 174.939C108.853 180.971 113.485 185.873 119.226 185.892L138.935 185.946C144.676 185.964 149.341 181.091 149.367 175.059C149.38 169.035 144.748 164.139 139.008 164.121Z" fill="#F23E94"/>
<path d="M119.289 164.709L139 164.77C144.345 164.787 148.719 169.36 148.698 175.059C148.684 180.758 144.282 185.308 138.937 185.291L119.227 185.23C113.882 185.213 109.507 180.64 109.521 174.941C109.542 169.242 113.944 164.692 119.289 164.709Z" stroke="url(#paint9_linear_1367_5133)" stroke-opacity="0.1" stroke-width="1.30712" stroke-linejoin="round"/>
<path d="M173.97 154.709L197.292 154.785C203.033 154.803 207.698 149.93 207.717 143.899C207.73 137.867 203.098 132.972 197.357 132.947L174.042 132.884C168.302 132.866 163.637 137.738 163.618 143.77C163.605 149.794 168.23 154.69 173.97 154.709Z" fill="#6927DA"/>
<path d="M197.282 154.13L173.967 154.061C168.629 154.043 164.247 149.47 164.268 143.771C164.282 138.073 168.684 133.523 174.029 133.539L197.351 133.609C202.697 133.626 207.071 138.199 207.05 143.898C207.036 149.596 202.634 154.147 197.289 154.13L197.282 154.13Z" stroke="url(#paint10_linear_1367_5133)" stroke-opacity="0.1" stroke-width="1.30712" stroke-linejoin="round"/>
<path d="M84.1596 132.611L60.8372 132.535C55.1037 132.516 50.4389 137.389 50.4195 143.42C50.4 149.452 55.0318 154.348 60.7727 154.373L84.0941 154.435C89.8276 154.454 94.4924 149.581 94.5118 143.549C94.5318 137.525 89.9 132.629 84.1596 132.611Z" fill="#6927DA"/>
<path d="M60.8632 133.181L84.1786 133.257C89.5239 133.274 93.9053 137.847 93.8844 143.546C93.8704 149.245 89.4614 153.795 84.1161 153.778L60.8011 153.709C55.4559 153.692 51.0813 149.118 51.0953 143.42C51.1162 137.721 55.5184 133.171 60.8636 133.187L60.8632 133.181Z" stroke="url(#paint11_linear_1367_5133)" stroke-opacity="0.1" stroke-width="1.30712" stroke-linejoin="round"/>
<path d="M146.578 132.726L111.886 132.62C106.146 132.602 101.481 137.475 101.462 143.506C101.449 149.538 106.081 154.433 111.821 154.451L146.52 154.557C152.253 154.576 156.918 149.703 156.938 143.671C156.957 137.64 152.319 132.751 146.578 132.726Z" fill="#6927DA"/>
<path d="M111.88 133.268L146.572 133.375C151.917 133.391 156.292 137.972 156.278 143.67C156.257 149.369 151.855 153.919 146.51 153.903L111.811 153.797C106.466 153.78 102.091 149.2 102.112 143.501C102.126 137.802 106.528 133.252 111.873 133.269L111.88 133.268Z" stroke="url(#paint12_linear_1367_5133)" stroke-opacity="0.1" stroke-width="1.30712" stroke-linejoin="round"/>
<path d="M115.546 100.343L71.2729 100.205C65.5325 100.187 60.8677 105.06 60.8482 111.091C60.8357 117.122 65.4675 122.018 71.2083 122.043L115.481 122.174C121.221 122.192 125.886 117.319 125.906 111.288C125.918 105.257 121.287 100.368 115.546 100.343Z" fill="#1570EF"/>
<path d="M71.2599 100.868L115.54 100.998C120.885 101.015 125.26 105.595 125.238 111.287C125.224 116.986 120.822 121.536 115.477 121.526L71.1974 121.389C65.8591 121.371 61.4776 116.799 61.4985 111.1C61.5125 105.401 65.9147 100.851 71.2599 100.868Z" stroke="url(#paint13_linear_1367_5133)" stroke-opacity="0.1" stroke-width="1.30712" stroke-linejoin="round"/>
<path d="M145.599 122.261L187.043 122.387C192.783 122.398 197.448 117.532 197.468 111.501C197.48 105.469 192.848 100.574 187.107 100.549L145.664 100.43C139.923 100.411 135.258 105.284 135.239 111.316C135.226 117.34 139.858 122.236 145.599 122.261Z" fill="#1570EF"/>
<path d="M187.04 121.739L145.588 121.606C140.243 121.597 135.868 117.016 135.889 111.317C135.903 105.619 140.305 101.068 145.651 101.085L187.102 101.211C192.447 101.228 196.822 105.801 196.801 111.5C196.787 117.198 192.385 121.749 187.04 121.739Z" stroke="url(#paint14_linear_1367_5133)" stroke-opacity="0.1" stroke-width="1.30712" stroke-linejoin="round"/>
<path d="M177.253 69.1198L153.882 69.0468C148.142 69.0287 143.477 73.9015 143.458 79.9331C143.445 85.9643 148.07 90.8605 153.817 90.8782L177.181 90.9516C182.921 90.9698 187.586 86.097 187.606 80.0653C187.618 74.0342 182.993 69.1379 177.253 69.1129L177.253 69.1198Z" fill="#22CCEE"/>
<path d="M153.876 69.6962L177.247 69.7692C182.592 69.786 186.967 74.3662 186.946 80.0653C186.932 85.7569 182.53 90.3072 177.185 90.2972L153.821 90.2238C148.469 90.2074 144.087 85.6277 144.108 79.9286C144.129 74.2296 148.531 69.6794 153.876 69.6962Z" stroke="url(#paint15_linear_1367_5133)" stroke-opacity="0.1" stroke-width="1.30712" stroke-linejoin="round"/>
<path d="M104.674 68.8902L81.3041 68.8242C75.5637 68.806 70.899 73.6788 70.8795 79.7105C70.8665 85.7347 75.4983 90.6305 81.2387 90.6486L104.602 90.7221C110.343 90.7402 115.015 85.8669 115.034 79.8353C115.047 73.811 110.408 68.9158 104.667 68.8907L104.674 68.8902Z" fill="#22CCEE"/>
<path d="M81.2972 69.4795L104.668 69.5524C110.013 69.5693 114.388 74.1426 114.374 79.8412C114.36 85.5397 109.958 90.09 104.605 90.0736L81.2416 90.0002C75.8895 89.9838 71.5149 85.4105 71.5289 79.7119C71.5498 74.0129 75.952 69.4626 81.2972 69.4795Z" stroke="url(#paint16_linear_1367_5133)" stroke-opacity="0.1" stroke-width="1.30712" stroke-linejoin="round"/>
</g>
<g opacity="0.23" filter="url(#filter2_f_1367_5133)">
<path d="M4.25493 155.531L44.0617 170.142L149 210.313L257.643 221.514L177.808 268.371L0.306959 264.202L4.25493 155.531Z" fill="#F24396"/>
</g>
<g opacity="0.23" filter="url(#filter3_f_1367_5133)">
<path d="M-6.17199 6.9711L185.912 -21.421L254.604 25.8808L207.445 47.472L77.0178 50.6973L-6.17199 6.9711Z" fill="#22CCEE"/>
</g>
<g opacity="0.1" filter="url(#filter4_f_1367_5133)">
<path d="M26.3861 -5.00804L218.266 -34.7867L287.293 12.0214L240.288 33.9489L109.889 38.1219L26.3861 -5.00804Z" fill="#22CCEE"/>
</g>
<g opacity="0.1" filter="url(#filter5_f_1367_5133)">
<path d="M-58.3947 247.558L133.485 217.773L202.512 264.581L155.507 286.508L25.1082 290.681L-58.3947 247.558Z" fill="#F24497"/>
</g>
</g>
</g>
<defs>
<filter id="filter0_iii_1367_5133" x="-2.95312" y="-17.3749" width="260.941" height="288.612" filterUnits="userSpaceOnUse" color-interpolation-filters="sRGB">
<feFlood flood-opacity="0" result="BackgroundImageFix"/>
<feBlend mode="normal" in="SourceGraphic" in2="BackgroundImageFix" result="shape"/>
<feColorMatrix in="SourceAlpha" type="matrix" values="0 0 0 0 0 0 0 0 0 0 0 0 0 0 0 0 0 0 127 0" result="hardAlpha"/>
<feOffset dy="4.938"/>
<feGaussianBlur stdDeviation="6.17595"/>
<feComposite in2="hardAlpha" operator="arithmetic" k2="-1" k3="1"/>
<feColorMatrix type="matrix" values="0 0 0 0 0.196078 0 0 0 0 0.188235 0 0 0 0 0.219608 0 0 0 1 0"/>
<feBlend mode="normal" in2="shape" result="effect1_innerShadow_1367_5133"/>
<feColorMatrix in="SourceAlpha" type="matrix" values="0 0 0 0 0 0 0 0 0 0 0 0 0 0 0 0 0 0 127 0" result="hardAlpha"/>
<feOffset dy="13.8319"/>
<feGaussianBlur stdDeviation="10.3739"/>
<feComposite in2="hardAlpha" operator="arithmetic" k2="-1" k3="1"/>
<feColorMatrix type="matrix" values="0 0 0 0 0.321569 0 0 0 0 0.905882 0 0 0 0 1 0 0 0 0.6 0"/>
<feBlend mode="normal" in2="effect1_innerShadow_1367_5133" result="effect2_innerShadow_1367_5133"/>
<feColorMatrix in="SourceAlpha" type="matrix" values="0 0 0 0 0 0 0 0 0 0 0 0 0 0 0 0 0 0 127 0" result="hardAlpha"/>
<feOffset dy="-13.8319"/>
<feGaussianBlur stdDeviation="6.91596"/>
<feComposite in2="hardAlpha" operator="arithmetic" k2="-1" k3="1"/>
<feColorMatrix type="matrix" values="0 0 0 0 0.933333 0 0 0 0 0.160784 0 0 0 0 0.509804 0 0 0 0.5 0"/>
<feBlend mode="normal" in2="effect2_innerShadow_1367_5133" result="effect3_innerShadow_1367_5133"/>
</filter>
<filter id="filter1_diii_1367_5133" x="7.75299" y="42.6957" width="242.834" height="182.717" filterUnits="userSpaceOnUse" color-interpolation-filters="sRGB">
<feFlood flood-opacity="0" result="BackgroundImageFix"/>
<feColorMatrix in="SourceAlpha" type="matrix" values="0 0 0 0 0 0 0 0 0 0 0 0 0 0 0 0 0 0 127 0" result="hardAlpha"/>
<feOffset dy="6.52867"/>
<feGaussianBlur stdDeviation="16.3286"/>
<feComposite in2="hardAlpha" operator="out"/>
<feColorMatrix type="matrix" values="0 0 0 0 0 0 0 0 0 0 0 0 0 0 0 0 0 0 0.5 0"/>
<feBlend mode="normal" in2="BackgroundImageFix" result="effect1_dropShadow_1367_5133"/>
<feBlend mode="normal" in="SourceGraphic" in2="effect1_dropShadow_1367_5133" result="shape"/>
<feColorMatrix in="SourceAlpha" type="matrix" values="0 0 0 0 0 0 0 0 0 0 0 0 0 0 0 0 0 0 127 0" result="hardAlpha"/>
<feOffset dy="6.52867"/>
<feGaussianBlur stdDeviation="19.5929"/>
<feComposite in2="hardAlpha" operator="arithmetic" k2="-1" k3="1"/>
<feColorMatrix type="matrix" values="0 0 0 0 0.29135 0 0 0 0 0.0895476 0 0 0 0 0.654593 0 0 0 1 0"/>
<feBlend mode="normal" in2="shape" result="effect2_innerShadow_1367_5133"/>
<feColorMatrix in="SourceAlpha" type="matrix" values="0 0 0 0 0 0 0 0 0 0 0 0 0 0 0 0 0 0 127 0" result="hardAlpha"/>
<feOffset dy="-6.52867"/>
<feGaussianBlur stdDeviation="3.26433"/>
<feComposite in2="hardAlpha" operator="arithmetic" k2="-1" k3="1"/>
<feColorMatrix type="matrix" values="0 0 0 0 0 0 0 0 0 0 0 0 0 0 0 0 0 0 0.1 0"/>
<feBlend mode="normal" in2="effect2_innerShadow_1367_5133" result="effect3_innerShadow_1367_5133"/>
<feColorMatrix in="SourceAlpha" type="matrix" values="0 0 0 0 0 0 0 0 0 0 0 0 0 0 0 0 0 0 127 0" result="hardAlpha"/>
<feOffset dy="6.52867"/>
<feGaussianBlur stdDeviation="3.26433"/>
<feComposite in2="hardAlpha" operator="arithmetic" k2="-1" k3="1"/>
<feColorMatrix type="matrix" values="0 0 0 0 1 0 0 0 0 1 0 0 0 0 1 0 0 0 0.05 0"/>
<feBlend mode="normal" in2="effect3_innerShadow_1367_5133" result="effect4_innerShadow_1367_5133"/>
</filter>
<filter id="filter2_f_1367_5133" x="-89.5989" y="65.6228" width="437.151" height="292.656" filterUnits="userSpaceOnUse" color-interpolation-filters="sRGB">
<feFlood flood-opacity="0" result="BackgroundImageFix"/>
<feBlend mode="normal" in="SourceGraphic" in2="BackgroundImageFix" result="shape"/>
<feGaussianBlur stdDeviation="44.9537" result="effect1_foregroundBlur_1367_5133"/>
</filter>
<filter id="filter3_f_1367_5133" x="-96.0794" y="-111.328" width="440.592" height="251.933" filterUnits="userSpaceOnUse" color-interpolation-filters="sRGB">
<feFlood flood-opacity="0" result="BackgroundImageFix"/>
<feBlend mode="normal" in="SourceGraphic" in2="BackgroundImageFix" result="shape"/>
<feGaussianBlur stdDeviation="44.9537" result="effect1_foregroundBlur_1367_5133"/>
</filter>
<filter id="filter4_f_1367_5133" x="-63.5208" y="-124.695" width="440.721" height="252.724" filterUnits="userSpaceOnUse" color-interpolation-filters="sRGB">
<feFlood flood-opacity="0" result="BackgroundImageFix"/>
<feBlend mode="normal" in="SourceGraphic" in2="BackgroundImageFix" result="shape"/>
<feGaussianBlur stdDeviation="44.9537" result="effect1_foregroundBlur_1367_5133"/>
</filter>
<filter id="filter5_f_1367_5133" x="-148.302" y="127.865" width="440.721" height="252.724" filterUnits="userSpaceOnUse" color-interpolation-filters="sRGB">
<feFlood flood-opacity="0" result="BackgroundImageFix"/>
<feBlend mode="normal" in="SourceGraphic" in2="BackgroundImageFix" result="shape"/>
<feGaussianBlur stdDeviation="44.9537" result="effect1_foregroundBlur_1367_5133"/>
</filter>
<linearGradient id="paint0_linear_1367_5133" x1="128" y1="0" x2="128" y2="256" gradientUnits="userSpaceOnUse">
<stop stop-color="#49DFFB"/>
<stop offset="0.455" stop-color="#6627C9"/>
<stop offset="1" stop-color="#EE2D86"/>
</linearGradient>
<linearGradient id="paint1_linear_1367_5133" x1="200.391" y1="23.9215" x2="142.214" y2="128.802" gradientUnits="userSpaceOnUse">
<stop stop-color="#363636"/>
<stop offset="1" stop-color="#141414"/>
</linearGradient>
<linearGradient id="paint2_linear_1367_5133" x1="136.855" y1="-2.31076" x2="118.659" y2="257.888" gradientUnits="userSpaceOnUse">
<stop stop-color="#52EDFF"/>
<stop offset="0.274" stop-color="#4361EE"/>
<stop offset="0.63" stop-color="#7209B7"/>
<stop offset="1" stop-color="#F12980"/>
</linearGradient>
<linearGradient id="paint3_linear_1367_5133" x1="193.058" y1="18.449" x2="142.008" y2="126.978" gradientUnits="userSpaceOnUse">
<stop stop-color="#363636"/>
<stop offset="1" stop-color="#141414"/>
</linearGradient>
<linearGradient id="paint4_linear_1367_5133" x1="127.901" y1="-3.48704" x2="127.107" y2="257.346" gradientUnits="userSpaceOnUse">
<stop stop-color="#52EDFF"/>
<stop offset="0.274" stop-color="#4361EE"/>
<stop offset="0.63" stop-color="#7209B7"/>
<stop offset="1" stop-color="#F12980"/>
</linearGradient>
<linearGradient id="paint5_linear_1367_5133" x1="127.864" y1="14.6282" x2="127.264" y2="210.252" gradientUnits="userSpaceOnUse">
<stop stop-color="white"/>
<stop offset="1" stop-color="white" stop-opacity="0"/>
</linearGradient>
<linearGradient id="paint6_linear_1367_5133" x1="127.917" y1="-3.486" x2="127.123" y2="257.347" gradientUnits="userSpaceOnUse">
<stop stop-color="#52EDFF"/>
<stop offset="0.274" stop-color="#4361EE"/>
<stop offset="0.63" stop-color="#7209B7"/>
<stop offset="1" stop-color="#F12980"/>
</linearGradient>
<linearGradient id="paint7_linear_1367_5133" x1="62.942" y1="163.96" x2="62.877" y2="185.792" gradientUnits="userSpaceOnUse">
<stop stop-color="white"/>
<stop offset="1" stop-color="white" stop-opacity="0"/>
</linearGradient>
<linearGradient id="paint8_linear_1367_5133" x1="195.406" y1="186.189" x2="195.471" y2="164.357" gradientUnits="userSpaceOnUse">
<stop stop-color="white" stop-opacity="0"/>
<stop offset="1" stop-color="white"/>
</linearGradient>
<linearGradient id="paint9_linear_1367_5133" x1="129.146" y1="164.085" x2="129.081" y2="185.916" gradientUnits="userSpaceOnUse">
<stop stop-color="white"/>
<stop offset="1" stop-color="white" stop-opacity="0"/>
</linearGradient>
<linearGradient id="paint10_linear_1367_5133" x1="185.623" y1="154.751" x2="185.695" y2="132.919" gradientUnits="userSpaceOnUse">
<stop stop-color="white" stop-opacity="0"/>
<stop offset="1" stop-color="white"/>
</linearGradient>
<linearGradient id="paint11_linear_1367_5133" x1="72.5224" y1="132.567" x2="72.4574" y2="154.399" gradientUnits="userSpaceOnUse">
<stop stop-color="white"/>
<stop offset="1" stop-color="white" stop-opacity="0"/>
</linearGradient>
<linearGradient id="paint12_linear_1367_5133" x1="129.224" y1="132.67" x2="129.159" y2="154.501" gradientUnits="userSpaceOnUse">
<stop stop-color="white"/>
<stop offset="1" stop-color="white" stop-opacity="0"/>
</linearGradient>
<linearGradient id="paint13_linear_1367_5133" x1="93.4012" y1="100.281" x2="93.3357" y2="122.106" gradientUnits="userSpaceOnUse">
<stop stop-color="white"/>
<stop offset="1" stop-color="white" stop-opacity="0"/>
</linearGradient>
<linearGradient id="paint14_linear_1367_5133" x1="166.313" y1="122.328" x2="166.378" y2="100.496" gradientUnits="userSpaceOnUse">
<stop stop-color="white" stop-opacity="0"/>
<stop offset="1" stop-color="white"/>
</linearGradient>
<linearGradient id="paint15_linear_1367_5133" x1="165.563" y1="69.081" x2="165.498" y2="90.9124" gradientUnits="userSpaceOnUse">
<stop stop-color="white" stop-opacity="0"/>
<stop offset="1" stop-color="white"/>
</linearGradient>
<linearGradient id="paint16_linear_1367_5133" x1="92.984" y1="68.8643" x2="92.9186" y2="90.6888" gradientUnits="userSpaceOnUse">
<stop stop-color="white"/>
<stop offset="1" stop-color="white" stop-opacity="0"/>
</linearGradient>
<clipPath id="clip0_1367_5133">
<rect width="256" height="256" fill="white"/>
</clipPath>
</defs>
</svg>
