<svg width="256" height="256" viewBox="0 0 256 256" fill="none" xmlns="http://www.w3.org/2000/svg">
<rect width="256" height="256" fill="white"/>
<path d="M39.2422 120.775C39.2422 117.818 41.6396 115.446 44.5993 115.446C46.0101 115.446 47.2635 116.005 48.2243 116.886C48.1986 116.407 48.1697 115.954 48.1697 115.475C48.1697 105.59 56.1621 97.5945 66.0505 97.5945C68.6085 97.5945 71.0316 98.128 73.2458 99.1145C73.2201 98.6068 73.1912 98.1022 73.1912 97.6234C73.1912 82.8085 85.1813 70.8184 99.9962 70.8184C114.705 70.8184 126.641 82.6767 126.801 97.3567C121.952 101.621 118.089 107.001 115.611 113.078C110.817 110.092 105.167 108.309 99.1189 108.309C86.65 108.309 75.8842 115.398 70.8484 126.109H51.7401H44.5993C41.6396 126.051 39.2422 123.734 39.2422 120.775ZM180.386 104.761C173.75 98.1247 164.61 94.0241 154.487 94.0241C136.021 94.0241 120.727 107.695 118.221 125.492C113.664 119.418 106.391 115.472 98.2094 115.472C84.3811 115.472 73.188 126.691 73.188 140.493C73.188 144.517 74.1456 148.299 75.8264 151.683C67.1399 153.441 60.6901 160.184 60.6901 168.205C60.6901 177.585 69.4826 185.179 80.3544 185.179C85.1492 185.179 89.5487 183.688 92.9583 181.21L133.168 141.666C137.618 137.588 143.532 135.111 150.033 135.111C163.623 135.111 174.681 145.957 175.054 159.464C175.054 159.464 175.054 159.438 175.029 159.438C175.241 163.436 173.165 167.459 169.328 169.67C163.97 172.762 157.257 171.11 154.326 166.02C151.37 160.903 153.314 154.267 158.671 151.179C159.924 150.459 161.229 150.006 162.563 149.768C161.416 149.527 160.217 149.421 158.992 149.421C149.133 149.421 141.112 157.413 141.112 167.302C141.112 177.187 149.104 185.183 158.992 185.183C159.42 185.183 159.873 185.157 160.297 185.128L160.271 185.073L160.779 185.019H195.872V185.15C206.609 184.672 216.761 174.786 216.761 162.742C216.761 150.404 206.211 140.333 193.873 140.333C193.848 140.333 193.848 140.333 193.819 140.333C191.82 143.903 189.397 145.982 186.652 148.219C189.529 142.971 191.184 137 191.184 130.605C191.123 120.511 187.019 111.397 180.386 104.761Z" fill="url(#paint0_linear_1296_5852)"/>
<defs>
<linearGradient id="paint0_linear_1296_5852" x1="127.989" y1="70.8344" x2="127.989" y2="185.203" gradientUnits="userSpaceOnUse">
<stop stop-color="#FAD956"/>
<stop offset="1" stop-color="#FFA10F"/>
</linearGradient>
</defs>
</svg>
