<svg width="256" height="256" viewBox="0 0 256 256" fill="none" xmlns="http://www.w3.org/2000/svg">
<g clip-path="url(#clip0_1354_1307)">
<path d="M256 0H0V256H256V0Z" fill="url(#paint0_radial_1354_1307)"/>
<path d="M58.3832 170.994C82.1273 170.994 101.376 151.745 101.376 128.001C101.376 104.257 82.1273 85.0088 58.3832 85.0088C34.639 85.0088 15.3906 104.257 15.3906 128.001C15.3906 151.745 34.639 170.994 58.3832 170.994Z" fill="url(#paint1_linear_1354_1307)"/>
<path fill-rule="evenodd" clip-rule="evenodd" d="M58.3823 85.0088C82.1109 85.0088 101.375 104.273 101.375 128.001C101.375 151.73 82.1109 170.994 58.3823 170.994C34.6702 170.994 15.4062 151.73 15.4062 128.001C15.4062 104.273 34.6702 85.0088 58.3823 85.0088ZM58.3823 87.6968C80.6383 87.6968 98.6867 105.76 98.6867 128.001C98.6867 150.242 80.6383 168.306 58.3823 168.306C36.1415 168.306 18.0944 150.242 18.0944 128.001C18.0944 105.76 36.1428 87.6968 58.3823 87.6968Z" fill="url(#paint2_linear_1354_1307)"/>
<path d="M58.3845 160.242C76.1901 160.242 90.6244 145.807 90.6244 128.002C90.6244 110.196 76.1901 95.7617 58.3845 95.7617C40.5788 95.7617 26.1445 110.196 26.1445 128.002C26.1445 145.807 40.5788 160.242 58.3845 160.242Z" fill="#4DCAED"/>
<path d="M58.3838 157.553C74.7048 157.553 87.9356 144.323 87.9356 128.002C87.9356 111.68 74.7048 98.4497 58.3838 98.4497C42.0628 98.4497 28.832 111.68 28.832 128.002C28.832 144.323 42.0628 157.553 58.3838 157.553Z" fill="url(#paint3_linear_1354_1307)"/>
<path d="M58.3824 150.161C70.6208 150.161 80.5421 140.24 80.5421 128.002C80.5421 115.763 70.6208 105.842 58.3824 105.842C46.1439 105.842 36.2227 115.763 36.2227 128.002C36.2227 140.24 46.1439 150.161 58.3824 150.161Z" fill="#B7BDD2"/>
<path fill-rule="evenodd" clip-rule="evenodd" d="M109.857 49.3604C111.057 50.0964 112.129 50.8965 113.041 51.7444C124.433 62.3205 130.065 72.6886 133.233 87.1208C136.017 99.8889 137.361 106.064 130.657 110.705C121.601 116.993 140.321 143.81 143.969 151.569C139.153 157.761 132.865 157.633 129.537 159.345C127.697 160.289 128.449 163.809 128.753 166.513C129.041 169.169 131.489 170.833 130.145 172.897C128.945 174.737 124.401 174.865 122.433 176.129C124.337 178.225 128.545 180.321 128.001 183.041C127.569 185.138 122.833 184.769 121.009 189.538C120.033 192.098 120.545 196.834 118.529 199.234C115.473 202.866 112.321 204.514 107.793 204.93C105.377 205.186 102.929 204.946 100.625 204.178C93.1048 201.714 86.113 198.162 79.8086 193.73C82.3847 194.162 85.2007 194.562 88.1607 194.898C96.7368 195.842 101.057 195.026 105.168 190.13C106.944 188.034 106.512 183.858 107.36 181.602C108.976 177.41 113.136 177.73 113.504 175.89C114 173.506 110.288 171.665 108.624 169.825C110.352 168.705 114.336 168.593 115.392 166.977C116.576 165.169 114.432 163.697 114.176 161.361C113.904 158.993 113.232 155.889 114.864 155.057C117.776 153.553 123.313 153.665 127.553 148.225C124.336 141.409 107.888 117.809 115.84 112.289C121.744 108.209 120.56 102.769 118.096 91.5691C115.328 78.865 110.368 69.7449 100.352 60.4485C98.1918 58.4324 94.9918 56.7524 91.4237 55.5364C97.2318 52.7524 103.409 50.6723 109.857 49.3604Z" fill="url(#paint4_linear_1354_1307)"/>
<path fill-rule="evenodd" clip-rule="evenodd" d="M128 47.793C129.696 47.825 131.408 47.937 133.12 48.081C177.232 52.0971 209.792 91.1533 205.792 135.267C202.096 175.955 168.576 206.819 128.768 208.211C129.344 207.763 129.888 207.283 130.4 206.755C133.808 203.251 134.448 199.043 135.04 194.739C135.344 192.563 136.992 192.403 138.384 191.603C144.464 188.099 141.872 180.003 141.872 180.003C143.648 178.659 144.928 176.675 145.312 174.499C145.84 171.427 143.76 168.787 143.328 165.267C144.176 165.027 145.024 164.787 145.856 164.515C152.688 162.275 162.032 156.835 158.496 149.506C154.576 141.362 149.12 133.65 145.536 125.186C144.144 121.89 142.544 118.546 143.088 115.49C149.744 110.706 151.12 102.93 150.176 95.8896C147.648 77.265 140.544 60.417 128 47.793Z" fill="#D1D1E0"/>
<path fill-rule="evenodd" clip-rule="evenodd" d="M146.493 59.6165C157.293 63.6646 167.196 69.8246 175.164 78.0802C190.365 93.776 199.404 116.625 195.021 137.904C190.877 158.065 173.389 174.848 161.788 180.017C156.236 182.497 151.74 182.129 151.772 181.457C151.804 180.785 152.508 179.377 155.98 175.185C168.412 160.193 175.741 138.289 164.812 121.201C162.604 117.728 159.884 114.801 156.812 112.288C159.276 107.664 159.692 102.208 159.004 97.1206C157.148 83.4884 153.085 70.7212 146.493 59.6165Z" fill="url(#paint5_linear_1354_1307)"/>
<path fill-rule="evenodd" clip-rule="evenodd" d="M123.951 17.665C84.9105 38.9777 58.3824 80.4179 58.3824 128.002C58.3824 135.538 59.0544 142.914 60.3343 150.082C59.6943 150.13 59.0383 150.162 58.3824 150.162C46.1582 150.162 36.2227 140.225 36.2227 128.002C36.2227 91.234 49.6788 57.6012 71.9345 31.729C87.358 23.0569 105.087 17.9846 123.951 17.665Z" fill="url(#paint6_linear_1354_1307)"/>
<path fill-rule="evenodd" clip-rule="evenodd" d="M71.92 31.7286C87.888 22.7684 106.288 17.6484 125.873 17.6484C186.769 17.6484 236.226 67.1049 236.226 128.018C236.226 186.995 182.657 241.411 103.024 223.987L102.848 223.843C150.496 228.899 185.617 209.491 204.657 181.139L204.769 180.963C214.961 165.844 220.896 147.619 220.896 128.018V128.002C220.896 75.5538 178.304 32.9779 125.872 32.9779C91.5201 32.9779 61.4073 51.2339 44.7188 78.5623C50.8788 61.2344 60.176 45.3935 71.92 31.7286Z" fill="#94A2C1"/>
<path fill-rule="evenodd" clip-rule="evenodd" d="M125.873 17.6484C186.77 17.6484 236.226 67.1049 236.226 128.018C236.226 151.65 227.618 174.562 212.179 192.403C225.619 174.434 233.571 152.147 233.571 128.018C233.571 68.5776 185.315 20.305 125.875 20.305C104.115 20.305 83.8419 26.785 66.9141 37.8886C68.5301 35.7926 70.1942 33.7285 71.9221 31.7286C78.6582 27.9525 85.8263 24.8486 93.3146 22.5285H93.3466L94.1626 22.2725H94.1786L95.8426 21.7925L95.8746 21.7765L96.6426 21.5685L96.7386 21.5365L97.5387 21.3285C97.8267 21.2485 98.0987 21.1845 98.3867 21.1045L99.1867 20.8965L99.3147 20.8805L100.035 20.6885L100.131 20.6725L100.947 20.4805L101.779 20.2885L101.891 20.2725L102.579 20.1125L102.739 20.0805L103.491 19.9205L103.555 19.9045L104.387 19.7445L104.451 19.7285L105.187 19.5845L105.379 19.5525L106.035 19.4245L106.211 19.4085L107.027 19.2485L107.827 19.1205L108.019 19.0885L108.659 18.9925L108.867 18.9605L109.555 18.8485L109.683 18.8325L110.515 18.7045L110.643 18.6885L111.315 18.6085L111.555 18.5765L112.163 18.4965L112.387 18.4645L113.203 18.3684L114.019 18.2885L114.243 18.2565L114.851 18.1924L115.107 18.1764L115.747 18.1124L115.923 18.0964L116.739 18.0164L116.915 18.0004L117.571 17.9525L117.827 17.9364L118.419 17.9044L118.659 17.8884L119.491 17.8244L120.307 17.7924L120.563 17.7764L121.155 17.7444H121.427L122.067 17.7124H122.259L123.075 17.6804H123.283L123.923 17.6645H124.195L124.787 17.6485H125.043L125.873 17.6484Z" fill="#B7BDD2"/>
</g>
<defs>
<radialGradient id="paint0_radial_1354_1307" cx="0" cy="0" r="1" gradientUnits="userSpaceOnUse" gradientTransform="translate(-0.164164 0.260229) rotate(90.0366) scale(256.169 256.758)">
<stop stop-color="#314B95"/>
<stop offset="1" stop-color="#1F355E"/>
</radialGradient>
<linearGradient id="paint1_linear_1354_1307" x1="58.3914" y1="170.983" x2="58.3914" y2="85.0088" gradientUnits="userSpaceOnUse">
<stop stop-color="#384E8B"/>
<stop offset="1" stop-color="#26355D"/>
</linearGradient>
<linearGradient id="paint2_linear_1354_1307" x1="58.3905" y1="170.983" x2="58.3905" y2="85.0088" gradientUnits="userSpaceOnUse">
<stop stop-color="#4864B2"/>
<stop offset="1" stop-color="#2B3C6A"/>
</linearGradient>
<linearGradient id="paint3_linear_1354_1307" x1="58.3921" y1="157.549" x2="58.3921" y2="98.4415" gradientUnits="userSpaceOnUse">
<stop stop-color="#22B2E7"/>
<stop offset="1" stop-color="#177A9E"/>
</linearGradient>
<linearGradient id="paint4_linear_1354_1307" x1="115.156" y1="202.402" x2="115.156" y2="47.7544" gradientUnits="userSpaceOnUse">
<stop stop-color="#364B85"/>
<stop offset="1" stop-color="#293965"/>
</linearGradient>
<linearGradient id="paint5_linear_1354_1307" x1="159.266" y1="181.956" x2="159.266" y2="65.6652" gradientUnits="userSpaceOnUse">
<stop stop-color="#A7B1CD"/>
<stop offset="0.46" stop-color="#C8CBDC"/>
<stop offset="1" stop-color="#D1D2E0"/>
</linearGradient>
<linearGradient id="paint6_linear_1354_1307" x1="60.3294" y1="150.083" x2="101.886" y2="20.2693" gradientUnits="userSpaceOnUse">
<stop stop-color="#B7BDD2"/>
<stop offset="1" stop-color="#607BB6"/>
</linearGradient>
<clipPath id="clip0_1354_1307">
<rect width="256" height="256" fill="white"/>
</clipPath>
</defs>
</svg>
