<svg width="256" height="256" viewBox="0 0 256 256" fill="none" xmlns="http://www.w3.org/2000/svg">
<g clip-path="url(#clip0_1294_3071)">
<path d="M256 0H0V256H256V0Z" fill="#8DB600"/>
<mask id="mask0_1294_3071" style="mask-type:luminance" maskUnits="userSpaceOnUse" x="36" y="49" width="184" height="155">
<path d="M36.7109 49.2116H219.423V203.427H36.7109V49.2116Z" fill="white"/>
</mask>
<g mask="url(#mask0_1294_3071)">
<path d="M43.9106 143.619L62.19 149.242C64.9933 147.32 69.4519 144.256 71.3353 142.915C78.7593 137.629 88.3278 136.236 98.2762 139.006C103.12 140.352 108.327 142.334 113.367 145.225C106.341 123.839 89.2879 114.899 75.9868 111.201C66.8153 108.655 58.0379 109.727 51.2748 114.233C44.5192 118.732 40.2954 126.331 39.0609 136.205C38.6474 139.51 40.6872 142.628 43.9106 143.619Z" fill="#DD8577"/>
<path d="M95.9665 120.793C98.9725 124.842 101.545 129.605 103.403 135.261C98.3633 132.37 93.1566 130.389 88.3125 129.042C78.3641 126.273 68.7956 127.665 61.3716 132.951C59.4884 134.292 55.0298 137.357 52.2263 139.279L39.2164 135.277C39.1704 135.591 39.1007 135.886 39.0609 136.205C38.6474 139.51 40.6872 142.628 43.9106 143.619L62.19 149.242C64.9933 147.32 69.4519 144.256 71.3353 142.915C78.7593 137.629 88.3278 136.236 98.2762 139.006C103.12 140.352 108.327 142.334 113.367 145.225C109.673 133.982 103.201 126.203 95.9665 120.793Z" fill="#BC5757"/>
<path d="M97.2482 93.5604C97.806 91.9005 99.9751 90.9942 103.582 91.1079C106.832 91.1572 110.895 91.9483 115.022 93.3346C122.731 95.9232 130.269 100.628 129.054 104.245C128.513 105.854 126.437 106.701 123.042 106.701C122.936 106.701 122.829 106.701 122.72 106.698C119.47 106.648 115.406 105.857 111.28 104.471C103.571 101.882 96.0332 97.1778 97.2482 93.5604ZM121.277 79.6155C121.834 77.9555 123.992 77.0374 127.611 77.163C130.861 77.2123 134.924 78.0034 139.051 79.3896C146.76 81.9782 154.297 86.6829 153.082 90.3003C152.542 91.9094 150.466 92.7558 147.071 92.7558C146.965 92.7558 146.858 92.7558 146.748 92.7528C143.498 92.7035 139.435 91.9124 135.308 90.5261C127.599 87.9376 120.062 83.2329 121.277 79.6155ZM145.201 65.8082C145.758 64.1482 147.937 63.2286 151.535 63.3557C154.786 63.405 158.849 64.1961 162.975 65.5823C170.684 68.171 178.222 72.8756 177.007 76.493C176.466 78.1021 174.389 78.95 170.993 78.95C170.888 78.95 170.781 78.9485 170.674 78.947C167.423 78.8976 163.36 78.1066 159.233 76.7203C151.524 74.1302 143.986 69.4256 145.201 65.8082ZM76.3974 109.726C90.4133 113.623 108.511 123.163 115.378 146.429C118.95 148.68 122.396 151.425 125.526 154.763C146.12 142.956 194.634 115.118 213.77 103.922C216.17 102.518 217.458 99.8486 217.052 97.121C212.79 68.5149 193.05 57.2708 177.241 52.8742C168.873 50.5518 160.791 51.2098 154.481 54.7315C133.916 66.2146 80.1442 97.4087 60.3438 108.911C65.342 107.92 70.8028 108.171 76.3974 109.726Z" fill="#F4DA8F"/>
<path d="M111.767 103.021C115.749 104.358 119.647 105.12 122.744 105.168C125.931 105.194 127.361 104.47 127.601 103.758C128.179 102.038 123.488 97.7943 114.534 94.7855C110.553 93.4486 106.655 92.6859 103.558 92.638C103.457 92.6366 103.358 92.6366 103.26 92.6366C100.255 92.6366 98.9318 93.3574 98.7001 94.0483C98.1221 95.768 102.814 100.012 111.767 103.021Z" fill="#BC5757"/>
<path d="M159.72 75.2699C163.701 76.6068 167.599 77.3695 170.696 77.4158C173.908 77.4502 175.315 76.719 175.555 76.0056C176.133 74.2859 171.441 70.0419 162.488 67.0331C158.506 65.6961 154.608 64.9335 151.511 64.8856C151.41 64.8841 151.311 64.8841 151.214 64.8841C148.208 64.8841 146.885 65.6049 146.653 66.2958C146.075 68.0156 150.767 72.2611 159.72 75.2699Z" fill="#BC5757"/>
<path d="M135.794 89.0757C139.776 90.4126 143.674 91.1752 146.771 91.2231C149.955 91.262 151.389 90.5263 151.629 89.813C152.207 88.0932 147.515 83.8492 138.562 80.8404C134.58 79.5034 130.682 78.7408 127.585 78.6929C127.484 78.6914 127.386 78.6914 127.288 78.6914C124.282 78.6914 122.959 79.4122 122.727 80.1031C122.149 81.8228 126.841 86.0669 135.794 89.0757Z" fill="#BC5757"/>
<path d="M124.682 156.131C124.679 156.125 124.679 156.118 124.676 156.112C121.525 152.693 118.03 149.911 114.408 147.641C114.385 147.629 114.364 147.614 114.341 147.599C108.892 144.195 103.159 141.95 97.8694 140.48C88.3711 137.84 79.267 139.147 72.2265 144.162C71.2492 144.857 69.5794 146.017 67.8086 147.239C73.3312 145.731 79.5077 145.818 85.8551 147.583C102.011 152.074 122.214 163.55 126.715 192.712C126.953 194.25 126.775 195.777 126.241 197.166C129.271 195.103 133.282 192.349 135.068 191.019C137.051 189.545 138.031 186.995 137.625 184.366C135.719 172.015 130.911 162.928 124.793 156.241C124.758 156.202 124.71 156.179 124.682 156.131Z" fill="#F4DA8F"/>
<path d="M125.201 192.946C120.824 164.591 101.165 153.429 85.4439 149.058C82.1869 148.153 78.9799 147.705 75.8949 147.705C70.3408 147.705 65.1864 149.162 60.8491 152.018C60.7211 152.106 60.628 152.169 60.6205 152.175C60.6205 152.175 60.6201 152.175 60.6201 152.175C53.9325 156.684 49.7453 164.245 48.5179 174.062C48.1044 177.365 50.1442 180.485 53.3676 181.478L116.25 200.818C118.554 201.527 121.016 201.011 122.833 199.441C124.694 197.83 125.58 195.403 125.201 192.946Z" fill="#DD8577"/>
<path d="M125.201 192.946C121.635 169.848 107.929 158.16 94.471 152.257C99.6106 158.678 103.584 167.053 105.274 178.001C105.653 180.458 104.767 182.885 102.906 184.495C101.089 186.065 98.6272 186.581 96.3227 185.873L48.9781 171.311C48.8058 172.213 48.6361 173.117 48.5179 174.062C48.1044 177.365 50.1442 180.485 53.3676 181.478L116.25 200.818C118.554 201.527 121.016 201.011 122.833 199.441C124.694 197.83 125.58 195.403 125.201 192.946Z" fill="#BC5757"/>
<path d="M217.052 97.121C212.79 68.5149 193.05 57.2708 177.241 52.8742C172.398 51.5301 167.663 51.2161 163.299 51.8461C196.7 60.3473 199.689 86.2527 199.689 86.2527L112.059 137.857C113.336 140.489 114.463 143.329 115.378 146.429C118.95 148.68 122.396 151.425 125.526 154.763C146.12 142.956 194.634 115.118 213.77 103.922C216.17 102.518 217.458 99.8487 217.052 97.121Z" fill="#DFB673"/>
<path d="M114.039 164.374H114.039C120.078 171.193 124.806 180.362 126.712 192.712C126.95 194.25 126.771 195.777 126.238 197.166C129.267 195.103 133.279 192.349 135.065 191.019C137.048 189.545 138.028 186.995 137.622 184.366C135.715 172.015 130.908 162.928 124.79 156.241C124.754 156.202 124.706 156.179 124.679 156.131C124.675 156.125 124.676 156.118 124.672 156.112C124.961 161.478 119.385 167.525 114.039 164.374Z" fill="#DFB673"/>
<path d="M125.346 157.281C124.815 157.281 124.299 157.005 124.016 156.511C123.596 155.778 123.849 154.842 124.583 154.422C144.852 142.803 194.079 114.557 213.383 103.262C215.512 102.016 216.655 99.6519 216.294 97.2352C212.094 69.0359 192.627 57.9488 177.035 53.6136C168.864 51.342 160.987 51.976 154.854 55.4006C129.566 69.5204 54.0341 113.464 53.2744 113.906C52.5447 114.331 51.6063 114.084 51.1808 113.353C50.7554 112.622 51.0028 111.684 51.7341 111.259C52.4945 110.817 128.049 66.8601 153.361 52.7267C160.201 48.9059 168.902 48.1732 177.856 50.6616C194.321 55.2405 214.881 66.9588 219.324 96.7836C219.869 100.444 218.145 104.024 214.93 105.906C195.615 117.207 146.378 145.457 126.106 157.078C125.866 157.215 125.604 157.281 125.346 157.281Z" fill="#433C35"/>
<path d="M126.26 131.267C125.73 131.267 125.216 130.993 124.932 130.501C124.509 129.768 124.76 128.832 125.493 128.409L202.28 84.0768C203.013 83.6521 203.948 83.9048 204.372 84.6376C204.795 85.3703 204.544 86.3065 203.811 86.7297L127.024 131.062C126.782 131.201 126.519 131.267 126.26 131.267Z" fill="#433C35"/>
<path d="M62.3201 151.613C62.1706 151.613 62.0188 151.592 61.8693 151.546L43.2355 145.814C38.9443 144.495 36.2301 140.333 36.7819 135.919C38.1017 125.361 42.6731 117.202 50.0015 112.319C57.3277 107.44 66.7728 106.257 76.6022 108.988C90.8709 112.955 109.328 122.69 116.218 146.535C116.452 147.347 115.984 148.196 115.172 148.431C114.358 148.66 113.51 148.198 113.275 147.384C106.777 124.897 89.2992 115.698 75.7813 111.94C66.8251 109.448 58.272 110.49 51.6996 114.869C45.1347 119.242 41.0267 126.652 39.8206 136.299C39.4535 139.234 41.2682 142.005 44.1357 142.886L62.7695 148.618C63.5778 148.868 64.0317 149.725 63.7827 150.532C63.5808 151.19 62.9744 151.613 62.3201 151.613Z" fill="#433C35"/>
<path d="M72.0247 144.338C71.8632 144.338 71.6995 144.312 71.538 144.259C67.6103 142.941 63.4694 141.351 60.1787 139.899C54.8123 137.529 55.0561 134.651 55.4098 133.523C56.4431 130.227 61.8565 128.642 67.993 129.835C68.823 129.997 69.3651 130.8 69.2036 131.63C69.0429 132.461 68.2413 133.009 67.4083 132.841C62.1759 131.829 58.669 133.364 58.3318 134.44C58.1883 134.897 58.8911 135.983 61.4154 137.097C64.6246 138.513 68.669 140.065 72.5115 141.355C73.3138 141.624 73.7452 142.491 73.4768 143.294C73.2615 143.934 72.6648 144.338 72.0247 144.338Z" fill="#433C35"/>
<path d="M94.6015 140.479C94.0287 140.479 93.4791 140.157 93.2174 139.605C88.3954 129.439 69.7332 112.415 42.8229 124.674C42.052 125.024 41.1451 124.685 40.7943 123.916C40.4437 123.146 40.7839 122.238 41.5533 121.887C70.5347 108.681 90.7418 127.236 95.984 138.292C96.3466 139.056 96.0214 139.97 95.2572 140.331C95.0449 140.432 94.8213 140.479 94.6015 140.479Z" fill="#433C35"/>
<path d="M127.302 79.457C124.654 79.457 123.551 80.0596 123.454 80.3468C123.124 81.3307 127.125 85.3534 136.04 88.3488C139.948 89.6618 143.764 90.411 146.784 90.4573C149.651 90.5202 150.806 89.8667 150.905 89.5691C151.236 88.5851 147.235 84.5624 138.32 81.567C134.412 80.254 130.596 79.5048 127.576 79.4585C127.482 79.457 127.391 79.457 127.302 79.457ZM147.067 93.5215C146.958 93.5215 146.849 93.5215 146.738 93.5185C143.41 93.4676 139.265 92.6631 135.065 91.2529C127.056 88.5626 119.098 83.6965 120.552 79.3717C121.022 77.972 122.641 76.3061 127.622 76.3973C130.95 76.4482 135.095 77.2527 139.295 78.6629C147.304 81.3532 155.262 86.2193 153.808 90.5441C153.349 91.9124 151.801 93.5215 147.067 93.5215Z" fill="#433C35"/>
<path d="M103.274 93.4023C100.627 93.4023 99.5236 94.0049 99.4271 94.2921C99.0967 95.2761 103.098 99.2988 112.013 102.294C115.921 103.607 119.737 104.356 122.757 104.403C125.615 104.477 126.779 103.812 126.878 103.514C127.208 102.53 123.207 98.5077 114.292 95.5123C110.384 94.1994 106.569 93.4501 103.549 93.4038C103.455 93.4023 103.364 93.4023 103.274 93.4023ZM123.039 107.467C122.931 107.467 122.822 107.467 122.71 107.464C119.383 107.413 115.238 106.608 111.038 105.198C103.029 102.508 95.071 97.6418 96.5245 93.3171C96.9941 91.9173 98.6278 90.2006 103.595 90.3427C106.922 90.3935 111.068 91.198 115.267 92.6082C123.276 95.2985 131.234 100.165 129.781 104.489C129.322 105.858 127.774 107.467 123.039 107.467Z" fill="#433C35"/>
<path d="M151.227 65.6498C148.58 65.6498 147.477 66.2524 147.38 66.5396C147.05 67.525 151.05 71.5478 159.966 74.5431C163.874 75.8561 167.69 76.6053 170.71 76.6501C173.557 76.7205 174.732 76.0595 174.831 75.7619C175.162 74.7779 171.161 70.7552 162.246 67.7598C158.337 66.4469 154.522 65.6976 151.502 65.6513C151.408 65.6498 151.317 65.6498 151.227 65.6498ZM170.99 79.7158C170.882 79.7158 170.774 79.7143 170.663 79.7128C167.336 79.662 163.19 78.8574 158.991 77.4472C150.982 74.757 143.024 69.8908 144.478 65.5646C144.947 64.1648 146.589 62.478 151.548 62.5902C154.875 62.641 159.021 63.4455 163.221 64.8557C171.229 67.546 179.187 72.4121 177.734 76.7369C177.275 78.1052 175.726 79.7158 170.99 79.7158Z" fill="#433C35"/>
<path d="M122.861 201.914C122.369 201.914 121.885 201.678 121.589 201.238C121.117 200.537 121.303 199.586 122.004 199.113C122.099 199.049 131.585 192.656 134.609 190.405C136.364 189.101 137.229 186.831 136.867 184.483C132.552 156.534 113.166 145.529 97.6616 141.219C88.3937 138.641 79.5183 139.909 72.6685 144.786C69.8212 146.813 61.1387 152.747 61.0512 152.807C60.3544 153.283 59.401 153.103 58.9232 152.406C58.4462 151.708 58.6256 150.755 59.324 150.277C59.4107 150.219 68.0685 144.303 70.8919 142.291C78.5089 136.867 88.3055 135.438 98.4826 138.267C114.855 142.819 135.33 154.452 139.893 184.017C140.429 187.489 139.105 190.879 136.437 192.864C133.356 195.155 124.108 201.389 123.715 201.652C123.453 201.829 123.155 201.914 122.861 201.914Z" fill="#433C35"/>
<path d="M75.8932 148.47C70.4393 148.47 65.3862 149.905 61.1527 152.726C54.5878 157.098 50.4798 164.508 49.2738 174.155C48.9066 177.091 50.7213 179.862 53.5896 180.744L116.471 200.084C118.553 200.725 120.687 200.279 122.328 198.86C123.989 197.424 124.779 195.257 124.44 193.062C120.126 165.111 100.738 154.106 85.2344 149.796C82.0461 148.909 78.9079 148.47 75.8932 148.47ZM118.315 203.427C117.4 203.427 116.476 203.291 115.571 203.013L52.6886 183.672C48.3967 182.35 45.6832 178.188 46.2351 173.775C47.5548 163.219 52.1263 155.059 59.4554 150.176C66.78 145.296 76.2274 144.115 86.0554 146.844C102.428 151.396 122.903 163.029 127.467 192.595C127.968 195.839 126.795 199.047 124.331 201.178C122.625 202.651 120.496 203.427 118.315 203.427Z" fill="#433C35"/>
<path d="M99.8982 186.251C91.0205 186.251 75.7791 180.47 69.6359 177.757C64.2703 175.387 64.5133 172.508 64.8662 171.382C65.9003 168.085 71.3093 166.499 77.4503 167.693C78.2802 167.854 78.8223 168.657 78.6608 169.487C78.5001 170.317 77.7007 170.866 76.8656 170.699C71.6375 169.686 68.1263 171.223 67.7891 172.297C67.6455 172.755 68.3483 173.84 70.8726 174.955C81.5186 179.656 98.6465 184.957 103.115 182.675C103.619 182.418 103.737 182.148 103.786 181.916C104.25 179.753 101.125 172.511 93.4985 166.378C86.79 160.984 72.5153 153.313 52.2799 162.532C51.5098 162.883 50.6021 162.544 50.2514 161.772C49.9007 161.004 50.2409 160.096 51.0103 159.744C72.7389 149.846 88.1598 158.153 95.4179 163.992C103.501 170.491 107.61 178.69 106.782 182.559C106.516 183.795 105.73 184.779 104.507 185.403C103.347 185.995 101.762 186.249 99.8982 186.251Z" fill="#433C35"/>
</g>
</g>
<defs>
<clipPath id="clip0_1294_3071">
<rect width="256" height="256" fill="white"/>
</clipPath>
</defs>
</svg>
