<svg width="256" height="256" viewBox="0 0 256 256" fill="none" xmlns="http://www.w3.org/2000/svg">
<g clip-path="url(#clip0_1878_4978)">
<rect width="256" height="256" fill="#064EE3"/>
<g clip-path="url(#clip1_1878_4978)">
<path fill-rule="evenodd" clip-rule="evenodd" d="M44.2834 132.207C43.9101 132.303 42.3119 132.68 40.7662 131.569C39.6748 130.784 39.251 129.712 39.0996 129.004C38.9557 128.331 38.9983 127.755 39.0398 127.423C39.1236 126.754 39.3319 126.143 39.49 125.727C39.8298 124.832 40.3628 123.761 40.9729 122.634C42.2185 120.333 44.0989 117.226 46.3589 113.642C51.7108 105.156 64.3356 87.2378 72.681 75.5073C74.9414 72.3299 76.0716 70.7412 76.0137 70.5438C75.9637 70.3735 75.8179 70.2549 75.641 70.2407C75.436 70.2242 74.1065 71.6591 71.4477 74.5289C66.6906 79.6635 61.3897 85.1612 58.9951 86.8619C58.7066 87.0666 58.3763 87.2853 58.027 87.4764C57.7434 87.6316 57.152 87.9363 56.3997 88.0693C55.7052 88.1927 53.5768 88.3338 52.191 86.369C51.1379 84.8759 51.445 83.3112 51.5085 82.9879L51.5093 82.9832C51.8577 81.2076 53.324 79.9353 55.0339 79.7538C64.6219 71.9106 72.7366 62.262 81.7471 53.782C83.4992 52.1328 85.0952 50.6964 86.3505 49.7037C86.9541 49.2265 87.6305 48.7296 88.2878 48.3711C88.5933 48.2043 89.1278 47.9359 89.7889 47.7902C90.3123 47.6748 92.0521 47.3917 93.5757 48.7325C94.8246 49.8312 94.9666 51.2278 94.9848 51.7401C95.0056 52.3362 94.8996 52.826 94.8361 53.0823C94.7004 53.6261 94.4843 54.1405 94.3122 54.5194C93.9444 55.3296 93.3955 56.3367 92.7552 57.4412C91.4541 59.685 89.53 62.7471 87.2261 66.3093C81.4708 75.2097 71.3715 90.4465 65.5501 99.2075C64.3397 101.029 63.7345 101.94 63.7952 102.133C63.8471 102.298 63.9937 102.415 64.1664 102.428C64.3681 102.444 65.1207 101.649 66.6256 100.059C77.0067 89.0933 99.4789 65.4735 112.545 52.6259C116.62 48.6193 120.154 45.2719 122.801 42.993C124.106 41.8702 125.308 40.9075 126.31 40.2511C126.786 39.9398 127.412 39.5651 128.098 39.3154C128.438 39.1915 128.997 39.0213 129.68 39.0018C130.384 38.9817 131.522 39.1213 132.56 39.9733C133.671 40.8856 134.011 42.0726 134.096 42.8249C134.177 43.541 134.072 44.1456 133.991 44.5003C133.826 45.2225 133.524 45.9037 133.27 46.4205C132.731 47.5161 131.902 48.8687 130.916 50.3574C128.916 53.3786 125.924 57.4751 122.318 62.2339C116.978 69.2834 104.719 84.6607 95.8952 95.6759C93.2222 99.013 91.8855 100.681 91.9351 100.884C91.9775 101.057 92.1224 101.185 92.3 101.205C92.5072 101.228 93.9918 99.6855 96.9606 96.6015C106.065 87.1437 118.361 74.4387 124.081 68.8348C128.19 64.8093 131.751 61.4497 134.413 59.1719C135.723 58.0507 136.934 57.0878 137.944 56.4362C138.42 56.1291 139.064 55.7496 139.776 55.5057C140.129 55.3847 140.722 55.2172 141.447 55.2262C142.216 55.2357 143.373 55.4585 144.365 56.3954C145.732 57.6867 145.7 59.3004 145.665 59.7953C145.62 60.4214 145.452 60.9365 145.35 61.2191C145.131 61.8255 144.807 62.4386 144.509 62.9608C143.884 64.0567 142.946 65.4756 141.803 67.1089C139.498 70.4068 136.103 74.9414 132.021 80.2615C124.057 90.6402 110.784 107.485 100.646 120.299C96.8797 125.059 94.9963 127.44 95.0488 127.643C95.0942 127.818 95.2429 127.944 95.4222 127.96C95.632 127.978 97.6667 125.732 101.737 121.239C115.845 105.665 136.582 82.9086 149.207 69.6697C154.552 64.0647 159.153 59.3995 162.572 56.2209C164.264 54.6481 165.769 53.3427 166.981 52.462C167.561 52.0404 168.259 51.579 168.986 51.2626C169.342 51.1078 169.92 50.8907 170.628 50.8243C171.344 50.7572 172.614 50.8156 173.779 51.7437C175.549 53.1534 175.357 55.1551 175.316 55.5233C175.246 56.1434 175.059 56.6531 174.953 56.9194C174.718 57.5098 174.377 58.1301 174.05 58.6845C173.365 59.8449 172.335 61.3841 171.063 63.1918C168.5 66.8357 164.729 71.8891 160.185 77.8489C148.562 93.0906 128.492 118.857 116.461 134.268C113.834 137.633 112.52 139.316 112.572 139.518C112.617 139.691 112.765 139.817 112.942 139.834C113.151 139.854 114.606 138.291 117.518 135.166C130.677 121.041 152.551 97.6398 165.616 84.083C170.782 78.7233 175.173 74.2574 178.361 71.181C179.944 69.654 181.294 68.407 182.321 67.554C182.814 67.1449 183.358 66.721 183.881 66.4011C184.117 66.2562 184.56 66.0004 185.116 65.8267L185.125 65.8239C185.401 65.7375 187.321 65.1366 189.058 66.5644C190.829 68.0204 190.579 70.0529 190.534 70.3928C190.453 71.0068 190.257 71.5121 190.146 71.7794C189.899 72.3716 189.544 72.9989 189.198 73.5678C188.476 74.7558 187.39 76.3362 186.048 78.1983C183.344 81.95 179.372 87.1552 174.587 93.297C163.326 107.754 143.155 132.897 129.901 149.361C126.414 153.692 124.671 155.859 124.721 156.062C124.764 156.237 124.912 156.364 125.09 156.382C125.299 156.403 127.194 154.367 130.984 150.295C143.558 136.784 161.586 117.538 172.203 106.764C177.21 101.683 181.531 97.4563 184.751 94.588C186.341 93.1716 187.775 91.9849 188.943 91.1886C189.5 90.8093 190.198 90.3774 190.943 90.0935C191.31 89.9532 191.91 89.7616 192.641 89.7392C193.404 89.7154 194.614 89.8794 195.678 90.8178C196.956 91.9447 197.101 93.3848 197.102 94.0061C197.103 94.6706 196.956 95.2177 196.864 95.5174C196.669 96.1505 196.364 96.7663 196.099 97.2575C195.54 98.2971 194.697 99.6143 193.685 101.099C191.636 104.106 188.605 108.217 184.959 113.021C176.875 123.669 162.546 141.869 153.126 153.783C150.651 156.914 149.413 158.479 149.463 158.682C149.506 158.854 149.652 158.981 149.829 159C150.036 159.023 151.418 157.585 154.182 154.709C165.012 143.442 181.81 126.053 191.696 116.248C196.058 111.922 199.798 108.313 202.549 105.84C203.909 104.617 205.114 103.593 206.071 102.891C206.525 102.559 207.085 102.175 207.669 101.895C207.944 101.763 208.451 101.541 209.092 101.44C209.658 101.351 211.165 101.234 212.514 102.386C213.942 103.605 214.002 105.212 213.978 105.794C213.95 106.457 213.779 106.997 213.678 107.282C213.461 107.896 213.138 108.503 212.853 109C212.248 110.049 211.342 111.397 210.246 112.934C208.031 116.043 204.763 120.314 200.83 125.318C191.631 137.026 175.062 157.395 164.316 170.553C161.573 173.912 160.202 175.591 160.25 175.794C160.29 175.967 160.435 176.096 160.612 176.117C160.819 176.142 162.339 174.589 165.379 171.483C174.921 161.73 188.236 148.199 196.063 140.577C200.032 136.712 203.444 133.48 205.965 131.265C207.21 130.172 208.328 129.245 209.23 128.605C209.656 128.303 210.2 127.943 210.78 127.681C211.055 127.556 211.558 127.349 212.192 127.265C212.771 127.187 214.175 127.123 215.457 128.177C216.512 129.045 216.853 130.159 216.953 130.848C217.049 131.514 216.974 132.073 216.915 132.392C216.796 133.039 216.563 133.626 216.386 134.029C216.008 134.894 215.432 135.926 214.777 137.016C213.44 139.239 211.444 142.234 209.054 145.687C203.233 154.095 191.754 169.496 184.362 179.338C182.411 181.936 181.436 183.235 181.486 183.432C181.531 183.602 181.67 183.725 181.845 183.746C182.048 183.771 183.212 182.63 185.541 180.347C189.344 176.619 193.588 172.623 196.089 170.792C196.357 170.596 196.655 170.39 196.96 170.208C197.187 170.073 197.732 169.758 198.424 169.588C198.759 169.506 199.53 169.352 200.464 169.584C201.62 169.871 202.691 170.675 203.238 171.915C203.681 172.916 203.605 173.812 203.552 174.2C203.489 174.647 203.369 175.009 203.287 175.228C202.768 176.611 201.57 177.54 200.215 177.78C190.344 185.771 181.722 195.273 172.139 203.607C170.282 205.221 168.579 206.626 167.226 207.588C166.575 208.05 165.836 208.533 165.109 208.865C164.764 209.024 164.187 209.26 163.486 209.353C162.846 209.438 161.296 209.499 159.957 208.28C158.9 207.317 158.653 206.136 158.599 205.509C158.545 204.874 158.639 204.348 158.705 204.052C158.84 203.446 159.075 202.889 159.256 202.495C159.643 201.654 160.224 200.637 160.889 199.551C162.245 197.34 164.256 194.354 166.661 190.903C171.852 183.455 184.551 166.931 193.065 155.944C195.301 153.057 196.42 151.613 196.369 151.412C196.324 151.24 196.18 151.115 196.003 151.096C195.797 151.074 194.532 152.388 192.002 155.014C178.922 168.597 155.551 192.755 144.394 203.614C140.418 207.484 136.996 210.721 134.464 212.942C133.214 214.039 132.091 214.969 131.183 215.611C130.753 215.916 130.209 216.275 129.633 216.537C129.357 216.663 128.865 216.865 128.248 216.954C127.692 217.034 126.336 217.118 125.055 216.142C123.743 215.142 123.443 213.76 123.396 213.005C123.351 212.276 123.493 211.67 123.586 211.341C123.779 210.649 124.102 209.985 124.376 209.469C124.961 208.372 125.853 206.988 126.924 205.435C129.094 202.289 132.326 197.99 136.224 192.971C143.703 183.337 159.239 164.432 170.755 150.509C174.564 145.905 176.468 143.602 176.419 143.398C176.378 143.223 176.233 143.093 176.054 143.073C175.845 143.05 173.788 145.215 169.676 149.545C157.932 161.911 142.396 178.181 134.502 186.087C130.166 190.429 126.464 194.053 123.76 196.544C122.421 197.778 121.252 198.803 120.34 199.509C119.908 199.844 119.389 200.221 118.861 200.506C118.62 200.636 118.152 200.873 117.555 201.009C117.136 201.105 115.402 201.442 113.863 200.114C112.681 199.094 112.436 197.79 112.398 197.102C112.36 196.414 112.487 195.84 112.574 195.514C112.755 194.838 113.057 194.189 113.317 193.682C113.866 192.609 114.702 191.266 115.702 189.767C117.729 186.731 120.742 182.595 124.371 177.777C132.121 167.487 148.216 147.429 160.01 132.838C163.792 128.158 165.683 125.818 165.632 125.614C165.589 125.44 165.441 125.312 165.262 125.294C165.053 125.273 163.015 127.477 158.94 131.883C143.094 149.017 118.854 175.155 106.383 188.23C101.464 193.388 97.273 197.691 94.2165 200.651C92.7009 202.12 91.393 203.328 90.3831 204.155C89.9008 204.551 89.3494 204.974 88.8036 205.293C88.5531 205.439 88.0865 205.694 87.4953 205.854C87.1096 205.958 85.3444 206.394 83.7267 205.089C82.3956 204.015 82.1646 202.572 82.1408 201.864C82.1167 201.146 82.2654 200.542 82.3667 200.196C82.5791 199.469 82.93 198.74 83.2572 198.123C83.9442 196.83 85.002 195.166 86.3005 193.256C88.9239 189.4 92.8293 184.11 97.5518 177.913C107.405 164.984 127.54 140.076 141.377 123.065C145.283 118.263 147.236 115.862 147.186 115.657C147.143 115.482 146.996 115.354 146.817 115.336C146.607 115.315 144.504 117.581 140.296 122.113C126.37 137.116 106.654 158.266 96.483 168.771C91.3095 174.115 86.9049 178.563 83.7 181.619C82.1103 183.134 80.7452 184.375 79.6981 185.221C79.1977 185.626 78.6313 186.054 78.0758 186.373C77.8234 186.519 77.3448 186.777 76.7399 186.934C76.3547 187.033 74.4826 187.474 72.8562 186.021C71.4398 184.755 71.4318 183.122 71.4597 182.597C71.4941 181.95 71.6607 181.413 71.7654 181.111C71.9897 180.465 72.3293 179.801 72.6529 179.221C73.3295 178.006 74.3539 176.422 75.6135 174.585C78.1545 170.878 81.9065 165.774 86.4328 159.778C96.7368 146.129 117.399 120.033 131.796 101.944C135.981 96.6858 138.074 94.0565 138.021 93.8518C137.976 93.6776 137.827 93.5509 137.647 93.5356C137.437 93.5174 135.187 96.0196 130.687 101.024C114.564 118.956 90.8103 145.259 78.3119 158.54C72.9999 164.185 68.4486 168.891 65.0919 172.12C63.4283 173.72 61.9729 175.04 60.8245 175.94C60.2735 176.373 59.6374 176.832 58.9939 177.167C58.6862 177.327 58.1682 177.569 57.5254 177.696C56.953 177.809 55.5301 177.972 54.1597 176.991C52.9313 176.112 52.5183 174.871 52.4077 174.057C52.3048 173.301 52.4132 172.659 52.4948 172.29C52.6622 171.534 52.98 170.811 53.2528 170.252C53.8319 169.065 54.7352 167.579 55.8239 165.921C58.0309 162.559 61.3446 157.975 65.3521 152.63C75.7131 138.81 97.6777 111.489 111.435 94.4846C114.662 90.4965 116.275 88.5021 116.226 88.2986C116.183 88.1244 116.037 87.9965 115.859 87.9774C115.65 87.9549 113.888 89.8184 110.361 93.5454C97.9371 106.677 79.876 125.682 70.9355 134.687C66.8815 138.769 63.4078 142.183 60.856 144.529C59.5946 145.689 58.4758 146.664 57.5874 147.338C57.1675 147.656 56.643 148.028 56.0947 148.308C55.8396 148.437 55.3535 148.666 54.7341 148.783C54.2171 148.881 52.6574 149.074 51.2439 147.897C49.884 146.765 49.7323 145.264 49.7334 144.626C49.7347 143.949 49.8911 143.394 49.9853 143.101C50.1858 142.475 50.4945 141.868 50.759 141.388C51.3204 140.372 52.1641 139.08 53.1762 137.624C55.2253 134.676 58.2558 130.638 61.8997 125.915C70.5741 114.673 88.7268 92.4799 101.135 77.3996C104.562 73.2342 106.276 71.1514 106.228 70.9469C106.187 70.7723 106.041 70.6431 105.862 70.6232C105.653 70.6 103.796 72.5493 100.082 76.4481C87.3533 89.8087 69.1505 108.856 60.0428 118.108C56.0394 122.175 52.6156 125.579 50.1063 127.927C48.8644 129.089 47.7732 130.063 46.9152 130.739C46.5075 131.06 46.0159 131.424 45.5128 131.705C45.2801 131.834 44.8417 132.063 44.2834 132.207Z" fill="white"/>
</g>
</g>
<defs>
<clipPath id="clip0_1878_4978">
<rect width="256" height="256" fill="white"/>
</clipPath>
<clipPath id="clip1_1878_4978">
<rect width="178" height="178" fill="white" transform="translate(39 39)"/>
</clipPath>
</defs>
</svg>
