<svg width="256" height="256" viewBox="0 0 256 256" fill="none" xmlns="http://www.w3.org/2000/svg">
<rect width="256" height="256" fill="url(#paint0_linear_1846_8102)"/>
<path d="M143.841 116.034L143.946 115.856C146.967 110.592 150.638 105.764 154.305 100.941C155.312 99.6168 156.32 98.2917 157.313 96.9588C161.164 91.6528 164.743 86.122 167.949 80.4024C171.517 73.5405 173.591 66.0613 175.52 58.6126C176.224 55.6304 177.162 52.7161 178.1 49.8023C179.064 46.8094 180.027 43.817 180.736 40.7522L181 39.3904L168.936 33L168.761 34.3436C168.108 37.9675 167.031 41.4787 165.954 44.9917C165.21 47.4144 164.467 49.8381 163.862 52.3003C161.976 59.6475 159.879 66.9819 156.403 73.7645C153.436 79.1473 149.932 84.1822 146.424 89.222C146.211 89.5293 145.997 89.8367 145.783 90.144C144.373 92.1382 142.92 94.1032 141.466 96.0684C138.399 100.215 135.331 104.363 132.672 108.787C132.863 106.798 132.793 105.121 132.712 103.2C132.694 102.749 132.674 102.286 132.658 101.802C132.593 101.338 132.535 100.873 132.477 100.408C132.361 99.479 132.245 98.5494 132.08 97.6279C131.78 95.9572 131.162 93.4429 130.647 91.3425C130.466 90.6094 130.299 89.9266 130.161 89.3478C129.641 87.1584 129.152 84.9623 128.663 82.7661C128.267 80.9872 127.871 79.2078 127.458 77.4324C126.899 75.3534 126.278 73.2956 125.657 71.2395C124.465 67.2938 123.275 63.3542 122.532 59.2827C121.988 55.7841 121.865 52.2436 121.772 48.7107L109.713 42.6196C109.857 46.2117 110.002 49.809 110.433 53.3808C111.181 57.9086 112.511 62.0919 113.864 66.3481C114.423 68.1071 114.986 69.8786 115.514 71.6919C115.963 73.5822 116.382 75.4783 116.802 77.3743C117.264 79.4616 117.726 81.5489 118.227 83.6281C118.346 84.1246 118.534 84.872 118.748 85.7254C119.274 87.8213 119.96 90.5569 120.196 91.787C120.366 92.6759 120.486 93.5732 120.607 94.4705C120.667 94.9191 120.728 95.3679 120.794 95.8155C120.814 96.2991 120.836 96.7566 120.858 97.1972C120.955 99.1988 121.036 100.853 120.768 103.028C120.555 104.754 120.084 106.435 119.612 108.116C119.063 110.073 118.514 112.031 118.372 114.063C118.368 114.414 118.35 114.767 118.332 115.119C118.325 115.261 118.317 115.403 118.311 115.544C117.294 114.729 116.271 113.921 115.249 113.112C111.466 110.12 107.683 107.127 104.174 103.812C102.302 101.803 100.537 99.6913 99.4325 97.1499C98.6384 95.3226 98.1828 93.3385 97.7335 91.382C97.5984 90.7937 97.4639 90.208 97.3209 89.6297C97.2296 89.2873 97.1391 88.9446 97.0487 88.6018C96.8678 87.9159 96.6869 87.23 96.4984 86.5461C95.8595 84.2277 95.1108 81.5123 94.2516 79.2724C93.0086 76.0318 91.4214 72.9329 89.839 69.8433C89.4693 69.1215 89.0999 68.4003 88.7352 67.6779C86.4496 62.4023 83.6739 57.3974 80.6559 52.5124C80.2984 51.9268 79.957 51.3334 79.6161 50.7408C78.724 49.1904 77.8357 47.6464 76.6739 46.2678L64 41.0163C65.487 42.2706 66.4365 43.9224 67.3901 45.581C67.6747 46.0762 67.9597 46.572 68.2595 47.0581C71.4271 51.9121 74.3367 56.903 76.6551 62.2266C77.0642 63.0197 77.4804 63.8112 77.8971 64.6035C79.4518 67.5599 81.0126 70.5276 82.2319 73.6331C83.1635 76.0059 83.7081 78.0756 84.3455 80.4977C84.3698 80.59 84.3942 80.6828 84.4188 80.7761C84.5963 81.4501 84.7655 82.1263 84.9347 82.8024C85.0193 83.1407 85.104 83.4789 85.1897 83.8168C85.3857 84.6107 85.5611 85.4175 85.7371 86.2268C86.1308 88.038 86.5273 89.862 87.1646 91.5825C88.1855 94.3385 89.9153 96.5916 91.8778 98.7509C92.1836 99.0484 92.4849 99.3505 92.7863 99.6527C93.389 100.257 93.9917 100.861 94.6293 101.428C97.5676 104.041 100.696 106.431 103.825 108.821C107.842 111.889 111.859 114.957 115.473 118.498C115.801 118.875 116.139 119.244 116.478 119.612C117.154 120.35 117.831 121.087 118.424 121.891C121.544 126.128 122.118 129.752 121.444 134.801L125.192 136.757C125.196 136.773 125.2 136.789 125.203 136.805C125.308 137.288 125.419 137.769 125.53 138.25C125.753 139.213 125.975 140.175 126.147 141.148C127.201 147.119 127.27 153.244 127.338 159.292L127.348 160.145C127.348 160.755 127.348 161.366 127.348 161.976C127.347 167.247 127.345 172.52 127.506 177.788C127.525 178.123 127.546 178.458 127.566 178.793L127.566 178.795C127.845 183.462 128.126 188.152 127.546 192.808C126.068 200.891 123.776 208.99 119.704 216.172L131.523 223C134.99 215.359 137.566 207.29 139.299 199.085C140.079 194.331 139.872 189.496 139.666 184.701C139.654 184.429 139.643 184.158 139.631 183.886C139.328 178.197 139.276 172.498 139.224 166.802V166.8L139.219 166.183L139.212 165.539C139.148 159.353 139.083 153.104 138.017 146.994C137.843 145.998 137.623 145.011 137.404 144.024C137.294 143.53 137.184 143.037 137.08 142.542C136.353 139.422 135.21 136.445 134.022 133.484L135.404 134.227C137.016 127.672 140.457 121.805 143.841 116.034Z" fill="white"/>
<defs>
<linearGradient id="paint0_linear_1846_8102" x1="128" y1="256" x2="128" y2="9.15527e-07" gradientUnits="userSpaceOnUse">
<stop stop-color="#0D6EFD"/>
<stop offset="1" stop-color="#37BDCF"/>
</linearGradient>
</defs>
</svg>
