<svg width="256" height="256" viewBox="0 0 256 256" fill="none" xmlns="http://www.w3.org/2000/svg">
<g clip-path="url(#clip0_1765_521)">
<rect width="256" height="256" fill="white"/>
<g clip-path="url(#clip1_1765_521)">
<path d="M21 21C91.6204 21 162.241 21 235 21C235 91.6204 235 162.241 235 235C164.38 235 93.7592 235 21 235C21 164.38 21 93.7592 21 21Z" fill="#FEFEFE"/>
<path d="M159.865 27.6587C160.763 28.0374 161.664 28.4195 162.594 28.8113C163.355 29.1738 164.116 29.5395 164.9 29.9183C165.752 30.3232 166.604 30.7314 167.483 31.1494C168.341 31.5673 169.204 31.9853 170.088 32.4131C170.96 32.831 171.835 33.249 172.737 33.6768C175.117 34.8196 177.488 35.9625 179.836 37.1707C180.704 37.5724 181.573 37.9773 182.468 38.3952C184.593 40.0214 184.593 40.0214 185.132 42.5292C185.106 43.5121 185.083 44.4917 185.057 45.504C185.041 46.5652 185.024 47.6297 185.011 48.7269C184.969 49.8371 184.93 50.9474 184.89 52.0902C184.868 53.2103 184.848 54.3336 184.825 55.4862C184.77 58.2585 184.691 61.0309 184.593 63.7999C183.467 64.1199 182.34 64.4432 181.181 64.773C176.926 65.9877 172.668 67.2024 168.413 68.4171C166.585 68.9363 164.759 69.4588 162.931 69.978C157.673 71.4768 152.416 72.9854 147.162 74.494C144.697 75.1993 142.228 75.8916 139.76 76.5839C138.277 77.0051 136.791 77.4263 135.309 77.8476C134.626 78.037 133.944 78.2231 133.242 78.4157C131.635 78.8762 130.052 79.4149 128.478 79.9701C128.004 80.9105 128.004 80.9105 127.524 81.8705C129.222 81.7268 129.222 81.7268 130.95 81.5766C137.634 81.5799 143.593 84.2281 149.758 86.5694C150.976 87.02 152.197 87.4706 153.419 87.918C155.642 88.7409 157.863 89.567 160.083 90.403C161.902 91.0789 163.731 91.7222 165.569 92.3328C165.569 100.493 165.569 108.656 165.569 117.062C145.954 121.777 145.954 121.777 137.987 123.543C136.488 123.876 136.488 123.876 134.956 124.216C132.409 124.65 130.101 124.706 127.524 124.673C127.527 125.872 127.531 127.073 127.531 128.311C127.55 139.606 127.567 150.901 127.573 162.199C127.58 168.005 127.586 173.814 127.596 179.62C127.606 185.22 127.612 190.82 127.616 196.42C127.619 198.559 127.622 200.701 127.625 202.843C127.632 205.831 127.635 208.819 127.632 211.807C127.635 212.701 127.642 213.596 127.645 214.52C127.635 220.626 127.635 220.626 126.574 221.684C110.143 224.28 91.4581 223.121 75.2128 219.784C74.883 187.091 75.7484 154.414 76.4863 121.731C76.6594 113.943 76.8325 106.155 77.0023 98.364C77.3517 82.406 77.7076 66.4449 78.0668 50.4837C97.5088 43.2966 97.5089 43.2966 105.623 40.4655C106.404 40.1912 107.181 39.9202 107.981 39.6393C109.594 39.0744 111.204 38.5128 112.817 37.9479C115.224 37.1087 117.63 36.2662 120.037 35.4205C123.198 34.3135 126.362 33.2196 129.529 32.1355C132.667 31.0547 135.776 29.915 138.878 28.7297C140.383 28.1746 141.889 27.6227 143.394 27.0676C144.067 26.7966 144.736 26.5256 145.428 26.248C150.963 24.2561 154.581 25.3337 159.865 27.6587Z" fill="#33548C"/>
<path d="M149.402 87.5781C154.911 88.6786 160.24 90.5562 165.569 92.3325C165.569 100.493 165.569 108.656 165.569 117.061C145.954 121.776 145.954 121.776 137.986 123.543C136.987 123.765 135.988 123.987 134.956 124.216C132.409 124.65 130.1 124.706 127.524 124.673C127.527 125.871 127.531 127.073 127.531 128.31C127.55 139.605 127.567 150.9 127.573 162.199C127.58 168.004 127.586 173.814 127.596 179.619C127.606 185.22 127.612 190.82 127.616 196.42C127.619 198.559 127.622 200.701 127.625 202.843C127.632 205.831 127.635 208.818 127.632 211.806C127.635 212.701 127.642 213.596 127.645 214.52C127.635 220.626 127.635 220.626 126.574 221.684C114.348 223.614 101.754 222.758 89.4824 221.684C89.4824 221.371 89.4824 221.057 89.4824 220.734C91.3437 220.571 93.205 220.414 95.0695 220.257C96.1046 220.169 97.143 220.081 98.2108 219.989C102.586 219.741 106.975 219.784 111.357 219.784C111.357 186.826 111.357 153.872 111.357 119.915C145.598 112.307 145.598 112.307 149.402 112.307C149.402 104.147 149.402 95.9865 149.402 87.5781Z" fill="#999999"/>
<path d="M169.372 33.3652C177.934 36.2159 177.934 36.2159 184.592 40.0201C184.592 47.8668 184.592 55.7135 184.592 63.7986C181.895 64.5692 179.198 65.3366 176.422 66.1301C173.751 66.8909 171.083 67.6517 168.412 68.4158C166.584 68.935 164.758 69.4575 162.93 69.9767C157.673 71.4755 152.415 72.9841 147.161 74.4927C144.696 75.198 142.227 75.8903 139.759 76.5826C138.276 77.0038 136.79 77.425 135.308 77.8463C134.626 78.0356 133.943 78.2218 133.241 78.4144C131.634 78.8748 130.051 79.4136 128.477 79.9688C128.163 80.5957 127.847 81.2227 127.523 81.8692C128.154 82.1827 128.78 82.4994 129.427 82.8227C123.778 84.0766 118.129 85.3338 112.307 86.6269C112.307 82.2317 112.307 77.8365 112.307 73.3106C119.324 71.1979 126.345 69.0885 133.365 66.9856C136.624 66.0092 139.883 65.0296 143.142 64.05C146.887 62.9202 150.636 61.8002 154.381 60.6769C155.553 60.3242 156.726 59.9716 157.931 59.6058C159.018 59.2826 160.102 58.9593 161.219 58.6262C162.176 58.3389 163.132 58.0515 164.118 57.7544C166.518 57.1405 166.518 57.1405 169.372 57.1405C169.372 49.2938 169.372 41.4471 169.372 33.3652Z" fill="#888889"/>
<path d="M149.4 87.5781C154.909 88.6786 160.238 90.5562 165.567 92.3325C165.567 100.493 165.567 108.656 165.567 117.061C145.952 121.776 145.952 121.776 137.985 123.543C136.486 123.876 136.486 123.876 134.954 124.216C132.414 124.647 130.092 124.761 127.522 124.673C127.333 126.39 127.333 126.39 127.14 128.141C126.971 129.639 126.801 131.138 126.631 132.637C126.549 133.391 126.468 134.149 126.379 134.926C125.73 140.624 125.73 140.624 124.672 142.743C122.964 142.45 121.263 142.152 119.558 141.852C118.608 141.685 117.661 141.519 116.681 141.349C114.209 140.84 114.209 140.84 112.306 139.89C112.306 146.796 112.306 153.699 112.306 160.814C111.992 160.814 111.679 160.814 111.355 160.814C111.355 147.318 111.355 133.822 111.355 119.915C130.582 115.644 130.582 115.644 133.936 114.9C135.843 114.475 137.746 114.044 139.647 113.6C143.013 112.816 145.923 112.307 149.4 112.307C149.4 104.147 149.4 95.9865 149.4 87.5781Z" fill="#8C8D8E"/>
<path d="M126.574 135.135C126.887 135.135 127.201 135.135 127.524 135.135C127.524 163.38 127.524 191.629 127.524 220.733C123.116 221.834 120.552 221.4 116.111 220.733C116.8 212.449 117.751 204.204 118.753 195.952C118.92 194.591 119.083 193.226 119.246 191.864C119.592 189.023 119.935 186.182 120.281 183.342C120.719 179.737 121.153 176.132 121.587 172.523C121.927 169.715 122.267 166.904 122.609 164.092C122.769 162.766 122.929 161.437 123.089 160.112C124.095 151.759 125.238 143.442 126.574 135.135Z" fill="#ABABAB"/>
<path d="M151.301 24.8047C157.786 26.7313 163.219 29.337 169.371 32.413C169.371 40.2597 169.371 48.1064 169.371 56.1915C165.113 55.3393 162.406 54.2878 158.612 52.3286C157.596 51.8061 156.581 51.2869 155.533 50.7481C154.765 50.3465 153.995 49.9481 153.204 49.5334C153.178 48.8869 153.156 48.2371 153.133 47.5709C153.022 44.6386 152.904 41.7063 152.787 38.774C152.751 37.7552 152.711 36.7364 152.676 35.6849C152.633 34.7086 152.594 33.729 152.555 32.7232C152.502 31.3714 152.502 31.3714 152.447 29.9901C152.333 27.528 152.333 27.528 151.301 24.8047Z" fill="#456BAE"/>
<path d="M134.18 81.8691C135.669 82.3034 137.155 82.741 138.641 83.1786C139.467 83.4202 140.293 83.6651 141.149 83.9133C143.621 84.7002 146.037 85.6602 148.447 86.6268C148.447 94.787 148.447 102.947 148.447 111.356C137.034 108.502 137.034 108.502 132.28 106.598C132.224 102.833 132.189 99.0712 132.159 95.3062C132.143 94.2319 132.13 93.1576 132.113 92.0539C132.107 91.0285 132.1 90.0065 132.094 88.9518C132.084 88.0048 132.074 87.0578 132.064 86.0847C132.28 83.7729 132.28 83.7729 134.18 81.8691Z" fill="#3B5D99"/>
<path d="M149.401 87.5781C154.91 88.6786 160.239 90.5562 165.568 92.3325C165.568 100.493 165.568 108.656 165.568 117.061C162.332 116.15 162.332 116.15 159.031 115.22C158.351 115.03 157.675 114.841 156.977 114.645C152.464 113.365 152.464 113.365 150.351 112.307C149.956 109.459 149.956 109.459 149.757 105.77C149.721 105.13 149.685 104.49 149.646 103.833C149.362 98.4127 149.3 93.0019 149.401 87.5781Z" fill="#999999"/>
<path d="M169.373 33.3652C177.935 36.2159 177.935 36.2159 184.593 40.0201C184.593 47.5533 184.593 55.0865 184.593 62.8484C179.835 61.8981 179.835 61.8981 169.373 57.1405C169.373 49.2938 169.373 41.4471 169.373 33.3652Z" fill="#ADADAD"/>
<path d="M149.402 98.041C149.715 98.041 150.029 98.041 150.352 98.041C150.352 102.75 150.352 107.458 150.352 112.307C151.998 112.738 153.647 113.17 155.345 113.617C158.672 114.485 161.569 115.481 164.619 117.062C157.464 119.07 150.29 120.902 143.041 122.531C142.107 122.753 141.176 122.975 140.213 123.204C132.837 124.856 127.132 124.827 119.915 122.234C119.191 121.98 118.466 121.722 117.718 121.457C117.186 121.264 116.657 121.068 116.111 120.866C116.111 120.239 116.111 119.612 116.111 118.966C120.239 118.012 124.369 117.065 128.5 116.121C129.904 115.798 131.308 115.475 132.713 115.152C134.731 114.685 136.752 114.224 138.776 113.764C140.598 113.346 140.598 113.346 142.456 112.918C145.598 112.307 145.598 112.307 149.402 112.307C149.402 107.599 149.402 102.89 149.402 98.041Z" fill="#88888A"/>
<path d="M162.714 92.332C163.658 92.332 164.598 92.332 165.568 92.332C165.568 100.492 165.568 108.656 165.568 117.061C163.684 116.434 161.803 115.807 159.863 115.16C160.154 111.888 160.454 108.62 160.755 105.351C160.836 104.424 160.918 103.493 161.003 102.536C161.088 101.645 161.169 100.753 161.254 99.8359C161.329 99.013 161.405 98.1901 161.483 97.3444C161.764 95.186 161.764 95.186 162.714 92.332Z" fill="#ABABAB"/>
<path d="M123.72 220.734C123.72 221.047 123.72 221.361 123.72 221.684C112.585 223.849 100.712 222.667 89.4824 221.684C89.4824 221.37 89.4824 221.057 89.4824 220.734C100.852 219.659 112.396 218.885 123.72 220.734Z" fill="#8C8E90"/>
<path d="M125.087 74.2024C125.812 74.5257 126.537 74.8457 127.281 75.1787C129.289 76.0996 131.262 77.0661 133.231 78.0653C128.245 79.6001 125.453 78.4017 121.008 76.1714C119.059 75.2571 117.26 74.7085 115.16 74.2612C115.16 73.6342 115.16 73.0073 115.16 72.3607C119.128 71.0382 121.436 72.5697 125.087 74.2024Z" fill="#7B7C7D"/>
<path d="M121.819 118.965C121.506 119.592 121.189 120.219 120.866 120.866C123.063 121.183 125.261 121.496 127.524 121.819C127.524 122.76 127.524 123.7 127.524 124.673C123.759 123.416 119.991 122.162 116.111 120.866C116.111 120.239 116.111 119.612 116.111 118.965C119.677 117.894 119.677 117.894 121.819 118.965Z" fill="#787A7D"/>
</g>
</g>
<defs>
<clipPath id="clip0_1765_521">
<rect width="256" height="256" fill="white"/>
</clipPath>
<clipPath id="clip1_1765_521">
<rect width="214" height="214" fill="white" transform="translate(21 21)"/>
</clipPath>
</defs>
</svg>
