<svg width="256" height="256" viewBox="0 0 256 256" fill="none" xmlns="http://www.w3.org/2000/svg">
<g clip-path="url(#clip0_2_148)">
<rect width="256" height="256" fill="white"/>
<path d="M266 192H-10V207H266V192Z" fill="#4E352E"/>
<path d="M72.4567 224.917C55.5368 224.917 55.4482 174.954 72.4567 174.954C89.4652 174.954 89.4652 224.917 72.4567 224.917ZM192.048 179.827C191.516 179.118 190.807 178.498 190.01 178.055C191.339 183.813 192.756 197.455 187.264 197.455C187.087 193.115 187.175 180.447 183.278 176.815C180.886 177.523 176.456 179.738 173.976 185.939C173.179 188.42 172.647 190.988 172.381 193.557V193.823C170.698 207.997 174.773 225.094 184.695 225.094C194.971 225.094 199.046 206.491 196.743 192.052C196.211 192.494 195.591 192.672 194.971 192.672C195.325 188.508 194.085 182.661 192.048 179.827ZM224.736 174.954C207.727 174.954 207.816 224.917 224.736 224.917C241.656 224.917 241.656 174.954 224.736 174.954ZM42.9576 174.954C25.9491 174.954 26.0377 224.917 42.9576 224.917C59.8775 224.917 59.9661 174.954 42.9576 174.954Z" fill="#E45325"/>
<path d="M49.1586 213.844C51.0189 213.844 52.8792 213.224 54.2966 211.983C52.4363 219.425 48.6271 225.005 43.0462 225.005C28.0752 225.005 26.3035 185.851 37.9082 176.903C34.099 191.609 37.8196 213.844 49.1586 213.844ZM230.848 213.844C219.598 213.844 215.789 191.609 219.598 176.815C207.993 185.762 209.765 224.917 224.736 224.917C230.405 224.917 234.126 219.336 235.986 211.895C234.569 213.135 232.708 213.844 230.848 213.844ZM174.065 185.762C169.281 200.467 172.824 224.917 184.695 224.917C190.364 224.917 194.085 219.336 195.945 211.895C194.439 213.046 192.668 213.755 190.807 213.755C180 213.755 176.102 193.558 179.025 178.941C176.899 180.801 175.128 183.104 174.065 185.762ZM67.3187 176.815C55.714 185.762 57.4857 224.917 72.4567 224.917C78.1262 224.917 81.8468 219.336 83.7071 211.895C82.2011 213.046 80.4294 213.755 78.5691 213.755C67.3187 213.844 63.5095 191.609 67.3187 176.815Z" fill="#BE3A26"/>
<path d="M112.852 188.862C111.966 188.597 101.247 162.375 101.247 162.375C101.247 162.375 108.777 157.06 109.131 155.466C106.917 153.251 104.879 148.91 104.879 148.91C105.145 150.682 105.499 152.454 106.119 154.225C106.119 154.225 102.93 152.808 101.867 150.15L94.8689 160.161C94.8689 160.161 106.739 187.445 106.651 188.862C102.222 187.888 98.1466 192.583 98.1466 192.583C106.739 193.469 103.905 208.263 98.1466 206.668C102.222 216.058 107.182 210.566 107.537 194.532C109.397 195.861 115.952 204.985 108.334 206.668C115.332 219.513 123.039 203.125 112.586 193.735C117.99 194.178 126.405 200.644 119.939 206.668C122.242 212.781 126.848 209.592 127.557 204.985C128.62 196.481 120.647 190.811 112.852 188.862Z" fill="#2D1E1C"/>
<path d="M190.453 173.537C188.238 170.437 185.049 170.437 181.683 172.385C174.242 172.651 169.635 171.677 146.78 174.6C146.78 174.6 146.603 172.828 146.426 170.348C144.477 170.614 142.528 170.702 140.579 170.791L142.705 181.421C148.818 181.155 167.244 176.815 176.102 176.815C172.913 180.27 167.952 189.66 172.559 193.646C173.267 181.421 180.177 177.701 183.366 176.726C186.467 180.447 187.175 193.115 187.352 197.367C192.845 197.367 191.605 183.724 190.276 178.055C190.985 178.498 191.605 179.118 192.136 179.738C194.174 182.573 194.882 188.508 195.237 192.583C201.438 192.583 197.451 173.714 190.453 173.537Z" fill="#2D1E1C"/>
<path d="M178.405 148.822C159.359 158.478 135.175 158.743 147.577 134.825C146.603 135.888 145.717 136.951 144.831 138.014C147.046 130.042 153.956 122.866 160.334 117.905C157.233 119.5 154.221 121.272 151.298 123.309C161.663 108.692 171.939 113.21 176.722 92.3926C172.913 105.946 157.588 114.982 144.034 118.614C131.101 126.055 95.4004 117.551 83.8843 113.919C91.9456 113.299 94.9575 112.767 94.9575 112.767C86.5418 110.198 77.3289 105.326 68.116 102.048C68.5589 108.692 70.0649 115.513 72.6339 120.829C71.3051 113.387 72.6339 109.667 72.6339 109.667C72.6339 109.667 75.2914 125.346 81.4925 134.471C79.1006 124.726 80.1637 121.449 80.1637 121.449C80.1637 121.449 85.1245 140.229 92.4771 146.696C91.5026 143.241 91.2369 139.609 91.6798 136.065C91.6798 136.065 93.0086 139.786 101.69 146.696C99.4754 141.469 104.702 143.329 108.688 148.91C112.675 154.491 115.155 154.934 126.14 152.808C118.078 157.415 131.012 160.604 139.25 159.541C133.315 163.35 152.184 162.375 162.814 159.806C157.145 164.147 176.722 162.287 180 160.161C180.974 159.541 183.1 159.541 185.581 159.984C186.555 159.363 187.441 158.655 188.327 158.035C182.126 161.047 192.668 141.469 178.405 148.822Z" fill="#F2F2F2"/>
<path d="M158.739 167.513C143.68 173.36 120.825 170.88 101.69 163.261C101.601 162.995 101.424 162.641 101.336 162.375C101.336 162.375 108.865 157.06 109.22 155.466C107.005 153.251 104.968 148.91 104.968 148.91C105.233 150.682 105.588 152.454 106.208 154.225C106.208 154.225 103.019 152.808 101.956 150.15L94.9575 160.161C94.9575 160.161 94.9575 160.161 94.9575 160.249C94.9575 160.338 94.9575 160.249 95.0461 160.249C87.5163 156.529 80.9609 152.011 76.0001 146.961C77.1518 150.062 78.1262 152.985 78.5691 154.491C75.38 150.416 62.3579 137.04 57.4857 118.171C57.4857 121.183 57.6629 124.106 57.9286 127.118C54.9167 119.766 53.0564 111.97 52.3477 103.997C51.9934 106.389 51.8162 108.781 51.8162 111.261C49.7787 105.503 48.8929 97.9734 48.7157 92.3039V86.9888C48.1842 88.229 47.6527 89.4692 47.2983 90.7094C47.2098 91.0637 47.1212 91.2409 47.0326 91.5952V91.6838C46.944 92.0382 46.8554 92.3039 46.8554 92.6583C46.0581 86.5458 46.1467 80.2563 47.2983 74.2324C64.3954 83.4453 83.5299 95.2273 95.4004 103.554C97.5265 104.972 76.7974 97.9734 78.9235 99.4794C96.4635 111.35 114.889 121.006 132.606 120.474C136.504 120.297 140.402 119.677 144.211 118.614C131.278 126.055 95.5776 117.551 84.0614 113.919C92.1228 113.299 95.1347 112.767 95.1347 112.767C86.719 110.198 77.5061 105.326 68.2932 102.048C68.7361 108.692 70.2421 115.513 72.811 120.829C71.4823 113.387 72.811 109.667 72.811 109.667C72.811 109.667 75.4686 125.346 81.6696 134.471C79.2778 124.726 80.3408 121.449 80.3408 121.449C80.3408 121.449 85.3016 140.229 92.6543 146.696C91.6798 143.241 91.4141 139.609 91.857 136.065C91.857 136.065 93.1858 139.786 101.867 146.696C99.6525 141.469 104.879 143.329 108.865 148.91C112.852 154.491 115.332 154.934 126.317 152.808C118.256 157.414 131.189 160.604 139.428 159.541C133.492 163.35 152.361 162.375 162.991 159.806C157.322 164.147 176.899 162.287 180.177 160.161C181.151 159.541 183.278 159.541 185.758 159.983C177.785 165.299 167.686 169.285 154.753 171.145C154.487 170.968 157.322 169.728 158.739 167.513ZM119.141 137.483C123.128 139.166 128.443 136.951 132.695 131.193C129.772 133.585 124.191 136.774 119.141 137.483ZM119.141 150.328C122.153 151.302 126.051 149.973 129.24 146.696C126.14 148.645 122.685 149.885 119.141 150.328ZM86.9848 118.88C86.0103 123.309 87.9592 128.89 92.3885 133.231C89.6424 128.801 87.8706 123.929 86.9848 118.88Z" fill="#B3B3B3"/>
<path d="M236.429 115.513C245.819 85.8372 235.1 36.4063 142.439 39.1524C97.7036 18.2462 49.07 42.0758 17.7107 59.9701C33.3018 65.0195 75.1143 89.292 95.2232 103.466C97.3493 104.883 76.6202 97.8848 78.7463 99.3908C96.2863 111.261 114.712 120.917 132.429 120.386C148.198 119.943 174.773 108.781 177.342 88.9377C185.315 90.4436 188.327 106.123 187.53 107.364C188.593 106.212 189.744 94.3414 195.414 91.4181C195.414 91.4181 193.111 98.1506 193.731 99.9223C196.743 90.5322 219.775 89.0263 216.054 112.324C217.117 111.261 219.066 104.352 219.066 104.352C216.32 121.626 223.053 128.536 229.519 129.687C232.62 129.156 238.555 118.171 239.264 111.261C238.466 112.767 237.492 114.185 236.429 115.513Z" fill="#4E352E"/>
<path d="M51.5504 47.9225C59.9661 42.696 89.5538 29.7624 120.204 35.7863C89.9967 34.1917 51.5504 47.9225 51.5504 47.9225ZM142.351 39.2411C140.048 38.1781 137.744 37.2036 135.353 36.3178C144.831 42.5188 153.336 49.96 160.688 58.5528C158.119 54.0349 155.019 45.9736 149.526 39.1525C147.223 39.0639 144.831 39.0639 142.351 39.2411Z" fill="#2D1E1C"/>
<path d="M150.235 108.515C115.775 113.21 100.804 103.289 102.133 101.783C117.547 110.021 145.629 108.161 150.235 108.515ZM93.0086 85.1285C91.6798 86.4572 106.651 96.4674 141.111 91.861C136.504 91.5066 108.511 93.3669 93.0086 85.1285ZM167.952 92.5697C169.547 93.1898 177.077 85.3942 167.243 68.2972C167.509 70.6004 173.533 84.5084 167.952 92.5697ZM229.696 78.9274C213.751 54.212 188.238 51.9974 182.48 53.5919C213.574 57.7554 226.153 76.89 229.696 78.9274Z" fill="#6D4D42"/>
<path d="M227.128 133.939C228.633 132.256 232.443 130.839 233.949 130.041C233.063 129.953 230.494 130.662 228.013 131.459C228.456 130.839 228.988 130.219 229.431 129.51C222.787 128.358 216.231 121.449 218.978 104.174C218.978 104.174 216.94 111.084 215.966 112.147C219.686 88.7605 196.654 90.2665 193.642 99.7451C193.022 97.9734 195.325 91.2409 195.325 91.2409C189.656 94.1642 188.504 106.035 187.441 107.186C188.238 105.946 185.226 90.355 177.254 88.7605C177.077 89.9121 176.811 91.0637 176.545 92.1268C171.673 113.033 161.485 108.515 151.121 123.043C153.956 121.006 157.056 119.234 160.157 117.639C153.69 122.6 146.957 129.776 144.654 137.748C145.54 136.597 146.426 135.534 147.4 134.559C135.087 158.478 159.271 158.3 178.228 148.556C192.579 141.203 181.949 160.958 188.061 157.68C196.831 152.985 200.818 145.544 203.121 141.292C201.526 144.747 200.286 147.227 200.286 147.227C205.956 142.975 207.993 135.534 212.511 134.648C211.182 131.459 210.473 128.89 211.448 128.27C212.865 127.384 217.472 131.813 219.421 132.876C219.863 132.522 219.863 131.547 219.863 131.547C220.838 132.965 222.078 134.205 223.496 135.091C223.938 134.116 224.47 134.648 224.559 134.648C226.242 134.648 227.925 135.179 229.342 136.154C228.722 135.445 228.013 134.648 227.128 133.939Z" fill="#E45325"/>
<path d="M212.688 100.188C206.753 94.5185 199.755 96.8217 196.654 100.631C199.046 93.544 209.499 92.5696 212.688 100.188ZM199.4 140.849C198.426 143.595 191.25 152.099 186.467 152.631C188.593 153.782 199.046 148.113 199.4 140.849ZM169.104 125.435C167.155 127.384 162.903 130.484 158.828 131.016C160.068 131.725 165.649 130.396 169.104 125.435ZM153.247 140.317C152.184 141.646 149.792 143.684 146.957 143.418C147.932 144.304 151.652 144.038 153.247 140.317ZM172.736 137.483C171.673 138.811 169.281 140.849 166.446 140.583C167.421 141.469 171.141 141.203 172.736 137.483ZM193.554 136.42C192.49 137.748 190.099 139.786 187.264 139.52C188.238 140.406 191.959 140.229 193.554 136.42ZM174.773 142.975C173.445 145.81 160.954 153.517 155.373 151.568C157.588 154.225 173.445 151.656 174.773 142.975Z" fill="#BE3A26"/>
<path d="M212.068 113.653C207.55 116.399 202.146 116.665 198.249 113.387C199.046 116.045 206.93 119.234 212.068 113.653Z" fill="#ED6D23"/>
<path d="M223.673 135.357C222.167 134.471 220.927 133.231 220.041 131.813C220.041 131.813 220.129 132.876 219.598 133.142C217.649 132.079 213.042 127.65 211.625 128.536C210.651 129.156 211.271 131.636 212.688 134.914C214.637 139.609 218.003 145.898 219.863 150.15C220.572 151.834 225.09 157.769 224.736 134.914C224.647 134.914 224.027 134.294 223.673 135.357Z" fill="black"/>
<path d="M204.715 115.159C209.588 115.159 213.574 111.173 213.574 106.3C213.574 101.428 209.588 97.4419 204.715 97.4419C199.843 97.4419 195.857 101.428 195.857 106.3C195.857 111.173 199.843 115.159 204.715 115.159Z" fill="black"/>
<path d="M207.55 101.074C207.727 102.225 206.398 103.288 204.715 103.554C203.032 103.82 201.438 103.111 201.26 102.048C201.083 100.985 202.412 99.8336 204.095 99.5679C205.778 99.3021 207.284 99.9222 207.55 101.074ZM210.03 110.995C209.056 112.147 207.639 112.944 206.044 113.21C205.867 113.033 205.601 113.033 205.335 113.033C205.158 113.033 204.892 113.122 204.804 113.299C203.121 113.299 201.349 112.944 199.932 112.058C200.552 112.679 201.349 113.21 202.146 113.476C202.944 113.83 203.829 113.919 204.804 113.919C205.07 114.096 205.335 114.185 205.601 114.185C205.956 114.096 206.133 114.007 206.221 113.742C208.259 113.21 209.942 112.147 210.03 110.995Z" fill="white"/>
</g>
<defs>
<clipPath id="clip0_2_148">
<rect width="256" height="256" fill="white"/>
</clipPath>
</defs>
</svg>
