<svg width="256" height="256" viewBox="0 0 256 256" fill="none" xmlns="http://www.w3.org/2000/svg">
<rect width="256" height="256" fill="url(#paint0_linear_1_22)"/>
<path d="M219.479 179.994H36.5211V191.357H219.479V179.994Z" fill="#4E352E"/>
<path d="M83.1896 206.151C69.5392 206.151 69.4678 165.843 83.1896 165.843C96.9115 165.843 96.9115 206.151 83.1896 206.151ZM179.671 169.774C179.242 169.202 178.671 168.702 178.028 168.345C179.1 172.99 180.243 183.996 175.812 183.996C175.669 180.494 175.741 170.274 172.596 167.344C170.666 167.916 167.093 169.703 165.092 174.705C164.449 176.706 164.02 178.779 163.805 180.852V181.066C162.448 192.501 165.735 206.294 173.739 206.294C182.03 206.294 185.317 191.286 183.459 179.637C183.03 179.994 182.53 180.137 182.03 180.137C182.316 176.778 181.315 172.061 179.671 169.774ZM206.043 165.843C192.321 165.843 192.393 206.151 206.043 206.151C219.693 206.151 219.693 165.843 206.043 165.843ZM59.3908 165.843C45.669 165.843 45.7404 206.151 59.3908 206.151C73.0412 206.151 73.1126 165.843 59.3908 165.843Z" fill="#E45325"/>
<path d="M64.3935 197.218C65.8944 197.218 67.3952 196.717 68.5387 195.717C67.0378 201.72 63.9647 206.223 59.4622 206.223C47.3842 206.223 45.9548 174.634 55.3171 167.416C52.244 179.279 55.2456 197.218 64.3935 197.218ZM210.974 197.218C201.898 197.218 198.825 179.279 201.898 167.344C192.535 174.562 193.965 206.151 206.043 206.151C210.617 206.151 213.619 201.649 215.119 195.645C213.976 196.646 212.475 197.218 210.974 197.218ZM165.163 174.562C161.304 186.426 164.163 206.151 173.739 206.151C178.313 206.151 181.315 201.649 182.816 195.645C181.601 196.574 180.172 197.146 178.671 197.146C169.952 197.146 166.807 180.852 169.165 169.059C167.45 170.56 166.021 172.418 165.163 174.562ZM79.0445 167.344C69.6822 174.562 71.1115 206.151 83.1896 206.151C87.7635 206.151 90.7652 201.649 92.266 195.645C91.0511 196.574 89.6217 197.146 88.1209 197.146C79.0445 197.218 75.9713 179.279 79.0445 167.344Z" fill="#BE3A26"/>
<path d="M115.779 177.064C115.064 176.849 106.417 155.695 106.417 155.695C106.417 155.695 112.491 151.407 112.777 150.12C110.991 148.334 109.347 144.832 109.347 144.832C109.561 146.261 109.847 147.69 110.347 149.12C110.347 149.12 107.775 147.976 106.917 145.832L101.271 153.908C101.271 153.908 110.848 175.92 110.776 177.064C107.203 176.278 103.915 180.065 103.915 180.065C110.848 180.78 108.561 192.715 103.915 191.429C107.203 199.004 111.205 194.573 111.491 181.638C112.992 182.71 118.28 190.071 112.134 191.429C117.78 201.792 123.998 188.57 115.565 180.994C119.924 181.352 126.714 186.569 121.496 191.429C123.355 196.36 127.071 193.787 127.643 190.071C128.5 183.21 122.068 178.636 115.779 177.064Z" fill="#2D1E1C"/>
<path d="M178.385 164.7C176.598 162.198 174.025 162.198 171.31 163.771C165.306 163.985 161.59 163.199 143.151 165.557C143.151 165.557 143.008 164.128 142.865 162.127C141.293 162.341 139.721 162.413 138.148 162.484L139.864 171.06C144.795 170.846 159.66 167.344 166.807 167.344C164.234 170.131 160.232 177.707 163.948 180.923C164.52 171.06 170.095 168.059 172.667 167.273C175.169 170.274 175.741 180.494 175.883 183.925C180.315 183.925 179.314 172.919 178.242 168.345C178.814 168.702 179.314 169.202 179.743 169.703C181.387 171.99 181.958 176.778 182.244 180.065C187.247 180.065 184.031 164.843 178.385 164.7Z" fill="#2D1E1C"/>
<path d="M168.665 144.76C153.3 152.55 133.789 152.765 143.794 133.468C143.008 134.326 142.294 135.184 141.579 136.041C143.366 129.609 148.94 123.82 154.086 119.818C151.584 121.104 149.155 122.534 146.796 124.177C155.158 112.385 163.448 116.03 167.307 99.2352C164.234 110.17 151.87 117.46 140.936 120.39C130.501 126.393 101.7 119.532 92.409 116.602C98.9126 116.102 101.342 115.673 101.342 115.673C94.553 113.6 87.1204 109.669 79.6877 107.025C80.0451 112.385 81.26 117.888 83.3326 122.176C82.2606 116.173 83.3326 113.171 83.3326 113.171C83.3326 113.171 85.4766 125.821 90.4794 133.182C88.5497 125.321 89.4073 122.677 89.4073 122.677C89.4073 122.677 93.4096 137.828 99.3414 143.045C98.5552 140.258 98.3408 137.328 98.6982 134.469C98.6982 134.469 99.7702 137.471 106.774 143.045C104.987 138.828 109.204 140.329 112.42 144.832C115.636 149.334 117.637 149.692 126.499 147.976C119.996 151.693 130.43 154.265 137.076 153.408C132.288 156.481 147.511 155.695 156.087 153.622C151.513 157.124 167.307 155.623 169.952 153.908C170.738 153.408 172.453 153.408 174.454 153.765C175.24 153.265 175.955 152.693 176.67 152.193C171.667 154.623 180.172 138.828 168.665 144.76Z" fill="#F2F2F2"/>
<path d="M152.799 159.84C140.65 164.557 122.211 162.556 106.774 156.41C106.703 156.195 106.56 155.909 106.488 155.695C106.488 155.695 112.563 151.407 112.849 150.12C111.062 148.334 109.418 144.832 109.418 144.832C109.633 146.261 109.919 147.69 110.419 149.12C110.419 149.12 107.846 147.976 106.988 145.832L101.342 153.908C101.342 153.908 101.342 153.908 101.342 153.98C101.342 154.051 101.342 153.98 101.414 153.98C95.3392 150.978 90.0505 147.333 86.0483 143.259C86.9774 145.761 87.7636 148.119 88.1209 149.334C85.548 146.047 75.0423 135.255 71.1115 120.032C71.1115 122.462 71.2545 124.821 71.4689 127.251C69.039 121.319 67.5381 115.03 66.9664 108.597C66.6805 110.527 66.5376 112.457 66.5376 114.458C64.8938 109.812 64.1791 103.738 64.0362 99.1637V94.8756C63.6074 95.8762 63.1786 96.8768 62.8927 97.8773C62.8213 98.1632 62.7498 98.3061 62.6783 98.592V98.6634C62.6068 98.9493 62.5354 99.1637 62.5354 99.4496C61.8922 94.5183 61.9636 89.4441 62.8927 84.5843C76.686 92.0169 92.1231 101.522 101.7 108.24C103.415 109.384 86.6915 103.738 88.4068 104.953C102.557 114.529 117.423 122.319 131.716 121.891C134.861 121.748 138.005 121.247 141.079 120.39C130.644 126.393 101.843 119.532 92.5519 116.602C99.0555 116.102 101.485 115.673 101.485 115.673C94.6959 113.6 87.2633 109.67 79.8306 107.025C80.188 112.385 81.4029 117.888 83.4755 122.176C82.4035 116.173 83.4755 113.171 83.4755 113.171C83.4755 113.171 85.6195 125.821 90.6223 133.182C88.6926 125.321 89.5502 122.677 89.5502 122.677C89.5502 122.677 93.5525 137.828 99.4843 143.045C98.6981 140.258 98.4837 137.328 98.8411 134.469C98.8411 134.469 99.9131 137.471 106.917 143.045C105.13 138.828 109.347 140.329 112.563 144.832C115.779 149.334 117.78 149.692 126.642 147.976C120.139 151.693 130.573 154.265 137.219 153.408C132.431 156.481 147.654 155.695 156.23 153.622C151.656 157.124 167.45 155.623 170.095 153.908C170.881 153.408 172.596 153.408 174.597 153.765C168.165 158.053 160.018 161.269 149.583 162.77C149.369 162.627 151.656 161.627 152.799 159.84ZM120.853 135.612C124.069 136.97 128.357 135.184 131.788 130.538C129.429 132.468 124.927 135.041 120.853 135.612ZM120.853 145.975C123.283 146.761 126.428 145.689 129.001 143.045C126.499 144.617 123.712 145.618 120.853 145.975ZM94.9103 120.604C94.1242 124.177 95.6965 128.68 99.2699 132.182C97.0544 128.608 95.625 124.678 94.9103 120.604Z" fill="#B3B3B3"/>
<path d="M215.477 117.888C223.052 93.9466 214.405 54.0675 139.649 56.283C103.558 39.4166 64.3221 58.6414 39.0225 73.0779C51.6008 77.1516 85.3337 96.7338 101.557 108.169C103.272 109.312 86.5486 103.666 88.2639 104.881C102.414 114.458 117.28 122.248 131.573 121.819C144.295 121.462 165.735 112.457 167.808 96.4479C174.24 97.6629 176.67 110.313 176.026 111.313C176.884 110.384 177.813 100.807 182.387 98.449C182.387 98.449 180.529 103.881 181.029 105.31C183.459 97.7344 202.041 96.5194 199.039 115.315C199.897 114.458 201.469 108.883 201.469 108.883C199.254 122.82 204.685 128.394 209.902 129.323C212.404 128.894 217.192 120.032 217.764 114.458C217.12 115.673 216.334 116.816 215.477 117.888Z" fill="#4E352E"/>
<path d="M66.3232 63.3583C73.1126 59.1417 96.9829 48.7074 121.711 53.5672C97.3403 52.2808 66.3232 63.3583 66.3232 63.3583ZM139.578 56.3545C137.72 55.4969 135.861 54.7107 133.932 53.996C141.579 58.9988 148.44 65.0021 154.372 71.9345C152.299 68.2896 149.798 61.7861 145.367 56.283C143.509 56.2116 141.579 56.2116 139.578 56.3545Z" fill="#2D1E1C"/>
<path d="M145.938 112.242C118.137 116.03 106.059 108.026 107.131 106.811C119.567 113.457 142.222 111.956 145.938 112.242ZM99.7702 93.3748C98.6982 94.4469 110.776 102.523 138.577 98.8064C134.861 98.5205 112.277 100.021 99.7702 93.3748ZM160.232 99.3781C161.518 99.8784 167.593 93.5892 159.66 79.7959C159.875 81.6541 164.735 92.8746 160.232 99.3781ZM210.045 88.3721C197.181 68.4325 176.598 66.6458 171.953 67.9323C197.038 71.2913 207.186 86.7283 210.045 88.3721Z" fill="#6D4D42"/>
<path d="M207.973 132.754C209.188 131.396 212.261 130.252 213.476 129.609C212.761 129.538 210.688 130.109 208.687 130.753C209.045 130.252 209.473 129.752 209.831 129.18C204.471 128.251 199.182 122.677 201.398 108.74C201.398 108.74 199.754 114.315 198.968 115.173C201.969 96.305 183.388 97.52 180.958 105.167C180.457 103.738 182.316 98.3061 182.316 98.3061C177.742 100.665 176.813 110.241 175.955 111.17C176.598 110.17 174.168 97.5914 167.736 96.305C167.593 97.2341 167.379 98.1632 167.164 99.0208C163.234 115.887 155.015 112.242 146.653 123.963C148.94 122.319 151.441 120.89 153.943 119.604C148.726 123.606 143.294 129.395 141.436 135.827C142.151 134.898 142.865 134.04 143.651 133.254C133.717 152.55 153.228 152.407 168.522 144.546C180.1 138.614 171.524 154.551 176.455 151.907C183.531 148.119 186.747 142.116 188.605 138.685C187.318 141.473 186.318 143.474 186.318 143.474C190.892 140.043 192.536 134.04 196.18 133.325C195.108 130.753 194.537 128.68 195.323 128.18C196.466 127.465 200.183 131.038 201.755 131.896C202.112 131.61 202.112 130.824 202.112 130.824C202.898 131.967 203.899 132.968 205.042 133.683C205.4 132.897 205.829 133.325 205.9 133.325C207.258 133.325 208.616 133.754 209.759 134.54C209.259 133.969 208.687 133.325 207.973 132.754Z" fill="#E45325"/>
<path d="M196.323 105.524C191.535 100.95 185.889 102.809 183.388 105.882C185.317 100.164 193.75 99.3781 196.323 105.524ZM185.603 138.328C184.817 140.544 179.028 147.405 175.169 147.833C176.884 148.762 185.317 144.188 185.603 138.328ZM161.161 125.893C159.589 127.465 156.158 129.966 152.871 130.395C153.871 130.967 158.374 129.895 161.161 125.893ZM148.368 137.899C147.511 138.971 145.581 140.615 143.294 140.401C144.08 141.115 147.082 140.901 148.368 137.899ZM164.091 135.612C163.234 136.684 161.304 138.328 159.017 138.114C159.803 138.828 162.805 138.614 164.091 135.612ZM180.886 134.755C180.029 135.827 178.099 137.471 175.812 137.256C176.598 137.971 179.6 137.828 180.886 134.755ZM165.735 140.043C164.663 142.33 154.586 148.548 150.084 146.976C151.87 149.12 164.663 147.047 165.735 140.043Z" fill="#BE3A26"/>
<path d="M195.823 116.387C192.178 118.603 187.819 118.817 184.674 116.173C185.317 118.317 191.678 120.89 195.823 116.387Z" fill="#ED6D23"/>
<path d="M205.185 133.897C203.97 133.182 202.97 132.182 202.255 131.038C202.255 131.038 202.327 131.896 201.898 132.11C200.326 131.253 196.609 127.679 195.466 128.394C194.68 128.894 195.18 130.895 196.323 133.54C197.896 137.328 200.611 142.402 202.112 145.832C202.684 147.19 206.329 151.979 206.043 133.54C205.971 133.54 205.471 133.04 205.185 133.897Z" fill="black"/>
<path d="M189.891 117.602C193.822 117.602 197.038 114.386 197.038 110.456C197.038 106.525 193.822 103.309 189.891 103.309C185.96 103.309 182.744 106.525 182.744 110.456C182.744 114.386 185.96 117.602 189.891 117.602Z" fill="black"/>
<path d="M192.178 106.239C192.321 107.168 191.249 108.026 189.891 108.24C188.533 108.455 187.247 107.883 187.104 107.025C186.961 106.168 188.033 105.239 189.391 105.024C190.749 104.81 191.964 105.31 192.178 106.239ZM194.179 114.243C193.393 115.173 192.25 115.816 190.963 116.03C190.82 115.887 190.606 115.887 190.391 115.887C190.249 115.887 190.034 115.959 189.963 116.102C188.605 116.102 187.175 115.816 186.032 115.101C186.532 115.601 187.175 116.03 187.819 116.245C188.462 116.53 189.177 116.602 189.963 116.602C190.177 116.745 190.391 116.816 190.606 116.816C190.892 116.745 191.035 116.673 191.106 116.459C192.75 116.03 194.108 115.173 194.179 114.243Z" fill="white"/>
<defs>
<linearGradient id="paint0_linear_1_22" x1="128" y1="0" x2="128" y2="256" gradientUnits="userSpaceOnUse">
<stop stop-color="white"/>
<stop offset="1" stop-color="#F5F5F5"/>
</linearGradient>
</defs>
</svg>
