<svg width="256" height="256" viewBox="0 0 256 256" fill="none" xmlns="http://www.w3.org/2000/svg">
<g clip-path="url(#clip0_1796_853)">
<rect width="256" height="256" fill="white"/>
<g clip-path="url(#clip1_1796_853)">
<path d="M131.997 211.05C103.032 210.53 78.0909 206.55 78.0909 202.447C78.0909 201.615 78.6375 201.062 80.2885 200.226C85.8953 197.384 103.666 194.789 120.784 194.312L126.83 194.144L127.465 195.156C127.928 195.895 128.004 196.201 127.744 196.285C127.548 196.349 125 196.457 122.082 196.524C115.728 196.671 114.317 197.005 112.537 198.785C111.477 199.845 110.766 201.273 111.121 201.629C111.198 201.706 122.525 201.846 136.292 201.941L161.324 202.113V201.23V200.346H169.97H178.616L178.2 199.168C177.528 197.262 176.311 196.239 173.753 195.43C172.691 195.094 172.677 195.076 173.474 195.058C174.817 195.029 182.895 196.097 187.299 196.886C199.383 199.053 204.276 201.484 201.195 203.791C199.752 204.871 198.743 205.297 195.504 206.191C186.172 208.767 171.876 210.368 152.945 210.956C144.743 211.211 141.726 211.224 131.997 211.05ZM38.9184 197.636C39.264 197.569 39.8296 197.569 40.1753 197.636C40.5209 197.702 40.2381 197.757 39.5468 197.757C38.8556 197.757 38.5728 197.702 38.9184 197.636ZM43.684 197.363C43.8856 197.282 44.1265 197.292 44.2194 197.385C44.3122 197.477 44.1472 197.544 43.8528 197.531C43.5274 197.518 43.4612 197.452 43.684 197.363ZM134.632 194.962L133.934 193.908L142.504 193.931L151.073 193.954L151.59 194.611C151.874 194.972 152.107 195.394 152.107 195.549C152.107 195.704 152.232 195.873 152.385 195.924C152.538 195.975 148.764 196.017 143.997 196.017H135.33L134.632 194.962ZM171.047 194.849C171.249 194.768 171.49 194.778 171.583 194.871C171.676 194.964 171.51 195.03 171.216 195.018C170.891 195.004 170.825 194.938 171.047 194.849ZM159.369 194.455C159.369 194.238 160.606 194.207 163.628 194.349C165.971 194.459 167.94 194.596 168.004 194.654C168.068 194.713 166.151 194.76 163.745 194.76C160.76 194.76 159.369 194.663 159.369 194.455ZM33.4021 189.873C33.7629 189.488 34.1209 189.174 34.1977 189.174C34.2746 189.174 34.0422 189.488 33.6814 189.873C33.3206 190.257 32.9626 190.571 32.8858 190.571C32.809 190.571 33.0413 190.257 33.4021 189.873ZM42.0606 182.366C42.0606 182.308 42.2805 182.087 42.5494 181.877C42.9923 181.529 43.0022 181.539 42.6548 181.982C42.2899 182.447 42.0606 182.595 42.0606 182.366ZM131.508 176.398C132.699 176.345 134.647 176.345 135.837 176.398C137.028 176.45 136.054 176.493 133.673 176.493C131.292 176.493 130.318 176.45 131.508 176.398ZM125.089 176.133C125.361 176.062 125.738 176.066 125.927 176.143C126.116 176.22 125.894 176.278 125.433 176.272C124.972 176.266 124.818 176.204 125.089 176.133ZM97.0315 170.549C97.2329 170.469 97.4739 170.479 97.5666 170.571C97.6596 170.664 97.4946 170.73 97.2002 170.718C96.8748 170.705 96.8086 170.638 97.0315 170.549ZM183.11 157.257C183.11 157.214 184.084 156.24 185.274 155.092L187.439 153.004L185.351 155.169C183.412 157.179 183.11 157.461 183.11 157.257ZM66.2903 156.311C66.4825 156.233 66.7967 156.233 66.9886 156.311C67.1807 156.388 67.0235 156.451 66.6394 156.451C66.2554 156.451 66.0984 156.388 66.2903 156.311ZM59.3775 153.876C59.3775 153.818 59.5975 153.598 59.8663 153.388C60.3092 153.04 60.3193 153.05 59.9718 153.493C59.6069 153.958 59.3775 154.106 59.3775 153.876ZM63.4274 149.792C63.7056 149.485 63.9958 149.234 64.0726 149.234C64.1494 149.234 63.9849 149.485 63.7067 149.792C63.4288 150.099 63.1383 150.351 63.0615 150.351C62.9847 150.351 63.1495 150.099 63.4274 149.792ZM66.4998 146.999C66.778 146.692 67.0682 146.441 67.145 146.441C67.2218 146.441 67.0573 146.692 66.7791 146.999C66.5012 147.306 66.2107 147.558 66.1339 147.558C66.0571 147.558 66.2219 147.306 66.4998 146.999ZM68.8739 144.939C68.8739 144.881 69.094 144.661 69.3626 144.45C69.8056 144.102 69.8157 144.112 69.4682 144.555C69.1032 145.021 68.8739 145.169 68.8739 144.939ZM71.9462 142.146C71.9462 142.088 72.1663 141.867 72.435 141.657C72.878 141.309 72.888 141.319 72.5406 141.762C72.1755 142.227 71.9462 142.376 71.9462 142.146ZM75.7168 138.62C75.995 138.313 76.2852 138.061 76.362 138.061C76.4389 138.061 76.2743 138.313 75.9962 138.62C75.7182 138.927 75.4278 139.179 75.351 139.179C75.2741 139.179 75.4389 138.927 75.7168 138.62ZM78.7892 135.827C79.0674 135.52 79.3576 135.268 79.4344 135.268C79.5112 135.268 79.3467 135.52 79.0685 135.827C78.7906 136.134 78.5001 136.386 78.4233 136.386C78.3465 136.386 78.5113 136.134 78.7892 135.827ZM81.8616 133.034C82.1398 132.727 82.43 132.475 82.5068 132.475C82.5836 132.475 82.4191 132.727 82.1409 133.034C81.863 133.341 81.5725 133.592 81.4957 133.592C81.4189 133.592 81.5837 133.341 81.8616 133.034ZM84.515 130.694C84.515 130.636 84.7351 130.416 85.0038 130.205C85.4467 129.858 85.4568 129.868 85.1093 130.311C84.7443 130.776 84.515 130.924 84.515 130.694ZM87.0287 128.46C87.0287 128.402 87.2488 128.182 87.5175 127.971C87.9605 127.623 87.9705 127.633 87.6231 128.076C87.258 128.542 87.0287 128.69 87.0287 128.46ZM89.5425 126.225C89.5425 126.167 89.7626 125.947 90.0312 125.736C90.4742 125.389 90.4843 125.399 90.1368 125.842C89.7718 126.307 89.5425 126.455 89.5425 126.225ZM92.0562 123.991C92.0562 123.933 92.2763 123.713 92.545 123.502C92.988 123.155 92.998 123.164 92.6506 123.607C92.2855 124.073 92.0562 124.221 92.0562 123.991ZM97.363 119.243C97.363 119.185 97.5831 118.964 97.8518 118.754C98.2948 118.406 98.3048 118.416 97.9574 118.859C97.5923 119.324 97.363 119.472 97.363 119.243ZM99.8768 117.008C99.8768 116.95 100.097 116.73 100.366 116.519C100.809 116.172 100.819 116.182 100.471 116.625C100.106 117.09 99.8768 117.238 99.8768 117.008ZM204.94 115.158C204.94 114.774 205.003 114.617 205.08 114.809C205.158 115.001 205.158 115.316 205.08 115.507C205.003 115.7 204.94 115.542 204.94 115.158ZM102.111 115.053C102.111 114.995 102.331 114.775 102.6 114.564C103.043 114.217 103.053 114.227 102.706 114.67C102.341 115.135 102.111 115.283 102.111 115.053ZM104.346 113.098C104.346 113.04 104.566 112.82 104.834 112.609C105.277 112.262 105.287 112.271 104.94 112.714C104.575 113.18 104.346 113.328 104.346 113.098ZM205.261 110.55C205.263 109.628 205.315 109.285 205.377 109.787C205.439 110.289 205.438 111.043 205.375 111.463C205.311 111.882 205.26 111.472 205.261 110.55ZM109.094 108.908C109.094 108.85 109.314 108.63 109.583 108.42C110.026 108.072 110.036 108.082 109.688 108.525C109.323 108.99 109.094 109.138 109.094 108.908ZM205.229 107.477C205.235 107.017 205.298 106.862 205.368 107.134C205.439 107.405 205.435 107.782 205.358 107.972C205.282 108.161 205.224 107.938 205.229 107.477ZM204.94 103.428C204.94 103.043 205.003 102.887 205.08 103.078C205.158 103.271 205.158 103.585 205.08 103.777C205.003 103.969 204.94 103.812 204.94 103.428ZM122.501 97.1775C122.501 97.1194 122.721 96.8993 122.989 96.6887C123.432 96.3413 123.442 96.351 123.095 96.794C122.73 97.2593 122.501 97.4074 122.501 97.1775ZM126.969 93.2672C126.969 93.2091 127.189 92.989 127.458 92.7784C127.901 92.431 127.911 92.4408 127.564 92.8837C127.199 93.3491 126.969 93.4971 126.969 93.2672ZM138.142 83.4915C138.142 83.4334 138.362 83.2134 138.63 83.0028C139.073 82.6553 139.083 82.6651 138.736 83.1081C138.371 83.5734 138.142 83.7214 138.142 83.4915ZM153.643 56.5042C153.921 56.197 154.211 55.9456 154.288 55.9456C154.365 55.9456 154.201 56.197 153.922 56.5042C153.644 56.8115 153.354 57.0629 153.277 57.0629C153.2 57.0629 153.365 56.8115 153.643 56.5042ZM202.232 55.3172L200.846 53.8508L202.312 55.2369C203.674 56.5248 203.907 56.7836 203.698 56.7836C203.654 56.7836 202.994 56.1237 202.232 55.3172ZM155.459 54.6888C155.819 54.3047 156.177 53.9905 156.254 53.9905C156.331 53.9905 156.099 54.3047 155.738 54.6888C155.377 55.0728 155.019 55.387 154.942 55.387C154.865 55.387 155.098 55.0728 155.459 54.6888ZM178.152 45.132C178.575 45.068 179.266 45.068 179.688 45.132C180.111 45.196 179.765 45.2483 178.92 45.2483C178.075 45.2483 177.73 45.196 178.152 45.132Z" fill="#73C2DE"/>
<path d="M39.7209 191.458C44.1262 187.624 53.6995 179.673 59.6544 174.903C75.2284 162.427 83.2632 156.062 83.8047 155.772C84.1173 155.604 85.6297 155.313 87.1659 155.124C88.7021 154.936 91.1868 154.536 92.6872 154.236C95.1915 153.735 95.5473 153.724 97.0165 154.102C99.5246 154.749 104.726 155.601 108.354 155.959C113.251 156.443 123.392 156.15 127.786 155.398C142.406 152.896 154.349 147.037 163.416 137.92C169.74 131.561 173.332 123.732 173.332 116.305C173.332 114.201 172.502 109.922 171.593 107.338C170.131 103.184 170.12 103.196 170.12 108.819C170.12 112.771 170.007 114.367 169.613 115.996C167.623 124.228 163.883 130.391 157.484 135.985C149.66 142.826 139.792 147.225 127.386 149.404C123.687 150.054 122.28 150.152 115.376 150.246C110.229 150.315 107.746 150.259 108.114 150.082C108.421 149.934 109.929 149.357 111.465 148.8C117.771 146.514 124.701 142.67 129.506 138.793C131.737 136.993 136.243 132.866 135.765 133.06C135.611 133.122 133.475 134.197 131.017 135.447C112.381 144.929 93.7625 149.996 73.6196 151.068C70.5344 151.232 70.1772 151.205 70.5472 150.84C70.7777 150.612 71.853 149.623 72.937 148.643C74.0207 147.662 77.2886 144.657 80.1989 141.966C86.0328 136.57 90.927 132.181 98.8766 125.213C101.769 122.679 105.484 119.411 107.132 117.951C112.341 113.34 141.279 87.9869 142.962 86.5611C146.259 83.7683 148.012 80.7942 149.897 74.7987C152.512 66.4821 155.218 62.132 160.658 57.5003C166.387 52.6231 172.754 50.4124 180.175 50.7245C184.211 50.8942 186.644 51.4586 189.976 52.9982C195.084 55.358 198.516 58.3971 201.995 63.6398L204.195 66.9539L209.595 70.4527L214.995 73.9513L210.712 76.0413C206.85 77.9261 206.221 78.3378 204.306 80.2356C201.89 82.6293 200.526 85.0983 199.575 88.798C198.659 92.3592 198.596 95.3226 199.304 101.472C200.608 112.788 199.291 121.681 194.802 131.866C191.611 139.105 187.702 144.828 181.756 150.964C169.623 163.487 155.286 169.919 137.089 171.004C134.53 171.157 131.292 171.167 129.341 171.028C127.498 170.897 125.915 170.873 125.824 170.974C125.733 171.076 125.31 172.542 124.882 174.231C124.456 175.921 124.024 177.458 123.923 177.647C123.794 177.888 123.262 177.652 122.145 176.86C120.966 176.023 119.999 174.933 118.435 172.676C117.271 170.997 116.265 169.623 116.198 169.623C116.132 169.623 114.412 169.3 112.375 168.906C107.635 167.988 102.765 166.765 98.9777 165.541L95.9864 164.575L94.5164 165.32C93.1023 166.036 91.2368 167.191 77.1109 176.098C68.2703 181.672 59.9769 186.632 56.9893 188.132C52.2344 190.519 47.2405 191.852 41.7459 192.201L38.6406 192.398L39.7209 191.458ZM189.112 74.0233C192.385 71.8171 192.614 67.8113 189.618 65.1745C186.813 62.7056 182.438 63.5187 180.663 66.8385C179.252 69.4783 180.351 72.8376 183.107 74.3099C184.854 75.2428 187.49 75.1171 189.112 74.0233Z" fill="#F6C919"/>
<path d="M118.518 201.813C112.025 201.744 111.046 201.678 111.046 201.306C111.046 200.571 111.814 199.349 112.844 198.445C114.496 196.994 116.11 196.661 122.218 196.513C125.214 196.44 127.752 196.299 127.858 196.199C128.043 196.024 126.715 194.005 117.612 180.626L113.424 174.471L110.601 173.993C107.27 173.43 102.129 172.159 99.1984 171.176C97.2781 170.531 97.0237 170.506 96.0148 170.862C95.4118 171.074 91.9171 173.127 88.249 175.424C75.1605 183.618 62.1197 191.459 58.5719 193.27C55.7602 194.705 52.2367 195.883 48.1689 196.748C45.8296 197.246 44.2991 197.37 40.2424 197.389C35.687 197.412 35.1124 197.36 34.1232 196.841C32.0829 195.771 31.3611 193.002 32.6313 191.118C33.9563 189.153 43.2972 181.206 60.9729 167.006L73.8827 156.635L69.4917 156.447C65.2734 156.267 60.0048 155.602 59.1948 155.149C58.4485 154.731 60.5489 152.612 72.3624 141.862C90.1564 125.671 100.316 116.645 126.967 93.3521C134.263 86.9748 140.713 81.1968 141.299 80.5122C142.652 78.9319 143.736 76.6287 144.711 73.2626C146.898 65.7186 150.102 60.164 155.061 55.3251C161.855 48.6949 169.816 45.332 178.715 45.332C185.632 45.332 190.856 46.882 196.663 50.657C199.691 52.6253 204.682 57.66 206.669 60.7508C207.888 62.6471 208.567 63.397 209.759 64.1592C212.22 65.7338 221.369 72.1223 223.117 73.4874C224.001 74.1773 224.723 74.8437 224.723 74.9688C224.723 75.3791 223.491 76.3718 222.097 77.0843C221.344 77.4692 218.8 78.5872 216.443 79.5684C210.455 82.0618 209.018 82.8377 207.841 84.213C204.651 87.9395 203.671 93.4896 204.761 101.657C205.319 105.836 205.317 112.641 204.758 116.897C203.38 127.39 198.692 138.512 191.782 147.685C189.187 151.13 183.048 157.484 179.638 160.255C170.428 167.739 159.805 172.81 148.94 174.908C147.431 175.2 146.134 175.499 146.059 175.575C145.948 175.686 154.818 188.373 158.549 193.439L159.506 194.739L164.812 194.752C170.582 194.766 172.999 195.041 175.026 195.912C176.663 196.617 177.657 197.636 178.196 199.163L178.614 200.346H169.967H161.321V201.184V202.022L143.655 201.957C133.939 201.922 122.627 201.857 118.518 201.813ZM151.306 194.202C150.187 192.619 140.346 179.144 138.832 177.12L138.278 176.38L131.528 176.283C127.816 176.23 124.712 176.121 124.632 176.04C124.469 175.877 125.549 171.266 125.818 170.974C125.912 170.873 127.497 170.897 129.341 171.028C135.292 171.451 142.926 170.768 150.107 169.17C161.802 166.568 172.724 160.285 181.755 150.964C187.702 144.828 191.611 139.105 194.801 131.866C199.29 121.681 200.608 112.788 199.304 101.472C198.596 95.3226 198.659 92.3592 199.575 88.7981C200.526 85.0984 201.89 82.6293 204.305 80.2357C206.221 78.3378 206.849 77.9261 210.712 76.0414L214.995 73.9513L209.595 70.4527L204.195 66.9539L201.995 63.6398C198.516 58.3971 195.083 55.358 189.976 52.9983C186.644 51.4587 184.211 50.8943 180.174 50.7245C172.754 50.4124 166.386 52.6232 160.658 57.5003C155.218 62.1321 152.512 66.4821 149.897 74.7987C148.012 80.7943 146.258 83.7683 142.962 86.5611C141.279 87.987 112.34 113.34 107.132 117.951C105.483 119.411 101.769 122.679 98.8763 125.213C90.9267 132.181 86.0325 136.57 80.1986 141.966C77.2882 144.657 74.0204 147.662 72.9367 148.643C71.8527 149.624 70.7774 150.612 70.5469 150.84C70.1768 151.206 70.5341 151.232 73.6193 151.068C93.7622 149.996 112.381 144.929 131.017 135.447C133.474 134.197 135.611 133.122 135.765 133.06C136.242 132.866 131.737 136.993 129.506 138.793C124.701 142.67 117.77 146.514 111.465 148.8C109.929 149.357 108.421 149.934 108.114 150.082C107.746 150.259 110.229 150.315 115.375 150.246C122.28 150.153 123.687 150.054 127.386 149.404C139.791 147.225 149.66 142.826 157.484 135.985C163.883 130.391 167.622 124.228 169.613 115.996C170.007 114.367 170.119 112.771 170.119 108.819C170.119 103.196 170.131 103.184 171.592 107.338C172.502 109.922 173.331 114.2 173.331 116.305C173.331 123.732 169.74 131.561 163.416 137.92C154.349 147.037 142.405 152.896 127.785 155.398C123.391 156.15 113.25 156.443 108.354 155.959C104.726 155.601 99.5243 154.749 97.0161 154.102C95.547 153.724 95.1912 153.735 92.6869 154.236C91.1865 154.536 88.7018 154.936 87.1656 155.124C85.6294 155.313 84.117 155.604 83.8044 155.772C83.2629 156.062 75.2281 162.427 59.6541 174.903C53.6992 179.673 44.1259 187.624 39.7206 191.458L38.6403 192.398L41.7456 192.201C47.2402 191.853 52.2341 190.519 56.989 188.132C59.9766 186.632 68.27 181.672 77.1106 176.098C91.2365 167.191 93.102 166.036 94.5161 165.32L95.9861 164.575L98.9774 165.541C102.765 166.765 107.635 167.988 112.375 168.906C114.411 169.3 116.132 169.623 116.198 169.623C116.264 169.623 117.273 171 118.44 172.684C120.042 174.995 120.96 176.025 122.189 176.887C123.592 177.871 124.155 178.574 126.283 181.995C127.64 184.177 130.227 188.225 132.032 190.99L135.313 196.017H143.952H152.591L151.306 194.202ZM183.107 74.3099C180.351 72.8376 179.251 69.4783 180.662 66.8386C182.437 63.5187 186.813 62.7056 189.618 65.1745C192.613 67.8113 192.384 71.8171 189.112 74.0234C187.49 75.1171 184.853 75.2428 183.107 74.3099Z" fill="#161812"/>
</g>
</g>
<defs>
<clipPath id="clip0_1796_853">
<rect width="256" height="256" fill="white"/>
</clipPath>
<clipPath id="clip1_1796_853">
<rect width="193" height="166.187" fill="white" transform="translate(32 45.084)"/>
</clipPath>
</defs>
</svg>
