<svg width="256" height="256" viewBox="0 0 256 256" fill="none" xmlns="http://www.w3.org/2000/svg">
<g clip-path="url(#clip0_1755_1753)">
<rect width="256" height="256" fill="white"/>
<path d="M227.781 124.781C227.781 176.335 183.109 221.344 128 221.344C72.8915 221.344 28.2188 176.335 28.2188 124.781C28.2188 73.2278 72.8915 34.6562 128 34.6562C183.109 34.6562 227.781 73.2278 227.781 124.781Z" fill="#AA968C"/>
<path d="M128 34.6562C72.8915 34.6562 28.2188 73.2278 28.2188 124.781C28.2188 134.692 29.8847 144.355 32.9431 153.508C43.2092 167.304 59.589 176.281 78.1094 176.281C99.7919 176.281 118.586 164.013 128 146.052C137.414 164.013 156.208 176.281 177.891 176.281C196.411 176.281 212.791 167.304 223.06 153.508C226.118 144.355 227.781 134.692 227.781 124.781C227.781 73.2278 183.109 34.6562 128 34.6562Z" fill="#AA968C"/>
<path d="M182.719 166.625C182.719 136.405 158.22 111.906 128 111.906C97.7802 111.906 73.2812 136.405 73.2812 166.625C73.2812 196.845 97.7802 221.344 128 221.344C158.22 221.344 182.719 196.845 182.719 166.625Z" fill="#C8AF9B"/>
<path d="M89.375 107.078C89.375 100.858 84.33 95.8125 78.1094 95.8125C71.8888 95.8125 66.8438 100.858 66.8438 107.078C66.8438 113.299 71.8888 118.344 78.1094 118.344C84.33 118.344 89.375 113.299 89.375 107.078Z" fill="#464655"/>
<path d="M189.156 107.078C189.156 100.858 184.114 95.8125 177.891 95.8125C171.67 95.8125 166.625 100.858 166.625 107.078C166.625 113.299 171.67 118.344 177.891 118.344C184.114 118.344 189.156 113.299 189.156 107.078Z" fill="#464655"/>
<path d="M133.614 139.474C130.527 143.796 125.476 143.796 122.389 139.474L117.52 132.659C114.433 128.337 116.25 124.801 121.562 124.801H134.437C139.75 124.801 141.57 128.337 138.48 132.659L133.614 139.474Z" fill="#464655"/>
<path d="M166.211 185.938C152.396 185.938 145.311 166.625 127.953 166.625C110.596 166.625 103.511 185.938 89.6992 185.938C83.5006 185.938 77.9998 183.583 73.5332 175.797C77.9464 201.641 100.597 221.344 127.953 221.344C155.306 221.344 177.96 201.641 182.373 175.797C177.907 183.583 172.406 185.938 166.211 185.938Z" fill="#AA968C"/>
<path d="M37.8743 195.593C36.5981 195.593 35.388 194.826 34.885 193.569C34.2249 191.918 35.0296 190.045 36.6799 189.385L101.058 163.632C102.693 162.984 104.582 163.776 105.242 165.427C105.902 167.077 105.097 168.95 103.447 169.61L39.0688 195.36C38.679 195.518 38.2735 195.593 37.8743 195.593Z" fill="#8C7873"/>
<path d="M31.4345 176.281C30.0074 176.281 28.7061 175.326 28.3258 173.88C27.8731 172.16 28.8978 170.4 30.6172 169.948L91.7735 153.854C93.4992 153.404 95.2531 154.429 95.7058 156.148C96.1584 157.868 95.1337 159.628 93.4143 160.081L32.258 176.174C31.9814 176.247 31.708 176.281 31.4345 176.281Z" fill="#8C7873"/>
<path d="M28.2155 160.188C26.6815 160.188 25.3236 159.088 25.0502 157.529C24.739 155.778 25.9083 154.109 27.6591 153.798L82.3778 144.142C84.1192 143.831 85.8009 145.003 86.1058 146.751C86.417 148.505 85.2477 150.171 83.4969 150.482L28.7781 160.138C28.5895 160.173 28.4009 160.188 28.2155 160.188Z" fill="#8C7873"/>
<path d="M218.126 195.593C219.402 195.593 220.612 194.826 221.115 193.569C221.775 191.918 220.97 190.045 219.32 189.385L154.942 163.632C153.307 162.984 151.418 163.776 150.758 165.427C150.098 167.077 150.903 168.95 152.553 169.61L216.931 195.36C217.321 195.518 217.726 195.593 218.126 195.593Z" fill="#8C7873"/>
<path d="M224.566 176.281C225.993 176.281 227.294 175.326 227.675 173.88C228.127 172.16 227.102 170.4 225.383 169.948L164.227 153.854C162.501 153.404 160.747 154.429 160.295 156.148C159.842 157.868 160.867 159.628 162.586 160.081L223.742 176.174C224.019 176.247 224.292 176.281 224.566 176.281Z" fill="#8C7873"/>
<path d="M227.784 160.188C229.318 160.188 230.676 159.088 230.95 157.529C231.261 155.778 230.091 154.109 228.341 153.798L173.622 144.142C171.88 143.831 170.199 145.003 169.894 146.751C169.583 148.505 170.752 150.171 172.503 150.482L227.222 160.138C227.41 160.173 227.599 160.188 227.784 160.188Z" fill="#8C7873"/>
</g>
<defs>
<clipPath id="clip0_1755_1753">
<rect width="256" height="256" fill="white"/>
</clipPath>
</defs>
</svg>
