<svg width="256" height="256" viewBox="0 0 256 256" fill="none" xmlns="http://www.w3.org/2000/svg">
<rect width="256" height="256" fill="white"/>
<mask id="mask0_1228_6800" style="mask-type:alpha" maskUnits="userSpaceOnUse" x="0" y="0" width="256" height="256">
<rect width="256" height="256" fill="white"/>
</mask>
<g mask="url(#mask0_1228_6800)">
<path fill-rule="evenodd" clip-rule="evenodd" d="M119.116 38.3233C118.46 38.474 117.308 38.6069 116.556 38.6182C115.804 38.6302 114.779 38.7278 114.279 38.8351C113.779 38.943 112.394 39.2016 111.201 39.4103C104.914 40.5109 95.4971 43.3864 91.3622 45.4688C90.5224 45.8916 89.2939 46.4403 88.6314 46.6881C87.9694 46.9358 86.8727 47.4644 86.1944 47.8629C85.5162 48.2614 84.1804 49.0133 83.2262 49.5343C79.7624 51.4253 75.994 53.904 74.0808 55.5505C73.8216 55.7738 73.3337 56.1295 72.9965 56.3409C72.6593 56.5524 71.935 57.1346 71.3874 57.6345C70.8393 58.1349 70.1074 58.6927 69.761 58.8749C69.0025 59.2728 58.8297 69.4711 58.8297 69.8333C58.8297 69.9731 58.293 70.6714 57.637 71.3849C56.981 72.0983 56.4443 72.7749 56.4443 72.8877C56.4443 73.0753 55.8539 73.8419 54.0941 75.9389C53.7439 76.3563 53.2294 77.137 52.9507 77.6737C52.672 78.2105 51.9445 79.3815 51.3329 80.276C50.7214 81.1706 49.8458 82.6832 49.3867 83.6373C48.9275 84.5915 48.1381 86.0629 47.6323 86.907C47.1265 87.7511 46.6439 88.7167 46.5594 89.0534C46.4748 89.3895 46.0432 90.3577 45.6003 91.2051C45.1579 92.0525 44.7237 92.9893 44.6358 93.2875C44.548 93.5857 44.2043 94.4639 43.872 95.2392C43.1802 96.8537 41.9072 100.756 41.3965 102.829C41.2052 103.604 40.7563 105.361 40.3984 106.733C40.0406 108.104 39.7473 109.488 39.7468 109.809C39.7468 110.129 39.6378 110.666 39.5055 111.002C39.2182 111.731 38.8918 113.925 38.6728 116.6C38.585 117.673 38.4001 118.892 38.2624 119.309C37.9122 120.366 37.9127 135.606 38.2629 136.661C38.4012 137.077 38.5904 138.345 38.6836 139.478C38.8902 141.99 39.1569 143.855 39.4735 145.008C39.6047 145.485 39.8308 146.559 39.9756 147.393C40.1203 148.228 40.5047 149.839 40.8295 150.972C41.1542 152.105 41.5337 153.574 41.6736 154.236C41.8129 154.898 42.2168 156.216 42.5708 157.163C42.9248 158.112 43.2149 159.014 43.2154 159.168C43.2154 159.323 43.4198 159.86 43.6687 160.361C43.9175 160.862 44.2943 161.76 44.5057 162.357C45.1308 164.12 47.6729 168.994 47.8724 168.812C47.9738 168.721 47.9933 168.756 47.9164 168.891C47.6968 169.275 50.0426 173.813 51.8811 176.561C52.7989 177.932 53.9249 179.64 54.3836 180.356C55.2526 181.712 55.6782 182.261 57.6457 184.557C58.2968 185.318 58.8297 186.038 58.8297 186.157C58.8297 186.542 65.8261 193.465 66.0728 193.325C66.204 193.25 66.2365 193.271 66.1454 193.372C65.9275 193.612 67.0725 194.801 67.3538 194.627C67.4731 194.553 67.51 194.592 67.4346 194.713C67.3598 194.834 67.9697 195.581 68.79 196.373C70.2272 197.761 70.7211 198.114 70.4256 197.542C70.3487 197.393 70.4977 197.515 70.7569 197.813C71.016 198.111 71.1564 198.209 71.0692 198.03C70.9401 197.766 70.9651 197.755 71.202 197.975C71.569 198.316 71.9187 198.33 71.7121 197.996C71.6183 197.845 71.6525 197.805 71.7983 197.895C71.9306 197.977 71.9908 198.169 71.9323 198.322C71.8043 198.655 72.5611 199.67 73.1851 200.004C73.5397 200.194 73.5961 200.183 73.4665 199.949C73.3776 199.788 73.6134 200.018 73.9902 200.46C74.3676 200.901 74.7942 201.22 74.939 201.168C75.0837 201.116 75.4464 201.276 75.7446 201.522C76.0428 201.769 76.1648 201.908 76.0157 201.831C75.4486 201.537 75.7793 201.898 76.5996 202.467C77.0696 202.792 77.5505 202.999 77.6687 202.926C77.7869 202.853 77.9538 202.908 78.04 203.047C78.1382 203.206 78.1029 203.243 77.9468 203.146C77.8091 203.061 77.6963 203.033 77.6963 203.084C77.6963 203.294 79.4615 204.326 79.6367 204.217C79.7413 204.153 80.0378 204.368 80.2959 204.697C80.5534 205.026 80.6966 205.163 80.6136 205.002C80.4922 204.766 80.5523 204.757 80.9232 204.955C81.1758 205.091 81.3829 205.301 81.3829 205.423C81.3829 205.545 81.4805 205.585 81.5998 205.511C81.719 205.438 81.8166 205.497 81.8166 205.643C81.8166 205.789 81.8801 205.845 81.9576 205.768C82.0356 205.69 82.2379 205.796 82.4076 206.002C82.6076 206.246 82.664 206.264 82.568 206.053C82.4862 205.875 82.6499 205.989 82.9313 206.309C83.4322 206.878 89.8013 210.203 89.521 209.75C89.4283 209.6 89.5704 209.607 89.9282 209.77C90.2302 209.908 90.4166 210.118 90.3424 210.239C90.2681 210.359 90.3109 210.393 90.4378 210.315C90.7674 210.111 91.3833 210.391 91.2131 210.667C91.1236 210.812 91.2049 210.847 91.431 210.76C91.6294 210.683 91.7921 210.713 91.7921 210.824C91.7921 210.936 91.9384 210.971 92.1174 210.903C92.2963 210.834 92.4426 210.883 92.4426 211.011C92.4426 211.139 92.589 211.188 92.7679 211.12C92.9468 211.051 93.0932 211.108 93.0932 211.248C93.0932 211.387 93.1827 211.445 93.2916 211.378C93.4006 211.311 93.5269 211.366 93.5725 211.503C93.6261 211.664 93.7834 211.621 94.0246 211.38C94.2279 211.177 94.3944 211.095 94.3944 211.199C94.3944 211.303 94.2724 211.511 94.1233 211.661C93.9059 211.88 93.9341 211.903 94.2675 211.776C94.5733 211.66 94.6372 211.691 94.5115 211.895C94.383 212.103 94.4627 212.133 94.8281 212.017C95.2054 211.897 95.2759 211.929 95.1387 212.156C94.9945 212.396 95.0238 212.4 95.2943 212.181C95.477 212.033 95.7069 211.985 95.8045 212.073C95.9015 212.162 95.9113 212.039 95.8256 211.8C95.7036 211.46 95.727 211.423 95.9335 211.628C96.1411 211.834 96.1374 211.963 95.9156 212.23C95.6749 212.52 95.6906 212.547 96.0257 212.419C96.2935 212.316 96.3683 212.348 96.2621 212.52C96.1574 212.689 96.2279 212.725 96.4789 212.628C96.7603 212.52 96.8058 212.561 96.6654 212.793C96.5163 213.041 96.5602 213.037 96.8871 212.776C97.2585 212.479 97.2818 212.486 97.1468 212.844C97.0254 213.17 97.0796 213.212 97.4591 213.092C97.7887 212.987 97.8722 213.021 97.7557 213.21C97.6375 213.401 97.7264 213.431 98.0809 213.318C98.4355 213.205 98.5244 213.235 98.4062 213.427C98.2891 213.616 98.3737 213.649 98.7044 213.544C98.9955 213.451 99.1652 213.491 99.1652 213.652C99.1652 213.792 99.3116 213.851 99.4905 213.782C99.6694 213.713 99.8158 213.762 99.8158 213.89C99.8158 214.019 99.9622 214.067 100.141 213.999C100.32 213.93 100.466 213.965 100.466 214.077C100.466 214.189 100.613 214.224 100.792 214.156C100.971 214.087 101.117 214.145 101.117 214.285C101.117 214.441 101.285 214.487 101.551 214.402C101.81 214.32 101.984 214.363 101.984 214.511C101.984 214.658 102.158 214.702 102.418 214.619C102.662 214.542 102.852 214.58 102.852 214.706C102.852 214.83 102.998 214.875 103.177 214.806C103.356 214.738 103.502 214.78 103.502 214.901C103.502 215.022 103.713 215.066 103.97 214.999C104.331 214.904 104.396 214.946 104.254 215.182C104.097 215.442 104.124 215.443 104.437 215.189C104.78 214.91 104.905 215.003 104.817 215.469C104.796 215.579 104.921 215.551 105.094 215.408C105.341 215.203 105.471 215.21 105.704 215.442C105.867 215.605 106.132 215.694 106.294 215.64C106.456 215.587 106.673 215.676 106.777 215.84C106.933 216.085 106.967 216.08 106.976 215.812C106.984 215.553 107.047 215.567 107.283 215.879C107.461 216.113 107.636 216.183 107.717 216.051C107.868 215.807 108.516 215.981 108.748 216.33C108.843 216.472 109.063 216.404 109.349 216.145C109.708 215.82 109.856 215.791 110.067 216.003C110.278 216.215 110.254 216.241 109.951 216.126C109.66 216.015 109.602 216.064 109.706 216.336C109.807 216.6 109.914 216.631 110.124 216.456C110.334 216.282 110.46 216.316 110.613 216.589C110.846 217.006 111.263 216.84 111.487 216.24C111.622 215.879 111.671 215.874 112.068 216.183C112.417 216.455 112.428 216.496 112.122 216.39C111.914 216.318 111.743 216.354 111.743 216.47C111.743 216.585 111.938 216.679 112.177 216.679C112.415 216.679 112.61 216.783 112.61 216.909C112.61 217.036 112.713 217.076 112.838 216.998C112.994 216.902 112.985 216.744 112.811 216.497C112.671 216.299 112.813 216.411 113.125 216.746C113.639 217.295 113.797 217.32 113.72 216.84C113.705 216.749 113.889 216.797 114.128 216.946C114.366 217.095 114.562 217.303 114.562 217.409C114.562 217.514 115.099 217.556 115.755 217.502C116.411 217.447 116.948 217.491 116.948 217.598C116.948 217.705 117.143 217.731 117.381 217.655C117.62 217.579 117.815 217.597 117.815 217.695C117.815 217.792 119.132 217.838 120.743 217.797C122.77 217.744 123.67 217.795 123.67 217.959C123.67 218.09 123.817 218.197 123.995 218.197C124.389 218.197 124.429 217.837 124.05 217.705C123.901 217.653 124.057 217.608 124.398 217.605C124.739 217.603 124.92 217.662 124.802 217.737C124.665 217.822 124.684 217.964 124.855 218.122C125.003 218.259 125.247 218.296 125.397 218.202C125.722 218.001 126.489 218.168 126.489 218.44C126.489 218.545 126.721 218.631 127.005 218.631C127.539 218.631 128.124 218.129 127.939 217.828C127.881 217.733 128.213 217.65 128.676 217.645C129.139 217.639 129.404 217.705 129.265 217.791C129.074 217.909 129.082 218.033 129.295 218.29C129.654 218.722 130.113 218.725 130.54 218.298C130.813 218.025 130.933 218.015 131.216 218.244C131.479 218.457 131.522 218.459 131.397 218.252C131.307 218.102 131.339 217.981 131.469 217.981C131.599 217.981 131.79 217.756 131.894 217.482C132.076 217.003 132.145 216.99 133.678 217.144C134.555 217.231 135.516 217.325 135.814 217.351C136.112 217.377 135.868 217.468 135.272 217.554C134.318 217.692 134.403 217.71 135.981 217.705C136.967 217.702 137.837 217.763 137.914 217.84C138.156 218.081 138.45 217.994 138.287 217.73C138.181 217.558 138.279 217.517 138.599 217.601C138.857 217.668 139.067 217.642 139.067 217.542C139.067 217.443 139.604 217.417 140.26 217.485C141.121 217.573 141.452 217.534 141.452 217.343C141.452 217.16 141.66 217.125 142.13 217.228C142.634 217.338 142.766 217.309 142.645 217.113C142.528 216.924 142.613 216.891 142.943 216.996C143.213 217.082 143.404 217.048 143.404 216.915C143.404 216.771 143.759 216.736 144.38 216.822C145.051 216.914 145.356 216.877 145.356 216.705C145.356 216.542 145.558 216.505 145.931 216.599C146.345 216.703 146.461 216.671 146.346 216.485C146.232 216.301 146.345 216.268 146.747 216.369C147.114 216.461 147.308 216.421 147.308 216.252C147.308 216.079 147.52 216.041 147.958 216.137C148.338 216.221 148.609 216.191 148.609 216.066C148.609 215.949 148.819 215.907 149.077 215.975C149.417 216.064 149.498 216.022 149.374 215.823C149.25 215.621 149.327 215.587 149.666 215.695C149.958 215.788 150.127 215.748 150.127 215.587C150.127 215.421 150.322 215.38 150.687 215.472C151.08 215.571 151.201 215.538 151.093 215.364C150.988 215.192 151.083 215.16 151.401 215.261C151.692 215.354 151.862 215.314 151.862 215.153C151.862 215.013 152.008 214.954 152.187 215.023C152.366 215.092 152.512 215.043 152.512 214.915C152.512 214.786 152.659 214.738 152.837 214.806C153.016 214.875 153.163 214.83 153.163 214.706C153.163 214.58 153.353 214.542 153.596 214.619C153.849 214.7 154.03 214.658 154.03 214.521C154.03 214.375 154.247 214.34 154.605 214.43C155.034 214.538 155.137 214.505 155.011 214.302C154.887 214.101 154.97 214.071 155.331 214.186C155.686 214.298 155.775 214.269 155.657 214.077C155.538 213.886 155.627 213.856 155.982 213.969C156.336 214.082 156.425 214.052 156.307 213.86C156.189 213.669 156.278 213.639 156.632 213.752C156.987 213.865 157.076 213.835 156.958 213.643C156.84 213.452 156.928 213.422 157.283 213.535C157.638 213.648 157.727 213.618 157.608 213.427C157.49 213.235 157.579 213.205 157.934 213.318C158.288 213.431 158.377 213.401 158.259 213.21C158.141 213.018 158.23 212.989 158.584 213.101C158.879 213.195 159.021 213.173 158.944 213.048C158.79 212.8 159.828 212.282 160.118 212.461C160.229 212.529 160.319 212.484 160.319 212.362C160.319 212.239 160.465 212.195 160.644 212.264C160.823 212.333 160.97 212.284 160.97 212.155C160.97 212.027 161.132 211.985 161.331 212.061C161.594 212.162 161.643 212.121 161.512 211.909C161.381 211.696 161.429 211.655 161.693 211.756C161.891 211.833 162.054 211.795 162.054 211.672C162.054 211.55 162.143 211.504 162.251 211.571C162.547 211.754 163.156 211.462 163.002 211.212C162.917 211.076 163.049 211.053 163.355 211.15C163.71 211.262 163.799 211.233 163.68 211.041C163.562 210.85 163.651 210.82 164.006 210.933C164.338 211.038 164.446 211.011 164.345 210.848C164.205 210.62 164.291 210.572 164.927 210.521C165.076 210.509 165.377 210.321 165.595 210.103C165.813 209.885 166.135 209.762 166.311 209.829C166.487 209.897 166.577 209.866 166.512 209.76C166.369 209.529 166.999 209.255 167.278 209.427C167.386 209.494 167.475 209.44 167.475 209.306C167.475 209.173 167.563 209.118 167.669 209.184C167.776 209.25 167.923 209.15 167.995 208.962C168.067 208.773 168.242 208.658 168.383 208.706C168.525 208.753 168.825 208.607 169.051 208.381C169.276 208.156 169.604 208.027 169.781 208.094C169.986 208.173 170.045 208.127 169.945 207.966C169.84 207.796 169.911 207.761 170.162 207.857C170.367 207.936 170.483 207.918 170.421 207.818C170.359 207.717 170.555 207.522 170.857 207.384C171.179 207.238 171.351 207.225 171.271 207.353C170.985 207.817 171.453 207.539 172.09 206.867C172.457 206.479 172.684 206.308 172.594 206.487C172.496 206.684 172.553 206.664 172.74 206.436C172.909 206.23 173.111 206.124 173.19 206.201C173.267 206.279 173.331 206.223 173.331 206.077C173.331 205.93 173.428 205.871 173.547 205.945C173.667 206.019 173.764 205.96 173.764 205.813C173.764 205.667 173.829 205.612 173.907 205.691C173.986 205.769 174.191 205.633 174.364 205.387C174.536 205.141 174.81 204.991 174.973 205.054C175.135 205.116 175.335 205.059 175.417 204.926C175.513 204.772 175.457 204.742 175.262 204.843C175.094 204.93 175.149 204.846 175.385 204.655C175.619 204.465 175.942 204.359 176.1 204.42C176.279 204.488 176.33 204.435 176.234 204.279C176.133 204.117 176.194 204.072 176.406 204.154C176.651 204.248 176.709 204.157 176.639 203.787C176.576 203.461 176.671 203.247 176.92 203.151C177.24 203.029 177.253 203.058 177.014 203.347C176.791 203.615 176.788 203.741 176.999 203.948C177.207 204.153 177.25 204.14 177.195 203.885C177.154 203.69 177.283 203.559 177.519 203.558C177.735 203.557 178.11 203.313 178.351 203.016C178.592 202.719 178.726 202.597 178.65 202.746C178.368 203.291 178.84 202.995 179.687 202.096C180.164 201.589 180.482 201.321 180.393 201.499C180.305 201.678 180.422 201.591 180.655 201.305C180.887 201.02 181.181 200.85 181.307 200.927C181.432 201.006 181.878 200.668 182.297 200.178C182.717 199.688 183.157 199.347 183.276 199.421C183.395 199.495 183.563 199.44 183.65 199.301C183.754 199.132 183.704 199.1 183.502 199.205C183.335 199.292 183.383 199.213 183.609 199.028C183.835 198.845 184.09 198.738 184.176 198.79C184.262 198.843 184.516 198.669 184.741 198.404L185.149 197.921L184.661 198.334C183.928 198.955 184.075 198.636 184.858 197.908C185.234 197.558 185.462 197.417 185.365 197.596C185.112 198.061 185.043 198.127 190.896 192.332L196.209 187.071L191.438 191.959L186.667 196.846L191.845 191.701C195.562 188.006 196.984 186.458 196.889 186.209C196.816 186.019 196.84 185.915 196.941 185.978C197.198 186.136 197.875 185.351 197.673 185.128C197.583 185.03 197.621 185.012 197.757 185.09C197.893 185.168 198.172 184.977 198.376 184.664C198.624 184.286 198.65 184.154 198.454 184.268C198.293 184.362 198.435 184.178 198.77 183.86C199.104 183.542 199.325 183.196 199.26 183.09C199.195 182.985 199.311 182.766 199.518 182.603C199.867 182.33 199.871 182.341 199.577 182.741C199.346 183.055 199.423 183.028 199.854 182.643C200.182 182.351 200.4 181.98 200.338 181.819C200.276 181.658 200.322 181.585 200.44 181.659C200.637 181.78 200.751 181.482 200.675 181.044C200.658 180.946 200.72 180.907 200.812 180.958C200.905 181.009 201.273 180.698 201.63 180.269C201.988 179.84 202.13 179.586 201.945 179.705C201.761 179.825 201.813 179.727 202.061 179.488C202.788 178.788 203.266 178.095 202.733 178.513C202.393 178.779 202.412 178.694 202.837 178.042C203.123 177.606 203.438 177.298 203.538 177.36C203.703 177.462 204.04 176.654 203.891 176.513C203.856 176.479 204.071 176.19 204.368 175.87C205.045 175.139 206.244 172.964 205.836 173.207C205.67 173.305 205.851 173.085 206.239 172.718C206.956 172.038 207.162 171.651 206.672 171.904C206.523 171.981 206.635 171.854 206.921 171.622C207.209 171.387 207.372 171.089 207.287 170.952C207.203 170.817 207.244 170.706 207.377 170.706C207.511 170.706 207.559 170.608 207.486 170.489C207.412 170.37 207.461 170.272 207.594 170.272C207.727 170.272 207.776 170.174 207.702 170.055C207.629 169.936 207.678 169.838 207.811 169.838C207.944 169.838 207.993 169.741 207.919 169.621C207.846 169.502 207.891 169.405 208.02 169.405C208.243 169.405 208.748 168.461 208.774 167.995C208.781 167.876 208.965 167.6 209.183 167.382C209.401 167.164 209.526 166.847 209.461 166.677C209.396 166.507 209.448 166.369 209.576 166.369C209.704 166.369 209.751 166.217 209.68 166.032C209.599 165.821 209.64 165.75 209.788 165.842C209.949 165.941 209.976 165.831 209.871 165.501C209.765 165.169 209.792 165.06 209.956 165.162C210.177 165.298 210.281 164.983 210.255 164.256C210.249 164.109 210.349 164.051 210.474 164.129C210.618 164.218 210.652 164.135 210.566 163.91C210.489 163.712 210.518 163.549 210.63 163.549C210.742 163.549 210.771 163.387 210.695 163.188C210.602 162.946 210.639 162.879 210.81 162.984C210.949 163.071 211.064 163.038 211.064 162.912C211.064 162.785 210.96 162.682 210.834 162.682C210.708 162.682 210.666 162.583 210.741 162.461C210.815 162.34 210.968 162.298 211.079 162.366C211.19 162.435 211.281 162.339 211.281 162.153C211.281 161.554 211.306 161.492 211.631 161.31C211.835 161.196 211.899 160.972 211.809 160.687C211.721 160.411 211.751 160.294 211.888 160.378C212.023 160.461 212.06 160.333 211.985 160.046C211.891 159.684 211.932 159.62 212.168 159.762C212.416 159.912 212.424 159.885 212.21 159.62C211.997 159.358 212.03 159.224 212.385 158.92C212.687 158.661 212.778 158.405 212.679 158.093C212.597 157.835 212.622 157.693 212.736 157.764C212.975 157.912 213.532 156.486 213.351 156.192C213.282 156.081 213.331 155.924 213.461 155.844C213.59 155.764 213.641 155.557 213.575 155.384C213.508 155.211 213.536 155.12 213.636 155.182C213.879 155.332 214.379 153.634 214.185 153.319C214.086 153.159 214.131 153.134 214.315 153.248C214.531 153.381 214.562 153.284 214.448 152.829C214.366 152.503 214.382 152.288 214.484 152.351C214.698 152.483 215.263 149.973 215.084 149.684C215.018 149.578 215.082 149.451 215.226 149.403C215.37 149.355 215.488 148.958 215.488 148.521C215.488 148.083 215.555 147.834 215.637 147.967C215.796 148.224 216.065 146.597 216.072 145.34C216.075 144.792 216.131 144.675 216.277 144.907C216.467 145.206 216.614 143.995 216.522 142.894C216.505 142.685 216.593 142.514 216.717 142.514C216.842 142.514 216.873 142.398 216.785 142.256C216.561 141.894 216.681 140.09 216.95 139.766C217.073 139.618 217.11 139.395 217.033 139.271C216.956 139.146 216.983 139.044 217.093 139.044C217.202 139.044 217.25 138.776 217.197 138.448C217.123 137.982 217.152 137.923 217.333 138.177C217.532 138.459 217.727 131.583 217.584 129.286C217.557 128.852 217.595 128.809 217.773 129.069C217.941 129.313 217.997 129.134 218 128.351C218.002 127.658 217.925 127.357 217.768 127.453C217.629 127.54 217.552 127.436 217.577 127.195C217.6 126.974 217.604 126.694 217.585 126.575C217.565 126.456 217.545 124.846 217.539 122.997C217.533 120.937 217.462 119.887 217.358 120.286L217.187 120.937L217.161 120.137C217.086 117.788 216.81 119.616 216.81 122.464C216.81 125.548 216.78 125.8 216.4 125.901C216.092 125.982 216.051 125.947 216.237 125.761C216.52 125.477 216.544 121.906 216.268 121.045C216.173 120.747 216.083 120.601 216.07 120.72C216.056 120.839 215.95 120.79 215.835 120.612C215.655 120.333 215.624 120.342 215.621 120.666C215.619 120.899 215.451 121.045 215.184 121.045C214.946 121.045 214.75 121.172 214.75 121.327C214.75 121.482 214.639 121.721 214.503 121.857C214.366 121.993 214.23 122.412 214.201 122.788C214.093 124.157 212.799 123.97 212.798 122.584C212.798 122.274 212.408 121.447 211.931 120.745C211.454 120.043 211.064 119.38 211.064 119.271C211.064 119.163 210.568 118.339 209.962 117.442C208.901 115.869 208.853 115.732 208.651 113.711C208.535 112.556 208.342 111.16 208.221 110.607C208.1 110.054 208.064 109.03 208.141 108.33C208.261 107.247 208.219 106.992 207.859 106.611C207.166 105.878 206.937 105.294 206.607 103.419C206.097 100.522 206.044 100.647 207.751 100.757C208.664 100.815 209.321 100.757 209.509 100.601C209.674 100.464 210.01 100.251 210.257 100.127C210.88 99.8133 210.984 99.3595 210.431 99.3595C210.183 99.3595 209.979 99.2549 209.979 99.1269C209.979 98.9995 209.833 98.7485 209.654 98.5696C209.475 98.3907 209.329 98.0074 209.329 97.7174C209.329 96.9535 209.315 96.8933 209.067 96.5946C208.786 96.2563 209.258 95.6057 209.624 95.8253C209.778 95.9174 209.77 95.8475 209.602 95.6404C209.454 95.4577 209.397 95.2435 209.475 95.1649C209.554 95.0863 209.404 95.0224 209.141 95.0224C208.537 95.0224 208.318 94.484 208.748 94.0541C208.974 93.828 209.103 93.8036 209.161 93.9755C209.261 94.2764 209.979 94.4168 209.979 94.136C209.979 94.027 209.849 93.9381 209.69 93.9381C209.303 93.9381 209.32 93.3374 209.711 93.1872C209.968 93.0891 209.946 92.9416 209.587 92.3333C209.271 91.7966 209.218 91.5331 209.393 91.3585C209.525 91.2268 209.54 91.1173 209.426 91.1157C209.313 91.114 209.367 91.0175 209.546 90.9021C209.763 90.7622 209.78 90.6906 209.6 90.6885C209.451 90.6868 209.329 90.5388 209.329 90.3599C209.329 90.181 209.219 90.0346 209.085 90.0346C208.927 90.0346 208.946 89.9067 209.14 89.6676C209.309 89.4589 209.327 89.3667 209.181 89.4545C209.04 89.5391 208.864 89.5087 208.789 89.3878C208.714 89.2664 208.78 89.1656 208.936 89.1639C209.159 89.1612 209.156 89.12 208.922 88.9715C208.748 88.8609 208.693 88.6673 208.793 88.5074C208.903 88.3285 208.875 88.2868 208.712 88.3876C208.573 88.4733 208.461 88.4201 208.461 88.2694C208.461 88.0569 208.403 88.0542 208.201 88.2564C207.817 88.6402 207.407 88.5725 207.473 88.1371C207.55 87.6329 207.147 86.7644 206.907 86.913C206.801 86.978 206.73 86.9504 206.747 86.8522C206.846 86.2835 206.696 85.8796 206.426 85.9832C206.215 86.0645 206.158 85.974 206.234 85.6812C206.313 85.3809 206.23 85.2616 205.939 85.2562C205.559 85.2491 205.56 85.2323 205.968 84.9851C206.206 84.8403 206.428 84.5926 206.461 84.4343C206.497 84.2608 206.418 84.2104 206.261 84.3074C206.085 84.4164 206.046 84.353 206.141 84.1068C206.232 83.8688 206.168 83.7458 205.953 83.7458C205.694 83.7458 205.675 83.8352 205.859 84.1795C205.987 84.418 206.006 84.6132 205.901 84.6132C205.405 84.6132 205.208 83.5294 205.701 83.5116C205.967 83.5023 206.062 83.4454 205.912 83.3847C205.762 83.3245 205.704 83.1705 205.783 83.0431C205.874 82.8957 205.822 82.8756 205.639 82.9889C205.429 83.119 205.39 83.0665 205.494 82.7943C205.591 82.5433 205.556 82.4728 205.386 82.5774C205.217 82.6821 205.181 82.611 205.277 82.3606C205.374 82.1096 205.339 82.0391 205.169 82.1437C205.002 82.2473 204.964 82.1795 205.056 81.9404C205.14 81.7198 205.092 81.6021 204.93 81.6341C204.785 81.6623 204.653 81.5392 204.637 81.3603C204.621 81.1814 204.597 80.9499 204.583 80.8458C204.569 80.7417 204.396 80.7905 204.197 80.9543C203.868 81.2253 203.861 81.2064 204.11 80.7379C204.282 80.4159 204.295 80.2787 204.146 80.3709C204.015 80.4522 203.896 80.4154 203.88 80.289C203.865 80.1627 203.829 79.9616 203.799 79.8423C203.769 79.723 203.733 79.5647 203.718 79.4905C203.703 79.4162 203.558 79.4661 203.395 79.6011C203.157 79.7984 203.111 79.7382 203.16 79.2904C203.214 78.8063 203.177 78.771 202.878 79.0172C202.574 79.2682 202.564 79.2465 202.788 78.8253C202.98 78.4664 202.98 78.3129 202.79 78.1953C202.634 78.0993 202.598 78.1357 202.694 78.2907C202.779 78.4284 202.734 78.5412 202.594 78.5412C202.446 78.5412 202.386 78.3596 202.452 78.1075C202.575 77.6374 202.288 77.3116 202.066 77.6699C201.992 77.7914 201.832 77.8906 201.711 77.8906C201.59 77.8906 201.645 77.7361 201.834 77.548C202.135 77.2465 202.128 76.8063 201.822 76.8063C201.762 76.8063 201.763 76.8876 201.825 76.9869C201.886 77.0866 201.8 77.1679 201.633 77.1679C201.409 77.1679 201.383 77.0665 201.534 76.7835C201.673 76.5239 201.659 76.3487 201.489 76.2436C201.324 76.1416 201.292 76.1926 201.396 76.3932C201.483 76.5607 201.404 76.5125 201.219 76.2864C201.036 76.0603 200.946 75.7768 201.021 75.6564C201.097 75.5328 201.047 75.5052 200.905 75.593C200.672 75.7367 200.563 75.4835 200.632 74.963C200.648 74.8438 200.537 74.8925 200.386 75.0715C200.012 75.5133 199.57 75.5756 199.57 75.1869C199.57 75.0059 199.699 74.9175 199.867 74.9825C200.312 75.1528 200.465 74.4962 200.058 74.1655C199.801 73.9573 199.749 73.953 199.867 74.1498C199.968 74.3184 199.907 74.4209 199.704 74.4209C199.525 74.4209 199.318 74.3217 199.243 74.2002C199.168 74.0793 199.016 74.0365 198.905 74.1048C198.794 74.1737 198.703 74.1157 198.703 73.9769C198.703 73.8375 198.848 73.7795 199.025 73.8478C199.375 73.9817 199.382 73.2786 199.035 72.9625C198.933 72.8703 198.92 72.9164 199.006 73.0655C199.104 73.2341 199.031 73.3366 198.817 73.3366C198.544 73.3366 198.517 73.2493 198.691 72.924C198.883 72.5667 198.847 72.5261 198.428 72.6177C198.153 72.6779 198.037 72.6454 198.161 72.5424C198.28 72.4426 198.4 72.2453 198.427 72.1038C198.493 71.76 196.539 70.0555 196.269 70.222C196.153 70.2941 196.167 70.1482 196.301 69.8978C196.503 69.5199 196.488 69.4646 196.214 69.5698C195.904 69.6891 195.753 69.2879 195.876 68.6742C195.9 68.5549 195.858 68.5191 195.782 68.595C195.612 68.7658 194.02 67.2808 194.095 67.0201C194.124 66.916 194.059 66.8553 193.949 66.8851C193.624 66.9729 188.293 61.5883 188.443 61.3249C188.518 61.1926 188.498 61.159 188.397 61.2506C188.296 61.3422 187.89 61.1037 187.495 60.7204C187.099 60.3371 186.776 60.1142 186.776 60.2259C186.776 60.3376 188.313 61.9906 190.191 63.9C192.07 65.8095 192.558 66.3489 191.275 65.0993C189.993 63.8496 188.944 62.9133 188.944 63.0191C188.944 63.1248 188.753 63.0386 188.519 62.8266C188.286 62.6152 188.115 62.3446 188.14 62.2259C188.165 62.1066 187.993 61.9771 187.758 61.938C187.274 61.8583 186.73 61.2246 186.904 60.9437C186.967 60.8418 186.908 60.7589 186.773 60.7589C186.633 60.7589 186.558 60.5024 186.597 60.1625C186.654 59.6832 186.589 59.5797 186.266 59.635C185.996 59.6811 185.918 59.6171 186.029 59.4387C186.134 59.268 186.102 59.2295 185.938 59.3308C185.786 59.4252 185.228 59.0267 184.542 58.3344L183.398 57.1807L184.491 58.1566L185.583 59.1324L184.524 58.0118C183.942 57.3954 183.342 56.9384 183.191 56.9964C183.04 57.0544 182.842 56.9823 182.752 56.8364C182.641 56.6559 182.679 56.6272 182.872 56.747C183.061 56.8641 183.104 56.8375 182.999 56.6684C182.913 56.529 182.747 56.4732 182.631 56.5453C182.514 56.6169 182.282 56.5616 182.113 56.4217C181.945 56.2818 181.681 56.2401 181.527 56.3295C181.372 56.4184 181.32 56.4098 181.411 56.31C181.501 56.2103 181.355 55.8774 181.085 55.5705L180.595 55.0121L181.244 55.5543C181.864 56.072 181.874 56.0731 181.464 55.5884C180.938 54.9666 180.136 54.4884 180.371 54.9362C180.455 55.0972 180.345 55.023 180.126 54.7709C179.57 54.1306 178.067 53.1645 177.843 53.3027C177.741 53.3662 177.684 53.2887 177.716 53.1309C177.75 52.972 177.607 52.8571 177.399 52.8734C177.185 52.8902 177.083 52.804 177.163 52.6739C177.252 52.5297 177.167 52.4977 176.933 52.5871C176.723 52.6679 176.615 52.6419 176.686 52.5264C176.841 52.2765 176.05 51.8227 175.835 52.0379C175.75 52.123 175.712 52.0466 175.752 51.8677C175.796 51.6682 175.679 51.5538 175.447 51.5722C175.233 51.589 175.131 51.5028 175.212 51.3727C175.301 51.2285 175.216 51.1965 174.981 51.286C174.776 51.3646 174.663 51.3429 174.728 51.2372C174.882 50.9867 174.232 50.74 173.907 50.926C173.769 51.0051 173.726 50.9927 173.811 50.8978C174.083 50.5969 172.986 49.9241 168.605 47.7078C160.744 43.7301 151.26 40.5461 143.838 39.3919C142.586 39.1972 141.152 38.9484 140.652 38.8389C140.151 38.7288 139.175 38.6378 138.483 38.6356C137.79 38.6334 136.541 38.487 135.706 38.3103C133.719 37.8896 120.958 37.8994 119.116 38.3233ZM135.055 42.6599C141.221 43.3387 141.818 43.5214 143.877 45.3565C148.65 49.6102 146.671 51.5852 137.718 51.5034C132.996 51.46 132.408 51.3288 132.06 50.2413C131.945 49.8834 131.822 49.556 131.785 49.5132C131.75 49.4709 131.037 49.7512 130.201 50.1361C129.096 50.6457 128.487 50.8056 127.966 50.7232C127.343 50.6251 127.144 50.7216 126.46 51.4557C125.487 52.4993 124.963 52.5188 124.076 51.544C123.388 50.7888 123.383 50.7872 121.943 50.9206C118.296 51.26 116.763 50.0071 117.928 47.639C118.222 47.0426 118.462 46.443 118.463 46.3058C118.467 45.8456 119.967 44.7342 120.792 44.5807C121.242 44.4972 122.049 44.2403 122.586 44.0093C123.123 43.7784 124.83 43.3587 126.381 43.0768C127.931 42.7955 129.48 42.4832 129.821 42.3834C130.523 42.1785 130.828 42.1948 135.055 42.6599ZM112.644 43.3224C113.366 43.7686 111.963 45.5788 110.896 45.5788C109.741 45.5788 109.398 44.3997 110.279 43.4601C110.747 42.9614 111.947 42.8914 112.644 43.3224ZM110.008 51.8677C110.008 52.3226 109.84 52.3898 109.262 52.1675C108.992 52.064 108.969 51.9664 109.162 51.7338C109.528 51.293 110.008 51.3689 110.008 51.8677ZM113.044 53.3857C113.842 54.1837 113.455 55.2409 112.284 55.4605C110.639 55.769 109.868 54.9888 110.443 53.5982C110.783 52.7785 112.312 52.6533 113.044 53.3857ZM129.111 65.3009C134.763 66.7664 134.561 66.4519 133.087 71.5058C131.577 76.6778 131.49 77.0985 131.249 80.3579C130.982 83.9572 130.984 83.9599 133.282 84.5189C134.138 84.727 135.366 85.0773 136.011 85.2974C139.001 86.3182 139.085 86.174 141.647 75.6136C143.346 68.608 142.922 68.9479 148.271 70.3017C153.892 71.7248 153.928 71.7627 152.949 75.3404C152.712 76.2062 151.887 79.5252 151.117 82.7157C149.329 90.1165 149.199 89.6264 153.415 91.3097C168.02 97.1416 173.564 104.793 171.38 116.106C169.969 123.418 167.062 128.199 162.705 130.375C161.313 131.07 161.304 131.195 162.535 132.531C163.144 133.191 163.971 134.092 164.373 134.532C165.614 135.894 166.429 135.838 166.703 134.374C166.968 132.962 168.276 133.991 168.887 136.091C169.208 137.196 169.249 137.237 170.278 137.502C171.485 137.811 171.803 138.107 172.402 139.478C173.297 141.527 174.362 142.92 175.12 143.035C177.015 143.321 177.414 143.398 178.342 143.654C179.46 143.961 180.053 144.367 180.053 144.825C180.053 144.993 180.395 145.333 180.812 145.579C181.69 146.097 181.725 146.272 181.14 147.231C180.645 148.043 180.079 148.13 179.494 147.483C177.475 145.253 175.933 145.102 175.933 147.136C175.933 149.224 173.756 148.933 172.176 146.634C170.609 144.354 170.561 144.387 170.387 147.857C170.238 150.834 169.637 153.596 168.759 155.339C168.421 156.012 167.745 157.768 167.257 159.241C164.618 167.223 157.116 172.693 147.958 173.311C146.348 173.419 144.591 173.616 144.055 173.748C143.518 173.88 142.786 173.932 142.428 173.864C142.071 173.795 139.972 173.64 137.766 173.519C135.559 173.398 132.925 173.216 131.911 173.114C129.344 172.857 129.175 172.994 128.422 175.927C128.103 177.17 127.473 179.261 127.022 180.573C126.429 182.301 126.175 183.441 126.104 184.712C126.02 186.2 125.886 186.692 125.217 187.96C123.997 190.278 124.06 190.265 119.082 189.183C113.45 187.959 113.224 187.766 113.618 184.536C113.945 181.856 113.54 180.898 112.081 180.898C111.215 180.898 109.668 180.244 108.948 179.573C107.895 178.592 106.983 179.642 105.896 183.089C104.971 186.02 105.235 186.01 95.8218 183.473C93.7422 182.913 93.4364 181.848 94.2046 177.842C94.6448 175.549 94.3814 172.477 93.6522 171.4C92.5408 169.757 93.277 167.887 95.0357 167.887C95.9937 167.887 96.0251 167.519 95.1067 167.059C94.6551 166.833 93.8311 166.386 93.2748 166.066C91.1589 164.85 89.4473 165.081 88.7642 166.675C88.5457 167.184 88.0198 167.888 87.5948 168.238C87.1703 168.588 86.6775 169.221 86.5007 169.645C86.3235 170.068 86.0269 170.541 85.841 170.695C85.4783 170.996 85.372 172.007 85.7033 172.007C86.2888 172.007 87.212 173.164 87.4636 174.212C87.7959 175.596 87.4983 175.909 85.8415 175.913C84.375 175.918 84.1072 176.111 84.298 177.025C84.7681 179.279 84.7203 179.724 83.95 180.269C83.552 180.55 83.0099 180.994 82.7459 181.255C82.1213 181.873 79.9977 182.489 79.0831 182.318C78.1935 182.151 73.2301 178.835 71.5555 177.288C69.8732 175.735 69.195 175.401 68.0597 175.571C67.0345 175.725 66.3297 175.313 63.9432 173.163C62.692 172.037 62.6258 172.007 61.355 172.007C59.5692 172.007 58.5744 171.453 56.9864 169.575C56.2708 168.728 55.0905 167.392 54.3641 166.606C53.0515 165.184 51.6734 163.317 51.6734 162.958C51.6734 162.855 51.2787 162.397 50.7962 161.94C49.7792 160.976 49.0717 159.706 49.0706 158.841C49.0695 158.066 48.3447 156.874 47.7158 156.614C46.8993 156.277 46.091 155.253 45.8291 154.224C45.6925 153.688 45.3981 152.761 45.1753 152.164C44.9519 151.568 44.7052 150.788 44.6261 150.432C44.5475 150.075 44.3762 149.718 44.246 149.637C44.1159 149.557 43.9869 149.263 43.9587 148.984C43.9305 148.705 43.7934 147.843 43.6535 147.068C43.5136 146.293 43.3222 144.829 43.2279 143.815C43.1341 142.802 42.9845 141.801 42.8961 141.591C42.8072 141.382 42.7134 140.65 42.6874 139.965C42.6229 138.282 41.9788 133.119 41.6681 131.79C41.4892 131.025 41.4692 129.591 41.5977 126.802C41.6974 124.65 41.7858 121.766 41.7945 120.395C41.8037 118.916 41.9197 117.653 42.0791 117.29C42.2276 116.955 42.3485 116.094 42.3485 115.379C42.3485 114.663 42.4353 113.913 42.541 113.712C42.6473 113.511 42.7785 112.956 42.8327 112.479C42.8874 112.002 43.1303 111.222 43.3726 110.745C43.6155 110.267 43.8866 109.54 43.9755 109.128C44.5046 106.68 47.1378 99.5043 47.7727 98.781C48.1473 98.3544 48.5626 97.7488 48.6949 97.4354C48.9887 96.7388 50.1494 95.4561 50.4856 95.4561C50.9534 95.4561 51.6463 94.4683 52.6563 92.3593C53.4527 90.6966 53.8198 90.1637 54.3538 89.8942C55.9558 89.0848 56.4833 88.0352 55.4787 87.653C53.5281 86.9113 54.3901 84.9255 56.9279 84.3156C57.7021 84.1296 58.6785 83.1592 59.277 81.98C60.0002 80.5552 60.364 80.1682 62.4458 78.6062C64.03 77.4179 68.501 75.0205 70.3774 74.3526C71.0372 74.1178 70.8789 76.0061 70.1009 77.6499C69.7404 78.4116 69.35 79.7106 69.2329 80.5357C68.9982 82.1887 68.6154 83.0974 67.7502 84.0504C67.4357 84.3969 67.3251 84.5964 67.504 84.4939C67.6829 84.3909 67.5452 84.6446 67.1982 85.0567C66.8507 85.4687 66.4783 85.7793 66.3709 85.7468C66.2631 85.7148 66.2056 86.0076 66.243 86.3974C66.3048 87.0387 66.3856 87.1136 67.0828 87.1721C68.0088 87.2496 69.1055 86.8761 68.9049 86.5508C68.8263 86.4234 68.8935 86.3453 69.0546 86.3768C69.7713 86.5183 72.2749 84.6549 72.2749 83.9794C72.2749 83.6547 75.3223 80.8144 75.9544 80.5498C78.2813 79.5761 86.8559 80.2918 88.7561 81.6178C90.6931 82.97 93.7888 82.8664 94.351 81.4313C94.4833 81.0941 94.8948 80.0153 95.2656 79.034C96.602 75.4987 96.249 75.4894 110.272 79.414C112.24 79.9648 115.183 80.6512 117.389 81.0735C118.42 81.2709 118.762 80.6507 120.16 76.0473C121.451 71.7964 121.959 69.7519 122.259 67.598C122.773 63.9136 123.203 63.7694 129.111 65.3009ZM197.741 71.4391L198.378 72.1439L197.673 71.5069C197.285 71.1566 196.968 70.8395 196.968 70.8021C196.968 70.6345 197.147 70.782 197.741 71.4391ZM205.169 82.7699C205.319 83.0995 205.333 83.312 205.204 83.312C205.087 83.312 204.992 83.2085 204.992 83.0822C204.992 82.9559 204.9 82.9092 204.788 82.9786C204.676 83.048 204.599 82.9071 204.617 82.6664C204.662 82.0749 204.87 82.1139 205.169 82.7699ZM206.629 85.029C206.477 85.2757 207.383 87.2155 207.65 87.2155C207.752 87.2155 207.788 87.2936 207.73 87.3884C207.49 87.7766 207.949 88.1133 208.24 87.763C208.477 87.4779 208.471 87.4426 208.203 87.5451C207.893 87.6638 207.859 87.5885 207.759 86.5806C207.737 86.3513 207.625 86.2206 207.511 86.2911C207.393 86.3638 207.363 86.2651 207.44 86.065C207.514 85.8704 207.467 85.6443 207.334 85.5625C207.189 85.4725 207.154 85.5126 207.248 85.6639C207.333 85.8016 207.288 85.9143 207.148 85.9143C207 85.9143 206.94 85.7327 207.006 85.4806C207.127 85.0203 206.844 84.682 206.629 85.029ZM208.419 89.1911C208.303 89.2642 208.377 89.3884 208.583 89.4675C208.789 89.5467 208.903 89.6654 208.837 89.7321C208.623 89.9452 207.792 89.3721 207.949 89.1195C208.049 88.9568 207.962 88.9249 207.684 89.0224C207.282 89.1639 207.281 89.1585 207.672 88.8555C207.984 88.6131 208.137 88.6007 208.352 88.8007C208.522 88.9579 208.548 89.1108 208.419 89.1911ZM209.072 90.7562C209.111 91.0815 209.034 91.3358 208.897 91.3358C208.762 91.3358 208.709 91.2447 208.778 91.1341C208.846 91.023 208.803 90.8706 208.682 90.7958C208.365 90.6001 208.409 89.9815 208.733 90.0878C208.882 90.1366 209.035 90.4374 209.072 90.7562ZM209.546 91.4442C209.397 91.6231 209.371 91.7695 209.486 91.7695C209.602 91.7695 209.803 91.9891 209.933 92.2574C210.163 92.7318 210.168 92.7285 210.136 92.149C210.117 91.821 210.02 91.5526 209.919 91.5526C209.819 91.5526 209.797 91.455 209.871 91.3358C210.077 91.0029 209.849 91.0788 209.546 91.4442ZM209.886 94.954C209.81 95.1508 209.863 95.4176 210.004 95.5466C210.195 95.7217 210.226 95.6849 210.126 95.4019C210.053 95.1931 210.079 95.0224 210.185 95.0224C210.291 95.0224 210.416 95.1395 210.464 95.2826C210.529 95.4767 210.59 95.4794 210.705 95.2934C210.792 95.1525 210.677 94.947 210.441 94.8201C210.114 94.6456 209.992 94.6748 209.886 94.954ZM211.035 95.1308C211.191 95.7353 211.931 96.201 211.931 95.6957C211.931 95.5715 211.769 95.532 211.57 95.6084C211.352 95.6919 211.263 95.6594 211.347 95.5249C211.422 95.4029 211.345 95.1178 211.175 94.8917C210.892 94.5149 210.881 94.5344 211.035 95.1308ZM211.627 96.3577C211.733 96.5295 211.635 96.5702 211.314 96.4861C211.057 96.4189 210.901 96.4525 210.968 96.5604C211.034 96.6688 211.236 96.7572 211.415 96.7572C211.605 96.7572 211.676 96.8608 211.585 97.0077C211.489 97.1627 211.526 97.1991 211.681 97.1031C211.902 96.9659 212.041 97.3633 211.957 97.8957C211.92 98.1278 212.315 98.0974 212.464 97.8567C212.532 97.7455 212.483 97.5894 212.354 97.5092C212.224 97.4295 212.173 97.2224 212.239 97.0494C212.316 96.8499 212.269 96.7908 212.111 96.8884C211.943 96.9925 211.902 96.8922 211.985 96.5745C212.069 96.2525 212.008 96.1066 211.79 96.1066C211.604 96.1066 211.536 96.2113 211.627 96.3577ZM210.761 98.4552C210.595 98.7247 211.706 99.4511 212.226 99.4126C212.459 99.3953 212.675 99.5612 212.739 99.8052C212.853 100.242 213.449 100.403 213.449 99.9971C213.449 99.8707 213.335 99.8382 213.195 99.9244C213.025 100.03 212.987 99.9629 213.08 99.7206C213.156 99.5221 213.127 99.3595 213.015 99.3595C212.904 99.3595 212.865 99.2207 212.931 99.051C213.085 98.6471 212.409 98.736 212.113 99.1578C211.958 99.3801 211.936 99.2831 212.036 98.8174C212.171 98.1944 212.162 98.1852 211.837 98.6005C211.511 99.0169 211.486 99.0185 211.193 98.6417C211.026 98.4259 210.831 98.3419 210.761 98.4552ZM128.489 100.183C128.364 100.542 128.314 101.418 128.379 102.13C128.493 103.387 128.476 103.441 127.819 103.927C126.283 105.062 125.126 107.705 125.608 108.974C125.785 109.437 125.644 109.737 124.555 111.211C122.364 114.178 122.105 117.361 123.918 119.031C124.531 119.595 127.604 120.391 129.179 120.393C129.878 120.394 130.659 120.592 131.456 120.97C132.171 121.309 133.294 121.613 134.188 121.709C135.023 121.8 136.228 121.979 136.866 122.108C138.476 122.434 140.013 122.038 141.753 120.85C142.244 120.515 143.036 120.17 143.513 120.085C145.321 119.76 146.723 118.537 148.754 115.515C152.158 110.452 149.499 105.321 141.995 102.472C141.16 102.156 139.972 101.576 139.356 101.184C137.686 100.123 136.746 99.8984 135.226 100.197C134.181 100.403 133.76 100.387 132.775 100.102C132.121 99.913 130.94 99.7076 130.151 99.6447L128.716 99.5308L128.489 100.183ZM213.181 100.996C213.303 101.632 213.573 101.854 213.793 101.498C213.891 101.339 213.856 101.303 213.7 101.399C213.542 101.496 213.449 101.393 213.449 101.12C213.449 100.881 213.366 100.635 213.264 100.572C213.162 100.508 213.124 100.699 213.181 100.996ZM213.691 102.341C213.677 102.61 213.742 102.829 213.836 102.829C213.93 102.829 214.007 103.024 214.007 103.263C214.007 103.501 213.918 103.697 213.81 103.697C213.702 103.697 213.742 103.852 213.9 104.043C214.162 104.358 214.202 104.353 214.345 103.989C214.578 103.397 214.563 103.219 214.293 103.385C214.132 103.486 214.101 103.383 214.2 103.073C214.282 102.814 214.252 102.612 214.13 102.612C214.012 102.612 213.87 102.442 213.816 102.233C213.741 101.947 213.71 101.974 213.691 102.341ZM214.316 104.419C214.086 104.598 213.998 105.053 214.015 105.974C214.05 107.873 214.069 107.984 214.293 107.63C214.396 107.468 214.436 107.126 214.382 106.871C214.289 106.429 214.299 106.425 214.609 106.805C214.903 107.166 214.924 107.064 214.836 105.733C214.723 104.039 214.742 104.087 214.316 104.419ZM211.172 105.214C211.099 105.333 211.191 105.648 211.377 105.913C211.739 106.43 211.826 106.828 211.539 106.65C211.443 106.591 211.341 106.926 211.314 107.396C211.282 107.93 211.358 108.251 211.515 108.251C211.695 108.251 211.688 108.347 211.488 108.587C211.252 108.871 211.282 108.942 211.679 109.046C211.937 109.113 212.156 109.328 212.165 109.523C212.176 109.748 212.222 109.778 212.292 109.606C212.352 109.457 212.526 109.335 212.678 109.335C212.857 109.335 212.918 109.142 212.852 108.793C212.795 108.495 212.846 108.251 212.965 108.251C213.084 108.251 213.237 108.031 213.304 107.763C213.42 107.304 213.41 107.299 213.128 107.676C212.771 108.153 212.283 107.937 212.432 107.369C212.489 107.15 212.403 106.794 212.24 106.58C212.078 106.366 211.942 105.922 211.938 105.594C211.931 105.001 211.451 104.763 211.172 105.214ZM215.516 109.986C215.625 110.164 215.727 110.408 215.742 110.528C215.757 110.647 215.784 110.867 215.802 111.016C215.85 111.409 216.268 111.349 216.268 110.948C216.268 110.746 216.167 110.673 216.015 110.767C215.847 110.871 215.805 110.808 215.893 110.579C215.968 110.385 215.871 110.109 215.671 109.947C215.37 109.703 215.347 109.708 215.516 109.986ZM213.019 111.106C213.02 111.384 213.117 111.758 213.232 111.937C213.396 112.191 213.443 112.131 213.446 111.666C213.448 111.338 213.457 110.999 213.465 110.913C213.475 110.826 213.377 110.721 213.249 110.678C213.121 110.635 213.017 110.827 213.019 111.106ZM215.937 112.064C215.961 112.432 216.028 112.823 216.085 112.932C216.141 113.041 216.182 113.438 216.174 113.814C216.166 114.19 216.223 114.459 216.3 114.412C216.376 114.364 216.425 114.886 216.408 115.571C216.388 116.389 216.284 116.826 216.106 116.844C215.476 116.907 215.401 116.933 215.401 117.088C215.401 117.177 215.733 117.25 216.139 117.25C216.545 117.25 216.829 117.173 216.771 117.078C216.678 116.927 216.627 116 216.506 112.263C216.488 111.684 216.416 111.494 216.291 111.691C216.133 111.94 216.087 111.94 215.997 111.691C215.939 111.528 215.912 111.696 215.937 112.064ZM215.282 112.461C215.297 113.513 215.52 113.607 215.561 112.578C215.579 112.106 215.522 111.72 215.433 111.72C215.344 111.72 215.276 112.054 215.282 112.461ZM214.588 112.492C214.268 112.839 214.242 113.022 214.51 113.022C214.695 113.022 215.041 112.369 214.918 112.253C214.885 112.223 214.737 112.33 214.588 112.492ZM213.666 113.238C213.403 113.409 213.434 113.449 213.829 113.452C214.097 113.454 214.317 113.358 214.317 113.238C214.317 112.967 214.087 112.967 213.666 113.238ZM213.449 114.16C213.449 114.396 213.566 114.537 213.72 114.485C214.12 114.352 214.172 113.744 213.783 113.744C213.599 113.744 213.449 113.93 213.449 114.16ZM214.028 116.853C213.714 117.166 213.892 117.792 214.293 117.792C214.67 117.792 214.967 117.402 214.967 116.907C214.967 116.678 214.244 116.637 214.028 116.853ZM217.348 126.521C217.466 128.84 217.44 129.066 217.016 129.394C216.696 129.642 216.681 129.69 216.956 129.595C217.338 129.463 217.395 129.982 217.035 130.309C216.933 130.403 216.913 130.367 216.992 130.23C217.07 130.094 216.987 129.926 216.809 129.857C216.39 129.697 216.391 129.151 216.81 128.99C216.989 128.922 217.136 128.745 217.136 128.599C217.136 128.391 217.078 128.39 216.876 128.592C216.493 128.975 216.202 128.909 216.354 128.473C216.469 128.142 216.446 128.145 216.171 128.5C215.99 128.734 215.713 128.852 215.52 128.778C215.103 128.617 215.077 127.795 215.485 127.639C215.65 127.575 215.844 127.23 215.916 126.872C215.988 126.514 216.137 126.277 216.247 126.345C216.358 126.414 216.498 126.369 216.559 126.246C216.62 126.123 216.641 126.147 216.607 126.299C216.572 126.451 216.644 126.77 216.767 127.009C216.965 127.394 216.95 127.41 216.635 127.15C216.307 126.879 216.306 126.909 216.615 127.529C217.052 128.405 217.099 128.38 217.097 127.28C217.093 125.382 217.264 124.866 217.348 126.521ZM172.021 128.122C172.351 128.318 172.793 128.768 173.002 129.122C173.213 129.48 173.79 129.947 174.296 130.171C176.401 131.102 176.901 132.203 175.935 133.786C174.884 135.51 172.981 134.468 171.315 131.255C170.006 128.732 170.013 128.026 171.345 127.781C171.386 127.774 171.691 127.927 172.021 128.122ZM119.302 131.592C119.105 131.814 118.795 132.728 118.612 133.623C118.429 134.518 118.059 136.323 117.791 137.635C116.74 142.779 117.001 143.896 119.746 145.984C121.587 147.385 122.51 148.659 122.702 150.067C122.779 150.624 122.93 151.422 123.037 151.839C123.145 152.257 123.235 153.016 123.235 153.527C123.238 155.639 127.369 157.404 128.663 155.845C129.063 155.363 129.634 155.461 129.958 156.066C130.597 157.26 131.665 157.559 133.822 157.146C135.701 156.787 135.856 156.698 135.108 156.413C134.464 156.168 134.278 155.783 134.55 155.255C134.896 154.582 136.391 155.013 136.508 155.819C136.643 156.752 139.102 156.831 140.238 155.938C141.526 154.925 140.557 153.655 138.637 153.84C137.74 153.926 137.498 153.868 137.162 153.487C135.671 151.793 135.693 150.457 137.193 151.637C137.849 152.153 138.581 152.214 139.872 151.86C141.021 151.545 141.773 151.717 142.818 152.534C143.828 153.323 144.105 153.165 144.632 151.494C144.941 150.512 144.955 150.245 144.717 149.8C144.247 148.921 141.7 146.854 141.055 146.827C140.021 146.785 139.404 146.89 138.763 147.222C138.351 147.435 137.85 147.501 137.308 147.415C136.191 147.236 134.039 149.236 134.608 149.923C135.63 151.155 134.378 152.051 132.704 151.285C132.031 150.976 131.309 150.772 131.099 150.831C130.889 150.889 130.501 151 130.235 151.076C129.848 151.187 129.665 151.072 129.314 150.497C128.72 149.522 128.748 149.365 129.715 148.31C131.261 146.624 132.013 144.797 131.603 143.724C130.974 142.077 131.279 141.229 132.776 140.455C135.087 139.26 132.53 134.11 129.873 134.609C129.257 134.725 129.022 134.624 128.162 133.879C126.242 132.218 120.139 130.642 119.302 131.592ZM182.758 133.75C183.202 134.686 183.09 135.242 182.239 136.312C181.886 136.757 181.427 137.578 181.221 138.137C180.554 139.943 179.865 140.191 178.712 139.037C178.038 138.364 178.03 138.258 178.557 136.948C178.783 136.387 178.78 136.101 178.543 135.383C178.154 134.204 178.467 133.805 179.732 133.871C180.393 133.905 180.81 133.787 181.245 133.445C182.071 132.796 182.33 132.848 182.758 133.75ZM216.904 135.941C216.912 136.203 216.821 136.477 216.702 136.551C216.568 136.634 216.491 136.285 216.5 135.642C216.516 134.587 216.868 134.849 216.904 135.941ZM138.284 138.271C138 139.011 140.277 140.958 140.807 140.427C140.969 140.265 140.726 139.866 139.987 139.079C138.906 137.928 138.491 137.731 138.284 138.271ZM141.452 142.839C141.452 144.443 142.466 144.955 144.434 144.347C145.143 144.128 144.2 142.514 143.362 142.514C143.176 142.514 142.902 142.368 142.754 142.189C142.134 141.443 141.452 141.783 141.452 142.839ZM85.8827 162.615C85.674 162.669 85.5032 162.833 85.5032 162.98C85.5032 163.682 86.704 164.064 86.9437 163.438C87.0657 163.121 86.6737 162.439 86.3983 162.49C86.3235 162.504 86.0914 162.56 85.8827 162.615ZM81.4051 163.611C79.7169 164.422 79.9207 166.595 81.7201 166.969C82.5583 167.143 82.5653 167.153 82.4992 168.069C82.3707 169.851 83.6182 170.639 84.9318 169.606C85.867 168.87 85.4257 168.068 83.6849 167.341L82.8489 166.991L82.9909 165.919C83.0695 165.328 83.1861 164.707 83.2506 164.539C83.5428 163.779 82.3284 163.168 81.4051 163.611ZM110.022 168.846C109.885 169.011 109.832 169.383 109.905 169.673C110.035 170.19 109.47 172.22 108.78 173.718C107.513 176.468 112.242 180.954 114.134 178.798C116.32 176.309 115.707 173.11 112.676 171.187C112.118 170.833 111.62 170.287 111.39 169.777C110.944 168.788 110.385 168.408 110.022 168.846ZM69.022 196.186C69.6699 196.842 70.1513 197.379 70.0917 197.379C70.032 197.379 69.453 196.842 68.8052 196.186C68.1573 195.53 67.6759 194.994 67.7355 194.994C67.7951 194.994 68.3742 195.53 69.022 196.186ZM105.745 214.782C105.828 214.986 105.912 214.973 106.085 214.728C106.297 214.427 106.421 214.573 106.338 215.026C106.319 215.13 106.554 215.167 106.86 215.109C107.166 215.051 107.463 215.078 107.52 215.17C107.577 215.262 107.794 215.312 108.002 215.281C108.211 215.249 108.26 215.266 108.111 215.317C107.962 215.368 107.84 215.504 107.84 215.618C107.84 215.744 107.667 215.735 107.406 215.595C107.167 215.468 106.972 215.409 106.972 215.464C106.972 215.519 106.655 215.468 106.267 215.349C105.631 215.154 105.101 215.012 104.804 214.958C104.662 214.932 105.302 214.518 105.49 214.514C105.57 214.513 105.685 214.633 105.745 214.782ZM136.799 214.773C136.951 214.925 136.633 215.812 136.427 215.812C136.314 215.812 136.276 215.725 136.342 215.618C136.47 215.412 135.988 215.161 135.464 215.161C135.291 215.161 135.069 215.379 134.971 215.646L134.791 216.13L134.634 215.635C134.349 214.737 136.075 214.05 136.799 214.773ZM111.013 216.083C110.923 215.934 110.953 215.812 111.079 215.812C111.206 215.812 111.309 215.965 111.309 216.153C111.309 216.581 110.627 216.479 110.479 216.029C110.383 215.74 110.416 215.74 110.774 216.029C111.005 216.216 111.106 216.239 111.013 216.083ZM136.417 216.416C136.18 216.706 136.203 216.739 136.58 216.642C136.999 216.534 137.549 216.893 137.549 217.275C137.549 217.373 137.329 217.466 137.061 217.479C136.793 217.492 136.695 217.456 136.844 217.398C137.356 217.201 137.124 216.847 136.573 216.985C136.173 217.086 136.031 217.035 136.031 216.792C136.031 216.548 135.764 216.454 135.001 216.43C134.364 216.41 134.199 216.363 134.567 216.307C134.895 216.258 135.164 216.145 135.164 216.058C135.164 215.971 135.508 215.939 135.929 215.988C136.592 216.066 136.657 216.123 136.417 216.416ZM131.457 217.679C131.251 217.928 131.142 217.952 131.079 217.763C131.026 217.603 130.936 217.582 130.855 217.71C130.584 218.131 129.742 218.254 129.742 217.872C129.742 217.616 129.863 217.556 130.176 217.655C130.425 217.734 130.61 217.694 130.61 217.562C130.61 217.434 130.865 217.33 131.178 217.33C131.677 217.33 131.711 217.373 131.457 217.679ZM132.29 217.697C132.082 217.751 131.911 217.886 131.911 217.996C131.911 218.28 132.168 218.235 132.657 217.865C133.079 217.546 133 217.511 132.29 217.697Z" fill="#885734"/>
<path fill-rule="evenodd" clip-rule="evenodd" d="M130.067 43.4918C129.352 43.6479 127.84 43.9 126.708 44.0518C124.343 44.3684 123.881 44.5148 122.713 45.3188C122.138 45.7145 121.583 45.9032 120.996 45.9032C119.964 45.9032 119.697 46.3472 120.537 46.6665C121.087 46.8753 121.117 46.9533 120.994 47.8511C120.847 48.9202 121.05 49.1886 121.731 48.8243C122.07 48.6427 122.566 48.6486 123.682 48.8476C124.991 49.0818 125.355 49.0666 126.611 48.7267C128.03 48.3429 128.054 48.3434 128.861 48.7972L129.677 49.2553L131.173 48.5017C133.451 47.3545 134.986 47.5258 134.242 48.8443C133.365 50.3987 133.912 50.6741 137.874 50.6741H140.91L142.696 49.8066C145.015 48.679 145.061 48.2745 143.127 45.9471C141.859 44.4215 140.864 43.9819 138.983 44.1163C137.826 44.1993 137.18 44.125 136.26 43.8046C134.721 43.2673 131.773 43.1188 130.067 43.4918ZM123.915 65.2838C123.686 65.5126 123.348 66.4353 123.139 67.3981C122.935 68.3382 122.587 69.7413 122.366 70.5166C122.146 71.2918 121.468 73.9266 120.862 76.3717C119.638 81.3079 119.253 82.01 117.769 82.01C116.963 82.01 107.928 79.7959 103.079 78.4096C99.1213 77.2787 97.8549 77.1524 97.1859 77.8209C96.4138 78.5929 94.6036 86.2902 94.9083 87.5046C95.0715 88.1552 94.9766 88.1194 99.0075 89.0579C108.017 91.1554 108.676 93.4145 104.478 107.816C104.183 108.83 103.694 110.782 103.392 112.153C103.09 113.525 102.401 116.355 101.86 118.442C101.32 120.529 100.493 123.847 100.023 125.815C99.0351 129.957 97.7996 134.744 96.7207 138.61C96.3043 140.101 95.7166 142.367 95.4147 143.646C94.3515 148.143 92.2648 149.475 88.183 148.263C82.3214 146.522 81.6453 146.746 80.0075 150.972C79.4756 152.343 78.6407 154.289 78.1517 155.296C76.5258 158.646 76.7318 158.922 81.7418 160.102C89.5877 161.95 96.6784 163.797 97.3886 164.177C98.4604 164.75 98.5456 165.83 97.7405 168.646C96.6112 172.595 96.1683 174.356 95.5025 177.536C94.4188 182.715 94.2252 182.416 99.4835 183.696C104.4 184.893 104.383 184.899 105.224 181.548C105.479 180.534 105.969 178.826 106.314 177.753C106.66 176.679 107.003 175.459 107.078 175.042C107.549 172.408 108.627 168.421 108.993 167.956C109.522 167.283 110.066 167.322 113.912 168.305C118.511 169.48 118.4 169.21 116.873 175.476C116.684 176.251 116.231 178.203 115.867 179.813C115.502 181.423 115 183.532 114.751 184.501C114.051 187.224 114.173 187.343 118.823 188.502C124.271 189.86 124.275 189.858 125.297 184.801C125.502 183.787 126.001 181.898 126.406 180.603C126.812 179.307 127.392 177.169 127.696 175.849C128.605 171.901 128.672 171.849 132.154 172.343C133.511 172.536 135.988 172.778 137.657 172.883C139.327 172.986 141.219 173.138 141.861 173.219C142.504 173.301 143.821 173.262 144.789 173.132C145.757 173.002 147.678 172.801 149.059 172.683C157.43 171.972 163.532 166.895 166.945 157.802C171.081 146.783 169.033 138.977 160.447 133.033C157.827 131.219 157.872 130.682 160.753 129.431C165.16 127.519 168.124 124.395 169.639 120.069C174.297 106.764 168.782 97.5462 152.455 91.3419C148.77 89.9421 148.817 90.2983 151.091 81.1382C153.562 71.1834 153.834 72.1592 148.192 70.7442C143.258 69.5065 143.6 69.2544 142.189 75.179C139.209 87.6955 139.59 87.2303 133.649 85.6044C130.793 84.8226 129.959 84.2892 129.959 83.245C129.959 82.4394 131.247 76.3858 131.906 74.0947C132.249 72.902 132.752 70.9725 133.023 69.8074L133.516 67.6887L133.068 67.2398C132.76 66.9324 131.444 66.4917 128.873 65.8351C124.609 64.7465 124.468 64.7308 123.915 65.2838ZM131.111 97.839C132.383 98.1963 134.376 98.6945 135.54 98.946C149.23 101.908 155.059 111.986 147.343 119.357C144.964 121.63 140.774 123.021 137.332 122.681C132.943 122.246 132.081 122.137 130.501 121.813C120.554 119.776 120.578 119.808 122.948 111.828C123.232 110.874 123.694 109.068 123.976 107.816C126.493 96.6517 126.558 96.5606 131.111 97.839ZM123.887 130.874C124.901 131.166 126.901 131.715 128.333 132.094C135.75 134.059 142.49 137.558 144.802 140.645C148.561 145.662 147.614 152.706 142.75 155.909C139.735 157.894 134.556 158.911 130.728 158.267C129.53 158.066 128.044 157.903 127.427 157.906C126.31 157.91 123.482 157.326 117.273 155.809C112.212 154.572 112.273 154.709 113.902 148.211C114.492 145.852 115.179 143.045 115.428 141.971C115.676 140.898 116.163 139.092 116.508 137.959C116.854 136.826 117.244 135.297 117.374 134.562C118.205 129.866 118.94 129.449 123.887 130.874Z" fill="#FBFBFB"/>
<path fill-rule="evenodd" clip-rule="evenodd" d="M129.821 42.3871C129.48 42.4868 127.931 42.7991 126.381 43.0805C124.83 43.3624 123.123 43.782 122.586 44.013C122.049 44.2439 121.242 44.5009 120.792 44.5844C119.967 44.7378 118.467 45.8492 118.463 46.3095C118.462 46.4466 118.222 47.0462 117.928 47.6426C116.763 50.0107 118.296 51.2636 121.943 50.9242C123.383 50.7908 123.388 50.7925 124.076 51.5477C124.963 52.5224 125.487 52.5029 126.46 51.4593C127.144 50.7252 127.343 50.6287 127.966 50.7269C128.487 50.8093 129.096 50.6493 130.201 50.1397C131.037 49.7548 131.75 49.4745 131.785 49.5168C131.822 49.5596 131.945 49.8871 132.06 50.2449C132.408 51.3324 132.996 51.4636 137.718 51.507C146.671 51.5889 148.65 49.6138 143.877 45.3602C141.818 43.525 141.221 43.3423 135.055 42.6636C130.827 42.1984 130.523 42.1821 129.821 42.3871ZM110.279 43.4638C109.398 44.4033 109.741 45.5825 110.896 45.5825C111.963 45.5825 113.366 43.7722 112.644 43.3261C111.947 42.8951 110.746 42.965 110.279 43.4638ZM136.26 43.8091C137.18 44.1295 137.826 44.2038 138.983 44.1208C140.864 43.9864 141.859 44.4261 143.127 45.9517C145.061 48.2791 145.015 48.6835 142.696 49.8112L140.91 50.6786H137.874C133.912 50.6786 133.365 50.4032 134.242 48.8489C134.986 47.5304 133.451 47.3591 131.173 48.5062L129.677 49.2598L128.861 48.8017C128.054 48.3479 128.029 48.3474 126.611 48.7312C125.355 49.0712 124.991 49.0863 123.682 48.8521C122.566 48.6532 122.07 48.6472 121.731 48.8288C121.05 49.1931 120.847 48.9248 120.994 47.8557C121.117 46.9579 121.087 46.8798 120.537 46.6711C119.697 46.3518 119.964 45.9077 120.996 45.9077C121.583 45.9077 122.138 45.7191 122.713 45.3233C123.881 44.5193 124.343 44.3729 126.708 44.0563C127.84 43.9045 129.352 43.6524 130.067 43.4963C131.773 43.1233 134.721 43.2718 136.26 43.8091ZM109.162 51.7374C108.969 51.97 108.992 52.0676 109.262 52.1711C109.84 52.3934 110.008 52.3262 110.008 51.8713C110.008 51.3726 109.528 51.2967 109.162 51.7374ZM110.443 53.6019C109.868 54.9925 110.639 55.7726 112.284 55.4641C114.216 55.1014 113.682 52.9556 111.661 52.9556C110.812 52.9556 110.683 53.0239 110.443 53.6019ZM181.085 55.6024C181.355 55.8935 181.501 56.2139 181.411 56.3137C181.32 56.4134 181.367 56.4253 181.515 56.3402C181.838 56.1543 183.328 57.1507 184.39 58.2621C184.808 58.6991 185.466 59.2532 185.854 59.4933C186.253 59.7405 186.559 60.1114 186.559 60.3467C186.559 60.5754 186.662 60.7625 186.789 60.7625C186.915 60.7625 186.967 60.8454 186.904 60.9474C186.73 61.2282 187.274 61.862 187.757 61.9417C187.993 61.9807 188.165 62.1103 188.14 62.2295C188.115 62.3483 188.286 62.6188 188.519 62.8302C188.753 63.0422 188.944 63.1284 188.944 63.0227C188.944 62.917 189.993 63.8533 191.275 65.1034L193.607 67.3766L191.117 64.8286C187.782 61.4169 188.325 61.573 191.869 65.0449C193.788 66.925 193.511 66.6073 191.004 64.0528C188.977 61.9867 186.879 59.9948 186.342 59.6267C185.805 59.2586 184.823 58.4611 184.16 57.8539C182.736 56.55 180.339 54.7951 181.085 55.6024ZM188.64 62.1948C188.588 62.332 188.659 62.5738 188.798 62.7316C189.009 62.9696 188.988 62.9696 188.675 62.7332C188.468 62.5765 188.345 62.3727 188.402 62.2805C188.459 62.1883 188.36 61.9921 188.183 61.8446C188.005 61.6971 187.86 61.6527 187.86 61.7454C187.86 61.8381 187.667 61.7394 187.431 61.5264C187.196 61.3128 187.051 61.0607 187.11 60.9653C187.168 60.8704 187.117 60.731 186.996 60.6562C186.875 60.5814 186.776 60.4079 186.776 60.2708C186.776 60.1336 187.217 60.4546 187.756 60.9837C188.295 61.5128 188.693 62.0577 188.64 62.1948ZM123.528 64.5515C122.969 64.943 122.459 66.1677 122.259 67.6016C121.959 69.7556 121.451 71.8 120.16 76.0509C118.762 80.6543 118.42 81.2745 117.389 81.0772C115.183 80.6548 112.24 79.9685 110.272 79.4177C96.249 75.4931 96.602 75.5023 95.2656 79.0376C94.8947 80.0189 94.4833 81.0978 94.351 81.435C93.7888 82.87 90.6931 82.9736 88.7561 81.6215C86.8558 80.2954 78.2813 79.5798 75.9544 80.5535C75.3223 80.818 72.2749 83.6583 72.2749 83.9831C72.2749 84.6586 69.7713 86.5219 69.0545 86.3804C68.8935 86.349 68.8263 86.427 68.9049 86.5544C69.1055 86.8797 68.0087 87.2533 67.0828 87.1757C66.3856 87.1172 66.3048 87.0424 66.243 86.401C66.2056 86.0112 66.263 85.7185 66.3709 85.7504C66.4783 85.783 66.8507 85.4723 67.1982 85.0603C67.5452 84.6483 67.6829 84.3945 67.504 84.4976C67.3251 84.6 67.4357 84.4005 67.7501 84.0541C68.6154 83.101 68.9982 82.1924 69.2329 80.5394C69.35 79.7142 69.7404 78.4152 70.1009 77.6535C70.8789 76.0097 71.0372 74.1215 70.3774 74.3562C68.501 75.0241 64.03 77.4215 62.4458 78.6099C60.364 80.1718 60.0002 80.5589 59.277 81.9836C58.6784 83.1628 57.702 84.1332 56.9279 84.3192C54.3901 84.9291 53.5281 86.915 55.4787 87.6566C56.4833 88.0388 55.9558 89.0884 54.3538 89.8978C53.8198 90.1673 53.4527 90.7002 52.6563 92.363C51.6463 94.4719 50.9534 95.4597 50.4856 95.4597C50.1494 95.4597 48.9887 96.7424 48.6949 97.4391C48.5626 97.7524 48.1473 98.358 47.7727 98.7847C47.1378 99.5079 44.5046 106.683 43.9755 109.132C43.8866 109.544 43.6155 110.271 43.3726 110.748C43.1303 111.225 42.8874 112.006 42.8327 112.483C42.7784 112.96 42.6473 113.515 42.541 113.716C42.4353 113.916 42.3485 114.667 42.3485 115.382C42.3485 116.098 42.2276 116.958 42.0791 117.294C41.9197 117.656 41.8037 118.92 41.7945 120.398C41.7858 121.77 41.6974 124.654 41.5977 126.806C41.4692 129.595 41.4892 131.029 41.6681 131.794C41.9788 133.122 42.6229 138.286 42.6874 139.969C42.7134 140.654 42.8072 141.386 42.8961 141.595C42.9845 141.804 43.1341 142.805 43.2279 143.819C43.3222 144.833 43.5136 146.297 43.6535 147.072C43.7933 147.847 43.9305 148.709 43.9587 148.988C43.9869 149.266 44.1159 149.56 44.246 149.64C44.3761 149.721 44.5475 150.079 44.6261 150.435C44.7052 150.792 44.9519 151.572 45.1753 152.168C45.3981 152.764 45.6925 153.691 45.8291 154.228C46.0909 155.257 46.8993 156.281 47.7158 156.618C48.3446 156.878 49.0695 158.069 49.0706 158.845C49.0717 159.709 49.7792 160.98 50.7962 161.944C51.2787 162.401 51.6734 162.859 51.6734 162.962C51.6734 163.32 53.0515 165.188 54.3641 166.61C55.0905 167.396 56.2708 168.732 56.9864 169.578C58.5744 171.457 59.5692 172.01 61.355 172.01C62.6258 172.01 62.6919 172.04 63.9432 173.167C66.3297 175.317 67.0345 175.729 68.0597 175.575C69.195 175.405 69.8732 175.738 71.5555 177.292C73.2301 178.838 78.1935 182.154 79.0831 182.321C79.9977 182.493 82.1213 181.877 82.7458 181.259C83.0099 180.998 83.552 180.554 83.9499 180.272C84.7203 179.728 84.768 179.283 84.298 177.029C84.1072 176.114 84.375 175.921 85.8415 175.917C87.4983 175.912 87.7959 175.6 87.4636 174.215C87.212 173.167 86.2888 172.01 85.7032 172.01C85.372 172.01 85.4782 171 85.8409 170.699C86.0269 170.544 86.3234 170.072 86.5007 169.648C86.6775 169.224 87.1703 168.592 87.5948 168.241C88.0198 167.891 88.5457 167.188 88.7642 166.678C89.4473 165.085 91.1588 164.854 93.2748 166.07C93.8311 166.389 94.6551 166.836 95.1067 167.062C96.0251 167.523 95.9937 167.89 95.0357 167.89C93.277 167.89 92.5408 169.761 93.6522 171.403C94.3813 172.48 94.6448 175.552 94.2046 177.846C93.4364 181.851 93.7422 182.916 95.8218 183.477C105.235 186.014 104.97 186.024 105.896 183.092C106.983 179.645 107.895 178.595 108.948 179.577C109.668 180.247 111.215 180.902 112.081 180.902C113.54 180.902 113.945 181.86 113.618 184.54C113.224 187.77 113.45 187.962 119.082 189.187C124.06 190.268 123.996 190.281 125.217 187.964C125.886 186.695 126.02 186.203 126.104 184.716C126.175 183.445 126.429 182.305 127.022 180.576C127.473 179.264 128.103 177.174 128.422 175.93C129.174 172.998 129.344 172.861 131.911 173.118C132.925 173.22 135.559 173.402 137.766 173.523C139.972 173.644 142.07 173.799 142.428 173.868C142.786 173.936 143.518 173.884 144.055 173.752C144.591 173.62 146.348 173.423 147.958 173.314C154.235 172.891 160.361 169.845 163.915 165.382C166.04 162.711 166.221 162.38 167.257 159.245C167.745 157.772 168.421 156.016 168.759 155.343C169.637 153.6 170.238 150.838 170.387 147.861C170.561 144.39 170.609 144.358 172.176 146.638C173.756 148.937 175.933 149.227 175.933 147.14C175.933 145.105 177.475 145.256 179.494 147.487C180.079 148.133 180.645 148.047 181.14 147.234C181.725 146.275 181.69 146.1 180.812 145.583C180.395 145.336 180.053 144.997 180.053 144.828C180.053 144.371 179.46 143.965 178.342 143.657C177.414 143.401 177.015 143.325 175.12 143.038C174.362 142.924 173.297 141.531 172.402 139.482C171.803 138.11 171.485 137.814 170.278 137.505C169.249 137.241 169.208 137.2 168.887 136.095C168.276 133.994 166.968 132.966 166.703 134.378C166.429 135.842 165.614 135.897 164.373 134.536C163.971 134.096 163.144 133.195 162.535 132.535C161.304 131.199 161.313 131.073 162.704 130.379C167.062 128.202 169.969 123.421 171.38 116.11C173.564 104.797 168.02 97.1452 153.415 91.3134C149.199 89.63 149.329 90.1201 151.117 82.7193C151.887 79.5288 152.712 76.2098 152.949 75.344C153.928 71.7664 153.892 71.7284 148.271 70.3053C142.922 68.9516 143.346 68.6116 141.647 75.6172C139.085 86.1777 139.001 86.3219 136.011 85.301C135.366 85.0809 134.138 84.7307 133.282 84.5225C130.984 83.9635 130.982 83.9608 131.249 80.3615C131.49 77.1022 131.577 76.6815 133.087 71.5094C134.561 66.4555 134.763 66.77 129.111 65.3046C124.587 64.1319 124.201 64.0799 123.528 64.5515ZM128.873 65.8397C131.444 66.4962 132.76 66.937 133.068 67.2444L133.516 67.6933L133.023 69.812C132.752 70.977 132.249 72.9065 131.906 74.0992C131.247 76.3903 129.959 82.4439 129.959 83.2495C129.959 84.2937 130.793 84.8272 133.649 85.6089C139.59 87.2348 139.209 87.7 142.189 75.1835C143.6 69.259 143.258 69.5111 148.192 70.7488C153.834 72.1638 153.562 71.1879 151.091 81.1428C148.817 90.3028 148.77 89.9466 152.455 91.3465C168.782 97.5507 174.297 106.768 169.639 120.073C168.124 124.4 165.16 127.523 160.753 129.436C157.872 130.687 157.827 131.224 160.447 133.038C169.033 138.982 171.081 146.787 166.945 157.806C163.532 166.899 157.43 171.976 149.059 172.688C147.678 172.805 145.757 173.007 144.789 173.136C143.821 173.267 142.504 173.306 141.861 173.224C141.219 173.142 139.327 172.991 137.657 172.887C135.988 172.783 133.511 172.541 132.154 172.348C128.672 171.853 128.605 171.906 127.696 175.854C127.392 177.173 126.812 179.312 126.406 180.607C126.001 181.902 125.502 183.791 125.297 184.805C124.275 189.862 124.271 189.864 118.823 188.506C114.173 187.348 114.051 187.228 114.751 184.505C115 183.537 115.502 181.427 115.866 179.817C116.231 178.207 116.684 176.255 116.873 175.48C118.4 169.215 118.511 169.485 113.912 168.309C110.066 167.326 109.522 167.288 108.993 167.96C108.627 168.426 107.549 172.412 107.078 175.046C107.003 175.464 106.66 176.684 106.314 177.757C105.969 178.831 105.479 180.538 105.224 181.552C104.383 184.904 104.4 184.898 99.4835 183.701C94.2252 182.42 94.4187 182.719 95.5025 177.54C96.1682 174.36 96.6112 172.6 97.7405 168.651C98.5455 165.834 98.4604 164.755 97.3886 164.181C96.6784 163.801 89.5877 161.955 81.7418 160.107C76.7318 158.926 76.5258 158.651 78.1517 155.301C78.6407 154.293 79.4756 152.347 80.0075 150.976C81.6453 146.751 82.3213 146.527 88.183 148.267C92.2648 149.479 94.3515 148.147 95.4147 143.65C95.7166 142.371 96.3043 140.105 96.7207 138.614C97.7995 134.748 99.0351 129.961 100.023 125.82C100.493 123.852 101.32 120.534 101.86 118.447C102.401 116.359 103.09 113.529 103.392 112.158C103.694 110.786 104.183 108.834 104.478 107.821C108.676 93.4191 108.017 91.16 99.0075 89.0624C94.9766 88.124 95.0715 88.1597 94.9083 87.5092C94.6036 86.2948 96.4138 78.5974 97.1858 77.8254C97.8549 77.1569 99.1213 77.2832 103.079 78.4142C107.928 79.8004 116.963 82.0145 117.769 82.0145C119.253 82.0145 119.638 81.3125 120.862 76.3762C121.468 73.9312 122.146 71.2963 122.366 70.5211C122.587 69.7458 122.935 68.3427 123.139 67.4027C123.765 64.5136 123.724 64.525 128.873 65.8397ZM195.686 69.0031C195.854 69.3013 196.078 69.6076 196.182 69.6835C196.287 69.7599 196.296 69.9551 196.202 70.1172C196.108 70.2798 196.111 70.3405 196.208 70.2516C196.306 70.1633 196.524 70.2061 196.693 70.3465C196.862 70.4864 196.793 70.2495 196.539 69.8195C195.98 68.8708 195.179 68.1053 195.686 69.0031ZM197.801 71.626C198.321 72.1979 198.444 72.456 198.235 72.5395C198.046 72.6148 198.085 72.6615 198.347 72.6723C198.599 72.6831 198.706 72.803 198.632 72.9938C198.564 73.1743 198.685 73.3419 198.935 73.4069C199.165 73.4671 199.353 73.62 199.353 73.7468C199.353 73.8737 199.207 73.9209 199.028 73.8526C198.849 73.7837 198.703 73.8357 198.703 73.9675C198.703 74.0998 198.776 74.1919 198.865 74.1724C199.191 74.1025 200.221 74.637 200.221 74.8761C200.221 75.0111 200.074 75.0653 199.896 74.9965C199.698 74.9206 199.57 74.9965 199.57 75.1906C199.57 75.5153 200.009 75.5397 200.24 75.228C200.43 74.9705 201.563 76.7855 201.388 77.068C201.3 77.21 201.335 77.2502 201.474 77.1651C201.829 76.9455 202.057 77.4768 201.712 77.7218C201.486 77.8839 201.51 77.904 201.813 77.8053C202.095 77.7137 202.246 77.8037 202.327 78.11C202.389 78.3491 202.537 78.5448 202.655 78.5448C202.773 78.5448 202.814 78.6901 202.746 78.8674C202.674 79.0539 202.733 79.1683 202.885 79.1385C203.03 79.1103 203.135 79.2566 203.119 79.4643C203.102 79.6714 203.171 79.7907 203.272 79.7283C203.541 79.5619 204.189 80.6505 204.001 80.9541C203.905 81.1091 203.932 81.1574 204.067 81.0739C204.343 80.9037 205.114 82.0134 204.852 82.2043C204.573 82.4076 204.485 83.1693 204.76 82.9996C204.888 82.9205 204.992 82.9535 204.992 83.0728C204.992 83.1915 205.179 83.2745 205.407 83.2577C205.812 83.2268 205.813 83.2083 205.425 82.4477C204.453 80.5426 199.241 73.0746 197.944 71.7284C197.467 71.2335 197.403 71.1874 197.801 71.626ZM205.469 84.0828C205.606 84.3859 205.839 84.5875 205.985 84.5317C206.487 84.3392 206.523 84.703 206.029 84.9773C205.601 85.2148 205.589 85.2533 205.939 85.2598C206.23 85.2652 206.313 85.3845 206.234 85.6848C206.158 85.9776 206.215 86.0681 206.426 85.9868C206.696 85.8833 206.846 86.2872 206.747 86.8559C206.73 86.954 206.801 86.9817 206.907 86.9166C207.147 86.7681 207.55 87.6366 207.473 88.1408C207.409 88.5609 207.915 88.6612 208.153 88.2757C208.256 88.1099 208.371 88.15 208.511 88.4004C208.748 88.8228 208.523 89.1876 208.274 88.7848C208.149 88.5821 208.013 88.5962 207.689 88.8461C207.282 89.1622 207.281 89.1676 207.684 89.0261C207.962 88.9285 208.049 88.9605 207.949 89.1231C207.866 89.2565 207.99 89.4685 208.225 89.5937C208.845 89.9255 209.072 89.8594 208.583 89.4891C208.351 89.314 208.266 89.1708 208.394 89.1708C208.71 89.1708 209.142 89.7189 208.966 89.8957C208.887 89.9743 208.937 90.0383 209.076 90.0383C209.215 90.0383 209.329 90.2009 209.329 90.3999C209.329 90.5983 209.391 90.6991 209.467 90.6232C209.649 90.4405 209.116 89.1708 208.856 89.1708C208.744 89.1708 208.71 89.077 208.781 88.9632C208.929 88.7246 207.719 86.2774 206.74 84.8337C206.376 84.297 206.076 84.0042 206.074 84.1831C206.07 84.4683 206.045 84.4688 205.867 84.1891C205.734 83.9782 205.753 83.8128 205.925 83.7044C206.088 83.6003 206.006 83.538 205.701 83.5358C205.262 83.5331 205.241 83.583 205.469 84.0828ZM206.943 85.6057C206.943 85.7775 207.029 85.918 207.134 85.918C207.331 85.918 207.887 87.0868 207.815 87.3481C207.792 87.4295 207.89 87.5677 208.033 87.6555C208.218 87.7705 208.223 87.8572 208.051 87.964C207.839 88.0952 207.77 87.957 207.829 87.5146C207.84 87.4381 207.755 87.3162 207.642 87.2435C207.204 86.9616 206.296 84.8922 206.727 85.159C206.846 85.2327 206.943 85.4338 206.943 85.6057ZM208.461 90.3326C208.461 90.5143 208.561 90.7246 208.682 90.7994C208.803 90.8742 208.846 91.0266 208.777 91.1377C208.709 91.2483 208.762 91.3394 208.897 91.3394C209.226 91.3394 209.077 90.2042 208.732 90.0914C208.583 90.0421 208.461 90.151 208.461 90.3326ZM209.428 91.1074C209.496 91.2185 209.458 91.3676 209.344 91.4392C209.221 91.5145 209.319 91.8815 209.577 92.3201C209.943 92.9404 209.967 93.0927 209.711 93.1908C209.32 93.341 209.303 93.9417 209.69 93.9417C209.849 93.9417 209.979 94.0306 209.979 94.1396C209.979 94.4204 209.261 94.28 209.161 93.9791C209.103 93.8072 208.974 93.8316 208.748 94.0577C208.318 94.4876 208.537 95.026 209.141 95.026C209.404 95.026 209.554 95.09 209.475 95.1686C209.397 95.2472 209.454 95.4613 209.602 95.644C209.77 95.8511 209.778 95.9211 209.624 95.8289C209.258 95.6093 208.786 96.2599 209.067 96.5982C209.315 96.8969 209.329 96.9571 209.329 97.721C209.329 98.011 209.475 98.3943 209.654 98.5732C209.833 98.7521 209.979 99.0032 209.979 99.1306C209.979 99.2585 210.183 99.3631 210.431 99.3631C210.983 99.3631 210.88 99.8169 210.256 100.131C210.01 100.254 209.674 100.468 209.509 100.605C209.321 100.761 208.664 100.819 207.751 100.76C206.044 100.65 206.097 100.525 206.607 103.422C206.937 105.297 207.166 105.881 207.859 106.614C208.219 106.995 208.261 107.25 208.141 108.333C208.064 109.033 208.1 110.058 208.221 110.61C208.342 111.163 208.535 112.56 208.651 113.714C208.853 115.735 208.901 115.873 209.962 117.445C210.568 118.343 211.064 119.167 211.064 119.275C211.064 119.383 211.454 120.046 211.931 120.749C212.408 121.451 212.798 122.278 212.798 122.587C212.799 123.973 214.093 124.161 214.201 122.791C214.23 122.416 214.366 121.997 214.503 121.86C214.639 121.724 214.75 121.486 214.75 121.331C214.75 121.176 214.945 121.049 215.184 121.049C215.451 121.049 215.619 120.903 215.621 120.669C215.624 120.345 215.655 120.337 215.835 120.615C215.95 120.794 216.056 120.843 216.07 120.724C216.083 120.604 216.173 120.751 216.268 121.049C216.544 121.909 216.52 125.481 216.237 125.764C216.051 125.95 216.092 125.986 216.399 125.904C216.78 125.804 216.81 125.551 216.81 122.468C216.81 119.631 217.09 117.764 217.159 120.14L217.182 120.94L217.388 120.019C217.542 119.332 217.509 118.763 217.257 117.779C217.071 117.053 216.912 115.955 216.904 115.339C216.895 114.722 216.816 114.034 216.727 113.808C216.639 113.582 216.59 114.191 216.62 115.161C216.649 116.131 216.719 116.999 216.776 117.089C216.832 117.18 216.545 117.254 216.139 117.254C215.733 117.254 215.401 117.181 215.401 117.091C215.401 116.936 215.476 116.91 216.106 116.847C216.284 116.829 216.388 116.393 216.408 115.574C216.425 114.89 216.373 114.37 216.292 114.42C216.211 114.47 216.157 114.172 216.17 113.758C216.184 113.344 216.12 112.959 216.028 112.902C215.936 112.845 215.965 112.498 216.094 112.13C216.272 111.619 216.262 111.42 216.053 111.291C215.902 111.198 215.85 111.007 215.937 110.867C216.023 110.727 215.914 110.407 215.693 110.155C215.473 109.904 215.414 109.769 215.564 109.856C215.741 109.96 215.835 109.871 215.835 109.596C215.835 108.901 215.574 107.822 215.429 107.912C215.354 107.958 215.278 107.757 215.26 107.465C215.182 106.158 214.923 105.309 214.739 105.76C214.643 105.999 214.557 106.072 214.549 105.923C214.527 105.547 214.172 105.58 214.172 105.958C214.172 106.13 214.334 106.233 214.543 106.193C214.81 106.141 214.913 106.268 214.913 106.65C214.913 107.144 214.892 107.153 214.598 106.795C214.304 106.435 214.291 106.44 214.382 106.875C214.436 107.13 214.396 107.471 214.293 107.634C214.068 107.99 214.051 107.896 214.014 106.035C213.993 105.034 214.07 104.542 214.259 104.47C214.41 104.412 214.522 104.19 214.509 103.978C214.485 103.612 214.478 103.613 214.382 103.983C214.301 104.295 214.218 104.322 213.971 104.117C213.706 103.897 213.716 103.817 214.043 103.563C214.407 103.281 214.407 103.252 214.046 102.972C213.837 102.81 213.673 102.492 213.681 102.267C213.696 101.881 213.708 101.883 213.883 102.291C213.985 102.529 214.076 102.614 214.085 102.478C214.093 102.343 213.948 101.904 213.763 101.502C213.568 101.081 213.468 100.979 213.526 101.261C213.58 101.53 213.549 101.702 213.455 101.643C213.361 101.585 213.238 101.296 213.181 100.999C213.124 100.703 213.162 100.512 213.264 100.575C213.366 100.638 213.449 100.587 213.449 100.46C213.449 100.334 213.314 100.231 213.149 100.231C212.984 100.231 212.8 100.041 212.739 99.8088C212.675 99.5648 212.459 99.3989 212.226 99.4163C211.706 99.4548 210.595 98.7283 210.761 98.4588C210.831 98.3455 211.026 98.4296 211.193 98.6453C211.486 99.0221 211.511 99.0205 211.837 98.6041C212.162 98.1894 212.17 98.1986 212.028 98.821C211.884 99.4537 211.89 99.4596 212.247 99.0378C212.449 98.7993 212.544 98.7505 212.458 98.9294C212.337 99.1804 212.363 99.1978 212.571 99.0053C212.902 98.7001 212.667 97.8262 212.293 97.9693C212.127 98.0333 212.009 97.8446 211.981 97.4705C211.946 97.0108 211.985 96.9457 212.147 97.1946C212.404 97.5903 212.404 97.2499 212.148 96.6524C211.996 96.2989 211.959 96.2865 211.946 96.5852C211.938 96.7869 211.818 97.0216 211.681 97.1067C211.526 97.2027 211.489 97.1664 211.585 97.0113C211.676 96.8644 211.605 96.7608 211.414 96.7608C211.236 96.7608 211.034 96.6725 210.968 96.564C210.901 96.4562 211.057 96.4225 211.314 96.4898C211.635 96.5738 211.733 96.5331 211.627 96.3613C211.54 96.2214 211.597 96.1043 211.755 96.0967C211.912 96.0891 211.833 95.9991 211.58 95.8972C211.32 95.792 211.07 95.4472 211.005 95.1019C210.897 94.5408 210.912 94.525 211.186 94.8997C211.349 95.1236 211.432 95.3898 211.369 95.4917C211.307 95.5936 211.358 95.6766 211.484 95.6766C211.791 95.6766 211.808 95.7487 211.035 93.8056C210.322 92.0127 209.934 91.3546 210.106 92.2296L210.208 92.749L209.952 92.261C209.811 91.9927 209.608 91.7731 209.5 91.7731C209.392 91.7731 209.365 91.6739 209.439 91.5525C209.514 91.4316 209.666 91.3877 209.775 91.4554C209.885 91.5232 209.917 91.4272 209.846 91.2424C209.775 91.0569 209.623 90.9057 209.51 90.9057C209.396 90.9057 209.359 90.9968 209.428 91.1074ZM210.705 95.2971C210.59 95.483 210.529 95.4803 210.464 95.2862C210.416 95.1431 210.291 95.026 210.185 95.026C210.079 95.026 210.053 95.1968 210.126 95.4055C210.226 95.6885 210.195 95.7253 210.004 95.5502C209.579 95.1599 209.941 94.5565 210.441 94.8238C210.677 94.9506 210.792 95.1561 210.705 95.2971ZM126.87 97.818C126.347 98.4404 125.188 102.447 123.976 107.821C123.694 109.073 123.232 110.878 122.948 111.832C120.578 119.813 120.554 119.781 130.501 121.818C132.081 122.141 132.943 122.251 137.332 122.685C140.774 123.026 144.964 121.635 147.343 119.362C150.626 116.225 151.696 111.751 150.033 108.117C148.33 104.396 141.893 100.325 135.54 98.9506C134.376 98.699 132.383 98.2008 131.111 97.8435C128.156 97.014 127.55 97.0102 126.87 97.818ZM132.775 100.106C133.76 100.39 134.181 100.407 135.226 100.201C136.746 99.902 137.686 100.126 139.356 101.187C139.972 101.579 141.16 102.16 141.995 102.476C149.499 105.325 152.158 110.455 148.754 115.519C146.723 118.541 145.321 119.763 143.513 120.088C143.035 120.174 142.244 120.518 141.753 120.853C140.013 122.042 138.476 122.438 136.866 122.112C136.228 121.983 135.023 121.804 134.188 121.713C133.294 121.617 132.171 121.312 131.456 120.974C130.659 120.596 129.878 120.398 129.179 120.397C122.866 120.388 120.804 116.294 124.555 111.214C125.644 109.74 125.784 109.441 125.608 108.978C125.126 107.709 126.283 105.065 127.819 103.931C128.476 103.445 128.493 103.39 128.379 102.134C128.314 101.422 128.364 100.546 128.489 100.187L128.716 99.5345L130.151 99.6483C130.94 99.7112 132.121 99.9167 132.775 100.106ZM211.938 105.598C211.942 105.926 212.078 106.369 212.24 106.584C212.403 106.798 212.489 107.153 212.432 107.372C212.283 107.941 212.771 108.157 213.128 107.68C213.41 107.302 213.42 107.308 213.304 107.766C213.237 108.035 213.084 108.254 212.965 108.254C212.846 108.254 212.795 108.498 212.852 108.796C212.918 109.146 212.857 109.339 212.678 109.339C212.526 109.339 212.352 109.461 212.292 109.61C212.222 109.782 212.176 109.751 212.165 109.527C212.156 109.332 211.937 109.117 211.679 109.05C211.282 108.946 211.252 108.875 211.488 108.59C211.688 108.35 211.695 108.254 211.515 108.254C211.358 108.254 211.282 107.933 211.314 107.4C211.341 106.93 211.443 106.594 211.539 106.653C211.826 106.831 211.739 106.434 211.377 105.917C211.012 105.397 211.117 105.001 211.619 105.001C211.814 105.001 211.934 105.226 211.938 105.598ZM213.465 110.916C213.457 111.003 213.448 111.342 213.446 111.67C213.443 112.134 213.396 112.195 213.232 111.941C212.947 111.5 212.959 110.585 213.249 110.681C213.377 110.724 213.475 110.83 213.465 110.916ZM215.561 112.582C215.542 113.054 215.474 113.387 215.41 113.323C215.229 113.142 215.25 111.724 215.433 111.724C215.522 111.724 215.579 112.11 215.561 112.582ZM214.841 112.669C214.715 112.997 214.317 113.179 214.317 112.908C214.317 112.753 214.841 112.185 214.918 112.257C214.951 112.287 214.916 112.473 214.841 112.669ZM214.317 113.242C214.317 113.361 214.097 113.457 213.829 113.456C213.434 113.453 213.403 113.412 213.666 113.242C214.087 112.97 214.317 112.97 214.317 113.242ZM214.054 114.074C213.959 114.567 213.449 114.643 213.449 114.164C213.449 113.934 213.599 113.748 213.783 113.748C213.967 113.748 214.089 113.894 214.054 114.074ZM214.967 116.911C214.967 117.405 214.67 117.796 214.293 117.796C213.892 117.796 213.714 117.169 214.028 116.856C214.244 116.64 214.967 116.682 214.967 116.911ZM217.116 125.946C217.104 126.175 217.096 126.777 217.097 127.284C217.099 128.384 217.052 128.409 216.615 127.533C216.306 126.913 216.307 126.883 216.635 127.153C216.95 127.414 216.965 127.398 216.767 127.012C216.644 126.774 216.572 126.455 216.607 126.302C216.641 126.15 216.62 126.127 216.559 126.249C216.498 126.372 216.358 126.417 216.247 126.349C216.137 126.281 215.988 126.518 215.916 126.876C215.844 127.234 215.65 127.579 215.485 127.642C215.077 127.799 215.103 128.621 215.52 128.781C215.713 128.855 215.99 128.738 216.171 128.503C216.446 128.149 216.469 128.146 216.354 128.476C216.202 128.912 216.493 128.978 216.876 128.596C217.078 128.393 217.136 128.394 217.136 128.603C217.136 128.749 216.989 128.926 216.81 128.994C216.391 129.155 216.39 129.7 216.809 129.861C216.987 129.93 217.07 130.097 216.992 130.234C216.913 130.371 216.933 130.406 217.035 130.313C217.395 129.986 217.338 129.466 216.956 129.599C216.663 129.7 216.671 129.664 216.997 129.411C217.219 129.239 217.425 128.797 217.453 128.43C217.483 128.063 217.569 127.699 217.646 127.622C217.723 127.545 217.779 127.328 217.771 127.139C217.76 126.886 217.707 126.91 217.569 127.229C217.428 127.556 217.388 127.436 217.403 126.741C217.423 125.847 217.156 125.11 217.116 125.946ZM170.782 127.995C170.044 128.292 170.167 129.047 171.315 131.259C172.981 134.472 174.884 135.514 175.935 133.789C176.901 132.206 176.401 131.106 174.296 130.174C173.79 129.951 173.213 129.484 173.002 129.126C172.687 128.592 171.626 127.734 171.345 127.785C171.304 127.793 171.051 127.887 170.782 127.995ZM118.724 130.549C118.229 131.044 117.74 132.501 117.374 134.567C117.244 135.302 116.854 136.831 116.508 137.964C116.163 139.097 115.676 140.902 115.428 141.976C115.179 143.049 114.492 145.857 113.902 148.215C112.273 154.714 112.212 154.577 117.273 155.813C123.482 157.331 126.31 157.915 127.427 157.91C128.044 157.908 129.53 158.07 130.728 158.272C134.556 158.915 139.735 157.899 142.75 155.914C147.614 152.71 148.56 145.667 144.802 140.65C142.49 137.563 135.75 134.064 128.333 132.099C126.901 131.719 124.901 131.171 123.887 130.879C121.158 130.092 119.299 129.974 118.724 130.549ZM124.808 132.235C126.587 132.828 127.408 133.231 128.162 133.883C129.022 134.628 129.257 134.728 129.873 134.613C132.53 134.114 135.087 139.263 132.776 140.459C131.279 141.233 130.974 142.081 131.603 143.728C132.013 144.8 131.261 146.627 129.715 148.314C128.748 149.369 128.72 149.526 129.314 150.5C129.665 151.076 129.848 151.19 130.235 151.079C130.501 151.003 130.889 150.893 131.099 150.834C131.309 150.776 132.031 150.98 132.704 151.289C134.378 152.055 135.63 151.159 134.608 149.927C134.039 149.24 136.191 147.24 137.308 147.418C137.85 147.505 138.351 147.438 138.763 147.225C139.404 146.894 140.021 146.788 141.055 146.831C141.7 146.858 144.247 148.925 144.717 149.804C144.955 150.248 144.941 150.515 144.632 151.497C144.105 153.168 143.828 153.327 142.818 152.537C141.773 151.721 141.021 151.549 139.872 151.864C138.581 152.218 137.849 152.157 137.193 151.64C135.693 150.46 135.671 151.797 137.162 153.491C137.497 153.871 137.74 153.929 138.637 153.843C140.557 153.659 141.526 154.929 140.237 155.941C139.102 156.835 136.643 156.756 136.508 155.823C136.391 155.016 134.896 154.585 134.55 155.258C134.278 155.787 134.464 156.172 135.108 156.417C135.856 156.701 135.701 156.79 133.822 157.149C131.665 157.562 130.597 157.264 129.958 156.07C129.634 155.464 129.063 155.367 128.663 155.849C127.369 157.407 123.238 155.643 123.235 153.531C123.235 153.02 123.145 152.26 123.037 151.843C122.93 151.425 122.779 150.628 122.702 150.07C122.51 148.663 121.587 147.388 119.746 145.988C117.001 143.899 116.74 142.783 117.791 137.639C118.059 136.327 118.429 134.521 118.612 133.627C119.18 130.853 120.064 130.654 124.808 132.235ZM181.245 133.449C180.81 133.791 180.392 133.909 179.732 133.874C178.467 133.809 178.154 134.207 178.543 135.386C178.78 136.104 178.783 136.391 178.557 136.952C178.03 138.262 178.038 138.368 178.712 139.041C179.865 140.194 180.554 139.947 181.221 138.141C181.427 137.582 181.886 136.76 182.239 136.315C183.677 134.506 182.868 132.173 181.245 133.449ZM216.5 135.646C216.491 136.289 216.568 136.637 216.702 136.554C216.961 136.394 216.961 135.639 216.702 135.036C216.562 134.711 216.512 134.863 216.5 135.646ZM139.986 139.082C140.726 139.87 140.969 140.269 140.807 140.431C140.277 140.961 138 139.015 138.284 138.274C138.491 137.734 138.906 137.931 139.986 139.082ZM216.667 140.908C216.623 141.453 216.661 142.014 216.75 142.155C216.839 142.294 216.914 141.848 216.916 141.162C216.919 139.669 216.777 139.523 216.667 140.908ZM142.754 142.193C142.902 142.371 143.176 142.518 143.362 142.518C144.199 142.518 145.143 144.131 144.434 144.35C142.466 144.959 141.452 144.446 141.452 142.843C141.452 141.787 142.134 141.447 142.754 142.193ZM212.149 158.999C212.13 159.059 212.084 159.266 212.046 159.46C212.008 159.654 211.919 160.044 211.848 160.328C211.777 160.612 211.868 160.517 212.052 160.114C212.235 159.714 212.339 159.274 212.284 159.138C212.228 159.002 212.167 158.939 212.149 158.999ZM86.8022 162.791C87.3768 163.484 86.4075 164.154 85.7634 163.51C85.2549 163.001 85.4636 162.667 86.3983 162.494C86.4731 162.48 86.6547 162.614 86.8022 162.791ZM82.9177 163.787C83.1655 164.034 83.3151 164.375 83.2506 164.543C83.1861 164.711 83.0695 165.332 82.9909 165.922L82.8489 166.995L83.6848 167.345C85.4257 168.072 85.867 168.874 84.9318 169.609C83.6182 170.643 82.3707 169.855 82.4992 168.073C82.5653 167.157 82.5583 167.147 81.7201 166.973C80.2368 166.665 79.9077 166.048 80.5095 164.705C81.0825 163.425 82.1495 163.018 82.9177 163.787ZM111.39 169.781C111.62 170.291 112.118 170.836 112.676 171.19C115.707 173.114 116.32 176.312 114.134 178.802C112.242 180.957 107.513 176.471 108.78 173.722C109.47 172.223 110.035 170.193 109.905 169.676C109.559 168.299 110.759 168.383 111.39 169.781ZM202.873 177.99C202.605 178.398 202.428 178.733 202.481 178.733C202.632 178.733 203.53 177.416 203.441 177.327C203.396 177.282 203.141 177.58 202.873 177.99ZM191.22 192.016L186.234 197.057L191.275 192.071C195.961 187.439 196.415 186.974 196.262 186.974C196.231 186.974 193.962 189.242 191.22 192.016ZM68.8052 196.19C69.453 196.846 70.032 197.383 70.0917 197.383C70.1513 197.383 69.6699 196.846 69.022 196.19C68.3741 195.534 67.7951 194.997 67.7355 194.997C67.6759 194.997 68.1573 195.534 68.8052 196.19ZM184.499 198.202C184.022 198.646 183.387 199.185 183.089 199.398C182.566 199.774 182.571 199.774 183.256 199.403C183.872 199.069 185.731 197.374 185.464 197.388C185.411 197.391 184.976 197.757 184.499 198.202ZM71.3944 198.304C71.6818 198.632 71.9322 198.901 71.9512 198.901C72.0727 198.901 71.8883 198.011 71.7387 197.875C71.6373 197.783 71.6248 197.83 71.7105 197.979C71.7967 198.128 71.7831 198.25 71.6807 198.25C71.5782 198.25 71.3543 198.128 71.183 197.979C71.0117 197.83 71.1071 197.976 71.3944 198.304ZM181.463 200.564C180.986 200.992 180.79 201.241 181.029 201.117C181.431 200.909 182.629 199.757 182.422 199.777C182.371 199.782 181.94 200.136 181.463 200.564ZM74.3762 200.659C74.6375 200.945 75.1743 201.364 75.5689 201.591C76.4716 202.111 76.3502 201.979 74.9856 200.954C74.3469 200.476 74.0965 200.354 74.3762 200.659ZM176.854 203.165C176.705 203.225 176.583 203.449 176.583 203.663C176.583 203.884 176.324 204.16 175.984 204.301C175.655 204.437 175.094 204.799 174.737 205.104L174.089 205.659L174.74 205.235C175.098 205.002 175.885 204.563 176.488 204.259C177.092 203.954 177.727 203.531 177.898 203.318C178.125 203.035 178.018 203.064 177.505 203.424C176.822 203.903 176.532 203.81 177.06 203.281C177.335 203.007 177.297 202.986 176.854 203.165ZM170.023 207.806C169.338 208.16 168.776 208.498 168.776 208.557C168.776 208.617 169.362 208.37 170.078 208.009C170.793 207.648 171.379 207.305 171.379 207.247C171.379 207.102 171.419 207.086 170.023 207.806ZM166.12 209.758C165.673 209.995 165.307 210.236 165.307 210.296C165.307 210.392 167.019 209.591 167.241 209.392C167.49 209.166 166.838 209.379 166.12 209.758ZM89.4066 209.634C89.4066 209.781 91.1681 210.657 91.2662 210.558C91.3117 210.513 90.9116 210.264 90.3776 210.004C89.8436 209.745 89.4066 209.578 89.4066 209.634ZM94.0246 211.359C93.7633 211.656 94.2892 212.09 94.57 211.809C94.6323 211.746 94.5727 211.695 94.4372 211.695C94.3016 211.695 94.2474 211.549 94.3157 211.37C94.4692 210.971 94.3694 210.967 94.0246 211.359ZM95.8256 211.782C95.9226 212.035 95.8148 212.087 95.335 212.015C94.9121 211.951 95.0845 212.091 95.8858 212.46C97.2162 213.072 97.2135 213.071 97.2135 212.78C97.2135 212.66 97.1403 212.582 97.0509 212.606C96.6573 212.71 95.9433 212.301 96.0468 212.031C96.1081 211.87 96.0555 211.675 95.9297 211.598C95.792 211.513 95.7502 211.586 95.8256 211.782ZM159.235 212.671C158.937 212.841 158.79 212.981 158.909 212.981C159.029 212.981 159.37 212.841 159.668 212.671C159.967 212.501 160.113 212.361 159.994 212.361C159.874 212.361 159.533 212.501 159.235 212.671ZM104.261 214.731C104.335 214.851 104.219 214.956 104.003 214.964C103.509 214.986 104.97 215.561 105.563 215.579C105.908 215.59 105.932 215.552 105.681 215.393C105.508 215.283 105.295 215.238 105.208 215.291C105.121 215.345 104.988 215.288 104.912 215.165C104.836 215.042 104.684 214.996 104.574 215.064C104.465 215.132 104.433 215.036 104.504 214.851C104.575 214.665 104.519 214.515 104.38 214.515C104.241 214.515 104.188 214.612 104.261 214.731ZM105.02 214.731C104.841 214.847 104.744 214.95 104.804 214.961C105.101 215.016 105.631 215.158 106.267 215.353C106.655 215.471 106.972 215.523 106.972 215.468C106.972 215.412 107.17 215.472 107.412 215.602C107.654 215.732 107.795 215.93 107.725 216.043C107.654 216.157 107.871 216.243 108.206 216.236C108.787 216.222 108.793 216.213 108.327 216.026C107.792 215.81 107.686 215.467 108.111 215.321C108.26 215.269 108.211 215.253 108.002 215.284C107.794 215.316 107.577 215.266 107.52 215.174C107.463 215.082 107.166 215.054 106.86 215.112C106.554 215.171 106.319 215.134 106.338 215.03C106.421 214.577 106.297 214.431 106.085 214.731C105.912 214.976 105.828 214.989 105.745 214.786C105.613 214.462 105.455 214.451 105.02 214.731ZM134.757 214.807C134.586 215.013 134.538 215.336 134.634 215.639L134.791 216.134L134.971 215.649C135.069 215.383 135.291 215.165 135.464 215.165C135.988 215.165 136.47 215.416 136.342 215.622C136.276 215.728 136.314 215.816 136.427 215.816C136.633 215.816 136.951 214.929 136.799 214.777C136.506 214.483 135.007 214.505 134.757 214.807ZM109.358 216.141C109.136 216.408 109.153 216.466 109.452 216.466C109.668 216.466 109.755 216.366 109.665 216.221C109.573 216.071 109.631 216.018 109.815 216.086C109.981 216.146 110.092 216.305 110.062 216.439C110.001 216.715 110.126 216.733 110.821 216.546C111.306 216.416 111.519 215.816 111.079 215.816C110.953 215.816 110.923 215.938 111.013 216.087C111.108 216.244 111.005 216.222 110.768 216.033C110.394 215.734 110.373 215.742 110.519 216.129C110.669 216.528 110.656 216.531 110.272 216.183C109.775 215.734 109.699 215.73 109.358 216.141ZM111.381 216.374C111.142 216.882 111.16 216.899 111.926 216.871C112.431 216.852 112.542 216.807 112.231 216.747C111.963 216.695 111.743 216.565 111.743 216.458C111.743 216.351 111.914 216.324 112.122 216.399C112.519 216.542 112.499 216.505 111.957 216.096C111.693 215.896 111.581 215.951 111.381 216.374ZM135.164 216.062C135.164 216.149 134.895 216.261 134.567 216.311C134.199 216.366 134.364 216.414 135.001 216.434C135.764 216.458 136.031 216.552 136.031 216.796C136.031 217.039 136.173 217.089 136.573 216.989C137.124 216.851 137.356 217.205 136.844 217.402C136.695 217.459 136.793 217.496 137.061 217.482C137.329 217.469 137.549 217.377 137.549 217.278C137.549 216.896 136.999 216.537 136.58 216.645C136.203 216.742 136.18 216.71 136.417 216.42C136.657 216.126 136.592 216.069 135.929 215.992C135.508 215.943 135.164 215.975 135.164 216.062ZM112.799 216.54C112.932 216.7 112.976 216.896 112.898 216.974C112.819 217.053 112.933 217.117 113.15 217.117C113.531 217.117 113.531 217.102 113.153 216.683C112.717 216.202 112.417 216.081 112.799 216.54ZM113.767 217.012C113.767 217.189 113.962 217.334 114.2 217.334C114.439 217.334 114.594 217.306 114.544 217.272C114.494 217.239 114.299 217.093 114.11 216.95C113.835 216.741 113.767 216.753 113.767 217.012ZM131.894 217.486C131.79 217.76 131.592 217.984 131.456 217.984C131.278 217.984 131.284 217.892 131.477 217.659C131.705 217.384 131.659 217.334 131.178 217.334C130.865 217.334 130.61 217.438 130.61 217.565C130.61 217.698 130.425 217.738 130.176 217.659C129.863 217.56 129.742 217.62 129.742 217.876C129.742 218.254 130.582 218.137 130.85 217.72C130.923 217.607 131.044 217.674 131.119 217.869C131.194 218.064 131.178 218.176 131.084 218.118C130.991 218.06 130.772 218.112 130.599 218.234C130.372 218.393 130.495 218.418 131.043 218.323C131.461 218.25 131.827 218.12 131.856 218.034C131.886 217.947 133.288 217.91 134.973 217.951C137.05 218.003 137.99 217.954 137.896 217.802C137.82 217.678 137.93 217.477 138.141 217.354C138.352 217.231 138.415 217.127 138.28 217.123C138.146 217.12 137.914 217.263 137.766 217.442C137.564 217.686 137.08 217.759 135.842 217.733C134.272 217.701 134.243 217.691 135.272 217.551C135.868 217.469 136.112 217.38 135.814 217.354C135.516 217.328 134.555 217.235 133.678 217.147C132.145 216.994 132.076 217.007 131.894 217.486ZM124.208 217.903C124.372 218.067 124.636 218.199 124.793 218.198C125.024 218.195 125.022 218.158 124.784 218.007C124.534 217.849 124.534 217.804 124.784 217.716C124.947 217.66 124.817 217.611 124.495 217.609C123.999 217.605 123.955 217.65 124.208 217.903ZM125.188 217.734C125.188 217.871 125.31 217.986 125.459 217.987C125.64 217.99 125.622 218.061 125.405 218.201C125.162 218.358 125.273 218.408 125.839 218.397C126.256 218.39 126.451 218.33 126.272 218.264C126.093 218.198 125.776 217.996 125.568 217.814C125.327 217.604 125.188 217.575 125.188 217.734ZM127.939 217.831C127.997 217.926 127.926 218.145 127.782 218.319C127.559 218.588 127.673 218.635 128.549 218.635C129.462 218.635 129.546 218.596 129.295 218.293C129.082 218.037 129.074 217.912 129.264 217.794C129.404 217.708 129.139 217.643 128.676 217.649C128.213 217.654 127.881 217.736 127.939 217.831ZM119.712 217.928C120.458 217.97 121.678 217.97 122.423 217.928C123.169 217.886 122.559 217.851 121.068 217.851C119.577 217.851 118.967 217.886 119.712 217.928Z" fill="#D68337"/>
</g>
</svg>
