<svg xmlns="http://www.w3.org/2000/svg" viewBox="0 0 256 256" width="256" height="256">
  <defs>
    <radialGradient id="g" cx="50%" cy="42%" r="72%">
      <stop offset="0" stop-color="#8b5cf6"/>
      <stop offset="0.46" stop-color="#5b21b6"/>
      <stop offset="1" stop-color="#11071f"/>
    </radialGradient>
    <filter id="soft" x="-50%" y="-50%" width="200%" height="200%"><feGaussianBlur stdDeviation="7"/></filter>
  </defs>
  <rect width="256" height="256" fill="url(#g)"/>
  <circle cx="128" cy="128" r="72" fill="#a78bfa" opacity="0.22" filter="url(#soft)"/>
  <g color="#ffffff" transform="translate(46 46) scale(6.833333)"><g fill="none" stroke="currentColor" stroke-width="2" stroke-linecap="round" stroke-linejoin="round">
  <path d="M12 5a3 3 0 1 0-5.997.125 4 4 0 0 0-2.526 5.77 4 4 0 0 0 .556 6.588A4 4 0 1 0 12 18Z"/>
  <path d="M12 5a3 3 0 1 1 5.997.125 4 4 0 0 1 2.526 5.77 4 4 0 0 1-.556 6.588A4 4 0 1 1 12 18Z"/>
  <path d="M15 13a4.5 4.5 0 0 1-3-4 4.5 4.5 0 0 1-3 4"/>
  <path d="M17.599 6.5a3 3 0 0 0 .399-1.375"/>
  <path d="M6.003 5.125A3 3 0 0 0 6.401 6.5"/>
  <path d="M3.477 10.896a4 4 0 0 1 .585-.396"/>
  <path d="M19.938 10.5a4 4 0 0 1 .585.396"/>
  <path d="M6 18a4 4 0 0 1-1.967-.516"/>
  <path d="M19.967 17.484A4 4 0 0 1 18 18"/>
</g></g>
</svg>