<svg xmlns="http://www.w3.org/2000/svg" viewBox="0 0 256 256" width="256" height="256"><defs><clipPath id="artboard-14705376006801614721"><rect x="0" y="0" width="256" height="256"/></clipPath></defs><g>
<g clip-path="url(#artboard-14705376006801614721)">
	<g>
		<path d="M0,0 L256,0 L256,256 L0,256 L0,0 Z" transform="matrix(1,0,0,1,0,0)" fill="#ececec"/>
	</g>
	<g>
		<path d="M218.37528638199936,84.76025115300827 C219.82647456261338,74.18139111772894 210.30247576690087,68.86701725201866 197.42205700581422,65.55754050584366 C197.42205700581422,65.55754050584366 201.0420544410944,51.16780222638885 201.0420544410944,51.16780222638885 C201.0420544410944,51.16780222638885 190.86988380643885,49.372378809779235 190.86988380643885,49.372378809779235 C190.86988380643885,49.372378809779235 187.34605133663393,63.383223188840816 187.34605133663393,63.383223188840816 C184.67181539978992,62.910689447059326 181.92728096983228,62.47355751982302 179.19954442658715,62.040458285958664 C179.19954442658715,62.040458285958664 182.7492930383578,47.93704389046022 182.7492930383578,47.93704389046022 C182.7492930383578,47.93704389046022 172.58341785897585,46.14139309567669 172.58341785897585,46.14139309567669 C172.58341785897585,46.14139309567669 168.96100282508246,60.52658165679529 168.96100282508246,60.52658165679529 C166.7495115135347,60.17652120053047 164.57731329476314,59.830063249695414 162.46859722784086,59.45850720788273 C162.46859722784086,59.45850720788273 162.47867020599827,59.413292747251646 162.47867020599827,59.413292747251646 C162.47867020599827,59.413292747251646 148.45080538264511,56.930898356534996 148.45080538264511,56.930898356534996 C148.45080538264511,56.930898356534996 146.1000264031555,66.28646931211516 146.1000264031555,66.28646931211516 C146.1000264031555,66.28646931211516 153.64228471349892,67.49021808204445 153.48774203418827,67.58665743051725 C157.60695307633478,68.31515118974718 158.43007255981541,70.6121713107639 158.37384799642336,72.45844002777119 C158.37384799642336,72.45844002777119 154.25038754451148,88.85171961111972 154.25038754451148,88.85171961111972 C154.53407270435918,88.90294670354083 154.9023781952136,88.97856686305666 155.31026416297402,89.10302624378839 C154.97089902408635,89.04337036912595 154.6097154581554,88.97792808369218 154.23511064552878,88.91490559295889 C154.23511064552878,88.91490559295889 148.45494116835422,111.87967692503636 148.45494116835422,111.87967692503636 C147.99392409680786,112.96421028582405 146.7837809958156,114.61050624480556 143.90398950875294,114.10595949253019 C144.00970233192308,114.22818382112132 136.5106189811181,112.79862715237067 136.5106189811181,112.79862715237067 C136.5106189811181,112.79862715237067 131.85744522359127,122.90236095314455 131.85744522359127,122.90236095314455 C131.85744522359127,122.90236095314455 145.0949073784468,125.24008782105071 145.0949073784468,125.24008782105071 C147.55764499952915,125.67812356360595 149.97225311142108,126.1422509317554 152.34925862620008,126.57486891880144 C152.34925862620008,126.57486891880144 148.69244247276296,141.12948399861875 148.69244247276296,141.12948399861875 C148.69244247276296,141.12948399861875 158.8529222465939,142.92532730391952 158.8529222465939,142.92532730391952 C158.8529222465939,142.92532730391952 162.47479370187347,128.52508859620187 162.47479370187347,128.52508859620187 C165.2524095321208,129.06773181605513 167.9468412364294,129.563511852384 170.58384745237169,130.0273374383477 C170.58384745237169,130.0273374383477 166.97348535055824,144.35989628248615 166.97348535055824,144.35989628248615 C166.97348535055824,144.35989628248615 177.14610596751487,146.15530108689705 177.14610596751487,146.15530108689705 C177.14610596751487,146.15530108689705 180.80344272518266,131.62772956400048 180.80344272518266,131.62772956400048 C198.11715714682356,133.8035435621759 211.01897649348638,132.20820697363789 215.9837710512128,118.64136547413298 C219.98470819350902,107.71832915071309 215.15221419292445,101.67582208521439 205.95045419399048,97.95395063026297 C212.4988697197176,96.40945662456893 217.33226057813496,92.50465917727973 218.37892880058791,84.76128062580679 C218.37892880058791,84.76128062580679 218.375708529943,84.75946188657561 218.375708529943,84.75946188657561 C218.375708529943,84.75946188657561 218.37528638199936,84.76025115300827 218.37528638199936,84.76025115300827 ZM196.31559190303682,113.3658963885807 C193.58485479669372,124.24305584493803 172.27003200705028,119.1863569131821 165.37488869415853,117.9743102538619 C165.37488869415853,117.9743102538619 170.2286909148167,98.69164435130632 170.2286909148167,98.69164435130632 C177.12366301458366,99.91142794886845 199.17037790337372,102.02184605940975 196.3160419704583,113.36588013312274 C196.3160419704583,113.36588013312274 196.31559190303682,113.3658963885807 196.31559190303682,113.3658963885807 ZM198.42863560154862,85.32447998141132 C195.93658194736332,95.21870767441149 178.19128747235823,90.87864465252943 172.44908727490213,89.86467093295141 C172.44908727490213,89.86467093295141 176.849505037783,72.3765009997897 176.849505037783,72.3765009997897 C182.5917052352391,73.39047471936772 201.02415725150428,75.00431600292005 198.42953573639159,85.32444747049541 C198.42953573639159,85.32444747049541 198.42863560154862,85.32447998141132 198.42863560154862,85.32447998141132 C198.42863560154862,85.32447998141132 198.42863560154862,85.32447998141132 198.42863560154862,85.32447998141132 Z" transform="matrix(1,0,0,1,0,0)" fill="#f6931a" stroke="#000000" stroke-opacity="0.344" stroke-linecap="square" stroke-linejoin="bevel" style="paint-order: stroke;" />
	</g>
	<g>
		<g>
			<g transform="matrix(0.746322343,0,0,0.746322343,86.573388814,-0.896997847)">
				<g>
					<g>
						<path d="M-91.29940587314843,228.47240079972914 L211.02004196728785,228.47240079972914 L211.02004196728785,316.0792383101799 L-91.29940587314843,316.0792383101799 L-91.29940587314843,228.47240079972914 Z" transform="matrix(1,0,0,1,0,0)" fill="#e9e9e9"/>
					</g>
					<g>
						<path d="M-39.14616558795437,168.45095484562324 L23.588451053988308,224.6001271833987 L-31.425673722154112,286.06657244035534 L-94.1602903640968,229.91740010257988 L-39.14616558795437,168.45095484562324 Z" transform="matrix(1,0,0,1,0,0)" fill="#e9e9e9"/>
					</g>
					<g>
						<path d="M55.720882218975504,135.05909575755385 L176.32165599271477,243.00003798630453 L121.30753121657236,304.46648324326117 L0.7067574428330943,196.52554101451048 L55.720882218975504,135.05909575755385 Z" transform="matrix(1,0,0,1,0,0)" fill="#e9e9e9"/>
					</g>
					<g>
						<path d="M169.0081494520379,190.8706249486316 L223.08077129167575,239.26707853274914 L202.20895277937257,262.58684405151223 L148.13633093973473,214.19039046739468 L169.0081494520379,190.8706249486316 Z" transform="matrix(1,0,0,1,0,0)" fill="#e9e9e9"/>
					</g>
					<g>
						<path d="M60.36198541042347,164.92879882736227 L34.231425992364834,132.71569238242844 L59.20265394203676,112.4595846147341 L85.3332133600954,144.67269105966793 L60.36198541042347,164.92879882736227 Z" transform="matrix(1,0,0,1,0,0)" fill="#e9e9e9"/>
					</g>
					<g>
						<path d="M39.73332810401914,116.73335063457489 C26.3999955654144,134.06668293476105 25.066662311553927,135.40001618862152 17.199996113777132,139.40001595020294 C12.133329749107332,141.93334913253784 10.26666319370267,144.20001566410065 3.0666636228561117,157.0000149011612 C-1.600002765655546,165.00001442432404 -7.866669058799772,174.2000138759613 -10.800002217292814,177.2666803598404 C-10.800002217292814,177.2666803598404 -16.400001883506803,182.86668002605438 -16.400001883506803,182.86668002605438 C-16.400001883506803,182.86668002605438 -19.866668343544035,180.20001351833344 -19.866668343544035,180.20001351833344 C-21.733334898948698,178.7333469390869 -27.466667890548734,174.06668055057526 -32.66666758060458,169.6666808128357 C-32.66666758060458,169.6666808128357 -42.0000003576279,161.66668128967285 -42.0000003576279,161.66668128967285 C-42.0000003576279,161.66668128967285 -78.93333148956302,199.40001237392426 -78.93333148956302,199.40001237392426 C-78.93333148956302,199.40001237392426 -115.86666262149814,237.0000101327896 -115.86666262149814,237.0000101327896 C-115.86666262149814,237.0000101327896 -115.99999594688418,250.33334267139435 -115.99999594688418,250.33334267139435 C-115.99999594688418,281.6666741371155 -103.99999666213992,307.53333926200867 -81.46666467189792,324.8666715621948 C-64.93333232402804,337.66667079925537 -52.266666412353544,341.26667058467865 -18.00000178813937,343.00000381469727 C12.133329749107332,344.60000371932983 85.19999206066129,344.60000371932983 121.99998986721036,343.1333371400833 C164.13332068920133,341.26667058467865 179.19998645782468,336.600004196167 197.33331871032712,319.53333854675293 C214.79998433589932,303.00000619888306 222.79998385906217,286.06667387485504 225.4666503667831,259.2666754722595 C226.2666503190994,250.4666759967804 226.66665029525754,241.80000984668732 226.2666503190994,240.0666766166687 C225.7333170175552,238.46667671203613 213.19998443126676,224.73334419727325 198.1333186626434,209.80001175403595 C198.1333186626434,209.80001175403595 170.93332028388974,182.6000133752823 170.93332028388974,182.6000133752823 C170.93332028388974,182.6000133752823 164.39998733997342,186.06667983531952 164.39998733997342,186.06667983531952 C146.13332176208493,196.20001256465912 134.39998912811276,201.66667890548706 133.0666558742523,200.86667895317078 C130.93332266807553,199.5333456993103 124.26665639877316,191.9333461523056 118.26665675640103,183.8000133037567 C115.46665692329404,180.0666801929474 107.99999070167539,171.80001401901245 101.86665773391721,165.26668107509613 C91.06665837764737,154.06668174266815 90.26665842533109,153.00001513957977 84.13332545757291,137.26668274402618 C84.13332545757291,137.26668274402618 77.86665916442868,121.0000170469284 77.86665916442868,121.0000170469284 C77.86665916442868,121.0000170469284 65.86665987968442,111.400017619133 65.86665987968442,111.400017619133 C59.3333269357681,106.0666846036911 53.33332729339597,101.66668486595154 52.66666066646573,101.66668486595154 C51.86666071414945,101.66668486595154 45.99999439716336,108.46668446063995 39.73332810401914,116.73335063457489 C39.73332810401914,116.73335063457489 39.73332810401914,116.73335063457489 39.73332810401914,116.73335063457489 ZM63.599993348121615,127.40001666545868 C69.06665968894956,133.13334965705872 70.66665959358212,136.06668281555176 71.9999928474426,141.8000158071518 C75.06665933132169,156.2000149488449 79.06665909290311,164.73334777355194 83.99999213218686,167.93334758281708 C86.53332531452176,169.53334748744965 90.26665842533109,172.06668066978455 92.2666583061218,173.66668057441711 C96.26665806770322,176.7333470582962 121.86665654182431,208.20001184940338 121.06665658950803,209.00001180171967 C120.79998993873593,209.26667845249176 115.46665692329404,206.33334529399872 109.33332395553586,202.3333455324173 C97.3333246707916,194.60001266002655 95.06665813922879,193.80001270771027 93.86665821075437,197.0000125169754 C90.39999175071713,205.80001199245453 134.66665577888486,251.93334257602692 168.39998710155484,274.60000789165497 C173.3333201408386,277.93334102630615 177.06665325164792,281.00000751018524 176.79998660087583,281.26667416095734 C176.26665329933164,281.8000074625015 154.799987912178,271.5333414077759 144.6666551828384,265.80000841617584 C123.33332312107083,253.66667580604553 107.1999907493591,242.6000097990036 89.33332514762876,227.80001068115234 C65.99999320507047,208.46667850017548 64.53332662582395,209.933345079422 75.46665930747983,241.00000989437103 C75.99999260902402,242.46667647361755 72.66665947437284,240.0666766166687 67.86665976047513,235.5333435535431 C63.19999337196347,231.00001049041748 54.533327221870394,223.66667759418488 48.66666090488431,219.2666778564453 C33.9999951124191,208.06667852401733 33.06666183471677,207.26667857170105 34.266661763191195,205.1333453655243 C34.799995064735384,204.0666787624359 38.93332815170285,199.2666790485382 43.333327889442415,194.33334600925446 C49.73332750797269,187.1333464384079 51.7333273887634,183.66667997837067 53.59999394416806,177.13334703445435 C56.7999937534332,165.66668105125427 56.66666042804715,165.00001442432404 50.399994134902926,158.20001482963562 C50.399994134902926,158.20001482963562 44.799994468688936,152.2000151872635 44.799994468688936,152.2000151872635 C44.799994468688936,152.2000151872635 49.999994158744784,136.2000161409378 49.999994158744784,136.2000161409378 C52.933327317237826,127.53334999084473 55.59999382495877,120.33335041999817 56.13332712650296,120.33335041999817 C56.533327102661104,120.33335041999817 59.999993562698336,123.5333502292633 63.599993348121615,127.40001666545868 C63.599993348121615,127.40001666545868 63.599993348121615,127.40001666545868 63.599993348121615,127.40001666545868 ZM-28.933334469795255,189.1333463191986 C-28.933334469795255,189.1333463191986 -18.400001764297514,198.06667912006378 -18.400001764297514,198.06667912006378 C-18.400001764297514,198.06667912006378 -19.200001716613798,203.53334546089172 -19.200001716613798,203.53334546089172 C-19.60000169277194,206.46667861938477 -20.400001645088224,212.06667828559875 -20.800001621246366,215.93334472179413 C-20.800001621246366,215.93334472179413 -21.60000157356265,222.8666776418686 -21.60000157356265,222.8666776418686 C-21.60000157356265,222.8666776418686 -15.06666862964633,229.26667726039886 -15.06666862964633,229.26667726039886 C-9.200002312660246,235.0000102519989 -4.533335924148588,238.33334338665009 14.933329582214327,250.4666759967804 C18.666662693023653,252.86667585372925 21.466662526130648,256.86667561531067 27.86666214466092,269.133341550827 C32.266661882400484,277.8000077009201 35.733328342437716,285.00000727176666 35.46666169166562,285.26667392253876 C35.199995040893526,285.53334057331085 27.46666216850278,280.333340883255 18.133329391479464,273.66667461395264 C-2.8000026941299723,258.8666754961014 -2.000002741813688,259.2666754722595 -16.53333520889285,255.5333423614502 C-37.73333394527438,250.2000093460083 -36.13333404064181,251.80000925064087 -37.20000064373019,235.13334357738495 C-38.13333392143252,221.26667773723602 -39.600000500679045,219.8000111579895 -48.93333327770236,223.40001094341278 C-69.46666538715365,231.13334381580353 -75.99999833106997,233.26667702198029 -75.99999833106997,232.33334374427795 C-75.99999833106997,231.80001044273376 -72.26666522026065,227.26667737960815 -67.59999883174899,222.20001101493835 C-51.59999978542331,204.6000120639801 -49.733333230018644,202.0666788816452 -47.33333337306979,195.53334593772888 C-42.80000030994418,183.13334667682648 -41.46666705608371,180.33334684371948 -40.40000045299533,180.33334684371948 C-39.86666715145114,180.33334684371948 -34.66666746139529,184.3333466053009 -28.933334469795255,189.1333463191986 C-28.933334469795255,189.1333463191986 -28.933334469795255,189.1333463191986 -28.933334469795255,189.1333463191986 ZM188.2666525840759,214.60001146793365 C197.59998536109921,224.06667757034302 206.39998483657834,233.13334369659424 207.59998476505277,235.0000102519989 C207.59998476505277,235.0000102519989 209.73331797122952,238.33334338665009 209.73331797122952,238.33334338665009 C209.73331797122952,238.33334338665009 206.5333181619644,236.20001018047333 206.5333181619644,236.20001018047333 C193.5999855995178,227.80001068115234 185.4666527509689,223.00001096725464 184.13331949710843,223.00001096725464 C182.26665294170377,223.00001096725464 182.26665294170377,227.53334403038025 183.99998617172238,233.53334367275238 C184.66665279865262,236.06667685508728 185.06665277481076,238.33334338665009 184.79998612403867,238.60001003742218 C184.53331947326657,238.86667668819427 179.19998645782468,233.93334364891052 172.93332016468045,227.6666773557663 C172.93332016468045,227.6666773557663 161.59998750686643,216.06667804718018 161.59998750686643,216.06667804718018 C161.59998750686643,216.06667804718018 163.99998736381528,209.26667845249176 163.99998736381528,209.26667845249176 C167.7333204746246,198.73334574699402 168.13332045078275,197.66667914390564 169.73332035541532,197.66667914390564 C170.39998698234555,197.66667914390564 178.79998648166654,205.26667869091034 188.2666525840759,214.60001146793365 C188.2666525840759,214.60001146793365 188.2666525840759,214.60001146793365 188.2666525840759,214.60001146793365 ZM61.33332681655881,267.1333416700363 C68.66665971279141,269.000008225441 76.93332588672635,273.2666746377945 91.9999916553497,282.20000743865967 C103.33332431316373,289.0000070333481 119.46665668487546,298.3333398103714 127.7333228588104,303.00000619888306 C135.99998903274533,307.53333926200867 142.53332197666165,311.66667234897614 142.1333220005035,311.93333899974823 C141.19998872280118,312.86667227745056 91.06665837764737,292.60000681877136 76.66665923595426,285.4000072479248 C56.7999937534332,275.40000784397125 45.333327770233126,268.4666749238968 45.333327770233126,266.33334171772003 C45.333327770233126,263.6666752099991 49.466660857200594,263.80000853538513 61.33332681655881,267.1333416700363 C61.33332681655881,267.1333416700363 61.33332681655881,267.1333416700363 61.33332681655881,267.1333416700363 Z" fill="#092b3f"/>
					</g>
				</g>
				<g>
					<path d="M189.46662247181985,240.5086748720421 L227.01532746026754,240.5086748720421 L227.01532746026754,316.07923831018 L189.46662247181985,316.07923831018 L189.46662247181985,240.5086748720421 Z" fill="#092b3f"/>
				</g>
				<g>
					<path d="M-115.99999594688435,316.07923831017996 L227.01532746026763,316.07923831017996 L227.01532746026763,344.2172140584228 L-115.99999594688435,344.2172140584228 L-115.99999594688435,316.07923831017996 Z" fill="#092b3f"/>
				</g>
				<g>
					<path d="M-115.99999594688427,238.02985319898252 L-80.16804245498102,238.02985319898252 L-80.16804245498102,344.217214058423 L-115.99999594688427,344.217214058423 L-115.99999594688427,238.02985319898252 Z" fill="#092b3f"/>
				</g>
			</g>
		</g>
	</g>
</g></g></svg>