<svg width="256" height="256" viewBox="0 0 256 256" fill="none" xmlns="http://www.w3.org/2000/svg">
<rect width="256" height="256" fill="url(#paint0_linear_1761_2468)"/>
<path d="M130.62 176.98C129.313 177.043 127.775 177.083 126.234 177.083C100.619 177.083 77.4506 166.608 60.7816 149.7L60.7692 149.687C66.0329 164.607 75.4304 176.974 87.589 185.765L87.8038 185.917C99.6884 194.53 114.561 199.701 130.639 199.701C146.716 199.701 161.583 194.536 173.676 185.777L173.458 185.923C185.826 176.98 195.223 164.619 200.331 150.223L200.49 149.7C183.793 166.615 160.609 177.089 134.981 177.089C133.444 177.089 131.912 177.049 130.396 176.974L130.614 176.98H130.62ZM130.614 71.0644C131.928 70.9959 133.462 70.9554 135.012 70.9554C160.621 70.9554 183.787 81.43 200.453 98.3325L200.465 98.3449C195.198 83.4253 185.801 71.0582 173.651 62.2676L173.434 62.1151C161.552 53.5082 146.679 48.3503 130.602 48.3503C114.524 48.3503 99.6573 53.5082 87.5547 62.2676L87.7726 62.1213C75.3993 71.0582 66.0018 83.4253 60.8968 97.822L60.738 98.3449C77.4506 81.4362 100.65 70.9648 126.297 70.9648C127.816 70.9648 129.332 71.0021 130.829 71.0706L130.62 71.0644H130.614ZM72.1744 58.9774C72.1744 61.2933 71.2375 63.3914 69.7247 64.9135C68.2212 66.4294 66.1356 67.3757 63.8353 67.3757C61.5349 67.3757 59.4431 66.4294 57.9459 64.9135C56.433 63.3914 55.4961 61.2871 55.4961 58.9712C55.4961 56.6584 56.433 54.5541 57.9459 53.032C59.4493 51.5129 61.5349 50.5698 63.8353 50.5698C66.1356 50.5698 68.2274 51.5129 69.7309 53.0382C71.2437 54.5604 72.1744 56.6584 72.1744 58.9774ZM196.372 43.7745C196.372 43.7808 196.372 43.787 196.372 43.787C196.372 46.9153 195.108 49.7542 193.069 51.8118C191.036 53.8724 188.21 55.1456 185.094 55.1456C181.975 55.1456 179.152 53.8724 177.119 51.818C175.077 49.7542 173.816 46.9091 173.816 43.7745C173.816 40.6368 175.077 37.7949 177.119 35.728C179.152 33.6766 181.969 32.4004 185.094 32.4004C188.216 32.4004 191.036 33.6766 193.069 35.728C195.108 37.7886 196.372 40.6244 196.372 43.7621V43.7683V43.7745ZM89.4193 209.269C89.4193 209.269 89.4193 209.276 89.4193 209.282C89.4193 213.229 87.8318 216.805 85.2544 219.405C82.6926 222.001 79.1346 223.607 75.2094 223.607C71.2811 223.607 67.7231 222.001 65.1613 219.411C62.5839 216.812 60.9995 213.229 60.9995 209.276C60.9995 205.322 62.5839 201.746 65.1613 199.14C67.7231 196.544 71.2748 194.944 75.2094 194.944C79.1409 194.944 82.6926 196.55 85.2544 199.146C87.8256 201.746 89.4193 205.322 89.4193 209.269C89.4193 209.276 89.4193 209.276 89.4193 209.282V209.269Z" fill="#F37726"/>
<g style="mix-blend-mode:color">
<rect x="171" y="26" width="36" height="30" fill="#6F7070"/>
</g>
<g style="mix-blend-mode:color">
<rect x="37" y="41" width="36" height="30" fill="#6F7070"/>
</g>
<g style="mix-blend-mode:color">
<rect x="55" y="194" width="36" height="30" fill="#6F7070"/>
</g>
<defs>
<linearGradient id="paint0_linear_1761_2468" x1="128" y1="0" x2="128" y2="256" gradientUnits="userSpaceOnUse">
<stop stop-color="white"/>
<stop offset="1" stop-color="#E8E8E8"/>
</linearGradient>
</defs>
</svg>
