<svg xmlns="http://www.w3.org/2000/svg" role="img" width="256" height="256" viewBox="0 0 1209 1209"><path d="M0 604.5V1209h1209V0H0zm645-339.1c63.2 8.3 121.1 33 171.5 73.2 14.1 11.3 39.5 36.7 50.9 50.9 40.1 50.2 64.4 107.4 73.2 173 2.5 18.1 2.5 62.6.1 81-9.4 70.6-36.9 131.6-83.3 184.5-45.9 52.4-110.6 91-178.1 106.4l-6.3 1.4V604.3l25.8-.6c33.7-.8 43.6-2.8 63.2-12.8 40.6-20.8 65-65.3 60.1-110-5.1-47.1-37.2-85-82.6-97.6-9.4-2.6-11.2-2.8-29-2.7-20.8 0-26 .9-42 7.3-27.3 11-50.6 34.3-61.5 61.5-6.6 16.5-7.2 20.4-7.7 51.3l-.5 28.3h-60.5c-66.9 0-73.2.4-91.3 6.2-46.4 14.7-80.9 53-91.2 101.1-2.8 13.4-3.1 38.8-.5 51.9 11.4 57.2 55.9 99.8 113 108.2 5.8.9 12.5 1.6 15.1 1.6h4.6v-74.7l-6.5-.6c-35.8-3.4-60.5-38.9-51.5-74.2 5.3-20.6 22.2-37.6 42.6-42.9 5.3-1.4 14.7-1.6 66.3-1.6H599v339.3l-13.5-.7c-69.7-3.5-135.6-28.2-192.5-72.2-13.3-10.2-45.6-42.1-55-54.2-32.9-42.4-53.2-83.2-65.4-131.7-12.9-51.2-12.9-111.8 0-163 11.9-47.3 31.9-88.1 63-128.5 10.9-14.2 42.3-45.7 56.4-56.6 53.8-41.7 115.1-66.3 180.5-72.3 14.9-1.4 57.7-.6 72.5 1.3M717.1 455c11.9 2.3 22.5 10.5 27.7 21.8 2.2 4.8 2.7 7.1 2.7 14.7 0 7.7-.4 9.8-2.7 14.7-3.7 8-10.7 15.2-18.7 19.1l-6.5 3.2-23.3.3-23.3.4v-19c0-10.4.5-21.3 1-24.2 3-15.8 13.8-27.2 29-30.6 7.1-1.6 7.7-1.6 14.1-.4"/><g fill="#fff" stroke-width="0"><path d="M572.5 264.1c-65.4 6-126.7 30.6-180.5 72.3-14.1 10.9-45.5 42.4-56.4 56.6C287 456.2 263 525.4 263 603c0 44.7 7.1 82.6 23.3 124 12.3 31.7 28.1 58.8 51.7 89.2 9.4 12.1 41.7 44 55 54.2 56.9 44 122.8 68.7 192.5 72.2l13.5.7V604h-60.1c-51.6 0-61 .2-66.3 1.6-20.4 5.3-37.3 22.3-42.6 42.9-9 35.3 15.7 70.8 51.5 74.2l6.5.6V798h-4.6c-2.6 0-9.3-.7-15.1-1.6-57.1-8.4-101.6-51-113-108.2-2.6-13.1-2.3-38.5.5-51.9 10.3-48.1 44.8-86.4 91.2-101.1 18.1-5.8 24.4-6.2 91.3-6.2h60.5l.5-28.3c.5-30.9 1.1-34.8 7.7-51.3 10.9-27.2 34.2-50.5 61.5-61.5 16-6.4 21.2-7.3 42-7.3 17.8-.1 19.6.1 29 2.7 31.8 8.8 57.9 30.5 71.9 59.8 20.3 42.4 12.7 91.5-19.5 125.4-9.3 9.8-18 16.3-29.9 22.4-19.6 10-29.5 12-63.2 12.8l-25.8.6v331.5l6.3-1.4c67.5-15.4 132.2-54 178.1-106.4 46.4-52.9 73.9-113.9 83.3-184.5 2.4-18.4 2.4-62.9-.1-81-8.8-65.6-33.1-122.8-73.2-173-11.4-14.2-36.8-39.6-50.9-50.9-50.4-40.2-108.3-64.9-171.5-73.2-14.8-1.9-57.6-2.7-72.5-1.3"/><path d="M703 455.4c-15.2 3.4-26 14.8-29 30.6-.5 2.9-1 13.8-1 24.2v19l23.3-.4 23.3-.3 6.5-3.2c8-3.9 15-11.1 18.7-19.1 2.3-4.9 2.7-7 2.7-14.7 0-7.6-.5-9.9-2.7-14.7-5.2-11.3-15.8-19.5-27.7-21.8-6.4-1.2-7-1.2-14.1.4"/></g></svg>