<svg width="256" height="256" viewBox="0 0 256 256" fill="none" xmlns="http://www.w3.org/2000/svg">
<rect width="256" height="256" fill="#100D0D"/>
<path fill-rule="evenodd" clip-rule="evenodd" d="M41.7768 81.4966C40.0654 81.7477 39.9978 81.8454 41.2727 82.2267C41.8488 82.3995 42.5889 82.717 42.917 82.9318C43.2451 83.1465 44.7185 83.645 46.1913 84.0388C50.9602 85.315 56.7179 86.9092 65.9633 89.5147C67.4442 89.9318 69.6703 90.5467 70.9101 90.8804C72.1499 91.2142 74.3478 91.8228 75.7943 92.2323C77.2407 92.6418 79.1005 93.1534 79.927 93.3688C80.7536 93.5849 82.1625 93.99 83.0579 94.2705C83.9533 94.5504 85.5313 95.0031 86.5645 95.2755C88.7667 95.8573 91.9082 96.7189 95.5814 97.7495C97.0278 98.1553 98.8876 98.6638 99.7141 98.8792C100.541 99.0952 101.95 99.5022 102.845 99.7852C103.74 100.068 105.318 100.515 106.352 100.778C107.385 101.041 109.47 101.604 110.985 102.028C112.501 102.451 114.783 103.072 116.057 103.407C117.33 103.742 118.57 104.121 118.812 104.25C119.327 104.525 122.177 104.947 125.012 105.169C127.378 105.354 132.586 104.92 134.46 104.381C135.187 104.172 136.402 103.84 137.159 103.644C137.917 103.448 139.27 103.058 140.165 102.778C141.06 102.498 142.638 102.045 143.672 101.773C146.522 101.02 150.243 99.9894 158.136 97.7652C159.617 97.3482 161.843 96.7333 163.083 96.3995C164.323 96.0658 166.521 95.4571 167.967 95.0476C169.414 94.6381 171.273 94.1265 172.1 93.9111C172.926 93.6951 174.335 93.2899 175.231 93.0094C176.126 92.7295 177.704 92.2768 178.737 92.0044C180.779 91.4653 183.581 90.6982 187.879 89.501C189.395 89.0789 191.427 88.5273 192.397 88.2755C193.366 88.0238 194.944 87.578 195.903 87.2856C196.862 86.9931 198.324 86.5761 199.151 86.3588C199.977 86.1415 201.837 85.63 203.283 85.2211C204.73 84.8128 206.815 84.2555 207.917 83.9831C209.019 83.7107 210.428 83.2223 211.048 82.8973C211.668 82.573 212.511 82.228 212.923 82.1309C213.627 81.9643 213.641 81.9368 213.173 81.6606L41.7768 81.4966ZM37.3741 92.6588C37.1763 93.1747 37.1819 165.599 37.3798 166.339C37.5607 167.013 38.5501 167.1 39.644 166.538C40.0335 166.338 41.1418 165.818 42.1061 165.384C43.0704 164.95 44.423 164.332 45.1118 164.012C45.8006 163.692 47.3222 163.023 48.4931 162.525C49.664 162.028 51.0729 161.409 51.624 161.15C52.6183 160.683 53.185 160.428 57.7605 158.386C62.2946 156.363 62.9001 156.091 63.897 155.625C64.448 155.368 65.9696 154.686 67.2783 154.111C70.1312 152.859 72.0617 151.997 73.4148 151.373C74.4223 150.909 75.1769 150.57 79.5513 148.618C84.1268 146.577 84.6934 146.322 85.6878 145.854C86.2388 145.595 87.6477 144.976 88.8187 144.477C89.9896 143.979 91.6803 143.23 92.5757 142.815C93.4712 142.399 94.6546 141.852 95.2057 141.599C95.7567 141.346 96.9615 140.793 97.8826 140.37C98.8037 139.947 99.6277 139.601 99.7141 139.601C100.188 139.601 106.316 136.581 106.536 136.239C106.747 135.912 105.055 134.529 102.784 133.175C101.718 132.539 100.718 131.865 100.562 131.677C100.407 131.489 100.171 131.336 100.037 131.336C99.9045 131.336 99.3265 131.013 98.7529 130.619C98.1794 130.225 97.1468 129.553 96.458 129.126C95.7692 128.699 94.8675 128.115 94.4542 127.829C94.041 127.543 93.1956 126.994 92.5757 126.609C91.1562 125.728 87.4411 123.369 84.6064 121.549C83.4104 120.781 81.8682 119.8 81.1794 119.368C80.4906 118.935 79.5889 118.347 79.1756 118.061C78.7623 117.775 77.917 117.225 77.2971 116.84C75.8882 115.966 72.2194 113.637 69.2025 111.702C67.9377 110.89 66.5081 109.977 66.026 109.673C64.0829 108.445 60.5795 106.17 59.5983 105.499C59.0247 105.106 58.4925 104.786 58.4154 104.786C58.3391 104.786 57.7937 104.463 57.2044 104.07C56.0898 103.324 52.2702 100.859 50.7473 99.9017C49.6665 99.2223 45.7066 96.665 44.3948 95.7996C43.8632 95.4484 43.2314 95.0445 42.9922 94.9017C42.7523 94.7589 41.9289 94.2699 41.1619 93.8153C40.3948 93.3607 39.6315 92.8253 39.4662 92.6256C39.0529 92.1284 37.5682 92.1516 37.3741 92.6588ZM215.807 93.062C214.262 94.149 213.743 94.4809 211.355 95.908C210.215 96.5893 208.806 97.4477 208.224 97.8159C207.642 98.1835 206.177 99.072 204.968 99.7896C203.76 100.508 202.709 101.195 202.634 101.317C202.558 101.44 201.969 101.823 201.325 102.169C200.68 102.515 199.645 103.124 199.025 103.522C198.405 103.92 196.94 104.827 195.769 105.537C194.598 106.248 193.133 107.151 192.513 107.544C191.893 107.937 190.777 108.632 190.034 109.09C189.29 109.547 188.499 110.033 188.274 110.171C187.475 110.663 183.105 113.384 182.244 113.927C181.213 114.576 179.478 115.642 177.804 116.656C176.071 117.705 174.752 118.537 173.532 119.35C172.943 119.743 172.398 120.065 172.321 120.065C172.244 120.065 171.656 120.422 171.013 120.86C168.899 122.299 168.588 122.498 167.584 123.046C167.037 123.344 166.082 123.914 165.462 124.311C164.842 124.709 163.377 125.616 162.206 126.326C161.035 127.037 159.57 127.941 158.95 128.336C158.33 128.73 157.259 129.403 156.571 129.83C155.882 130.258 154.248 131.276 152.939 132.093C151.63 132.909 150.165 133.803 149.683 134.078C146.364 135.973 146.576 136.276 153.189 139.076C154.223 139.513 155.485 140.093 155.994 140.363C156.504 140.632 157.046 140.853 157.199 140.853C157.353 140.853 158.063 141.128 158.778 141.463C159.492 141.798 161.035 142.482 162.206 142.983C163.377 143.483 164.901 144.167 165.591 144.502C166.282 144.837 166.956 145.111 167.09 145.111C167.224 145.111 167.899 145.386 168.589 145.721C169.28 146.056 170.804 146.74 171.975 147.24C173.146 147.741 174.669 148.425 175.36 148.76C176.05 149.095 176.715 149.369 176.837 149.369C176.96 149.369 177.634 149.639 178.336 149.967C179.039 150.296 180.346 150.878 181.242 151.26C182.137 151.642 183.568 152.274 184.42 152.666C185.272 153.057 186.059 153.377 186.169 153.377C186.279 153.377 186.934 153.651 187.625 153.986C188.316 154.321 189.839 155.005 191.01 155.506C195.687 157.507 196.696 157.95 197.902 158.532C198.593 158.865 199.248 159.138 199.358 159.138C199.468 159.138 200.255 159.458 201.107 159.849C201.96 160.24 203.39 160.873 204.285 161.255C205.181 161.637 206.488 162.219 207.191 162.547C207.893 162.876 208.548 163.145 208.646 163.145C208.745 163.145 209.41 163.42 210.124 163.755C210.839 164.09 212.382 164.77 213.553 165.265C214.723 165.76 216.001 166.331 216.39 166.534C217.489 167.105 218.525 167.016 218.688 166.339C218.763 166.029 218.794 149.263 218.756 129.081L218.687 92.3876L217.81 92.3281C217.167 92.2843 216.634 92.4797 215.807 93.062ZM56.103 94.0633C56.0015 94.2273 56.046 94.4045 56.2013 94.4559C56.3566 94.5079 56.8556 94.8172 57.3103 95.144C57.7642 95.4703 59.0723 96.3363 60.2169 97.0683C61.361 97.8003 62.9389 98.8128 63.7235 99.3187C64.5075 99.8241 66.0222 100.77 67.0886 101.42C68.155 102.069 69.155 102.754 69.3109 102.942C69.4662 103.13 69.7022 103.283 69.8356 103.283C69.9684 103.283 70.5463 103.606 71.1199 104.001C72.0679 104.652 73.2151 105.394 77.2971 107.991C78.0548 108.473 79.4248 109.359 80.3415 109.958C82.7611 111.539 83.2595 111.443 84.2802 109.2C85.0316 107.547 86.8105 105.603 88.376 104.723C89.9796 103.822 89.1405 103.018 85.5125 101.98C82.2107 101.035 79.2295 100.148 77.798 99.6838C77.1781 99.4828 75.4875 98.9675 74.041 98.5385C72.5945 98.109 70.5094 97.4847 69.4073 97.1503C68.3052 96.8159 66.2201 96.1904 64.7736 95.7608C63.3272 95.3306 61.2965 94.7057 60.2608 94.372C58.2339 93.7189 56.3998 93.583 56.103 94.0633ZM193.39 94.4014C192.425 94.7214 190.453 95.3394 189.006 95.7733C187.56 96.2079 185.869 96.7314 185.249 96.9362C184.63 97.1409 183.333 97.5229 182.369 97.7852C181.405 98.047 179.883 98.4934 178.988 98.7777C178.092 99.0614 176.458 99.5667 175.356 99.8998C174.254 100.233 172.225 100.847 170.847 101.264C169.47 101.681 167.81 102.15 167.159 102.305C165.053 102.808 164.186 104.001 165.451 104.655C166.648 105.274 168.583 107.374 169.552 109.109C171.022 111.736 170.704 111.761 175.527 108.644C176.535 107.992 177.867 107.144 178.487 106.758C179.107 106.373 179.952 105.823 180.365 105.537C180.779 105.251 181.68 104.666 182.369 104.236C183.058 103.807 184.185 103.093 184.874 102.651C186.057 101.891 188.14 100.561 191.261 98.5742C192.018 98.0914 193.089 97.4145 193.64 97.0701C194.191 96.7251 194.924 96.2355 195.268 95.9819C195.613 95.7283 196.317 95.2924 196.834 95.0138C199.159 93.7583 196.662 93.3144 193.39 94.4014ZM105.34 108.43C105.063 108.763 105.06 109.083 105.321 110.254C106.348 114.851 105.307 118.264 102.062 120.941C100.357 122.348 100.678 123.11 103.744 124.926C104.994 125.666 108.358 127.815 110.304 129.116C110.893 129.51 111.436 129.833 111.51 129.833C111.584 129.833 112.003 130.101 112.442 130.43C114.39 131.89 115.314 132.172 116.719 131.736C123.117 129.751 133.609 129.802 137.41 131.837C138.298 132.312 138.913 132.054 142.67 129.629C143.841 128.873 145.249 127.972 145.8 127.626C146.352 127.28 147.271 126.677 147.845 126.286C148.419 125.895 148.993 125.575 149.121 125.575C149.249 125.575 149.544 125.365 149.777 125.108C150.008 124.852 150.618 124.452 151.13 124.22C151.643 123.987 152.316 123.438 152.626 122.999L153.189 122.201L151.7 120.874C148.269 117.818 147.665 115.615 148.57 109.482C148.82 107.793 148.538 107.835 138.631 110.949C132.287 112.943 121.44 112.924 115.02 110.909C112.192 110.021 109.231 109.121 107.604 108.656C106.846 108.44 106.102 108.209 105.951 108.144C105.799 108.079 105.524 108.207 105.34 108.43ZM122.437 137.979C121.297 138.18 119.832 138.627 119.183 138.972C118.534 139.318 117.9 139.601 117.775 139.601C117.65 139.601 116.973 139.875 116.27 140.209C113.623 141.469 111.637 142.356 111.464 142.356C111.366 142.356 110.711 142.63 110.008 142.964C107.464 144.175 105.378 145.111 105.224 145.111C105.084 145.111 103.616 145.761 100.716 147.109C100.165 147.364 98.7561 147.981 97.5851 148.48C96.4142 148.977 95.0053 149.601 94.4542 149.865C93.9032 150.128 92.3816 150.806 91.0729 151.37C89.7642 151.934 88.2426 152.612 87.6916 152.875C87.1405 153.14 85.7317 153.76 84.5607 154.254C83.3898 154.748 81.9809 155.368 81.4298 155.631C80.8788 155.895 79.4699 156.515 78.299 157.009C77.128 157.503 75.7191 158.123 75.1681 158.386C74.6171 158.65 73.2082 159.27 72.0372 159.764C70.8663 160.258 69.4574 160.878 68.9064 161.142C68.3553 161.405 66.9464 162.025 65.7755 162.519C64.6045 163.013 63.1957 163.63 62.6446 163.89C60.0266 165.125 58.2764 165.9 58.1092 165.9C58.0078 165.9 57.2401 166.225 56.4029 166.623C53.5332 167.985 51.4975 168.906 51.3572 168.906C51.2796 168.906 50.463 169.255 49.5419 169.681C46.7047 170.994 45.4461 171.563 43.1706 172.559C40.86 173.57 40.5764 173.902 41.6171 174.376C42.5745 174.813 211.425 174.786 212.28 174.35C213.217 173.872 213.167 173.491 212.125 173.157C211.601 172.989 210.779 172.649 210.296 172.399C209.814 172.15 208.462 171.533 207.291 171.029C206.12 170.525 204.598 169.85 203.909 169.527C203.221 169.204 201.699 168.533 200.528 168.036C199.357 167.539 197.948 166.915 197.397 166.652C196.846 166.388 195.437 165.768 194.266 165.274C193.095 164.78 191.687 164.16 191.135 163.897C190.584 163.633 189.176 163.013 188.005 162.519C186.834 162.025 185.425 161.408 184.874 161.148C182.195 159.885 180.504 159.138 180.322 159.138C180.212 159.138 179.557 158.867 178.866 158.535C176.351 157.329 174.257 156.383 174.104 156.383C174.017 156.383 173.362 156.111 172.648 155.78C171.933 155.448 170.476 154.771 169.41 154.277C168.345 153.782 167.407 153.377 167.328 153.377C167.186 153.377 165.026 152.398 162.578 151.224C161.888 150.893 161.233 150.622 161.122 150.622C160.941 150.622 159.249 149.875 156.571 148.611C156.02 148.351 154.611 147.735 153.44 147.24C152.269 146.746 150.86 146.126 150.309 145.863C149.758 145.599 148.349 144.979 147.178 144.485C146.007 143.991 144.598 143.371 144.047 143.108C143.496 142.844 142.087 142.224 140.916 141.73C139.745 141.236 138.337 140.617 137.785 140.356C132.28 137.739 127.765 137.039 122.437 137.979Z" fill="#F6F6F6"/>
</svg>
