<svg width="256" height="256" viewBox="0 0 256 256" fill="none" xmlns="http://www.w3.org/2000/svg">
<rect width="256" height="256" fill="#031E38"/>
<path d="M34.0696 199.791C31.9487 199.791 30.4139 199.309 29.4442 198.347C28.4814 197.377 28 195.849 28 193.756C28 193.547 28.0698 193.372 28.2093 193.233C28.3489 193.093 28.5233 193.024 28.7326 193.024C28.9419 193.024 29.1163 193.093 29.2558 193.233C29.3953 193.372 29.4651 193.547 29.4651 193.756C29.4651 195.451 29.807 196.637 30.4907 197.314C31.1813 197.991 32.3673 198.326 34.0696 198.326H39.0926C40.7879 198.326 41.9809 197.991 42.6646 197.314C43.3553 196.637 43.6971 195.451 43.6971 193.756C43.6971 192.061 43.3553 190.875 42.6646 190.198C41.9809 189.521 40.7879 189.186 39.0926 189.186H34.1743C32.172 189.186 30.7139 188.733 29.793 187.826C28.8791 186.919 28.4187 185.468 28.4187 183.466C28.4187 181.464 28.8791 180.012 29.793 179.105C30.7139 178.199 32.158 177.745 34.1393 177.745H39.267C41.2414 177.745 42.6926 178.199 43.6065 179.105C44.5274 180.012 44.9878 181.457 44.9878 183.431C44.9878 183.64 44.918 183.815 44.7785 183.954C44.639 184.094 44.4645 184.163 44.2553 184.163C44.046 184.163 43.8715 184.094 43.732 183.954C43.5925 183.815 43.5227 183.64 43.5227 183.431C43.5227 181.875 43.2018 180.78 42.56 180.152C41.9252 179.524 40.8228 179.21 39.267 179.21H34.1393C32.5766 179.21 31.4813 179.524 30.8395 180.152C30.2046 180.78 29.8837 181.889 29.8837 183.466C29.8837 185.049 30.2046 186.152 30.8395 186.78C31.4813 187.408 32.5906 187.721 34.1743 187.721H39.0926C41.2065 187.721 42.7483 188.203 43.7111 189.173C44.6808 190.135 45.1622 191.663 45.1622 193.756C45.1622 195.849 44.6808 197.377 43.7111 198.347C42.7483 199.309 41.2065 199.791 39.0926 199.791H34.0696Z" fill="#5BEBF3"/>
<path d="M57.5828 199.86C57.3735 199.86 57.1991 199.791 57.0595 199.651C56.92 199.511 56.8503 199.337 56.8503 199.128V179.175H49.211C49.0017 179.175 48.8273 179.105 48.6878 178.966C48.5482 178.826 48.4785 178.652 48.4785 178.443C48.4785 178.233 48.5482 178.059 48.6878 177.919C48.8273 177.78 49.0017 177.71 49.211 177.71H65.9546C66.1639 177.71 66.3383 177.78 66.4778 177.919C66.6173 178.059 66.6871 178.233 66.6871 178.443C66.6871 178.652 66.6173 178.826 66.4778 178.966C66.3383 179.105 66.1639 179.175 65.9546 179.175H58.3153V199.128C58.3153 199.337 58.2455 199.511 58.106 199.651C57.9665 199.791 57.7921 199.86 57.5828 199.86Z" fill="#5BEBF3"/>
<path d="M87.5079 198.849C87.6195 199.037 87.6823 199.191 87.6823 199.302C87.6823 199.54 87.5497 199.721 87.2985 199.861C87.1311 199.951 86.9847 200 86.8451 200C86.6079 200 86.4265 199.888 86.287 199.651L80.4616 190.512H73.5549V199.093C73.5549 199.582 73.3107 199.826 72.8223 199.826C72.334 199.826 72.0898 199.582 72.0898 199.093V178.478C72.0898 177.989 72.334 177.745 72.8223 177.745H80.9849C82.9104 177.745 84.3755 178.24 85.3591 179.231C86.3498 180.215 86.8451 181.673 86.8451 183.605V184.652C86.8451 188.119 85.2823 190.045 82.1708 190.442L87.5079 198.849ZM73.5549 189.047H80.9849C82.4918 189.047 83.608 188.691 84.3127 187.987C85.0243 187.275 85.38 186.166 85.38 184.652V183.605C85.38 182.098 85.0243 180.982 84.3127 180.278C83.608 179.566 82.4918 179.21 80.9849 179.21H73.5549V189.047Z" fill="#5BEBF3"/>
<path d="M111.02 198.779C111.09 198.919 111.125 199.051 111.125 199.163C111.125 199.421 110.957 199.616 110.636 199.756C110.497 199.805 110.378 199.826 110.288 199.826C110.03 199.826 109.834 199.679 109.695 199.372L107.218 193.547C107.148 193.575 107.03 193.582 106.869 193.582H95.8812C95.7626 193.582 95.6789 193.575 95.637 193.547L93.1255 199.372C92.986 199.679 92.7767 199.826 92.4976 199.826C92.4488 199.826 92.3302 199.805 92.1488 199.756C91.8418 199.616 91.6953 199.407 91.6953 199.128C91.6953 199.079 91.7162 198.968 91.7651 198.779L100.521 178.303C100.66 177.933 100.939 177.745 101.358 177.745H101.462C101.853 177.745 102.132 177.933 102.3 178.303L111.02 198.779ZM96.2649 192.117H106.59L101.462 180.047L96.2649 192.117Z" fill="#5BEBF3"/>
<path d="M120.405 199.86C120.196 199.86 120.021 199.791 119.882 199.651C119.742 199.511 119.673 199.337 119.673 199.128V179.175H112.033C111.824 179.175 111.65 179.105 111.51 178.966C111.371 178.826 111.301 178.652 111.301 178.443C111.301 178.233 111.371 178.059 111.51 177.919C111.65 177.78 111.824 177.71 112.033 177.71H128.777C128.986 177.71 129.161 177.78 129.3 177.919C129.44 178.059 129.509 178.233 129.509 178.443C129.509 178.652 129.44 178.826 129.3 178.966C129.161 179.105 128.986 179.175 128.777 179.175H121.138V199.128C121.138 199.337 121.068 199.511 120.928 199.651C120.789 199.791 120.614 199.86 120.405 199.86Z" fill="#5BEBF3"/>
<path d="M141.648 199.826C139.178 199.826 137.385 199.261 136.255 198.137C135.132 197.007 134.566 195.214 134.566 192.745V178.478C134.566 178.268 134.636 178.094 134.776 177.954C134.915 177.815 135.09 177.745 135.299 177.745C135.508 177.745 135.683 177.815 135.822 177.954C135.962 178.094 136.032 178.268 136.032 178.478V192.745C136.032 194.796 136.457 196.24 137.301 197.091C138.152 197.935 139.597 198.361 141.648 198.361H145.834C147.899 198.361 149.357 197.935 150.194 197.091C151.031 196.24 151.449 194.796 151.449 192.745V178.478C151.449 178.268 151.519 178.094 151.659 177.954C151.798 177.815 151.973 177.745 152.182 177.745C152.391 177.745 152.566 177.815 152.705 177.954C152.845 178.094 152.915 178.268 152.915 178.478V192.745C152.915 195.214 152.357 197.007 151.24 198.137C150.124 199.261 148.317 199.826 145.834 199.826H141.648Z" fill="#5BEBF3"/>
<path d="M180.366 177.745C180.827 177.745 181.064 177.989 181.064 178.478V199.093C181.064 199.581 180.82 199.826 180.331 199.826C179.843 199.826 179.599 199.581 179.599 199.093V180.71L171.715 192.849C171.527 193.177 171.234 193.338 170.843 193.338C170.446 193.338 170.153 193.177 169.971 192.849L162.053 180.675V199.093C162.053 199.581 161.809 199.826 161.32 199.826C160.832 199.826 160.588 199.581 160.588 199.093V178.478C160.588 177.989 160.832 177.745 161.32 177.745C161.711 177.745 162.004 177.913 162.193 178.233L170.843 191.559L179.494 178.233C179.676 177.913 179.969 177.745 180.366 177.745Z" fill="#5BEBF3"/>
<path d="M197.006 199.826C196.399 199.826 195.924 199.442 195.575 198.674L186.96 178.268C186.841 177.968 186.785 177.71 186.785 177.501C186.785 177.012 187.064 176.643 187.622 176.385C187.901 176.245 188.18 176.175 188.459 176.175C189.018 176.175 189.408 176.489 189.645 177.117L197.285 195.186L204.715 177.117C204.966 176.489 205.363 176.175 205.901 176.175C206.152 176.175 206.431 176.245 206.738 176.385C207.268 176.643 207.54 177.04 207.54 177.571C207.54 177.829 207.491 178.059 207.401 178.268L198.715 198.674C198.338 199.442 197.815 199.826 197.145 199.826H197.006Z" fill="#5BEBF3"/>
<path d="M213.507 199.826C213.019 199.826 212.642 199.707 212.391 199.463C212.133 199.219 212.007 198.849 212.007 198.36C212.007 196.456 212.391 194.858 213.159 193.568C213.926 192.277 214.77 191.293 215.705 190.617C216.633 189.947 217.91 189.138 219.542 188.21C221.237 187.254 222.43 186.556 223.114 186.103C223.805 185.649 224.349 185.147 224.753 184.603C225.165 184.052 225.368 183.396 225.368 182.629C225.368 181.701 225.263 180.982 225.053 180.487C224.844 179.984 224.488 179.629 223.986 179.419C223.491 179.21 222.772 179.105 221.844 179.105H218.112C216.996 179.105 216.179 179.259 215.67 179.559C215.154 179.866 214.833 180.396 214.693 181.163C214.596 181.652 214.435 182.015 214.205 182.245C213.968 182.482 213.619 182.594 213.159 182.594C212.67 182.594 212.294 182.461 212.042 182.196C211.784 181.924 211.68 181.547 211.728 181.059C211.98 179.405 212.635 178.185 213.682 177.382C214.728 176.58 216.2 176.175 218.112 176.175H221.844C224.028 176.175 225.653 176.705 226.707 177.766C227.767 178.819 228.298 180.445 228.298 182.629C228.298 183.933 227.977 185.056 227.335 185.998C226.7 186.94 225.926 187.714 225.019 188.314C224.112 188.921 222.758 189.738 220.972 190.756C219.619 191.523 218.614 192.137 217.951 192.591C217.289 193.044 216.682 193.623 216.124 194.335C215.566 195.04 215.203 195.898 215.042 196.895H226.553C227.014 196.895 227.377 197.021 227.635 197.279C227.886 197.537 228.018 197.893 228.018 198.36C228.018 198.828 227.886 199.191 227.635 199.442C227.377 199.7 227.014 199.826 226.553 199.826H213.507Z" fill="#5BEBF3"/>
<path fill-rule="evenodd" clip-rule="evenodd" d="M80.9291 62.9005L80.9164 62.9068L80.9101 62.9131C80.8912 62.9257 80.866 62.9384 80.8471 62.951L80.7902 62.9826L80.7776 62.9951H80.7713L80.7649 63.0014L80.7397 63.0204L80.7145 63.0456H80.7082L80.7019 63.052C80.664 63.0835 80.6197 63.1213 80.5882 63.1592L80.5504 63.1971L80.5378 63.2161L80.5315 63.2224L80.5252 63.2287L80.5125 63.2477L80.4872 63.2793L80.4809 63.2919H80.4746C80.462 63.3108 80.4493 63.336 80.4367 63.3549H80.4304L80.4241 63.3739L80.4051 63.4055L80.3989 63.4181L80.3926 63.4307L80.38 63.4434L80.3737 63.4622L80.361 63.4811L80.3547 63.5001L80.3484 63.5127V63.519L80.3358 63.5443L80.3168 63.5759L80.3105 63.6075L80.2979 63.6326V63.6389L80.2915 63.6516L80.2852 63.6768L80.2789 63.6958L80.2726 63.7084L80.2663 63.7337V63.7463V63.759L80.2536 63.7841L80.2473 63.8157V63.8346L80.2412 63.8789V63.8852L80.2348 63.8978V63.9168V63.9419L80.2285 63.9672V63.9798V63.9924C80.2285 64.0177 80.2285 64.0493 80.2285 64.0746V109.362C80.2285 109.867 80.5125 110.328 80.967 110.549L94.0831 116.911L80.967 123.28L80.9291 123.299L80.9164 123.305H80.9101C80.8912 123.318 80.866 123.337 80.8471 123.35L80.7902 123.381L80.7776 123.394H80.7713L80.7649 123.4L80.7397 123.419L80.7145 123.444H80.7082L80.7019 123.451C80.664 123.482 80.6197 123.52 80.5882 123.558L80.5504 123.596L80.5378 123.615L80.5315 123.621L80.5252 123.627L80.5125 123.646L80.4872 123.678L80.4809 123.69H80.4746C80.462 123.709 80.4493 123.728 80.4367 123.753H80.4304L80.4241 123.766L80.4051 123.804L80.3989 123.817L80.3926 123.823L80.38 123.842L80.3737 123.861L80.361 123.88L80.3547 123.899L80.3484 123.911V123.918L80.3358 123.943L80.3168 123.974L80.3105 124.006L80.2979 124.031V124.038L80.2915 124.05L80.2852 124.075L80.2789 124.094L80.2726 124.107L80.2663 124.132V124.145V124.151L80.2536 124.183L80.2473 124.214V124.227L80.2412 124.277V124.284L80.2348 124.296V124.309V124.341L80.2285 124.366V124.378V124.385C80.2285 124.416 80.2285 124.442 80.2285 124.473V139.565C80.2285 140.063 80.5125 140.524 80.967 140.745L127.618 163.392L127.637 163.399L127.65 163.405L127.675 163.418L127.7 163.43L127.719 163.437L127.763 163.455H127.776L127.808 163.468L127.827 163.474H127.839L127.858 163.481L127.877 163.487H127.89L127.909 163.493L127.94 163.5H127.946C127.972 163.506 127.991 163.512 128.016 163.512H128.022L128.041 163.518H128.073L128.092 163.525H128.104H128.117H128.136H128.174H128.186C128.243 163.525 128.294 163.525 128.344 163.518L128.395 163.512L128.426 163.506H128.432L128.458 163.5L128.508 163.487C128.54 163.481 128.565 163.474 128.59 163.468L128.647 163.449L128.66 163.443L128.666 163.437L128.685 163.43L128.71 163.424L128.729 163.411L128.748 163.405L128.754 163.399L128.773 163.392L175.425 140.745C175.879 140.524 176.163 140.063 176.163 139.565V124.461C176.163 124.012 175.93 123.589 175.551 123.35C175.507 123.324 175.469 123.299 175.425 123.28L162.308 116.911L175.425 110.549C175.879 110.328 176.163 109.867 176.163 109.369L176.239 64.043C176.239 64.0114 176.239 63.9861 176.232 63.9545V63.9482V63.9356V63.9104L176.226 63.8789V63.8662V63.8536V63.8473L176.214 63.803V63.7841L176.207 63.7526L176.201 63.7211L176.195 63.7147V63.7021L176.188 63.6768L176.182 63.6579V63.6452L176.169 63.62V63.6075L176.163 63.6012L176.157 63.5759L176.144 63.5443L176.132 63.5127L176.119 63.4811H176.113V63.4685L176.1 63.4497L176.087 63.4244L176.081 63.4118L176.075 63.3928L176.068 63.3802L176.062 63.3739L176.037 63.336L176.03 63.3233C176.018 63.2981 175.999 63.2792 175.986 63.2603V63.254L175.98 63.2477L175.955 63.2161L175.936 63.1971V63.1908L175.93 63.1845L175.911 63.1655L175.879 63.1278C175.841 63.0899 175.803 63.0519 175.759 63.0204V63.014H175.753L175.721 62.9888L175.696 62.97L175.69 62.9637H175.683L175.671 62.951L175.62 62.9131C175.595 62.9005 175.576 62.8878 175.551 62.8752L175.532 62.8689L175.494 62.8499L161.658 56.1278C161.299 55.9574 160.876 55.9574 160.51 56.1278L128.199 71.8193L96.0271 56.1341C95.661 55.9574 95.2382 55.9574 94.8721 56.1278L80.967 62.8815L80.9291 62.9005ZM126.88 87.5359L82.8542 66.1637V108.542L113.221 123.28C113.669 123.501 113.959 123.962 113.959 124.461V139.565C113.959 140.013 113.726 140.436 113.341 140.676C112.956 140.916 112.476 140.941 112.072 140.745L82.8542 126.562V138.738L126.88 160.11V117.315L96.5321 103.006L96.5131 102.994L96.488 102.981L96.4627 102.968L96.4501 102.962L96.4374 102.956C96.4185 102.943 96.3932 102.931 96.3743 102.912H96.3679L96.3553 102.905L96.3239 102.88L96.2986 102.861L96.2923 102.855H96.286C96.267 102.836 96.2417 102.817 96.2228 102.798L96.1787 102.76L96.1598 102.735H96.1534L96.1471 102.729C96.1092 102.691 96.0713 102.646 96.0334 102.596L96.0271 102.59L96.0083 102.565L95.9893 102.527L95.983 102.52L95.9767 102.514C95.9641 102.489 95.9514 102.47 95.9388 102.444V102.438L95.9325 102.426L95.9072 102.388L95.9009 102.369L95.8946 102.356L95.8882 102.344L95.8819 102.325L95.8631 102.28V102.274L95.8568 102.268C95.8505 102.243 95.8378 102.217 95.8315 102.186V102.173L95.8189 102.135L95.8063 102.097V102.091C95.7936 102.034 95.7873 101.971 95.781 101.914V101.908V101.902C95.781 101.877 95.781 101.845 95.781 101.813V86.7153C95.781 86.2608 96.0082 85.8379 96.3932 85.5981C96.7782 85.3582 97.258 85.333 97.6682 85.5287L126.88 99.7115V87.5359ZM129.512 160.11L173.537 138.738V126.562L144.319 140.745C143.916 140.941 143.436 140.916 143.051 140.676C142.666 140.436 142.432 140.013 142.432 139.565V124.461C142.432 123.962 142.723 123.501 143.171 123.28L173.537 108.542L173.6 66.1322L129.512 87.5359V99.7115L158.723 85.5287C159.134 85.333 159.613 85.3582 159.998 85.5981C160.383 85.8379 160.611 86.2608 160.611 86.7153V101.813C160.611 101.845 160.611 101.877 160.611 101.902V101.908V101.914C160.604 101.971 160.598 102.034 160.585 102.091V102.097L160.573 102.135L160.56 102.173V102.186C160.554 102.217 160.541 102.243 160.535 102.268V102.274L160.529 102.28L160.51 102.325L160.503 102.344L160.497 102.356L160.491 102.369L160.484 102.388L160.459 102.426L160.453 102.438V102.444C160.44 102.47 160.427 102.489 160.409 102.514V102.52L160.402 102.527L160.383 102.565L160.364 102.59L160.358 102.596H160.352C160.32 102.646 160.282 102.691 160.245 102.729L160.238 102.735H160.232L160.213 102.76L160.169 102.798C160.15 102.817 160.124 102.836 160.106 102.855H160.099L160.093 102.861L160.068 102.88L160.036 102.905L160.024 102.912H160.017C159.998 102.931 159.973 102.943 159.954 102.956L159.941 102.962L159.929 102.968L159.904 102.981L159.878 102.994L159.859 103.006L129.512 117.315V160.11ZM159.298 118.376L145.064 125.287V137.463L171.839 124.461L159.298 118.376ZM97.0939 118.376L84.5521 124.461L111.327 137.463V125.287L97.0939 118.376ZM112.646 95.7224L100.136 101.795L128.199 115.024L156.255 101.795L143.745 95.7224L128.773 102.994L128.754 103.006H128.742L128.716 103.019L128.691 103.032L128.672 103.038L128.628 103.057L128.616 103.063L128.584 103.069L128.565 103.076H128.552L128.533 103.082L128.515 103.088H128.508L128.483 103.095L128.451 103.101L128.445 103.107C128.42 103.107 128.401 103.114 128.376 103.114H128.369L128.35 103.12L128.319 103.126H128.3H128.287H128.275H128.256H128.218H128.205C128.149 103.126 128.098 103.126 128.048 103.12L127.997 103.114L127.965 103.107H127.959L127.934 103.101L127.883 103.088C127.852 103.082 127.827 103.076 127.801 103.069L127.744 103.051L127.732 103.044H127.726L127.707 103.038L127.681 103.025L127.662 103.013L127.643 103.006H127.637L127.618 102.994L112.646 95.7224ZM146.756 94.2643L157.985 99.7115V88.8172L146.756 94.2643ZM98.4067 99.7115L109.636 94.2643L98.4067 88.8172V99.7115ZM171.909 64.0303L161.084 58.7725L128.773 74.4639C128.407 74.6407 127.984 74.6407 127.618 74.4639L95.4464 58.7725L84.5521 64.0682L128.199 85.2509L171.909 64.0303Z" fill="#5BEBF3"/>
</svg>
