<svg width="256" height="256" viewBox="0 0 256 256" fill="none" xmlns="http://www.w3.org/2000/svg">
<g clip-path="url(#clip0_923_3683)">
<path d="M256 0H0V256H256V0Z" fill="white"/>
<path d="M232.796 137.391C224.275 145.871 212.502 143.839 204.021 135.32C204.021 135.32 204.021 135.32 204.019 135.319L135.377 66.3677L167.543 34.0621C176.859 24.7057 192.664 27.6025 198.054 39.6549L233.84 132.869C234.428 134.401 234.057 136.135 232.894 137.294L210.291 159.79L232.795 137.391H232.796Z" fill="#472459"/>
<path d="M204.019 135.321L204.018 135.32L114.228 45.1261C105.745 36.6058 91.9611 36.5738 83.4385 45.0545L28.2972 99.9361C19.7746 108.418 19.7439 122.2 28.2256 130.722L118.014 220.914C126.497 229.435 140.281 229.467 148.803 220.986L166.534 203.34L171.728 198.17L155.155 181.536C142.897 189.482 126.34 188.068 115.624 177.286L104.347 165.938C102.743 164.325 102.751 161.744 104.365 160.141L109.915 154.626L95.9756 140.601C93.7907 138.402 93.448 134.866 95.4182 132.486C97.6722 129.753 101.738 129.625 104.188 132.09L118.303 146.292L129.369 135.298L115.43 121.273C113.245 119.075 112.902 115.539 114.891 113.142C117.161 110.427 121.21 110.281 123.66 112.745L137.775 126.948L143.343 121.415C144.956 119.812 147.538 119.82 149.141 121.433L160.419 132.781C171.135 143.564 172.443 160.129 164.415 172.337L180.981 188.962L190.422 179.566L203.945 166.106L232.793 137.394C224.272 145.874 212.499 143.842 204.016 135.323L204.019 135.321Z" fill="url(#paint0_linear_923_3683)"/>
</g>
<defs>
<linearGradient id="paint0_linear_923_3683" x1="127.339" y1="38.7149" x2="127.339" y2="227.326" gradientUnits="userSpaceOnUse">
<stop stop-color="#FFCA4A"/>
<stop offset="1" stop-color="#F7931A"/>
</linearGradient>
<clipPath id="clip0_923_3683">
<rect width="256" height="256" fill="white"/>
</clipPath>
</defs>
</svg>
