<svg width="256" height="256" viewBox="0 0 256 256" fill="none" xmlns="http://www.w3.org/2000/svg">
<g clip-path="url(#clip0_1294_4083)">
<rect width="256" height="256" rx="1" fill="#8E2222"/>
<path d="M36.9062 128.001C36.9062 77.6909 77.6909 36.9062 128.001 36.9062C178.312 36.9062 219.096 77.6909 219.096 128.001C219.096 178.312 178.312 219.096 128.001 219.096C77.6909 219.096 36.9062 178.312 36.9062 128.001Z" fill="#EEEEEE" stroke="#443C3C" stroke-width="0.375"/>
<path d="M67.934 158.199C67.934 158.199 67.0274 94.6102 66.9141 94.4926C67.0274 85.0069 70.0398 85.9494 72.3536 85.668C107.824 87.6024 120.743 98.3948 121.536 98.7963C123.916 99.6925 125.276 104.473 125.163 104.355C125.276 104.473 125.956 179.482 125.843 179.365C126.409 183.375 123.463 183.116 123.349 182.998C101.025 165.467 70.2005 161.054 70.0871 160.937C67.934 160.795 67.934 158.199 67.934 158.199Z" fill="#EEEEEE" stroke="#8E2222" stroke-width="2.5"/>
<path d="M187.623 158.377C187.623 158.377 188.529 94.6321 188.643 94.5142C188.529 85.0053 185.517 85.9501 183.203 85.668C147.729 87.6071 134.809 98.4259 134.016 98.8284C131.636 99.7268 130.276 104.519 130.389 104.401C130.276 104.519 129.596 179.712 129.709 179.594C129.142 183.614 132.089 183.354 132.202 183.236C154.529 165.662 185.356 161.239 185.469 161.121C187.623 160.979 187.623 158.377 187.623 158.377Z" fill="#EEEEEE" stroke="#8E2222" stroke-width="2.5"/>
<path d="M67.4739 168.471C67.4739 168.471 66.5527 104.882 66.4375 104.764C66.5527 95.2784 69.6137 96.2209 71.9649 95.9395C108.008 97.8739 121.136 108.666 121.942 109.068C124.36 109.964 125.742 114.744 125.627 114.627C125.742 114.744 126.433 189.754 126.317 189.636C126.893 193.647 123.899 193.387 123.784 193.27C101.099 175.738 69.777 171.326 69.6618 171.208C67.4739 171.066 67.4739 168.471 67.4739 168.471Z" fill="#8E2222" stroke="#8E2222" stroke-width="1.25"/>
<path d="M188.082 168.558C188.082 168.558 189.003 104.814 189.119 104.696C189.003 95.187 185.942 96.1317 183.591 95.8496C147.545 97.7888 134.416 108.608 133.61 109.01C131.191 109.908 129.809 114.701 129.925 114.583C129.809 114.701 129.118 189.893 129.234 189.775C128.658 193.796 131.652 193.536 131.767 193.418C154.454 175.843 185.779 171.42 185.894 171.302C188.082 171.16 188.082 168.558 188.082 168.558Z" fill="#8E2222" stroke="#8E2222" stroke-width="1.25"/>
</g>
<defs>
<clipPath id="clip0_1294_4083">
<rect width="256" height="256" rx="1" fill="white"/>
</clipPath>
</defs>
</svg>
