<svg width="256" height="256" viewBox="0 0 256 256" fill="none" xmlns="http://www.w3.org/2000/svg">
<g clip-path="url(#clip0_1960_9640)">
<path d="M256 0H0V256H256V0Z" fill="#FFF2EA"/>
<g clip-path="url(#clip1_1960_9640)">
<path d="M128 220.164C178.899 220.164 220.16 178.902 220.16 128.004C220.16 77.1052 178.899 35.8438 128 35.8438C77.1015 35.8438 35.84 77.1052 35.84 128.004C35.84 178.902 77.1015 220.164 128 220.164Z" fill="#FFE6D5"/>
<path d="M64.821 144.844L81.3863 125.387L205.785 124.974L189.639 144.844H64.821Z" fill="#83331B"/>
<path d="M64.8215 144.844V197.132C69.3794 197.335 73.6081 198.298 76.6859 199.834C79.7638 201.369 81.471 203.368 81.476 205.442H178.069C177.305 204.346 176.911 203.164 176.911 201.968C176.911 199.789 178.219 197.69 180.576 196.084C182.932 194.479 186.166 193.483 189.64 193.295V144.844H64.8215Z" fill="#F8A37B"/>
<path d="M136.274 153.664C138.283 152.579 141.384 149.318 139.471 146.058C139.116 145.455 138.77 145.067 138.438 144.846H146.779C145.693 147.235 141.772 150.125 141.772 150.125C141.772 150.125 141.451 150.746 139.712 152.113C138.728 152.885 137.315 153.379 136.274 153.664M111.656 153.53C110.631 153.054 109.142 152.238 108.094 151.126C106.345 149.269 105.993 146.834 105.993 146.834L104.756 144.846H109.725C109.394 145.067 109.049 145.455 108.694 146.058C106.854 149.193 109.652 152.329 111.656 153.53M134.478 152.546C133.387 152.439 131.365 152.165 129.342 151.491C126.361 150.498 124.623 148.262 124.623 148.262C124.623 148.262 121.269 150.311 116.798 151.126C115.305 151.397 114.332 151.488 113.698 151.488C113.687 151.488 113.678 151.488 113.668 151.488C113.579 149.989 113.272 148.386 113.272 148.386C113.272 148.386 112.425 145.67 111.154 144.846H116.446H137.011C135.74 145.67 134.892 148.386 134.892 148.386C134.892 148.386 134.417 150.87 134.478 152.546" fill="#DA845D"/>
<path d="M113.272 148.384C113.272 148.384 114.217 153.321 113.272 153.973C112.327 154.625 106.179 150.34 108.694 146.055C111.209 141.771 113.272 148.384 113.272 148.384" fill="#DEE6E3"/>
<path d="M134.892 148.384C134.892 148.384 133.948 153.321 134.892 153.973C135.837 154.625 141.986 150.34 139.471 146.055C136.956 141.771 134.892 148.384 134.892 148.384" fill="#DEE6E3"/>
<path d="M98.4369 107.008C99.5807 112.471 96.0796 117.827 90.6166 118.971C85.1536 120.115 79.7981 116.614 78.6542 111.151C77.5104 105.688 81.0115 100.331 86.4745 99.1873C91.9376 98.0435 97.2931 101.545 98.4369 107.008Z" fill="#D4541E"/>
<path d="M94.4812 100.908C92.253 99.2893 89.3827 98.5725 86.4745 99.1818C81.0115 100.326 77.5104 105.682 78.6542 111.145C78.9031 112.334 79.3608 113.423 79.967 114.398C84.4204 112.884 91.1624 109.271 94.4812 100.908" fill="#852E1B"/>
<path d="M94.0521 107.923C94.688 110.965 92.7393 113.946 89.6981 114.583C86.6578 115.219 83.6759 113.271 83.039 110.229C82.4021 107.188 84.3518 104.207 87.392 103.57C90.4333 102.933 93.4152 104.882 94.0521 107.923" fill="white"/>
<path d="M163.259 105.125C160.912 105.125 158.726 103.634 157.95 101.283C156.986 98.3604 158.566 95.2086 161.481 94.2307C163.097 93.6726 170.962 90.5442 168.609 83.2073C166.909 77.903 163.693 77.1309 154.191 76.1223C152.448 75.9379 150.647 75.7454 148.775 75.4782C142.05 74.5176 137.105 71.7364 134.079 67.2124C129.664 60.6127 131.394 53.1314 131.606 52.3009C132.368 49.3088 135.413 47.5055 138.406 48.2633C141.398 49.0262 143.205 52.0705 142.442 55.0627C142.444 55.0627 141.685 58.535 143.411 61.0479C144.607 62.7898 146.944 63.9192 150.357 64.4077C152.028 64.6463 153.728 64.8265 155.371 65.0016C164.201 65.9386 175.191 67.1069 179.258 79.7912C183.588 93.2947 173.11 102.171 165.012 104.842C164.431 105.034 163.84 105.125 163.259 105.125" fill="#E2591E"/>
<path d="M143.411 61.0494L143.245 60.7812C139.559 63.1364 134.904 63.6391 132.297 63.718C132.734 64.8833 133.308 66.0619 134.079 67.2139C135.068 68.6936 136.284 69.9664 137.68 71.0703C142.578 70.2583 146.523 66.5852 148.695 64.0917C146.181 63.505 144.4 62.4902 143.411 61.0494" fill="#852E1B"/>
<path d="M155.284 76.2402C159.291 76.6836 162.099 77.1229 164.113 77.9688C165.495 75.675 167.423 71.8688 168.138 67.5782C165.171 66.3832 161.977 65.7975 158.891 65.4012C159.16 68.1824 158.971 72.9767 155.284 76.2402" fill="#852E1B"/>
<path d="M179.773 90.078C180.401 87.5303 180.462 84.6959 179.748 81.6013C178.647 82.4912 177.232 83.2981 175.445 83.762C172.42 84.5484 170.257 84.5003 168.883 84.2832C169.478 87.3009 168.292 89.5343 166.681 91.1174C171.65 93.2872 176.505 91.786 179.773 90.078Z" fill="#852E1B"/>
<path d="M168.916 87.1406C168.913 87.1396 168.91 87.1376 168.907 87.1365C168.919 87.071 168.931 87.0055 168.941 86.9389L168.942 86.9368L168.971 86.6931C169.003 86.4361 169.024 86.175 169.028 85.9047L169.029 85.7408C169.025 85.3947 169.002 85.0394 168.946 84.6687L168.947 84.6697C168.88 84.2089 168.776 83.7317 168.618 83.232C168.731 83.5925 168.822 83.9417 168.889 84.2816C168.887 84.2816 168.885 84.2816 168.883 84.2806C169.089 85.3261 169.082 86.2774 168.916 87.1406M168.617 83.2289C168.614 83.2218 168.612 83.2136 168.609 83.2064C167.732 80.4713 166.453 78.9414 164.117 77.9625C166.453 78.9414 167.732 80.4713 168.609 83.2064C168.612 83.2136 168.614 83.2218 168.617 83.2289M155.286 76.2402C154.931 76.2002 154.565 76.1613 154.191 76.1214C152.448 75.9371 150.647 75.7445 148.774 75.4773C148.724 75.4701 148.674 75.4629 148.624 75.4547C148.674 75.4629 148.724 75.4701 148.775 75.4773C150.647 75.7445 152.448 75.9371 154.191 76.1214C154.565 76.1613 154.931 76.2002 155.286 76.2402ZM148.589 75.4496C148.582 75.4486 148.574 75.4476 148.566 75.4465C148.574 75.4476 148.581 75.4486 148.589 75.4496ZM148.513 75.4383C148.512 75.4383 148.51 75.4383 148.509 75.4383C148.509 75.4383 148.512 75.4383 148.513 75.4383Z" fill="#83BAD2"/>
<path d="M178.92 92.625C178.298 92.1611 177.662 91.7136 177.01 91.2825C177.996 90.9405 178.906 90.5319 179.72 90.109C179.733 90.1172 179.746 90.1264 179.758 90.1357C179.542 90.9999 179.258 91.8283 178.92 92.625ZM170.741 84.4248C170.013 84.4248 169.397 84.3675 168.889 84.2876C168.822 83.9476 168.731 83.5984 168.618 83.238C168.617 83.237 168.617 83.2359 168.617 83.2349C168.614 83.2277 168.612 83.2195 168.609 83.2124C167.732 80.4773 166.453 78.9474 164.117 77.9685C164.623 77.1288 165.202 76.0854 165.768 74.8903C168.583 76.0249 170.504 77.779 171.928 80.6278C172.508 81.786 172.704 83.0352 172.64 84.306C171.939 84.39 171.306 84.4248 170.741 84.4248M155.286 76.2461C154.931 76.2062 154.565 76.1673 154.191 76.1273C152.448 75.943 150.647 75.7505 148.775 75.4832C148.725 75.4761 148.674 75.4689 148.624 75.4607C148.613 75.4597 148.601 75.4576 148.589 75.4556C148.581 75.4546 148.574 75.4535 148.566 75.4525C148.547 75.4494 148.53 75.4474 148.513 75.4443C148.512 75.4443 148.509 75.4443 148.509 75.4443C143.514 74.6896 139.53 72.9038 136.59 70.1421C136.939 70.4656 137.303 70.7759 137.68 71.0739C138.261 70.9776 138.83 70.8404 139.384 70.6704C142.202 71.5849 145.754 72.3549 150.071 72.6027C152.933 72.7666 155.443 72.9365 157.652 73.1721C157.099 74.2657 156.334 75.3174 155.286 76.2461" fill="#BA4A1F"/>
<path d="M137.68 71.0703C137.303 70.7723 136.939 70.4621 136.59 70.1385C136.277 69.8446 135.976 69.5394 135.686 69.224C136.735 69.7094 137.966 70.206 139.384 70.6668C138.83 70.8368 138.261 70.9741 137.68 71.0703" fill="#6F2717"/>
<path d="M164.117 77.9688C162.1 77.1239 159.297 76.6898 155.286 76.2464C156.334 75.3176 157.099 74.266 157.652 73.1723C160.985 73.5266 163.634 74.0305 165.768 74.8906C165.202 76.0856 164.623 77.1291 164.117 77.9688" fill="#6F2717"/>
<path d="M177.01 91.2812C174.521 89.6306 171.826 88.2195 168.916 87.1453C169.082 86.2821 169.089 85.3308 168.883 84.2853C168.885 84.2863 168.887 84.2863 168.889 84.2863C169.397 84.3662 170.013 84.4235 170.741 84.4235C171.306 84.4235 171.939 84.3887 172.64 84.3047C172.612 84.8669 172.534 85.4322 172.416 85.9964C175.028 87.1258 177.468 88.5093 179.72 90.1077C178.906 90.5307 177.996 90.9392 177.01 91.2812" fill="#6F2717"/>
<path d="M177.52 80.7109C177.52 80.7109 172.986 74.3672 167.235 71.2225C167.474 70.4904 167.688 69.7316 167.867 68.9523C168.816 69.3988 169.681 69.9098 170.404 70.4955C175.487 74.611 177.52 80.7109 177.52 80.7109M158.958 67.8372C155.632 66.636 153.291 65.9274 153.291 65.9274C153.291 65.9274 155.776 66.0206 158.963 66.5091C158.978 66.9279 158.979 67.3733 158.958 67.8372Z" fill="#E66733"/>
<path d="M167.235 71.2188C166.746 70.9515 166.248 70.7068 165.744 70.4917C163.324 69.4585 160.962 68.5564 158.958 67.8334C158.979 67.3695 158.978 66.9241 158.963 66.5053C161.793 66.9384 165.175 67.6829 167.867 68.9486C167.688 69.7278 167.474 70.4866 167.235 71.2188Z" fill="#94401D"/>
<path d="M116.446 98.4801C116.446 98.4801 131.267 81.0066 161.323 85.2295C191.378 89.4525 202.556 128.698 202.556 128.698L189.639 144.844H116.446V98.4801" fill="#EF5D22"/>
<path d="M121.179 94.2781C124.372 93.4036 129.447 92.7052 137.271 93.2428C156.248 94.5463 180.884 124.977 180.884 124.977C180.884 124.977 169.96 90.2701 135.194 87.1479C128.963 89.1458 124.297 91.9536 121.179 94.2781" fill="#852E1B"/>
<path d="M180.666 139.938H176.382C175.204 136.645 169.293 121.12 159.833 112.988C152.037 106.287 140.731 98.4819 126.645 97.7517C127.366 97.7149 128.08 97.6965 128.787 97.6965C138.944 97.6965 147.732 101.441 154.889 106.036C154.91 105.904 154.924 105.772 154.951 105.639C155.251 104.202 155.846 102.905 156.656 101.79C162.323 105.869 167.627 110.765 171.82 115.006C170.797 115.983 169.576 116.739 168.239 117.217C175.287 125.629 179.67 137.155 180.666 139.938M174.176 111.567C171.271 107.129 167.306 102.241 162.073 97.9985C162.226 97.9555 162.381 97.9166 162.535 97.8797L162.706 97.8378C162.971 97.7804 163.24 97.7364 163.511 97.7006L163.744 97.6668C163.998 97.6391 164.257 97.6258 164.516 97.6176C164.609 97.6146 164.701 97.6053 164.795 97.6053C164.803 97.6053 164.811 97.6053 164.819 97.6053C165.07 97.6053 165.323 97.6217 165.576 97.6402C165.669 97.6463 165.761 97.6463 165.854 97.6555C166.206 97.6913 166.56 97.7436 166.914 97.8183C172.377 98.9621 175.878 104.318 174.734 109.781C174.614 110.354 174.438 110.899 174.23 111.425L174.195 111.518C174.189 111.535 174.183 111.55 174.176 111.567Z" fill="#C74D1F"/>
<path d="M171.82 115.008C167.627 110.766 162.323 105.871 156.656 101.792C157.287 100.925 158.05 100.169 158.907 99.5464C159.183 99.3457 159.468 99.1594 159.762 98.9884L159.78 98.9781C160.064 98.8133 160.357 98.6617 160.657 98.5245L160.711 98.4989C160.996 98.3709 161.287 98.2572 161.584 98.1558L161.691 98.1169C161.818 98.076 161.945 98.0371 162.073 98.0002C167.306 102.243 171.271 107.13 174.176 111.568C173.964 112.083 173.709 112.572 173.421 113.036V113.037C172.969 113.765 172.429 114.426 171.82 115.008" fill="#6F2717"/>
<path d="M150.666 105.641C149.522 111.104 153.024 116.46 158.486 117.604C163.949 118.748 169.306 115.247 170.45 109.783C171.594 104.32 168.092 98.9649 162.629 97.8211C157.166 96.6773 151.811 100.178 150.666 105.641Z" fill="#D4541E"/>
<path d="M154.622 99.5489C156.85 97.9299 159.721 97.2131 162.629 97.8224C168.092 98.9662 171.593 104.322 170.45 109.785C170.201 110.975 169.742 112.063 169.137 113.039C164.683 111.524 157.94 107.912 154.622 99.5489" fill="#852E1B"/>
<path d="M155.052 106.556C154.415 109.597 156.365 112.578 159.405 113.215C162.446 113.852 165.427 111.903 166.064 108.862C166.701 105.821 164.752 102.839 161.711 102.202C158.67 101.566 155.689 103.515 155.052 106.556Z" fill="white"/>
<path d="M77.6139 144.844L72.6454 139.785C72.6454 139.785 88.4816 107.581 110.277 100.132C132.074 92.6812 149.214 103.859 159.833 112.987C170.452 122.116 176.599 140.559 176.599 140.559L172.687 144.844H77.6139Z" fill="#F46A2F"/>
<path d="M102.686 113.038C102.686 113.038 120.54 98.971 124.04 98.971C127.541 98.971 144.6 111.314 144.6 111.314L141.772 114.711C141.772 114.711 126.874 102.621 124.04 102.621C121.206 102.621 107.186 114.711 107.186 114.711L102.686 113.038" fill="#852E1B"/>
<path d="M111.533 118.437C111.533 118.437 121.789 109.743 124.727 109.743C127.665 109.743 137.426 117.319 137.426 117.319L134.766 122.508C134.766 122.508 127.005 114.091 124.727 114.091C122.449 114.091 113.691 121.915 113.691 121.915L111.533 118.437Z" fill="#852E1B"/>
<path d="M72.6454 139.785L86.4592 135.157C86.4592 135.157 82.0539 120.811 94.9082 113.919C107.762 107.026 113.445 114.105 115.214 118.203C116.985 122.302 116.985 133.108 116.985 133.108H132.298C132.298 133.108 132.137 117.024 138.719 112.429C145.301 107.833 155.2 107.213 159.069 115.782C162.938 124.351 159.069 131.803 159.069 131.803L176.599 140.559L172.687 144.844H77.6139L72.6454 139.785" fill="white"/>
<path d="M113.272 124.977C113.272 128.338 110.548 131.062 107.186 131.062C103.825 131.062 101.1 128.338 101.1 124.977C101.1 121.616 103.825 118.891 107.186 118.891C110.548 118.891 113.272 121.616 113.272 124.977" fill="#FDDD04"/>
<path d="M111.533 124.973C111.533 127.374 109.586 129.32 107.186 129.32C104.786 129.32 102.84 127.374 102.84 124.973C102.84 122.573 104.786 120.628 107.186 120.628C109.586 120.628 111.533 122.573 111.533 124.973" fill="#391913"/>
<path d="M106.273 122.269C106.273 123.26 105.47 124.062 104.48 124.062C103.489 124.062 102.686 123.26 102.686 122.269C102.686 121.279 103.489 120.476 104.48 120.476C105.47 120.476 106.273 121.279 106.273 122.269Z" fill="white"/>
<path d="M147.857 124.977C147.857 128.338 145.132 131.062 141.772 131.062C138.411 131.062 135.686 128.338 135.686 124.977C135.686 121.616 138.411 118.891 141.772 118.891C145.132 118.891 147.857 121.616 147.857 124.977" fill="#FDDD04"/>
<path d="M146.118 124.973C146.118 127.374 144.172 129.32 141.772 129.32C139.371 129.32 137.426 127.374 137.426 124.973C137.426 122.573 139.371 120.628 141.772 120.628C144.172 120.628 146.118 122.573 146.118 124.973" fill="#391913"/>
<path d="M140.858 122.269C140.858 123.26 140.055 124.062 139.064 124.062C138.074 124.062 137.271 123.26 137.271 122.269C137.271 121.279 138.074 120.476 139.064 120.476C140.055 120.476 140.858 121.279 140.858 122.269Z" fill="white"/>
<path d="M189.639 144.844H176.972L180.884 140.559C180.884 140.559 180.811 140.34 180.666 139.937H189.639L201.452 125.399C202.193 127.436 202.551 128.682 202.556 128.698L189.639 144.844" fill="#C74D1F"/>
<path d="M176.972 144.844H172.687L176.599 140.559C176.599 140.559 176.526 140.34 176.382 139.937H180.666C180.811 140.34 180.884 140.559 180.884 140.559L176.972 144.844" fill="#A33F1E"/>
<path d="M176.599 140.562L175.353 139.94H176.382C176.526 140.343 176.599 140.562 176.599 140.562" fill="#DE581D"/>
<path d="M172.687 144.844H77.6139L72.7949 139.937H175.353L176.599 140.559L172.687 144.844" fill="#D5D0CD"/>
<path d="M115.127 131.558C115.127 131.558 109.311 133.055 107.186 138.578C105.061 144.101 107.949 148.106 112.792 149.224C117.637 150.342 124.623 146.709 124.623 146.709C124.623 146.709 130.359 152.298 137.271 150.901C144.183 149.504 146.419 141.586 143.066 136.835C139.712 132.085 131.515 131.558 131.515 131.558C131.515 131.558 119.044 135.13 115.127 131.558" fill="white"/>
<path d="M124.623 146.711C124.623 146.711 124.911 146.987 125.414 147.391V138.579C125.414 138.2 125.106 137.892 124.727 137.892C124.349 137.892 124.04 138.2 124.04 138.579V146.993C124.404 146.822 124.623 146.711 124.623 146.711" fill="#A6B9B5"/>
<path d="M132.196 137.616C132.196 137.616 136.696 132.316 133.787 130.036C130.878 127.754 128.12 131.685 124.468 131.333C120.816 130.981 116.992 128.164 115.431 130.747C113.872 133.33 117.789 136.443 117.789 136.443C117.789 136.443 118.719 133.72 121.062 135.031C123.406 136.341 121.432 139.116 121.432 139.116C121.432 139.116 123.157 140.247 124.564 140.479C125.971 140.713 128.157 138.893 128.157 138.893C128.157 138.893 127.022 135.745 129.433 134.529C131.846 133.311 132.196 137.616 132.196 137.616" fill="#852E1B"/>
<path d="M87.5508 121.27C87.5508 121.27 84.1029 125.749 84.3825 132.362C84.6621 138.976 94.1719 144.844 94.1719 144.844L90.4282 139.019C89.4933 137.565 89.8107 135.64 91.1624 134.562L96.9572 129.94C96.9572 129.94 89.1328 132.455 87.8293 130.593C86.5247 128.729 87.5508 121.27 87.5508 121.27" fill="#852E1B"/>
<path d="M159.688 117.331C159.688 117.331 159.151 123.146 157.722 126.032C156.293 128.92 151.356 127.617 151.356 127.617C151.356 127.617 156.852 130.411 156.852 132.181C156.852 133.951 153.126 139.539 153.126 139.539C153.126 139.539 165.226 131.914 159.688 117.331Z" fill="#852E1B"/>
<path d="M87.4258 144.844C87.4258 144.844 85.0041 143.044 83.4506 140.497C81.8983 137.951 81.4016 136.399 81.4016 136.399C81.4016 136.399 81.2153 139.752 82.1471 141.988C83.0789 144.223 83.8234 144.844 83.8234 144.844H87.4258" fill="#852E1B"/>
<path d="M161.447 144.844C161.447 144.844 163.709 142.99 165.67 139.534C167.631 136.079 168.34 131.556 168.34 131.556C168.34 131.556 169.271 138.075 168.651 140.87C168.029 143.664 167.036 144.844 167.036 144.844H161.447Z" fill="#852E1B"/>
<path d="M170.615 87.8391C167.738 86.6123 164.653 85.6958 161.323 85.2278C158.551 84.8387 155.911 84.636 153.398 84.5848C158.349 85.7624 168.595 88.9511 176.738 96.4437C187.901 106.713 192.248 116.125 192.248 116.125C192.248 116.125 185.533 97.5927 170.615 87.8391" fill="#852E1B"/>
<path d="M177.52 100.355C177.52 100.355 184.796 106.076 189.143 117.324C193.49 128.573 193.366 131.555 193.366 131.555L174.86 108.328L187.156 119.63C187.156 119.63 186.659 113.033 177.52 100.355" fill="#852E1B"/>
<path d="M205.786 124.977L189.64 144.846V190.869C190.853 189.255 192.309 188.387 193.802 188.388C195.224 188.387 196.614 189.174 197.794 190.648L205.786 176.145V124.977Z" fill="#F6854F"/>
<path d="M172.128 163.352H179.331V157.238H182.595L175.729 149.429L168.864 157.238H172.128V163.352Z" fill="#852E1B"/>
<path d="M175.729 165.214H168.864V167.578H182.595V165.214H175.729" fill="#852E1B"/>
<path d="M171.128 92.0938C167.727 90.8506 163.004 89.5757 157.722 89.4518C157.041 89.4354 156.351 89.4283 155.659 89.4283C152.857 89.4283 149.991 89.5512 147.317 89.7273C145.919 89.2409 144.468 88.8067 142.965 88.436C146.297 87.6691 150.414 87.029 154.871 87.029C156.049 87.029 157.249 87.0741 158.466 87.1724C160.169 87.3106 161.741 87.5451 163.186 87.8462C165.735 88.948 168.454 90.3417 171.128 92.0938" fill="#F06C34"/>
<path d="M134.766 91.0078C134.766 91.0078 137.993 89.5824 142.965 88.4396C144.468 88.8103 145.919 89.2445 147.317 89.7309C140.405 90.1886 134.766 91.0078 134.766 91.0078" fill="#94401D"/>
<path d="M176.599 94.5469C176.599 94.5469 174.522 93.3386 171.128 92.0975C168.454 90.3454 165.735 88.9517 163.186 87.8499C172.521 89.7945 176.599 94.5469 176.599 94.5469" fill="#94401D"/>
<path fill-rule="evenodd" clip-rule="evenodd" d="M128 32C115.393 32 102.91 34.4831 91.2624 39.3076C79.6151 44.132 69.0322 51.2033 60.1178 60.1177C51.2033 69.0322 44.132 79.6151 39.3076 91.2624C34.4831 102.91 32 115.393 32 128C32 153.461 42.1143 177.879 60.1178 195.882C78.1213 213.886 102.539 224 128 224C153.461 224 177.879 213.886 195.882 195.882C213.886 177.879 224 153.461 224 128C224 115.393 221.517 102.91 216.692 91.2624C211.868 79.6151 204.797 69.0322 195.882 60.1177C186.968 51.2033 176.385 44.132 164.738 39.3076C153.09 34.4831 140.607 32 128 32V32ZM128 51.2C138.086 51.2 148.072 53.1865 157.39 57.0461C166.708 60.9056 175.174 66.5627 182.306 73.6942C189.437 80.8258 195.094 89.2921 198.954 98.6099C202.814 107.928 204.8 117.915 204.8 128C204.8 138.086 202.814 148.072 198.954 157.39C195.094 166.708 189.437 175.174 182.306 182.306C175.174 189.437 166.708 195.094 157.39 198.954C148.072 202.814 138.086 204.8 128 204.8C107.631 204.8 88.097 196.709 73.6942 182.306C59.2914 167.903 51.2 148.369 51.2 128C51.2 117.915 53.1865 107.928 57.0461 98.6099C60.9056 89.2921 66.5627 80.8258 73.6942 73.6942C80.8257 66.5627 89.2921 60.9056 98.6099 57.0461C107.928 53.1865 117.914 51.2 128 51.2V51.2Z" fill="#E66001"/>
<path d="M143.411 61.0497C141.685 58.5369 142.444 55.0645 142.442 55.0645C143.205 52.0723 141.398 49.028 138.406 48.2651C135.413 47.5073 132.368 49.3106 131.606 52.3027C131.402 53.1025 129.807 60.0626 133.626 66.4688C136.602 65.9107 140.961 64.6471 144.075 61.8259C143.829 61.5812 143.6 61.3262 143.411 61.0497" fill="white"/>
</g>
</g>
<defs>
<clipPath id="clip0_1960_9640">
<rect width="256" height="256" fill="white"/>
</clipPath>
<clipPath id="clip1_1960_9640">
<rect width="192" height="192" fill="white" transform="translate(32 32)"/>
</clipPath>
</defs>
</svg>
