<svg width="256" height="256" viewBox="0 0 256 256" fill="none" xmlns="http://www.w3.org/2000/svg">
<rect width="256" height="256" fill="#B6883F"/>
<path d="M41.8857 170.128L67.0616 216.883L144.987 224.675L193.54 210.289L215.119 170.128L212.722 106.589L203.131 58.0352L154.578 23.2686L91.0386 28.064L44.8829 75.4185L41.8857 170.128Z" fill="white"/>
<path fill-rule="evenodd" clip-rule="evenodd" d="M121.002 13.2176C48.9904 17.7343 -0.774417 85.3799 16.4089 155.39C27.1376 199.104 63.6607 233.051 107.984 240.504C186.49 253.706 253.819 186.149 240.373 107.666C230.668 51.015 178.35 9.62103 121.002 13.2176ZM134.209 30.7568C167.506 34.0525 193.88 60.1366 197.322 93.1757C197.572 95.5798 197.662 98.9874 197.662 106.068V115.693L198.716 116.443C201.045 118.098 202.542 119.419 202.868 120.106C203.359 121.14 203.386 140.541 202.897 141.473C202.03 143.129 195.213 147.929 189.593 150.84L187.236 152.061L187.229 153.393C187.176 163.794 175.594 165.985 173.492 155.99C173.073 153.999 173.151 109.341 173.576 107.709C175.612 99.891 183.776 99.3681 186.699 106.868C187.235 108.242 186.947 96.1056 186.351 92.1857C179.041 44.1103 120.822 24.2719 86.1477 58.0405C74.1223 69.752 68.4362 83.5123 68.1182 101.673L68.0099 107.888L68.4297 106.77C71.2529 99.255 79.8825 100.015 81.5736 107.927C81.7246 108.634 81.7814 117.018 81.7411 132.638L81.6796 156.279L81.1816 157.5C77.6608 166.133 67.8642 162.883 67.8032 153.06L67.7973 152.061L65.5265 150.864C60.7173 148.331 53.484 143.388 52.3915 141.89C51.9486 141.282 51.9332 140.956 51.8728 131.07C51.7982 118.796 51.4559 120.136 55.4308 117.152L57.3736 115.695L57.3742 106.464C57.3748 101.387 57.4778 96.0842 57.6027 94.6803C61.0844 55.7295 95.5926 26.934 134.209 30.7568ZM106.751 86.1165C108.494 86.9721 109.856 88.3719 110.72 90.1962L111.425 91.6836V140.086V188.488L110.593 190.17C109.609 192.161 108.51 193.233 106.457 194.206L104.987 194.902L99.6753 194.979C91.3619 195.099 89.0295 194.216 86.9832 190.176L86.3413 188.909V140.074V91.2395L86.9666 90.0186C88.0152 87.9722 89.7182 86.4552 91.7971 85.7168C92.6154 85.4267 93.8299 85.3769 99.1051 85.4184L105.431 85.4681L106.751 86.1165ZM135.676 86.2207C137.361 87.1349 138.679 88.5181 139.469 90.2015L140.059 91.4616V140.079V188.696L139.333 190.173C137.425 194.046 135.53 194.859 128.144 194.967C119.891 195.088 117.536 194.148 115.567 189.947L114.976 188.687V140.074V91.4616L115.48 90.3691C117.468 86.0579 119.27 85.3361 127.851 85.4113L134.288 85.4681L135.676 86.2207ZM164.183 86.0869C165.827 86.8945 167.712 88.9225 168.398 90.6213L168.916 91.9056L168.971 131.528C169.002 153.32 168.951 175.147 168.858 180.03L168.69 188.909L168.099 190.173C167.317 191.848 165.793 193.332 163.967 194.197L162.479 194.902H156.264H150.048L148.561 194.197C146.734 193.332 145.21 191.848 144.428 190.173L143.837 188.909L143.669 180.03C143.576 175.147 143.525 153.32 143.556 131.528L143.611 91.9056L144.126 90.6296C144.686 89.2441 146.381 87.2243 147.636 86.4487C149.261 85.445 149.9 85.3716 156.596 85.4213L162.923 85.4681L164.183 86.0869ZM89.5601 108.664V109.553H98.883H108.206V108.664V107.777H98.883H89.5601V108.664ZM118.194 108.664V109.553H127.518H136.841V108.664V107.777H127.518H118.194V108.664ZM146.829 108.664V109.553H156.264H165.697V108.664V107.777H156.264H146.829V108.664ZM185.836 198.289C190.578 200.823 190.691 207.163 186.039 209.617L184.899 210.218H127.518H70.1368L69.2231 209.73C64.0776 206.977 64.5193 199.943 69.9597 197.996C70.6632 197.745 80.2555 197.702 127.851 197.741L184.899 197.788L185.836 198.289Z" fill="#B6883F"/>
</svg>
