<svg width="256" height="256" viewBox="0 0 256 256" fill="none" xmlns="http://www.w3.org/2000/svg">
<g clip-path="url(#clip0_1398_1460)">
<rect width="256" height="256" fill="white"/>
<mask id="mask0_1398_1460" style="mask-type:luminance" maskUnits="userSpaceOnUse" x="116" y="123" width="38" height="38">
<path d="M123.134 141.735C123.134 135.267 128.516 130.006 135.137 130.006C141.758 130.006 147.158 135.267 147.158 141.735C147.158 148.203 141.758 153.464 135.137 153.464C128.516 153.464 123.134 148.203 123.134 141.735ZM116.365 141.735C116.365 151.845 124.788 160.063 135.137 160.063C139.518 160.063 143.767 158.551 147.158 155.79V158.599H153.909V141.735C153.909 131.625 145.486 123.407 135.137 123.407C124.788 123.407 116.365 131.625 116.365 141.735" fill="white"/>
</mask>
<g mask="url(#mask0_1398_1460)">
<path d="M96.3658 103.33H173.909V180.146H96.3658V103.33Z" fill="#49515F"/>
</g>
<mask id="mask1_1398_1460" style="mask-type:luminance" maskUnits="userSpaceOnUse" x="159" y="111" width="39" height="50">
<path d="M166.256 141.736C166.256 135.267 171.65 130.007 178.265 130.007C184.886 130.007 190.274 135.267 190.274 141.736C190.274 148.204 184.886 153.464 178.265 153.464C171.65 153.464 166.256 148.204 166.256 141.736M190.274 111.769V127.686C186.879 124.918 182.639 123.407 178.265 123.408C167.916 123.408 159.499 131.626 159.499 141.736C159.499 151.846 167.916 160.064 178.265 160.064C182.829 160.064 187.026 158.463 190.274 155.803V158.6H197.037V111.769H190.274V111.769Z" fill="white"/>
</mask>
<g mask="url(#mask1_1398_1460)">
<path d="M139.5 91.6855H217.042V180.141H139.5V91.6855Z" fill="#49515F"/>
</g>
<mask id="mask2_1398_1460" style="mask-type:luminance" maskUnits="userSpaceOnUse" x="202" y="123" width="39" height="38">
<path d="M209.23 141.735C209.23 135.267 214.624 130.006 221.239 130.006C227.866 130.006 233.254 135.267 233.254 141.735C233.254 148.203 227.866 153.464 221.239 153.464C214.624 153.464 209.23 148.203 209.23 141.735M202.479 141.735C202.479 151.845 210.89 160.063 221.239 160.063C225.625 160.063 229.869 158.551 233.254 155.79V158.599H240.011V141.735C240.011 131.625 231.594 123.407 221.239 123.407C210.89 123.407 202.479 131.625 202.479 141.735Z" fill="white"/>
</mask>
<g mask="url(#mask2_1398_1460)">
<path d="M182.48 103.33H260.016V180.146H182.48V103.33Z" fill="#49515F"/>
</g>
<mask id="mask3_1398_1460" style="mask-type:luminance" maskUnits="userSpaceOnUse" x="57" y="123" width="54" height="36">
<path d="M84.0486 128.865C82.6163 127.15 80.8255 125.772 78.8033 124.83C76.7811 123.888 74.5771 123.405 72.3478 123.414C64.0435 123.414 57.2862 130.007 57.2862 138.124V158.606H64.0435V138.124C64.0435 133.649 67.7719 130.007 72.3478 130.007C76.9357 130.007 80.67 133.649 80.67 138.124V158.606H87.4272V138.124C87.4272 133.649 91.1556 130.007 95.7375 130.007C100.325 130.007 104.054 133.649 104.054 138.124V158.606H110.811V138.124C110.811 130.007 104.048 123.414 95.7375 123.414C91.1793 123.414 86.9353 125.402 84.0486 128.865Z" fill="white"/>
</mask>
<g mask="url(#mask3_1398_1460)">
<path d="M37.2811 103.33H130.81V178.682H37.2811V103.33Z" fill="#49515F"/>
</g>
<mask id="mask4_1398_1460" style="mask-type:luminance" maskUnits="userSpaceOnUse" x="15" y="123" width="37" height="38">
<path d="M21.2237 141.951C21.2237 135.173 26.7718 129.669 33.5943 129.669C40.4108 129.669 45.9589 135.173 45.9589 141.951C45.9589 148.711 40.4108 154.221 33.5943 154.221C26.7718 154.221 21.2237 148.711 21.2237 141.951M15.3318 141.951C15.3318 151.936 23.5235 160.064 33.5943 160.064C43.659 160.064 51.8508 151.936 51.8508 141.951C51.8508 131.954 43.659 123.825 33.5943 123.825C23.5235 123.825 15.3318 131.954 15.3318 141.951" fill="white"/>
</mask>
<g mask="url(#mask4_1398_1460)">
<path d="M-4.66733 103.747H71.844V180.141H-4.66733V103.747Z" fill="#49515F"/>
</g>
<mask id="mask5_1398_1460" style="mask-type:luminance" maskUnits="userSpaceOnUse" x="98" y="82" width="72" height="25">
<path d="M98.5944 100.055L104.789 106.238C111.469 97.163 122.755 91.3433 134.236 91.3433C145.735 91.3433 157.033 97.163 163.719 106.238L169.896 100.067C161.562 88.7489 148.515 82.5781 134.236 82.5781C119.969 82.5781 106.934 88.737 98.5944 100.055" fill="white"/>
</mask>
<g mask="url(#mask5_1398_1460)">
<path d="M78.5952 62.501H189.889V126.321H78.5952V62.501Z" fill="#21B6C4"/>
</g>
<mask id="mask6_1398_1460" style="mask-type:luminance" maskUnits="userSpaceOnUse" x="110" y="102" width="48" height="19">
<path d="M110.823 113.617L117.094 119.883C121.433 114.635 127.71 111.439 134.183 111.439C140.667 111.439 146.921 114.766 151.272 120.032L157.614 113.683C151.598 106.399 143.293 102.662 134.183 102.662C125.084 102.662 116.827 106.34 110.823 113.617Z" fill="white"/>
</mask>
<g mask="url(#mask6_1398_1460)">
<path d="M90.8176 82.5908H177.619V140.109H90.8176V82.5908Z" fill="#21B6C4"/>
</g>
</g>
<defs>
<clipPath id="clip0_1398_1460">
<rect width="256" height="256" fill="white"/>
</clipPath>
</defs>
</svg>
