<svg width="256" height="256" viewBox="0 0 256 256" fill="none" xmlns="http://www.w3.org/2000/svg">
<g clip-path="url(#clip0_1413_842)">
<rect width="256" height="256" fill="#FFBE33"/>
<path d="M198.01 119.2L134.791 55.3067C131.06 51.5358 124.948 51.5358 121.217 55.3067L57.991 119.2C54.2598 122.971 51.2006 130.429 51.2006 135.765V193.979C51.2006 199.314 55.5206 203.68 60.8006 203.68H119.854L93.8506 177.4C92.513 177.866 91.0858 178.131 89.601 178.131C82.369 178.131 76.481 172.181 76.481 164.871C76.481 157.563 82.369 151.611 89.601 151.611C96.833 151.611 102.721 157.562 102.721 164.871C102.721 166.379 102.459 167.821 101.998 169.173L122.241 189.632V114.678C117.889 112.518 114.881 108.003 114.881 102.783C114.881 95.474 120.769 89.5228 128.001 89.5228C135.233 89.5228 141.121 95.4735 141.121 102.783C141.121 108.003 138.113 112.518 133.761 114.678V167.245L153.895 146.896C153.498 145.628 153.28 144.283 153.28 142.886C153.28 135.576 159.168 129.626 166.4 129.626C173.632 129.626 179.52 135.576 179.52 142.886C179.52 150.194 173.632 156.146 166.4 156.146C164.8 156.146 163.277 155.842 161.863 155.312L133.761 183.713V203.687H195.201C200.481 203.687 204.801 199.321 204.801 193.985V135.771C204.801 130.435 201.748 122.983 198.01 119.206L198.01 119.2Z" fill="#F2F4F9"/>
</g>
<defs>
<clipPath id="clip0_1413_842">
<rect width="256" height="256" fill="white"/>
</clipPath>
</defs>
</svg>
