<svg width="256" height="256" viewBox="0 0 256 256" fill="none" xmlns="http://www.w3.org/2000/svg">
<g clip-path="url(#clip0_512_2138)">
<rect width="256" height="256" fill="url(#paint0_linear_512_2138)"/>
<rect width="256" height="256" fill="#081F34"/>
<path d="M0.451579 0H0V0.451579H0.451579V0Z" fill="#222D32"/>
<path d="M86.207 155.795L94.516 153.131C88.5552 149.699 82.8653 145.861 77.5367 141.48C67.331 132.991 59.1574 119.985 55.5448 106.935C52.8805 97.2709 53.1063 87.4264 54.1901 77.582C56.5834 56.132 67.1955 39.6494 84.9426 27.5922C85.4393 27.2761 85.8006 26.6439 86.5683 27.231C88.6455 28.8115 88.6907 33.237 86.6586 34.8627C84.6716 36.4432 82.6395 37.9786 80.788 39.6494C69.0922 50.126 66.4278 62.9509 67.2858 78.8916C68.3245 97.4063 73.8789 106.348 87.2908 118.179C91.4453 121.837 97.4965 126.533 100.432 120.482C101.877 117.502 102.464 114.341 103.006 111.089C103.186 110.051 102.78 109.644 101.741 109.509C93.5226 108.56 88.5552 103.367 84.9877 96.5032C79.3882 85.8459 78.2141 74.4661 80.5171 62.7702C82.2783 53.829 85.5748 45.6102 93.5677 40.1461C94.516 39.5139 94.516 38.7914 94.3354 37.7979C93.2968 32.379 90.8583 27.5922 87.6972 23.1216C86.7489 21.7217 86.1167 21.6766 84.7619 22.7152C73.9241 31.0694 65.4344 41.4106 59.1123 53.4677C48.5002 73.7436 44.7069 98.7159 43.7586 121.295C43.7134 122.559 43.9844 123.553 45.023 124.366" fill="#009FE3"/>
<path d="M112.354 172.73L99.7547 165.549C93.0262 160.627 85.5299 159.724 77.6273 161.756C75.9565 162.163 73.8792 162.93 73.3825 164.466C71.9374 168.891 69.9505 173.001 67.4668 177.02C70.3569 174.265 72.9309 171.33 76.0468 168.936C83.1366 163.427 90.5876 164.15 96.413 170.923C99.5289 174.536 101.922 178.645 103.954 182.98C109.328 194.586 112.534 206.914 115.379 219.332C116.147 222.674 116.553 226.151 117.637 229.358C118.36 231.48 119.579 234.686 122.334 233.918C124.501 233.331 123.192 230.396 122.921 228.545C120.392 211.791 116.102 189.257 112.354 172.73Z" fill="#009FE3"/>
<path d="M107.296 199.056C104.406 190.747 101.019 182.619 95.1485 175.845C90.2262 170.155 84.1299 169.388 77.853 173.542C75.2338 175.303 72.9759 177.471 70.9438 179.864C70.3116 180.587 69.0924 181.309 69.7246 182.303C69.7246 182.303 79.5238 176.342 87.2007 179.774C99.6191 185.283 115.244 231.344 115.244 231.344C115.244 230.035 115.334 229.493 115.244 228.951C113.076 218.835 110.683 208.81 107.296 199.056Z" fill="#009FE3"/>
<path d="M112.082 136.513C112.398 136.739 125.449 141.977 127.842 143.016H128.203C130.597 142.022 143.647 136.739 143.963 136.513C149.337 132.946 151.369 127.301 150.15 119.94C149.518 116.192 148.253 112.625 146.673 109.147C146.357 108.47 145.995 108.515 145.454 108.154C145.228 108.018 129.513 108.154 128.023 108.154C126.713 108.154 110.817 108.018 110.592 108.154C110.05 108.515 109.689 108.47 109.372 109.147C107.792 112.625 106.527 116.192 105.895 119.94C104.631 127.301 106.708 132.946 112.082 136.513Z" fill="#009FE3"/>
<path d="M163.427 126.714C162.433 126.624 161.485 126.85 160.491 126.579C156.924 125.359 155.027 122.605 153.808 119.263C152.995 116.96 152.273 114.567 152.092 112.173C151.911 109.599 150.737 108.696 148.118 108.967C151.595 119.444 155.614 131.636 143.783 138.004L127.978 144.235L112.172 138.004C100.296 131.636 104.315 119.444 107.837 108.967C105.218 108.696 104.044 109.599 103.863 112.173C103.683 114.612 103.005 116.96 102.147 119.263C100.928 122.65 98.9863 125.359 95.464 126.579C94.5156 126.85 93.5222 126.669 92.5287 126.714C92.032 126.759 91.3997 129.695 91.5804 130.553C101.064 138.139 126.126 147.351 127.932 148.074H128.023C129.784 147.351 154.847 138.094 164.375 130.553C164.601 129.695 163.923 126.759 163.427 126.714Z" fill="#009FE3"/>
<path d="M141.705 156.97C154.846 151.641 167.22 144.958 178.148 135.836C188.534 127.166 196.798 116.825 199.191 103.232C204.339 73.9246 197.25 48.7717 172.684 30.0764C171.871 29.4441 170.832 27.6378 169.658 29.2635C168.665 30.7086 168.078 32.6052 170.065 34.0954C173.587 36.6694 176.929 39.424 179.909 42.5851C194.766 58.571 197.927 91.4911 188.67 111.361C180.361 129.153 166.587 134.707 149.698 144.01C144.054 147.126 138.228 149.745 132.222 152.048L128.023 154.08L123.823 152.048C117.817 149.745 111.992 147.126 106.347 144.01C89.4578 134.707 75.6847 129.153 67.3756 111.361C58.1183 91.4911 61.2793 58.571 76.1363 42.5851C79.1167 39.3789 82.4584 36.6694 85.9807 34.0954C87.9676 32.6504 87.3806 30.7086 86.3871 29.2635C85.2582 27.6378 84.1744 29.4441 83.3615 30.0764C58.7956 48.7266 51.7059 73.9246 56.8539 103.232C59.2472 116.825 67.5563 127.166 77.8974 135.836C88.8256 144.958 101.199 151.641 114.34 156.97L128.023 162.389L141.705 156.97Z" fill="#009FE3"/>
<path d="M211.069 124.41C212.107 123.552 212.378 122.559 212.333 121.34C211.385 98.7608 207.591 73.7885 196.979 53.5126C190.657 41.4103 182.168 31.1143 171.33 22.7601C169.975 21.7215 169.388 21.7666 168.394 23.1665C165.233 27.6372 162.795 32.4239 161.756 37.8429C161.576 38.7912 161.576 39.5137 162.524 40.1911C170.472 45.61 173.813 53.8739 175.574 62.8152C177.878 74.4659 176.703 85.8457 171.104 96.5481C167.491 103.412 162.569 108.65 154.35 109.554C153.312 109.689 152.95 110.095 153.086 111.134C153.583 114.34 154.215 117.546 155.66 120.527C158.595 126.623 164.646 121.882 168.801 118.224C182.168 106.392 187.767 97.4512 188.806 78.9365C189.709 62.9958 186.999 50.1258 175.304 39.6943C173.407 38.0235 171.375 36.4881 169.433 34.9076C167.401 33.2819 167.446 28.8564 169.523 27.2759C170.291 26.6889 170.652 27.3211 171.149 27.6372C188.896 39.6943 199.508 56.1769 201.902 77.6269C202.985 87.4714 203.211 97.3158 200.547 106.98C196.934 120.03 188.761 133.081 178.555 141.525C173.271 145.906 167.582 149.744 161.576 153.176L169.885 155.84L211.069 124.41Z" fill="#009FE3"/>
<path d="M178.42 161.756C170.472 159.724 163.021 160.627 156.292 165.549L143.693 172.73C139.945 189.257 135.655 211.746 133.081 228.545C132.81 230.396 131.455 233.331 133.668 233.918C136.423 234.641 137.642 231.48 138.365 229.358C139.448 226.151 139.855 222.674 140.623 219.332C143.467 206.914 146.674 194.586 152.047 182.98C154.034 178.645 156.473 174.581 159.589 170.923C165.414 164.15 172.865 163.382 179.955 168.936C183.071 171.33 185.645 174.265 188.535 177.02C186.097 173.001 184.064 168.936 182.619 164.466C182.123 162.93 180.091 162.208 178.42 161.756Z" fill="#009FE3"/>
<path d="M185.057 179.864C183.025 177.471 180.767 175.303 178.148 173.542C171.871 169.388 165.82 170.155 160.853 175.845C154.982 182.619 151.595 190.747 148.705 199.056C145.318 208.81 142.97 218.835 140.757 228.906C140.622 229.447 140.757 230.035 140.757 231.299C140.757 231.299 156.382 185.238 168.801 179.729C176.477 176.342 186.277 182.258 186.277 182.258C186.909 181.264 185.644 180.587 185.057 179.864Z" fill="#009FE3"/>
</g>
<defs>
<linearGradient id="paint0_linear_512_2138" x1="128" y1="0" x2="128" y2="256" gradientUnits="userSpaceOnUse">
<stop stop-color="#08233D"/>
<stop offset="1" stop-color="#04090E"/>
</linearGradient>
<clipPath id="clip0_512_2138">
<rect width="256" height="256" fill="white"/>
</clipPath>
</defs>
</svg>
