<svg width="256" height="256" viewBox="0 0 256 256" fill="none" xmlns="http://www.w3.org/2000/svg">
<rect width="256" height="256" fill="white"/>
<path d="M193.836 58.7555C211.403 75.9378 220.186 100.384 220.186 132.13C220.186 163.876 211.602 188.018 194.398 205.092C177.213 222.167 152.66 230.704 120.72 230.704H50V33H119.032C151.335 33 176.269 41.5911 193.836 58.7555Z" fill="#1137F5"/>
<mask id="mask0_1445_274" style="mask-type:luminance" maskUnits="userSpaceOnUse" x="50" y="33" width="171" height="198">
<path d="M193.836 58.7594C211.403 75.9417 220.186 100.388 220.186 132.134C220.186 163.88 211.602 188.022 194.398 205.096C177.213 222.171 152.66 230.708 120.72 230.708H50V33.0039H119.032C151.335 33.0039 176.269 41.595 193.836 58.7594Z" fill="white"/>
</mask>
<g mask="url(#mask0_1445_274)">
<path d="M284.009 137.533L148.267 131.148L282.775 112.046L282.267 108.495L147.759 127.597L276.17 83.6723L274.99 80.2825L146.579 124.207L264.246 57.0559L262.432 53.9531L144.746 121.104L247.461 33.1477L245.083 30.4395L142.387 118.377L226.373 12.8267L223.524 10.6027L139.52 116.189L201.783 -3.18977L198.572 -4.83987L136.308 114.522L174.58 -14.3278L171.096 -15.3502L132.806 113.535L145.726 -20.1748L142.115 -20.5156L129.194 113.176L116.291 -20.5156L112.68 -20.1748L125.583 113.517L87.3101 -15.3502L83.8259 -14.3278L122.098 114.54L59.8351 -4.83987L56.6048 -3.18977L118.886 116.172L34.8825 10.6027L32.0334 12.8267L116.019 118.396L13.3235 30.4395L10.9462 33.1477L113.642 121.104L-4.02536 53.9531L-5.84007 57.0559L111.827 124.207L-16.5835 80.2825L-17.763 83.6723L110.648 127.597L-23.8605 108.495L-24.3685 112.046L110.14 131.148L-25.6028 137.551L-25.421 141.12L110.303 134.735L-21.755 166.392L-20.9024 169.889L111.174 138.215L-12.446 194.012L-10.9395 197.276L112.662 141.479L1.98137 219.391L4.08647 222.314L114.767 144.402L20.9998 241.613L23.6312 244.089L117.398 146.878L43.938 259.872L46.9868 261.809L120.447 148.815L69.9431 273.503L73.3185 274.83L123.823 150.16L98.1078 282.022L101.665 282.704L127.38 150.823V285.143H131.009V150.823L156.742 282.704L160.299 282.022L134.584 150.16L185.088 274.83L188.464 273.503L137.959 148.833L211.42 261.809L214.468 259.872L140.99 146.86L234.775 244.089L237.407 241.613L143.64 144.42L254.32 222.314L256.425 219.391L145.726 141.479L269.346 197.276L270.852 194.012L147.251 138.215L279.309 169.889L280.162 166.392L148.104 134.735L283.828 141.12L284.009 137.533Z" fill="white"/>
</g>
</svg>
