<svg width="256" height="256" viewBox="0 0 256 256" fill="none" xmlns="http://www.w3.org/2000/svg">
<g clip-path="url(#clip0_1902_8290)">
<path d="M256 0H0V256H256V0Z" fill="url(#paint0_linear_1902_8290)"/>
<path d="M65.814 152.138C66.724 152.922 67.724 153.534 68.774 153.988C67.063 152.526 65.371 151.097 63.701 149.711C64.274 150.589 64.974 151.413 65.814 152.138Z" fill="url(#paint1_linear_1902_8290)"/>
<path d="M65.814 152.138C66.724 152.922 67.724 153.534 68.774 153.988C67.063 152.526 65.371 151.097 63.701 149.711C64.274 150.589 64.974 151.413 65.814 152.138Z" fill="url(#paint2_linear_1902_8290)"/>
<path d="M82.001 151.025C86.16 146.298 85.659 139.125 80.879 135.009C76.099 130.892 68.853 131.389 64.691 136.118C61.263 140.017 61.009 145.568 63.701 149.71C65.371 151.097 67.063 152.525 68.774 153.987C73.242 155.909 78.634 154.855 82.001 151.025Z" fill="url(#paint3_linear_1902_8290)"/>
<path d="M82.001 151.025C86.16 146.298 85.659 139.125 80.879 135.009C76.099 130.892 68.853 131.389 64.691 136.118C61.263 140.017 61.009 145.568 63.701 149.71C65.371 151.097 67.063 152.525 68.774 153.987C73.242 155.909 78.634 154.855 82.001 151.025Z" fill="url(#paint4_linear_1902_8290)"/>
<path d="M82.001 151.025C86.16 146.298 85.659 139.125 80.879 135.009C76.099 130.892 68.853 131.389 64.691 136.118C61.263 140.017 61.009 145.568 63.701 149.71C65.371 151.097 67.063 152.525 68.774 153.987C73.242 155.909 78.634 154.855 82.001 151.025Z" fill="url(#paint5_linear_1902_8290)"/>
<path d="M131.52 178.628C126.742 174.51 119.494 175.003 115.332 179.735C111.173 184.464 111.678 191.637 116.456 195.756C121.235 199.87 128.484 199.376 132.641 194.643C136.801 189.911 136.299 182.742 131.52 178.628Z" fill="url(#paint6_linear_1902_8290)"/>
<path d="M131.52 178.628C126.742 174.51 119.494 175.003 115.332 179.735C111.173 184.464 111.678 191.637 116.456 195.756C121.235 199.87 128.484 199.376 132.641 194.643C136.801 189.911 136.299 182.742 131.52 178.628Z" fill="url(#paint7_linear_1902_8290)"/>
<path d="M131.52 178.628C126.742 174.51 119.494 175.003 115.332 179.735C111.173 184.464 111.678 191.637 116.456 195.756C121.235 199.87 128.484 199.376 132.641 194.643C136.801 189.911 136.299 182.742 131.52 178.628Z" fill="url(#paint8_linear_1902_8290)"/>
<path d="M47.215 171.656C47.21 179.353 47.206 186.842 47.201 193.8C49.445 191.733 51.94 189.497 54.354 187.178C55.098 186.459 55.634 186.365 56.392 187.069C57.689 188.266 59.027 189.419 60.393 190.629C61.636 189.228 62.802 187.909 64.011 186.545C58.394 181.567 52.874 176.671 47.215 171.656Z" fill="url(#paint9_linear_1902_8290)"/>
<path d="M96.606 215.497C91.052 210.563 85.678 205.788 80.25 200.961C79.025 202.351 77.888 203.64 76.699 204.985C78.232 206.363 79.696 207.678 81.238 209.063C79.178 211.179 77.171 213.249 74.999 215.483C82.293 215.487 89.327 215.492 96.606 215.497Z" fill="url(#paint10_linear_1902_8290)"/>
<path d="M151.123 140.644C155.674 138.334 159.959 135.61 163.871 132.331C171.762 125.706 177.863 117.832 180.766 107.771C183.235 99.2055 183.793 90.4585 182.924 81.6285C182.328 75.5035 180.672 69.6675 177.33 64.4095C170.154 53.1195 159.756 46.3735 146.955 43.1915C138.055 40.9775 128.919 40.5405 119.79 40.5045C96.042 40.4165 72.292 40.4495 48.541 40.4375C48.118 40.4365 47.694 40.4735 47.254 40.4935C47.239 65.0285 47.223 89.4435 47.208 113.814C62.939 101.976 79.071 99.6185 95.628 111.244C97.804 109.224 99.952 107.233 102.19 105.156C99.921 103.503 97.763 101.93 95.502 100.284C101.196 96.1575 106.714 92.1625 112.214 88.1785C110.744 84.7865 111.322 82.1155 113.813 80.5115C115.958 79.1285 118.983 79.5145 120.681 81.3855C122.426 83.3085 122.57 86.2455 121.018 88.2975C119.25 90.6375 116.47 91.0135 113.244 89.2925C110.463 92.7125 107.672 96.1465 104.82 99.6525C107.177 101.325 109.431 102.922 111.758 104.572C107.179 107.652 102.702 110.661 98.21 113.679C98.377 113.88 98.444 113.985 98.534 114.065C114.93 128.612 131.325 143.158 147.731 157.696C151.237 160.801 154.805 163.843 157.286 167.908C163.931 178.771 164.366 190.113 159.8 201.792C157.798 206.923 154.765 211.426 150.702 215.529C170.167 215.541 189.362 215.553 208.798 215.565C189.165 190.691 169.667 165.988 150.114 141.217C150.508 140.995 150.805 140.804 151.123 140.644Z" fill="url(#paint11_linear_1902_8290)"/>
</g>
<defs>
<linearGradient id="paint0_linear_1902_8290" x1="128" y1="256" x2="128" y2="0" gradientUnits="userSpaceOnUse">
<stop offset="0.1269" stop-color="#CCCCCC"/>
<stop offset="0.2947" stop-color="#E1E1E1"/>
<stop offset="0.4889" stop-color="white"/>
</linearGradient>
<linearGradient id="paint1_linear_1902_8290" x1="0.353182" y1="74.0332" x2="171.683" y2="276.573" gradientUnits="userSpaceOnUse">
<stop offset="0.3295" stop-color="#1976D2"/>
<stop offset="0.4214" stop-color="#2E69CC"/>
<stop offset="0.6106" stop-color="#6548BE"/>
<stop offset="0.7834" stop-color="#9C27B0"/>
</linearGradient>
<linearGradient id="paint2_linear_1902_8290" x1="0.393769" y1="74.0816" x2="171.722" y2="276.619" gradientUnits="userSpaceOnUse">
<stop offset="0.3295" stop-color="#1976D2"/>
<stop offset="0.4214" stop-color="#2E69CC"/>
<stop offset="0.6106" stop-color="#6548BE"/>
<stop offset="0.7834" stop-color="#9C27B0"/>
</linearGradient>
<linearGradient id="paint3_linear_1902_8290" x1="0.976889" y1="57.9445" x2="192.852" y2="284.772" gradientUnits="userSpaceOnUse">
<stop offset="0.3295" stop-color="#1976D2"/>
<stop offset="0.4214" stop-color="#2E69CC"/>
<stop offset="0.6106" stop-color="#6548BE"/>
<stop offset="0.7834" stop-color="#9C27B0"/>
</linearGradient>
<linearGradient id="paint4_linear_1902_8290" x1="8.65257" y1="67.0184" x2="179.974" y2="269.547" gradientUnits="userSpaceOnUse">
<stop offset="0.3295" stop-color="#1976D2"/>
<stop offset="0.4214" stop-color="#2E69CC"/>
<stop offset="0.6106" stop-color="#6548BE"/>
<stop offset="0.7834" stop-color="#9C27B0"/>
</linearGradient>
<linearGradient id="paint5_linear_1902_8290" x1="8.69204" y1="67.0659" x2="180.012" y2="269.593" gradientUnits="userSpaceOnUse">
<stop offset="0.3295" stop-color="#1976D2"/>
<stop offset="0.4214" stop-color="#2E69CC"/>
<stop offset="0.6106" stop-color="#6548BE"/>
<stop offset="0.7834" stop-color="#9C27B0"/>
</linearGradient>
<linearGradient id="paint6_linear_1902_8290" x1="8.95215" y1="51.2014" x2="200.83" y2="278.032" gradientUnits="userSpaceOnUse">
<stop offset="0.3295" stop-color="#1976D2"/>
<stop offset="0.4214" stop-color="#2E69CC"/>
<stop offset="0.6106" stop-color="#6548BE"/>
<stop offset="0.7834" stop-color="#9C27B0"/>
</linearGradient>
<linearGradient id="paint7_linear_1902_8290" x1="16.6496" y1="60.3004" x2="187.993" y2="262.855" gradientUnits="userSpaceOnUse">
<stop offset="0.3295" stop-color="#1976D2"/>
<stop offset="0.4214" stop-color="#2E69CC"/>
<stop offset="0.6106" stop-color="#6548BE"/>
<stop offset="0.7834" stop-color="#9C27B0"/>
</linearGradient>
<linearGradient id="paint8_linear_1902_8290" x1="16.6961" y1="60.3556" x2="188.028" y2="262.897" gradientUnits="userSpaceOnUse">
<stop offset="0.3295" stop-color="#1976D2"/>
<stop offset="0.4214" stop-color="#2E69CC"/>
<stop offset="0.6106" stop-color="#6548BE"/>
<stop offset="0.7834" stop-color="#9C27B0"/>
</linearGradient>
<linearGradient id="paint9_linear_1902_8290" x1="-54.2529" y1="60.2998" x2="186.482" y2="344.887" gradientUnits="userSpaceOnUse">
<stop offset="0.3295" stop-color="#1976D2"/>
<stop offset="0.4214" stop-color="#2E69CC"/>
<stop offset="0.6106" stop-color="#6548BE"/>
<stop offset="0.7834" stop-color="#9C27B0"/>
</linearGradient>
<linearGradient id="paint10_linear_1902_8290" x1="-69.5961" y1="31.7835" x2="184.123" y2="331.72" gradientUnits="userSpaceOnUse">
<stop offset="0.3295" stop-color="#1976D2"/>
<stop offset="0.4214" stop-color="#2E69CC"/>
<stop offset="0.6106" stop-color="#6548BE"/>
<stop offset="0.7834" stop-color="#9C27B0"/>
</linearGradient>
<linearGradient id="paint11_linear_1902_8290" x1="50.6534" y1="15.9121" x2="242.546" y2="242.76" gradientUnits="userSpaceOnUse">
<stop offset="0.3295" stop-color="#1976D2"/>
<stop offset="0.4214" stop-color="#2E69CC"/>
<stop offset="0.6106" stop-color="#6548BE"/>
<stop offset="0.7834" stop-color="#9C27B0"/>
</linearGradient>
<clipPath id="clip0_1902_8290">
<rect width="256" height="256" fill="white"/>
</clipPath>
</defs>
</svg>
