<svg width="256" height="256" viewBox="0 0 256 256" fill="none" xmlns="http://www.w3.org/2000/svg">
<g filter="url(#filter0_iii_1262_711)">
<g clip-path="url(#clip0_1262_711)">
<rect width="256" height="256" rx="56" fill="url(#paint0_linear_1262_711)"/>
<g filter="url(#filter1_d_1262_711)">
<rect x="0.1875" y="14.5391" width="256" height="207.477" rx="61.44" fill="url(#paint1_linear_1262_711)"/>
</g>
<g filter="url(#filter2_i_1262_711)">
<rect x="0.1875" width="256" height="207.513" rx="59" fill="url(#paint2_radial_1262_711)"/>
</g>
<g filter="url(#filter3_dii_1262_711)">
<path d="M67.4089 121.047L67.3748 120.831C66.2955 114.021 63.3994 107.628 58.9918 102.325V102.325C55.9956 99.3293 54.1071 97.9776 51.1007 99.3293C48.0942 100.681 46.7528 104.214 48.1045 107.22V107.22C55.2397 115.782 60.024 126.052 61.987 137.023L62.3064 138.808C63.6581 141.815 67.191 143.156 70.1975 141.804L73.1126 139.549C81.3234 133.195 91.8129 130.556 102.053 132.268V132.268C105.059 130.916 106.034 126.43 104.682 123.424C103.551 120.908 100.657 120.688 97.7953 120.019L97.1744 119.943C91.1091 119.202 84.986 120.758 80.01 124.305V124.305L83.1731 115.511L83.1075 115.525C87.1547 105.231 92.509 97.2958 99.0099 91.4802C108.299 83.1701 120.539 78.6407 136.3 78.3378C151.988 78.0364 164.338 82.2571 173.917 90.5657C180.876 96.6017 186.696 105.076 191.197 116.269C187.768 115.424 184.143 115.01 180.348 115.01C172.319 115.01 165.115 116.867 159.112 120.908C152.387 116.804 145.152 114.647 137.489 114.647C131.307 114.647 125.32 116.05 119.562 118.72C116.712 120.042 115.078 123.009 115.078 126.151V130.551C115.078 133.123 117.355 135.274 119.485 133.833V133.833C125.644 129.666 131.612 127.785 137.489 127.785C143.263 127.785 148.865 129.598 154.418 133.54L154.534 133.623C157.616 135.828 161.807 135.637 164.676 133.161C168.344 129.994 173.364 128.147 180.348 128.147C187.695 128.147 193.392 130.197 197.89 133.994C198.102 134.181 198.326 134.353 198.559 134.51C199.157 134.915 199.804 135.209 200.472 135.394C201.487 135.678 202.584 135.72 203.678 135.473C204.263 135.341 204.831 135.13 205.366 134.84C207.075 133.915 208.268 132.281 208.662 130.42C208.823 129.659 208.85 128.86 208.724 128.055C208.685 127.805 208.632 127.557 208.564 127.312C203.353 107.123 194.833 91.3167 182.525 80.6412C170.085 69.8516 154.403 64.8503 136.048 65.203C117.766 65.5542 102.31 70.901 90.2507 81.6891C79.6328 91.1878 72.1304 104.473 67.4089 121.047Z" fill="url(#paint3_linear_1262_711)"/>
</g>
<ellipse cx="196.742" cy="237.531" rx="5.461" ry="5.46112" fill="url(#paint4_radial_1262_711)"/>
<g filter="url(#filter4_dd_1262_711)">
<ellipse cx="196.741" cy="236.962" rx="4.04941" ry="4.0495" fill="url(#paint5_radial_1262_711)"/>
</g>
<g filter="url(#filter5_f_1262_711)">
<ellipse cx="196.738" cy="236.504" rx="2.24931" ry="0.830188" fill="url(#paint6_linear_1262_711)"/>
</g>
</g>
</g>
<defs>
<filter id="filter0_iii_1262_711" x="0" y="-2.56" width="256" height="261.12" filterUnits="userSpaceOnUse" color-interpolation-filters="sRGB">
<feFlood flood-opacity="0" result="BackgroundImageFix"/>
<feBlend mode="normal" in="SourceGraphic" in2="BackgroundImageFix" result="shape"/>
<feColorMatrix in="SourceAlpha" type="matrix" values="0 0 0 0 0 0 0 0 0 0 0 0 0 0 0 0 0 0 127 0" result="hardAlpha"/>
<feOffset dy="-2.56"/>
<feGaussianBlur stdDeviation="2.56"/>
<feComposite in2="hardAlpha" operator="arithmetic" k2="-1" k3="1"/>
<feColorMatrix type="matrix" values="0 0 0 0 0 0 0 0 0 0 0 0 0 0 0 0 0 0 0.48 0"/>
<feBlend mode="overlay" in2="shape" result="effect1_innerShadow_1262_711"/>
<feColorMatrix in="SourceAlpha" type="matrix" values="0 0 0 0 0 0 0 0 0 0 0 0 0 0 0 0 0 0 127 0" result="hardAlpha"/>
<feOffset dy="4.096"/>
<feGaussianBlur stdDeviation="1.024"/>
<feComposite in2="hardAlpha" operator="arithmetic" k2="-1" k3="1"/>
<feColorMatrix type="matrix" values="0 0 0 0 1 0 0 0 0 1 0 0 0 0 1 0 0 0 0.12 0"/>
<feBlend mode="normal" in2="effect1_innerShadow_1262_711" result="effect2_innerShadow_1262_711"/>
<feColorMatrix in="SourceAlpha" type="matrix" values="0 0 0 0 0 0 0 0 0 0 0 0 0 0 0 0 0 0 127 0" result="hardAlpha"/>
<feOffset dy="4.096"/>
<feGaussianBlur stdDeviation="1.28"/>
<feComposite in2="hardAlpha" operator="arithmetic" k2="-1" k3="1"/>
<feColorMatrix type="matrix" values="0 0 0 0 1 0 0 0 0 1 0 0 0 0 1 0 0 0 1 0"/>
<feBlend mode="soft-light" in2="effect2_innerShadow_1262_711" result="effect3_innerShadow_1262_711"/>
</filter>
<filter id="filter1_d_1262_711" x="-0.8365" y="14.5391" width="258.048" height="210.549" filterUnits="userSpaceOnUse" color-interpolation-filters="sRGB">
<feFlood flood-opacity="0" result="BackgroundImageFix"/>
<feColorMatrix in="SourceAlpha" type="matrix" values="0 0 0 0 0 0 0 0 0 0 0 0 0 0 0 0 0 0 127 0" result="hardAlpha"/>
<feOffset dy="2.048"/>
<feGaussianBlur stdDeviation="0.512"/>
<feComposite in2="hardAlpha" operator="out"/>
<feColorMatrix type="matrix" values="0 0 0 0 1 0 0 0 0 1 0 0 0 0 1 0 0 0 0.45 0"/>
<feBlend mode="overlay" in2="BackgroundImageFix" result="effect1_dropShadow_1262_711"/>
<feBlend mode="normal" in="SourceGraphic" in2="effect1_dropShadow_1262_711" result="shape"/>
</filter>
<filter id="filter2_i_1262_711" x="0.1875" y="-4.096" width="256" height="211.61" filterUnits="userSpaceOnUse" color-interpolation-filters="sRGB">
<feFlood flood-opacity="0" result="BackgroundImageFix"/>
<feBlend mode="normal" in="SourceGraphic" in2="BackgroundImageFix" result="shape"/>
<feColorMatrix in="SourceAlpha" type="matrix" values="0 0 0 0 0 0 0 0 0 0 0 0 0 0 0 0 0 0 127 0" result="hardAlpha"/>
<feOffset dy="-4.096"/>
<feGaussianBlur stdDeviation="3.072"/>
<feComposite in2="hardAlpha" operator="arithmetic" k2="-1" k3="1"/>
<feColorMatrix type="matrix" values="0 0 0 0 1 0 0 0 0 1 0 0 0 0 1 0 0 0 0.25 0"/>
<feBlend mode="normal" in2="shape" result="effect1_innerShadow_1262_711"/>
</filter>
<filter id="filter3_dii_1262_711" x="37.3381" y="60.0655" width="181.707" height="97.6245" filterUnits="userSpaceOnUse" color-interpolation-filters="sRGB">
<feFlood flood-opacity="0" result="BackgroundImageFix"/>
<feColorMatrix in="SourceAlpha" type="matrix" values="0 0 0 0 0 0 0 0 0 0 0 0 0 0 0 0 0 0 127 0" result="hardAlpha"/>
<feOffset dy="5.12"/>
<feGaussianBlur stdDeviation="5.12"/>
<feComposite in2="hardAlpha" operator="out"/>
<feColorMatrix type="matrix" values="0 0 0 0 0 0 0 0 0 0.365053 0 0 0 0 0.369505 0 0 0 1 0"/>
<feBlend mode="normal" in2="BackgroundImageFix" result="effect1_dropShadow_1262_711"/>
<feBlend mode="normal" in="SourceGraphic" in2="effect1_dropShadow_1262_711" result="shape"/>
<feColorMatrix in="SourceAlpha" type="matrix" values="0 0 0 0 0 0 0 0 0 0 0 0 0 0 0 0 0 0 127 0" result="hardAlpha"/>
<feOffset dy="-1.024"/>
<feComposite in2="hardAlpha" operator="arithmetic" k2="-1" k3="1"/>
<feColorMatrix type="matrix" values="0 0 0 0 1 0 0 0 0 1 0 0 0 0 1 0 0 0 0.45 0"/>
<feBlend mode="overlay" in2="shape" result="effect2_innerShadow_1262_711"/>
<feColorMatrix in="SourceAlpha" type="matrix" values="0 0 0 0 0 0 0 0 0 0 0 0 0 0 0 0 0 0 127 0" result="hardAlpha"/>
<feOffset dy="1.024"/>
<feGaussianBlur stdDeviation="1.28"/>
<feComposite in2="hardAlpha" operator="arithmetic" k2="-1" k3="1"/>
<feColorMatrix type="matrix" values="0 0 0 0 0 0 0 0 0 0 0 0 0 0 0 0 0 0 0.25 0"/>
<feBlend mode="overlay" in2="effect2_innerShadow_1262_711" result="effect3_innerShadow_1262_711"/>
</filter>
<filter id="filter4_dd_1262_711" x="188.595" y="230.864" width="16.2896" height="16.2915" filterUnits="userSpaceOnUse" color-interpolation-filters="sRGB">
<feFlood flood-opacity="0" result="BackgroundImageFix"/>
<feColorMatrix in="SourceAlpha" type="matrix" values="0 0 0 0 0 0 0 0 0 0 0 0 0 0 0 0 0 0 127 0" result="hardAlpha"/>
<feOffset dy="0.409595"/>
<feGaussianBlur stdDeviation="0.204798"/>
<feComposite in2="hardAlpha" operator="out"/>
<feColorMatrix type="matrix" values="0 0 0 0 0.0092205 0 0 0 0 0.252391 0 0 0 0 0.238965 0 0 0 1 0"/>
<feBlend mode="normal" in2="BackgroundImageFix" result="effect1_dropShadow_1262_711"/>
<feColorMatrix in="SourceAlpha" type="matrix" values="0 0 0 0 0 0 0 0 0 0 0 0 0 0 0 0 0 0 127 0" result="hardAlpha"/>
<feOffset dy="2.04798"/>
<feGaussianBlur stdDeviation="2.04798"/>
<feComposite in2="hardAlpha" operator="out"/>
<feColorMatrix type="matrix" values="0 0 0 0 0 0 0 0 0 0.779454 0 0 0 0 0.736322 0 0 0 0.5 0"/>
<feBlend mode="normal" in2="effect1_dropShadow_1262_711" result="effect2_dropShadow_1262_711"/>
<feBlend mode="normal" in="SourceGraphic" in2="effect2_dropShadow_1262_711" result="shape"/>
</filter>
<filter id="filter5_f_1262_711" x="194.079" y="235.264" width="5.31919" height="2.47935" filterUnits="userSpaceOnUse" color-interpolation-filters="sRGB">
<feFlood flood-opacity="0" result="BackgroundImageFix"/>
<feBlend mode="normal" in="SourceGraphic" in2="BackgroundImageFix" result="shape"/>
<feGaussianBlur stdDeviation="0.204798" result="effect1_foregroundBlur_1262_711"/>
</filter>
<linearGradient id="paint0_linear_1262_711" x1="128" y1="0" x2="128" y2="256" gradientUnits="userSpaceOnUse">
<stop offset="0.198136" stop-color="#C5C5C5"/>
<stop offset="1" stop-color="#565656"/>
</linearGradient>
<linearGradient id="paint1_linear_1262_711" x1="0.1875" y1="222.016" x2="256.187" y2="222.016" gradientUnits="userSpaceOnUse">
<stop stop-color="#035E62"/>
<stop offset="0.513777" stop-color="#00938B"/>
<stop offset="1" stop-color="#035E62"/>
</linearGradient>
<radialGradient id="paint2_radial_1262_711" cx="0" cy="0" r="1" gradientUnits="userSpaceOnUse" gradientTransform="translate(128.187 113.682) rotate(90) scale(93.8316 279.26)">
<stop stop-color="#035E62"/>
<stop offset="1" stop-color="#008E86"/>
</radialGradient>
<linearGradient id="paint3_linear_1262_711" x1="128.191" y1="65.1855" x2="128.191" y2="137.939" gradientUnits="userSpaceOnUse">
<stop stop-color="#017173"/>
<stop offset="0.365981" stop-color="#01595B"/>
<stop offset="1" stop-color="#025455"/>
</linearGradient>
<radialGradient id="paint4_radial_1262_711" cx="0" cy="0" r="1" gradientUnits="userSpaceOnUse" gradientTransform="translate(196.742 232.07) rotate(90) scale(10.9222 10.922)">
<stop stop-color="#2D2E2E"/>
<stop offset="1" stop-color="#494949"/>
</radialGradient>
<radialGradient id="paint5_radial_1262_711" cx="0" cy="0" r="1" gradientUnits="userSpaceOnUse" gradientTransform="translate(196.741 232.912) rotate(90) scale(8.099 8.09881)">
<stop offset="0.0632437" stop-color="#0E756F"/>
<stop offset="0.226582" stop-color="#1C9992"/>
<stop offset="0.701288" stop-color="#13CABF"/>
<stop offset="0.951303" stop-color="#0C9088"/>
</radialGradient>
<linearGradient id="paint6_linear_1262_711" x1="196.738" y1="235.674" x2="196.738" y2="237.334" gradientUnits="userSpaceOnUse">
<stop offset="0.166647" stop-color="white"/>
<stop offset="0.541669" stop-color="#00FFF1"/>
</linearGradient>
<clipPath id="clip0_1262_711">
<rect width="256" height="256" rx="56" fill="white"/>
</clipPath>
</defs>
</svg>
