<svg width="256" height="256" viewBox="0 0 256 256" fill="none" xmlns="http://www.w3.org/2000/svg">
<rect width="256" height="256" fill="url(#paint0_radial_1201_4949)"/>
<path d="M126.328 38H128.672C177.454 38 217 78.0705 217 127.5C217 176.93 177.454 217 128.672 217H126.328C77.5459 217 38 176.93 38 127.5C38 78.0705 77.5459 38 126.328 38Z" fill="#F7931A"/>
<path d="M126.402 43.6797H128.597C174.282 43.6797 211.317 81.206 211.317 127.497C211.317 173.789 174.282 211.315 128.597 211.315H126.402C80.7175 211.315 43.6825 173.789 43.6825 127.497C43.6825 81.206 80.7175 43.6797 126.402 43.6797Z" fill="black"/>
<path d="M175.789 114.694C178.036 100.962 166.582 93.5803 150.919 88.6554L156 70.0542L143.591 67.2323L138.645 85.3437C135.387 84.602 132.038 83.9022 128.71 83.2088L133.691 64.9781L121.293 62.1562L116.209 80.7514C113.51 80.1902 110.86 79.6355 108.288 79.0518L108.302 78.9938L91.1944 75.0947L87.8945 87.1884C87.8945 87.1884 97.0984 89.1136 96.904 89.2327C101.928 90.3778 102.84 93.4125 102.684 95.8184L96.8969 117.01C97.2432 117.09 97.6917 117.206 98.1868 117.387L96.8794 117.09L88.7635 146.775C88.1486 148.168 86.5908 150.258 83.0788 149.465C83.2024 149.629 74.0622 147.411 74.0622 147.411L67.9039 160.375L84.0504 164.048C87.0536 164.735 89.9967 165.454 92.8906 166.131L87.7567 184.949L100.148 187.771L105.235 169.156C108.616 169.995 111.902 170.769 115.118 171.497L110.051 190.025L122.456 192.846L127.59 174.068C148.742 177.722 164.652 176.248 171.341 158.788C176.736 144.727 171.076 136.617 159.946 131.325C168.051 129.612 174.156 124.746 175.786 114.694H175.789ZM147.442 150.971C143.606 165.032 117.672 157.434 109.26 155.525L116.071 130.599C124.48 132.515 151.442 136.308 147.446 150.971H147.442ZM151.276 114.491C147.778 127.281 126.191 120.782 119.184 119.189L125.36 96.5825C132.366 98.1756 154.922 101.149 151.276 114.491Z" fill="#F7931A" fill-opacity="0.49935"/>
<path d="M68.296 138.016C68.296 136.864 68.1667 136.573 69.3378 135.411C79.625 125.207 90.0356 115.124 100.592 105.199C102.908 103.021 105.852 101.624 108.405 99.7295C115.938 94.1401 124.03 89.7083 132.627 85.9255C139.094 83.0799 145.576 81.5647 152.421 80.1956C153.751 79.9297 155.236 80.3458 156.588 80.1956C157.974 80.0417 159.194 79.5876 160.495 79.1538C161.326 78.8768 163.414 79.0016 162.839 77.8516" fill="black"/>
<path d="M68.296 138.016C68.296 136.864 68.1667 136.573 69.3378 135.411C79.625 125.207 90.0356 115.124 100.592 105.199C102.908 103.021 105.852 101.624 108.405 99.7295C115.938 94.1401 124.03 89.7083 132.627 85.9255C139.094 83.0799 145.576 81.5647 152.421 80.1956C153.751 79.9297 155.236 80.3458 156.588 80.1956C157.974 80.0417 159.194 79.5876 160.495 79.1538C161.326 78.8768 163.414 79.0016 162.839 77.8516" stroke="black" stroke-width="0.0254068"/>
<path d="M66.2129 164.577C64.7383 164.577 66.3583 162.052 66.7338 161.452C68.3453 158.873 70.1642 156.164 72.2032 153.899C73.9047 152.008 76.062 150.651 77.9331 148.95C80.0617 147.015 81.7567 144.625 83.9234 142.7C86.6263 140.297 89.8787 138.78 92.7786 136.709C95.7181 134.609 98.3514 132.212 101.374 130.198C102.89 129.187 104.496 128.272 106.061 127.332C107.896 126.233 109.335 124.235 111.531 123.686C117.263 122.253 123.062 119.85 128.2 116.914C135.445 112.774 142.523 109.167 150.338 106.236C151.72 105.718 152.884 104.572 154.245 103.892C158.658 101.686 163.159 99.3772 167.788 97.6414C170.568 96.5986 173.571 96.2348 176.383 95.2972C179.242 94.3441 182.113 93.0052 184.978 92.4324C186.627 92.1027 188.951 92.1388 190.447 91.3906" fill="black"/>
<path d="M66.2129 164.577C64.7383 164.577 66.3583 162.052 66.7338 161.452C68.3453 158.873 70.1642 156.164 72.2032 153.899C73.9047 152.008 76.062 150.651 77.9331 148.95C80.0617 147.015 81.7567 144.625 83.9234 142.7C86.6263 140.297 89.8787 138.78 92.7786 136.709C95.7181 134.609 98.3514 132.212 101.374 130.198C102.89 129.187 104.496 128.272 106.061 127.332C107.896 126.233 109.335 124.235 111.531 123.686C117.263 122.253 123.062 119.85 128.2 116.914C135.445 112.774 142.523 109.167 150.338 106.236C151.72 105.718 152.884 104.572 154.245 103.892C158.658 101.686 163.159 99.3772 167.788 97.6414C170.568 96.5986 173.571 96.2348 176.383 95.2972C179.242 94.3441 182.113 93.0052 184.978 92.4324C186.627 92.1027 188.951 92.1388 190.447 91.3906" stroke="black" stroke-width="0.0254068"/>
<path d="M91.4767 173.175C89.8757 173.175 92.0044 171.318 92.2584 171.092C94.6637 168.953 97.3296 167.145 99.8111 165.101C101.475 163.731 102.844 162.029 104.499 160.674C109.262 156.777 114.871 153.229 120.126 149.995C127.603 145.394 135.504 141.374 143.567 138.015C146.391 136.838 149.166 135.215 151.901 133.848C154.58 132.508 157.519 132.069 160.235 130.983C164.637 129.222 169.119 127.592 173.779 126.816C175.444 126.538 177 125.28 178.728 124.993C181.22 124.577 183.597 123.914 186.02 123.43C186.58 123.318 188.435 123.47 188.885 123.169C189.548 122.727 189.198 122.648 190.188 122.648" fill="black"/>
<path d="M91.4767 173.175C89.8757 173.175 92.0044 171.318 92.2584 171.092C94.6637 168.953 97.3296 167.145 99.8111 165.101C101.475 163.731 102.844 162.029 104.499 160.674C109.262 156.777 114.871 153.229 120.126 149.995C127.603 145.394 135.504 141.374 143.567 138.015C146.391 136.838 149.166 135.215 151.901 133.848C154.58 132.508 157.519 132.069 160.235 130.983C164.637 129.222 169.119 127.592 173.779 126.816C175.444 126.538 177 125.28 178.728 124.993C181.22 124.577 183.597 123.914 186.02 123.43C186.58 123.318 188.435 123.47 188.885 123.169C189.548 122.727 189.198 122.648 190.188 122.648" stroke="black" stroke-width="0.0254068"/>
<path d="M68.296 138.016C68.296 136.864 68.1667 136.573 69.3378 135.411C79.625 125.207 90.0356 115.124 100.592 105.199C102.908 103.021 105.852 101.624 108.405 99.7295C115.938 94.1401 124.03 89.7083 132.627 85.9255C139.094 83.0799 145.576 81.5647 152.421 80.1956C153.751 79.9297 155.236 80.3458 156.588 80.1956C157.974 80.0417 159.194 79.5876 160.495 79.1538C161.326 78.8768 163.414 79.0016 162.839 77.8516" fill="white"/>
<path d="M68.296 138.016C68.296 136.864 68.1667 136.573 69.3378 135.411C79.625 125.207 90.0356 115.124 100.592 105.199C102.908 103.021 105.852 101.624 108.405 99.7295C115.938 94.1401 124.03 89.7083 132.627 85.9255C139.094 83.0799 145.576 81.5647 152.421 80.1956C153.751 79.9297 155.236 80.3458 156.588 80.1956C157.974 80.0417 159.194 79.5876 160.495 79.1538C161.326 78.8768 163.414 79.0016 162.839 77.8516" stroke="white" stroke-width="0.0254068"/>
<path d="M66.2129 164.577C64.7383 164.577 66.3583 162.052 66.7338 161.452C68.3453 158.873 70.1642 156.164 72.2032 153.899C73.9047 152.008 76.062 150.651 77.9331 148.95C80.0617 147.015 81.7567 144.625 83.9234 142.7C86.6263 140.297 89.8787 138.78 92.7786 136.709C95.7181 134.609 98.3514 132.212 101.374 130.198C102.89 129.187 104.496 128.272 106.061 127.332C107.896 126.233 109.335 124.235 111.531 123.686C117.263 122.253 123.062 119.85 128.2 116.914C135.445 112.774 142.523 109.167 150.338 106.236C151.72 105.718 152.884 104.572 154.245 103.892C158.658 101.686 163.159 99.3772 167.788 97.6414C170.568 96.5986 173.571 96.2348 176.383 95.2972C179.242 94.3441 182.113 93.0052 184.978 92.4324C186.627 92.1027 188.951 92.1388 190.447 91.3906" fill="white"/>
<path d="M66.2129 164.577C64.7383 164.577 66.3583 162.052 66.7338 161.452C68.3453 158.873 70.1642 156.164 72.2032 153.899C73.9047 152.008 76.062 150.651 77.9331 148.95C80.0617 147.015 81.7567 144.625 83.9234 142.7C86.6263 140.297 89.8787 138.78 92.7786 136.709C95.7181 134.609 98.3514 132.212 101.374 130.198C102.89 129.187 104.496 128.272 106.061 127.332C107.896 126.233 109.335 124.235 111.531 123.686C117.263 122.253 123.062 119.85 128.2 116.914C135.445 112.774 142.523 109.167 150.338 106.236C151.72 105.718 152.884 104.572 154.245 103.892C158.658 101.686 163.159 99.3772 167.788 97.6414C170.568 96.5986 173.571 96.2348 176.383 95.2972C179.242 94.3441 182.113 93.0052 184.978 92.4324C186.627 92.1027 188.951 92.1388 190.447 91.3906" stroke="white" stroke-width="0.0254068"/>
<path d="M91.4767 173.175C89.8757 173.175 92.0044 171.318 92.2584 171.092C94.6637 168.953 97.3296 167.145 99.8111 165.101C101.475 163.731 102.844 162.029 104.499 160.674C109.262 156.777 114.871 153.229 120.126 149.995C127.603 145.394 135.504 141.374 143.567 138.015C146.391 136.838 149.166 135.215 151.901 133.848C154.58 132.508 157.519 132.069 160.235 130.983C164.637 129.222 169.119 127.592 173.779 126.816C175.444 126.538 177 125.28 178.728 124.993C181.22 124.577 183.597 123.914 186.02 123.43C186.58 123.318 188.435 123.47 188.885 123.169C189.548 122.727 189.198 122.648 190.188 122.648" fill="white"/>
<path d="M91.4767 173.175C89.8757 173.175 92.0044 171.318 92.2584 171.092C94.6637 168.953 97.3296 167.145 99.8111 165.101C101.475 163.731 102.844 162.029 104.499 160.674C109.262 156.777 114.871 153.229 120.126 149.995C127.603 145.394 135.504 141.374 143.567 138.015C146.391 136.838 149.166 135.215 151.901 133.848C154.58 132.508 157.519 132.069 160.235 130.983C164.637 129.222 169.119 127.592 173.779 126.816C175.444 126.538 177 125.28 178.728 124.993C181.22 124.577 183.597 123.914 186.02 123.43C186.58 123.318 188.435 123.47 188.885 123.169C189.548 122.727 189.198 122.648 190.188 122.648" stroke="white" stroke-width="0.0254068"/>
<defs>
<radialGradient id="paint0_radial_1201_4949" cx="0" cy="0" r="1" gradientUnits="userSpaceOnUse" gradientTransform="translate(128 128) rotate(90) scale(128)">
<stop stop-color="#84551C"/>
<stop offset="1" stop-color="#0C0F13"/>
</radialGradient>
</defs>
</svg>
