<svg width="256" height="256" viewBox="0 0 256 256" fill="none" xmlns="http://www.w3.org/2000/svg">
<g clip-path="url(#clip0_1348_18013)">
<rect width="256" height="256" fill="white"/>
<g clip-path="url(#clip1_1348_18013)">
<path d="M257 1H1V257H257V1Z" fill="white"/>
<path d="M129.071 202.575C173.202 202.575 208.977 166.799 208.977 122.668C208.977 78.5371 173.202 42.7617 129.071 42.7617C84.9394 42.7617 49.1641 78.5371 49.1641 122.668C49.1641 166.799 84.9394 202.575 129.071 202.575Z" stroke="black" stroke-width="9.34579" stroke-miterlimit="10"/>
<path d="M221.991 100.758H36.1449C34.2859 100.758 32.503 101.496 31.1885 102.811C29.874 104.125 29.1355 105.908 29.1355 107.767V114.917C29.0561 116.594 29 118.239 29 119.917C29 175.146 73.771 219.917 129 219.917C183.393 219.917 227.645 176.487 228.967 122.407C228.967 122.202 229 121.996 229 121.786V107.767C229 105.908 228.262 104.125 226.947 102.811C225.633 101.496 223.85 100.758 221.991 100.758Z" fill="black"/>
</g>
</g>
<defs>
<clipPath id="clip0_1348_18013">
<rect width="256" height="256" fill="white"/>
</clipPath>
<clipPath id="clip1_1348_18013">
<rect width="256" height="256" fill="white" transform="translate(1 1)"/>
</clipPath>
</defs>
</svg>
