<svg width="256" height="256" viewBox="0 0 256 256" fill="none" xmlns="http://www.w3.org/2000/svg">
<rect width="256" height="256" fill="url(#paint0_linear_1234_5713)"/>
<mask id="mask0_1234_5713" style="mask-type:alpha" maskUnits="userSpaceOnUse" x="0" y="0" width="256" height="256">
<rect width="256" height="256" fill="#C4C4C4"/>
</mask>
<g mask="url(#mask0_1234_5713)">
<path d="M142.207 43.9019C140.414 45.6949 140.414 48.2574 142.207 48.8941C142.977 49.1519 140.414 54.1441 136.449 60.0309C132.48 65.9215 129.281 71.1676 129.281 71.6793C129.281 72.191 126.078 75.9019 122.238 79.8707C114.816 87.4254 113.922 89.2144 117.246 90.4957C120.32 91.648 130.945 85.8863 143.359 76.4137C152.063 69.6324 154.625 68.3512 156.543 69.2457C158.336 70.273 159.359 69.8863 161.281 67.5855C164.48 63.7418 164.48 62.8473 160.77 54.398C158.465 49.4059 156.543 46.9762 153.984 45.9527C146.434 43.0074 143.617 42.4957 142.207 43.9019Z" fill="#1D240F"/>
<path d="M111.871 58.3681C110.336 59.3915 105.602 61.1845 101.246 62.2079L93.4414 64.2587L89.4727 60.9306C87.2969 59.1376 84.9922 57.6024 84.2227 57.6024C80.8945 57.6024 86.3984 72.3212 94.207 84.7353C96.6406 88.4501 98.1758 89.6024 100.863 89.6024C102.785 89.6024 105.09 88.9618 105.984 88.0634C107.777 86.2743 108.031 77.3134 106.238 76.161C104.703 75.2665 106.879 69.3759 109.953 65.9228C112.641 63.1064 115.586 57.6024 114.945 56.9618C114.687 56.8329 113.281 57.4735 111.871 58.3681Z" fill="#1D240F"/>
<path d="M142.977 81.6633C139.902 84.9914 140.289 86.9094 144 87.8079C146.816 88.4485 147.199 89.343 147.199 94.0774C147.199 100.863 144.77 103.679 138.625 103.679C135.426 103.679 132.734 102.527 129.023 99.3274C124.031 94.9758 118.273 92.5422 116.734 94.0774C116.223 94.4641 116.48 95.2297 117.246 95.7414C119.426 97.1516 121.855 102.398 121.215 104.32C120.832 105.214 118.91 106.238 116.863 106.495C114.945 106.878 112.383 107.519 111.23 108.031C109.695 108.671 108.414 107.648 106.625 104.191C105.09 101.245 102.527 98.6868 100.223 97.6633L96.2578 96.1282L97.4062 100.863C99.1992 108.413 98.8164 109.695 94.7188 111.105C91.2656 112.382 90.625 112.128 88.7031 109.183C84.8633 103.55 79.6172 98.9446 76.1602 98.3039C71.9375 97.4055 71.2969 98.4329 74.2383 100.991C75.7773 102.144 76.8008 105.089 77.0547 108.031C77.4414 112.769 77.1836 113.152 73.0898 114.175C70.6563 114.816 67.3281 115.198 65.6641 114.816C63.1055 114.304 62.7188 114.687 63.4883 116.991C64.6406 120.448 71.6797 129.281 73.4727 129.406C74.2383 129.534 75.5195 129.534 76.4141 129.406C78.207 129.152 78.9766 131.585 80 140.929L80.8945 147.968L72.7031 150.398C48.3828 157.312 43.5195 158.718 36.4805 160.128C32.2578 161.023 28.2891 162.046 27.7773 162.687C27.1367 163.198 29.9531 166.015 33.9219 169.089L41.3438 174.593L44.6719 170.624C46.4648 168.448 50.0469 166.144 52.4805 165.374C54.9102 164.609 60.6719 162.558 65.2813 160.769C69.8867 158.847 76.6719 157.054 80.5117 156.542C84.3516 156.159 88.9609 155.007 90.7539 153.984C92.6719 153.089 96.6406 152.32 99.8398 152.32C103.168 152.32 106.367 151.679 107.008 151.038C108.16 149.886 134.145 146.816 140.16 147.07C141.566 147.198 146.176 147.198 150.398 147.07C159.742 146.945 190.719 152.831 202.879 156.929C213.504 160.511 214.273 160.64 216.832 157.952C222.207 152.702 217.602 144.894 206.078 139.265C200.703 136.702 198.527 136.573 178.047 136.831L155.777 137.089L156.672 132.222C157.184 129.534 157.953 124.288 158.336 120.573C158.719 116.734 159.742 113.406 160.512 113.152C161.281 112.894 166.016 114.046 170.879 115.71L179.84 118.909L180.223 114.304C180.734 108.929 178.688 106.366 170.238 102.144C166.145 100.097 164.352 98.3039 164.098 96.1282C163.328 91.5188 157.953 84.9914 152.191 82.0461C146.047 78.718 145.535 78.718 142.977 81.6633ZM144.641 117.245C144.641 119.808 143.742 123.648 142.848 125.823C141.824 128.128 140.801 131.585 140.543 133.761C140.289 136.831 139.52 137.726 136.832 137.984L133.633 138.366L133.504 126.464C133.375 113.534 133.762 112.64 140.543 112.64C144.383 112.64 144.641 112.894 144.641 117.245ZM120.703 116.863C120.961 117.761 120.961 120.702 120.449 123.519C119.938 126.335 119.938 131.198 120.449 134.398C120.961 137.601 121.215 140.159 121.09 140.288C121.09 140.413 118.273 140.8 114.945 141.183L108.93 141.952L108.543 130.816C108.289 124.671 108.289 119.038 108.543 118.144C108.801 117.245 111.105 116.351 113.664 116.097C116.352 115.839 118.785 115.585 119.168 115.456C119.68 115.327 120.32 115.968 120.703 116.863ZM98.8164 129.281C98.9453 134.909 99.0703 140.542 99.0703 141.695C99.1992 144.128 92.2891 146.558 90.4961 144.769C89.8555 144.128 89.3438 139.519 89.3438 134.527C89.3438 124.413 91.6484 119.038 96 119.038C98.3047 119.038 98.5586 120.062 98.8164 129.281Z" fill="#1D240F"/>
<path d="M122.496 165.376C121.727 170.626 127.359 189.314 130.047 190.337C132.863 191.361 138.238 185.728 138.238 181.763C138.238 179.841 139.648 175.618 141.441 172.29L144.641 166.275L140.16 167.169C136.574 167.81 135.039 167.298 131.711 164.611C126.207 160.001 123.391 160.259 122.496 165.376Z" fill="#1D240F"/>
<path d="M97.2812 166.143C97.2812 168.061 96.6406 170.366 95.8711 171.135C94.8477 172.159 94.8477 174.334 96 179.455C98.8164 191.998 99.0703 192.639 102.527 193.022C107.52 193.663 109.184 190.463 109.184 180.608C109.184 172.159 109.055 171.776 104.191 167.295C98.1758 161.663 97.2812 161.534 97.2812 166.143Z" fill="#1D240F"/>
<path d="M153.215 163.709C151.168 164.478 151.297 164.861 154.496 167.166C156.672 168.83 161.023 175.615 165.121 183.806C168.961 191.486 173.312 199.037 174.594 200.572C177.793 204.287 184.961 204.541 186.754 201.213C188.414 198.014 186.113 188.029 182.273 182.396C180.609 179.838 179.199 177.404 179.199 176.767C179.199 175.615 173.312 170.111 168.32 166.783C164.098 163.967 156.801 162.431 153.215 163.709Z" fill="#1D240F"/>
<path d="M67.9687 173.441C61.4414 180.992 59.7773 186.113 61.5664 194.434C63.1055 201.855 65.1523 207.359 66.4336 207.359C70.2734 207.105 76.9297 193.281 79.3594 180.223C80.1289 176.129 79.8711 174.848 77.0547 172.16C75.3906 170.367 73.4727 168.961 72.9609 168.961C72.3203 168.961 70.1445 171.008 67.9687 173.441Z" fill="#1D240F"/>
</g>
<defs>
<linearGradient id="paint0_linear_1234_5713" x1="4" y1="1.3411e-07" x2="252" y2="256" gradientUnits="userSpaceOnUse">
<stop stop-color="#C4E38A"/>
<stop offset="1" stop-color="#EBECCD"/>
</linearGradient>
</defs>
</svg>
