<svg width="256" height="256" viewBox="0 0 256 256" fill="none" xmlns="http://www.w3.org/2000/svg">
<path d="M255.871 0.125H0.128601V255.868H255.871V0.125Z" fill="#111316"/>
<path fill-rule="evenodd" clip-rule="evenodd" d="M87.4287 159.503C84.3504 159.503 81.4237 157.705 80.1432 154.711C75.7917 144.539 73.5886 133.732 73.5886 122.592C73.5886 81.1584 104.733 46.1042 146.034 41.058C150.378 40.5363 154.319 43.5922 154.854 47.9066C155.388 52.2186 152.303 56.1448 147.966 56.6739C114.584 60.7559 89.413 89.0925 89.413 122.592C89.413 131.606 91.1958 140.341 94.7068 148.552C96.4176 152.55 94.5427 157.174 90.522 158.872C89.5099 159.3 88.4606 159.503 87.4287 159.503Z" fill="#2CCCBF"/>
<path fill-rule="evenodd" clip-rule="evenodd" d="M104.525 116.523C104.083 116.523 103.631 116.468 103.184 116.351C100.309 115.606 98.58 112.65 99.3185 109.752C106.155 82.9524 130.102 64.2422 157.558 64.2422C171.567 64.2422 185.205 69.2063 195.961 78.225C198.243 80.1339 198.556 83.553 196.66 85.8532C194.768 88.1558 191.379 88.4723 189.097 86.5609C180.265 79.1571 169.065 75.0776 157.558 75.0776C135.004 75.0776 115.335 90.446 109.721 112.451C109.099 114.9 106.916 116.523 104.525 116.523Z" fill="#9EF2ED"/>
<path fill-rule="evenodd" clip-rule="evenodd" d="M153.616 180.267C147.23 179.833 141.001 178.403 135.105 176.005C132.315 174.87 130.955 171.644 132.065 168.798C133.18 165.954 136.341 164.567 139.131 165.699C143.969 167.668 149.085 168.844 154.338 169.201C161.592 169.693 168.685 168.617 175.424 165.998C178.232 164.911 181.372 166.347 182.44 169.209C183.508 172.07 182.1 175.276 179.294 176.367C171.081 179.555 162.444 180.866 153.616 180.267Z" fill="#9EF2ED"/>
<mask id="mask0_1516_6546" style="mask-type:alpha" maskUnits="userSpaceOnUse" x="55" y="67" width="75" height="149">
<path d="M55 67.4688H129.103V215.266H55V67.4688Z" fill="white"/>
</mask>
<g mask="url(#mask0_1516_6546)">
<path fill-rule="evenodd" clip-rule="evenodd" d="M123.713 215.267C123.193 215.267 122.662 215.19 122.139 215.029C82.6101 202.974 54.9997 164.297 54.9997 121.469C54.9997 103.131 60.212 85.3152 70.0739 69.9486C71.6775 67.4429 75.011 66.7142 77.5193 68.3252C80.025 69.9313 80.7537 73.2673 79.1451 75.7731C70.4011 89.3973 65.7787 105.2 65.7787 121.469C65.7787 159.598 90.2488 194.036 125.285 204.719C128.132 205.589 129.736 208.6 128.866 211.448C128.157 213.77 126.023 215.267 123.713 215.267Z" fill="#9EF2ED"/>
</g>
<path fill-rule="evenodd" clip-rule="evenodd" d="M156.704 201.322C133.174 201.322 111.688 192.484 97.2733 176.749C94.9725 174.236 95.1593 170.352 97.6887 168.066C100.218 165.785 104.134 165.968 106.437 168.481C119.168 182.374 138.752 189.856 160.084 188.961C163.513 188.8 166.384 191.457 166.526 194.848C166.669 198.236 164.014 201.103 160.595 201.244C159.294 201.296 157.992 201.322 156.704 201.322Z" fill="#2CCCBF"/>
</svg>
