<svg width="256" height="256" viewBox="0 0 256 256" fill="none" xmlns="http://www.w3.org/2000/svg">
<rect width="256" height="256" fill="#131313"/>
<path d="M124.427 203.097L96.5854 189.048L66.53 201.777L36.4747 214.548L36.347 143.369C36.3044 104.246 36.3896 72.0624 36.5173 71.9347C36.6876 71.807 50.1401 66.0599 66.53 59.1208L96.2448 46.4345L124.214 60.4831C139.625 68.231 152.311 74.5316 152.524 74.5316C152.737 74.5316 166.573 67.933 183.218 59.9296C199.863 51.9262 214.934 44.6891 216.636 43.9654L219.616 42.5605L219.489 113.867L219.361 185.174L186.07 201.139C167.765 209.908 152.609 217.103 152.439 217.103C152.439 217.145 139.753 210.845 124.427 203.097Z" fill="url(#paint0_linear_1609_466)"/>
<path d="M74.2761 53.457C72.8712 56.6499 72.3178 61.9287 74.1484 65.0364C75.5958 67.463 78.1926 68.2718 80.7043 69.4638C82.6626 70.4004 84.6209 71.4221 86.3238 72.6567C93.0074 77.5523 98.0734 86.1517 96.1151 94.6234C96.0726 94.8789 95.3489 98.0717 95.2637 98.4548C94.1143 101.052 89.0909 105.82 86.4515 107.054C86.2812 107.097 83.4289 107.821 83.0883 107.906C80.2786 108.672 77.2986 109.353 74.8721 111.099C73.5098 112.078 68.4012 116.718 67.635 118.165C67.2518 118.932 67.039 119.698 66.6984 120.422C65.549 122.763 63.8887 125.104 62.2284 127.105C60.6958 128.936 61.079 128.127 59.3761 129.702C56.3961 132.427 53.331 134.938 50.2233 137.535C48.7759 138.727 49.3719 138.514 47.8819 139.621C45.7108 141.196 38.3033 145.411 35.6214 143.623C32.8117 141.792 34.8551 134.385 34.3868 131.746C34.0462 129.787 32.9819 127.999 32.5137 126.084C31.9602 123.912 32.6414 121.869 32.7265 119.74C32.8542 117.697 32.9394 115.526 32.7265 113.482C32.4711 111.141 31.6622 109.481 31.6622 106.927C31.6622 105.053 31.5345 103.01 31.6622 101.179C31.7048 100.498 32.0028 99.8171 32.0879 99.136C32.4711 96.5391 32.7265 93.7294 32.5137 91.09C32.3859 89.7703 35.2382 85.8537 34.9828 84.534C34.5145 81.5115 31.4919 81.4689 31.9177 78.4889C32.1305 76.9138 32.0454 74.9981 32.7265 73.5932C33.1522 72.8269 33.4928 71.5924 34.1314 70.9964C35.9619 69.1658 40.6873 68.0164 43.0713 67.2927C44.6039 66.8244 46.0513 66.1007 47.4562 65.4195C49.0739 64.6533 50.3084 63.589 51.841 62.6524C53.5864 61.6307 55.6299 61.0347 57.4604 60.2258C62.9095 57.7993 68.3161 54.9896 74.2761 53.457ZM136.941 115.952C136.388 115.696 135.962 115.27 135.366 115.185C134.429 115.058 132.897 115.611 131.918 115.952C127.788 117.271 122.892 119.315 120.892 123.444C119.316 126.807 120.04 130.256 120.296 133.704C120.679 137.833 120.636 142.303 121.828 146.348C123.701 152.52 129.576 160.055 136.047 161.631C138.857 162.312 140.262 162.099 143.454 161.758C149.116 161.12 154.821 157.927 158.652 153.712C160.185 152.095 161.377 150.136 162.867 148.519C164.442 146.773 165.591 145.07 166.826 143.155C168.571 140.515 169.678 138.557 168.486 135.279C167.933 133.917 166.06 132.342 165.038 131.32C162.654 128.851 160.696 126.467 160.44 122.891C160.185 119.868 160.866 116.803 160.483 113.738C160.057 109.949 158.865 106.288 157.758 102.627C156.822 99.3914 155.204 95.6451 152.011 93.9423C144.348 89.7277 134.387 95.3471 128.001 99.6894C127.064 100.328 126 100.669 125.149 101.307C124.382 101.861 123.829 102.542 123.148 103.138C121.786 104.287 120.338 105.394 118.933 106.586C115.783 109.055 111.483 111.397 110.717 115.654C110.377 117.484 114.208 117.399 115.145 117.314C119.614 117.186 124.127 114.972 127.916 112.716C129.15 111.95 130.683 111.099 132.13 110.758C133.706 110.417 135.408 110.29 136.898 111.013C137.58 111.397 138.048 112.333 138.559 112.844C140.347 114.972 140.517 116.59 136.941 115.952ZM47.1582 212.078C49.4145 210.673 50.8619 208.374 52.735 206.501C58.1841 201.052 62.6115 194.623 66.6984 188.025C69.423 183.597 71.4664 178.531 74.6592 174.359C76.1918 172.316 78.3204 170.869 80.2361 169.208C82.2795 167.463 83.9823 165.845 86.5792 164.994C94.0717 162.354 99.6486 165.93 105.396 170.443C107.141 171.805 108.844 172.529 110.717 173.636C112.803 174.828 114.463 176.658 116.677 177.765C121.062 179.979 126.17 180.532 130.896 181.171C134.387 181.597 137.835 182.363 141.241 183.214C149.287 185.087 157.673 187.471 157.205 197.561C157.035 200.498 155.587 203.734 153.288 205.607C151.33 207.182 148.818 207.224 146.52 207.65C143.667 208.204 140.687 209.012 137.75 209.055C136.175 209.098 132.173 207.82 130.385 207.437C128.512 207.012 126.341 206.969 124.638 206.032C122.765 205.011 121.232 203.393 119.487 202.116C117.103 200.37 118.933 201.775 117.06 200.711C115.443 199.732 114.038 198.455 112.377 197.518C109.908 196.113 105.609 195.73 102.714 195.177C99.9466 194.581 97.3497 193.559 94.4974 193.176C87.7286 192.367 80.1083 195.986 74.4464 199.604C73.2118 200.37 72.0198 201.35 70.7852 202.201C69.4655 203.138 67.9755 203.819 66.5281 204.585C62.8244 206.586 58.9504 208.161 55.3319 210.119C54.3527 210.673 49.755 213.099 48.861 212.886C48.3076 212.801 47.7542 211.865 47.1582 212.078C46.0939 212.418 45.583 213.866 44.5613 214.334ZM218.848 145.964C216.124 146.22 213.314 145.837 210.76 146.731C204.8 148.732 196.711 154.181 194.072 160.566C193.093 162.993 192.624 165.59 192.411 168.187C192.284 169.591 192.369 171.039 191.986 172.444C191.219 175.509 189.729 178.829 187.729 181.299C186.324 183.087 184.451 184.491 182.748 185.939C178.746 189.43 171.211 197.603 171.977 203.691C172.105 204.457 172.36 204.755 172.999 205.096C174.021 205.564 176.149 204.84 177.213 204.67C181.002 204.117 183.173 204.032 186.835 202.244C187.601 201.86 188.239 201.562 188.921 201.264C191.901 199.902 194.71 198.327 197.605 196.837C198.669 196.241 199.946 195.986 201.053 195.432C202.075 194.879 202.926 194.112 203.991 193.644C204.757 193.261 205.566 193.091 206.332 192.835C207.184 192.41 208.078 191.899 208.929 191.431C209.951 190.877 211.185 190.792 212.335 190.494C213.101 190.281 213.654 189.855 214.336 189.643C215.102 189.302 216.081 189.387 216.89 189.174C217.656 188.961 218.082 188.153 218.72 187.727C219.061 187.514 219.487 187.471 219.7 187.131C219.912 186.79 219.827 186.365 220.04 186.067C220.253 185.641 220.806 185.471 220.977 185.045C221.828 183.214 221.147 178.957 221.19 176.871C221.232 174.657 221.402 172.529 221.573 170.315C221.7 168.655 221.445 166.909 221.445 165.249C221.445 164.483 221.658 163.844 221.615 163.078C221.573 162.312 221.402 161.631 221.402 160.864C221.402 159.332 221.402 161.035 221.658 159.63C221.828 158.608 221.658 157.373 221.7 156.352C221.743 155.16 222.041 153.968 221.913 152.733C221.871 151.924 221.317 151.371 221.275 150.562C221.147 149.796 221.615 147.795 221.275 147.284C221.062 146.944 220.466 147.114 220.21 146.901C219.657 146.688 219.274 146.305 218.848 145.964ZM182.279 59.5021C183.94 70.6984 181.215 80.958 178.278 91.5583C176.745 97.0926 176.192 102.584 175.851 108.246C175.681 111.013 175.425 111.226 175.723 114.291C175.894 116.037 176.575 118.08 177.341 119.655C177.937 120.89 179.512 121.656 180.704 121.912C187.729 123.785 193.731 120.847 197.179 114.504C200.457 108.459 199.436 102.542 199.052 96.0283C198.84 92.5374 198.669 88.7486 198.925 85.2152C199.265 81.0006 201.351 77.1266 203.182 73.3804C204.246 71.1241 204.97 68.5698 205.906 66.1858C206.545 64.5681 207.226 63.3335 207.78 61.5881C208.546 59.3318 208.12 57.1181 208.376 54.8619C208.588 52.861 209.738 51.1582 210.249 49.285C210.76 47.3693 211.185 45.4962 211.654 43.623" fill="url(#paint1_linear_1609_466)"/>
<path d="M97.3906 41.5801L152.733 69.7623V222.721L97.3906 194.496V41.5801Z" fill="#6D6D6D" fill-opacity="0.3191"/>
<path d="M234.472 19.0176L152.65 58.2683L96.8394 30.2138L21.4883 62.1423V236.982L96.0306 205.352L152.48 233.747L234.515 194.411L234.472 19.0176ZM152.736 206.076L96.882 177.979L46.3073 199.435V78.5748L95.9454 57.5446L152.395 85.9396L209.653 58.4811V178.702L152.736 206.076Z" fill="#131313"/>
<defs>
<linearGradient id="paint0_linear_1609_466" x1="127.976" y1="42.5605" x2="127.976" y2="217.103" gradientUnits="userSpaceOnUse">
<stop stop-color="#48B5FF"/>
<stop offset="1" stop-color="#0067AD"/>
</linearGradient>
<linearGradient id="paint1_linear_1609_466" x1="126.775" y1="43.623" x2="126.775" y2="214.334" gradientUnits="userSpaceOnUse">
<stop stop-color="#00FF00"/>
<stop offset="1" stop-color="#00AF00"/>
</linearGradient>
</defs>
</svg>
