<svg width="256" height="256" viewBox="0 0 256 256" fill="none" xmlns="http://www.w3.org/2000/svg">
<rect width="256" height="256" fill="#212121"/>
<path d="M127.5 224C180.795 224 224 180.795 224 127.5C224 74.2045 180.795 31 127.5 31C74.2045 31 31 74.2045 31 127.5C31 180.795 74.2045 224 127.5 224Z" fill="#808080"/>
<path d="M127.5 219C178.034 219 219 178.034 219 127.5C219 76.9659 178.034 36 127.5 36C76.9659 36 36 76.9659 36 127.5C36 178.034 76.9659 219 127.5 219Z" fill="#212121"/>
<path d="M106.331 123.958L139.451 95.3685C140.894 94.4426 142.27 95.3685 141.389 96.9568L130.819 117.782H149.669C149.669 117.782 152.664 117.782 149.669 120.252L117.077 149.019C114.787 150.96 113.202 149.901 114.787 146.901L125.005 126.606H106.331C106.331 126.606 103.336 126.606 106.331 123.958V123.958Z" fill="#FBC02D"/>
<path d="M127.5 70C76.9652 70 36 123 36 123C36 123 76.9652 176 127.5 176C178.034 176 219 123 219 123C219 123 178.034 70 127.5 70V70ZM127.5 159.692C107.021 159.692 90.4178 143.264 90.4178 123C90.4178 102.736 107.021 86.3077 127.5 86.3077C147.979 86.3077 164.582 102.736 164.582 123C164.582 143.264 147.979 159.692 127.5 159.692Z" fill="#FBC02D"/>
</svg>
