<svg width="256" height="256" viewBox="0 0 256 256" fill="none" xmlns="http://www.w3.org/2000/svg">
<rect width="256" height="256" fill="#B5F397"/>
<path fill-rule="evenodd" clip-rule="evenodd" d="M124.134 120.935C144.371 124.409 160.528 134.39 172.603 150.879C175.414 155.849 177.359 161.094 178.439 166.613C178.604 170.26 178.435 173.813 177.932 177.271C177.389 176.018 176.713 174.834 175.902 173.718C175.977 173.184 175.893 172.677 175.648 172.195C171.555 167.762 167.832 163.025 164.482 157.985C149.257 141.379 130.563 135.543 108.401 140.475C99.7285 143.458 91.6081 147.518 84.0393 152.656C70.897 164.926 64.2991 180.067 64.2458 198.079C64.2514 208.849 66.3658 219.169 70.5899 229.038C75.4023 237.641 79.3777 246.607 82.5168 255.937C69.1521 255.937 55.7869 255.937 42.4222 255.937C40.4875 251.049 38.5422 246.142 36.5857 241.219C35.1971 235.815 33.5903 230.571 31.7642 225.486C30.4401 216.081 29.594 206.691 29.2266 197.318C29.4164 188.936 30.2624 180.561 31.7642 172.195C37.5952 157.77 46.8996 146.012 59.6781 136.922C71.6329 127.607 85.1671 122.109 100.28 120.428C108.251 119.67 116.202 119.839 124.134 120.935Z" fill="#15C002"/>
<path fill-rule="evenodd" clip-rule="evenodd" d="M175.902 173.718C175.733 173.718 175.563 173.718 175.394 173.718C159.975 157.153 140.858 150.133 118.044 152.656C106.836 155.168 97.6154 160.836 90.3837 169.658C89.4874 171.137 88.7261 172.659 88.0998 174.225C87.069 175.708 86.4767 177.4 86.3235 179.301C85.9849 182.177 85.9849 185.052 86.3235 187.929C86.43 188.719 86.6838 189.396 87.0848 189.959C87.9623 194.08 89.6539 197.802 92.16 201.124C95.0717 207.168 98.7091 212.751 103.072 217.873C110.294 228.933 116.723 240.437 122.358 252.384C122.77 253.367 123.024 254.382 123.119 255.43C109.672 255.936 96.1385 256.105 82.517 255.937C79.378 246.607 75.4025 237.641 70.5902 229.038C66.366 219.169 64.2517 208.849 64.2461 198.079C64.2994 180.067 70.8972 164.926 84.0396 152.656C91.6083 147.518 99.7287 143.458 108.401 140.475C130.563 135.543 149.257 141.379 164.482 157.985C167.833 163.025 171.555 167.762 175.648 172.195C175.893 172.676 175.977 173.184 175.902 173.718Z" fill="#189302"/>
</svg>
