<svg width="256" height="256" viewBox="0 0 256 256" fill="none" xmlns="http://www.w3.org/2000/svg">
<g clip-path="url(#clip0_1874_926)">
<rect width="256" height="256" fill="#2970FF"/>
<g clip-path="url(#clip1_1874_926)">
<path d="M220 36H36V220H220V36Z" fill="#2970FF"/>
<path d="M176.846 163.902L210.792 197.712H177.457L121.466 141.937H156.325C171.728 141.937 184.22 129.466 184.227 114.063C184.227 98.6606 171.757 86.1688 156.354 86.1616H144.998L116.809 58.2741H154.809C185.658 58.2022 210.728 83.15 210.8 114.006V114.049C210.8 136.711 200.78 154.4 176.853 163.902H176.846Z" fill="white"/>
<path d="M79.1425 92.0913L45.2031 58.2812H78.5819L134.572 114.056H99.9287C84.5259 114.056 72.0341 126.527 72.0269 141.929C72.0269 157.332 84.4972 169.824 99.9 169.831H111.213L139.187 197.719H101.194C70.345 197.791 45.275 172.843 45.2031 141.987V141.944C45.2031 119.282 55.2225 101.593 79.1497 92.0913H79.1425Z" fill="white"/>
</g>
</g>
<defs>
<clipPath id="clip0_1874_926">
<rect width="256" height="256" fill="white"/>
</clipPath>
<clipPath id="clip1_1874_926">
<rect width="184" height="184" fill="white" transform="translate(36 36)"/>
</clipPath>
</defs>
</svg>
