<svg width="256" height="256" viewBox="0 0 256 256" fill="none" xmlns="http://www.w3.org/2000/svg">
<g clip-path="url(#clip0_640_2219)">
<rect width="256" height="256" fill="url(#paint0_linear_640_2219)"/>
<g filter="url(#filter0_d_640_2219)">
<path fill-rule="evenodd" clip-rule="evenodd" d="M76.1809 51.3398H48.7463V125.433H76.1809V51.3398ZM207.695 51.3398H133.601V125.433H207.695V51.3398ZM91.1621 51.3398H118.597V125.433H91.1621V51.3398ZM180.294 147.649H161.002V169.046H139.605V188.338H161.002V209.735H180.294V188.338H201.691V169.046H180.294V147.649ZM83.6715 214.059C103.204 214.059 119.038 198.225 119.038 178.692C119.038 159.16 103.204 143.326 83.6715 143.326C64.1393 143.326 48.3053 159.16 48.3053 178.692C48.3053 198.225 64.1393 214.059 83.6715 214.059Z" fill="url(#paint1_linear_640_2219)"/>
</g>
</g>
<defs>
<filter id="filter0_d_640_2219" x="20.3053" y="23.3398" width="287.389" height="290.719" filterUnits="userSpaceOnUse" color-interpolation-filters="sRGB">
<feFlood flood-opacity="0" result="BackgroundImageFix"/>
<feColorMatrix in="SourceAlpha" type="matrix" values="0 0 0 0 0 0 0 0 0 0 0 0 0 0 0 0 0 0 127 0" result="hardAlpha"/>
<feOffset dx="36" dy="36"/>
<feGaussianBlur stdDeviation="32"/>
<feComposite in2="hardAlpha" operator="out"/>
<feColorMatrix type="matrix" values="0 0 0 0 0.156863 0 0 0 0 0.247059 0 0 0 0 0.352941 0 0 0 0.15 0"/>
<feBlend mode="normal" in2="BackgroundImageFix" result="effect1_dropShadow_640_2219"/>
<feBlend mode="normal" in="SourceGraphic" in2="effect1_dropShadow_640_2219" result="shape"/>
</filter>
<linearGradient id="paint0_linear_640_2219" x1="0" y1="0" x2="244.758" y2="243.77" gradientUnits="userSpaceOnUse">
<stop stop-color="white"/>
<stop offset="0.541668" stop-color="white"/>
<stop offset="1" stop-color="#DAE6F3"/>
</linearGradient>
<linearGradient id="paint1_linear_640_2219" x1="48.3053" y1="51.3398" x2="207.695" y2="214.059" gradientUnits="userSpaceOnUse">
<stop stop-color="#617B9B"/>
<stop offset="1" stop-color="#182D47"/>
</linearGradient>
<clipPath id="clip0_640_2219">
<rect width="256" height="256" fill="white"/>
</clipPath>
</defs>
</svg>
