<svg width="257" height="257" viewBox="0 0 257 257" fill="none" xmlns="http://www.w3.org/2000/svg">
<g clip-path="url(#clip0_1296_5446)">
<rect width="256" height="256" transform="translate(0.457031 0.888672)" fill="#F26822"/>
<g clip-path="url(#clip1_1296_5446)">
<path d="M256 127.999C256 198.681 198.695 255.986 127.999 255.986C57.3028 255.986 0 198.681 0 127.999C0 57.3173 57.3055 0.0117188 127.998 0.0117188C198.691 0.0117188 255.999 57.3105 255.999 127.999H256Z" fill="white"/>
<rect x="-2.09375" y="168.404" width="59.8125" height="26.1133" fill="white"/>
<rect x="204.723" y="168.404" width="59.8125" height="26.1133" fill="white"/>
<path d="M127.995 0C57.3249 0 -0.0774616 57.3853 0.0118228 127.984C0.0295433 142.109 2.2821 155.695 6.50981 168.404H41.8053C43.4622 168.404 44.8053 167.061 44.8053 165.404V67.9784C44.8053 65.3057 48.0366 63.9672 49.9265 65.857L125.873 141.796C127.044 142.968 128.943 142.968 130.115 141.796L206.061 65.857C207.951 63.9672 211.182 65.3057 211.182 67.9784V165.404C211.182 167.061 212.525 168.404 214.182 168.404H249.483C253.717 155.696 255.959 142.109 255.983 127.984C256.107 57.3131 198.672 0.0170372 127.994 0.0170372L127.995 0Z" fill="#F26822"/>
<path d="M108.867 163.04L72.5622 126.737V194.486H44.8057L-66.6641 194.491C-44.1978 231.346 -13.318 312.117 127.998 312.117C262.429 312.117 276.025 231.34 298.494 194.485H211.184L186.358 194.486H183.425V126.736L147.119 163.039L127.993 182.162L108.867 163.04Z" fill="#4D4D4D"/>
</g>
<path d="M108.867 163.339L72.5622 127.192V194.651H44.8057L-66.6641 194.655C-44.1978 231.352 -13.318 311.776 127.998 311.776C262.429 311.776 276.025 231.346 298.494 194.649H211.184L186.358 194.65H183.425V127.191L147.119 163.338L127.994 182.379L108.867 163.339Z" fill="#4D4D4D"/>
</g>
<defs>
<clipPath id="clip0_1296_5446">
<rect width="256" height="256" fill="white" transform="translate(0.457031 0.888672)"/>
</clipPath>
<clipPath id="clip1_1296_5446">
<rect width="256" height="256" fill="white"/>
</clipPath>
</defs>
</svg>
