<svg width="256" height="256" viewBox="0 0 256 256" fill="none" xmlns="http://www.w3.org/2000/svg">
<g clip-path="url(#clip0_1353_801)">
<rect width="256" height="256" fill="#399180"/>
<g clip-path="url(#clip1_1353_801)">
<path d="M0 0H256.008V256.008H0V0Z" fill="url(#paint0_linear_1353_801)"/>
<g filter="url(#filter0_f_1353_801)">
<path d="M68.2776 63.512C55.8578 63.512 45.2167 73.2847 45.2167 85.7113V85.7207L45.3386 182.405L42.2188 205.424L84.6381 194.154H190.089C202.511 194.154 213.151 184.368 213.151 171.943V85.7113C213.151 73.2888 202.516 63.5174 190.099 63.512H190.089H68.2776ZM68.2776 79.1803H190.099C194.464 79.1857 197.482 82.3598 197.482 85.7099V171.943C197.482 175.296 194.459 178.472 190.09 178.472H82.3379L60.7875 184.984L61.0069 183.714L60.8877 85.7113C60.8877 82.3571 63.9087 79.1803 68.2776 79.1803Z" fill="white"/>
</g>
<path d="M189.715 70.6223H70.5182C62.3208 70.6223 55.6185 76.9508 55.6185 84.6823L55.7312 179.927L53.5039 192.758L85.4076 183.127H189.715C197.908 183.127 204.615 176.799 204.615 169.062V84.6823C204.615 76.9508 197.908 70.6223 189.715 70.6223Z" fill="url(#paint1_linear_1353_801)"/>
<path d="M68.2776 63.512C55.8578 63.512 45.2167 73.2847 45.2167 85.7113V85.7207L45.3386 182.405L42.2188 205.424L84.6381 194.154H190.089C202.511 194.154 213.151 184.368 213.151 171.943V85.7113C213.151 73.2888 202.516 63.5174 190.099 63.512H190.089H68.2776ZM68.2776 79.1803H190.099C194.464 79.1857 197.482 82.3598 197.482 85.7099V171.943C197.482 175.296 194.459 178.472 190.09 178.472H82.3379L60.7875 184.984L61.0069 183.714L60.8877 85.7113C60.8877 82.3571 63.9087 79.1803 68.2776 79.1803Z" fill="white"/>
<path d="M81.082 152.846V141.237L105.496 128.327C106.285 127.926 107.044 127.625 107.773 127.424C108.557 127.159 109.259 126.958 109.88 126.823L111.897 126.628V125.831C111.222 125.761 110.55 125.625 109.88 125.424C109.259 125.289 108.557 125.121 107.773 124.92C107.044 124.655 106.285 124.321 105.496 123.92L81.082 111.01V99.3032L118.804 119.823V132.326L81.082 152.846Z" fill="white"/>
<path d="M79.1406 95.6841V112.523L104.723 126.061L104.887 126.123L104.723 126.194L79.1406 139.733V156.474L81.8946 154.97L120.755 133.822V118.337L79.1406 95.6841ZM83.0483 102.913L116.848 121.319V130.84L83.0483 149.227V142.75L106.271 130.459L106.293 130.442C106.914 130.122 107.556 129.867 108.214 129.681H108.258L108.318 129.663C109.017 129.424 109.628 129.247 110.149 129.132L113.856 128.769V123.69L112.069 123.513C111.489 123.452 110.914 123.334 110.35 123.159L110.29 123.15L110.231 123.133C109.576 122.988 108.924 122.831 108.273 122.664C107.601 122.418 106.941 122.131 106.293 121.805L106.264 121.788L83.0483 109.488V102.913Z" fill="white"/>
<path d="M133.906 148.678H174.203V159.567H133.906V148.678Z" fill="white"/>
<path d="M131.953 146.462V161.816H176.146V146.462H131.953ZM135.857 150.927H172.25V157.352H135.857V150.927Z" fill="white"/>
</g>
</g>
<defs>
<filter id="filter0_f_1353_801" x="31.3812" y="52.6744" width="192.609" height="163.587" filterUnits="userSpaceOnUse" color-interpolation-filters="sRGB">
<feFlood flood-opacity="0" result="BackgroundImageFix"/>
<feBlend mode="normal" in="SourceGraphic" in2="BackgroundImageFix" result="shape"/>
<feGaussianBlur stdDeviation="5.41876" result="effect1_foregroundBlur_1353_801"/>
</filter>
<linearGradient id="paint0_linear_1353_801" x1="-0.00098859" y1="3.26819e-06" x2="256.009" y2="256.01" gradientUnits="userSpaceOnUse">
<stop stop-color="#348878"/>
<stop offset="1" stop-color="#52BCA6"/>
</linearGradient>
<linearGradient id="paint1_linear_1353_801" x1="49.6572" y1="65.6409" x2="197.294" y2="176.992" gradientUnits="userSpaceOnUse">
<stop stop-color="#348878"/>
<stop offset="1" stop-color="#56BDA8"/>
</linearGradient>
<clipPath id="clip0_1353_801">
<rect width="256" height="256" fill="white"/>
</clipPath>
<clipPath id="clip1_1353_801">
<rect width="256" height="256" fill="white"/>
</clipPath>
</defs>
</svg>
