<svg width="256" height="256" viewBox="0 0 256 256" fill="none" xmlns="http://www.w3.org/2000/svg">
<g clip-path="url(#clip0_1977_10710)">
<path d="M256.001 0H-0.00363159V256.01H256.001V0Z" fill="#575757"/>
<path d="M123.585 227.976C113.689 227.582 104.225 225.848 95.008 222.741C64.524 212.466 40.668 188.452 31.508 158.811C27.5602 146.042 26.477 131.84 28.3787 117.778C30.2339 104.058 35.1802 91.0203 43.0497 79.1058C49.0842 69.9693 57.6187 60.9673 66.6637 54.1978C85.1092 40.3928 109.636 32.9528 132.854 34.1193C145.794 34.7693 157.823 37.5018 169.407 42.4223C173.504 44.1628 179.419 47.2645 183.255 49.6848C190.33 54.1484 194.438 57.4338 200.496 63.4713C207.123 70.0768 211.56 75.6093 215.695 82.4243C219.299 88.3638 222.744 95.9993 224.809 102.623C225.609 105.188 227.03 110.851 227.652 113.949C228.847 119.908 229.002 121.81 229.004 130.605C229.007 139.863 228.773 142.812 227.546 148.984C222.882 172.444 209.756 193.068 190.11 207.804C178.703 216.36 165.096 222.572 150.836 225.733C142.479 227.586 133.126 228.356 123.587 227.976L123.585 227.976ZM106.035 188.583C106.035 188.32 105.998 187.555 105.953 186.883L105.873 185.662L103.522 185.531C101.498 185.418 101.123 185.364 100.829 185.144C99.8176 184.389 100.095 182.11 101.954 175.916C102.386 174.477 103.623 170.255 104.702 166.535C105.782 162.814 107.302 157.617 108.081 154.984C108.86 152.352 110.178 147.843 111.012 144.965C111.845 142.087 112.819 138.765 113.176 137.583C113.533 136.401 114.805 132.065 116.003 127.947C118.477 119.444 120.084 114.086 120.475 113.042C120.734 112.349 120.749 112.335 120.974 112.565C121.101 112.696 122.897 116.249 124.964 120.46C127.031 124.672 131.509 133.747 134.913 140.626C143.507 157.991 153.838 178.915 156.544 184.437L158.811 189.065L164.491 189.021C167.615 188.996 170.298 188.922 170.455 188.857C170.736 188.74 170.726 188.709 169.769 186.698C169.235 185.576 165.697 178.398 161.907 170.746C137.564 121.6 131.297 108.816 127.963 101.506C125.612 96.3519 124.511 94.1029 124.106 93.6254C123.691 93.1367 123.29 93.0935 122.921 93.4977C122.321 94.1542 120.868 98.5292 118.227 107.633C117.199 111.178 114.959 118.845 113.249 124.671C109.929 135.986 108.99 139.19 106.084 149.113C105.066 152.587 103.685 157.297 103.015 159.578C102.344 161.86 100.998 166.483 100.023 169.853C97.8715 177.291 96.9555 180.297 96.3292 181.978C95.2606 184.844 95.043 185.142 93.8684 185.347C93.4241 185.424 92.6633 185.488 92.1776 185.488C91.078 185.49 90.4029 185.67 90.1497 186.031C89.9388 186.333 89.8676 188.472 90.0585 188.772C90.1613 188.934 91.2921 188.959 101.728 189.031L106.036 189.061L106.036 188.583L106.035 188.583ZM124.41 85.7883C126.575 85.3266 128.641 83.3168 129.129 81.1985C129.312 80.4054 129.292 78.7106 129.091 77.9585C128.665 76.3679 127.456 74.813 126.071 74.0748C124.166 73.0591 121.343 73.06 119.435 74.0773C116.444 75.6717 115.357 79.6218 117.041 82.7813C118.391 85.3137 121.222 86.469 124.41 85.7888L124.41 85.7883Z" fill="#F0F0F0"/>
<path d="M119.512 74.077C115.179 76.3485 115.214 82.9882 119.617 85.2248C122.623 86.7624 126.467 85.7839 128.249 83.0581C130.276 80.0178 129.158 75.6845 125.908 74.042C124.125 73.1334 121.295 73.1334 119.512 74.077Z" fill="#00B6F0" stroke="#00B6F0" stroke-width="0.396055"/>
<path d="M122.832 93.6829C122.413 94.2421 120.631 99.484 119.268 104.272C118.219 107.906 115.738 116.503 113.502 124.016C112.803 126.427 111.475 130.97 110.531 134.15C109.623 137.33 108.295 141.873 107.561 144.285C106.862 146.696 105.534 151.239 104.591 154.419C103.682 157.599 102.354 162.142 101.62 164.553C100.921 166.965 99.6282 171.368 98.7895 174.338C96.7277 181.572 95.5395 184.787 94.7707 185.172C94.4213 185.381 93.5476 185.521 92.8138 185.521C90.2627 185.521 89.8783 185.801 89.9831 187.408L90.088 188.841L98.0557 188.946L106.023 189.016L105.919 187.373L105.814 185.696L103.263 185.591C100.956 185.486 100.677 185.416 100.327 184.647C99.8728 183.669 100.327 181.013 101.62 176.785C102.074 175.352 103.263 171.333 104.241 167.873C105.22 164.414 106.548 159.836 107.212 157.739C107.841 155.607 109.168 151.064 110.182 147.605C111.16 144.145 112.488 139.567 113.152 137.47C113.781 135.339 115.109 130.796 116.123 127.336C119.093 116.957 120.421 112.694 120.701 112.344C120.875 112.169 121.295 112.729 121.679 113.567C122.029 114.406 128.389 127.301 135.762 142.188C143.136 157.075 151.383 173.709 154.039 179.161L158.897 189.016H164.768C167.983 189.016 170.638 188.876 170.638 188.736C170.638 188.596 168.018 183.215 164.837 176.785C144.289 135.443 130.975 108.36 128.738 103.398C127.725 101.196 126.327 98.1211 125.628 96.5835C124.09 93.2636 123.601 92.7394 122.832 93.6829Z" fill="#575757"/>
</g>
<defs>
<clipPath id="clip0_1977_10710">
<rect width="256" height="256" fill="white"/>
</clipPath>
</defs>
</svg>
