<svg width="256" height="256" viewBox="0 0 256 256" fill="none" xmlns="http://www.w3.org/2000/svg">
<rect width="256" height="256" fill="#FDEF89"/>
<path d="M217.766 37.0733C218.462 37.476 218.899 38.0819 219.147 38.841C219.262 39.8346 219.198 40.676 218.595 41.4925C218.329 41.7864 218.053 42.062 217.765 42.3345C217.521 42.567 217.301 42.8043 217.082 43.06C216.782 43.4105 216.465 43.7347 216.136 44.0578C215.934 44.2638 215.745 44.4777 215.556 44.6965C215.249 45.0533 214.925 45.3851 214.59 45.715C214.387 45.9211 214.198 46.1349 214.01 46.3537C213.702 46.7105 213.379 47.0424 213.043 47.3722C212.84 47.5783 212.651 47.7921 212.463 48.0109C212.155 48.3677 211.832 48.6996 211.496 49.0294C211.294 49.2355 211.105 49.4493 210.916 49.6682C210.609 50.025 210.285 50.3568 209.949 50.6867C209.747 50.8927 209.558 51.1065 209.369 51.3254C209.062 51.6822 208.739 52.014 208.403 52.3439C208.2 52.5499 208.011 52.7638 207.823 52.9826C207.515 53.3394 207.192 53.6713 206.856 54.0011C206.654 54.2072 206.464 54.421 206.276 54.6398C205.969 54.9966 205.645 55.3285 205.309 55.6583C205.107 55.8644 204.918 56.0782 204.729 56.297C204.422 56.6539 204.098 56.9857 203.762 57.3155C203.56 57.5216 203.371 57.7354 203.182 57.9543C202.875 58.3111 202.552 58.6429 202.216 58.9728C202.013 59.1788 201.824 59.3927 201.636 59.6115C201.328 59.9683 201.005 60.3001 200.669 60.63C200.467 60.8361 200.277 61.0499 200.089 61.2687C199.782 61.6255 199.458 61.9574 199.122 62.2872C198.92 62.4933 198.731 62.7071 198.542 62.9259C198.235 63.2827 197.911 63.6146 197.576 63.9444C197.373 64.1505 197.184 64.3643 196.995 64.5832C196.688 64.94 196.365 65.2718 196.029 65.6017C195.826 65.8077 195.637 66.0215 195.449 66.2404C195.141 66.5972 194.818 66.929 194.482 67.2589C194.28 67.4649 194.091 67.6788 193.902 67.8976C193.595 68.2544 193.271 68.5863 192.935 68.9161C192.733 69.1222 192.544 69.336 192.355 69.5548C192.048 69.9116 191.724 70.2435 191.389 70.5733C191.186 70.7794 190.997 70.9932 190.809 71.212C190.501 71.5688 190.178 71.9007 189.842 72.2305C189.639 72.4366 189.45 72.6504 189.262 72.8693C188.954 73.2261 188.631 73.5579 188.295 73.8878C188.093 74.0938 187.904 74.3077 187.715 74.5265C187.408 74.8833 187.084 75.2151 186.748 75.545C186.546 75.751 186.357 75.9649 186.168 76.1837C185.92 76.4717 185.666 76.746 185.395 77.0123C184.891 77.5086 184.407 78.0248 184.014 78.6143C184.08 78.6841 184.145 78.7539 184.213 78.8258C184.852 79.5157 185.445 80.2286 186.02 80.9724C186.281 81.3102 186.549 81.6425 186.818 81.9738C188.852 84.4827 190.664 87.2103 192.3 89.9939C192.35 90.0788 192.4 90.1636 192.452 90.251C195.007 94.5819 197.079 99.1582 198.708 103.915C198.769 104.092 198.769 104.092 198.831 104.274C200.718 109.818 201.825 115.582 202.38 121.404C202.387 121.477 202.394 121.55 202.401 121.625C202.529 123.01 202.593 124.389 202.597 125.78C202.598 125.945 202.599 126.11 202.6 126.275C202.602 126.799 202.602 127.323 202.602 127.848C202.602 127.937 202.603 128.026 202.603 128.118C202.603 130.701 202.59 133.268 202.272 135.835C202.242 136.079 202.213 136.323 202.184 136.568C201.34 143.688 199.557 150.686 196.719 157.277C196.678 157.373 196.637 157.468 196.595 157.567C196.316 158.212 196.023 158.85 195.725 159.487C195.67 159.605 195.615 159.723 195.558 159.845C193.885 163.417 191.973 166.887 189.685 170.106C189.529 170.327 189.374 170.55 189.219 170.772C187.335 173.481 185.261 176.064 183.009 178.476C182.808 178.692 182.609 178.909 182.412 179.128C181.746 179.869 181.051 180.58 180.347 181.286C180.254 181.38 180.161 181.474 180.065 181.57C179.584 182.049 179.096 182.512 178.581 182.955C178.274 183.221 177.979 183.5 177.682 183.779C177.158 184.266 176.623 184.731 176.064 185.178C175.81 185.384 175.559 185.591 175.308 185.801C172.738 187.953 169.974 189.894 167.11 191.637C167.018 191.693 166.925 191.75 166.83 191.808C162.166 194.638 157.25 196.955 152.085 198.708C151.967 198.748 151.85 198.788 151.729 198.829C146.184 200.717 140.419 201.825 134.595 202.38C134.522 202.387 134.45 202.394 134.375 202.401C132.989 202.529 131.61 202.593 130.219 202.597C130.054 202.598 129.889 202.598 129.724 202.599C129.2 202.601 128.676 202.602 128.152 202.602C128.062 202.602 127.973 202.602 127.881 202.602C125.298 202.603 122.731 202.59 120.164 202.271C119.92 202.241 119.676 202.212 119.432 202.184C112.311 201.34 105.313 199.557 98.7222 196.719C98.6267 196.678 98.5311 196.637 98.4327 196.595C97.2236 196.071 96.0359 195.501 94.8485 194.931C94.7807 194.898 94.7129 194.866 94.643 194.832C93.8625 194.457 93.1001 194.072 92.359 193.623C92.0183 193.485 91.8951 193.526 91.5409 193.625C91.2492 193.756 90.9652 193.892 90.6802 194.036C90.5507 194.1 90.5507 194.1 90.4186 194.166C90.1278 194.311 89.8376 194.457 89.5474 194.603C89.3375 194.708 89.1277 194.812 88.9178 194.917C88.3399 195.206 87.7625 195.495 87.1851 195.785C86.5628 196.097 85.9401 196.408 85.3175 196.719C84.2384 197.259 83.1595 197.799 82.0807 198.34C80.9491 198.907 79.8172 199.473 78.6852 200.04C78.6148 200.075 78.5444 200.11 78.4719 200.146C78.1146 200.325 77.7572 200.504 77.3998 200.683C74.8677 201.949 72.3359 203.217 69.8042 204.484C69.1906 204.792 68.577 205.099 67.9634 205.406C67.8873 205.444 67.8112 205.482 67.7328 205.522C65.9644 206.407 64.1959 207.292 62.4274 208.177C62.3516 208.215 62.2759 208.253 62.1978 208.292C60.4688 209.158 58.7397 210.023 57.0106 210.888C56.938 210.924 56.8653 210.961 56.7905 210.998C56.1372 211.325 55.484 211.652 54.8307 211.979C53.1302 212.83 51.4298 213.681 49.7296 214.532C48.6636 215.066 47.5975 215.6 46.5313 216.133C45.9155 216.442 45.2996 216.75 44.6839 217.058C44.121 217.34 43.5579 217.622 42.9948 217.904C42.7904 218.006 42.5861 218.109 42.3817 218.211C42.1054 218.35 41.8289 218.488 41.5524 218.626C41.4719 218.667 41.3914 218.707 41.3085 218.749C40.4101 219.197 39.5037 219.335 38.5172 219.054C37.7555 218.709 37.3094 218.198 36.9489 217.453C36.6984 216.686 36.7293 215.768 37.0598 215.031C37.3689 214.496 37.7883 214.087 38.2349 213.664C38.4782 213.432 38.699 213.195 38.9173 212.939C39.2172 212.589 39.5343 212.264 39.8633 211.941C40.0657 211.735 40.2547 211.521 40.4433 211.303C40.7507 210.946 41.0741 210.614 41.41 210.284C41.6124 210.078 41.8015 209.864 41.99 209.645C42.2974 209.288 42.6209 208.957 42.9567 208.627C43.1592 208.421 43.3482 208.207 43.5368 207.988C43.8442 207.631 44.1676 207.299 44.5035 206.97C44.7059 206.764 44.895 206.55 45.0835 206.331C45.3909 205.974 45.7144 205.642 46.0502 205.312C46.2527 205.106 46.4417 204.892 46.6302 204.674C46.9376 204.317 47.2611 203.985 47.597 203.655C47.7994 203.449 47.9884 203.235 48.177 203.016C48.4844 202.66 48.8079 202.328 49.1437 201.998C49.3461 201.792 49.5352 201.578 49.7237 201.359C50.0311 201.002 50.3546 200.671 50.6904 200.341C50.8929 200.135 51.0819 199.921 51.2705 199.702C51.5779 199.345 51.9013 199.013 52.2372 198.683C52.4396 198.477 52.6287 198.264 52.8172 198.045C53.1246 197.688 53.4481 197.356 53.7839 197.026C53.9864 196.82 54.1754 196.606 54.3639 196.388C54.6713 196.031 54.9948 195.699 55.3307 195.369C55.5331 195.163 55.7221 194.949 55.9107 194.73C56.2181 194.373 56.5416 194.042 56.8774 193.712C57.0798 193.506 57.2689 193.292 57.4574 193.073C57.7648 192.716 58.0883 192.384 58.4241 192.055C58.6266 191.849 58.8156 191.635 59.0042 191.416C59.3116 191.059 59.635 190.727 59.9709 190.397C60.1733 190.191 60.3624 189.977 60.5509 189.759C60.8583 189.402 61.1818 189.07 61.5176 188.74C61.7201 188.534 61.9091 188.32 62.0976 188.101C62.405 187.745 62.7285 187.413 63.0644 187.083C63.2668 186.877 63.4558 186.663 63.6444 186.444C63.9518 186.087 64.2753 185.756 64.6111 185.426C64.8135 185.22 65.0026 185.006 65.1911 184.787C65.4985 184.43 65.822 184.098 66.1578 183.768C66.3603 183.562 66.5493 183.349 66.7379 183.13C67.0453 182.773 67.3687 182.441 67.7046 182.111C67.907 181.905 68.0961 181.691 68.2846 181.473C68.592 181.116 68.9155 180.784 69.2513 180.454C69.4538 180.248 69.6428 180.034 69.8313 179.815C70.0794 179.527 70.3335 179.253 70.6047 178.987C71.1089 178.49 71.5928 177.974 71.9857 177.385C71.8872 177.28 71.8872 177.28 71.7868 177.173C71.1476 176.483 70.555 175.77 69.9798 175.027C69.7185 174.689 69.451 174.357 69.1815 174.025C67.1476 171.516 65.3353 168.789 63.6996 166.005C63.6494 165.92 63.5991 165.835 63.5474 165.748C58.4651 157.133 55.1493 147.453 53.4024 130.219C53.4016 130.054 53.4008 129.889 53.4001 129.724C53.3979 129.2 53.3974 128.676 53.3972 128.151C53.3972 128.017 53.3972 128.017 53.3971 127.881C53.3963 125.298 53.4098 122.731 53.728 120.164C53.7581 119.92 53.7869 119.676 53.8155 119.431C54.0991 117.039 54.4841 114.67 54.9716 112.311C54.9967 112.189 55.0219 112.068 55.0478 111.942C56.0008 107.415 57.4522 102.968 59.2804 98.7219C59.3214 98.6264 59.3625 98.5308 59.4048 98.4324C59.6841 97.7873 59.9766 97.1489 60.2747 96.5123C60.3298 96.3942 60.3848 96.2761 60.4416 96.1544C62.2097 92.3776 64.2682 88.7573 66.6826 85.3537C66.7431 85.2683 66.8037 85.1828 66.866 85.0948C68.7677 82.4199 70.8158 79.8571 73.05 77.452C73.1992 77.2905 73.3466 77.1275 73.4941 76.9644C74.1949 76.1907 74.9222 75.4453 75.6592 74.706C75.752 74.6127 75.8448 74.5194 75.9404 74.4233C76.419 73.9459 76.9052 73.4852 77.4179 73.0445C77.7256 72.778 78.0208 72.4986 78.3177 72.2202C78.8417 71.7333 79.377 71.2683 79.9352 70.8206C80.1896 70.6155 80.4411 70.4083 80.6913 70.1983C81.8427 69.2343 83.0288 68.3305 84.2492 67.4557C84.3823 67.36 84.3823 67.36 84.518 67.2623C90.456 63.006 96.9961 59.6318 103.915 57.2914C104.038 57.2493 104.162 57.2072 104.289 57.1638C111.154 54.8413 118.52 53.4233 125.781 53.4021C125.946 53.4013 126.11 53.4005 126.275 53.3997C126.799 53.3976 127.324 53.397 127.848 53.3969C127.982 53.3968 127.982 53.3968 128.118 53.3968C130.701 53.396 133.268 53.4095 135.835 53.7276C136.079 53.7578 136.324 53.7865 136.568 53.8152C140.058 54.2289 143.487 54.8666 146.892 55.7446C147.082 55.7928 147.082 55.7928 147.275 55.842C150.694 56.7173 154.039 57.8804 157.277 59.28C157.372 59.3209 157.468 59.3618 157.565 59.404C158.775 59.9277 159.963 60.4975 161.151 61.0685C161.253 61.1172 161.253 61.1172 161.357 61.167C162.137 61.5419 162.9 61.9275 163.641 62.3762C163.981 62.5145 164.105 62.4725 164.459 62.3735C164.75 62.2428 165.034 62.1075 165.319 61.9634C165.449 61.8989 165.449 61.8989 165.581 61.8331C165.872 61.6881 166.162 61.5422 166.452 61.3963C166.662 61.2914 166.872 61.1866 167.082 61.0818C167.66 60.7931 168.237 60.5036 168.815 60.214C169.437 59.9021 170.06 59.5908 170.682 59.2796C171.761 58.7399 172.84 58.1997 173.919 57.6593C175.051 57.0923 176.182 56.5255 177.314 55.9592C177.385 55.924 177.455 55.8888 177.528 55.8525C177.885 55.6738 178.242 55.495 178.6 55.3162C181.132 54.0495 183.664 52.7823 186.195 51.5146C186.809 51.2074 187.423 50.9002 188.036 50.5929C188.112 50.5548 188.188 50.5167 188.267 50.4774C190.035 49.592 191.804 48.7068 193.572 47.8217C193.648 47.7838 193.724 47.7459 193.802 47.7068C195.531 46.8414 197.26 45.9761 198.989 45.1109C199.062 45.0745 199.134 45.0382 199.209 45.0007C199.862 44.6739 200.516 44.347 201.169 44.0201C202.869 43.1692 204.57 42.3182 206.27 41.4667C207.336 40.9329 208.402 40.3992 209.468 39.8657C210.084 39.5575 210.7 39.2491 211.316 38.9406C211.879 38.6586 212.442 38.3768 213.005 38.0951C213.209 37.9928 213.414 37.8904 213.618 37.788C213.894 37.6494 214.171 37.5111 214.447 37.3729C214.528 37.3325 214.608 37.292 214.691 37.2504C215.664 36.765 216.742 36.6089 217.766 37.0733Z" fill="#010100"/>
<path d="M203.457 49.1152C203.53 49.1517 203.603 49.1882 203.678 49.2257C203.608 49.2941 203.608 49.2941 203.536 49.3638C203.182 49.7119 202.842 50.065 202.518 50.441C202.21 50.7978 201.887 51.1297 201.551 51.4595C201.349 51.6656 201.16 51.8794 200.971 52.0982C200.664 52.455 200.34 52.7869 200.004 53.1167C199.802 53.3228 199.613 53.5366 199.424 53.7555C199.117 54.1123 198.794 54.4441 198.458 54.774C198.255 54.98 198.066 55.1938 197.878 55.4127C197.57 55.7695 197.247 56.1013 196.911 56.4312C196.708 56.6372 196.519 56.8511 196.331 57.0699C196.024 57.4267 195.7 57.7586 195.364 58.0884C195.162 58.2945 194.973 58.5083 194.784 58.7271C194.477 59.0839 194.153 59.4158 193.817 59.7456C193.615 59.9517 193.426 60.1655 193.237 60.3843C192.93 60.7411 192.607 61.073 192.271 61.4028C192.068 61.6089 191.879 61.8227 191.691 62.0416C191.383 62.3984 191.06 62.7302 190.724 63.0601C190.522 63.2661 190.332 63.48 190.144 63.6988C189.837 64.0556 189.513 64.3874 189.177 64.7173C188.975 64.9233 188.786 65.1372 188.597 65.356C188.29 65.7128 187.966 66.0447 187.631 66.3745C187.428 66.5806 187.239 66.7944 187.05 67.0132C186.743 67.37 186.42 67.7019 186.084 68.0317C185.881 68.2378 185.692 68.4516 185.504 68.6704C185.196 69.0273 184.873 69.3591 184.537 69.689C184.335 69.895 184.146 70.1088 183.957 70.3277C183.65 70.6845 183.326 71.0163 182.99 71.3462C182.788 71.5522 182.599 71.7661 182.41 71.9849C182.103 72.3417 181.779 72.6735 181.444 73.0034C181.241 73.2095 181.052 73.4233 180.864 73.6421C180.556 73.9989 180.233 74.3308 179.897 74.6606C179.694 74.8667 179.505 75.0805 179.317 75.2993C179.009 75.6561 178.686 75.988 178.35 76.3178C178.148 76.5239 177.959 76.7377 177.77 76.9566C177.463 77.3134 177.139 77.6452 176.803 77.9751C176.601 78.1811 176.412 78.3949 176.223 78.6138C175.916 78.9706 175.592 79.3024 175.257 79.6323C175.054 79.8383 174.865 80.0522 174.677 80.271C174.369 80.6278 174.046 80.9597 173.71 81.2895C173.507 81.4956 173.318 81.7094 173.13 81.9282C172.822 82.285 172.499 82.6169 172.163 82.9467C171.961 83.1528 171.772 83.3666 171.583 83.5854C171.276 83.9423 170.952 84.2741 170.616 84.6039C170.414 84.81 170.225 85.0238 170.036 85.2427C169.729 85.5995 169.405 85.9313 169.07 86.2612C168.867 86.4672 168.678 86.6811 168.49 86.8999C168.182 87.2567 167.859 87.5885 167.523 87.9184C167.32 88.1245 167.131 88.3383 166.943 88.5571C166.635 88.9139 166.312 89.2458 165.976 89.5756C165.774 89.7817 165.585 89.9955 165.396 90.2143C165.089 90.5711 164.765 90.903 164.429 91.2328C164.227 91.4389 164.038 91.6527 163.849 91.8716C163.542 92.2284 163.219 92.5602 162.883 92.8901C162.68 93.0961 162.491 93.3099 162.303 93.5288C161.995 93.8856 161.672 94.2174 161.336 94.5473C161.133 94.7533 160.944 94.9672 160.756 95.186C160.448 95.5428 160.125 95.8747 159.789 96.2045C159.587 96.4106 159.398 96.6244 159.209 96.8432C158.902 97.2 158.578 97.5319 158.242 97.8617C158.04 98.0678 157.851 98.2816 157.662 98.5004C157.355 98.8572 157.032 99.1891 156.696 99.5189C156.493 99.725 156.304 99.9388 156.116 100.158C155.808 100.514 155.485 100.846 155.149 101.176C154.947 101.382 154.757 101.596 154.569 101.815C154.262 102.172 153.938 102.504 153.602 102.833C153.4 103.039 153.211 103.253 153.022 103.472C152.715 103.829 152.391 104.161 152.055 104.491C151.853 104.697 151.664 104.91 151.475 105.129C151.168 105.486 150.845 105.818 150.509 106.148C150.306 106.354 150.117 106.568 149.929 106.787C149.621 107.143 149.298 107.475 148.962 107.805C148.76 108.011 148.571 108.225 148.382 108.444C148.075 108.801 147.751 109.132 147.415 109.462C147.213 109.668 147.024 109.882 146.835 110.101C146.528 110.458 146.204 110.79 145.869 111.119C145.666 111.326 145.477 111.539 145.288 111.758C144.981 112.115 144.658 112.447 144.322 112.777C144.119 112.983 143.93 113.197 143.742 113.415C143.434 113.772 143.111 114.104 142.775 114.434C142.573 114.64 142.384 114.854 142.195 115.073C141.888 115.429 141.564 115.761 141.228 116.091C141.026 116.297 140.837 116.511 140.648 116.73C140.341 117.087 140.017 117.419 139.682 117.748C139.479 117.954 139.29 118.168 139.102 118.387C138.853 118.675 138.599 118.949 138.328 119.216C136.909 120.606 136.909 120.606 136.36 122.44C136.37 123.234 136.674 123.92 137.207 124.511C137.541 124.829 137.902 125.115 138.263 125.404C138.621 125.692 138.972 125.988 139.322 126.287C139.761 126.659 140.202 127.028 140.648 127.391C141.157 127.805 141.658 128.228 142.158 128.652C142.535 128.973 142.916 129.288 143.3 129.601C143.809 130.015 144.31 130.437 144.809 130.862C145.187 131.182 145.567 131.498 145.951 131.811C146.46 132.225 146.961 132.647 147.461 133.072C147.838 133.392 148.219 133.708 148.603 134.02C149.112 134.434 149.613 134.857 150.113 135.281C150.49 135.601 150.871 135.917 151.254 136.23C151.763 136.644 152.264 137.066 152.764 137.491C153.142 137.811 153.522 138.127 153.906 138.439C154.415 138.854 154.916 139.276 155.416 139.701C155.793 140.021 156.174 140.337 156.558 140.649C157.066 141.063 157.567 141.485 158.067 141.91C158.445 142.23 158.825 142.546 159.209 142.859C159.718 143.273 160.219 143.695 160.719 144.12C161.096 144.44 161.477 144.756 161.861 145.068C162.369 145.482 162.871 145.905 163.37 146.329C163.748 146.65 164.128 146.966 164.512 147.278C164.971 147.652 165.427 148.029 165.879 148.41C165.939 148.46 165.998 148.509 166.059 148.56C166.427 148.872 166.769 149.2 167.109 149.543C165.745 150.266 164.376 150.973 162.995 151.662C162.801 151.759 162.607 151.857 162.413 151.954C161.883 152.219 161.354 152.484 160.825 152.748C160.247 153.037 159.669 153.326 159.092 153.615C158.015 154.154 156.938 154.693 155.861 155.231C154.844 155.74 153.826 156.249 152.809 156.758C152.74 156.792 152.672 156.827 152.601 156.862C152.321 157.002 152.042 157.142 151.762 157.282C148.382 158.973 145.002 160.664 141.622 162.354C140.527 162.902 139.431 163.45 138.335 163.998C138.258 164.037 138.181 164.076 138.101 164.115C137.788 164.272 137.475 164.429 137.162 164.585C131.81 167.262 126.459 169.938 121.107 172.615C120.687 172.825 120.268 173.035 119.848 173.245C119.723 173.307 119.723 173.307 119.595 173.371C118.752 173.793 117.908 174.215 117.064 174.636C116.895 174.721 116.726 174.806 116.557 174.89C111.117 177.61 105.678 180.331 100.239 183.053C96.328 185.009 92.4169 186.966 88.5055 188.922C88.4251 188.962 88.3448 189.003 88.262 189.044C86.4981 189.926 84.7342 190.808 82.9703 191.69C82.2607 192.045 81.5511 192.4 80.8415 192.755C80.7638 192.794 80.6862 192.832 80.6062 192.872C78.102 194.125 75.5982 195.377 73.0945 196.63C70.5753 197.891 68.0557 199.151 65.5358 200.411C65.1882 200.584 64.8405 200.758 64.4929 200.932C64.3907 200.983 64.3907 200.983 64.2864 201.035C63.2044 201.576 62.1228 202.117 61.0412 202.659C59.9795 203.191 58.9175 203.722 57.8552 204.252C57.2862 204.536 56.7174 204.821 56.149 205.106C55.633 205.365 55.1167 205.623 54.6001 205.88C54.4133 205.973 54.2266 206.067 54.0402 206.161C53.789 206.287 53.5373 206.412 53.2855 206.537C53.2122 206.574 53.1388 206.612 53.0633 206.65C52.8918 206.734 52.7159 206.81 52.5393 206.883C52.4664 206.846 52.3935 206.81 52.3184 206.772C52.3652 206.727 52.4121 206.681 52.4603 206.634C52.8139 206.286 53.1545 205.933 53.4784 205.557C53.7858 205.2 54.1093 204.868 54.4451 204.538C54.6476 204.332 54.8366 204.119 55.0252 203.9C55.3326 203.543 55.656 203.211 55.9919 202.881C56.1943 202.675 56.3834 202.461 56.5719 202.243C56.8793 201.886 57.2028 201.554 57.5386 201.224C57.7411 201.018 57.9301 200.804 58.1186 200.585C58.426 200.228 58.7495 199.897 59.0853 199.567C59.2878 199.361 59.4768 199.147 59.6654 198.928C59.9728 198.571 60.2962 198.239 60.6321 197.91C60.8345 197.704 61.0236 197.49 61.2121 197.271C61.5195 196.914 61.843 196.582 62.1788 196.252C62.3813 196.046 62.5703 195.832 62.7589 195.614C63.0663 195.257 63.3897 194.925 63.7256 194.595C63.928 194.389 64.1171 194.175 64.3056 193.956C64.613 193.6 64.9365 193.268 65.2723 192.938C65.4748 192.732 65.6638 192.518 65.8523 192.299C66.1597 191.942 66.4832 191.611 66.819 191.281C67.0215 191.075 67.2105 190.861 67.3991 190.642C67.7065 190.285 68.0299 189.953 68.3658 189.623C68.5682 189.417 68.7573 189.204 68.9458 188.985C69.2532 188.628 69.5767 188.296 69.9125 187.966C70.115 187.76 70.304 187.546 70.4926 187.328C70.8 186.971 71.1234 186.639 71.4593 186.309C71.6617 186.103 71.8508 185.889 72.0393 185.67C72.3467 185.313 72.6702 184.982 73.006 184.652C73.2085 184.446 73.3975 184.232 73.586 184.013C73.8934 183.656 74.2169 183.324 74.5527 182.995C74.7552 182.789 74.9442 182.575 75.1328 182.356C75.4402 181.999 75.7636 181.667 76.0995 181.337C76.3019 181.131 76.491 180.917 76.6795 180.699C76.9869 180.342 77.3104 180.01 77.6462 179.68C77.8487 179.474 78.0377 179.26 78.2263 179.041C78.5337 178.685 78.8571 178.353 79.193 178.023C79.3954 177.817 79.5845 177.603 79.773 177.384C80.0804 177.027 80.4039 176.696 80.7397 176.366C80.9422 176.16 81.1312 175.946 81.3197 175.727C81.6271 175.37 81.9506 175.038 82.2865 174.708C82.4889 174.502 82.6779 174.289 82.8665 174.07C83.1739 173.713 83.4973 173.381 83.8332 173.051C84.0356 172.845 84.2247 172.631 84.4132 172.413C84.7206 172.056 85.0441 171.724 85.3799 171.394C85.5824 171.188 85.7714 170.974 85.96 170.755C86.2674 170.398 86.5908 170.067 86.9267 169.737C87.1291 169.531 87.3182 169.317 87.5067 169.098C87.8141 168.741 88.1376 168.409 88.4734 168.08C88.6759 167.874 88.8649 167.66 89.0534 167.441C89.3608 167.084 89.6843 166.752 90.0202 166.422C90.2226 166.216 90.4116 166.002 90.6002 165.784C90.9076 165.427 91.231 165.095 91.5669 164.765C91.7693 164.559 91.9584 164.345 92.1469 164.126C92.4543 163.77 92.7778 163.438 93.1136 163.108C93.3161 162.902 93.5051 162.688 93.6937 162.469C94.0011 162.112 94.3245 161.781 94.6604 161.451C94.8628 161.245 95.0519 161.031 95.2404 160.812C95.5478 160.455 95.8713 160.123 96.2071 159.793C96.4096 159.587 96.5986 159.374 96.7871 159.155C97.0945 158.798 97.418 158.466 97.7539 158.136C97.9563 157.93 98.1453 157.716 98.3339 157.498C98.6413 157.141 98.9648 156.809 99.3006 156.479C99.503 156.273 99.6921 156.059 99.8806 155.84C100.188 155.483 100.511 155.152 100.847 154.822C101.05 154.616 101.239 154.402 101.427 154.183C101.735 153.826 102.058 153.494 102.394 153.165C102.597 152.959 102.786 152.745 102.974 152.526C103.282 152.169 103.605 151.837 103.941 151.507C104.143 151.301 104.332 151.087 104.521 150.869C104.828 150.512 105.152 150.18 105.488 149.85C105.69 149.644 105.879 149.43 106.068 149.211C106.375 148.855 106.698 148.523 107.034 148.193C107.237 147.987 107.426 147.773 107.614 147.554C107.922 147.197 108.245 146.866 108.581 146.536C108.783 146.33 108.973 146.116 109.161 145.897C109.468 145.54 109.792 145.208 110.128 144.878C110.33 144.672 110.519 144.459 110.708 144.24C111.015 143.883 111.339 143.551 111.675 143.221C111.877 143.015 112.066 142.801 112.255 142.583C112.562 142.226 112.885 141.894 113.221 141.564C113.424 141.358 113.613 141.144 113.801 140.925C114.109 140.569 114.432 140.237 114.768 139.907C114.97 139.701 115.159 139.487 115.348 139.268C115.655 138.911 115.979 138.579 116.315 138.25C116.517 138.044 116.706 137.83 116.895 137.611C117.143 137.323 117.397 137.049 117.668 136.782C119.093 135.386 119.093 135.386 119.636 133.537C119.612 132.603 119.276 131.955 118.607 131.313C118.32 131.066 118.027 130.827 117.73 130.59C117.372 130.303 117.023 130.009 116.674 129.711C116.235 129.339 115.794 128.97 115.348 128.607C114.839 128.193 114.338 127.77 113.838 127.346C113.461 127.025 113.08 126.709 112.696 126.397C112.188 125.983 111.687 125.561 111.187 125.136C110.809 124.816 110.429 124.5 110.045 124.187C109.536 123.773 109.035 123.351 108.535 122.926C108.158 122.606 107.777 122.29 107.393 121.978C106.885 121.564 106.384 121.141 105.884 120.717C105.506 120.396 105.126 120.081 104.742 119.768C104.233 119.354 103.732 118.932 103.232 118.507C102.855 118.187 102.474 117.871 102.09 117.558C101.582 117.144 101.08 116.722 100.581 116.297C100.203 115.977 99.8226 115.661 99.4387 115.349C98.93 114.935 98.4289 114.513 97.9291 114.088C97.5516 113.768 97.1711 113.452 96.7871 113.139C96.2784 112.725 95.7773 112.303 95.2775 111.878C94.9001 111.558 94.5195 111.242 94.1356 110.93C93.6269 110.516 93.1258 110.093 92.626 109.669C92.2485 109.348 91.8679 109.032 91.484 108.72C91.0253 108.346 90.5697 107.969 90.1168 107.588C90.0576 107.538 89.9985 107.489 89.9375 107.438C89.569 107.126 89.2269 106.798 88.8877 106.455C90.2508 105.732 91.6207 105.025 93.001 104.336C93.1952 104.239 93.3894 104.141 93.5836 104.044C94.1129 103.779 94.6423 103.514 95.1718 103.25C95.7494 102.961 96.3268 102.672 96.9043 102.383C97.9812 101.844 99.0581 101.305 100.135 100.767C101.153 100.258 102.17 99.7488 103.187 99.2398C103.256 99.2055 103.325 99.1711 103.395 99.1357C103.675 98.9959 103.954 98.856 104.234 98.7161C107.614 97.025 110.994 95.3343 114.374 93.6438C115.47 93.0958 116.565 92.5478 117.661 91.9998C117.777 91.9418 117.777 91.9418 117.895 91.8825C118.208 91.726 118.521 91.5694 118.834 91.4128C124.186 88.7361 129.537 86.0595 134.889 83.3832C135.309 83.1733 135.729 82.9633 136.149 82.7534C136.232 82.7118 136.315 82.6701 136.401 82.6272C137.245 82.2053 138.088 81.7834 138.932 81.3615C139.101 81.2769 139.27 81.1924 139.439 81.1078C144.879 78.3875 150.318 75.6666 155.757 72.9453C159.668 70.9885 163.579 69.0318 167.491 67.0757C167.611 67.0154 167.611 67.0154 167.734 66.9539C169.498 66.0718 171.262 65.1897 173.026 64.3077C173.736 63.9529 174.445 63.598 175.155 63.2432C175.232 63.2044 175.31 63.1655 175.39 63.1255C177.894 61.8734 180.398 60.6207 182.902 59.3677C185.421 58.1069 187.941 56.8467 190.46 55.5873C190.808 55.4135 191.156 55.2398 191.503 55.066C191.572 55.032 191.64 54.9979 191.71 54.9628C192.792 54.422 193.874 53.8806 194.955 53.3389C196.017 52.8072 197.079 52.2762 198.141 51.7458C198.71 51.4617 199.279 51.1773 199.847 50.8921C200.363 50.6333 200.88 50.3753 201.396 50.118C201.583 50.0248 201.77 49.9313 201.956 49.8374C202.207 49.7111 202.459 49.5858 202.711 49.4608C202.784 49.4236 202.857 49.3864 202.933 49.348C203.105 49.2637 203.28 49.1884 203.457 49.1152Z" fill="#FDEF89"/>
<path d="M127.785 58.9265C128.223 58.9263 128.661 58.9243 129.099 58.9222C131.26 58.9173 133.415 58.9668 135.548 59.3386C135.891 59.397 136.233 59.4395 136.579 59.4752C136.765 59.4951 136.765 59.4951 136.955 59.5154C137.081 59.5283 137.206 59.5413 137.335 59.5546C139.912 59.8215 139.912 59.8215 140.373 60.0518C140.531 60.082 140.69 60.1079 140.85 60.1312C140.943 60.1453 141.037 60.1594 141.133 60.1739C141.331 60.2031 141.529 60.2321 141.727 60.2611C141.82 60.2752 141.914 60.2893 142.01 60.3038C142.096 60.3164 142.182 60.3291 142.27 60.342C142.472 60.3833 142.472 60.3833 142.583 60.4937C142.729 60.5165 142.877 60.5342 143.024 60.549C143.454 60.5919 143.454 60.5919 143.577 60.7147C143.864 60.7745 144.151 60.8293 144.44 60.8804C145.352 61.0441 145.352 61.0441 145.787 61.1566C145.787 61.2295 145.787 61.3025 145.787 61.3776C145.894 61.3915 146.001 61.4055 146.111 61.4199C146.597 61.4896 147.075 61.5898 147.554 61.6952C147.682 61.7219 147.682 61.7219 147.811 61.7492C148.347 61.8667 148.818 62.0386 149.322 62.2614C149.572 62.337 149.823 62.4084 150.075 62.4755C150.729 62.6567 151.351 62.8756 151.973 63.1453C151.973 63.2182 151.973 63.2911 151.973 63.3663C152.039 63.3767 152.105 63.3871 152.172 63.3978C152.924 63.5309 153.592 63.7665 154.294 64.0637C154.446 64.1264 154.446 64.1264 154.602 64.1903C155.205 64.4414 155.79 64.7174 156.372 65.0139C156.649 65.1517 156.931 65.2677 157.221 65.3756C157.538 65.4932 157.698 65.5558 157.939 65.7968C157.838 65.8438 157.736 65.8907 157.631 65.939C156.659 66.3893 155.696 66.8561 154.739 67.3375C154.593 67.4106 154.447 67.4836 154.301 67.5566C153.992 67.7119 153.682 67.8673 153.372 68.0229C152.882 68.2687 152.393 68.5142 151.903 68.7595C150.511 69.4567 149.12 70.1543 147.729 70.8524C146.957 71.2394 146.186 71.6261 145.414 72.0125C144.927 72.2565 144.44 72.5009 143.953 72.7456C143.651 72.897 143.349 73.0481 143.048 73.199C142.907 73.2692 142.767 73.3396 142.627 73.4101C142.437 73.506 142.246 73.6014 142.055 73.6967C141.948 73.7502 141.842 73.8038 141.732 73.859C141.478 73.9725 141.478 73.9725 141.257 73.9725C141.257 74.0454 141.257 74.1183 141.257 74.1934C131.951 78.8463 131.951 78.8463 122.645 83.4993C122.558 83.5427 122.471 83.5862 122.382 83.631C122.213 83.7154 122.044 83.7997 121.875 83.8841C121.469 84.0873 121.062 84.2907 120.656 84.4943C120.537 84.554 120.537 84.554 120.415 84.6149C120.267 84.6889 120.12 84.763 119.972 84.8372C119.172 85.2374 118.365 85.6204 117.557 86.0029C116.854 86.3388 116.162 86.6902 115.474 87.0563C114.16 87.7517 112.829 88.4144 111.498 89.0782C111.233 89.2107 110.968 89.3433 110.702 89.4758C110.08 89.7868 109.458 90.0975 108.835 90.4081C108.133 90.7589 107.43 91.1099 106.727 91.4609C105.628 92.0101 104.529 92.5592 103.429 93.108C102.412 93.6158 101.395 94.124 100.379 94.6325C100.165 94.7395 99.9505 94.8466 99.7365 94.9536C99.6405 95.0016 99.5445 95.0496 99.4456 95.099C95.787 96.9283 92.1284 98.7576 88.4698 100.587C88.3788 100.632 88.2878 100.678 88.194 100.725C88.0164 100.814 87.8387 100.902 87.6611 100.991C87.2412 101.201 86.8214 101.411 86.4017 101.621C86.2826 101.681 86.2826 101.681 86.1612 101.742C86.0145 101.815 85.8678 101.888 85.7211 101.962C85.2625 102.191 84.803 102.418 84.3429 102.645C84.2205 102.705 84.0981 102.765 83.9719 102.828C83.7227 102.951 83.4733 103.073 83.2236 103.195C83.0428 103.285 83.0428 103.285 82.8583 103.377C82.7509 103.429 82.6436 103.482 82.533 103.537C82.2829 103.679 82.1263 103.82 81.9282 104.023C81.8553 104.023 81.7824 104.023 81.7073 104.023C81.6777 104.103 81.648 104.183 81.6175 104.265C81.4863 104.576 81.4863 104.576 81.3154 104.832C81.0356 105.349 81.0861 105.882 81.1549 106.454C81.2495 106.738 81.3606 106.991 81.5001 107.256C81.5968 107.448 81.5968 107.448 81.5968 107.669C81.6697 107.669 81.7426 107.669 81.8178 107.669C81.8178 107.742 81.8178 107.815 81.8178 107.89C81.8907 107.89 81.9636 107.89 82.0387 107.89C82.0387 107.963 82.0387 108.036 82.0387 108.111C82.1312 108.152 82.1312 108.152 82.2256 108.195C82.5249 108.356 82.7645 108.55 83.0262 108.767C83.1331 108.856 83.2401 108.945 83.3503 109.036C83.7674 109.386 84.1828 109.738 84.5977 110.09C84.9752 110.411 85.3558 110.726 85.7399 111.039C86.4916 111.651 87.2291 112.28 87.9678 112.908C88.6813 113.514 89.3984 114.115 90.1246 114.706C90.5326 115.041 90.9348 115.383 91.3373 115.725C91.7148 116.045 92.0953 116.361 92.4792 116.674C92.9256 117.037 93.3665 117.406 93.805 117.778C94.4431 118.32 95.0888 118.852 95.7384 119.38C96.4505 119.959 97.1564 120.544 97.8556 121.139C98.2331 121.459 98.6137 121.775 98.9976 122.087C99.5063 122.501 100.007 122.923 100.507 123.348C100.885 123.668 101.265 123.984 101.649 124.297C102.158 124.711 102.659 125.133 103.159 125.558C103.536 125.878 103.917 126.194 104.301 126.506C104.809 126.92 105.311 127.343 105.81 127.767C106.285 128.17 106.766 128.564 107.248 128.957C107.661 129.296 108.068 129.643 108.474 129.99C108.912 130.362 109.361 130.714 109.824 131.054C109.879 131.103 109.934 131.152 109.991 131.202C109.991 131.275 109.991 131.348 109.991 131.423C110.079 131.452 110.168 131.482 110.26 131.513C110.353 131.556 110.447 131.599 110.543 131.644C110.579 131.753 110.616 131.863 110.653 131.975C110.745 132.012 110.836 132.048 110.93 132.086C111.021 132.122 111.112 132.159 111.206 132.196C111.242 132.306 111.279 132.415 111.316 132.528C111.394 132.557 111.471 132.587 111.551 132.617C111.983 132.796 112.322 133.072 112.642 133.411C112.642 133.484 112.642 133.557 112.642 133.632C112.715 133.632 112.788 133.632 112.863 133.632C112.712 134.073 112.515 134.393 112.2 134.737C112.127 134.737 112.054 134.737 111.979 134.737C111.942 134.83 111.942 134.83 111.903 134.924C111.717 135.252 111.476 135.467 111.206 135.732C111.003 135.966 110.803 136.203 110.604 136.442C110.547 136.499 110.491 136.556 110.432 136.615C110.36 136.615 110.287 136.615 110.211 136.615C110.211 136.688 110.211 136.761 110.211 136.836C110.139 136.836 110.066 136.836 109.991 136.836C109.954 136.946 109.918 137.055 109.88 137.168C109.807 137.168 109.734 137.168 109.659 137.168C109.629 137.232 109.6 137.297 109.569 137.363C109.436 137.613 109.29 137.809 109.107 138.024C109.05 138.092 108.993 138.16 108.934 138.23C108.775 138.383 108.775 138.383 108.554 138.383C108.518 138.493 108.481 138.602 108.444 138.715C108.262 138.901 108.078 139.085 107.891 139.267C107.717 139.473 107.545 139.681 107.376 139.891C107.327 139.94 107.279 139.989 107.228 140.04C107.156 140.04 107.083 140.04 107.008 140.04C106.971 140.15 106.935 140.259 106.897 140.372C106.824 140.372 106.751 140.372 106.676 140.372C106.648 140.435 106.619 140.498 106.59 140.563C106.443 140.837 106.273 141.05 106.068 141.283C106.001 141.361 105.934 141.439 105.865 141.52C105.682 141.698 105.682 141.698 105.461 141.698C105.424 141.807 105.388 141.916 105.35 142.029C105.277 142.029 105.204 142.029 105.129 142.029C105.101 142.092 105.072 142.156 105.043 142.221C104.896 142.494 104.726 142.707 104.522 142.941C104.454 143.019 104.387 143.097 104.318 143.177C104.135 143.355 104.135 143.355 103.914 143.355C103.878 143.464 103.841 143.574 103.804 143.686C103.731 143.686 103.658 143.686 103.583 143.686C103.554 143.749 103.526 143.813 103.496 143.878C103.349 144.152 103.179 144.364 102.975 144.598C102.908 144.676 102.841 144.754 102.771 144.834C102.588 145.012 102.588 145.012 102.367 145.012C102.331 145.121 102.294 145.231 102.257 145.343C102.184 145.343 102.111 145.343 102.036 145.343C102.008 145.408 101.979 145.473 101.95 145.539C101.803 145.807 101.642 145.977 101.421 146.186C101.137 146.453 101.137 146.453 100.931 146.78C100.858 146.78 100.785 146.78 100.71 146.78C100.684 146.842 100.658 146.905 100.631 146.969C100.457 147.279 100.242 147.486 99.9851 147.733C99.6395 148.051 99.6395 148.051 99.3843 148.437C99.3114 148.437 99.2385 148.437 99.1634 148.437C99.1634 148.51 99.1634 148.583 99.1634 148.658C99.0904 148.658 99.0175 148.658 98.9424 148.658C98.914 148.723 98.8857 148.787 98.8565 148.854C98.7098 149.121 98.5485 149.291 98.3278 149.5C98.0431 149.768 98.0431 149.768 97.8376 150.094C97.7647 150.094 97.6917 150.094 97.6166 150.094C97.6166 150.167 97.6166 150.24 97.6166 150.315C97.5437 150.315 97.4708 150.315 97.3956 150.315C97.367 150.38 97.3384 150.445 97.3089 150.512C97.1653 150.774 97.0114 150.939 96.7949 151.144C96.5738 151.357 96.385 151.552 96.2011 151.8C96.1578 151.857 96.1145 151.914 96.0699 151.972C95.997 151.972 95.924 151.972 95.8489 151.972C95.8203 152.037 95.7917 152.102 95.7622 152.169C95.6186 152.431 95.4646 152.596 95.2482 152.801C95.027 153.014 94.8383 153.21 94.6543 153.457C94.611 153.514 94.5677 153.571 94.5231 153.63C94.4502 153.63 94.3773 153.63 94.3022 153.63C94.2738 153.694 94.2455 153.759 94.2163 153.826C94.0695 154.093 93.9083 154.263 93.6876 154.472C93.4028 154.739 93.4028 154.739 93.1974 155.066C93.1244 155.066 93.0515 155.066 92.9764 155.066C92.9356 155.161 92.9356 155.161 92.894 155.258C92.7336 155.547 92.5452 155.736 92.3066 155.964C91.9914 156.257 91.9914 156.257 91.7611 156.613C91.6882 156.613 91.6153 156.613 91.5401 156.613C91.5037 156.722 91.4672 156.831 91.4296 156.944C91.3567 156.944 91.2838 156.944 91.2087 156.944C91.1802 157.007 91.1517 157.071 91.1224 157.136C90.9752 157.409 90.8054 157.622 90.601 157.856C90.5338 157.934 90.4666 158.012 90.3973 158.092C90.2144 158.27 90.2144 158.27 89.9934 158.27C89.9569 158.379 89.9205 158.489 89.8829 158.601C89.7014 158.788 89.5167 158.972 89.3305 159.154C89.1559 159.359 88.9844 159.567 88.8148 159.777C88.7662 159.827 88.7176 159.876 88.6676 159.927C88.5947 159.927 88.5218 159.927 88.4467 159.927C88.4102 160.036 88.3737 160.146 88.3362 160.258C88.1546 160.445 87.97 160.629 87.7838 160.811C87.6092 161.017 87.4377 161.225 87.268 161.435C87.2195 161.484 87.1709 161.533 87.1209 161.584C87.048 161.584 86.975 161.584 86.8999 161.584C86.8635 161.694 86.827 161.803 86.7894 161.916C86.6079 162.102 86.4232 162.286 86.237 162.468C86.0624 162.674 85.8909 162.882 85.7213 163.092C85.6727 163.141 85.6242 163.191 85.5741 163.241C85.5012 163.241 85.4283 163.241 85.3532 163.241C85.3167 163.351 85.2803 163.46 85.2427 163.573C85.0611 163.76 84.8765 163.943 84.6903 164.125C84.5901 164.246 84.4911 164.368 84.3934 164.491C84.3091 164.589 84.2247 164.687 84.1379 164.788C84.065 164.788 83.992 164.788 83.9169 164.788C83.9169 164.861 83.9169 164.934 83.9169 165.009C83.844 165.009 83.7711 165.009 83.6959 165.009C83.6959 165.082 83.6959 165.155 83.6959 165.23C83.5144 165.417 83.3297 165.6 83.1435 165.783C83.0433 165.904 82.9443 166.026 82.8466 166.149C82.7623 166.247 82.678 166.344 82.5911 166.445C82.5182 166.445 82.4453 166.445 82.3702 166.445C82.3702 166.518 82.3702 166.591 82.3702 166.666C82.2973 166.666 82.2243 166.666 82.1492 166.666C82.1492 166.739 82.1492 166.812 82.1492 166.887C81.9676 167.074 81.783 167.258 81.5968 167.44C81.4772 167.594 81.4772 167.594 81.3551 167.751C81.289 167.83 81.223 167.91 81.1549 167.992C81.082 167.992 81.009 167.992 80.9339 167.992C80.9339 168.065 80.9339 168.138 80.9339 168.213C80.861 168.213 80.7881 168.213 80.7129 168.213C80.6765 168.323 80.64 168.432 80.6025 168.545C80.4208 168.731 80.2363 168.915 80.0501 169.097C79.9304 169.251 79.9304 169.251 79.8084 169.408C79.7423 169.487 79.6762 169.567 79.6081 169.649C79.5352 169.649 79.4623 169.649 79.3872 169.649C79.3872 169.722 79.3872 169.795 79.3872 169.87C79.3143 169.87 79.2413 169.87 79.1662 169.87C79.1297 169.98 79.0933 170.089 79.0557 170.202C78.874 170.388 78.6897 170.572 78.5033 170.754C78.4418 170.839 78.3803 170.923 78.3169 171.01C78.269 171.071 78.2212 171.133 78.1719 171.196C78.099 171.196 78.026 171.196 77.9509 171.196C77.9509 171.269 77.9509 171.342 77.9509 171.417C77.878 171.417 77.8051 171.417 77.7299 171.417C77.6924 171.509 77.6924 171.509 77.654 171.604C77.4012 172.049 77.0476 172.351 76.6251 172.632C76.5887 172.742 76.5522 172.851 76.5147 172.964C76.4417 172.964 76.3688 172.964 76.2937 172.964C76.2937 173.037 76.2937 173.11 76.2937 173.185C76.1114 173.221 75.9291 173.258 75.7413 173.295C75.7117 173.227 75.682 173.159 75.6515 173.088C75.5252 172.82 75.5252 172.82 75.1889 172.632C75.1524 172.523 75.116 172.414 75.0784 172.301C74.9724 172.222 74.9724 172.222 74.8643 172.142C74.6156 171.954 74.5451 171.805 74.4155 171.528C74.3426 171.491 74.2697 171.455 74.1945 171.417C74.1209 171.27 74.0472 171.122 73.9736 170.975C73.9007 170.939 73.8277 170.902 73.7526 170.865C73.7162 170.755 73.6797 170.646 73.6421 170.533C73.5328 170.46 73.4234 170.387 73.3107 170.312C73.2742 170.203 73.2378 170.094 73.2002 169.981C73.1273 169.944 73.0544 169.908 72.9792 169.87C72.9246 169.706 72.9246 169.706 72.8688 169.539C72.7958 169.502 72.7229 169.466 72.6478 169.428C72.5931 169.264 72.5931 169.264 72.5373 169.097C72.4644 169.061 72.3915 169.024 72.3164 168.987C72.1767 168.749 72.055 168.505 71.931 168.26C71.7707 167.98 71.7707 167.98 71.5154 167.748C71.1098 167.337 70.7979 166.88 70.4727 166.404C70.4085 166.313 70.3444 166.222 70.2783 166.128C70.0025 165.726 69.76 165.371 69.6419 164.894C69.613 164.786 69.5841 164.678 69.5543 164.567C69.4449 164.531 69.3356 164.494 69.2229 164.457C69.0917 164.063 69.0917 164.063 69.0019 163.683C68.929 163.683 68.8561 163.683 68.781 163.683C68.5991 163.42 68.4328 163.158 68.27 162.882C68.2003 162.769 68.2003 162.769 68.1293 162.654C68.0854 162.581 68.0416 162.507 67.9964 162.432C67.9561 162.365 67.9159 162.298 67.8744 162.228C67.7866 162.026 67.7866 162.026 67.7866 161.584C67.7137 161.584 67.6408 161.584 67.5657 161.584C67.4563 161.256 67.3469 160.928 67.2342 160.59C67.1613 160.59 67.0884 160.59 67.0132 160.59C66.7673 160.101 66.5216 159.611 66.2762 159.122C66.1928 158.956 66.1093 158.789 66.0258 158.623C65.9052 158.383 65.7849 158.143 65.6646 157.903C65.6276 157.83 65.5907 157.757 65.5526 157.681C65.3224 157.221 65.1137 156.756 64.9141 156.281C64.8447 156.125 64.775 155.968 64.7048 155.812C64.4469 155.233 64.1984 154.65 63.9543 154.065C63.8875 153.909 63.8875 153.909 63.8194 153.749C63.5695 153.148 63.4126 152.623 63.3674 151.972C63.2944 151.972 63.2215 151.972 63.1464 151.972C63.0402 151.676 62.9344 151.379 62.8288 151.082C62.7841 150.957 62.7841 150.957 62.7386 150.83C62.6048 150.453 62.4795 150.08 62.3722 149.694C62.2696 149.315 62.2696 149.315 62.0977 148.948C61.9064 148.488 61.7983 148.039 61.6963 147.553C61.6683 147.426 61.6683 147.426 61.6398 147.296C61.5314 146.794 61.445 146.294 61.3787 145.785C61.3058 145.785 61.2329 145.785 61.1577 145.785C60.8208 144.514 60.8208 144.514 60.7572 143.942C60.7563 143.593 60.7563 143.593 60.6053 143.465C60.5804 143.256 60.5559 143.046 60.5367 142.836C60.4998 142.568 60.4998 142.568 60.3874 142.268C60.2665 141.896 60.2118 141.547 60.1634 141.159C60.1012 140.663 60.0129 140.19 59.8876 139.708C59.5589 138.411 59.4422 137.094 59.351 135.764C59.3431 135.65 59.3352 135.536 59.327 135.418C59.3205 135.316 59.3139 135.214 59.3071 135.109C59.2873 134.831 59.2873 134.831 59.1691 134.516C59.0623 133.692 59.03 132.859 58.9982 132.029C58.9913 131.85 58.9913 131.85 58.9842 131.668C58.9351 130.307 58.9215 128.946 58.9205 127.584C58.9203 127.453 58.9201 127.322 58.9199 127.187C58.9198 125.489 58.9557 123.801 59.1 122.108C59.107 122.025 59.114 121.943 59.1211 121.858C59.1905 121.063 59.2848 120.282 59.4547 119.502C59.5194 119.174 59.5356 118.85 59.5488 118.517C59.588 117.87 59.7015 117.278 59.8587 116.65C59.9758 116.142 60.0422 115.631 60.1116 115.114C60.3231 113.586 60.3231 113.586 60.4948 113.414C60.5394 113.225 60.5784 113.034 60.6148 112.842C60.6379 112.723 60.661 112.605 60.6847 112.482C60.7322 112.233 60.7797 111.984 60.8272 111.736C60.9782 110.958 61.1605 110.198 61.3787 109.437C61.4093 109.323 61.4093 109.323 61.4406 109.207C61.5115 108.945 61.5808 108.699 61.7073 108.459C61.8388 108.184 61.9019 107.921 61.9695 107.624C62.152 106.871 62.3887 106.143 62.6423 105.411C62.6897 105.274 62.7371 105.137 62.7859 104.996C63.4665 103.049 64.2694 101.144 65.1351 99.2727C65.1996 99.1327 65.1996 99.1327 65.2654 98.9898C67.6254 93.9001 70.5867 89.1839 74.0841 84.7997C74.1608 84.7014 74.2376 84.6031 74.3167 84.5019C74.7903 83.8988 75.292 83.329 75.8112 82.7648C76.0287 82.5276 76.2419 82.2879 76.4525 82.0445C77.4038 80.953 78.4009 79.9124 79.4262 78.8907C79.6302 78.6873 79.8336 78.4833 80.0369 78.2793C80.6855 77.6303 81.3365 76.9945 82.0387 76.4031C82.1743 76.285 82.3097 76.1668 82.4448 76.0483C85.0696 73.7618 87.8139 71.6221 90.7668 69.7742C90.8453 69.725 90.9238 69.6757 91.0048 69.625C96.4697 66.2138 102.701 62.8404 109.083 61.5502C109.334 61.4926 109.334 61.4926 109.584 61.3829C109.87 61.271 110.146 61.1918 110.445 61.1199C110.554 61.0935 110.664 61.0672 110.776 61.04C110.893 61.0124 111.01 60.9848 111.13 60.9564C111.251 60.9276 111.372 60.8988 111.497 60.8691C112.355 60.6671 113.216 60.4754 114.078 60.2935C114.239 60.2592 114.239 60.2592 114.403 60.2243C114.954 60.1104 115.495 60.026 116.055 59.9717C116.286 59.9415 116.502 59.8917 116.727 59.8308C117.217 59.7001 117.704 59.654 118.208 59.6099C118.752 59.5617 119.283 59.5024 119.818 59.3894C120.386 59.2703 120.951 59.2098 121.529 59.1611C121.669 59.1481 121.669 59.1481 121.812 59.1349C123.802 58.9598 125.788 58.9264 127.785 58.9265Z" fill="#A655F5"/>
<path d="M180.153 82.7094C180.428 82.8426 180.468 82.9806 180.588 83.2549C180.661 83.2913 180.734 83.3278 180.809 83.3654C180.846 83.4747 180.882 83.5841 180.92 83.6968C181.022 83.772 181.022 83.772 181.127 83.8487C181.404 84.0605 181.52 84.2805 181.693 84.5807C181.801 84.6936 181.912 84.8038 182.024 84.9121C182.577 85.5259 182.577 85.5259 182.577 85.796C182.65 85.796 182.723 85.796 182.798 85.796C182.834 85.9418 182.871 86.0876 182.908 86.2379C182.981 86.2379 183.054 86.2379 183.129 86.2379C183.166 86.3837 183.202 86.5296 183.24 86.6798C183.313 86.6798 183.386 86.6798 183.461 86.6798C183.497 86.8256 183.534 86.9715 183.571 87.1217C183.644 87.1217 183.717 87.1217 183.792 87.1217C183.829 87.2676 183.865 87.4134 183.903 87.5637C183.976 87.5637 184.049 87.5637 184.124 87.5637C184.171 87.6662 184.219 87.7687 184.269 87.8744C184.427 88.2172 184.427 88.2172 184.635 88.3992C184.842 88.6165 184.858 88.8183 184.897 89.1104C185.006 89.1104 185.116 89.1104 185.228 89.1104C185.228 89.2198 185.228 89.3292 185.228 89.4418C185.301 89.4418 185.374 89.4418 185.449 89.4418C185.449 89.5512 185.449 89.6606 185.449 89.7733C185.522 89.7733 185.595 89.7733 185.67 89.7733C185.707 89.992 185.743 90.2108 185.781 90.4362C185.89 90.4726 186 90.5091 186.112 90.5467C186.241 90.743 186.241 90.743 186.354 90.9817C186.392 91.0602 186.43 91.1386 186.469 91.2195C186.554 91.4305 186.554 91.4305 186.554 91.6515C186.627 91.6515 186.7 91.6515 186.775 91.6515C186.775 91.7244 186.775 91.7973 186.775 91.8724C186.848 91.8724 186.921 91.8724 186.996 91.8724C187.07 92.0149 187.144 92.1576 187.217 92.3006C187.258 92.38 187.299 92.4595 187.341 92.5414C187.438 92.7563 187.438 92.7563 187.438 92.9772C187.511 92.9772 187.584 92.9772 187.659 92.9772C187.696 93.1595 187.732 93.3418 187.77 93.5297C187.842 93.5297 187.915 93.5297 187.99 93.5297C188.157 93.8746 188.322 94.22 188.488 94.5654C188.535 94.6637 188.583 94.762 188.631 94.8632C188.676 94.9572 188.721 95.0512 188.767 95.148C188.83 95.2782 188.83 95.2782 188.894 95.411C188.985 95.6288 188.985 95.6288 188.985 95.8498C189.058 95.8498 189.131 95.8498 189.206 95.8498C191.34 99.9737 193.037 104.224 194.398 108.666C194.441 108.801 194.484 108.936 194.527 109.076C194.899 110.304 195.15 111.566 195.421 112.819C195.497 113.165 195.574 113.511 195.653 113.856C196.165 116.117 196.5 118.383 196.739 120.687C196.753 120.821 196.753 120.821 196.768 120.957C197.011 123.291 197.073 125.613 197.071 127.958C197.071 128.159 197.071 128.159 197.07 128.363C197.06 135.937 195.838 143.421 193.324 150.575C193.127 151.142 192.939 151.714 192.752 152.285C192.625 152.654 192.475 153.003 192.309 153.356C192.146 153.729 192.01 154.112 191.871 154.495C191.623 155.174 191.336 155.815 190.996 156.454C190.878 156.695 190.804 156.905 190.753 157.167C190.68 157.167 190.607 157.167 190.532 157.167C190.519 157.246 190.506 157.326 190.493 157.407C190.417 157.737 190.302 157.993 190.148 158.293C190.067 158.453 190.067 158.453 189.985 158.616C189.928 158.726 189.872 158.835 189.813 158.948C189.702 159.167 189.59 159.386 189.479 159.605C189.404 159.75 189.404 159.75 189.328 159.898C189.195 160.158 189.195 160.158 189.095 160.481C189.022 160.481 188.949 160.481 188.874 160.481C188.851 160.566 188.828 160.651 188.804 160.739C188.595 161.302 188.302 161.805 188.004 162.325C187.94 162.438 187.876 162.551 187.81 162.667C183.401 170.344 183.401 170.344 181.914 171.088C181.878 171.161 181.841 171.233 181.804 171.309C181.693 171.53 181.693 171.53 181.472 171.64C181.417 171.731 181.363 171.822 181.306 171.916C181.141 172.192 181.141 172.192 180.92 172.303C180.865 172.394 180.81 172.485 180.754 172.579C180.588 172.855 180.588 172.855 180.367 172.966C180.331 173.075 180.294 173.185 180.257 173.297C180.184 173.297 180.111 173.297 180.036 173.297C180.004 173.368 179.972 173.439 179.939 173.511C179.815 173.739 179.815 173.739 179.594 173.85C179.557 173.959 179.521 174.068 179.483 174.181C179.411 174.181 179.338 174.181 179.262 174.181C179.234 174.247 179.206 174.313 179.177 174.381C179.029 174.645 178.885 174.776 178.648 174.961C178.357 175.189 178.279 175.254 178.158 175.617C178.085 175.617 178.012 175.617 177.937 175.617C177.912 175.678 177.887 175.739 177.862 175.801C177.672 176.137 177.418 176.387 177.145 176.655C177.061 176.74 177.061 176.74 176.974 176.826C176.855 176.945 176.735 177.064 176.615 177.183C176.434 177.362 176.254 177.542 176.074 177.722C175.519 178.274 174.96 178.817 174.365 179.326C174.013 179.628 173.678 179.949 173.34 180.267C173.075 180.479 173.075 180.479 172.79 180.59C172.471 180.721 172.347 180.871 172.136 181.141C171.84 181.5 171.639 181.649 171.197 181.804C171.14 181.881 171.083 181.958 171.024 182.037C170.649 182.483 170.202 182.8 169.733 183.144C169.635 183.217 169.536 183.29 169.434 183.366C168.563 184.008 167.679 184.629 166.778 185.229C166.696 185.284 166.614 185.339 166.53 185.396C164.223 186.937 161.815 188.288 159.366 189.587C159.075 189.743 158.786 189.9 158.496 190.058C157.69 190.496 156.901 190.884 156.032 191.187C155.727 191.297 155.727 191.297 155.461 191.469C155.128 191.666 154.798 191.782 154.432 191.906C154.011 192.049 153.608 192.198 153.207 192.387C152.387 192.757 151.522 193.015 150.668 193.294C150.493 193.352 150.317 193.411 150.141 193.469C149.8 193.582 149.459 193.694 149.118 193.806C148.847 193.895 148.577 193.986 148.308 194.079C147.332 194.416 146.339 194.673 145.338 194.924C145.243 194.948 145.148 194.972 145.051 194.996C137.39 196.905 129.462 197.581 121.591 196.83C121.515 196.823 121.438 196.815 121.359 196.808C119.241 196.606 117.15 196.323 115.063 195.9C114.767 195.841 114.471 195.784 114.175 195.729C109.467 194.845 104.877 193.327 100.489 191.416C100.382 191.37 100.274 191.323 100.164 191.275C99.8529 191.139 99.5426 191.002 99.2325 190.864C99.1391 190.823 99.0457 190.781 98.9496 190.739C98.8217 190.681 98.8217 190.681 98.6913 190.622C98.6167 190.589 98.5422 190.555 98.4654 190.521C98.2796 190.422 98.2796 190.422 98.0586 190.201C98.1241 190.168 98.1896 190.135 98.2571 190.102C105.386 186.541 112.516 182.98 119.644 179.417C119.751 179.364 119.857 179.311 119.967 179.256C122.28 178.1 124.593 176.944 126.906 175.789C128.04 175.222 129.175 174.655 130.309 174.088C130.422 174.032 130.535 173.975 130.651 173.917C134.311 172.088 137.972 170.259 141.633 168.431C145.394 166.552 149.155 164.673 152.915 162.793C153.446 162.528 153.977 162.263 154.508 161.997C154.612 161.945 154.717 161.893 154.824 161.839C156.508 160.998 158.192 160.157 159.876 159.316C161.568 158.471 163.259 157.626 164.951 156.78C165.956 156.277 166.962 155.775 167.968 155.273C168.64 154.938 169.311 154.602 169.982 154.266C170.364 154.075 170.747 153.883 171.13 153.693C171.543 153.488 171.954 153.281 172.366 153.074C172.486 153.015 172.605 152.956 172.728 152.895C173.825 152.357 173.825 152.357 174.546 151.408C174.58 151.335 174.614 151.262 174.649 151.186C174.9 150.57 174.934 149.981 174.843 149.323C174.696 149.024 174.532 148.782 174.325 148.521C174.18 148.328 174.18 148.328 174.18 148.107C174.107 148.107 174.034 148.107 173.959 148.107C173.959 148.035 173.959 147.962 173.959 147.887C173.891 147.852 173.823 147.818 173.752 147.783C173.6 147.707 173.448 147.631 173.296 147.555C173.296 147.482 173.296 147.409 173.296 147.334C173.228 147.3 173.16 147.266 173.089 147.231C172.937 147.155 172.785 147.079 172.634 147.003C172.634 146.93 172.634 146.857 172.634 146.782C172.576 146.758 172.518 146.734 172.458 146.71C172.087 146.502 171.784 146.225 171.467 145.946C171.327 145.825 171.188 145.704 171.049 145.584C170.946 145.494 170.946 145.494 170.841 145.403C170.574 145.174 170.303 144.952 170.03 144.731C169.586 144.37 169.148 144.004 168.711 143.633C168.273 143.26 167.832 142.891 167.386 142.528C166.877 142.114 166.376 141.692 165.876 141.267C165.499 140.947 165.118 140.631 164.734 140.319C164.225 139.904 163.724 139.482 163.225 139.058C162.847 138.737 162.467 138.421 162.083 138.109C161.574 137.695 161.073 137.273 160.573 136.848C160.098 136.445 159.617 136.05 159.134 135.658C158.912 135.475 158.693 135.292 158.475 135.105C158.354 135.002 158.233 134.898 158.112 134.794C158.023 134.718 158.023 134.718 157.932 134.64C157.408 134.195 156.86 133.789 156.301 133.389C156.222 133.324 156.143 133.259 156.061 133.192C156.061 133.12 156.061 133.047 156.061 132.972C155.993 132.937 155.925 132.903 155.854 132.868C155.702 132.792 155.55 132.716 155.398 132.64C155.398 132.567 155.398 132.494 155.398 132.419C155.33 132.385 155.262 132.351 155.191 132.316C155.039 132.24 154.887 132.164 154.736 132.088C154.736 132.015 154.736 131.942 154.736 131.867C154.633 131.815 154.633 131.815 154.528 131.763C154.377 131.687 154.225 131.611 154.073 131.535C154.073 131.462 154.073 131.389 154.073 131.314C153.97 131.263 153.97 131.263 153.866 131.211C153.714 131.135 153.562 131.059 153.41 130.983C153.41 130.91 153.41 130.837 153.41 130.762C153.307 130.711 153.307 130.711 153.203 130.658C153.051 130.582 152.899 130.506 152.747 130.43C152.747 130.358 152.747 130.285 152.747 130.209C152.644 130.158 152.644 130.158 152.54 130.106C152.388 130.03 152.236 129.954 152.084 129.878C152.084 129.805 152.084 129.732 152.084 129.657C151.981 129.606 151.981 129.606 151.877 129.554C151.725 129.478 151.573 129.402 151.421 129.326C151.421 129.253 151.421 129.18 151.421 129.105C151.319 129.053 151.319 129.053 151.214 129.001C151.062 128.925 150.91 128.849 150.758 128.773C150.758 128.7 150.758 128.627 150.758 128.552C150.656 128.501 150.656 128.501 150.551 128.449C150.399 128.373 150.247 128.297 150.095 128.221C150.095 128.148 150.095 128.075 150.095 128C149.993 127.949 149.993 127.949 149.888 127.896C149.736 127.82 149.584 127.744 149.432 127.668C149.432 127.596 149.432 127.523 149.432 127.447C149.33 127.396 149.33 127.396 149.225 127.344C149.073 127.268 148.921 127.192 148.77 127.116C148.77 127.043 148.77 126.97 148.77 126.895C148.667 126.844 148.667 126.844 148.562 126.791C148.411 126.716 148.259 126.64 148.107 126.564C148.107 126.491 148.107 126.418 148.107 126.343C148.004 126.291 148.004 126.291 147.9 126.239C147.748 126.163 147.596 126.087 147.444 126.011C147.444 125.938 147.444 125.865 147.444 125.79C147.341 125.739 147.341 125.739 147.237 125.687C147.085 125.611 146.933 125.535 146.781 125.459C146.781 125.386 146.781 125.313 146.781 125.238C146.685 125.193 146.685 125.193 146.588 125.147C145.987 124.832 145.489 124.388 145.013 123.912C144.867 123.8 144.72 123.69 144.571 123.581C144.248 123.342 143.962 123.101 143.687 122.807C143.587 122.707 143.487 122.607 143.384 122.503C143.302 122.421 143.22 122.339 143.135 122.255C143.381 121.799 143.675 121.474 144.046 121.115C144.478 120.695 144.886 120.263 145.277 119.805C145.517 119.533 145.776 119.281 146.035 119.027C146.238 118.821 146.427 118.607 146.615 118.388C146.919 118.035 147.239 117.706 147.572 117.38C147.768 117.18 147.951 116.975 148.134 116.762C148.539 116.296 148.959 115.846 149.384 115.398C149.541 115.233 149.697 115.067 149.853 114.901C149.931 114.819 150.009 114.737 150.089 114.652C150.428 114.292 150.766 113.93 151.103 113.568C151.166 113.501 151.229 113.433 151.294 113.364C151.42 113.228 151.547 113.093 151.673 112.957C151.994 112.613 152.315 112.269 152.636 111.925C152.765 111.787 152.894 111.649 153.023 111.511C156.374 107.92 159.726 104.329 163.077 100.739C163.141 100.67 163.205 100.602 163.27 100.531C163.399 100.393 163.528 100.255 163.657 100.117C163.978 99.773 164.299 99.4292 164.62 99.0852C165.353 98.2997 166.086 97.5152 166.821 96.7317C167.481 96.0286 168.139 95.3239 168.796 94.6189C169.118 94.2741 169.439 93.9295 169.761 93.5849C169.89 93.4468 170.019 93.3087 170.148 93.1706C171.437 91.7896 172.726 90.4086 174.015 89.0275C174.078 88.9592 174.142 88.8908 174.208 88.8204C174.337 88.6822 174.466 88.544 174.595 88.4058C174.916 88.062 175.237 87.7181 175.557 87.3742C175.685 87.2371 175.813 87.1 175.941 86.9629C176.004 86.8951 176.068 86.8272 176.133 86.7574C176.469 86.3967 176.807 86.0365 177.144 85.6768C177.886 84.8872 178.625 84.0953 179.354 83.2942C179.433 83.2083 179.512 83.1224 179.594 83.0339C179.685 82.9339 179.685 82.9339 179.778 82.8319C179.925 82.7025 179.925 82.7025 180.153 82.7094Z" fill="#A655F5"/>
</svg>
