<svg width="256" height="256" viewBox="0 0 256 256" fill="none" xmlns="http://www.w3.org/2000/svg">
<g clip-path="url(#clip0_627_3648)">
<rect width="256" height="256" fill="url(#paint0_linear_627_3648)"/>
<g filter="url(#filter0_d_627_3648)">
<path d="M144.876 84.7931H158.495V165.169C158.495 180.879 147.322 194.868 131.878 196.833C126.913 197.475 121.868 196.87 117.19 195.071C117.037 195.014 117.101 194.771 117.262 194.771C117.423 194.771 117.817 194.771 118.067 194.771C117.528 194.771 116.989 194.771 116.458 194.771H116.394C104.956 190.02 97.4819 178.781 97.4585 166.298V132.702C97.4565 132.662 97.4708 132.623 97.4982 132.594C97.5256 132.564 97.5637 132.548 97.6035 132.548H110.956C111.04 132.548 111.109 132.617 111.109 132.702V165.551C111.109 174.287 117.303 182.138 125.893 183.193C130.701 183.799 135.534 182.291 139.166 179.055C142.797 175.818 144.877 171.163 144.876 166.274V84.7931ZM205.639 90.5818C203.684 74.9937 189.825 63.7086 174.268 63.7086H127.961V58.9185H127.848L116.86 70.504C116.812 70.5659 116.812 70.6532 116.86 70.7151L127.848 82.3006H127.961V77.4781H175.419C180.263 77.4797 184.874 79.581 188.08 83.248C191.285 86.9149 192.776 91.7944 192.174 96.6466C191.128 105.317 183.326 111.569 174.703 111.569H165.855C165.77 111.569 165.702 111.638 165.702 111.723V125.16C165.702 125.245 165.77 125.314 165.855 125.314H175.427C187.795 125.291 198.93 117.747 203.636 106.202C203.639 106.181 203.639 106.159 203.636 106.137C203.636 105.91 203.636 105.707 203.636 105.48V104.433C203.636 104.741 203.636 105.033 203.636 105.358C203.636 105.52 203.869 105.585 203.926 105.431C205.708 100.702 206.297 95.5984 205.639 90.5818ZM127.961 130.129H128.073L139.053 118.543C139.101 118.481 139.101 118.394 139.053 118.332L128.073 106.755H127.961V111.569H80.599C75.7558 111.567 71.1464 109.467 67.9414 105.802C64.7364 102.137 63.2443 97.2594 63.8439 92.4086C64.8896 83.7377 72.692 77.4781 81.3149 77.4781H110.642C110.682 77.4803 110.721 77.4659 110.75 77.4382C110.779 77.4106 110.795 77.3721 110.795 77.3319V63.8872C110.795 63.802 110.727 63.7329 110.642 63.7329H80.599C68.2311 63.7563 57.096 71.3003 52.3897 82.8446C52.3858 82.8688 52.3858 82.8935 52.3897 82.9177C52.3897 83.5022 52.3897 84.0624 52.3897 84.6226C52.3897 84.3141 52.3897 84.0137 52.3897 83.6971C52.3897 83.5266 52.1564 83.4616 52.1001 83.624C50.3112 88.3436 49.7087 93.437 50.3466 98.449C52.3012 114.029 66.1847 125.314 81.7252 125.314H127.961V130.129Z" fill="url(#paint1_linear_627_3648)"/>
</g>
</g>
<defs>
<filter id="filter0_d_627_3648" x="-64.5464" y="-49.8482" width="385.093" height="367.455" filterUnits="userSpaceOnUse" color-interpolation-filters="sRGB">
<feFlood flood-opacity="0" result="BackgroundImageFix"/>
<feColorMatrix in="SourceAlpha" type="matrix" values="0 0 0 0 0 0 0 0 0 0 0 0 0 0 0 0 0 0 127 0" result="hardAlpha"/>
<feOffset dy="5.87928"/>
<feGaussianBlur stdDeviation="57.323"/>
<feColorMatrix type="matrix" values="0 0 0 0 0.0258527 0 0 0 0 0.197747 0 0 0 0 0 0 0 0 0.5 0"/>
<feBlend mode="normal" in2="BackgroundImageFix" result="effect1_dropShadow_627_3648"/>
<feBlend mode="normal" in="SourceGraphic" in2="effect1_dropShadow_627_3648" result="shape"/>
</filter>
<linearGradient id="paint0_linear_627_3648" x1="128" y1="0" x2="128" y2="256" gradientUnits="userSpaceOnUse">
<stop stop-color="#031602"/>
<stop offset="1" stop-color="#031602"/>
</linearGradient>
<linearGradient id="paint1_linear_627_3648" x1="128" y1="58.9185" x2="128" y2="197.082" gradientUnits="userSpaceOnUse">
<stop stop-color="#0FFF00"/>
<stop offset="1" stop-color="#0FFF00" stop-opacity="0.6"/>
</linearGradient>
<clipPath id="clip0_627_3648">
<rect width="256" height="256" fill="white"/>
</clipPath>
</defs>
</svg>
