<svg width="256" height="256" viewBox="0 0 256 256" fill="none" xmlns="http://www.w3.org/2000/svg">
<g clip-path="url(#clip0_1877_4333)">
<path d="M256 0H0V256H256V0Z" fill="url(#paint0_linear_1877_4333)"/>
<path d="M256 0H0V256H256V0Z" fill="black" fill-opacity="0.5"/>
<g clip-path="url(#clip1_1877_4333)">
<mask id="mask0_1877_4333" style="mask-type:luminance" maskUnits="userSpaceOnUse" x="49" y="49" width="158" height="158">
<path d="M49 49H207V207H49V49Z" fill="white"/>
</mask>
<g mask="url(#mask0_1877_4333)">
<path d="M76.7061 96.4718C76.7061 96.4767 76.711 96.4792 76.7135 96.4841L76.7184 96.494L76.7061 96.4718ZM206.311 175.578C204.921 167.836 201.506 159.18 196.554 150.051C195.67 148.42 194.757 146.805 193.814 145.207C189.508 150.75 185.035 155.939 180.053 160.953C183.8 168.095 185.995 174.028 186.881 178.693V178.703C187.889 183.984 186.983 185.91 186.701 186.324C186.627 186.433 186.526 186.554 186.17 186.71C185.724 186.902 184.778 187.169 183.075 187.169H182.625C178.883 187.055 173.521 185.754 166.448 182.584L166.44 182.579L166.43 182.574C164.735 181.817 163.06 181.013 161.409 180.162C155.988 185.11 150.734 189.628 145.288 193.802C149.567 196.337 153.981 198.637 158.511 200.69L158.72 200.789C167.366 204.645 175.626 206.975 182.959 207.005C190.55 207.035 198.09 204.504 202.83 197.668C207.298 191.217 207.671 183.164 206.311 175.578ZM152.744 161.267L152.953 161.067C158.573 155.681 163.964 150.062 169.114 144.225C177.461 134.572 185.339 123.981 193.261 111.729C194.399 109.828 195.497 107.904 196.554 105.957C201.509 96.8248 204.923 88.1694 206.308 80.4298C207.668 72.8434 207.298 64.7854 202.827 58.337C198.087 51.4986 190.545 48.9755 182.954 49.0002C178.542 49.0175 173.79 49.8692 168.823 51.385C172.936 56.7979 176.006 62.9294 177.875 69.4661C179.678 69.0761 181.258 68.8761 182.623 68.8341H183.072C184.776 68.8341 185.721 69.1057 186.168 69.2958C186.524 69.4488 186.622 69.5723 186.699 69.6809C186.98 70.0932 187.886 72.0213 186.879 77.2995V77.3118C185.951 82.2073 183.578 88.4977 179.485 96.1187L179.46 96.1607L179.453 96.1755L179.448 96.1879L179.436 96.215L179.428 96.2298L179.423 96.2372L179.414 96.2644L179.389 96.3088L179.367 96.3459L179.349 96.3755L179.33 96.415V96.4199L179.32 96.4372C179.32 96.4372 179.32 96.4421 179.315 96.4446V96.4496L179.31 96.457C179.306 96.4631 179.302 96.4698 179.3 96.4767L179.293 96.4915L179.278 96.5162C179.278 96.5236 179.273 96.5261 179.27 96.5335C176.555 101.56 173.256 106.811 169.46 112.166C165.633 117.557 162.535 121.631 157.086 128C153.125 132.624 149.001 137.107 144.723 141.44C142.935 143.252 141.108 145.054 139.252 146.837L139.247 146.844C138.457 147.605 137.662 148.357 136.87 149.101L136.86 149.11C133.978 151.809 131.032 154.439 128.024 156.996L128.022 156.991C122.808 161.467 117.616 165.567 112.115 169.371L112.14 169.396C106.072 173.667 100.214 177.271 94.7156 180.106C93.0291 180.977 91.3184 181.8 89.5856 182.574L89.5683 182.582C82.4929 185.749 77.1357 187.053 73.3881 187.169H72.9462C71.2428 187.169 70.2972 186.897 69.8504 186.707C69.4949 186.554 69.3937 186.431 69.3196 186.322C69.0382 185.91 68.1297 183.982 69.1369 178.703V178.696L69.1394 178.691C70.0108 174.092 72.1562 168.261 75.805 161.254C71.0723 156.069 66.5444 150.7 62.2318 145.16C61.2805 146.773 60.3587 148.403 59.4668 150.049C54.5046 159.18 51.0953 167.833 49.7078 175.573C48.35 183.159 48.7203 191.215 53.1888 197.663C57.9288 204.502 65.4683 207.03 73.0622 207C80.3944 206.973 88.6548 204.64 97.2979 200.781L97.5053 200.69H97.5103C105.166 197.246 113.224 192.6 121.395 186.988C130.194 180.854 138.738 174.052 147.433 166.226C149.23 164.594 151.005 162.938 152.758 161.259L152.744 161.267ZM98.9248 128C93.4763 121.631 90.3756 117.557 86.5515 112.166C82.757 106.813 79.4612 101.567 76.7456 96.5434L76.7283 96.5088L76.7184 96.4915L76.7135 96.4792L76.7012 96.457L76.6913 96.4397C76.6913 96.4397 76.6913 96.4347 76.6863 96.4323V96.4273L76.6839 96.4199L76.6789 96.4125L76.6765 96.4051L76.6715 96.3952L76.6543 96.3631L76.6345 96.3261L76.6296 96.3187L76.5925 96.2471V96.2372L76.5876 96.2323C76.5835 96.2261 76.5802 96.2195 76.5777 96.2126L76.5678 96.1953L76.5629 96.1879L76.5555 96.1731C76.5435 96.1519 76.532 96.1305 76.5209 96.1089L76.5086 96.0891L76.4987 96.0644H76.4963C72.4278 88.4755 70.0652 82.2098 69.1394 77.3291V77.3167C68.1321 72.0386 69.0406 70.1129 69.3196 69.6982C69.3937 69.5896 69.4973 69.4661 69.8528 69.3131C70.2972 69.118 71.2452 68.8514 72.9462 68.8514H73.3955C74.7508 68.8934 76.3136 69.0884 78.0935 69.4735C79.9654 62.9372 83.0379 56.8065 87.1538 51.3949C82.1843 49.8642 77.4467 49.0175 73.0449 49.0002C65.4585 48.9755 57.9164 51.501 53.1764 58.337C48.7055 64.7854 48.3377 72.8434 49.6955 80.4274C51.0829 88.1694 54.4972 96.8248 59.4495 105.957C60.3531 107.628 61.311 109.314 62.3133 111.005C70.1343 123.268 78.0565 133.913 86.6255 143.736L86.5515 143.842C90.1293 147.91 93.8249 151.872 97.6337 155.724C103.029 151.857 108.275 147.785 113.36 143.516C108.34 138.543 103.525 133.368 98.9273 128.003L98.9248 128ZM76.7061 96.4718C76.7061 96.4767 76.711 96.4792 76.7135 96.4841L76.7184 96.4915L76.7061 96.4668V96.4718Z" fill="#FEDE68"/>
<path d="M103.56 108.004C90.0633 94.5046 90.0633 72.6216 103.56 59.1225C117.059 45.6258 138.942 45.6258 152.441 59.1225C165.938 72.6216 165.938 94.5046 152.441 108.004L128.001 132.442L103.562 108.001L103.56 108.004Z" fill="white"/>
</g>
</g>
</g>
<defs>
<linearGradient id="paint0_linear_1877_4333" x1="203.859" y1="259.39" x2="52.1418" y2="-3.39126" gradientUnits="userSpaceOnUse">
<stop stop-color="#2F2F2F"/>
<stop offset="0.34" stop-color="#292929"/>
<stop offset="0.72" stop-color="#232121"/>
<stop offset="1" stop-color="#191919"/>
</linearGradient>
<clipPath id="clip0_1877_4333">
<rect width="256" height="256" fill="white"/>
</clipPath>
<clipPath id="clip1_1877_4333">
<rect width="158" height="158" fill="white" transform="translate(49 49)"/>
</clipPath>
</defs>
</svg>
