<svg width="256" height="256" viewBox="0 0 256 256" fill="none" xmlns="http://www.w3.org/2000/svg">
<g clip-path="url(#clip0_1508_289)">
<path d="M256 0H0V256H256V0Z" fill="#1A1A1A"/>
<g clip-path="url(#clip1_1508_289)">
<path fill-rule="evenodd" clip-rule="evenodd" d="M128 207.484L130.903 167.824L133.26 135.62C138.117 133.567 141.526 128.758 141.526 123.155C141.526 115.686 135.469 109.629 128 109.629C120.531 109.629 114.474 115.686 114.474 123.155C114.474 128.758 117.883 133.567 122.74 135.62L125.097 167.824L128 207.484Z" fill="#F3771C"/>
<path fill-rule="evenodd" clip-rule="evenodd" d="M35.6241 123.079C35.6241 145.959 43.9896 167.377 58.4979 183.927L49.7538 191.766C33.3818 173.134 23.8851 148.936 23.8851 123.079C23.8851 93.9435 35.8604 67.6 55.155 48.7005L55.5947 49.0949L81.4589 72.2808C57.1508 94.5646 52.1166 130.804 69.0293 158.721L77.9581 150.718C65.0657 127.427 69.9776 98.0093 90.25 80.1619L99.106 88.0991L106.983 95.1614L115.153 102.485C112.097 104.401 109.5 106.98 107.561 110.02C105.166 113.776 103.778 118.237 103.778 123.021C103.778 133.686 110.675 142.743 120.25 145.976L121.074 157.231C105.12 154.018 93.1018 139.921 93.1018 123.021C93.1018 115.496 95.4847 108.527 99.5372 102.826L91.7201 95.8173L91.6907 95.7907C78.8758 112.812 79.6676 136.444 93.4672 152.58L67.2409 176.09C41.4207 146.521 40.6835 102.635 65.4136 72.2357L56.6653 64.3929C44.5908 79.0524 36.9445 97.4956 35.7798 117.674L35.7265 117.734L35.7739 117.776C35.6745 119.531 35.6241 121.299 35.6241 123.079ZM135.75 145.976C145.325 142.743 152.222 133.686 152.222 123.021C152.222 118.237 150.834 113.776 148.439 110.02C146.501 106.98 143.903 104.401 140.848 102.486L149.017 95.1617L156.895 88.1L156.894 88.0991L165.75 80.1619C186.022 98.0093 190.934 127.427 178.042 150.718L186.971 158.721C203.883 130.804 198.849 94.5646 174.541 72.2808L200.407 49.0938L200.845 48.7005C220.14 67.6 232.115 93.9435 232.115 123.079C232.115 148.936 222.618 173.134 206.246 191.766L197.502 183.927C212.01 167.377 220.376 145.959 220.376 123.079C220.376 121.299 220.326 119.531 220.226 117.776L220.274 117.734L220.22 117.674C219.056 97.4956 211.409 79.0524 199.335 64.3929L190.587 72.2357C215.317 102.635 214.579 146.521 188.759 176.09L162.533 152.58C176.332 136.444 177.124 112.812 164.309 95.7907L164.28 95.8173L156.463 102.826C160.515 108.527 162.898 115.497 162.898 123.021C162.898 139.921 150.88 154.017 134.926 157.231L135.75 145.976Z" fill="#3C5280"/>
</g>
</g>
<defs>
<clipPath id="clip0_1508_289">
<rect width="256" height="256" fill="white"/>
</clipPath>
<clipPath id="clip1_1508_289">
<rect width="208.23" height="208.23" fill="white" transform="translate(23.885 23.8828)"/>
</clipPath>
</defs>
</svg>
