<svg width="256" height="256" viewBox="0 0 256 256" fill="none" xmlns="http://www.w3.org/2000/svg">
<rect width="256" height="256" fill="#ED5039"/>
<mask id="mask0_1213_5341" style="mask-type:alpha" maskUnits="userSpaceOnUse" x="0" y="0" width="256" height="256">
<rect width="256" height="256" fill="#C4C4C4"/>
</mask>
<g mask="url(#mask0_1213_5341)">
<path d="M124 35C72.0855 35 30 77.0321 30 128.881C30 159.198 44.3998 186.139 66.7248 203.3C76.686 197.392 95.0121 187.344 101.335 189.437C110.175 192.361 118.345 193.886 125.838 194.008C132.907 194.121 138.545 192.975 142.762 190.592C146.979 188.196 149.128 184.433 149.21 179.307C149.3 173.956 146.745 169.797 141.543 166.826C136.344 163.852 128.098 160.667 116.798 157.277C104.864 153.442 95.0716 149.702 87.4206 146.048C79.7663 142.394 73.1629 137.044 67.5974 130.003C62.0384 122.959 59.3481 113.766 59.5332 102.438C59.8042 85.7528 66.4373 73.025 79.4358 64.2482C92.4276 55.4714 108.675 51.2497 128.158 51.5666C141.437 51.7812 154.359 54.0752 166.922 58.452C179.494 62.8256 183.827 105.739 183.827 105.739C176.225 98.9823 167.103 93.6449 156.452 89.7302C145.81 85.8089 135.667 83.7723 126.029 83.6172C118.319 83.4917 112.145 84.7262 107.495 87.3272C102.848 89.9283 100.479 93.9024 100.393 99.2464C100.293 105.231 102.901 109.766 108.202 112.852C113.51 115.932 122.129 119.381 134.06 123.22C145.568 126.824 154.938 130.35 162.163 133.789C169.39 137.219 175.63 142.345 180.869 149.174C186.114 155.997 188.649 164.863 188.47 175.768C188.278 187.516 185.073 197.223 178.995 205C202.615 187.948 218 160.218 218 128.881C218 77.0321 175.915 35 124 35Z" fill="white"/>
</g>
</svg>
