<svg width="256" height="256" version="1.1" viewBox="0 0 256 256" xmlns="http://www.w3.org/2000/svg">
<rect width="256" height="256" fill="#18bcf2" fill-rule="evenodd" stroke-width="1.0238"/>
<path d="m198.01 119.2-63.219-63.893c-3.7312-3.7709-9.8432-3.7709-13.574 0l-63.226 63.893c-3.7312 3.7709-6.7904 11.229-6.7904 16.565v58.214c0 5.3357 4.32 9.7018 9.6 9.7018h59.053l-26.003-26.28c-1.3376 0.46592-2.7648 0.73088-4.2496 0.73088-7.232 0-13.12-5.9507-13.12-13.26 0-7.3088 5.888-13.26 13.12-13.26s13.12 5.9507 13.12 13.26c0 1.5072-0.2624 2.9498-0.7232 4.3014l20.243 20.459v-74.954c-4.352-2.16-7.36-6.6752-7.36-11.895 0-7.3088 5.888-13.26 13.12-13.26s13.12 5.9507 13.12 13.26c0 5.2198-3.008 9.735-7.36 11.895v52.567l20.134-20.349c-0.3968-1.2678-0.6144-2.6131-0.6144-4.0102 0-7.3094 5.888-13.26 13.12-13.26s13.12 5.9507 13.12 13.26c0 7.3088-5.888 13.26-13.12 13.26-1.6 0-3.1232-0.304-4.5376-0.83392l-28.102 28.401v19.974h61.44c5.28 0 9.6-4.3654 9.6-9.7018v-58.214c0-5.3363-3.0528-12.788-6.7904-16.565z" fill="#f2f4f9" stroke-width=".64"/>
</svg>
