<svg width="256" height="256" viewBox="0 0 256 256" fill="none" xmlns="http://www.w3.org/2000/svg">
<g clip-path="url(#clip0_1413_519)">
<path d="M256 0H0V256H256V0Z" fill="white"/>
<path d="M203.6 112.298L203.38 111.736L182.092 56.178C181.659 55.0891 180.892 54.1653 179.901 53.5393C178.91 52.924 177.754 52.6276 176.589 52.6902C175.424 52.7528 174.306 53.1714 173.386 53.8895C172.477 54.6282 171.817 55.6292 171.497 56.7562L157.123 100.734H98.9179L84.5439 56.7562C84.2321 55.623 83.571 54.6171 82.6545 53.8814C81.7348 53.1633 80.617 52.7447 79.4519 52.682C78.2868 52.6194 77.1306 52.9158 76.1393 53.5312C75.1508 54.1597 74.3846 55.0826 73.9486 56.1698L52.6196 111.703L52.4078 112.265C49.3433 120.273 48.965 129.059 51.33 137.3C53.6951 145.541 58.6752 152.79 65.5196 157.953L65.5929 158.01L65.7883 158.148L98.2176 182.434L114.261 194.576L124.034 201.955C125.177 202.823 126.573 203.293 128.008 203.293C129.443 203.293 130.839 202.823 131.982 201.955L141.755 194.576L157.799 182.434L190.423 158.002L190.505 157.937C197.334 152.772 202.302 145.531 204.664 137.301C207.025 129.071 206.652 120.298 203.6 112.298Z" fill="#E24329"/>
<path d="M203.6 112.298L203.38 111.736C193.007 113.865 183.233 118.259 174.754 124.604L128 159.957C143.921 172.002 157.782 182.467 157.782 182.467L190.407 158.035L190.489 157.97C197.327 152.805 202.304 145.559 204.668 137.323C207.033 129.086 206.658 120.304 203.6 112.298Z" fill="#FC6D26"/>
<path d="M98.2176 182.467L114.261 194.61L124.034 201.988C125.177 202.856 126.573 203.326 128.008 203.326C129.443 203.326 130.839 202.856 131.982 201.988L141.755 194.61L157.799 182.467C157.799 182.467 143.921 171.969 128 159.957C112.079 171.969 98.2176 182.467 98.2176 182.467Z" fill="#FCA326"/>
<path d="M81.2374 124.603C72.766 118.246 62.9933 113.84 52.6196 111.703L52.4078 112.265C49.3433 120.272 48.965 129.059 51.33 137.3C53.6951 145.541 58.6752 152.789 65.5196 157.953L65.5929 158.01L65.7883 158.148L98.2175 182.433C98.2175 182.433 112.062 171.968 128 159.923L81.2374 124.603Z" fill="#FC6D26"/>
</g>
<defs>
<clipPath id="clip0_1413_519">
<rect width="256" height="256" fill="white"/>
</clipPath>
</defs>
</svg>
