<svg width="256" height="256" viewBox="0 0 256 256" fill="none" xmlns="http://www.w3.org/2000/svg">
<rect width="256" height="256" fill="url(#paint0_linear_1213_5715)"/>
<mask id="mask0_1213_5715" style="mask-type:alpha" maskUnits="userSpaceOnUse" x="0" y="0" width="256" height="256">
<rect width="256" height="256" fill="#C4C4C4"/>
</mask>
<g mask="url(#mask0_1213_5715)">
<path d="M162.383 206.218C153.081 210.067 142.88 212.191 132.183 212.191C112.648 212.191 94.7715 205.107 80.9924 193.373C76.6989 189.717 72.8032 185.609 69.3792 181.124M53.2836 133.461C53.2836 111.721 62.1147 92.0381 76.3927 77.7908C83.6602 70.5389 92.3389 64.6951 101.983 60.7048M162.383 60.7048C172.027 64.6951 180.706 70.5389 187.973 77.7908C202.251 92.0381 211.082 111.721 211.082 133.461C211.082 144.136 208.953 154.314 205.096 163.597" stroke="white" stroke-width="11" stroke-linecap="round"/>
<path fill-rule="evenodd" clip-rule="evenodd" d="M193.003 186.617C194.509 182.782 190.99 178.874 187.018 179.971L156.839 188.303C153.256 189.292 151.967 193.706 154.454 196.469L173.192 217.279C175.679 220.041 180.203 219.22 181.562 215.761L193.003 186.617Z" fill="white"/>
<path fill-rule="evenodd" clip-rule="evenodd" d="M130.528 51.9051C126.578 53.0798 125.665 58.259 128.974 60.7135L154.121 79.3651C157.106 81.5794 161.378 79.8779 162.024 76.2175L166.886 48.6397C167.532 44.9792 164.099 41.9192 160.537 42.9789L130.528 51.9051Z" fill="white"/>
<path fill-rule="evenodd" clip-rule="evenodd" d="M56.0952 158.685C58.7196 161.861 63.8438 160.678 64.8102 156.673L72.1536 126.237C73.0254 122.624 69.79 119.357 66.1683 120.193L38.8828 126.492C35.2612 127.328 33.7856 131.683 36.1531 134.549L56.0952 158.685Z" fill="white"/>
<path d="M158.112 133.746C157.839 132.654 156.747 131.835 155.655 131.835H139.276L149.922 99.8948C150.195 98.8028 149.922 97.4379 148.83 96.8919C147.738 96.0729 146.646 96.3459 145.554 96.8919L99.1459 132.381C98.3269 133.2 97.7809 134.292 98.3269 135.384C98.8729 136.476 99.9648 137.295 101.057 137.295H117.436L106.79 169.235C106.517 170.327 106.79 171.691 107.882 172.237C108.155 172.51 108.701 172.783 109.247 172.783C109.793 172.783 110.339 172.51 110.884 172.237L157.293 136.749C158.112 135.93 158.658 134.838 158.112 133.746Z" fill="url(#paint1_linear_1213_5715)"/>
</g>
<defs>
<linearGradient id="paint0_linear_1213_5715" x1="4" y1="1.3411e-07" x2="252" y2="256" gradientUnits="userSpaceOnUse">
<stop stop-color="#009CE6"/>
<stop offset="1" stop-color="#8EFFF1"/>
</linearGradient>
<linearGradient id="paint1_linear_1213_5715" x1="148.5" y1="89" x2="104" y2="182" gradientUnits="userSpaceOnUse">
<stop stop-color="#FCFF61"/>
<stop offset="1" stop-color="#FB9F97"/>
</linearGradient>
</defs>
</svg>
