<svg width="256" height="256" viewBox="0 0 256 256" fill="none" xmlns="http://www.w3.org/2000/svg">
<g clip-path="url(#clip0_1769_1213)">
<rect width="256" height="256" fill="white"/>
<path d="M198.447 53.793C204.779 54.385 206.869 55.7082 211.419 60.0982C212.881 65.024 212.881 65.024 213.588 71.0125C213.873 73.2682 214.157 75.5238 214.45 77.8476C214.87 81.5449 214.87 81.5449 215.299 85.3192C215.634 87.933 215.974 90.5439 216.318 93.1548C217.226 100.105 218.079 107.059 218.908 114.018C219.251 116.872 219.601 119.729 219.959 122.582C226.157 172.177 226.157 172.177 220.524 180.037C215.071 183.826 209.444 183.213 202.932 183.411C193.678 183.71 186.914 184.53 178.439 188.139C162.56 190.457 151.211 186.647 137.701 178.438C137.348 180.262 137.348 180.262 136.987 182.124C135.759 186.2 135.759 186.2 131.638 189.353C120.487 194.684 110.117 196.469 97.8089 196.504C95.3667 196.537 92.9216 196.57 90.4054 196.605C79.7812 195.539 72.2268 191.777 65.4361 183.533C64.0388 181.89 64.0388 181.89 62.615 180.211C57.0468 171.994 55.6526 164.357 55.0072 154.552C54.8622 152.48 54.7171 150.408 54.5691 148.271C54.4715 146.702 54.3767 145.136 54.279 143.52C52.1595 143.638 50.04 143.76 47.8524 143.884C40.7006 143.52 40.7006 143.52 37.0625 141.095C31.3759 132.25 31.7282 120.664 32.9389 110.54C36.8819 104.555 39.1702 103.196 46.0349 101.325C48.1958 101.085 48.1958 101.085 50.4012 100.84C50.4485 99.6465 50.4989 98.4536 50.5521 97.2251C51.455 84.3571 51.455 84.3571 55.8568 79.4994C63.4054 76.0478 70.3766 75.2278 78.6504 75.0117C80.4946 74.9407 82.3388 74.8667 84.2363 74.7927C89.2006 75.6186 89.2006 75.6186 92.7469 79.082C95.941 85.1208 95.4081 90.2479 95.0203 96.9587C96.1215 96.6331 97.2257 96.3104 98.3624 95.9729C108.691 93.2495 115.999 92.2372 126.061 96.9587C128.85 102.053 128.85 102.053 129.939 106.659C130.981 105.218 132.02 103.779 133.092 102.293C140.661 93.5308 147.28 89.0461 158.798 87.7436C161.462 87.5511 164.129 87.3795 166.799 87.2581C166.548 85.8313 166.296 84.4044 166.036 82.9332C163.866 67.5786 163.866 67.5786 168.499 59.8555C178.238 54.012 187.399 54.6277 198.447 53.793ZM170.68 131.88C172.619 135.758 172.619 135.758 172.619 135.758L170.68 131.88ZM108.116 136.729C105.716 137.049 103.315 137.368 100.84 137.7C101.48 142.821 102.119 147.942 102.779 153.22C106.66 152.572 110.541 151.927 114.419 151.278C118.299 150.633 122.18 149.985 126.061 149.34C125.419 144.858 124.779 140.376 124.119 135.758C118.524 135.758 113.602 135.998 108.116 136.729ZM172.619 139.639C174.561 145.459 174.561 145.459 174.561 145.459L172.619 139.639Z" fill="#050505"/>
<path d="M199.778 67.8585C201.178 78.7935 202.558 89.7285 203.923 100.669C204.39 104.381 204.861 108.094 205.335 111.806C210.397 151.384 210.397 151.384 209.479 168.739C204.225 171.365 199.761 170.806 193.959 170.678C193.319 168.757 192.68 166.836 192.02 164.858C190.738 164.858 189.459 164.858 188.139 164.858C188.139 166.137 188.139 167.419 188.139 168.739C171.138 178.404 171.138 178.404 160.979 176.498C151.598 172.374 143.671 166.975 139.032 157.514C134.908 144.223 133.443 128.732 139.328 115.814C144.263 108.499 151.178 102.83 159.04 98.8992C173.524 98.2095 173.524 98.2095 180.38 102.777C179.738 91.8954 179.098 81.0107 178.438 69.7974C185.951 67.9207 192.091 67.7105 199.778 67.8585ZM170.679 131.879C172.618 135.757 172.618 135.757 172.618 135.757L170.679 131.879ZM172.618 139.638C174.56 145.457 174.56 145.457 174.56 145.457L172.618 139.638Z" fill="#F8F8F8"/>
<path d="M83.3814 87.2578C83.3814 94.9425 83.3814 102.624 83.3814 110.54C86.6613 109.897 89.9413 109.258 93.3218 108.598C101.125 107.168 108.401 106.23 116.361 106.659C116.361 112.42 116.361 118.183 116.361 124.118C106.737 126.685 97.1316 126.232 87.2593 126.06C87.7566 130.711 88.2865 135.355 88.8371 140.003C88.9733 141.308 89.1094 142.617 89.2486 143.964C90.3468 152.948 92.0667 156.704 96.9599 164.86C109.443 163.898 109.443 163.898 122.181 162.918C126.062 172.618 126.062 172.618 126.062 178.438C110.867 183.87 96.0541 188.168 80.7143 181.348C66.9049 168.199 66.7066 154.105 66.0731 136.184C66.0228 134.124 65.9725 132.063 65.9192 129.938C56.3163 130.9 56.3163 130.9 46.521 131.88C45.8816 126.116 45.2392 120.356 44.582 114.418C50.982 113.778 57.3849 113.139 63.9803 112.479C63.9803 104.797 63.9803 97.1153 63.9803 89.1997C76.8335 87.2578 76.8335 87.2578 83.3814 87.2578Z" fill="#F4F4F4"/>
<path d="M178.439 116.361C184.259 120.242 184.259 120.242 185.565 124.65C186.219 130.085 186.595 135.381 186.687 140.854C186.761 143.592 186.761 143.592 186.838 146.387C186.201 151.28 186.201 151.28 183.676 154.773C177.951 158.817 173.529 158.162 166.8 157.1C159.482 150.158 158.485 144.519 158.07 134.549C158.346 127.817 158.668 124.739 162.194 118.907C168.097 115.645 171.788 115.512 178.439 116.361ZM170.681 131.882C172.62 135.76 172.62 135.76 172.62 135.76L170.681 131.882ZM172.62 139.64C174.562 145.46 174.562 145.46 174.562 145.46L172.62 139.64Z" fill="#070707"/>
</g>
<defs>
<clipPath id="clip0_1769_1213">
<rect width="256" height="256" fill="white"/>
</clipPath>
</defs>
</svg>
