<svg width="60" height="60" viewBox="0 0 60 60" fill="none" xmlns="http://www.w3.org/2000/svg">
<rect width="60" height="60" fill="#020202"/>
<path d="M52.0017 27.125H45.8906V33.5139H52.0017V27.125Z" fill="#FFFCE4"/>
<path d="M26.332 7V13.3889L38.5543 17.2222L32.4431 7H26.332Z" fill="#FFFCE4"/>
<path d="M40.3906 47.25H46.5017L48.3351 35.75L40.3906 40.8611V47.25Z" fill="#FFFCE4"/>
<path d="M46.5017 12.75H40.3906V19.1389L47.724 25.5278L46.5017 12.75Z" fill="#FFFCE4"/>
<path d="M26.332 53.0002H32.4431L38.5543 40.8613L26.332 46.6113V53.0002Z" fill="#FFFCE4"/>
<path d="M13.5 40.8614V47.2503H19.6111L32.4444 37.667L13.5 40.8614Z" fill="#FFFCE4"/>
<path d="M28.7778 28.4028L14.1111 27.125H8V33.5139H14.1111L28.7778 28.4028Z" fill="#FFFCE4"/>
<path d="M19.6111 12.75H13.5V19.1389L31.2222 21.6944L19.6111 12.75Z" fill="#FFFCE4"/>
</svg>
