<svg width="256" height="256" viewBox="0 0 256 256" fill="none" xmlns="http://www.w3.org/2000/svg">
<rect width="256" height="256" fill="#1F2124"/>
<rect width="256" height="256" fill="url(#paint0_linear_1402_6273)"/>
<path fill-rule="evenodd" clip-rule="evenodd" d="M48.49 98.243C46.4688 97.239 44.2766 96.6246 42.028 96.432C41.1107 96.3147 39.9643 96.1857 38.589 96.045C37.2137 95.9043 35.9713 95.7637 34.862 95.623C33.3726 95.4912 31.9085 95.1547 30.511 94.623C30.1197 94.4997 29.7768 94.2573 29.5301 93.9295C29.2833 93.6018 29.1452 93.2051 29.135 92.795C29.135 91.881 29.892 91.1927 31.406 90.73C33.2179 90.2282 35.0934 89.9944 36.973 90.036C39.1426 90.042 41.3066 90.257 43.435 90.678C45.3471 91.0245 47.2221 91.5512 49.035 92.251H49.355V88.715C47.5635 88.2384 45.7407 87.8889 43.9 87.669C41.7524 87.3844 39.5884 87.2404 37.422 87.238C35.3483 87.2211 33.277 87.3827 31.231 87.721C29.6619 87.9626 28.13 88.4028 26.672 89.031C25.6199 89.4613 24.674 90.1155 23.9 90.948C23.3274 91.5729 23.0031 92.3856 22.988 93.233C23.0066 93.9002 23.1977 94.5512 23.5425 95.1227C23.8874 95.6941 24.3744 96.1666 24.956 96.494C26.268 97.3787 28.4913 98.0497 31.626 98.507C32.7593 98.671 34.0123 98.8233 35.385 98.964C36.7577 99.1047 37.872 99.2277 38.728 99.333C40.3256 99.4487 41.8986 99.7922 43.399 100.353C43.7554 100.489 44.0622 100.73 44.2792 101.044C44.4963 101.357 44.6133 101.73 44.615 102.111C44.615 103.119 43.8687 103.857 42.376 104.326C40.3521 104.859 38.2616 105.094 36.17 105.026C33.9238 105.013 31.6843 104.778 29.484 104.326C27.3165 103.911 25.195 103.284 23.15 102.454H22.83V106.163C24.6579 106.643 26.5111 107.022 28.381 107.297C30.79 107.658 33.2232 107.831 35.659 107.816C40.3297 107.816 44.014 107.242 46.712 106.093C49.41 104.944 50.759 103.474 50.759 101.681C50.7418 100.952 50.5196 100.242 50.1181 99.6325C49.7165 99.0233 49.1516 98.5394 48.488 98.236L48.49 98.243ZM95.079 89.849C92.679 88.0623 89.325 87.1687 85.017 87.168C82.8671 87.155 80.7238 87.4058 78.635 87.915C76.784 88.3637 74.9791 88.9847 73.244 89.77V87.713H67.23V114.59H73.244V106.364C74.7472 106.821 76.2815 107.167 77.835 107.401C79.5043 107.635 81.1884 107.746 82.874 107.735C84.9165 107.745 86.9525 107.506 88.937 107.023C90.6892 106.612 92.3673 105.933 93.912 105.01C95.3319 104.186 96.5376 103.039 97.431 101.662C98.2592 100.356 98.6926 98.8392 98.679 97.293C98.7382 95.8517 98.4406 94.4181 97.8126 93.1195C97.1846 91.8209 96.2456 90.6975 95.079 89.849V89.849ZM89.657 102.9C87.7803 104.142 85.1677 104.763 81.819 104.763C80.424 104.772 79.0297 104.696 77.644 104.535C76.1619 104.333 74.6928 104.045 73.244 103.673V92.547C74.8709 91.8703 76.5509 91.3295 78.267 90.93C79.9758 90.5246 81.7258 90.3183 83.482 90.315C86.532 90.315 88.7927 90.901 90.264 92.073C91.0219 92.7233 91.6165 93.5425 91.9999 94.4646C92.3832 95.3868 92.5446 96.3861 92.471 97.382C92.5279 98.4679 92.2978 99.5496 91.8038 100.518C91.3098 101.487 90.5694 102.308 89.657 102.9V102.9ZM143.685 94.023C143.723 92.8704 143.349 91.742 142.629 90.841C141.797 89.8968 140.741 89.1774 139.558 88.749C138 88.151 136.37 87.758 134.711 87.58C132.528 87.3342 130.333 87.2196 128.136 87.237C125.982 87.237 123.796 87.3423 121.578 87.553C119.36 87.7637 117.664 87.957 116.491 88.133V91.49H116.811C118.878 91.0567 120.883 90.7257 122.826 90.497C124.577 90.2804 126.34 90.1659 128.104 90.154C129.405 90.154 130.653 90.201 131.848 90.295C132.889 90.3612 133.919 90.544 134.919 90.84C135.691 91.0508 136.4 91.4493 136.981 92C137.22 92.2464 137.406 92.5383 137.53 92.8584C137.654 93.1784 137.712 93.5201 137.701 93.863V94.373C134.203 94.467 130.929 94.6077 127.879 94.795C125.24 94.9249 122.618 95.2836 120.041 95.867C118.249 96.2322 116.554 96.972 115.067 98.038C114.51 98.4581 114.061 99.0051 113.758 99.6335C113.454 100.262 113.305 100.953 113.323 101.651C113.323 103.467 114.443 104.961 116.682 106.133C119.229 107.374 122.04 107.977 124.872 107.891C126.401 107.904 127.93 107.814 129.447 107.619C130.611 107.464 131.765 107.238 132.902 106.942C133.8 106.717 134.682 106.432 135.542 106.089C136.448 105.732 137.168 105.454 137.701 105.254V107.346H143.684V94.024L143.685 94.023ZM132.838 104.14C130.944 104.608 128.999 104.836 127.048 104.817C125.122 104.919 123.195 104.629 121.385 103.964C120.851 103.784 120.386 103.444 120.054 102.989C119.722 102.534 119.539 101.987 119.53 101.424C119.54 100.92 119.697 100.429 119.981 100.013C120.265 99.596 120.664 99.2709 121.13 99.077C122.449 98.431 123.865 98.0063 125.321 97.82C126.771 97.5973 128.738 97.4273 131.221 97.31C133.704 97.1927 135.864 97.1047 137.699 97.046V102.513C136.121 103.175 134.496 103.719 132.838 104.14V104.14ZM185.426 87.924C184.487 87.842 183.783 87.7863 183.314 87.757C182.845 87.7277 182.088 87.713 181.043 87.713C179.162 87.7108 177.288 87.932 175.46 88.372C173.292 88.932 171.178 89.6819 169.142 90.613V87.713H163.127V107.348H169.142V93.409C170.755 92.6895 172.424 92.1045 174.133 91.66C175.888 91.2053 177.694 90.9778 179.507 90.983C180.659 90.983 181.656 91.0093 182.498 91.062C183.34 91.1147 184.209 91.1997 185.106 91.317H185.426V87.924ZM213.571 96.783L230.171 87.713H222.589L205.221 97.54V80H199.207V107.352H205.221V100.795L209.121 98.756L223.454 107.356H231.388L213.571 96.783Z" fill="white"/>
<path fill-rule="evenodd" clip-rule="evenodd" d="M43.868 149.425L60.919 129.24H47.879L32.3 149.002V129.24H21.046V172.863H32.3V158.628L34.91 155.403L47.949 172.863H61.768L43.868 149.425ZM90.889 165.125H83.741V136.974H90.889V129.24H65.343V136.974H72.491V165.128H65.343V172.863H90.889V165.128V165.125ZM136.475 134.437C132.471 130.364 126.973 128.328 119.981 128.328C112.969 128.328 107.471 130.364 103.487 134.437C99.503 138.51 97.5107 144.052 97.51 151.063C97.51 158.016 99.5023 163.538 103.487 167.63C107.472 171.722 112.97 173.768 119.981 173.768C127.012 173.768 132.52 171.722 136.505 167.63C140.49 163.538 142.482 158.016 142.481 151.063C142.481 144.053 140.479 138.512 136.475 134.44V134.437ZM124.141 164.702C122.835 165.258 121.43 165.543 120.011 165.537C118.593 165.543 117.188 165.264 115.88 164.717C114.549 164.155 113.374 163.28 112.452 162.168C111.384 160.846 110.583 159.328 110.094 157.7C109.452 155.549 109.15 153.31 109.2 151.065C109.161 148.799 109.473 146.541 110.123 144.37C110.596 142.712 111.409 141.17 112.511 139.844C113.459 138.749 114.647 137.887 115.982 137.324C118.582 136.299 121.476 136.31 124.068 137.354C125.406 137.91 126.588 138.785 127.511 139.903C128.586 141.218 129.392 142.731 129.884 144.356C130.536 146.521 130.842 148.775 130.792 151.035C130.829 153.186 130.563 155.331 130.001 157.407C129.52 159.123 128.692 160.723 127.569 162.107C126.652 163.236 125.476 164.126 124.141 164.702V164.702ZM183.599 151.812C181.592 149.668 179.031 148.122 176.199 147.344C174.635 146.834 173.046 146.404 171.438 146.055C169.963 145.743 168.425 145.421 166.824 145.088C165.076 144.829 163.389 144.259 161.843 143.404C161.416 143.111 161.07 142.713 160.839 142.249C160.609 141.785 160.501 141.27 160.525 140.752C160.524 139.993 160.818 139.263 161.345 138.716C161.886 138.125 162.559 137.668 163.308 137.383C164.168 137.032 165.069 136.791 165.989 136.665C166.917 136.539 167.852 136.475 168.789 136.475C171.457 136.479 174.103 136.962 176.6 137.902C178.928 138.727 181.108 139.919 183.06 141.432H184.26V131.378C181.905 130.45 179.467 129.749 176.979 129.283C174.176 128.727 171.326 128.448 168.469 128.449C162.746 128.449 158.064 129.733 154.421 132.301C150.778 134.869 148.957 138.184 148.957 142.247C148.864 144.983 149.717 147.668 151.374 149.847C152.985 151.888 155.627 153.504 159.299 154.696C160.982 155.243 162.699 155.678 164.44 155.996C166.266 156.338 167.999 156.705 169.64 157.096C170.935 157.345 172.154 157.892 173.2 158.696C173.576 158.99 173.881 159.365 174.092 159.794C174.303 160.223 174.413 160.694 174.416 161.171C174.448 161.598 174.39 162.028 174.246 162.431C174.102 162.835 173.876 163.204 173.581 163.515C172.961 164.082 172.24 164.529 171.457 164.833C170.578 165.146 169.662 165.343 168.732 165.419C167.619 165.536 166.721 165.594 166.037 165.595C163.204 165.564 160.397 165.059 157.731 164.101C154.902 163.134 152.261 161.687 149.924 159.823H148.693V170.282C151.138 171.292 153.661 172.1 156.237 172.699C159.339 173.378 162.51 173.698 165.685 173.652C171.935 173.652 176.881 172.309 180.524 169.623C182.231 168.467 183.624 166.904 184.578 165.076C185.532 163.248 186.016 161.212 185.988 159.15C186.105 156.496 185.257 153.89 183.6 151.813L183.599 151.812ZM216.514 149.424L233.565 129.239H220.526L204.942 149.002V129.24H193.692V172.863H204.942V158.628L207.552 155.403L220.591 172.863H234.415L216.514 149.424Z" fill="white"/>
<defs>
<linearGradient id="paint0_linear_1402_6273" x1="0" y1="0" x2="256" y2="256" gradientUnits="userSpaceOnUse">
<stop stop-color="#FB530F"/>
<stop offset="1" stop-color="#FF980C"/>
</linearGradient>
</defs>
</svg>
