<svg width="256" height="256" viewBox="0 0 256 256" fill="none" xmlns="http://www.w3.org/2000/svg">
<rect width="256" height="256" fill="white"/>
<path d="M105.081 214.087C104.385 214.023 103.341 213.77 102.012 213.391C85.431 208.423 70.6855 198.677 59.6739 185.387C56.8894 182.001 54.2314 178.299 53.5352 176.685C50.9722 170.958 51.5418 164.44 55.0541 159.155C56.6362 156.782 59.2309 154.409 61.5408 153.238C61.9205 153.048 78.6594 146.91 79.1974 146.783C79.3556 146.751 79.3556 146.846 79.1024 147.447C78.8809 147.985 78.786 148.428 78.7544 149.188L78.7227 150.2L79.6087 152.036C82.3616 157.7 85.6841 162.383 90.1141 166.718C92.1075 168.68 92.5822 169.123 94.4807 170.61C101.664 176.337 110.935 180.324 119.763 181.463C120.554 181.558 121.345 181.716 121.567 181.78C122.453 182.064 124.003 181.527 125.047 180.609L125.617 180.103L125.554 181.621C125.522 182.476 125.364 186.494 125.237 190.576C125.047 197 124.984 198.171 124.763 199.278C123.529 205.828 118.877 211.144 112.612 213.232C111.156 213.707 110.081 213.929 108.467 214.087C107.011 214.245 106.6 214.213 105.081 214.087Z" fill="#4081EF" stroke="#512D8C" stroke-width="0.316426" stroke-miterlimit="10"/>
<path d="M145.994 214.023C144.728 213.897 143.02 213.517 141.817 213.106C140.742 212.726 138.653 211.714 137.862 211.176C134.413 208.834 131.85 205.512 130.553 201.683C129.856 199.563 129.825 199.31 129.508 190.007C129.35 185.292 129.224 181.178 129.224 180.862V180.261L129.951 180.83C130.774 181.463 132.04 181.906 132.641 181.811C132.831 181.78 133.59 181.653 134.318 181.558C146.247 179.881 156.848 174.534 165.138 166.022C168.998 162.066 171.909 157.953 174.599 152.605L175.707 150.39V149.251C175.707 148.27 175.675 148.049 175.39 147.447C175.232 147.068 175.105 146.783 175.105 146.751C175.169 146.688 192.604 153.112 193.11 153.365C193.933 153.776 195.198 154.662 196.243 155.58C199.154 158.016 201.337 161.718 202.191 165.642C202.413 166.623 202.445 167.161 202.445 169.218C202.445 171.939 202.286 172.92 201.527 175.135C200.989 176.717 200.609 177.413 199.28 179.28C196.875 182.761 194.439 185.767 191.306 189.152C180.928 200.354 167.1 208.929 152.259 213.296C149.728 214.087 148.336 214.245 145.994 214.023Z" fill="#31A452" stroke="#512D8C" stroke-width="0.316426" stroke-miterlimit="10"/>
<path d="M119.352 178.774C111.156 177.445 103.309 174.059 96.664 168.964C95.0186 167.699 93.9111 166.718 92.2024 165.041C88.1838 161.085 85.2727 157.162 82.5514 151.941C81.8236 150.548 81.792 150.454 81.792 149.694C81.792 146.91 84.4816 144.884 87.1396 145.675C88.9116 146.213 90.1773 147.827 90.2089 149.536C90.2089 150.359 89.9558 150.991 89.3862 151.498C89.0065 151.846 88.3736 152.099 87.9307 152.099C87.5509 152.099 86.8864 151.846 86.57 151.593C85.9055 151.023 85.9372 151.276 86.6966 152.605C92.8036 163.3 103.246 171.306 115.175 174.47C116.979 174.945 118.814 175.325 118.909 175.23C118.94 175.198 118.782 174.977 118.497 174.723C116.884 173.299 117.77 171.021 120.08 170.673C121.788 170.42 123.687 171.527 124.478 173.205C124.731 173.742 124.794 173.996 124.794 174.882C124.794 175.768 124.763 175.989 124.478 176.559C123.845 177.919 122.326 179.058 121.219 179.027C120.934 178.995 120.08 178.869 119.352 178.774Z" fill="#DE7FB3" stroke="#512D8C" stroke-width="0.316426" stroke-miterlimit="10"/>
<path d="M132.641 178.837C131.565 178.426 130.616 177.476 130.173 176.274C129.824 175.356 129.888 173.964 130.331 173.046C131.153 171.369 133.084 170.357 134.887 170.673C135.805 170.831 136.375 171.274 136.786 172.034C137.039 172.54 137.102 172.73 137.039 173.173C136.944 173.869 136.754 174.217 136.185 174.692C135.932 174.913 135.742 175.135 135.773 175.166C135.932 175.325 140.013 174.312 142.513 173.458C153.145 169.882 162.29 162.351 167.954 152.542C168.745 151.15 168.777 150.96 168.112 151.529C167.226 152.289 165.897 152.131 165.074 151.213C163.809 149.757 164.853 146.846 167.005 145.865C167.637 145.581 167.859 145.549 168.745 145.549C169.663 145.549 169.852 145.581 170.517 145.897C171.909 146.562 172.858 147.922 172.985 149.378C173.048 150.074 173.017 150.105 172.289 151.561C165.011 166.085 151.088 176.274 135.204 178.742C133.463 179.027 133.21 179.058 132.641 178.837Z" fill="#4081EF" stroke="#512D8C" stroke-width="0.316426" stroke-miterlimit="10"/>
<path d="M105.27 166.275C103.783 165.99 102.517 165.42 101.188 164.408C97.7711 161.845 96.9167 157.352 99.1 153.744C99.3215 153.365 99.4481 153.048 99.4165 152.985C99.3532 152.922 99.0368 152.795 98.6887 152.637C96.2839 151.688 94.5752 149.283 94.4169 146.593C94.2587 144.252 95.3979 141.847 97.2648 140.454C97.5812 140.233 97.9609 139.98 98.0875 139.885C98.3406 139.758 119.889 132.702 120.047 132.702C120.111 132.702 120.269 132.924 120.427 133.177C120.585 133.43 120.933 133.904 121.187 134.221C121.566 134.664 121.661 134.822 121.566 134.949C121.503 135.044 119.383 137.955 116.883 141.435C111.852 148.365 111.979 148.175 112.643 148.84C113.054 149.251 113.561 149.283 114.035 148.935C114.225 148.808 116.409 145.865 118.94 142.385C122.484 137.512 123.56 136.088 123.686 136.151C123.971 136.278 125.427 136.752 125.775 136.816L126.091 136.879V148.049C126.091 160.611 126.091 160.326 125.3 161.971C124.477 163.648 123.022 164.914 121.281 165.515C120.111 165.927 119.13 166.022 118.054 165.832C116.314 165.547 114.953 164.819 113.719 163.49L113.023 162.731L112.833 163.016C111.884 164.376 110.112 165.579 108.403 166.022C107.517 166.306 105.935 166.401 105.27 166.275Z" fill="#31A452" stroke="#512D8C" stroke-width="0.316426" stroke-miterlimit="10"/>
<path d="M146.976 166.275C145.235 165.99 143.843 165.262 142.451 163.87L141.438 162.857L141.217 163.174C140.489 164.218 139.065 165.231 137.704 165.674C136.534 166.053 134.793 166.117 133.718 165.769C131.471 165.104 129.699 163.427 128.908 161.244L128.623 160.421V148.682V136.942L129.193 136.816C129.509 136.752 130.047 136.562 130.427 136.436C130.775 136.278 131.091 136.183 131.123 136.214C131.154 136.246 133.18 139.062 135.679 142.511C138.147 145.96 140.331 148.871 140.489 148.998C141.185 149.599 142.198 149.125 142.198 148.175C142.198 147.732 141.881 147.258 137.831 141.689C135.426 138.366 133.338 135.487 133.18 135.233L132.895 134.822L133.338 134.284C133.591 133.999 133.939 133.493 134.129 133.208L134.445 132.702L145.33 136.246C151.311 138.208 156.437 139.917 156.69 140.075C158.842 141.34 160.202 143.65 160.202 146.119C160.202 147.416 160.044 148.144 159.443 149.346C158.81 150.643 157.703 151.751 156.405 152.415C155.899 152.669 155.393 152.89 155.329 152.89C155.013 152.89 155.045 153.112 155.424 153.713C156.31 155.073 156.69 156.402 156.658 158.048C156.658 160.611 155.488 162.857 153.304 164.471C151.247 165.99 149.064 166.591 146.976 166.275Z" fill="#FFB800" stroke="#512D8C" stroke-width="0.316426" stroke-miterlimit="10"/>
<path d="M55.5284 148.365C55.3702 148.333 54.8006 148.239 54.2943 148.144C49.3581 147.321 44.675 144.157 42.017 139.853C40.9095 138.05 39.9919 135.676 39.5489 133.556C39.1692 131.626 39.2958 124.665 39.802 119.918C41.226 106.312 45.8141 93.2438 53.1552 81.7259C55.212 78.4983 57.87 74.9227 58.9142 73.9418C64.5465 68.6891 72.5521 67.4551 79.4185 70.7775C80.7792 71.442 82.2031 72.3913 83.4371 73.4988C84.3231 74.2582 85.2724 75.429 90.0504 81.5677C93.1198 85.523 95.6828 88.7822 95.7145 88.8455C95.7777 88.9087 95.4297 88.972 94.7019 88.972C93.9108 88.972 93.4046 89.0353 92.8983 89.1935C92.2338 89.415 92.0756 89.5416 90.3985 91.187C87.8038 93.7501 85.842 96.0283 83.9751 98.7496C79.0705 105.774 75.9379 113.843 74.862 122.418C74.1659 127.766 74.3557 134.284 75.3683 138.967C75.4632 139.41 75.5265 139.853 75.4949 139.917C75.4632 139.98 75.5581 140.328 75.748 140.676C76.0961 141.435 77.1086 142.48 77.8048 142.828L78.2794 143.081L77.8997 143.207C77.6782 143.271 73.7545 144.41 69.1663 145.739C63.977 147.226 60.4014 148.207 59.7369 148.302C58.7559 148.428 56.2245 148.492 55.5284 148.365Z" fill="#DE7FB3" stroke="#512D8C" stroke-width="0.316426" stroke-miterlimit="10"/>
<path d="M195.009 148.302C194.344 148.207 184.314 145.422 177.131 143.302L176.34 143.081L176.846 142.828C177.922 142.29 179.124 140.739 179.156 139.79C179.156 139.568 179.283 138.746 179.409 137.955C180.643 130.772 180.39 123.368 178.618 116.311C176.593 108.242 172.733 100.743 167.29 94.4462C165.834 92.7691 162.607 89.5732 162.101 89.3517C161.341 89.0037 160.487 88.8455 159.569 88.9087L158.715 88.972L159.095 88.4974C159.316 88.2442 161.784 85.08 164.632 81.4411C167.448 77.8022 170.075 74.543 170.486 74.1317C171.309 73.2773 172.701 72.1698 173.745 71.537C179.852 67.8664 187.351 68.0246 193.237 71.9167C194.946 73.0558 195.832 73.8785 197.129 75.6189C205.483 86.5355 211.052 98.9394 213.678 112.388C214.754 117.957 215.228 122.925 215.26 128.968C215.26 133.082 215.197 133.651 214.469 135.866C211.811 144.157 203.552 149.409 195.009 148.302Z" fill="#FFB800" stroke="#512D8C" stroke-width="0.316426" stroke-miterlimit="10"/>
<path d="M80.8424 140.961C80.2096 140.803 79.3869 140.36 78.9439 139.917C78.1528 139.157 77.9629 138.809 77.7731 137.607C76.3808 128.968 77.077 120.52 79.8931 112.514C81.5702 107.736 84.1649 102.863 87.1709 98.8762C89.0062 96.408 92.4236 92.7059 93.183 92.3262C94.6702 91.5667 96.7586 91.9464 97.9927 93.1805C99.7014 94.8892 99.6381 97.5788 97.8978 99.2242C96.5371 100.49 94.9234 100.617 93.9108 99.509C93.3729 98.9078 93.2147 98.275 93.3729 97.4839C93.4362 97.1358 93.4678 96.851 93.4362 96.7878C93.3412 96.6928 92.297 97.832 90.8098 99.6672C85.2407 106.565 81.7917 114.856 80.7159 123.874C80.3678 126.817 80.3994 132.227 80.7475 134.822C80.8424 135.392 81.0006 135.423 81.1905 134.854C81.4753 134.031 82.4562 133.367 83.3422 133.367C84.2915 133.367 85.2091 134.063 85.7154 135.17C85.9052 135.582 85.9685 135.898 85.9685 136.816C85.9685 137.86 85.9369 138.018 85.6205 138.619C85.1775 139.474 84.1649 140.423 83.3738 140.708C82.5828 140.992 81.4436 141.087 80.8424 140.961Z" fill="#E64132" stroke="#512D8C" stroke-width="0.316426" stroke-miterlimit="10"/>
<path d="M172.194 140.961C171.023 140.771 169.757 139.822 169.219 138.714C168.017 136.341 169.251 133.367 171.403 133.367C172.384 133.367 173.238 133.999 173.586 135.012C173.713 135.392 173.744 135.423 173.808 135.233C174.219 134.063 174.345 126.88 173.997 123.937C172.858 114.571 169.409 106.439 163.555 99.2875C161.815 97.1675 160.897 96.3131 161.309 97.1991C161.53 97.6421 161.467 98.5597 161.214 99.066C160.929 99.6039 160.201 100.174 159.632 100.268C158.619 100.458 157.132 99.7622 156.404 98.7496C154.347 95.965 156.246 92.0414 159.695 91.9781C161.15 91.9464 161.34 92.073 163.239 94.0032C167.068 97.8952 169.915 101.882 172.352 106.755C176.529 115.077 178.237 124.127 177.446 133.493C177.288 135.265 176.814 138.461 176.624 138.904C176.212 139.79 175.105 140.644 173.966 140.961C173.238 141.087 172.985 141.087 172.194 140.961Z" fill="#31A452" stroke="#512D8C" stroke-width="0.316426" stroke-miterlimit="10"/>
<path d="M94.8605 137.385C92.962 136.974 91.0001 135.423 90.1458 133.683C89.0699 131.468 89.1649 128.905 90.4306 126.848C90.6521 126.468 90.8103 126.12 90.7786 126.089C90.747 126.057 90.4306 125.899 90.1141 125.772C88.8801 125.298 87.5511 124.253 86.7284 123.146C85.2728 121.184 84.7982 118.526 85.4943 116.153C86.412 112.894 88.4687 110.837 91.5381 110.046C92.424 109.824 94.3859 109.793 95.2402 110.046C95.5883 110.141 95.9364 110.204 95.9997 110.204C96.0629 110.204 96.0946 109.983 96.0946 109.73C96.0946 108.812 96.3477 107.894 96.854 106.818C98.4994 103.401 102.581 101.914 106.03 103.496C106.885 103.876 107.992 104.698 108.498 105.331C108.72 105.584 111.758 109.761 115.302 114.634L121.725 123.462L121.25 124.032C120.997 124.348 120.649 124.855 120.459 125.139C120.27 125.456 120.08 125.677 119.985 125.646C118.561 125.108 105.208 120.899 104.891 120.899C104.29 120.899 103.91 121.311 103.91 121.912C103.91 122.228 103.974 122.45 104.163 122.64C104.353 122.83 106.632 123.621 111.916 125.329L119.415 127.766L119.384 129.126L119.352 130.487L109.036 133.81C103.341 135.676 98.3096 137.259 97.8982 137.354C96.9173 137.575 95.8098 137.575 94.8605 137.385Z" fill="#4081EF" stroke="#512D8C" stroke-width="0.316426" stroke-miterlimit="10"/>
<path d="M156.342 137.259C155.773 137.1 150.805 135.487 145.268 133.683L135.205 130.392L135.522 129.032V127.671L142.673 125.234C147.419 123.684 150.267 122.703 150.457 122.545C150.678 122.355 150.742 122.197 150.742 121.849C150.742 121.216 150.362 120.804 149.761 120.804C149.476 120.804 146.438 121.722 141.945 123.178C137.895 124.475 134.541 125.551 134.477 125.551C134.446 125.551 134.256 125.298 134.066 124.95C133.876 124.633 133.56 124.159 133.37 123.937C133.148 123.716 132.99 123.462 132.99 123.431C132.99 123.368 136.028 119.159 139.762 114.065C145.742 105.838 146.597 104.698 147.229 104.224C149.033 102.831 151.375 102.388 153.463 102.99C156.311 103.844 158.557 106.66 158.557 109.413C158.557 110.141 158.526 110.141 159.538 109.888C161.026 109.54 163.177 109.73 164.601 110.362C166.057 110.995 167.449 112.261 168.24 113.59C168.905 114.729 169.474 116.564 169.569 117.767C169.664 119.412 169.221 121.153 168.303 122.608C167.481 123.905 165.835 125.234 164.475 125.709C164.19 125.804 163.937 125.962 163.937 126.025C163.937 126.089 164.063 126.342 164.221 126.563C164.981 127.703 165.361 129 165.329 130.582C165.329 132.417 164.664 133.968 163.304 135.36C162.038 136.657 160.488 137.354 158.589 137.417C157.545 137.543 157.228 137.512 156.342 137.259Z" fill="#E64132" stroke="#512D8C" stroke-width="0.316426" stroke-miterlimit="10"/>
<path d="M125.869 134.759C123.939 134.253 122.262 132.607 121.692 130.677C121.471 129.918 121.471 128.304 121.692 127.544C122.23 125.709 123.781 124.127 125.585 123.589C126.439 123.336 127.863 123.304 128.749 123.526C130.711 124.032 132.419 125.772 132.926 127.734C133.432 129.633 132.831 131.721 131.343 133.208C129.888 134.664 127.768 135.265 125.869 134.759Z" fill="#F2F5FB" stroke="#512D8C" stroke-width="0.316426" stroke-miterlimit="10"/>
<path d="M117.042 112.894C112.834 107.103 110.334 103.528 110.081 103.053C109.638 102.104 109.479 101.313 109.479 100.079C109.479 95.617 113.625 92.3578 118.055 93.3071C118.498 93.402 118.877 93.4653 118.909 93.4653C118.941 93.4653 119.004 93.0539 119.036 92.5793C119.289 89.1935 121.694 86.3773 125.016 85.4913C126.25 85.1749 128.37 85.1749 129.604 85.4913C132.42 86.2191 134.635 88.4341 135.363 91.2503C135.49 91.7249 135.585 92.4211 135.585 92.8008C135.585 93.1805 135.616 93.4653 135.68 93.4653C135.743 93.4653 136.154 93.3703 136.629 93.2754C138.97 92.7691 141.438 93.4969 143.116 95.174C144.476 96.5346 145.204 98.2117 145.204 100.11C145.204 101.376 145.014 102.167 144.445 103.274C144.255 103.654 141.154 108.021 137.578 112.989C131.946 120.741 130.996 122.007 130.807 121.944C130.68 121.912 130.205 121.754 129.731 121.596C129.256 121.437 128.813 121.311 128.687 121.311C128.465 121.311 128.465 121.058 128.592 113.242V105.173L128.149 104.888C127.832 104.54 127.358 104.414 126.946 104.603C126.313 104.857 126.313 104.445 126.377 113.21V121.374H125.997C125.839 121.311 125.237 121.469 124.731 121.659C124.225 121.849 123.75 122.007 123.719 122.007C123.655 121.975 120.681 117.893 117.042 112.894Z" fill="#DE7FB3" stroke="#512D8C" stroke-width="0.316426" stroke-miterlimit="10"/>
<path d="M105.207 92.3261C103.91 92.0414 102.77 91.187 102.169 89.9846C101.726 89.0986 101.631 87.6747 102.011 86.7254C102.549 85.3015 103.245 84.7952 106.947 83.1814C111.947 80.9665 116.883 79.6691 122.515 79.0996C124.825 78.8464 129.857 78.8464 132.198 79.0996C137.704 79.6691 142.735 80.9981 147.735 83.2131C150.044 84.2257 151.69 85.1433 152.038 85.5863C153.399 87.3583 153.24 89.6049 151.69 91.1554C150.076 92.7691 147.608 92.8641 145.963 91.3769C145.33 90.8073 145.013 90.2694 144.887 89.6049C144.665 88.3392 145.804 87.0418 147.197 87.0102C147.64 87.0102 147.671 86.9786 147.545 86.852C147.45 86.7571 146.849 86.4723 146.184 86.1875C135.679 81.5993 123.876 80.9981 112.959 84.4788C110.586 85.2382 106.947 86.7571 107.074 86.9153C107.106 86.9786 107.327 87.0102 107.58 87.0102C109.352 87.0102 110.46 88.972 109.51 90.4276C108.593 91.8515 106.789 92.6742 105.207 92.3261Z" fill="#FFB800" stroke="#512D8C" stroke-width="0.316426" stroke-miterlimit="10"/>
<path d="M93.7519 79.2261C90.9357 75.0809 88.436 71.2838 88.2145 70.8092C87.7082 69.765 87.0753 67.8981 86.8222 66.6957C85.9995 62.7403 86.5374 58.5319 88.4043 54.8297C89.7333 52.2034 91.9483 49.672 94.2899 48.0898C95.872 47.014 96.22 46.8558 98.3401 46.0963C105.65 43.5017 113.275 41.9512 121.566 41.35C123.939 41.1601 130.584 41.1601 133.052 41.35C141.121 41.9195 149.063 43.5333 156.151 46.0331C158.176 46.7292 158.746 47.014 160.296 48.0898C163.397 50.1782 166.024 53.6273 167.258 57.3295C167.954 59.3862 168.112 60.4937 168.112 62.9935C168.112 65.4932 167.954 66.5691 167.258 68.6575C166.53 70.8092 166.087 71.537 160.834 79.2894L155.74 86.8203L155.613 86.1242C155.55 85.7445 155.328 85.1749 155.17 84.8585C154.854 84.2889 153.778 83.0865 153.683 83.2131C153.651 83.2447 153.303 83.0865 152.924 82.865C150.044 81.2196 145.994 79.5425 142.418 78.4667C130.71 74.986 117.99 75.6821 106.662 80.3969C105.112 81.0614 101.061 83.0549 100.587 83.4029C99.8906 83.9092 98.973 85.5546 98.973 86.2508C98.973 86.3773 98.9413 86.5672 98.878 86.6305C98.9097 86.6938 96.9162 83.8459 93.7519 79.2261Z" fill="#E64132" stroke="#512D8C" stroke-width="0.316426" stroke-miterlimit="10"/>
</svg>
