<svg width="256" height="256" viewBox="0 0 256 256" fill="none" xmlns="http://www.w3.org/2000/svg">
<g clip-path="url(#clip0_1105_950)">
<rect width="256" height="256" fill="#DADADA"/>
<rect width="64" height="64" fill="#567F67"/>
<rect x="64" width="64" height="64" fill="#DADADA"/>
<rect x="128" width="64" height="64" fill="#567F67"/>
<rect x="192" width="64" height="64" fill="#DADADA"/>
<rect y="64" width="64" height="64" fill="#DADADA"/>
<rect x="64" y="64" width="64" height="64" fill="#567F67"/>
<rect x="128" y="64" width="64" height="64" fill="#DADADA"/>
<rect x="192" y="64" width="64" height="64" fill="#567F67"/>
<rect y="128" width="64" height="64" fill="#567F67"/>
<rect x="64" y="128" width="64" height="64" fill="#DADADA"/>
<rect x="128" y="128" width="64" height="64" fill="#567F67"/>
<rect x="192" y="128" width="64" height="64" fill="#DADADA"/>
<rect y="192" width="64" height="64" fill="#DADADA"/>
<rect x="64" y="192" width="64" height="64" fill="#567F67"/>
<rect x="128" y="192" width="64" height="64" fill="#DADADA"/>
<rect x="192" y="192" width="64" height="64" fill="#567F67"/>
<path fill-rule="evenodd" clip-rule="evenodd" d="M211.684 78.7446C216.945 84.0867 220.685 90.2865 223.81 96.8133C224.818 98.9269 224.587 101.42 223.205 103.313C221.824 105.206 219.514 106.192 217.186 105.884C217.186 105.885 217.185 105.885 217.185 105.885" fill="#808080"/>
<path d="M211.684 78.7446C216.945 84.0867 220.685 90.2865 223.81 96.8133C224.818 98.9269 224.587 101.42 223.205 103.313C221.824 105.206 219.514 106.192 217.186 105.884C217.186 105.885 217.185 105.885 217.185 105.885" stroke="black" stroke-width="3.81377" stroke-miterlimit="5.42683" stroke-linecap="round" stroke-linejoin="round"/>
<path fill-rule="evenodd" clip-rule="evenodd" d="M127.856 34.4111C125.111 34.5442 122.39 35.2826 119.899 36.6264C103.486 45.4813 68.4791 64.3671 51.4157 73.573C48.4566 75.1692 46.0467 77.4979 44.3639 80.265L129.363 125.637C129.363 125.637 124.022 134.539 119.27 142.459C115.211 149.224 106.555 151.647 99.5553 147.979L41.6602 117.638V165.001C41.6602 169.838 44.4216 174.307 48.9042 176.726C65.3042 185.573 105.118 207.052 121.517 215.899C126 218.318 131.523 218.318 136.006 215.899C152.405 207.052 192.219 185.573 208.619 176.726C213.101 174.307 215.863 169.838 215.863 165.001V89.8926C215.863 83.08 212.118 76.8157 206.107 73.573C189.045 64.3673 154.037 45.4815 137.624 36.6264C134.585 34.9871 131.203 34.2487 127.856 34.4111" fill="#DADADA"/>
<path d="M127.856 34.4111C125.111 34.5442 122.39 35.2826 119.899 36.6264C103.486 45.4813 68.4791 64.3671 51.4157 73.573C48.4566 75.1692 46.0467 77.4979 44.3639 80.265L129.363 125.637C129.363 125.637 124.022 134.539 119.27 142.459C115.211 149.224 106.555 151.647 99.5553 147.979L41.6602 117.638V165.001C41.6602 169.838 44.4216 174.307 48.9042 176.726C65.3042 185.573 105.118 207.052 121.517 215.899C126 218.318 131.523 218.318 136.006 215.899C152.405 207.052 192.219 185.573 208.619 176.726C213.101 174.307 215.863 169.838 215.863 165.001V89.8926C215.863 83.08 212.118 76.8157 206.107 73.573C189.045 64.3673 154.037 45.4815 137.624 36.6264C134.585 34.9871 131.203 34.2487 127.856 34.4111" stroke="black" stroke-width="3.81396" stroke-miterlimit="5.42683" stroke-linecap="round" stroke-linejoin="round"/>
<path fill-rule="evenodd" clip-rule="evenodd" d="M129.366 125.637V34.7891C126.622 34.9222 122.393 35.2829 119.902 36.6266C103.489 45.4816 68.4824 64.3673 51.419 73.5732C48.4599 75.1694 46.0501 77.4982 44.3672 80.2653L129.366 125.637L129.366 125.637Z" fill="#808080" stroke="black" stroke-width="3.81396" stroke-miterlimit="5.42683" stroke-linecap="round" stroke-linejoin="round"/>
<path fill-rule="evenodd" clip-rule="evenodd" d="M43.3054 82.2734L35.2884 97.5723C31.4886 104.825 34.2929 113.776 41.5592 117.585L41.6611 117.638M41.6611 117.638L99.5564 147.979C106.556 151.648 115.211 149.224 119.27 142.459C124.022 134.539 129.363 125.637 129.363 125.637L44.3652 80.2656L44.3187 80.3395L43.3053 82.2733" fill="#DADADA"/>
<path d="M43.3054 82.2734L35.2884 97.5723C31.4886 104.825 34.2929 113.776 41.5592 117.585L41.6611 117.638L99.5564 147.979C106.556 151.648 115.211 149.224 119.27 142.459C124.022 134.539 129.363 125.637 129.363 125.637L44.3652 80.2656L44.3187 80.3395L43.3053 82.2733" stroke="black" stroke-width="3.81396" stroke-miterlimit="5.42683" stroke-linecap="round" stroke-linejoin="round"/>
<path d="M128.758 35.1348V123.846" stroke="black" stroke-width="2.83617" stroke-miterlimit="5.42683" stroke-linecap="round" stroke-linejoin="round"/>
<path fill-rule="evenodd" clip-rule="evenodd" d="M203.992 111.705C203.992 110.814 203.515 109.991 202.741 109.546C201.968 109.101 201.015 109.101 200.241 109.546L147.91 139.66C147.137 140.105 146.66 140.928 146.66 141.818V174.88C146.66 175.77 147.137 176.593 147.91 177.038C148.684 177.484 149.637 177.484 150.411 177.038L202.741 146.925C203.515 146.479 203.992 145.657 203.992 144.766V111.705Z" fill="#567F67"/>
<path fill-rule="evenodd" clip-rule="evenodd" d="M203.992 111.705C203.992 110.814 203.515 109.991 202.741 109.546C201.968 109.101 201.015 109.101 200.241 109.546L147.91 139.66C147.137 140.105 146.66 140.928 146.66 141.818V174.88C146.66 175.77 147.137 176.593 147.91 177.038C148.684 177.484 149.637 177.484 150.411 177.038L202.741 146.925C203.515 146.479 203.992 145.657 203.992 144.766V111.705ZM150.642 142.671V172.322L200.01 143.914V114.262L150.642 142.671Z" fill="black"/>
<path d="M128.758 217.287V125.827" stroke="black" stroke-width="3.81433" stroke-miterlimit="5.42683" stroke-linecap="round"/>
<path d="M129.359 126.051L211.49 79.2729" stroke="black" stroke-width="3.81414" stroke-miterlimit="5.42683" stroke-linecap="round"/>
</g>
<defs>
<clipPath id="clip0_1105_950">
<rect width="256" height="256" fill="white"/>
</clipPath>
</defs>
</svg>
