<svg width="256" height="256" viewBox="0 0 256 256" fill="none" xmlns="http://www.w3.org/2000/svg">
<g clip-path="url(#clip0_1636_733)">
<rect width="256" height="256" fill="#415364"/>
<g clip-path="url(#clip1_1636_733)">
<path d="M0 0H256V256H0V0Z" fill="#415364"/>
<path d="M212.296 102.798V153.268C212.296 153.733 212.031 154.13 211.699 154.329L168.06 179.333C167.662 179.532 167.197 179.532 166.866 179.333L123.027 154.13C122.63 153.932 122.431 153.534 122.431 153.069V108.767C122.431 108.302 122.165 107.905 121.834 107.706L109.763 100.808C108.967 100.344 107.906 100.941 107.906 101.869V157.911C107.906 160.497 109.299 162.951 111.554 164.211L163.749 194.122C166.004 195.449 168.789 195.449 171.11 194.122L223.106 164.344C225.361 163.018 226.754 160.63 226.754 158.043V97.9564C226.754 95.3699 225.361 92.916 223.106 91.6559L171.11 61.8776C168.855 60.5512 166.07 60.5512 163.749 61.8776L139.674 75.6724C138.878 76.1367 138.878 77.3305 139.674 77.7947L151.745 84.6921C152.143 84.8911 152.607 84.8911 152.938 84.6921L166.8 76.7336C167.197 76.5346 167.662 76.5346 167.993 76.7336L211.633 101.737C212.097 101.936 212.296 102.334 212.296 102.798Z" fill="#FF9E18"/>
<path d="M192.068 136.489C196.609 136.489 200.291 132.807 200.291 128.265C200.291 123.723 196.609 120.041 192.068 120.041C187.526 120.041 183.844 123.723 183.844 128.265C183.844 132.807 187.526 136.489 192.068 136.489Z" fill="white"/>
<path d="M165.739 136.489C170.281 136.489 173.963 132.807 173.963 128.265C173.963 123.723 170.281 120.041 165.739 120.041C161.198 120.041 157.516 123.723 157.516 128.265C157.516 132.807 161.198 136.489 165.739 136.489Z" fill="white"/>
<path d="M42.8447 153.202V102.732C42.8447 102.267 43.11 101.869 43.4416 101.67L87.081 76.6673C87.4789 76.4683 87.9432 76.4683 88.2748 76.6673L132.113 101.869C132.511 102.068 132.71 102.466 132.71 102.93V147.233C132.71 147.697 132.975 148.095 133.307 148.294L145.311 155.192C146.107 155.656 147.168 155.059 147.168 154.13V98.089C147.168 95.5025 145.775 93.0486 143.52 91.7885L91.3256 61.8776C89.0707 60.5512 86.2852 60.5512 83.9639 61.8776L32.0344 91.5895C29.7795 92.916 28.3867 95.3035 28.3867 97.8901V157.977C28.3867 160.564 29.7795 163.018 32.0344 164.278L84.0302 194.056C86.2852 195.382 89.0707 195.382 91.3919 194.056L115.467 180.261C116.262 179.797 116.262 178.603 115.467 178.139L103.396 171.241C102.998 171.042 102.534 171.042 102.202 171.241L88.3411 179.2C87.9432 179.399 87.4789 179.399 87.1473 179.2L43.508 154.197C43.11 154.064 42.8447 153.666 42.8447 153.202Z" fill="white"/>
<path d="M63.1379 135.958C67.6798 135.958 71.3617 132.276 71.3617 127.735C71.3617 123.193 67.6798 119.511 63.1379 119.511C58.596 119.511 54.9141 123.193 54.9141 127.735C54.9141 132.276 58.596 135.958 63.1379 135.958Z" fill="#FF9E18"/>
<path d="M89.4699 135.958C94.0118 135.958 97.6938 132.276 97.6938 127.735C97.6938 123.193 94.0118 119.511 89.4699 119.511C84.928 119.511 81.2461 123.193 81.2461 127.735C81.2461 132.276 84.928 135.958 89.4699 135.958Z" fill="#FF9E18"/>
</g>
</g>
<defs>
<clipPath id="clip0_1636_733">
<rect width="256" height="256" fill="white"/>
</clipPath>
<clipPath id="clip1_1636_733">
<rect width="256" height="256" fill="white"/>
</clipPath>
</defs>
</svg>
