<svg width="256" height="256" viewBox="0 0 256 256" fill="none" xmlns="http://www.w3.org/2000/svg">
<rect width="256" height="256" fill="white"/>
<path d="M133.293 27.9241C135.657 29.1288 137.958 30.411 140.257 31.7349C141.108 32.2104 141.958 32.686 142.835 33.1759C145.431 34.6324 148.017 36.1077 150.6 37.5874C152.061 38.4162 153.522 39.2445 154.983 40.0723C157.76 41.65 160.531 43.2369 163.299 44.8306C167.764 47.4009 172.248 49.9383 176.735 52.4711C177.501 52.9042 178.268 53.3373 179.057 53.7835C183.052 56.0404 187.05 58.2919 191.051 60.5373C205.064 68.4089 205.064 68.4089 210.942 71.9461C211.72 72.4133 212.499 72.8805 213.301 73.3619C216.067 75.362 217.334 77.1468 218.409 80.3717C218.492 81.5947 218.531 82.8208 218.542 84.0465C218.551 84.8 218.56 85.5536 218.57 86.33C218.576 87.1553 218.582 87.9806 218.588 88.8309C218.597 89.7015 218.606 90.572 218.616 91.4689C218.646 94.3561 218.669 97.2432 218.693 100.13C218.712 102.137 218.731 104.143 218.75 106.149C218.794 110.9 218.834 115.652 218.872 120.403C218.912 125.252 218.96 130.1 219.009 134.948C219.049 139.095 219.086 143.242 219.121 147.389C219.138 149.374 219.157 151.36 219.177 153.346C219.204 156.13 219.226 158.914 219.247 161.698C219.256 162.513 219.265 163.329 219.275 164.169C219.349 176.877 219.349 176.877 216.795 181.278C213.494 184.472 209.409 186.403 205.389 188.542C197.196 192.927 189.053 197.401 181.074 202.166C174.699 205.969 168.183 209.493 161.647 213.01C153.311 217.498 145.072 222.116 137.025 227.109C133.042 229.346 129.333 230.655 124.768 229.713C120.859 228.072 117.179 226.105 113.467 224.062C112.787 223.698 112.108 223.334 111.407 222.959C108.419 221.335 105.502 219.608 102.597 217.841C97.7275 214.914 92.7611 212.173 87.7859 209.431C78.8789 204.507 70.0203 199.503 61.1966 194.431C58.9864 193.16 56.7747 191.893 54.5617 190.627C53.1954 189.845 51.8308 189.06 50.4663 188.275C48.9645 187.428 47.45 186.603 45.9192 185.809C44.9655 185.315 44.9655 185.315 43.9925 184.81C43.467 184.55 42.9415 184.29 42.4001 184.022C39.5394 181.986 37.1848 179.824 36.3862 176.342C36.2181 174.278 36.1769 172.246 36.1786 170.175C36.164 169.383 36.1494 168.591 36.1344 167.775C36.0925 165.128 36.081 162.482 36.0714 159.836C36.0519 157.97 36.0316 156.104 36.0107 154.238C35.9531 147.914 35.9545 141.59 35.9704 135.265C35.9718 134.67 35.9731 134.075 35.9745 133.462C35.9955 124.598 36.0575 115.735 36.1531 106.872C36.1723 104.993 36.1878 103.115 36.2027 101.236C36.2273 98.2607 36.2648 95.2853 36.3122 92.3098C36.3356 90.6803 36.3478 89.0508 36.3597 87.4212C36.3782 86.443 36.3968 85.4648 36.4159 84.4569C36.4273 83.6054 36.4386 82.7539 36.4504 81.8766C36.9763 78.1615 38.7563 75.543 41.7221 73.3083C46.0846 70.1877 50.8862 67.8364 55.6377 65.3745C59.361 63.4426 63.0337 61.4272 66.6964 59.3832C67.3013 59.0459 67.9061 58.7085 68.5293 58.361C70.3243 57.358 72.118 56.353 73.9112 55.347C74.4681 55.0347 75.0249 54.7224 75.5987 54.4006C78.8057 52.6008 82.0104 50.7969 85.2139 48.9911C88.0214 47.4086 90.8299 45.8279 93.6384 44.2473C94.1438 43.9626 94.6491 43.6779 95.1698 43.3846C97.8604 41.8702 100.557 40.3668 103.259 38.874C107.895 36.3017 112.465 33.6161 117.036 30.9308C117.688 30.551 118.339 30.1711 119.01 29.7798C119.594 29.4377 120.177 29.0956 120.779 28.7432C124.905 26.5247 128.976 26.1886 133.293 27.9241Z" fill="#099851"/>
<path d="M101.666 84.8623C106.9 88.0681 110.258 93.4764 113.623 98.4846C114.388 99.6126 115.153 100.74 115.919 101.868C116.309 102.445 116.699 103.021 117.101 103.615C118.342 105.437 119.6 107.245 120.863 109.051C121.273 109.639 121.683 110.227 122.105 110.833C122.897 111.969 123.691 113.102 124.488 114.234C127.195 118.132 127.195 118.132 127.195 119.927C131.533 116.103 134.403 111.325 137.538 106.507C140.805 101.51 144.087 96.5277 147.537 91.6545C148.276 90.6097 148.276 90.6097 149.031 89.5438C151.098 87.0404 153.343 85.0575 156.256 83.6009C166.199 82.7632 166.199 82.7632 169.676 85.0136C172.523 87.7099 174.127 89.2875 174.328 93.2954C174.345 94.635 174.349 95.9747 174.342 97.3143C174.347 98.0472 174.353 98.78 174.358 99.535C174.373 101.958 174.37 104.38 174.365 106.803C174.369 108.488 174.373 110.173 174.378 111.858C174.386 115.391 174.384 118.924 174.376 122.457C174.366 126.981 174.383 131.505 174.406 136.029C174.421 139.51 174.421 142.99 174.416 146.471C174.416 148.139 174.421 149.806 174.431 151.474C174.443 153.809 174.434 156.142 174.42 158.476C174.428 159.163 174.436 159.85 174.444 160.558C174.391 164.879 173.677 167.37 170.786 170.784C167.199 173.176 163.692 173.02 159.485 172.399C157.146 170.621 155.939 169.342 154.641 166.748C154.544 165.034 154.498 163.316 154.476 161.6C154.468 161.072 154.46 160.544 154.451 160C154.426 158.253 154.406 156.506 154.386 154.759C154.369 153.549 154.352 152.338 154.335 151.128C154.291 147.94 154.251 144.753 154.212 141.565C154.171 138.313 154.126 135.061 154.082 131.809C153.995 125.427 153.913 119.044 153.834 112.662C153.315 113.499 152.796 114.336 152.262 115.198C148.364 121.47 144.438 127.709 140.262 133.802C139.832 134.441 139.402 135.081 138.958 135.74C133.136 144.262 133.136 144.262 129.595 145.545C127.188 145.565 125.411 145.509 123.547 143.881C120.688 140.348 118.066 136.721 115.572 132.922C115.184 132.339 114.797 131.755 114.398 131.155C113.177 129.315 111.962 127.472 110.747 125.628C109.914 124.371 109.08 123.113 108.247 121.855C106.217 118.794 104.192 115.729 102.17 112.662C102.167 113.341 102.164 114.019 102.161 114.719C102.131 121.121 102.085 127.523 102.022 133.924C101.99 137.215 101.964 140.506 101.951 143.798C101.939 146.975 101.911 150.152 101.873 153.329C101.861 154.54 101.854 155.751 101.854 156.962C101.852 158.661 101.83 160.359 101.804 162.058C101.796 163.024 101.789 163.99 101.782 164.986C101.282 168.05 100.285 169.393 98.1339 171.591C94.7506 173.283 90.5072 172.849 86.8324 172.399C84.4319 170.61 83.305 169.38 81.9888 166.748C81.8965 164.331 81.8533 161.932 81.846 159.515C81.8407 158.765 81.8354 158.015 81.8299 157.243C81.8139 154.755 81.8045 152.268 81.7965 149.78C81.7932 148.931 81.7899 148.083 81.7865 147.209C81.7697 142.718 81.7581 138.228 81.7506 133.738C81.7416 129.096 81.7139 124.454 81.6818 119.812C81.6607 116.246 81.654 112.681 81.6511 109.115C81.6471 107.404 81.6377 105.692 81.6228 103.981C81.6032 101.587 81.6038 99.1928 81.6095 96.7982C81.5991 96.0906 81.5888 95.383 81.5781 94.6539C81.6064 91.3451 81.715 89.682 83.5317 86.8269C88.3121 82.2582 95.751 82.2018 101.666 84.8623Z" fill="#FAFCF9"/>
<path d="M211.143 73.1069C214.302 74.1314 215.871 75.0948 217.601 77.9504C218.363 80.236 218.519 81.6766 218.542 84.0469C218.555 85.1773 218.555 85.1773 218.569 86.3305C218.575 87.1558 218.581 87.9811 218.587 88.8314C218.596 89.7019 218.606 90.5724 218.615 91.4693C218.645 94.3565 218.669 97.2437 218.692 100.131C218.711 102.137 218.73 104.143 218.749 106.15C218.793 110.901 218.833 115.652 218.872 120.404C218.912 125.252 218.96 130.1 219.008 134.948C219.049 139.095 219.085 143.242 219.12 147.389C219.138 149.375 219.156 151.36 219.176 153.346C219.204 156.13 219.226 158.914 219.246 161.698C219.26 162.922 219.26 162.922 219.274 164.17C219.351 177.25 219.351 177.25 216.794 181.279C215.995 181.545 215.196 181.811 214.372 182.086C214.372 181.02 214.372 179.955 214.372 178.857C214.905 178.857 215.438 178.857 215.987 178.857C216.006 165.953 216.02 153.048 216.029 140.144C216.033 134.153 216.038 128.161 216.048 122.17C216.056 116.948 216.061 111.727 216.063 106.506C216.064 103.74 216.066 100.975 216.072 98.2094C216.079 95.1245 216.079 92.0395 216.078 88.9546C216.081 88.0348 216.084 87.1151 216.087 86.1674C216.086 85.3287 216.085 84.4899 216.084 83.6257C216.085 82.8957 216.085 82.1657 216.086 81.4136C216.061 79.4328 216.061 79.4328 215.179 77.1432C212.751 76.1541 212.751 76.1541 210.336 75.5287C210.602 74.7295 210.869 73.9303 211.143 73.1069Z" fill="#42A17B"/>
<path d="M180.474 199.038C181.273 199.304 182.072 199.571 182.896 199.845C182.896 200.378 182.896 200.911 182.896 201.46C182.372 201.745 181.849 202.03 181.31 202.324C177.193 204.569 173.078 206.817 168.967 209.072C167.27 209.999 165.572 210.926 163.875 211.853C163.004 212.332 162.134 212.811 161.237 213.304C160.408 213.755 159.579 214.207 158.725 214.672C157.979 215.081 157.232 215.49 156.463 215.911C154.642 216.798 154.642 216.798 153.027 216.798C153.027 215.998 153.027 215.199 153.027 214.376C154.166 213.695 155.311 213.024 156.458 212.358C157.095 211.983 157.732 211.608 158.388 211.223C160.293 210.34 160.293 210.34 163.522 210.34C163.788 209.54 164.054 208.741 164.329 207.918C165.661 207.918 166.993 207.918 168.365 207.918C168.365 207.385 168.365 206.852 168.365 206.303C168.815 206.253 169.264 206.203 169.727 206.152C171.805 205.581 171.805 205.581 173.511 203.478C175.912 201.192 177.228 200.879 180.474 200.653C180.474 200.12 180.474 199.587 180.474 199.038Z" fill="#30A462"/>
<path d="M169.172 48.8896C172.072 49.9845 174.717 51.2795 177.408 52.8155C178.2 53.2656 178.992 53.7157 179.808 54.1793C180.627 54.6481 181.446 55.1169 182.29 55.5999C183.908 56.522 185.527 57.4438 187.146 58.3654C188.311 59.0297 188.311 59.0297 189.5 59.7075C192.668 61.5051 195.851 63.2745 199.04 65.0347C195.928 66.072 194.678 65.3618 191.624 64.2779C190.746 63.9709 189.869 63.6639 188.965 63.3476C188.294 63.1052 187.623 62.8627 186.931 62.6129C186.931 61.8137 186.931 61.0146 186.931 60.1912C186.199 60.1079 185.466 60.0247 184.711 59.9389C181.93 59.3505 181.035 58.69 178.859 56.9622C176.736 55.823 174.574 54.7722 172.401 53.7332C172.401 52.934 172.401 52.1348 172.401 51.3114C171.335 51.3114 170.27 51.3114 169.172 51.3114C169.172 50.5122 169.172 49.713 169.172 48.8896Z" fill="#419F76"/>
<path d="M55.3477 190.158C57.7452 190.558 57.7452 190.558 60.1912 190.965C60.1912 191.498 60.1912 192.031 60.1912 192.58C61.7895 192.58 63.3879 192.58 65.0347 192.58C65.0347 193.113 65.0347 193.646 65.0347 194.194C65.8338 194.461 66.633 194.727 67.4564 195.002C67.4564 195.534 67.4564 196.067 67.4564 196.616C68.7884 196.616 70.1203 196.616 71.4927 196.616C71.6425 197.132 71.7924 197.648 71.9468 198.18C73.0607 200.185 73.0607 200.185 76.0335 200.451C76.9325 200.517 77.8316 200.584 78.7579 200.652C79.2907 201.984 79.8235 203.316 80.3724 204.689C74.2235 201.78 68.3017 198.549 62.4111 195.153C61.7183 194.756 61.0254 194.358 60.3116 193.949C59.6683 193.575 59.025 193.202 58.3622 192.816C57.7813 192.479 57.2004 192.143 56.6019 191.795C56.188 191.521 55.7741 191.248 55.3477 190.965C55.3477 190.699 55.3477 190.433 55.3477 190.158Z" fill="#3C976A"/>
<path d="M216.801 157.868C217.6 158.135 218.399 158.401 219.222 158.675C219.441 177.085 219.441 177.085 216.801 181.278C216.001 181.545 215.202 181.811 214.379 182.086C214.379 181.02 214.379 179.955 214.379 178.857C214.912 178.857 215.444 178.857 215.993 178.857C216.26 171.93 216.526 165.004 216.801 157.868Z" fill="#32926A"/>
<path d="M73.9155 56.1548C73.5624 58.0216 73.5624 58.0216 72.301 60.191C70.5375 61.0102 68.7827 61.5275 66.912 62.0547C64.5196 62.7663 62.4084 63.8994 60.1923 65.0345C59.6595 65.0345 59.1267 65.0345 58.5778 65.0345C58.3114 65.8337 58.045 66.6329 57.7705 67.4563C55.3716 69.6898 54.7499 69.8781 51.3125 69.8781C52.2541 67.0534 52.6655 66.9154 55.1785 65.5675C55.806 65.2256 56.4334 64.8838 57.0799 64.5316C57.7407 64.1814 58.4015 63.8313 59.0823 63.4705C60.3711 62.7739 61.6598 62.077 62.9483 61.3798C63.5729 61.0459 64.1975 60.712 64.841 60.368C66.531 59.4487 68.19 58.4897 69.8477 57.5139C72.301 56.1548 72.301 56.1548 73.9155 56.1548Z" fill="#439E76"/>
<path d="M117.504 224.87C119.417 225.24 121.315 225.618 123.199 226.119C127.556 227.235 130.834 227.29 135.263 226.485C135.263 227.017 135.263 227.55 135.263 228.099C131.83 229.816 128.547 230.295 124.769 229.714C118.838 227.538 118.838 227.538 117.504 224.87Z" fill="#30996C"/>
<path d="M148.179 216.798C149.777 216.798 151.376 216.798 153.023 216.798C150.602 219.48 148.247 220.986 145.001 222.55C144.177 222.951 143.354 223.353 142.506 223.767C140.382 224.744 138.25 225.642 136.07 226.485C136.337 225.952 136.603 225.419 136.878 224.87C137.41 224.87 137.943 224.87 138.492 224.87C138.492 224.071 138.492 223.272 138.492 222.449C138.949 222.293 139.406 222.136 139.876 221.976C140.468 221.765 141.061 221.555 141.671 221.339C142.556 221.03 142.556 221.03 143.459 220.714C145.101 220.146 145.101 220.146 145.757 218.412C146.557 218.412 147.356 218.412 148.179 218.412C148.179 217.88 148.179 217.347 148.179 216.798Z" fill="#44A776"/>
<path d="M124.774 27.9009C124.724 29.364 124.724 29.364 123.967 31.1299C121.192 32.4417 121.192 32.4417 118.316 33.5516C117.783 34.0844 117.25 34.6172 116.702 35.1661C113.775 35.267 113.775 35.267 111.051 35.1661C114.778 31.9202 119.665 27.9009 124.774 27.9009Z" fill="#1C9360"/>
<path d="M211.143 73.1069C214.293 74.1284 216.006 74.9997 217.601 77.9504C218.156 80.9776 218.156 80.9776 218.408 83.6012C216.794 81.9867 216.794 81.9867 216.189 79.5649C215.403 76.8953 215.403 76.8953 212.657 76.0332C211.891 75.8667 211.125 75.7002 210.336 75.5287C210.602 74.7295 210.869 73.9303 211.143 73.1069Z" fill="#2F9F74"/>
<path d="M69.8789 197.424C70.9445 197.69 72.01 197.957 73.1079 198.231C73.1079 198.764 73.1079 199.297 73.1079 199.846C74.9727 200.112 76.8374 200.378 78.7587 200.653C79.2915 201.985 79.8242 203.317 80.3732 204.689C78.7708 203.942 77.1741 203.183 75.5801 202.419C74.6904 201.997 73.8007 201.576 72.884 201.142C70.6862 199.846 70.6862 199.846 69.8789 197.424Z" fill="#2E9966"/>
<path d="M201.46 187.736C202.526 188.003 203.592 188.269 204.689 188.544C203.15 189.514 201.601 190.47 200.048 191.419C199.186 191.953 198.325 192.487 197.437 193.037C195.002 194.194 195.002 194.194 193.073 193.964C192.644 193.774 192.215 193.583 191.773 193.387C192.306 193.387 192.839 193.387 193.388 193.387C193.388 192.854 193.388 192.322 193.388 191.773C194.187 191.773 194.986 191.773 195.81 191.773C195.81 191.24 195.81 190.707 195.81 190.158C198.607 189.758 198.607 189.758 201.46 189.351C201.46 188.818 201.46 188.285 201.46 187.736Z" fill="#3B9E6A"/>
<path d="M153.832 40.0098C155.653 40.8762 157.468 41.7519 159.281 42.6333C159.793 42.8758 160.305 43.1182 160.832 43.3681C163.856 44.8481 166.141 46.3538 168.363 48.8895C165.069 48.2323 162.593 46.6872 159.738 44.9794C157.762 43.9931 156.006 43.5762 153.832 43.2388C153.832 42.1732 153.832 41.1076 153.832 40.0098Z" fill="#5CB282"/>
<path d="M153.027 113.47C153.834 115.891 153.834 115.891 152.926 117.758C151.201 120.231 149.343 122.486 147.376 124.771C146.843 124.505 146.311 124.238 145.762 123.964C148.159 120.501 150.557 117.038 153.027 113.47Z" fill="#1D8E5B"/>
<path d="M39.2004 177.243C39.5168 177.726 39.8331 178.209 40.159 178.706C41.7892 180.674 43.4809 181.599 45.6584 182.894C45.6584 183.427 45.6584 183.959 45.6584 184.508C42.527 184.045 40.6958 182.588 38.3932 180.472C38.1268 179.673 37.8604 178.874 37.5859 178.05C38.1187 177.784 38.6515 177.518 39.2004 177.243Z" fill="#36966C"/>
<path d="M163.522 211.955C162.078 212.766 160.631 213.572 159.183 214.376C158.377 214.826 157.572 215.275 156.742 215.739C154.642 216.798 154.642 216.798 153.027 216.798C153.027 215.999 153.027 215.2 153.027 214.376C155.824 213.977 155.824 213.977 158.678 213.569C158.678 213.036 158.678 212.503 158.678 211.955C161.705 211.046 161.705 211.046 163.522 211.955Z" fill="#47A37F"/>
<path d="M186.93 60.1909C191.613 61.3913 195.468 62.3907 199.038 65.8417C194.635 65.383 191.038 64.2705 186.93 62.6127C186.93 61.8135 186.93 61.0143 186.93 60.1909Z" fill="#3FA67B"/>
<path d="M169.172 48.8896C172.158 49.9979 174.783 51.3627 177.497 53.0268C178.209 53.4618 178.922 53.8967 179.657 54.3449C180.193 54.6758 180.728 55.0067 181.281 55.3477C180.481 55.7472 180.481 55.7472 179.666 56.1549C178.033 55.3792 178.033 55.3792 176.134 54.2377C173.811 52.847 171.838 51.8348 169.172 51.3114C169.172 50.5122 169.172 49.713 169.172 48.8896Z" fill="#6AB58F"/>
<path d="M95.7109 212.762C99.5973 212.305 101.526 213.71 104.591 215.991C104.324 216.79 104.058 217.589 103.783 218.413C102.436 217.626 101.091 216.835 99.7472 216.041C98.998 215.601 98.2487 215.161 97.4768 214.707C96.8941 214.332 96.3113 213.956 95.7109 213.569C95.7109 213.303 95.7109 213.036 95.7109 212.762Z" fill="#2C9563"/>
<path d="M135.264 226.484C135.264 227.017 135.264 227.55 135.264 228.099C131.634 229.914 128.742 229.848 124.77 229.713C128.123 227.907 131.42 226.484 135.264 226.484Z" fill="#3FA570"/>
<path d="M56.156 65.0342C56.9552 65.567 57.7544 66.0998 58.5778 66.6487C54.9451 69.8777 54.9451 69.8777 51.3125 69.8777C52.3179 66.8615 53.4388 66.4973 56.156 65.0342Z" fill="#30956C"/>
<path d="M146.565 221.642C145.123 222.474 143.675 223.296 142.226 224.114C141.017 224.803 141.017 224.803 139.785 225.505C139.092 225.828 138.399 226.152 137.685 226.485C137.152 226.219 136.619 225.953 136.07 225.678C136.869 225.412 137.669 225.145 138.492 224.871C138.492 224.072 138.492 223.273 138.492 222.449C143.84 220.734 143.84 220.734 146.565 221.642Z" fill="#60AD87"/>
<path d="M130.422 27.9009C134.26 28.3661 136.856 29.9599 140.109 31.9371C139.31 32.4699 138.511 33.0027 137.687 33.5516C137.687 33.0189 137.687 32.4861 137.687 31.9371C135.822 31.4043 133.958 30.8716 132.036 30.3226C132.036 29.7898 132.036 29.2571 132.036 28.7081C131.504 28.4417 130.971 28.1753 130.422 27.9009Z" fill="#49A574"/>
<path d="M124.769 27.9009C124.503 28.9665 124.236 30.032 123.962 31.1299C121.831 31.3963 119.7 31.6627 117.504 31.9371C121.357 27.9009 121.357 27.9009 124.769 27.9009Z" fill="#2A9764"/>
<path d="M180.469 199.038C181.268 199.304 182.067 199.571 182.89 199.845C182.89 200.378 182.89 200.911 182.89 201.46C180.493 202.525 178.095 203.591 175.625 204.689C175.625 204.156 175.625 203.623 175.625 203.074C176.158 203.074 176.691 203.074 177.24 203.074C177.24 202.275 177.24 201.476 177.24 200.653C178.305 200.653 179.371 200.653 180.469 200.653C180.469 200.12 180.469 199.587 180.469 199.038Z" fill="#459E79"/>
<path d="M43.2367 72.2998C43.5031 72.8326 43.7695 73.3654 44.0439 73.9143C43.5195 74.4138 43.5195 74.4138 42.9844 74.9234C41.5613 76.3303 41.5613 76.3303 40.3609 78.1019C39.7865 78.8262 39.7865 78.8262 39.2004 79.5651C38.6677 79.5651 38.1349 79.5651 37.5859 79.5651C37.7282 77.6442 38.1488 76.5764 39.5252 75.2229C40.7395 74.2201 41.9865 73.2574 43.2367 72.2998Z" fill="#31A67A"/>
<path d="M110.238 220.834C113.885 220.539 113.885 220.539 115.738 221.944C116.696 223.256 116.696 223.256 116.696 224.871C113.972 223.913 112.138 223.034 110.238 220.834Z" fill="#3B9F75"/>
<path d="M102.169 39.2021C103.235 39.7349 104.3 40.2677 105.398 40.8167C102.625 42.6654 101.374 42.5752 98.1328 42.4312C99.4648 41.3656 100.797 40.3 102.169 39.2021Z" fill="#399A6F"/>
<path d="M177.243 201.46C177.243 201.993 177.243 202.526 177.243 203.074C176.711 203.074 176.178 203.074 175.629 203.074C175.629 203.874 175.629 204.673 175.629 205.496C174.83 205.763 174.03 206.029 173.207 206.303C173.207 205.238 173.207 204.172 173.207 203.074C175.629 201.46 175.629 201.46 177.243 201.46Z" fill="#23865B"/>
<path d="M215.184 75.5283C217.442 77.1974 217.627 78.0666 218.16 80.9268C218.244 81.8092 218.327 82.6917 218.413 83.6008C216.796 81.9843 216.046 80.8508 215.184 78.7573C215.184 77.6918 215.184 76.6262 215.184 75.5283Z" fill="#51A485"/>
</svg>
