<svg width="256" height="256" viewBox="0 0 256 256" fill="none" xmlns="http://www.w3.org/2000/svg">
<rect width="256" height="256" fill="url(#paint0_radial_1718_7341)"/>
<path d="M84.6876 58.3906C82.3673 49.4961 75.9218 46.0156 69.2188 46.0156C54.008 46.0156 32.0938 85.5368 32.0938 92.422C32.0938 92.8087 40.5034 98.4896 41.375 110.985C42.5352 127.613 56.2637 145.596 66.1251 129.547C75.0374 115.043 52.5899 73.4727 69.2188 58.3906" fill="#B27C00"/>
<path d="M171.313 58.3906C173.633 49.4961 180.079 46.0156 186.782 46.0156C201.992 46.0156 223.907 85.5368 223.907 92.422C223.907 92.8087 215.497 98.4896 214.625 110.985C213.465 127.613 199.737 145.596 189.875 129.547C180.963 115.043 203.41 73.4727 186.782 58.3906" fill="#B27C00"/>
<path d="M192.711 136.03C192.861 134.445 187.168 120.041 187.168 118.332L192.941 69.9716C186.201 47.369 172.666 58.9706 167.059 59.9374C155.709 61.8946 152.807 55.8007 128.387 56.457C104.41 57.1016 102.203 56.7257 91.2618 60.3241C87.226 61.6518 70.1856 41.1815 63.0035 69.9716L68.0587 122.586C68.0587 124.269 63.0808 134.395 63.2266 135.958L63.0313 135.735C63.0313 160.485 73.086 174.793 90.8751 188.329C95.2791 191.68 100.099 205.228 117.998 209.004C120.022 209.431 120.886 209.402 122.586 209.598C125.1 209.888 125.475 209.985 127.994 209.985H128C130.519 209.985 130.224 209.695 133.801 209.598C135.511 209.552 135.979 209.431 138.002 209.004C155.901 205.228 160.721 191.68 165.125 188.329C182.914 174.793 192.969 160.485 192.969 135.735L192.711 136.03Z" fill="#F2A900"/>
<path d="M127.972 118.719C122.14 118.719 116.702 121.626 113.485 126.491C105.425 138.675 90.8473 161.397 90.8473 166.317C90.8473 173.116 103.222 196.915 127.972 183.316C152.722 196.916 165.097 173.117 165.097 166.317C165.097 161.396 150.519 138.675 142.46 126.491C139.242 121.626 133.805 118.719 127.972 118.719Z" fill="#FFD300"/>
<path d="M143.469 159.109C143.469 166.704 128 172.859 128 172.859C128 172.859 112.531 166.704 112.531 159.109C112.531 151.516 119.457 148.109 128 148.109C136.543 148.109 143.469 151.516 143.469 159.109Z" fill="#464655"/>
<path d="M162.032 172.859C158.614 172.859 155.957 174.876 153.144 177.011C149.821 179.533 146.386 182.141 141.089 182.141C134.87 182.141 131.094 179.132 131.094 177.809V174.881C132.681 174.144 135.035 172.961 137.409 171.434C143.483 167.525 146.563 163.379 146.563 159.109C146.563 150.416 139.45 145.016 128 145.016C116.551 145.016 109.438 150.416 109.438 159.109C109.438 163.379 112.517 167.525 118.592 171.434C120.965 172.961 123.32 174.144 124.906 174.881V177.809C124.906 179.132 121.13 182.141 114.911 182.141C109.615 182.141 106.179 179.533 102.857 177.011C100.043 174.876 97.3863 172.859 93.9689 172.859C92.2604 172.859 90.8751 174.245 90.8751 175.953C90.8751 177.662 92.2604 179.047 93.9689 179.047C95.3042 179.047 97.0708 180.388 99.1161 181.94C102.668 184.636 107.533 188.328 114.911 188.328C120.287 188.328 125.056 186.614 128 183.985C130.945 186.614 135.714 188.328 141.089 188.328C148.468 188.328 153.332 184.636 156.884 181.94C158.93 180.388 160.696 179.047 162.032 179.047C163.74 179.047 165.125 177.662 165.125 175.953C165.125 174.245 163.74 172.859 162.032 172.859ZM115.625 159.109C115.625 151.973 124.279 151.203 128 151.203C131.721 151.203 140.375 151.973 140.375 159.109C140.375 162.589 133.366 167.138 128 169.503C122.633 167.137 115.625 162.589 115.625 159.109Z" fill="black"/>
<path d="M213.598 64.8848C206.714 54.8653 196.474 42.9219 186.782 42.9219C178.085 42.9219 171.428 47.8723 168.722 56.2413C164.492 58.2282 161.296 57.4076 155.388 55.8758C149.408 54.3258 141.219 52.2031 128 52.2031C114.782 52.2031 106.592 54.3258 100.612 55.8758C94.7036 57.4072 91.5086 58.2282 87.2782 56.2413C84.5728 47.8723 77.9154 42.9219 69.2188 42.9219C59.5269 42.9219 49.2865 54.8653 42.4022 64.8848C35.9567 74.2659 29 87.4619 29 92.422C29 93.8312 29.8473 94.6178 30.5283 95.2497C32.2863 96.8816 37.6362 101.848 38.2886 111.2C39.0841 122.603 45.668 136.315 54.9176 138.585C55.6187 138.757 56.4702 138.891 57.4285 138.89C58.2178 138.89 59.079 138.8 59.9867 138.567C60.3425 149.792 62.836 159.369 67.59 167.762C72.166 175.841 78.97 183.158 89.0015 190.791C89.8105 191.406 90.9556 192.934 92.1679 194.551C97.3643 201.481 106.06 213.079 128 213.079C149.94 213.079 158.636 201.481 163.832 194.551C165.044 192.934 166.19 191.406 166.999 190.791C177.03 183.158 183.834 175.841 188.41 167.763C193.164 159.37 195.658 149.793 196.013 138.567C196.921 138.8 197.783 138.891 198.571 138.891C199.53 138.891 200.382 138.758 201.082 138.585C210.332 136.315 216.916 122.603 217.711 111.2C218.364 101.849 223.714 96.882 225.472 95.25C226.153 94.6181 227 93.8316 227 92.4224C227 87.4619 220.044 74.2659 213.598 64.8848ZM211.539 110.769C210.838 120.821 205.151 131.216 199.608 132.576C197.164 133.176 194.776 131.612 192.511 127.927C189.247 122.615 191.309 111.199 193.303 100.159C196.215 84.0363 199.515 65.7638 188.86 56.099C187.594 54.9508 185.638 55.0467 184.49 56.312C183.342 57.5778 183.437 59.5342 184.703 60.682C192.816 68.0409 189.969 83.8093 187.214 99.0585C184.913 111.803 182.738 123.841 187.239 131.166C188.145 132.639 189.076 133.844 190.011 134.829C189.923 135.116 189.875 135.42 189.875 135.735C189.875 160.529 179.232 173.708 163.252 185.867C161.757 187.004 160.424 188.782 158.881 190.839C154.089 197.231 146.846 206.891 128 206.891C109.155 206.891 101.912 197.231 97.1191 190.839C95.5765 188.782 94.2438 187.004 92.7488 185.867C76.768 173.707 66.1251 160.529 66.1251 135.735C66.1251 135.42 66.0771 135.116 65.9897 134.83C66.9248 133.845 67.8556 132.64 68.761 131.167C73.2624 123.842 71.0878 111.804 68.7861 99.0592C66.0319 83.8097 63.1837 68.0412 71.2974 60.6827C72.5628 59.535 72.6583 57.5785 71.5105 56.3128C70.3627 55.0471 68.4059 54.9519 67.1406 56.0997C56.4849 65.7642 59.7852 84.0371 62.6972 100.159C64.6911 111.2 66.7531 122.616 63.4892 127.928C61.225 131.613 58.8373 133.177 56.3925 132.577C50.8493 131.216 45.1622 120.822 44.461 110.77C43.9351 103.232 40.8793 96.6937 35.3758 91.3229C36.2885 87.8312 40.4949 78.5879 47.5018 68.3893C55.7966 56.3167 63.915 49.1094 69.2188 49.1094C72.8977 49.1094 79.4101 50.4165 81.694 59.1718C81.6967 59.1819 81.7006 59.1916 81.7033 59.2016C81.7188 59.2585 81.7377 59.3145 81.7567 59.3706C81.7706 59.4124 81.7833 59.4553 81.7988 59.4963C81.8174 59.545 81.8398 59.5926 81.8611 59.6405C81.8812 59.6862 81.8998 59.7326 81.9218 59.7767C81.9423 59.8176 81.9663 59.8571 81.9887 59.8969C82.0154 59.9449 82.0405 59.9936 82.0695 60.0392C82.0939 60.0783 82.1221 60.1147 82.148 60.1525C82.1786 60.197 82.208 60.2419 82.2408 60.2844C82.2725 60.3254 82.3077 60.3637 82.3414 60.4031C82.3727 60.4391 82.4021 60.4766 82.435 60.5114C82.4717 60.5505 82.5119 60.5864 82.5506 60.624C82.5846 60.6564 82.6171 60.6897 82.6523 60.7206C82.6894 60.7527 82.7293 60.7821 82.7679 60.8127C82.8089 60.8456 82.8499 60.8792 82.8925 60.9097C82.9284 60.9349 82.9663 60.9581 83.0034 60.9821C83.0529 61.0142 83.1021 61.0466 83.1535 61.076C83.1624 61.0814 83.1709 61.0876 83.1802 61.0927C86.5036 62.9478 89.389 63.6203 92.2549 63.6203C95.397 63.6203 98.5163 62.8116 102.165 61.8661C108.137 60.3173 115.571 58.3907 128 58.3907C140.43 58.3907 147.863 60.3173 153.836 61.8657C157.485 62.8116 160.603 63.6199 163.745 63.6199C166.611 63.6199 169.497 62.947 172.82 61.0923C172.829 61.0872 172.836 61.0814 172.845 61.0764C172.899 61.0455 172.951 61.0115 173.004 60.9774C173.038 60.955 173.073 60.9341 173.106 60.9105C173.153 60.8773 173.197 60.8409 173.242 60.8053C173.277 60.7775 173.314 60.7508 173.347 60.7218C173.387 60.687 173.424 60.6491 173.462 60.612C173.496 60.5791 173.532 60.5474 173.564 60.513C173.602 60.4728 173.637 60.4294 173.673 60.3869C173.701 60.3533 173.732 60.3204 173.759 60.2856C173.796 60.2384 173.828 60.1885 173.862 60.139C173.885 60.1061 173.909 60.074 173.93 60.04C173.962 59.9909 173.989 59.9391 174.017 59.8876C174.038 59.8509 174.06 59.8149 174.079 59.777C174.101 59.7314 174.121 59.6831 174.142 59.6359C174.162 59.5895 174.183 59.5435 174.202 59.4963C174.217 59.4553 174.23 59.4124 174.244 59.3698C174.263 59.3138 174.282 59.2585 174.297 59.2016C174.3 59.1916 174.304 59.1819 174.306 59.1718C176.59 50.4165 183.103 49.1094 186.782 49.1094C192.085 49.1094 200.204 56.3167 208.498 68.3889C215.505 78.5875 219.711 87.8305 220.624 91.3225C215.121 96.6933 212.065 103.232 211.539 110.769Z" fill="black"/>
<path d="M93.9689 126.453C99.0948 126.453 103.25 122.298 103.25 117.172C103.25 112.046 99.0948 107.891 93.9689 107.891C88.843 107.891 84.6876 112.046 84.6876 117.172C84.6876 122.298 88.843 126.453 93.9689 126.453Z" fill="black"/>
<path d="M162.032 126.453C167.157 126.453 171.313 122.298 171.313 117.172C171.313 112.046 167.157 107.891 162.032 107.891C156.906 107.891 152.75 112.046 152.75 117.172C152.75 122.298 156.906 126.453 162.032 126.453Z" fill="black"/>
<path d="M136.742 190.664C130.941 191.676 125.059 191.676 119.258 190.664C117.574 190.37 115.972 191.497 115.679 193.18C115.385 194.863 116.511 196.465 118.194 196.759C121.448 197.327 124.724 197.611 128 197.611C131.276 197.611 134.552 197.327 137.805 196.759C139.489 196.465 140.615 194.863 140.321 193.18C140.028 191.497 138.427 190.37 136.742 190.664Z" fill="black"/>
<defs>
<radialGradient id="paint0_radial_1718_7341" cx="0" cy="0" r="1" gradientUnits="userSpaceOnUse" gradientTransform="translate(128 128) rotate(90) scale(128)">
<stop stop-color="#FFD300"/>
<stop offset="1" stop-color="#E8AA1B"/>
</radialGradient>
</defs>
</svg>
