<svg width="256" height="256" viewBox="0 0 256 256" fill="none" xmlns="http://www.w3.org/2000/svg">
<g clip-path="url(#clip0_599_2121)">
<path d="M256 0H0V256H256V0Z" fill="white"/>
<g clip-path="url(#clip1_599_2121)">
<path d="M86.3427 61.1435C84.1114 52.5904 77.9134 49.2435 71.4677 49.2435C56.8407 49.2435 35.7676 87.2477 35.7676 93.8685C35.7676 94.2404 43.8544 99.7032 44.6926 111.719C45.8082 127.709 59.0098 145.001 68.4927 129.569C77.0629 115.621 55.477 75.6467 71.4677 61.1435" fill="#B27C00"/>
<path d="M169.643 61.1435C171.874 52.5904 178.072 49.2435 184.518 49.2435C199.145 49.2435 220.218 87.2477 220.218 93.8685C220.218 94.2404 212.131 99.7032 211.293 111.719C210.177 127.709 196.975 145.001 187.493 129.569C178.922 115.621 200.508 75.6467 184.518 61.1435" fill="#B27C00"/>
<path d="M190.211 135.802C190.355 134.278 184.881 120.427 184.881 118.784L190.432 72.2795C183.952 50.5445 170.936 61.7008 165.544 62.6304C154.629 64.5125 151.839 58.6525 128.356 59.2836C105.3 59.9035 103.177 59.542 92.6561 63.0023C88.7752 64.279 72.3889 44.5945 65.4824 72.2795L70.3436 122.874C70.3436 124.493 65.5568 134.23 65.697 135.733L65.5092 135.518C65.5092 159.318 75.178 173.078 92.2843 186.093C96.5192 189.316 101.154 202.344 118.366 205.975C120.312 206.385 121.144 206.358 122.778 206.547C125.195 206.825 125.556 206.918 127.979 206.918H127.984C130.407 206.918 130.123 206.639 133.562 206.547C135.207 206.502 135.657 206.385 137.603 205.975C154.814 202.344 159.449 189.316 163.684 186.093C180.791 173.078 190.459 159.318 190.459 135.518L190.211 135.802Z" fill="#F2A900"/>
<path d="M127.958 119.155C122.349 119.155 117.12 121.951 114.026 126.629C106.276 138.346 92.2578 160.195 92.2578 164.926C92.2578 171.465 104.158 194.35 127.958 181.273C151.758 194.351 163.658 171.465 163.658 164.926C163.658 160.195 149.639 138.346 141.889 126.629C138.795 121.952 133.567 119.155 127.958 119.155Z" fill="#FFD300"/>
<path d="M142.875 157.996C142.875 165.299 128 171.218 128 171.218C128 171.218 113.125 165.299 113.125 157.996C113.125 150.694 119.785 147.418 128 147.418C136.215 147.418 142.875 150.694 142.875 157.996Z" fill="#464655"/>
<path d="M160.72 171.218C157.434 171.218 154.879 173.158 152.173 175.211C148.978 177.636 145.675 180.143 140.581 180.143C134.601 180.143 130.97 177.25 130.97 175.978V173.162C132.496 172.454 134.76 171.316 137.042 169.847C142.883 166.089 145.845 162.101 145.845 157.996C145.845 149.636 139.005 144.443 127.995 144.443C116.985 144.443 110.145 149.636 110.145 157.996C110.145 162.102 113.107 166.089 118.948 169.847C121.229 171.316 123.494 172.454 125.02 173.162V175.978C125.02 177.25 121.389 180.143 115.408 180.143C110.315 180.143 107.012 177.636 103.817 175.211C101.111 173.158 98.5562 171.218 95.2699 171.218C93.627 171.218 92.2949 172.55 92.2949 174.193C92.2949 175.836 93.627 177.168 95.2699 177.168C96.554 177.168 98.2527 178.458 100.22 179.951C103.635 182.543 108.313 186.093 115.408 186.093C120.578 186.093 125.164 184.445 127.995 181.916C130.826 184.445 135.412 186.093 140.581 186.093C147.677 186.093 152.355 182.543 155.77 179.951C157.737 178.458 159.436 177.168 160.72 177.168C162.363 177.168 163.695 175.836 163.695 174.193C163.695 172.55 162.363 171.218 160.72 171.218ZM116.095 157.996C116.095 151.134 124.417 150.393 127.995 150.393C131.573 150.393 139.895 151.134 139.895 157.996C139.895 161.342 133.155 165.716 127.995 167.991C122.834 165.715 116.095 161.342 116.095 157.996Z" fill="black"/>
<path d="M210.308 67.3877C203.687 57.7528 193.84 46.2678 184.52 46.2678C176.157 46.2678 169.756 51.0282 167.154 59.0759C163.086 60.9866 160.013 60.1975 154.332 58.7245C148.581 57.234 140.706 55.1928 127.995 55.1928C115.284 55.1928 107.409 57.234 101.658 58.7245C95.9766 60.1971 92.9042 60.9866 88.8362 59.0759C86.2346 51.0282 79.8327 46.2678 71.47 46.2678C62.15 46.2678 52.3028 57.7528 45.6826 67.3877C39.4846 76.4087 32.7949 89.0982 32.7949 93.8678C32.7949 95.2229 33.6097 95.9793 34.2646 96.587C35.9551 98.1563 41.0997 102.932 41.727 111.925C42.492 122.89 48.8231 136.076 57.7177 138.259C58.3919 138.424 59.2107 138.553 60.1323 138.552C60.8912 138.552 61.7194 138.466 62.5922 138.241C62.9343 149.036 65.3322 158.245 69.9037 166.316C74.3041 174.085 80.8468 181.121 90.4933 188.461C91.2713 189.052 92.3724 190.521 93.5382 192.076C98.5351 198.74 106.897 209.893 127.995 209.893C149.093 209.893 157.455 198.74 162.452 192.077C163.617 190.521 164.719 189.053 165.497 188.461C175.143 181.121 181.685 174.085 186.086 166.317C190.658 158.246 193.056 149.036 193.398 138.242C194.271 138.466 195.099 138.553 195.858 138.553C196.779 138.553 197.598 138.425 198.272 138.259C207.167 136.076 213.498 122.89 214.263 111.925C214.891 102.933 220.035 98.1567 221.725 96.5873C222.38 95.9797 223.195 95.2233 223.195 93.8682C223.195 89.0982 216.506 76.4087 210.308 67.3877ZM208.328 111.511C207.653 121.177 202.185 131.172 196.854 132.48C194.504 133.058 192.208 131.554 190.03 128.01C186.891 122.902 188.874 111.924 190.792 101.308C193.591 85.8041 196.765 68.233 186.519 58.9391C185.302 57.835 183.42 57.9272 182.316 59.144C181.213 60.3611 181.304 62.2425 182.521 63.3462C190.323 70.4226 187.585 85.5858 184.936 100.25C182.723 112.505 180.632 124.081 184.961 131.125C185.831 132.541 186.726 133.7 187.625 134.647C187.541 134.923 187.495 135.215 187.495 135.518C187.495 159.361 177.261 172.033 161.894 183.725C160.456 184.82 159.175 186.529 157.691 188.507C153.082 194.654 146.117 203.943 127.995 203.943C109.873 203.943 102.908 194.654 98.2993 188.507C96.8159 186.529 95.5345 184.82 94.0968 183.725C78.7294 172.033 68.495 159.361 68.495 135.518C68.495 135.215 68.4489 134.923 68.3648 134.648C69.264 133.7 70.1591 132.542 71.0297 131.126C75.3583 124.082 73.2673 112.505 71.0539 100.25C68.4054 85.5862 65.6665 70.423 73.4688 63.3469C74.6856 62.2432 74.7775 60.3619 73.6737 59.1447C72.57 57.9276 70.6883 57.8361 69.4715 58.9398C59.2249 68.2334 62.3985 85.8048 65.1987 101.308C67.1161 111.925 69.0989 122.903 65.9603 128.011C63.783 131.554 61.487 133.058 59.136 132.481C53.8055 131.173 48.3367 121.178 47.6625 111.511C47.1568 104.263 44.2182 97.9756 38.926 92.811C39.8037 89.4533 43.8486 80.5647 50.5866 70.7577C58.5629 59.1485 66.3697 52.2178 71.47 52.2178C75.0077 52.2178 81.27 53.4748 83.4663 61.894C83.4689 61.9037 83.4727 61.913 83.4753 61.9226C83.4901 61.9773 83.5084 62.0312 83.5266 62.0852C83.54 62.1253 83.5522 62.1666 83.5671 62.206C83.585 62.2529 83.6065 62.2986 83.627 62.3447C83.6463 62.3886 83.6642 62.4332 83.6854 62.4756C83.7051 62.515 83.7281 62.553 83.7497 62.5913C83.7754 62.6374 83.7995 62.6842 83.8274 62.7281C83.8509 62.7657 83.878 62.8006 83.9029 62.8371C83.9323 62.8799 83.9606 62.923 83.9922 62.9639C84.0227 63.0033 84.0565 63.0401 84.0889 63.0781C84.119 63.1126 84.1472 63.1487 84.1789 63.1822C84.2142 63.2197 84.2529 63.2543 84.29 63.2904C84.3228 63.3216 84.354 63.3536 84.3878 63.3834C84.4235 63.4142 84.4618 63.4425 84.499 63.4719C84.5385 63.5035 84.5779 63.5358 84.6188 63.5652C84.6534 63.5894 84.6898 63.6117 84.7255 63.6348C84.7731 63.6656 84.8203 63.6969 84.8698 63.7251C84.8784 63.7303 84.8865 63.7363 84.8955 63.7411C88.0914 65.525 90.8659 66.1717 93.6219 66.1717C96.6434 66.1717 99.6429 65.3941 103.151 64.4849C108.894 62.9955 116.043 61.1428 127.995 61.1428C139.948 61.1428 147.096 62.9955 152.839 64.4845C156.348 65.3941 159.347 66.1713 162.368 66.1713C165.124 66.1713 167.899 65.5243 171.095 63.7407C171.103 63.7359 171.11 63.7303 171.119 63.7255C171.171 63.6957 171.221 63.663 171.271 63.6303C171.304 63.6087 171.338 63.5886 171.37 63.566C171.415 63.534 171.457 63.499 171.5 63.4648C171.534 63.438 171.569 63.4124 171.601 63.3845C171.64 63.351 171.676 63.3146 171.712 63.2789C171.745 63.2473 171.779 63.2168 171.81 63.1837C171.847 63.145 171.88 63.1033 171.914 63.0624C171.942 63.0301 171.971 62.9985 171.997 62.965C172.033 62.9196 172.064 62.8717 172.097 62.8241C172.119 62.7925 172.142 62.7616 172.162 62.7289C172.193 62.6816 172.219 62.6318 172.246 62.5824C172.265 62.547 172.287 62.5124 172.305 62.476C172.327 62.4321 172.345 62.3856 172.365 62.3403C172.385 62.2956 172.406 62.2514 172.423 62.206C172.438 62.1666 172.451 62.1253 172.464 62.0844C172.482 62.0305 172.5 61.9773 172.515 61.9226C172.518 61.913 172.522 61.9037 172.524 61.894C174.72 53.4748 180.983 52.2178 184.52 52.2178C189.62 52.2178 197.427 59.1485 205.403 70.7573C212.141 80.5644 216.186 89.4526 217.064 92.8106C211.772 97.9752 208.833 104.262 208.328 111.511Z" fill="black"/>
<path d="M95.2668 126.593C100.196 126.593 104.192 122.597 104.192 117.668C104.192 112.739 100.196 108.743 95.2668 108.743C90.3377 108.743 86.3418 112.739 86.3418 117.668C86.3418 122.597 90.3377 126.593 95.2668 126.593Z" fill="black"/>
<path d="M160.722 126.593C165.651 126.593 169.647 122.597 169.647 117.668C169.647 112.739 165.651 108.743 160.722 108.743C155.793 108.743 151.797 112.739 151.797 117.668C151.797 122.597 155.793 126.593 160.722 126.593Z" fill="black"/>
<path d="M136.394 188.34C130.815 189.314 125.159 189.314 119.581 188.34C117.962 188.057 116.421 189.141 116.139 190.76C115.856 192.378 116.939 193.919 118.558 194.201C121.686 194.747 124.837 195.02 127.987 195.02C131.137 195.02 134.288 194.747 137.416 194.201C139.035 193.919 140.118 192.378 139.835 190.76C139.553 189.141 138.013 188.057 136.394 188.34Z" fill="black"/>
<mask id="mask0_599_2121" style="mask-type:luminance" maskUnits="userSpaceOnUse" x="153" y="153" width="59" height="59">
<path d="M211.158 153.16H153.082V211.235H211.158V153.16Z" fill="white"/>
</mask>
<g mask="url(#mask0_599_2121)">
<path d="M182.118 211.236C198.155 211.236 211.156 198.236 211.156 182.199C211.156 166.162 198.155 153.161 182.118 153.161C166.081 153.161 153.08 166.162 153.08 182.199C153.08 198.236 166.081 211.236 182.118 211.236Z" fill="#7B1AF7"/>
<path d="M169.508 182.825L188.867 166.144C189.711 165.603 190.515 166.144 190 167.07L183.821 179.221H194.839C194.839 179.221 196.59 179.221 194.839 180.663L175.79 197.447C174.451 198.579 173.524 197.962 174.451 196.211L180.423 184.37H169.508C169.508 184.37 167.758 184.37 169.508 182.825Z" fill="white"/>
</g>
<path d="M183.77 213.399C200.229 213.399 213.572 200.056 213.572 183.597C213.572 167.138 200.229 153.796 183.77 153.796C167.311 153.796 153.969 167.138 153.969 183.597C153.969 200.056 167.311 213.399 183.77 213.399Z" stroke="#B30000" stroke-width="6.72939"/>
<path d="M161.422 161.246L206.124 205.948" stroke="#B30000" stroke-width="5.28738"/>
</g>
</g>
<defs>
<clipPath id="clip0_599_2121">
<rect width="256" height="256" fill="white"/>
</clipPath>
<clipPath id="clip1_599_2121">
<rect width="190.4" height="190.4" fill="white" transform="translate(32.8008 32.8809)"/>
</clipPath>
</defs>
</svg>
