<?xml version="1.0" encoding="UTF-8" standalone="no"?>
<!-- Created with Inkscape (http://www.inkscape.org/) -->
<svg width="256" height="256" viewBox="0 0 256 256" version="1.1" id="svg1" xml:space="preserve" xmlns="http://www.w3.org/2000/svg" xmlns:svg="http://www.w3.org/2000/svg">
  <rect width="256" height="256" fill="#ffffff" id="rect1" x="0" y="0" />
  <defs id="defs1" />
  <g id="layer1">
    <g id="g1" transform="matrix(0.21333333,0,0,0.21333333,-0.21333133,-0.22709035)" style="display:inline">
      <path fill="#0c6efd" opacity="1" stroke="none" d="m 378.12179,625.44574 c 11.50402,-9.6239 23.56195,-18.685 36.00143,-27.06824 18.83246,-12.69171 39.05789,-23.07159 60.63931,-30.13421 18.01691,-5.89618 36.43424,-10.74579 54.92899,-14.93457 10.16473,-2.30207 20.84082,-2.48328 31.31366,-3.2464 8.74328,-0.63703 17.5437,-1.25074 26.28814,-0.95764 20.48481,0.68646 40.78943,3.0083 60.85352,7.51379 26.33032,5.9126 51.47528,14.99127 75.38861,27.40497 9.38055,4.86957 18.3432,10.53912 27.55341,15.7431 19.80542,11.19037 39.58545,11.67621 59.48431,0.0266 16.89417,-9.89044 26.1391,-25.26019 28.8761,-43.8136 2.5542,-17.31463 -1.48535,-33.66632 -12.89118,-47.96924 -7.94079,-9.95782 -18.68023,-15.75567 -29.13732,-21.92367 -12.48841,-7.36603 -25.33686,-14.23834 -38.4831,-20.34818 -27.46551,-12.76483 -55.91418,-22.88098 -85.72149,-28.72119 -14.86475,-2.91244 -29.72992,-6.27737 -44.76044,-7.76935 -17.25922,-1.71319 -34.71692,-2.36352 -52.06055,-2.02978 -17.74054,0.34137 -35.48596,2.05344 -53.16009,3.84653 -28.79322,2.9212 -56.5878,10.42901 -83.81638,19.97805 -30.35779,10.64652 -59.25055,24.44519 -86.17346,42.11628 -12.39023,8.13244 -24.02982,17.43524 -36.59833,25.2622 -14.06897,8.76136 -29.47864,13.95313 -46.2355,15.78748 -15.71494,1.72015 -30.69287,-0.32385 -45.42046,-5.20239 -15.22055,-5.04181 -28.59215,-13.15839 -40.22096,-24.4022 -12.32976,-11.9215 -23.43756,-24.60153 -30.38077,-40.48767 -4.84411,-11.08346 -8.13785,-22.51074 -9.73241,-34.60507 -2.12555,-16.1217 -0.79811,-31.95727 3.40731,-47.36426 3.77243,-13.82064 10.41876,-26.52215 19.11671,-38.15127 10.40581,-13.91251 24.13855,-23.93411 38.06539,-33.71018 24.81013,-17.41568 50.24285,-33.901 77.54095,-47.20724 17.97156,-8.76009 36.08545,-17.28626 54.48758,-25.08693 15.22794,-6.45514 30.70358,-12.60471 46.54776,-17.26291 24.74759,-7.2758 49.785,-13.67386 74.92587,-19.46086 13.64099,-3.13992 27.71036,-4.59438 41.65808,-6.17871 15.3418,-1.74272 30.74262,-3.32002 46.15961,-3.96001 21.07587,-0.87486 42.19647,-1.22801 63.28778,-0.97078 13.30481,0.16228 26.67889,1.20325 39.86505,3.00063 20.02167,2.72912 39.93109,6.32028 59.84485,9.79362 30.82611,5.3767 60.72052,14.2885 90.00995,25.09978 17.20489,6.35063 34.27808,13.23865 50.85602,21.0602 19.58325,9.2395 39.0954,18.86318 57.67145,29.94171 20.52557,12.24124 40.56347,25.50723 59.69219,39.82535 19.15399,14.33685 37.22352,30.18313 55.18762,46.02639 10.8989,9.61237 21.7462,19.64585 30.7021,31.00025 9.5478,12.10473 4.1631,34.23248 -13.7941,39.37777 -10.2195,2.9282 -19.4224,-0.0235 -26.9831,-7.67224 -4.9206,-4.97803 -9.6765,-10.1466 -14.88263,-14.80957 -13.3666,-11.97159 -26.82705,-23.84436 -40.46133,-35.50973 -23.6283,-20.21619 -49.3916,-37.55643 -76.34338,-52.82599 -21.35071,-12.09628 -43.64545,-22.71027 -66.16272,-32.50769 -19.46338,-8.46869 -39.52973,-15.87491 -59.87708,-21.90253 -22.85486,-6.77035 -46.21161,-12.00729 -69.56702,-16.86853 -14.68334,-3.05621 -29.71655,-4.7709 -44.68145,-6.04996 -18.74237,-1.60191 -37.56751,-2.35936 -56.37268,-3.05717 -11.67792,-0.43334 -23.41346,-0.59259 -35.0716,0.0541 -13.42322,0.74466 -26.82147,2.25658 -40.17193,3.90915 -13.60566,1.68419 -27.2959,3.22405 -40.66989,6.11759 -21.09369,4.56372 -42.09015,9.71768 -62.87986,15.51135 -28.23205,7.86767 -55.27639,18.97519 -81.74045,31.58951 -30.52023,14.54773 -59.72836,31.25811 -87.08917,51.13595 -8.18779,5.94855 -16.9722,11.35864 -24.12625,18.39511 -23.0549,22.67612 -24.35126,59.76505 -3.32114,84.59336 8.89948,10.50677 18.85721,19.09112 31.91636,23.57397 20.5292,7.04718 38.55893,1.41654 55.73049,-10.61343 16.52375,-11.57617 33.31748,-22.8559 50.63337,-33.19248 29.02307,-17.3251 60.08728,-30.2196 92.362,-40.29507 20.52484,-6.40744 41.3088,-11.65009 62.56259,-14.77793 14.41137,-2.12081 28.92303,-3.64291 43.43042,-4.99838 8.55481,-0.79934 17.18652,-0.92697 25.78784,-1.04147 12.36145,-0.16452 24.75446,-0.55649 37.0824,0.10666 11.75891,0.63257 23.4378,2.63608 35.17669,3.78164 20.83136,2.03284 41.29529,6.1883 61.23957,12.2396 20.15808,6.11609 40.06201,13.19623 59.72766,20.76291 12.58844,4.84359 24.92572,10.65249 36.68896,17.25247 16.30555,9.14859 32.81073,18.32959 47.66944,29.56171 15.36981,11.61849 26.24835,27.46109 33.43182,45.75439 6.94891,17.69583 9.2843,36.00003 7.70014,54.61368 -1.8548,21.79278 -9.47284,41.85626 -22.85895,59.30755 -15.90631,20.73682 -36.33966,35.15491 -62.03479,41.04987 -21.95172,5.03619 -43.75403,3.7428 -64.63886,-4.97491 -8.50061,-3.54822 -16.2008,-8.96479 -24.49914,-13.05671 -15.58673,-7.68597 -31.20673,-15.33288 -47.06751,-22.42681 -16.58191,-7.41657 -34.31073,-11.59772 -52.17328,-13.67335 -17.86468,-2.07592 -36.10217,-3.07568 -54.02777,-2.02172 -30.9176,1.81781 -60.64795,9.60363 -88.90845,22.69745 -21.73681,10.07128 -41.96502,22.44256 -60.13204,38.06402 -7.63456,6.56482 -15.15143,13.30036 -22.31907,20.36682 -13.2145,13.02796 -36.39737,7.90375 -41.88412,-11.11639 -2.35709,-8.17086 -4.99213,-19.25273 28.0387,-46.88495 z" id="path2-7" />
      <path fill="#0c6efd" opacity="1" stroke="none" d="m 473.61817,858.18982 c 2.64599,-9.96893 4.91696,-19.61035 8.0141,-28.97858 4.83703,-14.63116 13.22186,-27.20654 23.10153,-39.01135 9.94876,-11.88745 21.7081,-21.35822 35.09939,-28.85645 13.14008,-7.35766 27.14643,-12.70129 42.1922,-14.20941 10.36786,-1.03924 20.92041,-1.64221 31.28992,-0.94506 17.58362,1.182 34.0896,6.7683 49.42334,15.49694 11.79578,6.7146 22.13855,15.28784 31.35095,25.2652 15.58515,16.87915 26.47736,36.44037 31.27728,58.81744 2.66358,12.41748 4.16883,25.37592 3.94404,38.05066 -0.32172,18.13269 -4.42261,35.70606 -12.19953,52.44269 -8.02563,17.27155 -19.03394,32.16821 -33.11664,44.70026 -16.9928,15.12152 -36.79761,25.30154 -59.33557,28.83334 -11.82782,1.8534 -24.09747,2.8307 -35.98749,1.9007 -19.1394,-1.497 -37.18658,-7.7511 -53.62725,-17.9448 -21.2309,-13.16382 -37.51887,-30.96991 -48.5625,-53.36218 -6.71714,-13.61969 -11.79548,-27.88739 -12.80857,-43.20178 -0.68792,-10.39966 -0.80459,-20.84058 -1.00403,-31.26642 -0.0463,-2.42017 0.61075,-4.85382 0.94883,-7.7312 m 44.99377,18.38476 c 0.32959,4.75934 0.48859,9.53772 1.01776,14.27479 2.62665,23.51281 14.11719,42.32196 32.31915,56.66363 18.83704,14.8421 41.0036,20.20428 64.32856,15.19427 29.8667,-6.41528 50.28039,-24.91644 61.41107,-53.56237 4.75207,-12.22992 3.74859,-24.89319 4.07336,-37.57074 0.30036,-11.72779 -3.0401,-22.36383 -8.24493,-32.36847 -9.42255,-18.11212 -23.36298,-31.64759 -42.55249,-39.51416 -15.53705,-6.36932 -31.44977,-7.53772 -47.67646,-3.92395 -17.76,3.95526 -32.36151,13.16662 -44.15545,27.12421 -12.91913,15.28894 -19.58502,32.84558 -20.52057,53.68279 z" id="path3" style="display:inline" />
    </g>
  </g>
</svg>
