<svg width="256" height="256" viewBox="0 0 256 256" fill="none" xmlns="http://www.w3.org/2000/svg">
<g clip-path="url(#clip0_2061_9729)">
<path d="M256.001 0H-0.00363159V256.01H256.001V0Z" fill="#495962"/>
<g clip-path="url(#clip1_2061_9729)">
<path fill-rule="evenodd" clip-rule="evenodd" d="M128 36.3281C178.6 36.3281 219.671 77.3996 219.671 128C219.671 178.6 178.6 219.671 128 219.671C77.4 219.671 36.3286 178.6 36.3286 128C36.3286 77.3996 77.4 36.3281 128 36.3281Z" fill="#FEFEFE"/>
<path fill-rule="evenodd" clip-rule="evenodd" d="M169.071 90.5416L207.843 140.156C208.829 178.27 158.886 222.956 111.9 205.213L86.9286 172.684L124.386 121.427C124.386 121.427 169.729 90.2131 169.071 90.5416Z" fill="#332C2B" fill-opacity="0.14902"/>
<path fill-rule="evenodd" clip-rule="evenodd" d="M88.9 82.3281H157.243L169.729 90.2138V171.042C169.729 172.685 168.743 173.671 167.1 173.671H88.9C87.2571 173.671 86.2714 172.685 86.2714 171.042V84.9567C86.2714 83.3138 87.2571 82.3281 88.9 82.3281Z" fill="#2BBCFF"/>
<path fill-rule="evenodd" clip-rule="evenodd" d="M88.9 82.3281H157.243L169.729 90.2138V90.871L157.571 83.3138H88.9C87.5857 83.3138 86.6 84.2996 86.6 85.6138V172.028C86.2714 171.7 86.2714 171.371 86.2714 171.042V84.9567C86.2714 83.3138 87.2571 82.3281 88.9 82.3281Z" fill="#53C6FC"/>
<path fill-rule="evenodd" clip-rule="evenodd" d="M113.214 82.6562H150.343V114.856H113.214V82.6562Z" fill="#BDEAFF"/>
<path fill-rule="evenodd" clip-rule="evenodd" d="M96.7857 132.273H158.886C159.871 132.273 160.529 132.931 160.529 133.588V171.702H95.1429V133.588C95.1429 132.931 95.8 132.273 96.7857 132.273Z" fill="#BDEAFF"/>
<path fill-rule="evenodd" clip-rule="evenodd" d="M95.1429 167.43H160.529V171.701H95.1429V167.43Z" fill="#006498"/>
<path fill-rule="evenodd" clip-rule="evenodd" d="M137.857 87.2578H141.143C142.129 87.2578 143.114 87.915 143.114 88.9007V102.044C143.114 103.029 142.129 104.015 141.143 104.015H137.857C136.871 104.015 135.886 103.029 135.886 102.044V88.9007C135.886 87.915 136.871 87.2578 137.857 87.2578Z" fill="#006498"/>
<path fill-rule="evenodd" clip-rule="evenodd" d="M96.4571 87.2578C99.7429 87.2578 102.043 89.5578 102.043 92.8435C102.043 95.8007 99.7429 98.1007 96.4571 98.1007C93.5 98.1007 90.8714 95.8007 90.8714 92.8435C90.8714 89.5578 93.5 87.2578 96.4571 87.2578Z" fill="#FEFEFE"/>
<path fill-rule="evenodd" clip-rule="evenodd" d="M100.729 160.203H154.943C155.6 160.203 155.929 160.532 155.929 161.189C155.929 161.517 155.6 162.175 154.943 162.175H100.729C100.071 162.175 99.7429 161.517 99.7429 161.189C99.7429 160.532 100.071 160.203 100.729 160.203Z" fill="#006498"/>
<path fill-rule="evenodd" clip-rule="evenodd" d="M100.729 149.359H154.943C155.6 149.359 155.929 149.688 155.929 150.345C155.929 150.674 155.6 151.002 154.943 151.002H100.729C100.071 151.002 99.7429 150.674 99.7429 150.345C99.7429 149.688 100.071 149.359 100.729 149.359Z" fill="#006498"/>
<path fill-rule="evenodd" clip-rule="evenodd" d="M100.729 138.188H154.943C155.6 138.188 155.929 138.845 155.929 139.173C155.929 139.83 155.6 140.159 154.943 140.159H100.729C100.071 140.159 99.7429 139.83 99.7429 139.173C99.7429 138.845 100.071 138.188 100.729 138.188Z" fill="#006498"/>
<path fill-rule="evenodd" clip-rule="evenodd" d="M90.5429 168.086C91.5286 168.086 92.1857 168.743 92.1857 169.729C92.1857 170.386 91.5286 171.043 90.5429 171.043C89.5571 171.043 88.9 170.386 88.9 169.729C88.9 168.743 89.5571 168.086 90.5429 168.086Z" fill="#FEFEFE"/>
<path fill-rule="evenodd" clip-rule="evenodd" d="M165.129 168.086C166.114 168.086 166.771 168.743 166.771 169.729C166.771 170.386 166.114 171.043 165.129 171.043C164.143 171.043 163.486 170.386 163.486 169.729C163.486 168.743 164.143 168.086 165.129 168.086Z" fill="#FEFEFE"/>
<path fill-rule="evenodd" clip-rule="evenodd" d="M113.214 82.6562H106.314V114.856H113.214V82.6562Z" fill="#006498"/>
<path fill-rule="evenodd" clip-rule="evenodd" d="M169.729 170.383V171.04C169.729 172.683 168.743 173.669 167.1 173.669H88.9C87.2571 173.669 86.2714 172.683 86.2714 171.04V170.383C86.2714 171.697 87.2571 173.011 88.9 173.011H167.1C168.743 173.011 169.729 171.697 169.729 170.383Z" fill="#0EA5EB"/>
<path fill-rule="evenodd" clip-rule="evenodd" d="M128 36C178.929 36 220 77.0714 220 128C220 178.929 178.929 220 128 220C77.0714 220 36 178.929 36 128C36 77.0714 77.0714 36 128 36ZM128 51.1143C170.386 51.1143 204.886 85.6143 204.886 128C204.886 170.386 170.386 204.886 128 204.886C85.6143 204.886 51.1143 170.386 51.1143 128C51.1143 85.6143 85.6143 51.1143 128 51.1143Z" fill="#2979FF"/>
</g>
</g>
<defs>
<clipPath id="clip0_2061_9729">
<rect width="256" height="256" fill="white"/>
</clipPath>
<clipPath id="clip1_2061_9729">
<rect width="184" height="184" fill="white" transform="translate(36 36)"/>
</clipPath>
</defs>
</svg>
