<svg width="256" height="256" viewBox="0 0 256 256" fill="none" xmlns="http://www.w3.org/2000/svg">
<rect width="256" height="256" fill="#C2005F"/>
<path fill-rule="evenodd" clip-rule="evenodd" d="M164.714 157.067L200.732 148.809C201.287 148.696 201.812 148.47 202.275 148.143C202.737 147.816 203.127 147.397 203.419 146.912C203.71 146.426 203.896 145.886 203.968 145.324C204.039 144.762 203.993 144.192 203.831 143.649L188.513 77.2141C188.237 76.1177 187.536 75.1759 186.566 74.5949C185.596 74.014 184.435 73.8416 183.338 74.1153L147.335 82.3735C146.245 82.6531 145.31 83.3528 144.735 84.3197C144.16 85.2865 143.991 86.4418 144.265 87.5329L159.538 153.968C159.815 155.064 160.515 156.006 161.485 156.587C162.455 157.168 163.616 157.34 164.714 157.067Z" fill="white"/>
<path fill-rule="evenodd" clip-rule="evenodd" d="M152.303 198.117L195.973 157.687C197.618 156.027 197.203 155.004 194.935 155.819L164.922 162.639C163.68 162.946 162.537 163.56 161.596 164.426C160.655 165.291 159.948 166.38 159.539 167.591L150.434 196.887C149.812 199.156 150.642 199.778 152.303 198.117Z" fill="white"/>
<path fill-rule="evenodd" clip-rule="evenodd" d="M72.6301 184.924L138.023 205.132C139.14 205.34 140.295 205.144 141.281 204.58C142.267 204.015 143.02 203.117 143.406 202.048L154.364 166.97C154.523 166.423 154.572 165.85 154.509 165.284C154.445 164.718 154.271 164.17 153.995 163.671C153.72 163.173 153.349 162.733 152.903 162.378C152.457 162.023 151.946 161.76 151.398 161.603L86.0054 141.588C84.8984 141.271 83.7111 141.405 82.7026 141.961C81.6942 142.517 80.9464 143.448 80.6227 144.553L69.7387 179.557C69.4154 180.652 69.5379 181.831 70.0794 182.836C70.621 183.841 71.5378 184.592 72.6301 184.924Z" fill="white"/>
<path fill-rule="evenodd" clip-rule="evenodd" d="M51.5132 113.123L64.7698 171.167C65.185 173.435 66.2526 173.435 66.831 171.167L75.9355 141.871C76.2458 140.622 76.2584 139.319 75.9726 138.064C75.6867 136.81 75.1103 135.641 74.2895 134.65L53.3816 112.085C51.9284 110.38 50.8459 110.855 51.5132 113.123Z" fill="white"/>
<path fill-rule="evenodd" clip-rule="evenodd" d="M102.642 51.0753L52.5522 97.436C51.7486 98.201 51.2768 99.2502 51.2379 100.359C51.1991 101.468 51.5964 102.547 52.3446 103.366L77.3896 130.454C78.1615 131.272 79.2253 131.753 80.3498 131.792C81.4743 131.831 82.5687 131.425 83.3952 130.661L133.471 84.2261C134.281 83.4652 134.758 82.4146 134.797 81.3037C134.836 80.1927 134.434 79.1114 133.678 78.2958L108.678 51.2235C108.293 50.8143 107.831 50.4855 107.318 50.2562C106.806 50.0269 106.252 49.9018 105.691 49.888C105.129 49.8742 104.571 49.9721 104.048 50.1759C103.524 50.3797 103.047 50.6854 102.642 51.0753Z" fill="white"/>
<path fill-rule="evenodd" clip-rule="evenodd" d="M151.057 156.03C153.341 156.652 154.779 155.422 154.171 153.065L139.684 90.3508C139.061 88.0824 137.192 87.4597 135.546 89.1054L88.3628 132.931C86.702 134.577 87.1171 136.43 89.3859 137.053L151.057 156.03Z" fill="white"/>
<path fill-rule="evenodd" clip-rule="evenodd" d="M175.687 68.5556L118.568 51.0757C116.3 50.453 115.885 51.2833 117.738 53.1365L138.646 75.6275C139.584 76.5042 140.718 77.1433 141.954 77.4915C143.19 77.8398 144.491 77.8869 145.749 77.6289L175.761 70.8239C177.971 70.2013 177.971 69.1634 175.687 68.5556Z" fill="white"/>
</svg>
