<svg width="257" height="258" viewBox="0 0 257 258" fill="none" xmlns="http://www.w3.org/2000/svg">
<g clip-path="url(#clip0_1279_5690)">
<rect width="256" height="257.104" transform="translate(0.457031 0.888672)" fill="#196AFF"/>
<path d="M227.341 47.6803C225.223 45.0706 223.006 42.5375 220.681 40.0968C196.6 14.8136 163.848 0.888589 128.457 0.888589C94.2666 0.888589 62.1232 14.2035 37.9473 38.3789C34.9653 41.3613 32.1495 44.4664 29.5026 47.6803C10.691 70.5179 0.457031 98.9164 0.457031 128.889C0.457031 163.079 13.7719 195.222 37.9473 219.399C62.1232 243.574 94.2666 256.889 128.457 256.889C162.648 256.889 194.791 243.574 218.968 219.399C243.144 195.222 256.457 163.079 256.457 128.889C256.457 99.6613 245.942 70.5926 227.341 47.6803Z" fill="#196AFF"/>
<path d="M168.075 162.998C172.833 149.041 180.692 144.768 181.669 123.231C182.013 115.662 179.714 91.622 179.714 91.622C179.714 91.622 183.45 81.9828 176.271 71.2451C165.141 54.5961 142.218 53.4641 130.18 53.4641C118.141 53.4641 95.4856 54.5961 84.355 71.2451C77.1764 81.9828 80.9115 91.622 80.9115 91.622C80.9115 91.622 79.6401 103.986 78.6779 114.891C78.4512 117.45 78.6989 127.573 79.0051 130.019C79.5556 134.401 80.9359 138.707 82.4462 142.899C84.3584 148.206 87.3555 153.591 89.6439 159.037C96.5504 175.476 90.7707 195.837 91.1238 213.565C91.4223 226.148 86.4555 248.912 85.293 261.218C98.3769 265.67 114.238 257.993 128.455 257.993C144.433 257.993 162.963 265.068 177.442 259.473C174.723 244.066 168.563 219.453 168.076 213.878C166.656 197.023 162.569 179.146 168.075 162.998Z" fill="white"/>
<path d="M79.9626 64.8098C80.116 67.3072 80.3622 69.8671 81.0655 72.2976C81.2863 73.0551 81.6126 74.922 82.5875 75.1994C83.7998 75.5447 86.0422 74.0984 86.8926 73.4718C88.5401 72.259 90.0826 71.0105 91.7306 69.785C92.7818 69.0035 93.9296 68.3891 94.9587 67.5856C96.0787 66.7127 96.9213 65.6557 97.8532 64.6285C98.9845 63.3806 99.8329 62.0886 100.703 60.6956C101.383 59.6083 105.645 58.9006 106.328 57.8915C107.073 56.7881 106.45 55.4234 106.45 54.065C106.45 44.1765 107.044 34.3896 107.275 24.6931C107.513 18.0415 110.125 10.1429 100.149 13.2606C78.7742 19.9122 79.0126 49.4282 79.9626 64.8098Z" fill="white"/>
<path d="M174.125 78.6978C173.911 78.4643 173.566 78.266 173.291 78.0618C172.094 77.1753 170.965 76.2477 169.937 75.1976C168.682 73.9159 167.378 72.6699 166.181 71.3404C165.129 70.172 163.873 69.1267 162.847 67.9305C162.164 67.1358 161.503 66.2899 160.899 65.4556C160.591 65.0321 160.43 64.5227 160.188 64.0694C159.827 63.4012 154.87 62.7203 155.362 62.0688C156.203 60.958 158.073 60.0158 158.523 58.7435C160.822 52.2545 161.826 26.14 162.103 19.4752C162.817 2.43103 177.779 20.307 180.392 27.1662C187.993 47.1205 183.478 61.6702 174.217 78.7148" fill="white"/>
<path d="M153.775 144.277C153.764 134.436 152.541 130.455 147.054 125.643C143.622 122.634 139.609 121.487 133.222 121.644C126.835 121.487 122.232 123.428 118.913 126.874C113.907 132.073 112.588 135.148 112.574 144.989C112.566 150.308 118.302 162.077 120.008 164.793C122.841 169.584 128.083 171.307 133.222 170.947C138.361 171.307 143.604 169.584 146.435 164.793C148.143 162.077 153.783 150.533 153.775 144.277Z" fill="#F1E6D3"/>
<path d="M88.4566 73.847C87.1745 62.3686 83.3124 41.8501 96.6551 29.6816C98.1268 28.3383 98.522 32.9082 98.7681 34.757C99.1066 37.2954 98.7613 44.5458 98.8131 47.1014C98.9083 51.913 99.9164 54.43 99.4466 56.6294C98.1629 62.6416 97.1328 62.2538 95.9054 65.9098C93.471 73.1602 88.8073 76.9852 88.4566 73.847Z" fill="#F1D7D4"/>
<path d="M171.811 71.5793C173.176 74.0235 176.743 60.8786 177.862 55.1696C178.914 49.7953 180.251 42.6538 178.403 37.3146C177.411 34.4504 171.326 26.039 170.608 28.9291C170.328 30.0515 170.183 38.4088 169.495 42.4076C168.643 47.3555 167.107 52.2483 167.098 57.2802C167.078 68.5559 170.476 69.0208 171.811 71.5793Z" fill="#F1D7D4"/>
<path d="M127.844 206.692C127.555 207.57 125.365 208.213 124.543 208.478C122.555 209.12 120.79 207.553 119.679 206.232C118.135 204.401 118.176 201.481 117.529 199.346C117.138 198.055 114.925 197.88 114.26 199.074C112.043 203.061 103.439 195.559 105.438 193.062C106.756 191.415 103.601 189.96 102.299 191.585C98.4398 196.406 108.822 205.384 114.777 202.951C115.042 204.155 115.32 205.358 115.831 206.502C116.835 208.749 119.029 210.201 121.299 211.421C124.392 213.079 130.4 210.166 131.318 207.387C131.957 205.453 128.481 204.769 127.844 206.692Z" fill="#FAEEE0"/>
<path d="M155.263 177.561C155.583 178.9 155.633 183.437 153.139 180.955C152.127 179.948 150.117 180.542 150.035 181.89C149.842 185.008 146.715 185.077 144.016 184.134C141.876 183.387 140.745 186.346 142.869 187.087C146.831 188.469 151.131 187.703 152.839 184.708C154.183 185.341 155.704 185.513 156.923 184.366C159.052 182.36 159.373 179.536 158.754 176.938C158.283 174.97 154.794 175.592 155.263 177.561Z" fill="#FAEEE0"/>
<path d="M161.584 242.759C160.65 244.668 158.936 244.548 157.099 243.747C155.751 243.16 154.085 244.13 154.491 245.494C155.309 248.231 151.853 249.03 149.516 248.054C147.459 247.195 145.671 249.893 147.75 250.762C151.961 252.52 157.314 250.982 158.09 247.278C160.799 247.707 163.385 246.947 164.677 244.303C165.57 242.479 162.489 240.907 161.584 242.759Z" fill="#FAEEE0"/>
<path d="M134.214 95.5568C133.78 98.2476 128.735 95.1142 127.482 94.2648C126.379 93.5185 124.952 93.9718 124.817 95.23C124.637 96.9254 122.353 96.4331 121.309 96.2201C119.335 95.8186 117.661 94.5882 117.614 92.7395C117.568 90.943 118.708 89.0566 119.302 87.37C119.683 86.293 118.139 85.108 117.011 85.8285C114.979 87.1258 105.183 88.2927 109.084 84.0222C110.327 82.6619 108.133 80.716 106.877 82.0914C105.075 84.0647 103.855 88.5848 107.755 89.5416C109.813 90.0462 112.791 90.0208 115.33 89.442C114.27 92.8391 114.048 95.9485 118.417 98.1314C121.37 99.6069 125.425 99.5967 127.143 97.3171C130.759 99.2616 136.438 101.148 137.223 96.2821C137.502 94.5613 134.495 93.8184 134.214 95.5568Z" fill="#FAEEE0"/>
<path d="M117.312 157.916C122.561 158.36 127.812 159.552 133.11 159.36C136.496 159.237 140.002 158.763 143.343 158.268C145.77 157.908 148.746 157.484 150.369 155.684C150.522 161.687 138.034 163.565 133.191 163.687C127.572 163.83 121.256 161.391 117.312 157.916Z" fill="#494949"/>
<path d="M131.503 145.393C130.902 149.246 130.778 153.153 131.14 157.028C131.236 158.042 130.965 160.456 132.313 160.965C133.405 161.378 134.755 160.602 134.933 159.617C135.234 157.956 134.528 155.862 134.468 154.161C134.397 152.169 134.468 150.174 134.678 148.192C134.804 147.016 135.463 145.431 134.118 144.603C133.131 143.996 131.684 144.22 131.503 145.393Z" fill="#494949"/>
<path d="M141.708 136.026C138.553 136.162 135.624 137.928 133.255 139.629C131.111 138.206 127.864 136.898 125.163 137.66C123.552 138.112 125.015 138.606 125.686 139.035C126.928 139.86 127.939 140.921 128.852 142.017C130.237 143.697 131.469 145.461 132.947 147.081C133.97 146.344 134.947 145.601 135.836 144.74C136.249 144.341 139.628 139.816 140.146 139.051C140.477 138.564 140.812 138.06 141.191 137.601C141.576 137.137 142.667 136.399 141.708 136.026Z" fill="#494949"/>
<path d="M101.782 114.654C103.339 110.614 105.014 105.536 109.284 106.344C112.516 107.036 116.843 117.826 114.074 116.76C112.573 116.183 111.38 111.279 108.563 110.643C106.773 110.239 104.292 116.444 101.897 117.078C100.736 117.385 101.32 115.693 101.782 114.654Z" fill="#2C3844"/>
<path d="M147.656 114.654C149.214 110.614 150.889 105.536 155.159 106.344C158.391 107.036 162.718 117.826 159.948 116.76C158.448 116.183 157.255 111.279 154.437 110.643C152.648 110.239 150.166 116.444 147.772 117.078C146.611 117.385 147.195 115.693 147.656 114.654Z" fill="#2C3844"/>
</g>
<defs>
<clipPath id="clip0_1279_5690">
<rect width="256" height="257.104" fill="white" transform="translate(0.457031 0.888672)"/>
</clipPath>
</defs>
</svg>
