<svg width="256" height="256" viewBox="0 0 256 256" fill="none" xmlns="http://www.w3.org/2000/svg">
<rect width="256" height="256" fill="black"/>
<g filter="url(#filter0_d_852_3619)">
<path d="M34.1163 138.582C32.4872 123.934 34.0887 109.791 39.0329 96.059C51.3618 61.8163 82.0035 37.8159 118.229 33.9701C167.996 28.6868 213.732 63.8008 221.356 113.146C229.166 163.696 196.221 210.89 146.231 220.766C95.0492 230.878 44.8782 197.11 35.21 146.024C34.7531 143.609 34.4894 141.158 34.1163 138.582ZM191.972 173.318C215.859 139.948 209.444 93.0006 177.476 67.2369C147.16 42.8037 104.356 43.6239 75.6439 69.792C55.2035 88.421 46.5037 111.987 50.6173 139.393C54.9617 168.335 71.2421 188.904 98.0938 200.361C131.71 214.704 170.563 203.265 191.972 173.318Z" fill="url(#paint0_linear_852_3619)" shape-rendering="crispEdges"/>
</g>
<ellipse cx="128.001" cy="127.999" rx="78.3171" ry="78.3166" fill="black"/>
<path opacity="0.5" d="M101.491 76.0581C98.5455 77.8513 95.7022 79.5881 92.7308 81.4033C90.6958 78.754 88.6013 76.0272 86.377 73.1312C91.0679 69.4011 96.166 66.5431 101.832 64.1348C103.177 67.3939 104.496 70.5925 105.868 73.9186C104.376 74.6457 102.984 75.3238 101.491 76.0581Z" fill="#CDCFD0"/>
<path opacity="0.3" d="M64.0945 103.159C65.1591 100.649 66.1876 98.2551 67.3203 95.6191C70.575 97.3152 73.6504 98.9177 76.5992 100.454C74.8678 105.229 73.1851 109.87 71.4321 114.704C68.4316 114.054 65.2199 113.387 62.0351 112.609C61.8025 112.553 61.5545 111.641 61.6698 111.226C62.4107 108.561 63.2509 105.923 64.0945 103.159Z" fill="#CDCFD0"/>
<path opacity="0.1" d="M63.6986 150.212C62.8588 147.462 62.0574 144.829 61.1934 141.99C64.8077 141.199 68.1487 140.469 71.379 139.763C73.1203 144.512 74.817 149.14 76.5904 153.977C73.7053 155.481 70.6268 157.086 67.2824 158.829C66.0569 155.891 64.8969 153.11 63.6986 150.212Z" fill="#CDCFD0"/>
<path d="M109.916 70.0171C109.09 67.3651 108.304 64.8298 107.479 62.17C113.222 60.2774 118.988 59.2993 125.352 59.0352C125.152 62.4502 124.987 65.6555 124.747 68.8551C124.721 69.1979 124.298 69.7454 123.991 69.7976C119.576 70.5485 115.148 71.2308 110.529 71.9602C110.386 71.503 110.171 70.8184 109.916 70.0171Z" fill="#676868"/>
<path opacity="0.4" d="M81.5368 93.2624C80.8023 94.2833 80.1363 95.2142 79.363 96.2951C76.3662 94.3826 73.4371 92.5134 70.4258 90.5917C73.6528 85.4331 77.4728 81.0356 81.8628 76.8652C84.2993 79.5298 86.6487 82.0991 88.8757 84.5345C86.3794 87.5002 83.9924 90.3362 81.5368 93.2624Z" fill="#CDCFD0"/>
<path opacity="0.2" d="M70.788 120.023C70.8247 124.962 70.8247 129.763 70.8247 134.768C67.3404 135.224 63.8976 135.674 60.3665 136.136C59.4916 130.121 59.5068 124.305 60.3731 118.185C63.9042 118.763 67.3277 119.323 70.788 120.023Z" fill="#CDCFD0"/>
<path d="M196.149 124.359C196.041 128.296 195.927 132.084 195.807 136.093C192.031 135.608 188.685 135.179 185.402 134.758C185.402 129.712 185.402 124.783 185.402 119.699C188.453 119.286 191.598 118.834 194.754 118.48C195.031 118.449 195.605 119.026 195.657 119.377C195.894 120.977 195.993 122.597 196.149 124.359Z" fill="#E71B23"/>
<path d="M166.666 76.7834C165.452 78.3633 164.306 79.8532 163.222 81.2621C158.895 78.7307 154.672 76.2597 150.234 73.6637C151.448 70.7011 152.746 67.5316 154.105 64.2139C159.681 66.5064 164.703 69.4192 169.476 73.1152C168.502 74.3862 167.617 75.5399 166.666 76.7834Z" fill="#F2911C"/>
<path d="M173.799 92.3186C171.559 89.7533 169.386 87.2781 167.043 84.6096C169.236 82.2037 171.541 79.6748 173.983 76.9961C178.433 81.0055 182.136 85.4767 185.444 90.5937C182.456 92.4979 179.569 94.338 176.606 96.2262C175.628 94.8631 174.747 93.6359 173.799 92.3186Z" fill="#EC5828"/>
<path d="M191.778 103.237C192.738 106.323 193.659 109.292 194.634 112.438C190.974 113.239 187.679 113.96 184.554 114.644C182.823 109.909 181.16 105.363 179.391 100.524C182.152 99.0811 185.177 97.5008 188.514 95.7578C189.625 98.2944 190.682 100.708 191.778 103.237Z" fill="#EA4035"/>
<path opacity="0.6" d="M135.226 70.0912C131.498 69.7276 131.481 69.7302 130.921 66.1945C130.791 65.3745 130.758 64.5284 130.783 63.6973C130.826 62.2432 130.948 60.7916 131.045 59.208C137.023 59.366 142.678 60.4484 148.401 62.212C147.351 65.5948 146.338 68.8555 145.346 72.0506C141.909 71.3813 138.637 70.744 135.226 70.0912Z" fill="#F18D1D"/>
<path d="M186.859 157.885C184.619 156.719 182.459 155.646 180.367 154.456C179.98 154.236 179.547 153.421 179.673 153.079C181.276 148.724 182.978 144.404 184.737 139.864C187.552 140.487 190.66 141.148 193.745 141.906C194.014 141.972 194.356 142.73 194.276 143.078C193.046 148.454 191.13 153.583 188.546 158.671C187.961 158.4 187.461 158.169 186.859 157.885Z" fill="#BA1D2C"/>
<path fill-rule="evenodd" clip-rule="evenodd" d="M108.04 176.653V174.261V168.953H100.26V176.653H108.04ZM123.34 176.653V174.261V168.953H115.56V176.653H123.34ZM155.74 174.261V176.653H147.96V168.953H155.74V174.261ZM139.54 176.653V174.261V168.953H131.76V176.653H139.54Z" fill="url(#paint1_linear_852_3619)"/>
<g filter="url(#filter1_d_852_3619)">
<path fill-rule="evenodd" clip-rule="evenodd" d="M119.731 114.989L127.845 60.9912L133.676 98.7885C133.682 98.7885 133.687 98.7885 133.693 98.7885H133.695C133.935 100.354 134.176 101.919 134.417 103.485C134.979 107.135 135.542 110.786 136.094 114.438C136.251 115.481 136.417 116.524 136.582 117.567C137.031 120.402 137.481 123.237 137.779 126.087C138.308 131.128 136.96 135.672 133.256 139.264C130.111 142.314 125.824 142.282 122.67 139.248C119.115 135.827 117.56 131.429 118.128 126.678C118.594 122.776 119.141 118.885 119.736 114.989L119.731 114.989ZM125.384 124.545C127.72 122.706 130.731 123.582 132.22 126.534C132.83 129.29 131.769 131.417 129.577 132.209C127.527 132.95 125.23 132.079 124.201 130.173C123.157 128.239 123.646 125.913 125.384 124.545Z" fill="url(#paint2_linear_852_3619)"/>
</g>
<g filter="url(#filter2_f_852_3619)">
<path d="M148.06 70.1828C190.04 85.6155 186.673 134.975 180.536 152.483C176.925 177.302 182.456 183.391 192.733 155.739C213.743 99.2068 177.661 66.302 156.994 56.9162C138.132 51.5915 129.648 63.4141 148.06 70.1828Z" fill="url(#paint3_linear_852_3619)"/>
</g>
<path d="M132.259 126.644C132.831 129.289 131.769 131.416 129.577 132.208C127.528 132.949 125.23 132.078 124.201 130.172C123.157 128.238 123.646 125.912 125.384 124.544C127.72 122.705 130.731 123.581 132.259 126.644Z" fill="#DDDDDD"/>
<defs>
<filter id="filter0_d_852_3619" x="4.70191" y="4.6443" width="228.598" height="228.712" filterUnits="userSpaceOnUse" color-interpolation-filters="sRGB">
<feFlood flood-opacity="0" result="BackgroundImageFix"/>
<feColorMatrix in="SourceAlpha" type="matrix" values="0 0 0 0 0 0 0 0 0 0 0 0 0 0 0 0 0 0 127 0" result="hardAlpha"/>
<feOffset dx="-9.00001" dy="-9.00001"/>
<feGaussianBlur stdDeviation="9.90001"/>
<feComposite in2="hardAlpha" operator="out"/>
<feColorMatrix type="matrix" values="0 0 0 0 1 0 0 0 0 1 0 0 0 0 1 0 0 0 0.13 0"/>
<feBlend mode="normal" in2="BackgroundImageFix" result="effect1_dropShadow_852_3619"/>
<feBlend mode="normal" in="SourceGraphic" in2="effect1_dropShadow_852_3619" result="shape"/>
</filter>
<filter id="filter1_d_852_3619" x="91.9136" y="34.8912" width="72.0751" height="132.746" filterUnits="userSpaceOnUse" color-interpolation-filters="sRGB">
<feFlood flood-opacity="0" result="BackgroundImageFix"/>
<feColorMatrix in="SourceAlpha" type="matrix" values="0 0 0 0 0 0 0 0 0 0 0 0 0 0 0 0 0 0 127 0" result="hardAlpha"/>
<feOffset/>
<feGaussianBlur stdDeviation="13.05"/>
<feComposite in2="hardAlpha" operator="out"/>
<feColorMatrix type="matrix" values="0 0 0 0 0.0705882 0 0 0 0 0.537255 0 0 0 0 0.905882 0 0 0 1 0"/>
<feBlend mode="normal" in2="BackgroundImageFix" result="effect1_dropShadow_852_3619"/>
<feBlend mode="normal" in="SourceGraphic" in2="effect1_dropShadow_852_3619" result="shape"/>
</filter>
<filter id="filter2_f_852_3619" x="115.311" y="33.0771" width="106.277" height="163.365" filterUnits="userSpaceOnUse" color-interpolation-filters="sRGB">
<feFlood flood-opacity="0" result="BackgroundImageFix"/>
<feBlend mode="normal" in="SourceGraphic" in2="BackgroundImageFix" result="shape"/>
<feGaussianBlur stdDeviation="11.25" result="effect1_foregroundBlur_852_3619"/>
</filter>
<linearGradient id="paint0_linear_852_3619" x1="128.001" y1="33.4443" x2="128.001" y2="222.557" gradientUnits="userSpaceOnUse">
<stop stop-color="white"/>
<stop offset="1" stop-color="#CFD1D2" stop-opacity="0.1"/>
</linearGradient>
<linearGradient id="paint1_linear_852_3619" x1="128" y1="168.953" x2="128" y2="176.653" gradientUnits="userSpaceOnUse">
<stop stop-color="#959595"/>
<stop offset="1" stop-color="#CBCDCE" stop-opacity="0.29"/>
</linearGradient>
<linearGradient id="paint2_linear_852_3619" x1="127.952" y1="60.9912" x2="127.952" y2="141.538" gradientUnits="userSpaceOnUse">
<stop stop-color="#0D94FF"/>
<stop offset="1" stop-color="#1B74BA"/>
</linearGradient>
<linearGradient id="paint3_linear_852_3619" x1="137.811" y1="59.6236" x2="185.777" y2="169.006" gradientUnits="userSpaceOnUse">
<stop stop-color="#F2911C" stop-opacity="0.46"/>
<stop offset="1" stop-color="#BA1D2C"/>
</linearGradient>
</defs>
</svg>
