<svg width="256" height="256" viewBox="0 0 256 256" fill="none" xmlns="http://www.w3.org/2000/svg">
<rect width="256" height="256" fill="#2842E7"/>
<g clip-path="url(#clip0_1536_1091)">
<path d="M54.0039 127.998C54.0039 157.288 71.026 182.601 95.7093 194.596L60.4106 97.8823C56.3047 107.085 54.0039 117.27 54.0039 127.998Z" fill="white"/>
<path d="M177.958 124.264C177.958 115.118 174.673 108.785 171.855 103.855C168.104 97.7597 164.588 92.5978 164.588 86.5023C164.588 79.6999 169.748 73.3679 177.015 73.3679C177.343 73.3679 177.654 73.4087 177.974 73.427C164.808 61.3656 147.268 54.0014 128.003 54.0014C102.151 54.0014 79.4064 67.2653 66.1748 87.3556C67.9109 87.4077 69.5471 87.4443 70.9369 87.4443C78.677 87.4443 90.6582 86.5051 90.6582 86.5051C94.6472 86.27 95.1175 92.1289 91.1327 92.6006C91.1327 92.6006 87.124 93.0723 82.6632 93.3061L109.611 173.46L125.805 124.892L114.276 93.3032C110.291 93.0695 106.516 92.5978 106.516 92.5978C102.528 92.3641 102.996 86.2671 106.983 86.5023C106.983 86.5023 119.204 87.4415 126.475 87.4415C134.214 87.4415 146.196 86.5023 146.196 86.5023C150.188 86.2671 150.657 92.1261 146.671 92.5978C146.671 92.5978 142.654 93.0695 138.201 93.3032L164.943 172.85L172.324 148.185C175.524 137.95 177.958 130.599 177.958 124.264Z" fill="white"/>
<path d="M129.301 134.471L107.099 198.987C113.728 200.935 120.739 202.001 128.003 202.001C136.62 202.001 144.884 200.512 152.576 197.807C152.378 197.49 152.197 197.153 152.05 196.787L129.301 134.471Z" fill="white"/>
<path d="M192.934 92.495C193.252 94.8521 193.432 97.3824 193.432 100.104C193.432 107.613 192.03 116.055 187.806 126.61L165.202 191.962C187.202 179.133 201.999 155.299 201.999 127.999C202 115.134 198.714 103.036 192.934 92.495Z" fill="white"/>
<path d="M128.003 41.74C80.44 41.74 41.7422 80.4349 41.7422 127.998C41.7422 175.566 80.44 214.26 128.003 214.26C175.564 214.26 214.268 175.566 214.268 127.998C214.266 80.4349 175.564 41.74 128.003 41.74ZM128.003 210.306C82.6211 210.306 45.6974 173.383 45.6974 127.998C45.6974 82.616 82.6196 45.6952 128.003 45.6952C173.383 45.6952 210.304 82.616 210.304 127.998C210.304 173.383 173.383 210.306 128.003 210.306Z" fill="white"/>
</g>
<defs>
<clipPath id="clip0_1536_1091">
<rect width="172.516" height="172.52" fill="white" transform="translate(41.7422 41.74)"/>
</clipPath>
</defs>
</svg>
