<svg width="256" height="257" viewBox="0 0 256 257" fill="none" xmlns="http://www.w3.org/2000/svg">
<g clip-path="url(#clip0_1393_2153)">
<mask id="mask0_1393_2153" style="mask-type:luminance" maskUnits="userSpaceOnUse" x="0" y="0" width="256" height="257">
<path d="M0 0.666504H255.996V256.663H0V0.666504Z" fill="white"/>
</mask>
<g mask="url(#mask0_1393_2153)">
<path d="M256 0.666504H0V256.667H256V0.666504Z" fill="#4B4D64"/>
</g>
<path fill-rule="evenodd" clip-rule="evenodd" d="M173.973 128.811C173.973 132.006 173.242 134.717 171.648 137.475C170.051 140.237 168.066 142.221 165.309 143.815C162.547 145.413 159.836 146.139 156.641 146.139C153.449 146.139 150.738 145.413 147.977 143.815C145.219 142.221 143.234 140.237 141.637 137.475C140.039 134.717 139.312 132.006 139.312 128.811C139.312 125.62 140.039 122.905 141.637 120.147C143.234 117.389 145.219 115.405 147.977 113.807C150.738 112.209 153.449 111.483 156.641 111.483C159.836 111.483 162.547 112.209 165.309 113.807C168.066 115.405 170.051 117.389 171.648 120.147C173.242 122.905 173.973 125.62 173.973 128.811Z" fill="white"/>
<path fill-rule="evenodd" clip-rule="evenodd" d="M69.3086 138.561H110.332V117.342H69.3086V138.561ZM48.1055 172.823V84.5063C48.1055 81.5571 50.4961 79.1665 53.4414 79.1665H63.9688C66.918 79.1665 69.3086 81.5571 69.3086 84.5063V172.823C69.3086 175.772 66.918 178.163 63.9688 178.163H53.4414C50.4961 178.163 48.1055 175.772 48.1055 172.823Z" fill="white"/>
<path fill-rule="evenodd" clip-rule="evenodd" d="M160.535 129.37C160.535 130.022 160.383 130.577 160.062 131.147C159.73 131.702 159.324 132.108 158.77 132.44C158.203 132.76 157.645 132.913 156.992 132.913C156.348 132.913 155.793 132.76 155.227 132.44C154.668 132.108 154.262 131.702 153.93 131.147C153.609 130.577 153.457 130.022 153.457 129.377C153.457 128.725 153.609 128.17 153.93 127.6C154.262 127.045 154.668 126.639 155.227 126.307C155.793 125.987 156.348 125.834 156.992 125.834C157.645 125.834 158.203 125.987 158.77 126.307C159.324 126.639 159.73 127.045 160.062 127.6C160.383 128.17 160.535 128.725 160.535 129.37Z" fill="#4B4D64"/>
<path fill-rule="evenodd" clip-rule="evenodd" d="M174.672 116.284C174.672 116.292 174.672 116.292 174.672 116.299C174.672 117.795 174.332 119.069 173.586 120.366C172.836 121.659 171.902 122.592 170.609 123.342C169.312 124.088 168.039 124.428 166.543 124.428C166.535 124.428 166.535 124.428 166.527 124.428C165.031 124.428 163.766 124.088 162.473 123.342C161.18 122.592 160.242 121.659 159.496 120.366C158.75 119.069 158.41 117.795 158.41 116.299C158.41 114.799 158.75 113.522 159.496 112.229C160.242 110.936 161.18 109.999 162.473 109.252C163.766 108.506 165.043 108.167 166.543 108.167C168.039 108.167 169.312 108.506 170.609 109.252C171.902 109.999 172.836 110.936 173.586 112.229C174.332 113.522 174.672 114.788 174.672 116.284Z" fill="#4B4D64"/>
<path fill-rule="evenodd" clip-rule="evenodd" d="M207.902 128.659C207.902 157.178 184.789 180.288 156.273 180.288C127.766 180.288 104.664 157.178 104.664 128.659C104.664 100.155 127.766 77.0493 156.273 77.0493C184.789 77.0493 207.902 100.155 207.902 128.659ZM126.367 128.659C126.367 145.186 139.758 158.584 156.273 158.584C172.801 158.584 186.199 145.186 186.199 128.659C186.199 112.143 172.801 98.7563 156.273 98.7563C139.758 98.7563 126.367 112.143 126.367 128.659Z" fill="white"/>
</g>
<defs>
<clipPath id="clip0_1393_2153">
<rect width="256" height="256" fill="white" transform="translate(0 0.666504)"/>
</clipPath>
</defs>
</svg>
