<svg width="256" height="256" viewBox="0 0 256 256" fill="none" xmlns="http://www.w3.org/2000/svg">
<g clip-path="url(#clip0_2106_9643)">
<rect width="256" height="256" fill="url(#paint0_linear_2106_9643)"/>
<path d="M58.9746 -43.777L-41.0166 9.61708C-41.5004 9.87542 -41.6858 10.4752 -41.4322 10.9616L50.501 187.258C50.7324 187.702 51.2565 187.906 51.7273 187.736L139.297 156.111C139.701 155.965 140.154 156.094 140.421 156.431L241.537 284.27C242.218 285.131 243.589 284.424 243.281 283.37L174.545 47.685C174.372 47.0914 173.707 46.7956 173.15 47.0646L92.2422 86.1498C91.6665 86.4279 90.9813 86.1017 90.8341 85.4795L60.4188 -43.125C60.2678 -43.7635 59.5533 -44.086 58.9746 -43.777Z" fill="url(#paint1_linear_2106_9643)"/>
<path d="M52.3469 -40.277L-47.6443 13.1171C-48.1281 13.3754 -48.3136 13.9753 -48.06 14.4616L43.8732 190.758C44.1047 191.202 44.6287 191.406 45.0996 191.236L132.699 159.6C133.089 159.459 133.525 159.573 133.796 159.887L241.508 284.569C242.219 285.393 243.549 284.647 243.216 283.61L168.386 50.449C168.199 49.8687 167.542 49.5886 166.994 49.8563L85.6173 89.6419C85.0412 89.9236 84.3526 89.5978 84.205 88.9736L53.791 -39.625C53.6401 -40.2635 52.9256 -40.586 52.3469 -40.277Z" fill="url(#paint2_linear_2106_9643)"/>
<path d="M104.13 163.174C110.259 160.786 114.156 154.915 115.692 147.709C117.231 140.488 116.46 131.735 113.105 123.125C109.75 114.514 104.395 107.547 98.376 103.271C92.3691 99.0041 85.5275 97.318 79.3985 99.7063C73.2695 102.095 69.3724 107.965 67.8364 115.172C66.2973 122.393 67.068 131.145 70.4233 139.756C73.7785 148.367 79.1329 155.333 85.152 159.609C91.159 163.876 98.0005 165.562 104.13 163.174Z" fill="white" stroke="#303030" stroke-width="3"/>
<ellipse cx="99.3679" cy="128.929" rx="13.4398" ry="15.2219" transform="rotate(-21.289 99.3679 128.929)" fill="#303030"/>
<ellipse rx="2.85044" ry="4.1133" transform="matrix(0.72492 -0.688833 0.68176 0.731576 103.95 122.663)" fill="white"/>
<path d="M146.041 146.854C152.17 144.466 156.067 138.595 157.603 131.389C159.142 124.167 158.372 115.415 155.016 106.804C151.661 98.1935 146.307 91.2271 140.288 86.9511C134.281 82.6838 127.439 80.9977 121.31 83.386C115.181 85.7742 111.284 91.6447 109.748 98.8512C108.209 106.072 108.98 114.825 112.335 123.436C115.69 132.046 121.045 139.013 127.064 143.289C133.071 147.556 139.912 149.242 146.041 146.854Z" fill="white" stroke="#303030" stroke-width="3"/>
<ellipse cx="141.28" cy="112.608" rx="13.4398" ry="15.2219" transform="rotate(-21.289 141.28 112.608)" fill="#303030"/>
<ellipse rx="2.85044" ry="4.1133" transform="matrix(0.72492 -0.688833 0.68176 0.731576 145.861 106.343)" fill="white"/>
</g>
<defs>
<linearGradient id="paint0_linear_2106_9643" x1="128" y1="0" x2="128" y2="256" gradientUnits="userSpaceOnUse">
<stop stop-color="#201539"/>
<stop offset="1" stop-color="#5E2A32"/>
</linearGradient>
<linearGradient id="paint1_linear_2106_9643" x1="20.6809" y1="-53.8241" x2="193.056" y2="340.451" gradientUnits="userSpaceOnUse">
<stop stop-color="#FFD79E"/>
<stop offset="1" stop-color="#FDA063"/>
</linearGradient>
<linearGradient id="paint2_linear_2106_9643" x1="14.0532" y1="-50.3241" x2="186.428" y2="343.951" gradientUnits="userSpaceOnUse">
<stop stop-color="#F2B35A"/>
<stop offset="1" stop-color="#BF7545"/>
</linearGradient>
<clipPath id="clip0_2106_9643">
<rect width="256" height="256" fill="white"/>
</clipPath>
</defs>
</svg>
