<svg width="256" height="256" viewBox="0 0 256 256" fill="none" xmlns="http://www.w3.org/2000/svg">
<g clip-path="url(#clip0_1586_546)">
<rect width="256" height="256" fill="url(#paint0_linear_1586_546)"/>
<g clip-path="url(#clip1_1586_546)">
<g filter="url(#filter0_ddddd_1586_546)">
<path d="M128.252 224.496C181.684 224.496 225 181.18 225 127.748C225 74.3156 181.684 31 128.252 31C74.8195 31 31.5039 74.3156 31.5039 127.748C31.5039 181.18 74.8195 224.496 128.252 224.496Z" fill="url(#paint1_radial_1586_546)"/>
<path fill-rule="evenodd" clip-rule="evenodd" d="M105.07 168.652L169.07 131.416L105.07 94.1797V168.652Z" fill="url(#paint2_radial_1586_546)"/>
<path opacity="0.5" d="M165.933 66.8378C164.699 68.7186 165.224 71.2434 167.104 72.4771C168.985 73.7108 171.51 73.1863 172.744 71.3055L178.488 62.5486C179.721 60.6678 179.197 58.143 177.316 56.9093C175.435 55.6756 172.911 56.2002 171.677 58.0809L165.933 66.8378Z" fill="#C7EFC4"/>
<path opacity="0.5" d="M190.531 91.1554C188.53 92.1838 187.742 94.6392 188.771 96.6396C189.799 98.64 192.254 99.428 194.255 98.3996L203.569 93.6114C205.569 92.583 206.357 90.1277 205.329 88.1272C204.301 86.1268 201.845 85.3388 199.845 86.3672L190.531 91.1554Z" fill="#C7EFC4"/>
<path opacity="0.5" d="M196.182 123.406C193.29 123.406 190.945 125.751 190.945 128.643C190.945 131.535 193.29 133.879 196.182 133.879H209.563C212.455 133.879 214.8 131.535 214.8 128.643C214.8 125.751 212.455 123.406 209.563 123.406H196.182Z" fill="#C7EFC4"/>
<path opacity="0.5" d="M192.95 159.859C190.967 158.798 188.499 159.546 187.438 161.53C186.377 163.513 187.126 165.981 189.109 167.042L198.344 171.981C200.327 173.041 202.795 172.293 203.856 170.31C204.917 168.326 204.169 165.859 202.185 164.798L192.95 159.859Z" fill="#C7EFC4"/>
<path opacity="0.5" d="M168.241 200.874C169.424 202.786 171.935 203.377 173.847 202.194C175.76 201.01 176.351 198.5 175.167 196.587L169.657 187.682C168.473 185.769 165.963 185.178 164.05 186.362C162.138 187.545 161.547 190.055 162.73 191.968L168.241 200.874Z" fill="#C7EFC4"/>
<path opacity="0.5" d="M123.187 209.748C123.187 212.64 125.532 214.984 128.424 214.984C131.316 214.984 133.66 212.64 133.66 209.748V196.366C133.66 193.474 131.316 191.13 128.424 191.13C125.532 191.13 123.187 193.474 123.187 196.366V209.748Z" fill="#C7EFC4"/>
<path opacity="0.5" d="M78.5933 195.201C77.374 197.091 77.9179 199.612 79.808 200.831C81.6982 202.051 84.2189 201.507 85.4382 199.617L91.1151 190.816C92.3344 188.926 91.7905 186.405 89.9004 185.186C88.0102 183.967 85.4895 184.51 84.2702 186.401L78.5933 195.201Z" fill="#C7EFC4"/>
<path opacity="0.5" d="M51.6509 162.269C49.6504 163.297 48.8624 165.752 49.8908 167.753C50.9192 169.753 53.3746 170.541 55.375 169.513L64.6891 164.725C66.6895 163.696 67.4775 161.241 66.4491 159.24C65.4207 157.24 62.9653 156.452 60.9649 157.48L51.6509 162.269Z" fill="#C7EFC4"/>
<path opacity="0.5" d="M46.1944 123.406C43.3024 123.406 40.958 125.751 40.958 128.643C40.958 131.535 43.3024 133.879 46.1944 133.879H59.5762C62.4682 133.879 64.8126 131.535 64.8126 128.643C64.8126 125.751 62.4682 123.406 59.5762 123.406H46.1944Z" fill="#C7EFC4"/>
<path opacity="0.5" d="M57.421 83.1324C55.4375 82.0717 52.9697 82.8197 51.909 84.8031C50.8482 86.7866 51.5962 89.2544 53.5797 90.3152L62.8147 95.2541C64.7982 96.3148 67.266 95.5668 68.3268 93.5834C69.3875 91.5999 68.6395 89.132 66.656 88.0713L57.421 83.1324Z" fill="#C7EFC4"/>
<path opacity="0.5" d="M86.4867 68.1691C87.6741 70.0795 90.1854 70.6655 92.0957 69.4781C94.006 68.2907 94.5921 65.7795 93.4047 63.8691L87.8761 54.9746C86.6887 53.0643 84.1775 52.4782 82.2671 53.6656C80.3568 54.853 79.7707 57.3643 80.9581 59.2746L86.4867 68.1691Z" fill="#C7EFC4"/>
<path opacity="0.5" d="M130.594 60.1894C130.594 63.0814 132.938 65.4258 135.83 65.4258C138.722 65.4258 141.066 63.0814 141.066 60.1894V46.8076C141.066 43.9156 138.722 41.5712 135.83 41.5712C132.938 41.5712 130.594 43.9156 130.594 46.8076V60.1894Z" fill="#C7EFC4"/>
<path opacity="0.5" d="M115.312 60.1894C115.312 63.0814 117.657 65.4258 120.549 65.4258C123.441 65.4258 125.785 63.0814 125.785 60.1894V46.8076C125.785 43.9156 123.441 41.5712 120.549 41.5712C117.657 41.5712 115.312 43.9156 115.312 46.8076V60.1894Z" fill="#C7EFC4"/>
</g>
</g>
</g>
<defs>
<filter id="filter0_ddddd_1586_546" x="13.5039" y="28" width="229.496" height="277.496" filterUnits="userSpaceOnUse" color-interpolation-filters="sRGB">
<feFlood flood-opacity="0" result="BackgroundImageFix"/>
<feColorMatrix in="SourceAlpha" type="matrix" values="0 0 0 0 0 0 0 0 0 0 0 0 0 0 0 0 0 0 127 0" result="hardAlpha"/>
<feOffset dy="3"/>
<feGaussianBlur stdDeviation="3"/>
<feColorMatrix type="matrix" values="0 0 0 0 0.0784314 0 0 0 0 0.662745 0 0 0 0 0.254902 0 0 0 0.39 0"/>
<feBlend mode="normal" in2="BackgroundImageFix" result="effect1_dropShadow_1586_546"/>
<feColorMatrix in="SourceAlpha" type="matrix" values="0 0 0 0 0 0 0 0 0 0 0 0 0 0 0 0 0 0 127 0" result="hardAlpha"/>
<feOffset dy="10"/>
<feGaussianBlur stdDeviation="5"/>
<feColorMatrix type="matrix" values="0 0 0 0 0.0784314 0 0 0 0 0.662745 0 0 0 0 0.254902 0 0 0 0.34 0"/>
<feBlend mode="normal" in2="effect1_dropShadow_1586_546" result="effect2_dropShadow_1586_546"/>
<feColorMatrix in="SourceAlpha" type="matrix" values="0 0 0 0 0 0 0 0 0 0 0 0 0 0 0 0 0 0 127 0" result="hardAlpha"/>
<feOffset dy="23"/>
<feGaussianBlur stdDeviation="7"/>
<feColorMatrix type="matrix" values="0 0 0 0 0.0784314 0 0 0 0 0.662745 0 0 0 0 0.254902 0 0 0 0.2 0"/>
<feBlend mode="normal" in2="effect2_dropShadow_1586_546" result="effect3_dropShadow_1586_546"/>
<feColorMatrix in="SourceAlpha" type="matrix" values="0 0 0 0 0 0 0 0 0 0 0 0 0 0 0 0 0 0 127 0" result="hardAlpha"/>
<feOffset dy="40"/>
<feGaussianBlur stdDeviation="8"/>
<feColorMatrix type="matrix" values="0 0 0 0 0.0784314 0 0 0 0 0.662745 0 0 0 0 0.254902 0 0 0 0.06 0"/>
<feBlend mode="normal" in2="effect3_dropShadow_1586_546" result="effect4_dropShadow_1586_546"/>
<feColorMatrix in="SourceAlpha" type="matrix" values="0 0 0 0 0 0 0 0 0 0 0 0 0 0 0 0 0 0 127 0" result="hardAlpha"/>
<feOffset dy="63"/>
<feGaussianBlur stdDeviation="9"/>
<feColorMatrix type="matrix" values="0 0 0 0 0.0784314 0 0 0 0 0.662745 0 0 0 0 0.254902 0 0 0 0.01 0"/>
<feBlend mode="normal" in2="effect4_dropShadow_1586_546" result="effect5_dropShadow_1586_546"/>
<feBlend mode="normal" in="SourceGraphic" in2="effect5_dropShadow_1586_546" result="shape"/>
</filter>
<linearGradient id="paint0_linear_1586_546" x1="128" y1="0" x2="128" y2="256" gradientUnits="userSpaceOnUse">
<stop stop-color="#F2F2F2"/>
<stop offset="1" stop-color="#BAC3B9"/>
</linearGradient>
<radialGradient id="paint1_radial_1586_546" cx="0" cy="0" r="1" gradientUnits="userSpaceOnUse" gradientTransform="translate(128.252 128.25) scale(109.008 132.571)">
<stop stop-color="#01FD00"/>
<stop offset="1" stop-color="#009D39"/>
</radialGradient>
<radialGradient id="paint2_radial_1586_546" cx="0" cy="0" r="1" gradientUnits="userSpaceOnUse" gradientTransform="translate(109.849 163.078) rotate(-30) scale(72.2648 74.9259)">
<stop stop-color="#F9F9F9"/>
<stop offset="1" stop-color="white"/>
</radialGradient>
<clipPath id="clip0_1586_546">
<rect width="256" height="256" fill="white"/>
</clipPath>
<clipPath id="clip1_1586_546">
<rect width="256" height="256" fill="white"/>
</clipPath>
</defs>
</svg>
