<svg width="256" height="256" viewBox="0 0 256 256" fill="none" xmlns="http://www.w3.org/2000/svg">
<g clip-path="url(#clip0_1797_1305)">
<rect width="256" height="256" fill="#8B3BD0"/>
<g clip-path="url(#clip1_1797_1305)">
<path d="M9.26562 43.9766C9.26562 25.3086 24.4258 10.1367 43.0664 10.1367H212.066C230.707 10.1367 245.863 25.3086 245.863 43.9766V213.18C245.863 231.848 230.707 247.023 212.066 247.023H43.0664C24.4258 247.023 9.26562 231.848 9.26562 213.18V43.9766Z" fill="#8B3BD0"/>
<path fill-rule="evenodd" clip-rule="evenodd" d="M14.5078 109.207L14.7422 109.32L14.5078 109.438V109.207Z" fill="#8B3BD0"/>
<path d="M174.227 34.9531V155.832C174.227 174 167.777 189.531 154.887 202.426C141.992 215.316 126.461 221.766 108.293 221.766L97.3047 177.809H108.293C114.301 177.809 119.426 175.684 123.676 171.438C128.074 167.039 130.27 161.84 130.27 155.832V78.9102H81.9219V34.9531H174.227Z" fill="white"/>
</g>
</g>
<defs>
<clipPath id="clip0_1797_1305">
<rect width="256" height="256" fill="white"/>
</clipPath>
<clipPath id="clip1_1797_1305">
<rect width="256" height="256" fill="white"/>
</clipPath>
</defs>
</svg>
