<svg width="256" height="256" viewBox="0 0 256 256" fill="none" xmlns="http://www.w3.org/2000/svg">
  <rect width="256" height="256" fill="#FFB25B"/>
  <g transform="translate(-78.55 -78.55) scale(2.295)">
    <path fill-rule="evenodd" clip-rule="evenodd" d="M121.997 51.9985C124.21 51.9987 125.997 53.7851 125.997 55.9982C125.997 58.2112 124.21 59.9976 121.997 59.9978H93.9998V72.3964C103.132 74.2497 109.998 82.3158 109.998 91.9949C109.998 101.674 103.132 109.74 93.9998 111.593V123.992C93.9998 126.205 92.2131 127.991 90.0001 127.992C87.787 127.992 86.0005 126.205 86.0005 123.992V111.593C76.868 109.74 70.002 101.674 70.002 91.9949C70.002 82.3158 76.868 74.2496 86.0005 72.3964V59.9978H58.0031C55.7899 59.9978 54.0034 58.2113 54.0034 55.9982C54.0034 53.785 55.7899 51.9985 58.0031 51.9985H121.997ZM90.0001 79.996C83.3741 79.996 78.0012 85.3688 78.0012 91.9949C78.0012 98.6209 83.3741 103.994 90.0001 103.994C96.626 103.994 101.999 98.6208 101.999 91.9949C101.999 85.3689 96.626 79.9961 90.0001 79.996Z" fill="#161C24"/>
  </g>
</svg>
