<svg width="256" height="256" viewBox="0 0 256 256" fill="none" xmlns="http://www.w3.org/2000/svg">
<g clip-path="url(#clip0_1386_6)">
<path d="M256 0H0V256H256V0Z" fill="#1E1E1E"/>
<mask id="mask0_1386_6" style="mask-type:luminance" maskUnits="userSpaceOnUse" x="40" y="40" width="176" height="176">
<path d="M216 40H40V216H216V40Z" fill="white"/>
</mask>
<g mask="url(#mask0_1386_6)">
<path d="M145.069 45.7117V117.44C145.069 120.561 147.592 123.152 150.78 123.152H181.995C184.785 123.152 187.441 121.823 189.168 119.565L214.605 85.7599C216.465 83.3026 216.465 79.9154 214.605 77.4581L189.168 43.5864C187.441 41.3283 184.785 40 181.995 40H150.78C147.592 40 145.069 42.5238 145.069 45.7117Z" fill="#FF4E4E"/>
<path d="M145.069 138.56V210.288C145.069 213.41 147.592 216 150.78 216H181.995C184.785 216 187.441 214.671 189.168 212.413L214.605 178.608C216.465 176.151 216.465 172.764 214.605 170.306L189.168 136.501C187.508 134.243 184.851 132.915 181.995 132.915H150.78C147.592 132.848 145.069 135.438 145.069 138.56Z" fill="#6E56FF"/>
<path d="M40 45.7117V117.44C40 120.561 42.5238 123.152 45.7117 123.152H112.791C115.58 123.152 118.237 121.823 119.964 119.565L143.541 88.1509C146.463 84.2324 146.463 78.8528 143.541 74.9343L119.897 43.5864C118.237 41.3283 115.58 40 112.724 40H45.7117C42.5238 40 40 42.5238 40 45.7117Z" fill="#F97777"/>
<path d="M40 138.56V210.288C40 213.41 42.5238 216 45.7117 216H112.791C115.58 216 118.237 214.671 119.964 212.413L143.541 180.999C146.463 177.081 146.463 171.701 143.541 167.782L119.964 136.368C118.303 134.11 115.647 132.782 112.791 132.782H45.7117C42.5238 132.848 40 135.438 40 138.56Z" fill="#9F8FFF"/>
</g>
</g>
<defs>
<clipPath id="clip0_1386_6">
<rect width="256" height="256" fill="white"/>
</clipPath>
</defs>
</svg>
