<svg width="256" height="256" viewBox="0 0 256 256" fill="none" xmlns="http://www.w3.org/2000/svg">
<rect width="256" height="256" fill="#111113"/>
<path d="M128.02 191.371C163.026 191.371 191.405 162.993 191.405 127.986C191.405 92.9798 163.026 64.6016 128.02 64.6016C93.0137 64.6016 64.6354 92.9798 64.6354 127.986C64.6354 162.993 93.0137 191.371 128.02 191.371Z" fill="#111113"/>
<path d="M206.652 93.8583C202.327 83.4152 195.499 73.729 187.62 65.8658C179.772 57.9872 169.684 52.1013 159.226 47.7758C149.169 43.5893 137.938 41.4883 126.352 41.4883C114.765 41.4883 102.855 41.9054 92.7978 46.0919C82.3547 50.4174 73.6109 58.636 65.7477 66.5147C57.869 74.3933 48.7236 82.7509 44.398 93.1786C40.2115 103.266 41.571 115.548 41.571 127.15C41.571 138.751 42.4206 150.09 46.6072 160.178C50.9327 170.621 59.7692 178.006 67.6169 185.884C75.4956 193.763 82.6173 203.156 93.0604 207.481C103.148 211.668 114.75 214.51 126.336 214.51C137.922 214.51 149.308 211.081 159.396 206.879C169.823 202.553 179.262 195.787 187.141 187.923C195.02 180.045 201.338 170.436 205.695 159.993C209.866 149.936 214.639 138.736 214.639 127.15C214.639 115.563 210.808 103.977 206.621 93.8892L206.652 93.8583ZM150.637 176.492L132.284 173.788L137.521 138.257L99.1007 167.856L87.7925 153.087L121.501 127.134L87.7925 101.165L99.1007 86.3967L137.521 115.996L132.284 80.48L150.637 77.7456L157.944 127.15L150.637 176.523V176.492Z" fill="#70C7BA"/>
</svg>
