<svg width="256" height="256" viewBox="0 0 256 256" fill="none" xmlns="http://www.w3.org/2000/svg">
<rect width="256" height="256" fill="white"/>
<path d="M128.021 191.371C163.028 191.371 191.406 162.993 191.406 127.986C191.406 92.9798 163.028 64.6016 128.021 64.6016C93.015 64.6016 64.6367 92.9798 64.6367 127.986C64.6367 162.993 93.015 191.371 128.021 191.371Z" fill="white"/>
<path d="M206.655 93.8583C202.33 83.4152 195.502 73.729 187.623 65.8658C179.775 57.9872 169.687 52.1013 159.229 47.7758C149.172 43.5893 137.941 41.4883 126.355 41.4883C114.768 41.4883 102.858 41.9054 92.8008 46.0919C82.3577 50.4174 73.614 58.636 65.7507 66.5147C57.8721 74.3933 48.7266 82.7509 44.4011 93.1786C40.2146 103.266 41.574 115.548 41.574 127.15C41.574 138.751 42.4237 150.09 46.6102 160.178C50.9357 170.621 59.7722 178.006 67.62 185.884C75.4987 193.763 82.6204 203.156 93.0635 207.481C103.151 211.668 114.753 214.51 126.339 214.51C137.926 214.51 149.311 211.081 159.399 206.879C169.826 202.553 179.265 195.787 187.144 187.923C195.023 180.045 201.341 170.436 205.698 159.993C209.869 149.936 214.642 138.736 214.642 127.15C214.642 115.563 210.811 103.977 206.624 93.8892L206.655 93.8583ZM150.64 176.492L132.287 173.788L137.524 138.257L99.1038 167.856L87.7956 153.087L121.504 127.134L87.7956 101.165L99.1038 86.3967L137.524 115.996L132.287 80.48L150.64 77.7456L157.947 127.15L150.64 176.523V176.492Z" fill="#70C7BA"/>
</svg>
