<svg width="256" height="256" viewBox="0 0 256 256" fill="none" xmlns="http://www.w3.org/2000/svg">
<g clip-path="url(#clip0_1881_6111)">
<rect width="256" height="256" fill="#1C2448"/>
<g clip-path="url(#clip1_1881_6111)">
<path d="M164.168 196.261L152.124 192.626V63.3762L164.168 59.741V196.261ZM67.7812 86.766L140.08 46.0449V209.884L67.7812 169.163V86.766ZM79.825 161.158L91.8688 167.217V88.7855L79.825 94.8441V161.158ZM188.255 75.3098L176.212 76.8152V179.187L188.255 180.693V75.3098Z" fill="url(#paint0_linear_1881_6111)" stroke="black" stroke-width="0.367188" stroke-miterlimit="10"/>
<path d="M152.127 205.221V209.921C152.127 216.604 146.729 221.965 140.083 221.965C137.99 221.965 136.007 221.414 134.171 220.423L61.8352 179.738C58.0531 177.609 55.7031 173.569 55.7031 169.237V86.7664C55.7031 82.4335 58.0531 78.3945 61.8352 76.2648L134.171 35.5437C139.973 32.2757 147.316 34.332 150.584 40.1335C151.576 41.9328 152.127 43.989 152.127 46.0453V50.7453L160.719 48.1749C167.108 46.2656 173.827 49.9007 175.737 56.2531C176.067 57.3914 176.251 58.5296 176.251 59.7046V64.5882L186.789 63.2664C193.398 62.4218 199.42 67.1585 200.228 73.7312C200.265 74.2453 200.302 74.7226 200.302 75.2367V180.619C200.302 187.302 194.904 192.663 188.258 192.663C187.744 192.663 187.266 192.627 186.752 192.59L176.214 191.268V196.152C176.214 202.834 170.816 208.195 164.17 208.195C162.995 208.195 161.82 208.012 160.719 207.681L152.127 205.221ZM152.127 192.627L164.17 196.262V59.7414L152.127 63.3765V192.627ZM176.214 76.8156V179.187L188.258 180.693V75.3101L176.214 76.8156ZM67.7836 86.7664V169.163L140.083 209.884V46.0453L67.7836 86.7664ZM79.8273 94.8445L91.8711 88.7859V167.217L79.8273 161.159V94.8445Z" fill="#1C2448"/>
</g>
</g>
<defs>
<linearGradient id="paint0_linear_1881_6111" x1="128.018" y1="46.0449" x2="128.018" y2="209.884" gradientUnits="userSpaceOnUse">
<stop stop-color="white"/>
<stop offset="1" stop-color="#8E92A8"/>
</linearGradient>
<clipPath id="clip0_1881_6111">
<rect width="256" height="256" fill="white"/>
</clipPath>
<clipPath id="clip1_1881_6111">
<rect width="188" height="188" fill="white" transform="translate(34 34)"/>
</clipPath>
</defs>
</svg>
