<svg width="256" height="256" viewBox="0 0 256 256" fill="none" xmlns="http://www.w3.org/2000/svg">
<g clip-path="url(#clip0_1414_759)">
<path d="M256 0H0V256H256V0Z" fill="#46509E"/>
<g clip-path="url(#clip1_1414_759)">
<path d="M128.002 230.317C187.097 230.317 235.003 184.134 235.003 127.164C235.003 70.1947 187.097 24.0117 128.002 24.0117C68.9067 24.0117 21.0006 70.1947 21.0006 127.164C21.0006 184.134 68.9067 230.317 128.002 230.317Z" fill="#46509E"/>
<path d="M128.002 159.663C157.284 159.663 181.022 138.619 181.022 112.659C181.022 86.7003 157.284 65.6562 128.002 65.6562C98.7205 65.6562 74.9828 86.7003 74.9828 112.659C74.9828 138.619 98.7205 159.663 128.002 159.663Z" fill="#37474F"/>
<path d="M181.022 216.788C172.696 221.588 153.092 231.393 126.418 230.996C108.346 230.7 90.6455 225.811 74.9804 216.788V113.645H181.022V216.788Z" fill="#37474F"/>
<path d="M170.491 114.341V222.378C157.065 228.091 142.626 231.036 128.037 231.036C113.448 231.036 99.0094 228.091 85.5839 222.378V114.341C85.5839 92.645 104.594 75.0586 128.039 75.0586C151.483 75.0586 170.491 92.645 170.491 114.341Z" fill="white"/>
<path d="M149.209 122.023L128.002 140.827L106.793 122.023H149.209Z" fill="#46509E"/>
<path d="M106.793 112.666C109.722 112.666 112.096 110.562 112.096 107.966C112.096 105.37 109.722 103.266 106.793 103.266C103.864 103.266 101.49 105.37 101.49 107.966C101.49 110.562 103.864 112.666 106.793 112.666Z" fill="#37474F"/>
<path d="M149.209 112.666C152.138 112.666 154.512 110.562 154.512 107.966C154.512 105.37 152.138 103.266 149.209 103.266C146.28 103.266 143.906 105.37 143.906 107.966C143.906 110.562 146.28 112.666 149.209 112.666Z" fill="#37474F"/>
<path d="M170.418 115.01C170.418 105.927 162.113 98.5584 151.859 98.5584C141.605 98.5584 133.303 105.918 133.303 115.01C133.301 117.473 133.917 119.897 135.095 122.06H120.907C122.085 119.897 122.701 117.473 122.699 115.01C122.699 105.927 114.397 98.5584 104.143 98.5584C93.8887 98.5584 85.5839 105.918 85.5839 115.01L74.9804 112.659C74.9804 86.7032 98.7242 65.6562 128.002 65.6562C157.28 65.6562 181.022 86.7032 181.022 112.659L170.418 115.01Z" fill="#37474F"/>
</g>
</g>
<defs>
<clipPath id="clip0_1414_759">
<rect width="256" height="256" fill="white"/>
</clipPath>
<clipPath id="clip1_1414_759">
<rect width="214" height="207" fill="white" transform="translate(21 24)"/>
</clipPath>
</defs>
</svg>
