<svg width="256" height="256" viewBox="0 0 256 256" fill="none" xmlns="http://www.w3.org/2000/svg">
<g clip-path="url(#clip0_1370_71)">
<path d="M256 0H0V256H256V0Z" fill="white"/>
<path fill-rule="evenodd" clip-rule="evenodd" d="M127.998 39.1531C96.7422 39.1531 59.0391 46.3242 28 62.1078C28 96.1968 27.5716 181.125 127.998 239.155C228.427 181.127 228 96.2 228 62.1078C196.959 46.3234 159.256 39.1531 127.998 39.1531Z" fill="#68BC71"/>
<path fill-rule="evenodd" clip-rule="evenodd" d="M128 39.1531V239.153C27.5719 181.126 28 96.1984 28 62.1062C59.0391 46.3218 96.7422 39.1515 127.998 39.1515L128 39.1531Z" fill="#67B279"/>
<path fill-rule="evenodd" clip-rule="evenodd" d="M127.117 167.725L185.142 90.8421C180.89 87.4917 177.16 89.8564 175.107 91.6871L175.032 91.693L126.651 141.171L108.423 119.606C99.7266 109.728 87.9041 117.262 85.1416 119.253L127.117 167.725Z" fill="white"/>
</g>
<defs>
<clipPath id="clip0_1370_71">
<rect width="256" height="256" fill="white"/>
</clipPath>
</defs>
</svg>
