<svg width="256" height="256" viewBox="0 0 256 256" fill="none" xmlns="http://www.w3.org/2000/svg">
<rect width="256" height="256" fill="#67BB70"/>
<path fill-rule="evenodd" clip-rule="evenodd" d="M107.474 191.387C113.614 191.399 116.418 193.231 116.307 196.927C116.195 200.661 113.434 202.424 107.651 202.434C87.9109 202.469 68.1708 202.503 48.4307 202.528C41.8412 202.536 40.1131 200.857 40.1118 194.433C40.1103 186.964 40.1126 179.495 40.115 172.026C40.1217 150.884 40.1284 129.743 40.047 108.601C40.0336 105.118 41.2018 102.751 43.8959 100.636C49.0017 96.6267 53.9945 92.4569 58.8052 88.1008C59.9862 87.0315 60.8204 85.0099 60.8909 83.386C61.0582 79.5302 61.0338 75.6664 61.0095 71.8021V71.8018C60.9976 69.9173 60.9857 68.0327 60.9961 66.1488C61.0199 61.8176 62.8877 59.4805 66.2864 59.4059C69.8059 59.3286 71.8691 61.7783 71.9461 66.254C71.9848 68.4999 71.9763 70.7466 71.9668 73.283C71.9622 74.4995 71.9574 75.7826 71.9574 77.1642C73.8308 75.6018 75.6314 74.1011 77.3823 72.6419L77.3853 72.6394C81.0956 69.5471 84.5824 66.6412 88.0639 63.7289C91.8819 60.5352 95.6977 57.339 99.5136 54.1428L99.5151 54.1415C106.423 48.355 113.331 42.5686 120.252 36.7974C123.733 33.8948 125.828 33.9599 129.171 36.7636C141.903 47.4409 154.64 58.1119 167.376 68.7829L167.379 68.7849C174.556 74.7979 181.733 80.8109 188.909 86.825C189.072 86.9617 189.236 87.0975 189.401 87.2334L189.402 87.2344C190.105 87.8159 190.809 88.3988 191.437 89.0531C193.669 91.3777 193.834 93.9455 191.914 96.4908C190.128 98.8603 186.753 99.234 184.228 97.1899C179.769 93.5792 175.374 89.8899 170.978 86.2007L170.978 86.2005C169.441 84.911 167.905 83.6215 166.366 82.3354C160.843 77.72 155.321 73.1036 149.798 68.4873C142 61.9683 134.202 55.4493 126.401 48.9331C126.096 48.6783 125.77 48.4487 125.347 48.1511C125.116 47.9886 124.856 47.8059 124.556 47.5877C123.029 48.8563 121.5 50.1239 119.971 51.3919L119.965 51.3964L119.964 51.397C116.633 54.1594 113.299 56.9234 109.978 59.7023C104.899 63.9521 99.8234 68.2058 94.7474 72.4596C81.3465 83.6897 67.9456 94.9199 54.4862 106.079C52.0503 108.099 51.0731 110.153 51.092 113.361C51.2014 131.933 51.1897 150.506 51.1779 169.079C51.1742 174.869 51.1706 180.659 51.1706 186.449L51.1706 191.387C69.9912 191.387 88.5544 191.387 107.474 191.387ZM186.246 213.803C185.181 214.498 184.142 215.195 183.116 215.883C180.5 217.637 177.967 219.336 175.306 220.803C174.098 221.469 171.885 221.578 170.74 220.906C141.847 203.947 122.684 180 117.813 146.069C117.387 143.102 117.239 140.096 117.092 137.089V137.089V137.089C116.957 134.356 116.823 131.623 116.48 128.918C115.966 124.867 117.796 123.262 121.205 121.83C133.038 116.859 145.323 113.666 158.024 112.217C181.602 109.528 204.298 113.069 226.072 122.512C227.936 123.321 229.495 124.046 229.489 126.703C229.443 148.943 224.733 169.794 211.725 188.281C204.755 198.187 196.188 206.492 186.246 213.803ZM193.659 196.853C211.489 179.187 219.393 157.507 219.709 132.713C219.737 130.569 218.883 129.633 217.017 128.891C187.843 117.285 158.66 117.272 129.421 128.638C127.222 129.492 126.131 130.543 126.175 133.223C126.736 167.514 142.095 193.337 170.809 211.506C171.903 212.198 174.337 212.102 175.373 211.332C180.478 207.539 185.423 203.529 190.608 199.325L190.608 199.325L190.61 199.323C191.616 198.507 192.632 197.684 193.659 196.853ZM191.154 149.849C190.038 150.917 188.911 151.995 187.766 153.085C181.922 158.644 176.27 164.019 170.479 169.525C169.253 168.183 168.072 166.874 166.917 165.594C164.38 162.782 161.969 160.109 159.471 157.518C155.474 153.37 149.63 153.401 145.5 157.602L170.788 184.796C172.179 183.074 173.567 181.358 174.951 179.646C185.172 167.001 195.193 154.605 205.206 142.203C205.405 141.956 205.555 141.67 205.723 141.348C205.808 141.186 205.898 141.014 206.001 140.834C203.206 138.783 201.214 140.376 199.374 142.076C196.628 144.613 193.926 147.198 191.154 149.849Z" fill="url(#paint0_linear_1349_694)"/>
<defs>
<linearGradient id="paint0_linear_1349_694" x1="134.768" y1="34.6406" x2="134.768" y2="221.36" gradientUnits="userSpaceOnUse">
<stop stop-color="#FBFDFB"/>
<stop offset="1" stop-color="#FBFDFB" stop-opacity="0.62"/>
</linearGradient>
</defs>
</svg>
