<svg width="256" height="256" viewBox="0 0 256 256" fill="none" xmlns="http://www.w3.org/2000/svg">
<rect width="256" height="256" fill="url(#paint0_radial_1_27)"/>
<g clip-path="url(#clip0_1_27)">
<path d="M121.32 211.489C72.1305 139.905 63 132.558 63 106.25C63 70.2133 92.1014 41 128 41C163.899 41 193 70.2133 193 106.25C193 132.558 183.87 139.905 134.68 211.489C131.452 216.17 124.548 216.17 121.32 211.489Z" fill="#F7931A"/>
<path d="M157.653 92.6061C156.701 82.5727 148.061 79.2161 137.158 78.2651L137.169 64.3441L128.724 64.3547L128.71 77.9089C126.49 77.907 124.224 77.9558 121.963 78.0035L121.979 64.3604L113.532 64.3664L113.521 78.2828C111.692 78.3201 109.893 78.3596 108.142 78.3576L108.141 78.3137L96.4875 78.3203L96.4815 87.3687C96.4815 87.3687 102.723 87.2442 102.619 87.3585C106.041 87.3579 107.151 89.3487 107.475 91.0709L107.465 106.928C107.7 106.928 108.006 106.939 108.359 106.983L107.465 106.986L107.447 129.201C107.294 130.279 106.66 132.001 104.266 132.009C104.378 132.103 98.1273 132.014 98.1273 132.014L96.4404 142.131L107.438 142.122C109.482 142.124 111.495 142.159 113.468 142.169L113.461 156.245L121.902 156.236L121.913 142.315C124.23 142.356 126.473 142.372 128.663 142.371L128.648 156.235L137.093 156.224L137.106 142.175C151.313 141.347 161.255 137.751 162.501 124.373C163.508 113.603 158.459 108.797 150.397 106.864C155.301 104.36 158.363 99.9506 157.653 92.6061V92.6061ZM145.806 122.718C145.808 133.239 127.842 132.055 122.115 132.066L122.135 113.413C127.865 113.412 145.819 111.747 145.806 122.718ZM141.899 96.405C141.891 105.978 126.911 104.869 122.145 104.873L122.158 87.962C126.923 87.9578 141.908 86.4199 141.899 96.405Z" fill="white"/>
</g>
<defs>
<radialGradient id="paint0_radial_1_27" cx="0" cy="0" r="1" gradientUnits="userSpaceOnUse" gradientTransform="translate(128 128) rotate(45) scale(181.019)">
<stop stop-color="#253758"/>
<stop offset="1" stop-color="#152136"/>
</radialGradient>
<clipPath id="clip0_1_27">
<rect width="130" height="174" fill="white" transform="translate(63 41)"/>
</clipPath>
</defs>
</svg>
