<svg width="256" height="256" viewBox="0 0 256 256" fill="none" xmlns="http://www.w3.org/2000/svg">
<g clip-path="url(#clip0_1345_737)">
<rect width="256" height="256" fill="#011072"/>
<g clip-path="url(#clip1_1345_737)">
<path fill-rule="evenodd" clip-rule="evenodd" d="M26.6328 26.6328C56.6418 26.6328 86.6478 26.6328 116.657 26.6328C65.9041 35.9105 35.8981 65.9195 26.6328 116.657C26.6328 86.6478 26.6328 56.6418 26.6328 26.6328Z" fill="#011072"/>
<path fill-rule="evenodd" clip-rule="evenodd" d="M137.148 26.6328C167.644 26.6328 198.137 26.6328 228.633 26.6328C228.633 56.8853 228.633 87.1348 228.633 117.387C221.917 74.6855 198.254 45.897 157.642 31.0251C150.596 55.7881 144.009 80.6713 137.881 105.678C152.994 104.716 168.118 103.986 183.256 103.48C185.367 103.258 187.321 103.502 189.112 104.214C160.727 144.678 132.185 185.053 103.48 225.341C107.842 226.771 112.234 227.868 116.657 228.633C86.6478 228.633 56.6418 228.633 26.6328 228.633C26.6328 197.893 26.6328 167.157 26.6328 136.417C31.9651 176.721 53.1897 205.143 90.3065 221.682C92.8802 222.823 95.5648 223.433 98.3574 223.51C104.272 199 110.616 174.604 117.387 150.321C115.923 150.078 114.459 149.834 112.995 149.591C97.069 150.947 81.2107 151.678 65.4232 151.786C94.0699 111.066 122.855 70.4443 151.786 29.9278C146.863 28.6548 141.984 27.5575 137.148 26.6328Z" fill="#021172"/>
<path fill-rule="evenodd" clip-rule="evenodd" d="M116.657 26.6328C123.487 26.6328 130.317 26.6328 137.148 26.6328C141.984 27.5575 146.863 28.6548 151.786 29.9278C122.855 70.4443 94.0699 111.066 65.4232 151.786C81.2107 151.678 97.069 150.947 112.995 149.591C114.459 149.834 115.923 150.078 117.387 150.321C110.616 174.604 104.272 199 98.3574 223.51C95.5648 223.433 92.8802 222.823 90.3065 221.682C53.1897 205.143 31.9651 176.721 26.6328 136.417C26.6328 129.83 26.6328 123.244 26.6328 116.657C35.8981 65.9195 65.9041 35.9105 116.657 26.6328Z" fill="#FDF8E5"/>
<path fill-rule="evenodd" clip-rule="evenodd" d="M228.633 117.388C228.633 123.731 228.633 130.074 228.633 136.418C220.262 188.308 190.253 219.044 138.612 228.633C131.295 228.633 123.975 228.633 116.657 228.633C112.234 227.869 107.842 226.771 103.48 225.341C132.186 185.053 160.728 144.678 189.112 104.214C189.51 104.171 189.753 103.927 189.843 103.48C187.543 102.528 185.346 102.528 183.256 103.48C168.119 103.986 152.994 104.716 137.882 105.678C144.009 80.6716 150.596 55.7884 157.642 31.0254C198.254 45.8974 221.917 74.6858 228.633 117.388Z" fill="#EECE05"/>
<path fill-rule="evenodd" clip-rule="evenodd" d="M183.254 103.48C185.344 102.528 187.541 102.528 189.841 103.48C189.751 103.927 189.508 104.17 189.11 104.214C187.319 103.502 185.365 103.258 183.254 103.48Z" fill="#484454"/>
<path fill-rule="evenodd" clip-rule="evenodd" d="M228.634 136.417C228.634 167.157 228.634 197.893 228.634 228.633C198.628 228.633 168.619 228.633 138.613 228.633C190.254 219.044 220.263 188.307 228.634 136.417Z" fill="#031071"/>
</g>
</g>
<defs>
<clipPath id="clip0_1345_737">
<rect width="256" height="256" fill="white"/>
</clipPath>
<clipPath id="clip1_1345_737">
<rect width="202" height="202" fill="white" transform="translate(27 27)"/>
</clipPath>
</defs>
</svg>
