<svg width="256" height="256" viewBox="0 0 256 256" fill="none" xmlns="http://www.w3.org/2000/svg">
<rect width="256" height="256" fill="url(#paint0_linear_1650_7604)"/>
<path fill-rule="evenodd" clip-rule="evenodd" d="M132.676 28.9332C132.281 26.6597 130.308 25 128 25C125.692 25 123.719 26.6597 123.324 28.9332L121.786 37.7769C121.349 40.2884 119.245 42.1686 116.718 42.4989C114.194 42.8286 111.721 41.5507 110.651 39.242L106.876 31.0984C105.906 29.0047 103.57 27.9123 101.341 28.5096C99.1124 29.1068 97.6359 31.2207 97.8424 33.5191L98.6442 42.4431C98.8723 44.9809 97.3382 47.3373 94.9846 48.3136C92.6296 49.2904 89.8938 48.7017 88.2596 46.7448L82.5162 39.8675C81.0371 38.0963 78.4983 37.6456 76.4998 38.7994C74.5014 39.9532 73.6223 42.3772 74.4167 44.5438L77.5087 52.9776C78.3846 55.3667 77.5209 58.0325 75.5032 59.583C73.4833 61.1352 70.6854 61.2783 68.6021 59.8123L61.2558 54.6426C59.3686 53.3146 56.7997 53.5363 55.1679 55.168C53.5362 56.7998 53.3145 59.3687 54.6425 61.2559L59.8122 68.6022C61.2782 70.6855 61.1351 73.4834 59.5829 75.5033C58.0324 77.521 55.3666 78.3847 52.9775 77.5088L44.5438 74.4168C42.3772 73.6225 39.9532 74.5015 38.7994 76.5C37.6456 78.4984 38.0963 81.0372 39.8675 82.5164L46.7447 88.2597C48.7017 89.8939 49.2903 92.6297 48.3135 94.9847C47.3372 97.3384 44.9808 98.8725 42.4429 98.6445L33.5191 97.8427C31.2207 97.6362 29.1069 99.1126 28.5096 101.342C27.9124 103.571 29.0048 105.906 31.0985 106.877L39.242 110.651C41.5507 111.721 42.8286 114.195 42.4988 116.718C42.1686 119.245 40.2885 121.349 37.777 121.786L28.9332 123.324C26.6597 123.719 25 125.692 25 128C25 130.308 26.6597 132.281 28.9332 132.676L37.7769 134.214C40.2884 134.651 42.1686 136.755 42.4989 139.282C42.8286 141.806 41.5507 144.279 39.242 145.349L31.0984 149.124C29.0047 150.094 27.9123 152.43 28.5096 154.659C29.1068 156.888 31.2207 158.364 33.5191 158.158L42.4431 157.356C44.9809 157.128 47.3373 158.662 48.3136 161.015C49.2904 163.37 48.7017 166.106 46.7448 167.74L39.8675 173.484C38.0963 174.963 37.6456 177.502 38.7994 179.5C39.9532 181.499 42.3772 182.378 44.5438 181.583L52.9776 178.491C55.3667 177.615 58.0325 178.479 59.583 180.497C61.1352 182.517 61.2783 185.315 59.8122 187.398L54.6426 194.744C53.3146 196.631 53.5363 199.2 55.168 200.832C56.7998 202.464 59.3687 202.686 61.2559 201.357L68.6022 196.188C70.6855 194.722 73.4834 194.865 75.5033 196.417C77.521 197.968 78.3847 200.633 77.5088 203.022L74.4168 211.456C73.6225 213.623 74.5015 216.047 76.5 217.201C78.4984 218.354 81.0372 217.904 82.5164 216.133L88.2597 209.255C89.8939 207.298 92.6297 206.71 94.9848 207.686C97.3384 208.663 98.8725 211.019 98.6445 213.557L97.8427 222.481C97.6362 224.779 99.1126 226.893 101.342 227.49C103.571 228.088 105.906 226.995 106.877 224.902L110.736 216.574C111.756 214.374 114.132 213.158 116.536 213.477L116.737 213.504C119.264 213.833 121.349 215.712 121.786 218.223L123.324 227.067C123.719 229.34 125.692 231 128 231C130.308 231 132.281 229.34 132.676 227.067L134.214 218.223C134.651 215.712 136.755 213.831 139.282 213.501C141.805 213.171 144.279 214.449 145.349 216.758L149.123 224.902C150.094 226.995 152.429 228.088 154.658 227.49C156.887 226.893 158.364 224.779 158.157 222.481L157.356 213.557C157.128 211.019 158.662 208.663 161.015 207.687C163.37 206.71 166.106 207.298 167.74 209.255L173.484 216.133C174.963 217.904 177.501 218.354 179.5 217.201C181.498 216.047 182.377 213.623 181.583 211.456L178.491 203.023C177.615 200.633 178.479 197.968 180.497 196.417C182.517 194.865 185.315 194.722 187.398 196.188L194.744 201.357C196.631 202.685 199.2 202.464 200.832 200.832C202.464 199.2 202.686 196.631 201.357 194.744L196.188 187.398C194.722 185.314 194.865 182.517 196.417 180.497C197.968 178.479 200.633 177.615 203.022 178.491L211.456 181.583C213.623 182.378 216.047 181.499 217.201 179.5C218.354 177.502 217.904 174.963 216.133 173.484L209.255 167.74C207.298 166.106 206.71 163.37 207.686 161.015C208.663 158.662 211.019 157.128 213.557 157.356L222.481 158.157C224.779 158.364 226.893 156.887 227.49 154.658C228.088 152.429 226.995 150.094 224.902 149.123L216.758 145.349C214.449 144.279 213.171 141.805 213.501 139.282C213.831 136.755 215.712 134.651 218.223 134.214L227.067 132.676C229.34 132.281 231 130.308 231 128C231 125.692 229.34 123.719 227.067 123.324L218.223 121.786C215.712 121.349 213.831 119.245 213.501 116.718C213.171 114.195 214.449 111.721 216.758 110.651L224.902 106.877C226.995 105.906 228.088 103.571 227.49 101.342C226.893 99.1126 224.779 97.6361 222.481 97.8426L213.557 98.6444C211.019 98.8725 208.663 97.3384 207.687 94.9848C206.71 92.6297 207.298 89.894 209.255 88.2597L216.133 82.5164C217.904 81.0372 218.354 78.4985 217.201 76.5C216.047 74.5016 213.623 73.6225 211.456 74.4169L203.023 77.5088C200.633 78.3848 197.968 77.521 196.417 75.5032C194.865 73.4833 194.722 70.6854 196.188 68.602L201.357 61.2558C202.685 59.3686 202.464 56.7997 200.832 55.1679C199.2 53.5362 196.631 53.3145 194.744 54.6425L187.398 59.8122C185.314 61.2782 182.517 61.1351 180.497 59.5829C178.479 58.0324 177.615 55.3666 178.491 52.9775L181.583 44.5438C182.378 42.3772 181.499 39.9532 179.5 38.7994C177.502 37.6456 174.963 38.0963 173.484 39.8675L167.74 46.7447C166.106 48.7017 163.37 49.2903 161.015 48.3135C158.662 47.3372 157.128 44.9808 157.356 42.4429L158.157 33.5191C158.364 31.2207 156.887 29.1069 154.658 28.5096C152.429 27.9124 150.094 29.0048 149.123 31.0985L145.349 39.242C144.279 41.5507 141.805 42.8286 139.282 42.4988C136.755 42.1686 134.651 40.2885 134.214 37.777L132.676 28.9332ZM204.037 128.538C204.037 170.829 169.752 205.114 127.461 205.114C85.169 205.114 50.8848 170.829 50.8848 128.538C50.8848 86.246 85.169 51.9618 127.461 51.9618C169.752 51.9618 204.037 86.246 204.037 128.538Z" fill="white" fill-opacity="0.4"/>
<path d="M141.298 132.979C140.603 131.467 139.309 130.24 137.417 129.299C140.267 128.587 141.897 126.638 142.308 123.453C142.466 122.3 142.38 121.249 142.05 120.299C141.719 119.349 141.168 118.519 140.394 117.808C139.621 117.098 138.742 116.49 137.76 115.984C136.778 115.478 135.625 115.009 134.3 114.577L135.794 108.109L131.842 107.197L130.39 113.485C129.706 113.327 128.658 113.103 127.247 112.813L128.711 106.474L124.758 105.562L123.265 112.029C122.696 111.916 121.865 111.733 120.77 111.48L115.335 110.198L114.363 114.407L117.212 115.065C118.512 115.365 119.139 116.123 119.093 117.338L117.392 124.703C117.564 124.743 117.698 124.783 117.797 124.824L117.386 124.729L115.005 135.046C114.666 135.887 114.07 136.209 113.214 136.012L110.366 135.354L109.237 139.975L113.618 141.052C113.944 141.127 114.413 141.24 115.027 141.39C115.641 141.541 116.102 141.652 116.41 141.723L114.899 148.267L118.852 149.18L120.345 142.712C121.06 142.896 122.101 143.145 123.47 143.461L121.983 149.903L125.935 150.815L127.446 144.271C128.865 144.526 130.139 144.686 131.269 144.748C132.399 144.81 133.507 144.755 134.592 144.582C135.677 144.409 136.622 144.1 137.427 143.655C138.233 143.211 138.96 142.576 139.611 141.753C140.26 140.93 140.785 139.925 141.185 138.737C141.957 136.411 141.994 134.491 141.298 132.979ZM126.258 117.45C126.378 117.478 126.716 117.551 127.275 117.671C127.833 117.791 128.297 117.889 128.666 117.965C129.036 118.042 129.528 118.178 130.141 118.373C130.753 118.569 131.263 118.759 131.671 118.943C132.079 119.127 132.518 119.377 132.985 119.692C133.453 120.007 133.808 120.342 134.051 120.695C134.294 121.048 134.472 121.468 134.584 121.954C134.698 122.439 134.689 122.965 134.559 123.529C134.448 124.008 134.271 124.427 134.026 124.785C133.782 125.143 133.474 125.419 133.105 125.613C132.736 125.808 132.366 125.966 131.995 126.087C131.625 126.209 131.173 126.271 130.641 126.274C130.109 126.278 129.647 126.27 129.255 126.252C128.862 126.233 128.381 126.172 127.81 126.067C127.24 125.962 126.808 125.881 126.515 125.822C126.222 125.763 125.825 125.671 125.322 125.546C124.819 125.421 124.525 125.349 124.439 125.329L126.258 117.45ZM133.015 137.419C132.761 137.775 132.473 138.069 132.149 138.301C131.825 138.532 131.428 138.711 130.958 138.836C130.487 138.962 130.039 139.048 129.614 139.094C129.189 139.141 128.687 139.15 128.107 139.125C127.527 139.099 127.023 139.059 126.593 139.005C126.164 138.951 125.656 138.87 125.068 138.761C124.481 138.652 124.024 138.56 123.699 138.485C123.374 138.41 122.964 138.311 122.47 138.188C121.976 138.065 121.66 137.988 121.523 137.956L123.526 129.281C123.663 129.313 124.071 129.398 124.751 129.537C125.431 129.676 125.985 129.795 126.412 129.894C126.84 129.993 127.425 130.154 128.166 130.38C128.907 130.604 129.522 130.827 130.012 131.049C130.501 131.27 131.025 131.557 131.583 131.912C132.141 132.266 132.573 132.64 132.878 133.035C133.184 133.43 133.409 133.896 133.555 134.435C133.702 134.973 133.704 135.55 133.561 136.166C133.451 136.646 133.269 137.063 133.015 137.419Z" fill="white"/>
<path fill-rule="evenodd" clip-rule="evenodd" d="M127.164 180.252C115.962 186.224 104.744 187.396 96.0345 182.367C87.3247 177.339 82.731 167.037 82.3018 154.35C71.5293 147.634 64.9057 138.506 64.9057 128.449C64.9057 118.392 71.5293 109.264 82.3019 102.548C82.7317 89.8619 87.3254 79.5621 96.0344 74.5339C104.744 69.5055 115.961 70.6776 127.164 76.6494C138.365 70.6781 149.583 69.5063 158.292 74.5346C167.001 79.5627 171.594 89.8623 172.024 102.548C182.797 109.264 189.42 118.392 189.42 128.449C189.42 138.506 182.797 147.634 172.024 154.349C171.595 167.037 167.001 177.338 158.292 182.367C149.582 187.395 138.365 186.223 127.164 180.252ZM169.967 155.574C163.614 159.184 155.994 161.999 147.549 163.755C141.806 170.192 135.557 175.385 129.253 179.082C139.701 184.336 149.686 185.026 157.292 180.635C164.898 176.243 169.293 167.25 169.967 155.574ZM127.164 177.974C132.986 174.725 138.817 170.125 144.261 164.377C138.828 165.306 133.093 165.803 127.163 165.803C121.234 165.803 115.498 165.306 110.066 164.377C115.51 170.125 121.341 174.725 127.164 177.974ZM106.778 163.755C112.521 170.192 118.77 175.385 125.074 179.082C114.626 184.337 104.641 185.027 97.0345 180.635C89.4281 176.244 85.0328 167.25 84.3596 155.574C90.7123 159.184 98.3324 162 106.778 163.755ZM104.595 161.218C96.8962 159.378 89.9988 156.628 84.2748 153.211C84.1773 146.545 85.2449 139.197 87.5003 131.609C89.412 136.778 91.8489 141.993 94.8132 147.127C97.7772 152.261 101.075 156.979 104.595 161.218ZM107.832 161.929C103.752 157.288 99.9306 151.991 96.5453 146.127C93.1596 140.263 90.4825 134.305 88.5037 128.451C90.4825 122.597 93.1596 116.638 96.5453 110.774C99.9317 104.908 103.754 99.6098 107.835 94.9684C113.894 93.7553 120.392 93.0946 127.163 93.0946C133.934 93.0946 140.432 93.7554 146.491 94.9686C150.572 99.6098 154.395 104.908 157.781 110.773C161.167 116.638 163.844 122.596 165.823 128.451C163.844 134.305 161.167 140.264 157.781 146.128C154.396 151.991 150.575 157.288 146.495 161.929C140.435 163.142 133.935 163.803 127.163 163.803C120.391 163.803 113.892 163.142 107.832 161.929ZM166.826 131.609C164.914 136.778 162.477 141.994 159.513 147.128C156.549 152.262 153.252 156.979 149.732 161.218C157.43 159.377 164.328 156.628 170.051 153.21C170.149 146.545 169.081 139.197 166.826 131.609ZM172.056 151.955C172.006 144.648 170.634 136.642 167.931 128.451C170.634 120.258 172.006 112.25 172.056 104.943C181.83 111.364 187.42 119.666 187.42 128.449C187.42 137.231 181.83 145.534 172.056 151.955ZM166.826 125.292C164.914 120.123 162.477 114.908 159.513 109.773C156.548 104.638 153.249 99.9193 149.729 95.679C157.428 97.5196 164.327 100.27 170.051 103.688C170.149 110.354 169.082 117.703 166.826 125.292ZM147.546 93.1425C155.992 94.8977 163.613 97.7132 169.966 101.324C169.292 89.6496 164.897 80.6577 157.292 76.2666C149.686 71.8754 139.701 72.5652 129.253 77.8191C135.556 81.5156 141.803 86.7068 147.546 93.1425ZM125.074 77.8191C114.626 72.5646 104.64 71.8746 97.0344 76.2659C89.4288 80.657 85.0336 89.6492 84.3597 101.323C90.7133 97.7129 98.3346 94.8974 106.781 93.1423C112.524 86.7066 118.772 81.5154 125.074 77.8191ZM82.27 104.943C72.4959 111.364 66.9057 119.666 66.9057 128.449C66.9057 137.232 72.496 145.534 82.2701 151.955C82.3203 144.649 83.6924 136.642 86.3951 128.451C83.692 120.258 82.3199 112.25 82.27 104.943ZM87.5003 125.292C85.2445 117.703 84.1769 110.354 84.2748 103.687C89.9996 100.269 96.8982 97.5193 104.598 95.6787C101.077 99.9193 97.7782 104.638 94.8133 109.774C91.849 114.908 89.412 120.123 87.5003 125.292ZM127.164 78.9275C132.985 82.1758 138.815 86.7739 144.258 92.5204C138.826 91.5918 133.091 91.0946 127.163 91.0946C121.235 91.0946 115.501 91.5917 110.069 92.5202C115.513 86.7737 121.342 82.1756 127.164 78.9275Z" fill="white"/>
<defs>
<linearGradient id="paint0_linear_1650_7604" x1="77" y1="-4.65635e-09" x2="74.5" y2="256" gradientUnits="userSpaceOnUse">
<stop stop-color="#91DBFB"/>
<stop offset="1" stop-color="#316DE4"/>
</linearGradient>
</defs>
</svg>
