<svg width="256" height="256" viewBox="0 0 256 256" fill="none" xmlns="http://www.w3.org/2000/svg">
<rect width="256" height="256" fill="url(#paint0_linear_1837_7627)"/>
<path d="M98.3516 106.113C97.9482 102.045 96.2169 98.8852 93.1577 96.6328C90.0985 94.3804 85.9467 93.2543 80.7024 93.2543C77.139 93.2543 74.1302 93.7585 71.6761 94.767C69.2221 95.742 67.3395 97.1035 66.0284 98.8516C64.7509 100.6 64.1122 102.583 64.1122 104.802C64.045 106.651 64.4316 108.264 65.272 109.643C66.1461 111.021 67.3395 112.214 68.8523 113.223C70.3651 114.198 72.1132 115.055 74.0966 115.795C76.08 116.501 78.1979 117.106 80.4503 117.61L89.7287 119.829C94.2334 120.837 98.3684 122.182 102.134 123.863C105.899 125.544 109.16 127.611 111.916 130.065C114.673 132.519 116.808 135.411 118.32 138.739C119.867 142.067 120.657 145.882 120.69 150.185C120.657 156.505 119.043 161.985 115.849 166.624C112.689 171.23 108.117 174.81 102.134 177.365C96.1832 179.886 89.0059 181.147 80.6016 181.147C72.2644 181.147 65.0031 179.87 58.8175 177.315C52.6655 174.76 47.8582 170.978 44.3956 165.969C40.9666 160.926 39.1681 154.69 39 147.261H60.1286C60.3639 150.723 61.3556 153.614 63.1037 155.934C64.8854 158.22 67.2554 159.951 70.2138 161.128C73.2057 162.271 76.5843 162.842 80.3494 162.842C84.0473 162.842 87.2578 162.304 89.9808 161.229C92.7375 160.153 94.8722 158.657 96.3849 156.741C97.8977 154.825 98.6541 152.623 98.6541 150.135C98.6541 147.815 97.965 145.866 96.5866 144.286C95.242 142.705 93.2585 141.361 90.6364 140.251C88.0478 139.142 84.871 138.134 81.1058 137.226L69.8608 134.402C61.1539 132.284 54.2791 128.973 49.2365 124.468C44.1939 119.963 41.6894 113.895 41.723 106.264C41.6894 100.011 43.3535 94.5485 46.7152 89.8757C50.1106 85.2029 54.7666 81.5554 60.6832 78.9332C66.5999 76.3111 73.3234 75 80.8537 75C88.5185 75 95.2083 76.3111 100.923 78.9332C106.672 81.5554 111.143 85.2029 114.337 89.8757C117.53 94.5485 119.178 99.9609 119.278 106.113H98.3516Z" fill="white"/>
<path d="M134.809 179.685V76.4119H175.553C183.353 76.4119 190.009 77.8071 195.522 80.5973C201.069 83.3539 205.288 87.2704 208.179 92.3466C211.104 97.3892 212.566 103.323 212.566 110.147C212.566 117.005 211.087 122.905 208.129 127.847C205.17 132.755 200.884 136.52 195.27 139.142C189.689 141.764 182.932 143.075 174.999 143.075H147.718V125.527H171.469C175.637 125.527 179.1 124.955 181.857 123.812C184.613 122.67 186.664 120.955 188.009 118.669C189.387 116.383 190.076 113.542 190.076 110.147C190.076 106.718 189.387 103.827 188.009 101.474C186.664 99.1205 184.596 97.3388 181.806 96.1286C179.049 94.8847 175.57 94.2628 171.368 94.2628H156.643V179.685H134.809ZM190.58 132.688L216.247 179.685H192.143L167.031 132.688H190.58Z" fill="white"/>
<defs>
<linearGradient id="paint0_linear_1837_7627" x1="128" y1="256" x2="128" y2="9.15527e-07" gradientUnits="userSpaceOnUse">
<stop stop-color="#198754"/>
<stop offset="1" stop-color="#3BC593"/>
</linearGradient>
</defs>
</svg>
