<svg width="256" height="256" viewBox="0 0 256 256" fill="none" xmlns="http://www.w3.org/2000/svg">
<g clip-path="url(#clip0_1765_2611)">
<rect width="256" height="256" fill="black"/>
<g clip-path="url(#clip1_1765_2611)">
<path d="M-3.96163 167.487C-3.96163 111.545 -3.97343 55.603 -3.88626 -0.338731C-3.88429 -1.59856 -5.55347 -4.46126 -1.36392 -3.47159C-0.14453 8.36411 -0.242213 19.8321 1.43198 31.0353C4.33136 50.4371 8.32862 69.6749 11.8241 89.4368C11.7257 109.959 11.6178 130.026 11.6461 150.092C11.6535 155.329 13.7048 157.226 18.9222 157.352C24.7973 157.494 30.6747 157.536 36.6099 157.975C39.3355 164.67 41.4299 171.332 44.7694 177.297C58.3005 201.466 72.9123 224.93 91.3659 245.787C95.9186 250.933 99.872 256.609 104.101 262.042C86.7614 262.042 69.422 262.042 51.5423 261.671C50.1876 259.605 49.6363 257.709 48.5198 256.245C28.5248 230.014 12.5397 201.467 -0.818315 171.379C-1.47196 169.907 -2.89622 168.776 -3.96163 167.487Z" fill="#343842"/>
<path d="M104.588 262.04C99.8721 256.608 95.9187 250.932 91.366 245.786C72.9124 224.929 58.3007 201.465 44.7695 177.296C41.43 171.331 39.3356 164.669 37.0898 157.879C53.8165 157.493 70.1221 157.557 86.4374 158.003C88.3623 164.565 90.2524 170.752 92.2351 176.91C92.4168 177.474 93.2076 177.83 93.6871 178.311C97.1634 181.8 101.195 184.896 104.012 188.856C122.369 214.655 143.688 237.566 168.843 256.868C170.698 258.292 172.104 260.303 173.718 262.04C150.837 262.04 127.956 262.04 104.588 262.04Z" fill="#393D46"/>
<path d="M262.038 221.517C262.038 234.912 262.038 248.308 262.038 262.04C257.175 262.04 252.305 262.04 246.78 261.727C244.282 260.219 242.569 258.712 240.574 257.876C210.092 245.095 183.092 227.081 159.714 203.757C152.886 196.945 146.777 189.412 140.326 182.22C138.559 180.249 136.719 178.342 134.967 176.358C133.301 174.473 131.706 172.526 130.078 170.604C130.078 170.604 130.074 170.6 130.021 170.232C127.922 165.781 125.877 161.698 124.312 157.523C140.751 157.491 156.709 157.552 172.694 157.969C174.174 160.594 175.613 162.871 177.081 165.128C178.555 167.395 180.088 169.623 181.503 171.925C181.652 172.166 181.182 172.788 180.926 173.412C179.81 172.83 178.824 172.315 177.279 171.509C177.279 173.935 177.279 175.835 177.279 177.868C178.39 177.868 179.415 178.156 179.687 177.825C183.722 172.913 185.485 174.321 190.134 178.661C203.882 191.499 219.11 202.785 236.31 210.859C244.704 214.799 253.451 217.988 262.038 221.517Z" fill="#41454E"/>
<path d="M130.081 170.604C131.707 172.524 133.302 174.471 134.968 176.356C136.72 178.34 138.559 180.247 140.327 182.218C146.778 189.41 152.887 196.943 159.715 203.756C183.093 227.08 210.093 245.093 240.575 257.874C242.569 258.71 244.283 260.217 246.29 261.726C222.533 262.039 198.613 262.039 174.206 262.039C172.104 260.301 170.699 258.29 168.844 256.866C143.689 237.565 122.37 214.653 104.013 188.854C101.196 184.895 97.164 181.799 93.6878 178.31C93.2082 177.829 92.4174 177.472 92.2357 176.908C90.253 170.751 88.3629 164.564 86.918 157.908C99.5366 157.492 111.685 157.553 123.833 157.614C125.878 161.696 127.923 165.779 129.857 170.299C129.548 170.963 129.35 171.189 129.151 171.415C129.292 171.429 129.514 171.506 129.559 171.447C129.761 171.188 129.911 170.889 130.081 170.604Z" fill="#3C414A"/>
<path d="M262.041 221.027C253.454 217.985 244.707 214.797 236.313 210.856C219.113 202.782 203.884 191.496 190.136 178.659C185.488 174.318 183.724 172.911 179.69 177.822C179.418 178.153 178.393 177.866 177.281 177.866C177.281 175.833 177.281 173.932 177.281 171.506C178.827 172.313 179.813 172.827 180.929 173.41C181.185 172.785 181.654 172.164 181.506 171.922C180.09 169.621 178.557 167.392 177.084 165.126C175.615 162.868 174.176 160.591 173.178 157.875C195.184 157.405 216.737 157.459 238.288 157.261C240.84 157.237 243.379 155.838 246.147 155.43C251.594 158.99 256.818 162.197 262.041 165.405C262.041 183.783 262.041 202.162 262.041 221.027Z" fill="#454951"/>
<path d="M11.866 88.979C8.32926 69.6724 4.332 50.4347 1.43261 31.0328C-0.241575 19.8296 -0.143892 8.36165 -0.84375 -3.47406C10.6076 -3.96096 22.059 -3.96096 33.9974 -3.47889C34.835 2.83905 34.9069 8.70795 35.5937 14.504C37.0886 27.1215 38.6467 39.7419 40.6525 52.2854C42.4166 63.3168 44.8251 74.2451 46.4661 85.2837C37.4324 85.3622 28.8653 85.0815 20.3401 85.5542C17.4609 85.7138 14.6877 87.7827 11.866 88.979Z" fill="#383C46"/>
<path d="M46.9491 85.2179C44.8252 74.244 42.4166 63.3157 40.6526 52.2842C38.6467 39.7407 37.0887 27.1204 35.5937 14.5029C34.907 8.70682 34.8351 2.83792 34.4844 -3.48002C44.8967 -3.96209 55.309 -3.96209 66.2087 -3.49719C67.0473 1.61784 67.1579 6.30119 67.7942 10.912C69.8701 25.9545 71.8273 41.0247 74.4415 55.9774C76.1623 65.8195 78.9361 75.4773 80.7553 85.2821C69.1646 85.3037 58.0568 85.2608 46.9491 85.2179Z" fill="#3C4049"/>
<path d="M171.641 -3.96094C181.014 -3.96094 190.387 -3.96094 200.273 -3.52108C201.081 -1.03512 201.485 1.00203 201.653 3.05848C203.464 25.2632 210.61 45.7503 221.668 64.9454C225.614 71.7944 229.868 78.4658 233.498 85.2811C221.561 85.3022 210.107 85.2604 198.595 84.8556C197.834 82.9289 197.095 81.3798 196.432 79.7992C191.503 68.0514 185.432 56.6279 181.959 44.4633C177.438 28.6306 174.984 12.2079 171.641 -3.96094Z" fill="#4B5058"/>
<path d="M81.238 85.2177C78.9357 75.4774 76.1619 65.8195 74.4412 55.9775C71.827 41.0248 69.8697 25.9545 67.7939 10.912C67.1576 6.30122 67.047 1.61787 66.6953 -3.49716C75.7219 -3.96206 84.7488 -3.96206 94.3601 -3.54133C95.2174 -1.24289 95.6232 0.62639 95.743 2.51382C97.0369 22.9071 100.048 43.0114 105.539 62.7262C107.616 70.1859 109.435 77.7175 110.889 85.2808C100.683 85.3028 90.9607 85.2602 81.238 85.2177Z" fill="#40444D"/>
<path d="M117.609 -3.96094C126.636 -3.96094 135.663 -3.96094 145.177 -3.4813C146.647 20.1203 151.186 42.5341 159.03 64.2956C161.539 71.2558 163.974 78.2426 165.959 85.2808C155.754 85.3023 146.032 85.2602 136.214 84.8464C133.725 77.0751 131.15 69.7284 128.973 62.2656C122.662 40.632 118.267 18.6514 117.609 -3.96094Z" fill="#454A52"/>
<path d="M166.443 85.2172C163.974 78.2426 161.539 71.2558 159.03 64.2956C151.186 42.5341 146.647 20.1203 145.664 -3.4813C153.998 -3.96094 162.333 -3.96094 171.154 -3.96094C174.984 12.2079 177.438 28.6306 181.959 44.4633C185.432 56.6279 191.503 68.0514 196.432 79.7992C197.095 81.3798 197.834 82.9289 198.112 84.9184C187.272 85.3019 176.857 85.2595 166.443 85.2172Z" fill="#484C55"/>
<path d="M-3.96094 167.973C-2.89552 168.775 -1.47126 169.905 -0.817619 171.378C12.5404 201.466 28.5255 230.013 48.5205 256.244C49.637 257.708 50.1883 259.604 51.056 261.67C32.8086 262.04 14.5077 262.04 -3.96093 262.04C-3.96093 230.847 -3.96093 199.653 -3.96094 167.973Z" fill="#2F343E"/>
<path d="M220.477 -3.96094C234.28 -3.96094 248.084 -3.96094 262.039 -3.96094C262.039 23.7689 262.039 51.4991 261.704 79.6043C260.234 79.2087 258.945 78.5937 257.988 77.6444C235.289 55.1366 223.513 27.5929 220.477 -3.96094Z" fill="#51555D"/>
<path d="M219.991 -3.96094C223.514 27.5929 235.291 55.1366 257.989 77.6444C258.946 78.5937 260.235 79.2087 261.705 80.0913C262.041 89.9227 262.041 99.6424 261.672 109.795C256.738 107.499 252.171 104.77 247.528 101.569C247.772 84.1397 245.112 85.4207 233.983 85.2182C229.869 78.4658 225.615 71.7944 221.67 64.9454C210.611 45.7503 203.465 25.2632 201.654 3.05848C201.487 1.00203 201.082 -1.03512 200.762 -3.52108C206.992 -3.96094 213.249 -3.96094 219.991 -3.96094Z" fill="#4E525A"/>
<path d="M117.123 -3.96094C118.267 18.6514 122.662 40.632 128.973 62.2656C131.15 69.7284 133.726 77.0751 135.731 84.9105C127.353 85.3033 119.363 85.2603 111.373 85.2174C109.436 77.7186 107.617 70.187 105.539 62.7274C100.049 43.0125 97.0375 22.9083 95.7436 2.51494C95.6238 0.627512 95.218 -1.24177 94.8477 -3.54021C102.045 -3.96094 109.341 -3.96094 117.123 -3.96094Z" fill="#42474F"/>
<path d="M247.604 102.039C252.17 104.768 256.737 107.497 261.671 110.28C262.04 125.595 262.04 140.856 261.656 156.559C256.694 154.958 252.117 152.916 247.486 150.387C247.49 133.947 247.547 117.993 247.604 102.039Z" fill="#4B4F58"/>
<path d="M247.538 150.875C252.116 152.917 256.693 154.96 261.654 157.048C262.038 159.556 262.038 162.019 262.038 164.944C256.815 162.198 251.592 158.991 246.258 155.125C246.611 153.269 247.075 152.072 247.538 150.875Z" fill="#42545C"/>
<path d="M247.484 150.392C247.074 152.075 246.61 153.272 246.033 154.775C243.375 155.842 240.836 157.241 238.285 157.264C216.734 157.462 195.18 157.409 173.147 157.523C156.708 157.553 140.75 157.492 124.312 157.524C111.683 157.556 99.535 157.495 86.9068 157.528C70.1212 157.558 53.8155 157.494 37.0301 157.526C30.6739 157.536 24.7964 157.494 18.9214 157.352C13.704 157.225 11.6526 155.329 11.6452 150.092C11.6169 130.025 11.7249 109.959 11.8233 89.4367C14.6862 87.785 17.4594 85.7162 20.3386 85.5565C28.8638 85.0838 37.4309 85.3646 46.4646 85.286C58.0553 85.2642 69.163 85.3071 80.7538 85.2856C90.9595 85.2637 100.682 85.3062 110.888 85.2842C119.361 85.2626 127.352 85.3056 135.825 85.2844C146.03 85.2625 155.753 85.3046 165.958 85.2831C176.856 85.2618 187.27 85.3042 198.168 85.2837C210.105 85.2627 221.559 85.3045 233.497 85.2834C245.109 85.423 247.769 84.1421 247.525 101.571C247.545 117.998 247.488 133.952 247.484 150.392ZM106.857 108.064C106.269 106.262 105.996 104.255 105 102.717C104.125 101.367 102.44 100.541 101.113 99.4833C100.296 100.924 98.7945 102.353 98.77 103.807C98.5755 115.386 98.5634 126.971 98.7764 138.549C98.805 140.107 100.176 142.739 101.312 142.969C104.507 143.617 104.616 140.932 104.601 138.554C104.576 134.282 104.594 130.009 104.594 125.737C105.085 125.709 105.577 125.682 106.068 125.655C107.47 130.041 108.68 134.504 110.371 138.776C111.029 140.437 112.774 141.667 114.024 143.094C115.249 141.628 116.963 140.349 117.607 138.661C119.518 133.651 121.008 128.48 122.663 123.371C123.682 129.148 123.546 134.663 123.802 140.161C123.85 141.199 125.452 142.165 126.338 143.165C127.31 142.241 129.115 141.329 129.129 140.391C129.316 127.775 129.304 115.154 129.157 102.537C129.146 101.521 127.83 99.7334 127.047 99.6922C125.79 99.6262 124.162 100.435 123.271 101.407C122.42 102.337 122.304 103.943 121.873 105.255C119.38 112.841 116.889 120.429 113.961 129.346C111.373 121.567 109.255 115.199 106.857 108.064ZM74.2973 143.046C74.8989 141.442 75.9169 139.865 76.0199 138.23C76.2721 134.222 76.1023 130.188 76.1023 126.164C76.6486 126.006 77.195 125.848 77.7413 125.69C78.5688 126.933 79.6337 128.08 80.1782 129.437C81.653 133.11 82.7119 136.962 84.3649 140.545C84.8734 141.647 86.7661 142.111 88.0249 142.867C88.68 141.41 90.1149 139.783 89.8413 138.529C89.0758 135.02 87.3465 131.726 86.523 128.224C86.1299 126.552 86.3837 124.257 87.2804 122.835C91.1683 116.667 90.9806 110.271 88.1236 104.107C85.2621 97.933 79.1083 99.2891 73.9198 99.621C72.5018 99.7117 70.1163 102.173 70.0789 103.597C69.7664 115.501 69.7885 127.419 70.0522 139.325C70.0813 140.639 72.2603 141.905 74.2973 143.046ZM190.543 100.531C184.245 98.4288 181.908 99.0318 181.243 103.386C179.421 115.307 177.757 127.254 176.24 139.218C176.107 140.268 177.516 141.514 178.209 142.669C179.478 141.901 181.291 141.422 181.891 140.297C182.809 138.576 182.89 136.409 183.279 134.647C187.912 133.22 190.121 134.431 190.496 139.181C190.599 140.494 192.782 141.643 194.01 142.867C194.779 141.271 196.373 139.571 196.187 138.095C194.642 125.792 192.769 113.531 190.543 100.531ZM231.245 101.078C223.393 97.5974 216.875 100.189 216.415 107.662C215.853 116.798 216.037 126.011 216.459 135.164C216.657 139.458 219.459 142.512 224.052 143.137C228.22 143.703 232.615 142.506 233.417 138.429C235.747 126.597 236.755 114.585 232.845 102.769C232.694 102.314 232.195 101.973 231.245 101.078ZM63.3464 131.274C63.3669 123.841 63.6221 116.399 63.3348 108.978C63.0975 102.849 59.4208 99.4616 53.8992 99.4489C48.3371 99.4361 44.7497 102.816 44.5927 109.015C44.3784 117.478 44.3833 125.963 44.7491 134.419C45.0321 140.96 50.7054 144.686 56.7857 142.789C61.9765 141.169 63.21 137.015 63.3464 131.274ZM151.034 116.193C151.213 122.405 150.993 128.663 151.69 134.817C152.301 140.207 156.869 143.517 161.831 143.216C166.333 142.942 170.08 138.884 170.275 133.586C170.317 132.462 168.941 130.321 168.264 130.339C166.933 130.375 165.523 131.455 164.35 132.366C162.949 133.455 161.761 134.82 160.481 136.065C159.383 134.489 157.43 132.963 157.337 131.33C156.965 124.777 156.926 118.177 157.32 111.628C157.427 109.837 159.473 108.163 160.63 106.435C161.868 107.778 162.968 109.298 164.387 110.41C165.555 111.326 167.108 112.221 168.477 112.202C169.116 112.193 170.318 109.959 170.243 108.8C169.887 103.281 166.36 99.6474 161.624 99.4568C156.496 99.2504 152.602 102.438 151.574 107.986C151.137 110.344 151.199 112.794 151.034 116.193ZM29.7599 138.302C29.7599 134.051 29.7599 129.8 29.7599 125.907C30.8592 125.417 31.1535 125.188 31.4647 125.162C33.825 124.965 36.4784 125.409 36.58 121.689C36.6679 118.474 34.7242 118.229 32.2689 117.907C31.357 117.788 30.0353 116.332 29.9287 115.371C29.6151 112.545 29.8169 109.661 29.8169 106.54C31.919 106.434 33.2654 106.291 34.6087 106.316C36.8467 106.359 38.6631 106.266 38.7289 103.173C38.7947 100.078 37.3408 99.2707 34.6288 99.3849C32.2168 99.4866 29.7905 99.5238 27.3828 99.3811C24.3766 99.2031 23.5396 100.649 23.5589 103.426C23.6418 115.334 23.5024 127.244 23.715 139.149C23.7392 140.506 25.4664 141.833 26.4039 143.174C27.5211 141.848 28.6382 140.521 29.7599 138.302ZM209.315 134.52C209.315 124.353 209.306 114.185 209.321 104.018C209.324 101.74 209.536 98.8629 206.292 99.4767C205.009 99.7194 203.37 102.513 203.332 104.178C203.072 115.546 203.19 126.922 203.2 138.295C203.202 140.522 202.822 143.069 206.181 143.216C209.641 143.368 209.335 140.855 209.315 138.585C209.306 137.551 209.315 136.517 209.315 134.52ZM143.524 107.908C143.524 106.874 143.546 105.84 143.519 104.807C143.458 102.481 144.188 99.52 140.551 99.3672C136.33 99.19 137.362 102.535 137.349 104.913C137.291 116.113 137.325 127.313 137.323 138.512C137.323 140.746 136.891 143.293 140.393 143.171C143.657 143.058 143.538 140.697 143.533 138.366C143.509 128.545 143.524 118.723 143.524 107.908Z" fill="#09D6D3"/>
<path d="M130.078 170.602C129.91 170.888 129.76 171.187 129.558 171.446C129.513 171.506 129.291 171.428 129.15 171.414C129.349 171.188 129.547 170.962 129.91 170.667C130.074 170.598 130.078 170.602 130.078 170.602Z" fill="#41454E"/>
<path d="M106.999 108.449C109.257 115.201 111.376 121.568 113.964 129.347C116.892 120.43 119.383 112.842 121.876 105.256C122.307 103.944 122.422 102.338 123.274 101.408C124.164 100.437 125.793 99.6273 127.049 99.6933C127.832 99.7345 129.148 101.522 129.16 102.538C129.306 115.156 129.319 127.776 129.132 140.392C129.118 141.33 127.313 142.242 126.34 143.166C125.455 142.167 123.853 141.2 123.804 140.162C123.549 134.664 123.685 129.149 122.665 123.372C121.011 128.481 119.521 133.652 117.61 138.662C116.966 140.35 115.252 141.629 114.026 143.095C112.777 141.668 111.032 140.438 110.374 138.777C108.682 134.505 107.473 130.042 106.071 125.656C105.579 125.683 105.088 125.711 104.597 125.738C104.597 130.01 104.578 134.283 104.604 138.555C104.618 140.933 104.509 143.618 101.315 142.97C100.179 142.74 98.8077 140.108 98.7791 138.55C98.5661 126.972 98.5781 115.387 98.7727 103.808C98.7972 102.354 100.298 100.925 101.115 99.4844C102.443 100.542 104.128 101.368 105.003 102.718C105.999 104.256 106.272 106.263 106.999 108.449Z" fill="#252E37"/>
<path d="M73.8719 143.114C72.2624 141.9 70.0834 140.634 70.0543 139.32C69.7906 127.414 69.7685 115.496 70.081 103.592C70.1184 102.168 72.5039 99.7067 73.9219 99.616C79.1104 99.284 85.2642 97.9279 88.1257 104.102C90.9827 110.266 91.1704 116.662 87.2825 122.83C86.3858 124.252 86.132 126.547 86.5251 128.219C87.3486 131.721 89.0779 135.015 89.8434 138.524C90.117 139.778 88.6821 141.405 88.027 142.862C86.7682 142.106 84.8755 141.642 84.367 140.54C82.714 136.957 81.6551 133.105 80.1803 129.432C79.6358 128.075 78.5709 126.928 77.7434 125.685C77.1971 125.843 76.6507 126.001 76.1044 126.159C76.1044 130.183 76.2742 134.217 76.022 138.225C75.919 139.86 74.901 141.437 73.8719 143.114ZM81.2313 118.624C85.2292 115.769 84.8627 111.687 83.123 108.187C82.3873 106.706 79.0688 106.51 76.088 105.425C76.088 109.584 76.3089 112.322 76.0334 115.009C75.6693 118.561 77.5161 119.1 81.2313 118.624Z" fill="#24313A"/>
<path d="M190.77 100.889C192.77 113.526 194.643 125.787 196.188 138.09C196.373 139.566 194.78 141.266 194.011 142.863C192.783 141.638 190.6 140.489 190.496 139.176C190.122 134.426 187.913 133.216 183.28 134.642C182.891 136.404 182.81 138.571 181.892 140.292C181.292 141.417 179.479 141.896 178.21 142.665C177.517 141.51 176.108 140.264 176.241 139.213C177.758 127.249 179.422 115.302 181.244 103.381C181.909 99.0271 184.246 98.4242 190.77 100.889ZM187.706 120.935C187.368 119.558 187.029 118.181 186.541 116.192C183.151 124.614 183.546 126.791 188.2 126.318C188.091 124.817 187.981 123.301 187.706 120.935Z" fill="#24303A"/>
<path d="M231.553 101.327C232.197 101.972 232.695 102.312 232.846 102.768C236.757 114.584 235.748 126.596 233.419 138.427C232.616 142.504 228.221 143.702 224.053 143.135C219.46 142.51 216.658 139.457 216.46 135.163C216.039 126.009 215.854 116.797 216.416 107.66C216.876 100.187 223.394 97.5959 231.553 101.327ZM223.835 107.094C220.083 115.849 222.093 124.884 222.71 133.82C222.766 134.644 224.68 135.977 225.669 135.923C226.685 135.867 228.444 134.427 228.471 133.55C228.717 125.496 228.796 117.428 228.501 109.379C228.466 108.421 225.907 107.555 223.835 107.094Z" fill="#24303A"/>
<path d="M63.344 131.741C63.2121 137.011 61.9786 141.166 56.7878 142.786C50.7075 144.683 45.0342 140.956 44.7512 134.415C44.3854 125.959 44.3805 117.475 44.5948 109.012C44.7518 102.812 48.3392 99.4326 53.9013 99.4453C59.4229 99.458 63.0996 102.846 63.3369 108.974C63.6242 116.396 63.369 123.838 63.344 131.741ZM53.7946 106.371C52.6601 108.09 50.6543 109.757 50.5472 111.538C50.1554 118.05 50.1598 124.615 50.5577 131.127C50.663 132.85 52.714 134.455 53.8716 136.114C55.0287 134.473 57.0808 132.887 57.1842 131.182C57.5791 124.67 57.5355 118.111 57.2228 111.59C57.1392 109.844 55.5191 108.173 53.7946 106.371Z" fill="#242F38"/>
<path d="M151.035 115.696C151.2 112.792 151.138 110.342 151.575 107.984C152.603 102.435 156.497 99.2484 161.625 99.4548C166.361 99.6453 169.888 103.279 170.244 108.798C170.319 109.957 169.116 112.191 168.478 112.2C167.109 112.219 165.556 111.324 164.388 110.408C162.969 109.296 161.869 107.776 160.631 106.433C159.474 108.161 157.428 109.835 157.321 111.626C156.927 118.175 156.966 124.775 157.338 131.328C157.431 132.961 159.384 134.487 160.482 136.063C161.762 134.818 162.95 133.453 164.351 132.364C165.524 131.453 166.934 130.373 168.265 130.337C168.942 130.319 170.317 132.46 170.276 133.584C170.081 138.882 166.334 142.94 161.832 143.214C156.87 143.515 152.301 140.205 151.691 134.815C150.994 128.661 151.214 122.403 151.035 115.696Z" fill="#24313B"/>
<path d="M29.7596 138.745C28.6402 140.518 27.523 141.845 26.4059 143.171C25.4683 141.83 23.7412 140.503 23.717 139.146C23.5044 127.241 23.6437 115.331 23.5609 103.423C23.5415 100.646 24.3786 99.1999 27.3848 99.378C29.7925 99.5206 32.2188 99.4834 34.6308 99.3818C37.3428 99.2675 38.7967 100.075 38.7309 103.169C38.6651 106.263 36.8486 106.355 34.6106 106.313C33.2674 106.287 31.921 106.431 29.8189 106.537C29.8189 109.658 29.6171 112.541 29.9307 115.368C30.0373 116.328 31.359 117.784 32.2709 117.904C34.7262 118.226 36.6698 118.471 36.582 121.686C36.4804 125.405 33.827 124.962 31.4667 125.159C31.1555 125.185 30.8612 125.414 29.7618 125.904C29.7618 129.797 29.7618 134.048 29.7596 138.745Z" fill="#24303A"/>
<path d="M209.317 134.999C209.316 136.515 209.308 137.549 209.317 138.582C209.336 140.853 209.642 143.366 206.182 143.214C202.823 143.067 203.203 140.519 203.201 138.293C203.191 126.92 203.073 115.543 203.333 104.176C203.371 102.511 205.011 99.7173 206.293 99.4746C209.537 98.8608 209.325 101.738 209.322 104.016C209.307 114.183 209.316 124.35 209.317 134.999Z" fill="#233841"/>
<path d="M143.525 108.4C143.525 118.718 143.511 128.54 143.534 138.361C143.54 140.692 143.658 143.052 140.395 143.166C136.893 143.288 137.324 140.741 137.325 138.507C137.327 127.307 137.293 116.108 137.351 104.908C137.363 102.53 136.332 99.185 140.552 99.3622C144.19 99.5149 143.459 102.476 143.52 104.802C143.548 105.835 143.525 106.869 143.525 108.4Z" fill="#24303A"/>
<path d="M80.7851 118.683C77.5164 119.105 75.6696 118.565 76.0337 115.014C76.3092 112.327 76.0883 109.589 76.0883 105.43C79.0691 106.514 82.3876 106.711 83.1233 108.192C84.863 111.692 85.2295 115.774 80.7851 118.683Z" fill="#0AD0CE"/>
<path d="M187.79 121.359C187.983 123.3 188.093 124.816 188.202 126.317C183.548 126.789 183.153 124.613 186.543 116.191C187.031 118.18 187.37 119.557 187.79 121.359Z" fill="#0CC7C5"/>
<path d="M224.177 106.871C225.907 107.556 228.467 108.422 228.502 109.38C228.796 117.428 228.717 125.497 228.472 133.551C228.445 134.428 226.686 135.868 225.669 135.923C224.68 135.977 222.767 134.645 222.71 133.821C222.094 124.885 220.084 115.85 224.177 106.871Z" fill="#0ACECC"/>
<path d="M54.1991 106.418C55.5187 108.171 57.1388 109.843 57.2224 111.588C57.5351 118.109 57.5787 124.669 57.1838 131.181C57.0804 132.886 55.0283 134.472 53.8712 136.112C52.7136 134.453 50.6626 132.849 50.5573 131.125C50.1594 124.613 50.155 118.049 50.5468 111.537C50.6539 109.756 52.6597 108.089 54.1991 106.418Z" fill="#0ACECC"/>
</g>
</g>
<defs>
<clipPath id="clip0_1765_2611">
<rect width="256" height="256" fill="white"/>
</clipPath>
<clipPath id="clip1_1765_2611">
<rect width="266" height="266" fill="white" transform="translate(-5 -5)"/>
</clipPath>
</defs>
</svg>
