<svg width="256" height="256" viewBox="0 0 256 256" fill="none" xmlns="http://www.w3.org/2000/svg">
<rect width="256" height="256" fill="white"/>
<path d="M222.826 89.8415C218.381 79.1416 209.371 67.5901 202.299 63.9412C208.055 75.2287 211.385 86.5502 212.658 94.9977C212.658 94.9977 212.658 95.0573 212.679 95.168C201.111 66.3256 181.491 54.6932 165.469 29.372C164.656 28.0947 163.847 26.8173 163.055 25.4506C162.607 24.6799 162.246 23.9816 161.931 23.3217C161.267 22.0413 160.754 20.6882 160.402 19.2895C160.405 19.2231 160.383 19.158 160.34 19.1069C160.298 19.0557 160.238 19.0222 160.172 19.0128C160.109 18.9957 160.043 18.9957 159.98 19.0128C159.964 19.0205 159.948 19.0305 159.934 19.0426C159.908 19.0426 159.883 19.0724 159.857 19.0809L159.9 19.0255C134.195 34.0812 125.475 61.9315 124.675 75.8673C114.403 76.5697 104.582 80.352 96.4922 86.7205C95.6467 86.0055 94.7625 85.3374 93.8438 84.7193C91.5126 76.5582 91.414 67.9211 93.5586 59.7089C83.046 64.499 74.871 72.0566 68.9271 78.7456H68.8803C64.8226 73.6064 65.1079 56.6561 65.3378 53.1178C65.2909 52.8964 62.3147 54.6634 61.9315 54.9317C58.351 57.486 55.004 60.3528 51.9299 63.4984C48.4317 67.045 45.2358 70.8776 42.3754 74.9562C35.7945 84.2824 31.1274 94.8206 28.6439 105.962C28.5971 106.183 28.5545 106.413 28.5077 106.639C28.3161 107.537 27.6221 112.046 27.4986 113.025V113.251C26.5938 117.91 26.0303 122.629 25.8125 127.37V127.894C25.8125 184.403 71.6266 230.217 128.136 230.217C178.749 230.217 220.769 193.472 229 145.206C229.17 143.899 229.31 142.579 229.464 141.259C231.499 123.708 229.238 105.263 222.826 89.8415ZM104.884 169.939C105.361 170.165 105.813 170.416 106.302 170.638L106.37 170.68C105.881 170.442 105.382 170.195 104.889 169.939H104.884ZM212.688 95.2148V95.1169V95.2276V95.2148Z" fill="url(#paint0_linear_343_23725)"/>
<path d="M222.826 89.8417C218.381 79.1418 209.371 67.5904 202.299 63.9414C208.055 75.2289 211.385 86.5504 212.658 94.9979V95.2065C222.315 121.384 217.052 148.003 209.473 164.268C197.747 189.432 169.36 215.226 124.922 213.97C76.9488 212.607 34.6559 176.965 26.7577 130.321C25.3185 122.959 26.7577 119.225 27.4815 113.251C26.6001 117.854 26.2637 119.187 25.8252 127.37V127.894C25.8252 184.403 71.6393 230.218 128.149 230.218C178.762 230.218 220.782 193.473 229.012 145.206C229.183 143.899 229.323 142.579 229.476 141.259C231.499 123.708 229.238 105.263 222.826 89.8417Z" fill="url(#paint1_radial_343_23725)"/>
<path d="M222.826 89.8417C218.381 79.1418 209.371 67.5904 202.299 63.9414C208.055 75.2289 211.385 86.5504 212.658 94.9979V95.2065C222.315 121.384 217.052 148.003 209.473 164.268C197.747 189.432 169.36 215.226 124.922 213.97C76.9488 212.607 34.6559 176.965 26.7577 130.321C25.3185 122.959 26.7577 119.225 27.4815 113.251C26.6001 117.854 26.2637 119.187 25.8252 127.37V127.894C25.8252 184.403 71.6393 230.218 128.149 230.218C178.762 230.218 220.782 193.473 229.012 145.206C229.183 143.899 229.323 142.579 229.476 141.259C231.499 123.708 229.238 105.263 222.826 89.8417Z" fill="url(#paint2_radial_343_23725)"/>
<path d="M173.098 101.865C173.324 102.023 173.524 102.18 173.737 102.338C171.169 97.7781 167.969 93.604 164.234 89.9393C132.428 58.1334 155.897 20.9712 159.852 19.0807L159.895 19.0254C134.19 34.081 125.47 61.9314 124.67 75.8672C125.862 75.7863 127.05 75.6841 128.264 75.6841C147.445 75.6841 164.153 86.235 173.098 101.865Z" fill="url(#paint3_radial_343_23725)"/>
<path d="M128.328 108.218C128.162 110.772 119.169 119.543 116.023 119.543C86.925 119.543 82.2031 137.145 82.2031 137.145C83.4805 151.971 93.8099 164.178 106.307 170.637C106.877 170.931 107.452 171.195 108.01 171.459C109.01 171.885 110.015 172.31 111.016 172.689C115.301 174.201 119.789 175.062 124.33 175.244C175.33 177.637 185.217 114.264 148.408 95.8614C157.83 94.2222 167.615 98.0159 173.078 101.852C164.136 86.2218 147.424 75.6709 128.243 75.6709C127.029 75.6709 125.841 75.7731 124.649 75.854C114.385 76.5651 104.573 80.3516 96.4923 86.7199C98.055 88.0441 99.8177 89.8068 103.526 93.46C110.484 100.324 128.29 107.387 128.328 108.218Z" fill="url(#paint4_radial_343_23725)"/>
<path d="M128.328 108.218C128.162 110.772 119.169 119.543 116.023 119.543C86.925 119.543 82.2031 137.145 82.2031 137.145C83.4805 151.971 93.8099 164.178 106.307 170.637C106.877 170.931 107.452 171.195 108.01 171.459C109.01 171.885 110.015 172.31 111.016 172.689C115.301 174.201 119.789 175.062 124.33 175.244C175.33 177.637 185.217 114.264 148.408 95.8614C157.83 94.2222 167.615 98.0159 173.078 101.852C164.136 86.2218 147.424 75.6709 128.243 75.6709C127.029 75.6709 125.841 75.7731 124.649 75.854C114.385 76.5651 104.573 80.3516 96.4923 86.7199C98.055 88.0441 99.8177 89.8068 103.526 93.46C110.484 100.324 128.29 107.387 128.328 108.218Z" fill="url(#paint5_radial_343_23725)"/>
<path d="M91.7361 83.3186C92.5663 83.855 93.2476 84.3064 93.865 84.7194C91.5337 76.5583 91.4352 67.9211 93.5797 59.709C83.0672 64.499 74.8921 72.0566 68.9482 78.7457C69.4294 78.7329 84.2721 78.4646 91.7361 83.3186Z" fill="url(#paint6_radial_343_23725)"/>
<path d="M26.7574 130.32C34.6557 176.965 76.9485 212.607 124.955 213.969C169.394 215.225 197.764 189.431 209.507 164.268C217.086 147.999 222.349 121.383 212.692 95.2061V95.0102C212.692 95.0358 212.692 95.0698 212.713 95.1805C216.341 118.884 204.287 141.846 185.442 157.374C185.422 157.418 185.404 157.462 185.386 157.506C148.663 187.409 113.523 175.547 106.408 170.706C105.914 170.467 105.416 170.22 104.922 169.965C83.5098 159.746 74.6663 140.224 76.5611 123.495C58.4866 123.495 52.3213 108.244 52.3213 108.244C52.3213 108.244 68.5521 96.6708 89.9434 106.736C109.755 116.061 128.362 108.248 128.362 108.244C128.323 107.413 110.517 100.328 103.573 93.4859C99.8641 89.8327 98.1013 88.07 96.5387 86.7458C95.6932 86.0308 94.8091 85.3628 93.8904 84.7446C93.2815 84.3189 92.613 83.8931 91.7614 83.3438C84.2975 78.4899 69.4548 78.7582 68.9651 78.7709H68.9183C64.8606 73.6318 65.1459 56.6814 65.3758 53.1432C65.3289 52.9218 62.3527 54.6887 61.9695 54.957C58.389 57.5113 55.042 60.3781 51.9679 63.5237C48.4697 67.0704 45.2738 70.9029 42.4134 74.9815C35.8325 84.3078 31.1654 94.846 28.682 105.987C28.6011 106.183 24.9606 122.077 26.7574 130.32Z" fill="url(#paint7_radial_343_23725)"/>
<path d="M164.234 89.9394C167.97 93.6041 171.169 97.7783 173.737 102.338C174.269 102.738 174.781 103.164 175.27 103.615C198.467 124.973 186.332 155.207 185.408 157.379C204.253 141.851 216.307 118.888 212.679 95.185C201.111 66.3256 181.491 54.6932 165.469 29.372C164.655 28.0947 163.846 26.8173 163.054 25.4506C162.607 24.6799 162.245 23.9816 161.93 23.3217C161.266 22.0413 160.753 20.6882 160.402 19.2895C160.405 19.2231 160.383 19.158 160.34 19.1069C160.298 19.0557 160.238 19.0222 160.172 19.0128C160.109 18.9957 160.043 18.9957 159.98 19.0128C159.963 19.0205 159.948 19.0305 159.933 19.0426C159.908 19.0426 159.882 19.0724 159.857 19.0809C155.897 20.9713 132.428 58.1335 164.234 89.9394Z" fill="url(#paint8_radial_343_23725)"/>
<path d="M175.262 103.594C174.773 103.143 174.261 102.717 173.729 102.317C173.52 102.159 173.303 102.002 173.09 101.844C167.628 98.0123 157.843 94.2143 148.421 95.8535C185.225 114.256 175.343 177.629 124.343 175.236C119.802 175.054 115.314 174.193 111.028 172.682C110.028 172.307 109.023 171.894 108.022 171.451C107.443 171.187 106.869 170.923 106.319 170.629L106.387 170.672C113.502 175.526 148.642 187.388 185.366 157.473C185.366 157.473 185.387 157.417 185.421 157.341C186.332 155.207 198.467 124.973 175.262 103.594Z" fill="url(#paint9_radial_343_23725)"/>
<path d="M82.2025 137.146C82.2025 137.146 86.9244 119.544 116.022 119.544C119.169 119.544 128.161 110.765 128.327 108.219C128.493 105.672 109.721 116.036 89.9091 106.711C68.5179 96.6458 52.2871 108.219 52.2871 108.219C52.2871 108.219 58.4524 123.47 76.5268 123.47C74.6321 140.199 83.4756 159.704 104.888 169.94C105.365 170.165 105.816 170.417 106.306 170.638C93.8093 164.192 83.4926 151.972 82.2025 137.146Z" fill="url(#paint10_radial_343_23725)"/>
<path d="M222.826 89.8415C218.381 79.1416 209.371 67.5901 202.299 63.9412C208.055 75.2287 211.385 86.5502 212.658 94.9977C212.658 94.9977 212.658 95.0573 212.679 95.168C201.111 66.3256 181.491 54.6932 165.469 29.372C164.656 28.0947 163.847 26.8173 163.055 25.4506C162.607 24.6799 162.246 23.9816 161.931 23.3217C161.267 22.0413 160.754 20.6882 160.402 19.2895C160.405 19.2231 160.383 19.158 160.34 19.1069C160.298 19.0557 160.238 19.0222 160.172 19.0128C160.109 18.9957 160.043 18.9957 159.98 19.0128C159.964 19.0205 159.948 19.0305 159.934 19.0426C159.908 19.0426 159.882 19.0724 159.857 19.0809L159.9 19.0255C134.195 34.0812 125.475 61.9315 124.675 75.8673C125.867 75.7864 127.055 75.6842 128.268 75.6842C147.45 75.6842 164.157 86.2351 173.103 101.866C167.64 98.0335 157.856 94.2355 148.433 95.8748C185.238 114.277 175.355 177.65 124.355 175.257C119.815 175.075 115.327 174.214 111.041 172.703C110.041 172.328 109.036 171.915 108.035 171.472C107.456 171.208 106.881 170.944 106.332 170.65L106.4 170.693C105.906 170.455 105.408 170.208 104.914 169.952C105.391 170.178 105.842 170.429 106.332 170.65C93.8098 164.191 83.4931 151.971 82.203 137.146C82.203 137.146 86.9249 119.544 116.023 119.544C119.169 119.544 128.162 110.764 128.328 108.218C128.29 107.388 110.483 100.303 103.539 93.4606C99.8303 89.8074 98.0676 88.0447 96.505 86.7205C95.6594 86.0055 94.7753 85.3374 93.8566 84.7193C91.5253 76.5582 91.4268 67.9211 93.5713 59.7089C83.0588 64.499 74.8838 72.0566 68.9399 78.7456H68.893C64.8354 73.6064 65.1206 56.6561 65.3505 53.1178C65.3037 52.8964 62.3275 54.6634 61.9443 54.9317C58.3638 57.486 55.0168 60.3528 51.9427 63.4984C48.4445 67.045 45.2486 70.8776 42.3882 74.9562C35.8073 84.2824 31.1402 94.8206 28.6567 105.962C28.6099 106.183 28.5673 106.413 28.5205 106.639C28.3289 107.537 27.4603 112.11 27.3411 113.089C27.3411 113.017 27.3411 113.166 27.3411 113.089C26.5438 117.814 26.0334 122.583 25.8125 127.37V127.894C25.8125 184.403 71.6266 230.217 128.136 230.217C178.749 230.217 220.769 193.472 229 145.206C229.17 143.899 229.31 142.579 229.464 141.259C231.499 123.708 229.238 105.263 222.826 89.8415Z" fill="url(#paint11_linear_343_23725)"/>
<defs>
<linearGradient id="paint0_linear_343_23725" x1="209.282" y1="51.7213" x2="39.4119" y2="215.613" gradientUnits="userSpaceOnUse">
<stop offset="0.05" stop-color="#FFF44F"/>
<stop offset="0.11" stop-color="#FFE847"/>
<stop offset="0.22" stop-color="#FFC830"/>
<stop offset="0.37" stop-color="#FF980E"/>
<stop offset="0.4" stop-color="#FF8B16"/>
<stop offset="0.46" stop-color="#FF672A"/>
<stop offset="0.53" stop-color="#FF3647"/>
<stop offset="0.7" stop-color="#E31587"/>
</linearGradient>
<radialGradient id="paint1_radial_343_23725" cx="0" cy="0" r="1" gradientUnits="userSpaceOnUse" gradientTransform="translate(201.43 42.4437) scale(213.321 213.321)">
<stop offset="0.13" stop-color="#FFBD4F"/>
<stop offset="0.19" stop-color="#FFAC31"/>
<stop offset="0.25" stop-color="#FF9D17"/>
<stop offset="0.28" stop-color="#FF980E"/>
<stop offset="0.4" stop-color="#FF563B"/>
<stop offset="0.47" stop-color="#FF3750"/>
<stop offset="0.71" stop-color="#F5156C"/>
<stop offset="0.78" stop-color="#EB0878"/>
<stop offset="0.86" stop-color="#E50080"/>
</radialGradient>
<radialGradient id="paint2_radial_343_23725" cx="0" cy="0" r="1" gradientUnits="userSpaceOnUse" gradientTransform="translate(123.482 129.652) scale(213.321 213.321)">
<stop offset="0.3" stop-color="#960E18"/>
<stop offset="0.35" stop-color="#B11927" stop-opacity="0.74"/>
<stop offset="0.43" stop-color="#DB293D" stop-opacity="0.34"/>
<stop offset="0.5" stop-color="#F5334B" stop-opacity="0.09"/>
<stop offset="0.53" stop-color="#FF3750" stop-opacity="0"/>
</radialGradient>
<radialGradient id="paint3_radial_343_23725" cx="0" cy="0" r="1" gradientUnits="userSpaceOnUse" gradientTransform="translate(149.203 -5.96796) scale(154.542 154.542)">
<stop offset="0.13" stop-color="#FFF44F"/>
<stop offset="0.25" stop-color="#FFDC3E"/>
<stop offset="0.51" stop-color="#FF9D12"/>
<stop offset="0.53" stop-color="#FF980E"/>
</radialGradient>
<radialGradient id="paint4_radial_343_23725" cx="0" cy="0" r="1" gradientUnits="userSpaceOnUse" gradientTransform="translate(99.8901 185.373) scale(101.57 101.57)">
<stop offset="0.35" stop-color="#3A8EE6"/>
<stop offset="0.47" stop-color="#5C79F0"/>
<stop offset="0.67" stop-color="#9059FF"/>
<stop offset="1" stop-color="#C139E6"/>
</radialGradient>
<radialGradient id="paint5_radial_343_23725" cx="0" cy="0" r="1" gradientUnits="userSpaceOnUse" gradientTransform="translate(126.546 104.299) rotate(-13.8972) scale(53.8124 63.2168)">
<stop offset="0.21" stop-color="#9059FF" stop-opacity="0"/>
<stop offset="0.28" stop-color="#8C4FF3" stop-opacity="0.06"/>
<stop offset="0.75" stop-color="#7716A8" stop-opacity="0.45"/>
<stop offset="0.97" stop-color="#6E008B" stop-opacity="0.6"/>
</radialGradient>
<radialGradient id="paint6_radial_343_23725" cx="0" cy="0" r="1" gradientUnits="userSpaceOnUse" gradientTransform="translate(120.787 33.715) scale(73.0726 73.0726)">
<stop stop-color="#FFE226"/>
<stop offset="0.12" stop-color="#FFDB27"/>
<stop offset="0.3" stop-color="#FFC82A"/>
<stop offset="0.5" stop-color="#FFA930"/>
<stop offset="0.73" stop-color="#FF7E37"/>
<stop offset="0.79" stop-color="#FF7139"/>
</radialGradient>
<radialGradient id="paint7_radial_343_23725" cx="0" cy="0" r="1" gradientUnits="userSpaceOnUse" gradientTransform="translate(178.225 -12.6315) scale(311.761)">
<stop offset="0.11" stop-color="#FFF44F"/>
<stop offset="0.46" stop-color="#FF980E"/>
<stop offset="0.62" stop-color="#FF5634"/>
<stop offset="0.72" stop-color="#FF3647"/>
<stop offset="0.9" stop-color="#E31587"/>
</radialGradient>
<radialGradient id="paint8_radial_343_23725" cx="0" cy="0" r="1" gradientUnits="userSpaceOnUse" gradientTransform="translate(148.09 21.4308) rotate(84.2321) scale(227.243 149.3)">
<stop stop-color="#FFF44F"/>
<stop offset="0.06" stop-color="#FFE847"/>
<stop offset="0.17" stop-color="#FFC830"/>
<stop offset="0.3" stop-color="#FF980E"/>
<stop offset="0.36" stop-color="#FF8B16"/>
<stop offset="0.45" stop-color="#FF672A"/>
<stop offset="0.57" stop-color="#FF3647"/>
<stop offset="0.74" stop-color="#E31587"/>
</radialGradient>
<radialGradient id="paint9_radial_343_23725" cx="0" cy="0" r="1" gradientUnits="userSpaceOnUse" gradientTransform="translate(119.067 60.7777) scale(194.633 194.633)">
<stop offset="0.14" stop-color="#FFF44F"/>
<stop offset="0.48" stop-color="#FF980E"/>
<stop offset="0.59" stop-color="#FF5634"/>
<stop offset="0.66" stop-color="#FF3647"/>
<stop offset="0.9" stop-color="#E31587"/>
</radialGradient>
<radialGradient id="paint10_radial_343_23725" cx="0" cy="0" r="1" gradientUnits="userSpaceOnUse" gradientTransform="translate(170.446 72.1719) scale(213.027 213.027)">
<stop offset="0.09" stop-color="#FFF44F"/>
<stop offset="0.23" stop-color="#FFE141"/>
<stop offset="0.51" stop-color="#FFAF1E"/>
<stop offset="0.63" stop-color="#FF980E"/>
</radialGradient>
<linearGradient id="paint11_linear_343_23725" x1="207.238" y1="50.8442" x2="62.7022" y2="195.384" gradientUnits="userSpaceOnUse">
<stop offset="0.17" stop-color="#FFF44F" stop-opacity="0.8"/>
<stop offset="0.27" stop-color="#FFF44F" stop-opacity="0.63"/>
<stop offset="0.49" stop-color="#FFF44F" stop-opacity="0.22"/>
<stop offset="0.6" stop-color="#FFF44F" stop-opacity="0"/>
</linearGradient>
</defs>
</svg>
