<svg width="256" height="256" viewBox="0 0 256 256" fill="none" xmlns="http://www.w3.org/2000/svg">
<rect width="256" height="256" fill="white"/>
<mask id="mask0_1228_5608" style="mask-type:alpha" maskUnits="userSpaceOnUse" x="0" y="0" width="256" height="256">
<rect width="256" height="256" fill="white"/>
</mask>
<g mask="url(#mask0_1228_5608)">
<path d="M154.051 111.828H172C172 117.106 171.365 121.845 170.094 126.046C168.823 130.247 166.996 133.828 164.614 136.79C162.284 139.753 159.504 142.041 156.274 143.657C153.045 145.219 149.471 146 145.552 146C141.369 146 137.637 145.165 134.354 143.496C131.071 141.772 127.576 139.079 123.87 135.417C121.699 133.263 119.661 131.62 117.755 130.489C115.901 129.358 113.916 128.793 111.798 128.793C109.839 128.793 108.118 129.412 106.635 130.651C105.206 131.889 104.067 133.586 103.22 135.74C102.373 137.841 101.949 140.264 101.949 143.011L84 142.769C84 137.491 84.6354 132.778 85.9061 128.631C87.1769 124.43 88.9771 120.876 91.3069 117.967C93.6366 115.059 96.4164 112.851 99.6462 111.343C102.876 109.781 106.424 109 110.289 109C114.472 109 118.31 109.889 121.805 111.666C125.3 113.443 128.794 116.082 132.289 119.583C134.407 121.791 136.392 123.461 138.245 124.592C140.152 125.669 142.111 126.207 144.123 126.207C146.082 126.207 147.803 125.588 149.285 124.349C150.768 123.057 151.933 121.333 152.78 119.179C153.627 116.971 154.051 114.52 154.051 111.828Z" fill="black"/>
<mask id="path-3-outside-1_1228_5608" maskUnits="userSpaceOnUse" x="31" y="31" width="194" height="194" fill="black">
<rect fill="white" x="31" y="31" width="194" height="194"/>
<path d="M208 128C208 172.183 172.183 208 128 208C83.8172 208 48 172.183 48 128C48 83.8172 83.8172 48 128 48C172.183 48 208 83.8172 208 128Z"/>
</mask>
<path d="M191 128C191 162.794 162.794 191 128 191V225C181.572 225 225 181.572 225 128H191ZM128 191C93.2061 191 65 162.794 65 128H31C31 181.572 74.4284 225 128 225V191ZM65 128C65 93.2061 93.2061 65 128 65V31C74.4284 31 31 74.4284 31 128H65ZM128 65C162.794 65 191 93.2061 191 128H225C225 74.4284 181.572 31 128 31V65Z" fill="black" mask="url(#path-3-outside-1_1228_5608)"/>
</g>
</svg>
