<svg width="256" height="256" viewBox="0 0 256 256" fill="none" xmlns="http://www.w3.org/2000/svg">
<g clip-path="url(#clip0_1136_2877)">
<rect width="256" height="256" fill="url(#paint0_linear_1136_2877)"/>
<g filter="url(#filter0_d_1136_2877)">
<path fill-rule="evenodd" clip-rule="evenodd" d="M114.093 77.7559C114.093 77.2036 113.645 76.7559 113.093 76.7559H112.215C111.663 76.7559 111.215 77.2036 111.215 77.7559V90.2232C111.215 90.7755 111.663 91.2232 112.215 91.2232H113.093C113.645 91.2232 114.093 90.7755 114.093 90.2232V77.7559Z" fill="#0BA5EC"/>
<path fill-rule="evenodd" clip-rule="evenodd" d="M126.374 77.7559C126.374 77.2036 125.927 76.7559 125.374 76.7559H124.496C123.944 76.7559 123.496 77.2036 123.496 77.7559V90.2232C123.496 90.7755 123.944 91.2232 124.496 91.2232H125.374C125.927 91.2232 126.374 90.7755 126.374 90.2232V77.7559Z" fill="#0BA5EC"/>
<path fill-rule="evenodd" clip-rule="evenodd" d="M142.273 49.7637C142.764 49.4874 142.93 48.8606 142.64 48.3777L140.715 45.1699C140.437 44.7056 139.839 44.5474 139.367 44.8129L92.2554 71.3271C91.7646 71.6033 91.5986 72.2302 91.8884 72.7131L93.813 75.9209C94.0916 76.3852 94.6891 76.5434 95.161 76.2778L142.273 49.7637Z" fill="#0BA5EC"/>
<path fill-rule="evenodd" clip-rule="evenodd" d="M143.769 49.7641C143.279 49.4876 143.114 48.8613 143.403 48.3787L145.328 45.1709C145.607 44.7062 146.205 44.5482 146.677 44.8145L193.79 71.4024C194.28 71.679 194.446 72.3053 194.156 72.7878L192.232 75.9956C191.953 76.4603 191.355 76.6184 190.883 76.352L143.769 49.7641Z" fill="#0BA5EC"/>
<path fill-rule="evenodd" clip-rule="evenodd" d="M202.327 76.8293C202.88 76.8293 203.327 76.3816 203.327 75.8293V72.1484C203.327 71.5962 202.88 71.1484 202.327 71.1484H70.4102C69.8579 71.1484 69.4102 71.5962 69.4102 72.1484V75.8293C69.4102 76.3816 69.8579 76.8293 70.4102 76.8293H202.327Z" fill="#0BA5EC"/>
<path fill-rule="evenodd" clip-rule="evenodd" d="M157.875 157.577V73.8936C157.875 73.3413 158.323 72.8936 158.875 72.8936H162.707C163.26 72.8936 163.707 73.3413 163.707 73.8936V159.164C163.707 160.077 162.533 160.559 161.811 160C160.652 159.102 159.357 158.349 157.944 157.684C157.902 157.665 157.875 157.623 157.875 157.577Z" fill="#0BA5EC"/>
<path fill-rule="evenodd" clip-rule="evenodd" d="M141.299 156.142C140.747 156.132 140.301 155.69 140.301 155.138V37.6123C140.301 37.06 140.748 36.6123 141.301 36.6123H145.133C145.685 36.6123 146.133 37.06 146.133 37.6123V155.267C146.133 155.994 145.357 156.533 144.64 156.41C143.508 156.217 142.185 156.158 141.299 156.142Z" fill="#0BA5EC"/>
<path fill-rule="evenodd" clip-rule="evenodd" d="M84.7943 168.032C77.6743 162.881 72.9023 154.625 72.9023 145.308C72.9023 140.385 74.2658 135.461 76.7653 131.22H126.833C129.408 135.461 130.696 140.385 130.696 145.308C130.696 149.626 130.09 153.64 128.348 157.276C124.561 153.716 118.955 152.201 113.35 152.201C103.352 152.201 94.7927 158.261 92.5203 167.35C91.7629 167.35 91.2327 167.199 90.4752 167.199C88.5816 167.199 86.688 167.577 84.7943 168.032Z" fill="#0BA5EC"/>
<path fill-rule="evenodd" clip-rule="evenodd" d="M109.325 98.5859C109.325 98.0337 108.877 97.5859 108.325 97.5859H95.1758C94.6235 97.5859 94.1758 98.0337 94.1758 98.5859V111.432C94.1758 111.984 94.6235 112.432 95.1758 112.432H108.325C108.877 112.432 109.325 111.984 109.325 111.432V98.5859Z" fill="#0BA5EC"/>
<path fill-rule="evenodd" clip-rule="evenodd" d="M92.2818 98.5859C92.2818 98.0337 91.8341 97.5859 91.2818 97.5859H78.1328C77.5805 97.5859 77.1328 98.0337 77.1328 98.5859V111.432C77.1328 111.984 77.5805 112.432 78.1328 112.432H91.2818C91.8341 112.432 92.2818 111.984 92.2818 111.432V98.5859Z" fill="#0BA5EC"/>
<path fill-rule="evenodd" clip-rule="evenodd" d="M92.2818 115.177C92.2818 114.624 91.8341 114.177 91.2818 114.177H78.1328C77.5805 114.177 77.1328 114.624 77.1328 115.177V128.023C77.1328 128.575 77.5805 129.023 78.1328 129.023H91.2818C91.8341 129.023 92.2818 128.575 92.2818 128.023V115.177Z" fill="#0BA5EC"/>
<path fill-rule="evenodd" clip-rule="evenodd" d="M109.325 115.177C109.325 114.624 108.877 114.177 108.325 114.177H95.1758C94.6235 114.177 94.1758 114.624 94.1758 115.177V128.023C94.1758 128.575 94.6235 129.023 95.1758 129.023H108.325C108.877 129.023 109.325 128.575 109.325 128.023V115.177Z" fill="#0BA5EC"/>
<path fill-rule="evenodd" clip-rule="evenodd" d="M126.364 115.177C126.364 114.624 125.916 114.177 125.364 114.177H112.215C111.663 114.177 111.215 114.624 111.215 115.177V128.023C111.215 128.575 111.663 129.023 112.215 129.023H125.364C125.916 129.023 126.364 128.575 126.364 128.023V115.177Z" fill="#0BA5EC"/>
<path fill-rule="evenodd" clip-rule="evenodd" d="M126.364 89.6338H111.215V104.48H126.364V89.6338Z" fill="#0BA5EC"/>
<path fill-rule="evenodd" clip-rule="evenodd" d="M95.0199 170.303C97.065 161.744 105.018 155.306 114.486 155.306C120.546 155.306 126 157.957 129.711 162.123C132.892 159.926 136.755 158.714 140.997 158.714C151.98 158.714 160.918 167.425 160.918 178.181C160.918 180.377 160.539 182.498 159.858 184.543C162.282 187.725 163.796 191.815 163.796 196.132C163.796 206.888 154.859 215.599 143.875 215.599C139.028 215.599 134.559 213.932 131.15 211.13C127.515 216.053 121.606 219.386 114.865 219.386C107.139 219.386 100.398 215.069 97.065 208.782C95.7016 209.085 94.3382 209.236 92.899 209.236C81.916 209.236 72.9023 200.525 72.9023 189.77C72.9023 179.014 81.8403 170.303 92.899 170.303C93.5808 170.303 94.3382 170.303 95.0199 170.303Z" fill="#0BA5EC"/>
</g>
</g>
<defs>
<filter id="filter0_d_1136_2877" x="45.4102" y="12.6123" width="197.918" height="246.773" filterUnits="userSpaceOnUse" color-interpolation-filters="sRGB">
<feFlood flood-opacity="0" result="BackgroundImageFix"/>
<feColorMatrix in="SourceAlpha" type="matrix" values="0 0 0 0 0 0 0 0 0 0 0 0 0 0 0 0 0 0 127 0" result="hardAlpha"/>
<feOffset dx="8" dy="8"/>
<feGaussianBlur stdDeviation="16"/>
<feComposite in2="hardAlpha" operator="out"/>
<feColorMatrix type="matrix" values="0 0 0 0 0 0 0 0 0 0 0 0 0 0 0 0 0 0 0.25 0"/>
<feBlend mode="normal" in2="BackgroundImageFix" result="effect1_dropShadow_1136_2877"/>
<feBlend mode="normal" in="SourceGraphic" in2="effect1_dropShadow_1136_2877" result="shape"/>
</filter>
<linearGradient id="paint0_linear_1136_2877" x1="128" y1="0" x2="128" y2="256" gradientUnits="userSpaceOnUse">
<stop stop-color="#072E44"/>
<stop offset="1" stop-color="#000D15"/>
</linearGradient>
<clipPath id="clip0_1136_2877">
<rect width="256" height="256" fill="white"/>
</clipPath>
</defs>
</svg>
