<svg width="256" height="256" viewBox="0 0 256 256" fill="none" xmlns="http://www.w3.org/2000/svg">
<rect width="256" height="256" fill="white"/>
<g clip-path="url(#clip0_1663_1272)">
<path d="M256 0H0V256H256V0Z" fill="#111827"/>
<path d="M27.3516 149.271C27.3516 149.271 57.8016 92.5307 123.512 89.9807C189.222 87.4307 224.972 148.771 224.972 148.771C224.972 148.771 188.732 208.931 126.162 208.961C62.0716 208.991 27.3516 149.271 27.3516 149.271Z" stroke="#F8991D" stroke-width="11" stroke-miterlimit="10"/>
<path d="M62.3317 83.8503L47.0117 68.5303" stroke="#F8991D" stroke-width="11" stroke-miterlimit="10" stroke-linecap="round"/>
<path d="M92.5916 68.5306L81.8516 43.6406" stroke="#F8991D" stroke-width="11" stroke-miterlimit="10" stroke-linecap="round"/>
<path d="M125.023 65.0903V32.5303" stroke="#F8991D" stroke-width="11" stroke-miterlimit="10" stroke-linecap="round"/>
<path d="M188.051 83.8503L203.371 68.5303" stroke="#F8991D" stroke-width="11" stroke-miterlimit="10" stroke-linecap="round"/>
<path d="M157.801 68.5306L168.531 43.6406" stroke="#F8991D" stroke-width="11" stroke-miterlimit="10" stroke-linecap="round"/>
<path d="M167.111 159C161.411 181.84 138.281 195.75 115.431 190.05C92.5914 184.35 78.6914 161.22 84.3914 138.37C90.0814 115.52 113.221 101.62 136.061 107.31C158.911 113.01 172.811 136.15 167.111 158.99V159Z" fill="#F7931A"/>
<path d="M145.912 142.291C146.812 136.251 142.212 133.001 135.922 130.831L137.962 122.651L132.982 121.411L130.992 129.381C129.682 129.051 128.342 128.751 127.002 128.441L129.002 120.421L124.022 119.181L121.982 127.361C120.902 127.111 119.832 126.871 118.802 126.611V126.581L111.932 124.861L110.602 130.181C110.602 130.181 114.302 131.031 114.222 131.081C116.242 131.581 116.602 132.921 116.542 133.981L114.222 143.301C114.362 143.341 114.542 143.391 114.742 143.471C114.572 143.431 114.402 143.381 114.212 143.341L110.952 156.401C110.702 157.011 110.082 157.931 108.672 157.581C108.722 157.651 105.052 156.681 105.052 156.681L102.582 162.381L109.062 164.001C110.272 164.301 111.452 164.621 112.612 164.921L110.552 173.201L115.532 174.441L117.572 166.251C118.932 166.621 120.252 166.961 121.542 167.281L119.512 175.431L124.492 176.671L126.552 168.411C135.052 170.021 141.432 169.371 144.122 161.691C146.292 155.501 144.012 151.931 139.542 149.611C142.802 148.861 145.252 146.721 145.902 142.301L145.912 142.291ZM134.532 158.251C132.992 164.441 122.572 161.091 119.202 160.251L121.942 149.281C125.322 150.121 136.152 151.791 134.542 158.241L134.532 158.251ZM136.072 142.201C134.672 147.831 126.002 144.971 123.182 144.271L125.662 134.321C128.472 135.021 137.532 136.331 136.072 142.201Z" fill="#111827"/>
</g>
<defs>
<clipPath id="clip0_1663_1272">
<rect width="256" height="256" fill="white"/>
</clipPath>
</defs>
</svg>
