<svg width="256" height="256" viewBox="0 0 256 256" fill="none" xmlns="http://www.w3.org/2000/svg">
<rect width="256" height="256" fill="url(#paint0_radial_1201_4821)"/>
<path d="M11 127.5V11H244V244H11V127.5ZM126.495 227.906C126.576 227.532 127.022 224.098 127.487 220.275C128.228 214.182 130.658 194.563 133.927 168.295C134.485 163.807 135.707 153.947 136.642 146.385C137.577 138.822 138.426 131.989 138.528 131.199L138.715 129.764H116.731L116.116 134.675C114.396 148.397 109.424 188.222 108.655 194.436C108.171 198.342 107.077 207.182 106.223 214.079C105.369 220.977 104.598 227.063 104.508 227.603L104.347 228.585H126.348L126.495 227.906ZM209.85 161.494C221.107 147.544 228.121 130.509 230.479 111.395C231.059 106.692 231.148 94.7351 230.636 90.3266C229.537 80.8575 227.167 71.13 224.028 63.1996C220.26 53.6844 213.75 43.1038 206.966 35.4715L204.783 33.0159L192.069 46.4623L194.132 48.9023C197.357 52.7148 198.454 54.2089 201.047 58.319C206.458 66.894 210.32 77.2765 212.055 87.9093C212.905 93.1241 213.111 103.664 212.471 109.215C210.619 125.276 203.795 140.803 193.645 152.054L191.94 153.943L198.339 160.763L204.738 167.582L206.257 165.824C207.093 164.857 208.709 162.91 209.849 161.497L209.85 161.494ZM56.8054 160.613L63.0591 153.989L60.9939 151.622C51.6621 140.927 45.366 127.134 42.9459 112.084C42.1932 107.404 41.9185 97.9991 42.3892 93.0245C43.9166 76.8799 50.3557 61.3215 60.3842 49.5427C61.2402 48.5373 62.1852 47.4189 62.484 47.0575L63.0273 46.4002L50.2617 33.048L48.1901 35.3439C39.8354 44.6031 32.6927 57.2643 28.7658 69.7756C25.3949 80.515 24.0601 89.1836 24.0665 100.298C24.0699 109.171 25.0278 116.902 27.1349 125.108C30.8861 139.716 38.7515 154.609 48.2266 165.045C49.3206 166.25 50.2914 167.236 50.384 167.236C50.4767 167.236 53.3664 164.255 56.8059 160.612L56.8054 160.613ZM83.8091 131.572C83.8111 131.488 82.9545 130.331 81.9058 129.004C77.0319 122.833 73.9885 116.088 72.4935 108.144C71.7921 104.418 71.7861 96.2082 72.4834 92.5164C74.1119 83.8772 78.0865 75.4031 83.0461 69.9956L84.2295 68.7053L71.7816 55.5712L69.9307 57.6866C61.6225 67.1821 56.2558 79.5871 54.7025 92.8854C54.2587 96.6846 54.3353 104.746 54.8522 108.67C56.5682 121.691 62.0377 133.822 70.5502 143.487L71.5919 144.669L77.6996 138.198C81.0587 134.639 83.8085 131.657 83.8105 131.572L83.8091 131.572ZM186.32 141.322C194.815 130.818 199.532 118.648 200.628 104.397C201.887 88.0236 195.874 69.8324 185.224 57.7994L183.32 55.6488L177.074 62.1683L170.828 68.6877L172.609 70.7417C177.311 76.1643 180.918 83.8941 182.525 91.9858C183.309 95.932 183.223 104.956 182.361 109.198C180.859 116.594 177.651 123.45 172.928 129.364L171.193 131.535L177.219 138.052C180.534 141.637 183.346 144.57 183.469 144.57C183.592 144.57 184.875 143.108 186.32 141.321L186.32 141.322ZM95.4578 119.103L98.9544 115.393L97.3844 112.076C95.3622 107.804 94.9144 105.981 94.7415 101.316C94.5253 95.4855 95.4462 91.5281 98.1322 86.7431L99.3003 84.6622L95.7727 80.9197C93.8325 78.8613 92.1152 77.2208 91.9563 77.274C91.7975 77.3272 91.0419 78.3137 90.2771 79.4661C83.9543 88.9938 82.5476 102.396 86.6928 113.618C88.0568 117.311 91.099 122.812 91.7772 122.812C91.8787 122.812 93.5351 121.143 95.4582 119.103H95.4578ZM164.82 120.824C168.646 115.101 170.748 107.751 170.734 100.147C170.72 92.2931 168.636 85.264 164.418 78.832C163.824 77.9269 163.208 77.1847 163.048 77.1827C162.889 77.1806 161.174 78.8605 159.237 80.9155L155.715 84.6519L156.422 85.8377C161.848 94.9334 161.839 105.652 156.399 114.585C155.994 115.249 156.103 115.405 159.504 119.047C161.443 121.122 163.163 122.774 163.326 122.717C163.489 122.661 164.16 121.809 164.819 120.825L164.82 120.824ZM133.28 120.717C137.255 119.641 140.478 117.499 143.308 114.053C145.129 111.835 146.997 108.119 147.633 105.448C148.212 103.014 148.199 97.3177 147.606 94.9019C145.821 87.6115 140.193 81.6668 133.212 79.6986C130.705 78.9916 125.72 78.9927 123.219 79.7008C116.215 81.6831 110.601 87.618 108.738 95.0097C108.074 97.6455 108.089 102.922 108.768 105.561C110.608 112.707 116.382 118.859 122.959 120.682C125.857 121.485 130.387 121.501 133.279 120.718L133.28 120.717Z" fill="#AA0000"/>
<path fill-rule="evenodd" clip-rule="evenodd" d="M256 0H0V256H256V0ZM237 27H19V235H237V27Z" fill="#AA0000"/>
<defs>
<radialGradient id="paint0_radial_1201_4821" cx="0" cy="0" r="1" gradientUnits="userSpaceOnUse" gradientTransform="translate(128 128) rotate(90) scale(128)">
<stop stop-color="white"/>
<stop offset="1" stop-color="white"/>
</radialGradient>
</defs>
</svg>
