<svg width="256" height="256" viewBox="0 0 256 256" fill="none" xmlns="http://www.w3.org/2000/svg">
<rect width="256" height="256" fill="white"/>
<g clip-path="url(#clip0_1572_621)">
<path d="M128 128.003L166.803 150.405L128 217.612C177.49 217.612 217.61 177.493 217.61 128.003C217.61 111.676 213.222 96.3821 205.592 83.1973H127.999L128 128.003Z" fill="url(#paint0_linear_1572_621)"/>
<path d="M128 38.3906C94.8327 38.3906 65.8962 56.4229 50.4014 83.2067L89.1967 150.404L128 128.002V83.1961H205.593C190.096 56.4189 161.163 38.3906 128 38.3906Z" fill="url(#paint1_linear_1572_621)"/>
<path d="M38.3902 128.002C38.3902 177.492 78.5085 217.612 128 217.612L166.804 150.404L128 128.002L89.197 150.404L50.4016 83.207C42.7763 96.3882 38.3896 111.676 38.3896 128.001" fill="url(#paint2_linear_1572_621)"/>
<path d="M172.806 128.003C172.806 152.748 152.745 172.808 128 172.808C103.255 172.808 83.1943 152.748 83.1943 128.003C83.1943 103.258 103.255 83.1973 128 83.1973C152.745 83.1973 172.806 103.258 172.806 128.003Z" fill="white"/>
<path d="M164.405 128.002C164.405 148.108 148.106 164.407 128 164.407C107.895 164.407 91.5957 148.108 91.5957 128.002C91.5957 107.897 107.895 91.5977 128 91.5977C148.106 91.5977 164.405 107.897 164.405 128.002Z" fill="url(#paint3_linear_1572_621)"/>
</g>
<defs>
<linearGradient id="paint0_linear_1572_621" x1="172.996" y1="83.0123" x2="172.805" y2="217.612" gradientUnits="userSpaceOnUse">
<stop stop-color="#AFCCFB"/>
<stop offset="1" stop-color="#8BB5F8"/>
</linearGradient>
<linearGradient id="paint1_linear_1572_621" x1="115.004" y1="39.7559" x2="122.411" y2="160.177" gradientUnits="userSpaceOnUse">
<stop stop-color="#1972E7"/>
<stop offset="1" stop-color="#1969D5"/>
</linearGradient>
<linearGradient id="paint2_linear_1572_621" x1="102.597" y1="83.207" x2="102.597" y2="217.612" gradientUnits="userSpaceOnUse">
<stop stop-color="#659CF6"/>
<stop offset="1" stop-color="#4285F4"/>
</linearGradient>
<linearGradient id="paint3_linear_1572_621" x1="127.629" y1="91.7362" x2="128" y2="164.407" gradientUnits="userSpaceOnUse">
<stop stop-color="#3680F0"/>
<stop offset="1" stop-color="#2678EC"/>
</linearGradient>
<clipPath id="clip0_1572_621">
<rect width="179.221" height="179.221" fill="white" transform="translate(38.3896 38.3906)"/>
</clipPath>
</defs>
</svg>
