<svg width="257" height="258" viewBox="0 0 257 258" fill="none" xmlns="http://www.w3.org/2000/svg">
<rect width="256" height="257.104" transform="translate(0.457031 0.888672)" fill="#131313"/>
<path d="M192.482 43.3026C192.002 43.8628 162.712 53.0659 154.229 55.3867C146.386 57.5474 123.979 66.1103 120.778 68.191C119.737 68.9112 118.937 70.1117 118.937 70.9119C118.937 71.7122 120.938 75.3934 123.338 79.0747C128.78 87.3975 128.94 89.3982 124.859 99.0014C120.858 108.285 118.377 111.246 111.895 114.287C108.934 115.647 105.652 117.648 104.532 118.608C103.412 119.568 100.531 121.169 98.1299 122.049C95.7291 122.929 93.6484 124.21 93.4884 124.85C93.2483 125.89 93.6484 125.89 96.3693 125.01C100.691 123.49 102.932 124.21 102.932 127.091C102.932 129.652 99.7305 131.892 91.2476 135.414C70.9208 143.656 64.9988 146.297 62.2778 148.538C58.1164 151.739 57.5563 154.7 59.717 161.422C60.5973 164.143 61.3175 167.264 61.3175 168.225C61.3175 169.905 65.559 182.069 72.1212 199.355C74.7621 206.238 80.2039 215.761 81.5644 215.841C81.9645 215.841 82.0445 214 81.7244 211.759C81.2442 208.158 80.524 188.392 80.3639 171.426C80.2039 162.783 81.9645 158.702 88.3666 152.459C94.4487 146.457 103.652 140.135 111.815 136.214C117.256 133.653 117.817 133.493 124.059 133.973C130.781 134.453 141.905 132.933 147.987 130.772C150.147 129.972 152.148 129.892 154.389 130.292C158.71 131.092 186.16 131.172 186.16 130.372C186.16 130.052 183.599 129.332 180.478 128.851C172.075 127.571 171.915 126.451 180.078 125.81C193.362 124.69 186.08 123.01 167.913 123.01C155.989 123.01 153.669 122.369 149.427 117.968C145.266 113.566 143.265 102.042 145.426 95.0001C145.906 93.4795 146.546 86.9974 146.946 80.5952C147.267 74.193 147.827 68.3511 148.147 67.5508C148.867 65.7102 157.83 60.5084 166.233 57.0673C169.914 55.5467 175.836 53.0659 179.357 51.5454C184.959 49.1446 192.642 45.8635 197.764 43.7828C198.964 43.2226 198.644 43.0625 196.083 43.0625C194.322 42.9825 192.642 43.1426 192.482 43.3026Z" fill="white"/>
</svg>
