<svg width="256" height="256" viewBox="0 0 256 256" fill="none" xmlns="http://www.w3.org/2000/svg">
<g clip-path="url(#clip0_1354_3492)">
<rect width="256" height="256" fill="white"/>
<path d="M165.547 28.286L63.2025 50.8423C52.8241 53.1219 45.4453 62.3006 45.4453 72.9188V202.917C45.4453 212.155 52.3442 219.894 61.4625 220.974L115.152 227.993L162.437 180.914L210.416 131.767L209.576 57.3814C209.456 48.3229 201.058 41.6039 192.239 43.5238L180.361 46.1034L180.421 40.4642C180.541 32.5453 173.222 26.6066 165.543 28.2863L165.547 28.286Z" fill="#C02223"/>
<path d="M180.488 46.1029V164.044L210.543 131.71L209.704 54.8606C209.644 47.0618 202.385 41.303 194.766 42.9827L180.488 46.1029Z" fill="#882425"/>
<path d="M115.164 227.988L195.524 207.038L210.539 131.705L115.164 227.988Z" fill="url(#paint0_linear_1354_3492)"/>
<path d="M139.095 111.012C139.095 111.012 129.916 99.0742 123.137 95.8348C118.818 93.7951 112.399 93.0153 107.36 95.5349C99.9212 99.2542 99.1414 109.692 105.98 113.832C107.6 114.852 109.759 115.691 112.579 116.351C127.696 119.831 152.652 127.029 149.593 156.005C149.593 156.005 147.853 183.18 119.238 186.3C114.198 186.839 109.099 186.48 104.18 185.34C97.4014 183.84 85.4034 180.78 79.5245 177.121L78.4447 146.106H81.3243C81.3243 146.106 87.0233 159.904 103.22 166.563C106.22 167.763 109.519 168.243 112.699 167.763C116.718 167.163 121.457 165.003 123.377 158.464C123.377 158.464 126.616 148.926 109.819 143.707C96.3818 139.507 83.7236 135.188 78.5045 121.03C76.0449 114.311 75.625 106.873 77.3047 99.7336C79.5243 90.435 85.8833 77.3572 103.88 71.7184C103.88 71.7184 127.516 65.2994 143.714 73.998L142.994 111.012L139.095 111.012Z" fill="url(#paint1_linear_1354_3492)"/>
</g>
<defs>
<linearGradient id="paint0_linear_1354_3492" x1="157.086" y1="228.174" x2="164.009" y2="170.157" gradientUnits="userSpaceOnUse">
<stop stop-color="#DCF1F3"/>
<stop offset="1" stop-color="#C2C2C9"/>
</linearGradient>
<linearGradient id="paint1_linear_1354_3492" x1="108.246" y1="198.035" x2="119.248" y2="43.1411" gradientUnits="userSpaceOnUse">
<stop stop-color="#DCF1F3"/>
<stop offset="1" stop-color="#C2C2C9"/>
</linearGradient>
<clipPath id="clip0_1354_3492">
<rect width="256" height="256" fill="white"/>
</clipPath>
</defs>
</svg>
