<svg width="256" height="256" viewBox="0 0 256 256" fill="none" xmlns="http://www.w3.org/2000/svg">
<rect width="256" height="256" fill="#3063BA"/>
<g clip-path="url(#clip0_1348_8791)">
<path d="M204.169 102.046L195.748 112.45C170.601 99.5224 152.578 86.0527 141.68 72.0404C131.017 86.8076 113.821 99.9942 90.0894 111.6L81.1017 101.551C112.665 86.9255 132.221 69.3512 139.769 48.8281L151.8 52.5789C150.196 57.2969 149.134 60.0569 148.615 60.8589C158.806 75.4374 177.324 89.1665 204.169 102.046ZM206.434 169.419L197.163 178.265C183.339 167.697 172.63 154.793 165.034 139.554C160.033 153.708 149.677 166.517 133.966 177.982L124.695 169.419C135.641 162.153 143.85 153.59 149.323 143.729C154.796 133.869 157.91 119.81 158.665 101.551L171.12 102.613C171.12 105.066 170.931 108.133 170.554 111.813L170.058 116.766C170.058 119.267 171.45 123.985 174.234 130.92C177.065 137.808 181.169 144.508 186.548 151.019C191.973 157.482 198.602 163.616 206.434 169.419ZM140.689 150.594L131.065 159.228C125.639 152.104 120.331 146.277 115.142 141.748C109.197 154.722 99.9734 166.942 87.4709 178.406L78.0586 169.985C89.2873 159.983 97.355 149.934 102.262 139.837C107.215 129.741 110.4 116.979 111.815 101.551L124.412 102.896C123.469 111.482 121.794 120.234 119.388 129.151C128.541 137.03 135.641 144.178 140.689 150.594Z" fill="white"/>
<path d="M111.882 207.177V195.897H62.3628V106.9H49.5703V207.177H111.882Z" fill="white"/>
</g>
<defs>
<clipPath id="clip0_1348_8791">
<rect width="156.863" height="158.349" fill="white" transform="translate(49.5703 48.8262)"/>
</clipPath>
</defs>
</svg>
