<svg width="256" height="256" viewBox="0 0 256 256" fill="none" xmlns="http://www.w3.org/2000/svg">
<g clip-path="url(#clip0_1328_619)">
<rect width="256" height="256" fill="#171A1E"/>
<g filter="url(#filter0_d_1328_619)">
<path fill-rule="evenodd" clip-rule="evenodd" d="M130.493 148.082L77.0469 175.24V175.104C80.9371 156.887 88.8239 139.76 100.138 124.962C111.452 110.163 125.91 98.0614 142.47 89.53V128.827L146.245 126.872C149.424 124.973 152.139 122.388 154.189 119.304C156.24 116.22 157.574 112.717 158.095 109.05C158.616 105.384 158.31 101.648 157.199 98.1148C156.088 94.5821 154.201 91.3426 151.676 88.6338L123.867 59.6566C120.689 56.2687 118.984 51.7586 119.126 47.1155C119.269 42.4724 121.247 38.0754 124.627 34.8888C131.47 28.5864 143.379 26.9717 153.107 39.4629L153.11 39.4601L153.128 39.4905C153.16 39.5316 153.192 39.5728 153.224 39.6143L153.212 39.6265L178.865 81.6012C178.925 81.6843 178.957 81.784 178.957 81.8863C178.957 81.9886 178.925 82.0884 178.865 82.1715C178.822 82.2184 178.77 82.2558 178.711 82.2814C178.653 82.307 178.59 82.3203 178.526 82.3203C178.462 82.3203 178.399 82.307 178.341 82.2814C178.282 82.2558 178.23 82.2184 178.187 82.1715L144.844 47.3189L144.853 47.3106L141.22 43.525C140.111 42.3466 138.581 41.6542 136.964 41.5982C135.346 41.5423 133.772 42.1274 132.584 43.2262C131.408 44.3309 130.716 45.8562 130.66 47.4691C130.604 49.0821 131.188 50.6516 132.286 51.8352L159.796 80.5952C163.694 84.696 166.578 89.6523 168.218 95.0673C169.857 100.482 170.207 106.206 169.238 111.78C168.269 117.355 166.01 122.625 162.639 127.169C159.269 131.714 154.882 135.407 149.829 137.952L142.524 141.727V225.916L130.493 210.273V148.082ZM119.196 120.544C109.87 129.842 102.226 140.684 96.6004 152.59L130.493 135.073V110.632C126.516 113.687 122.743 116.999 119.196 120.544Z" fill="#C72C48"/>
</g>
<path d="M142.523 141.701V154.411L130.492 160.521V147.893L142.523 141.701Z" fill="#C72C48"/>
</g>
<defs>
<filter id="filter0_d_1328_619" x="67.1469" y="20.184" width="121.71" height="215.632" filterUnits="userSpaceOnUse" color-interpolation-filters="sRGB">
<feFlood flood-opacity="0" result="BackgroundImageFix"/>
<feColorMatrix in="SourceAlpha" type="matrix" values="0 0 0 0 0 0 0 0 0 0 0 0 0 0 0 0 0 0 127 0" result="hardAlpha"/>
<feOffset/>
<feGaussianBlur stdDeviation="4.95"/>
<feComposite in2="hardAlpha" operator="out"/>
<feColorMatrix type="matrix" values="0 0 0 0 0.780392 0 0 0 0 0.172549 0 0 0 0 0.282353 0 0 0 0.19 0"/>
<feBlend mode="normal" in2="BackgroundImageFix" result="effect1_dropShadow_1328_619"/>
<feBlend mode="normal" in="SourceGraphic" in2="effect1_dropShadow_1328_619" result="shape"/>
</filter>
<clipPath id="clip0_1328_619">
<rect width="256" height="256" fill="white"/>
</clipPath>
</defs>
</svg>
