<?xml version="1.0" encoding="UTF-8"?>
<svg xmlns="http://www.w3.org/2000/svg" width="256" height="256" viewBox="0 0 256 256">
<rect width="256" height="256" fill="#9A2D54"/>
<path d="M0 0 C47.19 0 94.38 0 143 0 C143 46.86 143 93.72 143 142 C95.81 142 48.62 142 0 142 C0 95.14 0 48.28 0 0 Z " fill="#FDFDFD" transform="translate(56,73)"/>
<path d="M0 0 C60.72 0 121.44 0 184 0 C184 9.57 184 19.14 184 29 C183.67 29.33 183.34 29.66 183 30 C177.06 30 171.12 30 165 30 C165 77.52 165 125.04 165 174 C128.18 174.04 128.18 174.04 112.79 174.05 C102.16 174.05 91.52 174.06 80.88 174.08 C73.13 174.09 65.39 174.09 57.64 174.09 C53.54 174.1 49.43 174.1 45.33 174.11 C41.47 174.11 37.61 174.11 33.75 174.11 C32.33 174.11 30.91 174.12 29.49 174.12 C27.56 174.12 25.63 174.12 23.7 174.12 C22.62 174.12 21.53 174.12 20.42 174.12 C18 174 18 174 17 173 C16.9 171.15 16.88 169.3 16.88 167.45 C16.88 166.25 16.88 165.04 16.88 163.8 C16.88 162.45 16.88 161.11 16.89 159.76 C16.89 158.35 16.89 156.94 16.89 155.53 C16.89 151.7 16.89 147.86 16.9 144.02 C16.9 140.02 16.91 136.01 16.91 132.01 C16.91 124.42 16.92 116.83 16.93 109.24 C16.94 100.6 16.94 91.96 16.95 83.32 C16.96 65.55 16.98 47.77 17 30 C11.39 30 5.78 30 0 30 C0 20.1 0 10.2 0 0 Z M20 30 C20 76.86 20 123.72 20 172 C67.19 172 114.38 172 163 172 C163 125.14 163 78.28 163 30 C115.81 30 68.62 30 20 30 Z " fill="#020001" transform="translate(36,43)"/>
<path d="M0 0 C0.57 0 0.57 0 3.44 0.01 C4.72 0.01 6 0.01 7.32 0.01 C8.73 0.01 10.14 0.02 11.55 0.02 C12.98 0.02 14.41 0.03 15.85 0.03 C19.63 0.03 23.41 0.04 27.19 0.05 C31.72 0.06 36.25 0.07 40.78 0.07 C47.67 0.08 54.56 0.1 61.45 0.12 C61.45 15.63 61.45 31.14 61.45 47.12 C40 47.12 18.55 47.12 -3.55 47.12 C-3.57 39.55 -3.59 31.98 -3.61 24.18 C-3.62 21.79 -3.63 19.4 -3.64 16.93 C-3.64 15.05 -3.65 13.16 -3.65 11.28 C-3.65 10.29 -3.66 9.3 -3.66 8.29 C-3.66 7.35 -3.66 6.42 -3.66 5.46 C-3.67 4.64 -3.67 3.83 -3.67 2.99 C-3.48 0.04 -2.96 0.14 0 0 Z " fill="#010001" transform="translate(98.54994201660156,119.87974548339844)"/>
<path d="M0 0 C0.57 0 0.57 0 3.44 0.01 C4.72 0.01 6 0.01 7.32 0.01 C8.73 0.01 10.14 0.02 11.55 0.02 C12.98 0.02 14.41 0.03 15.85 0.03 C19.63 0.03 23.41 0.04 27.19 0.05 C31.72 0.06 36.25 0.07 40.78 0.07 C47.67 0.08 54.56 0.1 61.45 0.12 C61.45 15.63 61.45 31.14 61.45 47.12 C40 47.12 18.55 47.12 -3.55 47.12 C-3.57 39.55 -3.59 31.98 -3.61 24.18 C-3.62 21.79 -3.63 19.4 -3.64 16.93 C-3.64 15.05 -3.65 13.16 -3.65 11.28 C-3.65 10.29 -3.66 9.3 -3.66 8.29 C-3.66 7.35 -3.66 6.42 -3.66 5.46 C-3.67 4.64 -3.67 3.83 -3.67 2.99 C-3.48 0.04 -2.96 0.14 0 0 Z M12.45 4.12 C12.45 17.32 12.45 30.52 12.45 44.12 C27.63 44.12 42.81 44.12 58.45 44.12 C58.45 30.92 58.45 17.72 58.45 4.12 C43.27 4.12 28.09 4.12 12.45 4.12 Z " fill="#0D0D0D" transform="translate(98.54994201660156,119.87974548339844)"/>
<path d="M0 0 C47.19 0 94.38 0 143 0 C143 46.86 143 93.72 143 142 C95.81 142 48.62 142 0 142 C0 95.14 0 48.28 0 0 Z M1 2 C1 47.54 1 93.08 1 140 C47.2 140 93.4 140 141 140 C141 94.46 141 48.92 141 2 C94.8 2 48.6 2 1 2 Z " fill="#949494" transform="translate(56,73)"/>
<path d="M0 0 C1.21 -0 2.41 -0.01 3.66 -0.01 C5 -0 6.34 0.01 7.68 0.01 C9.09 0.01 10.5 0.01 11.91 0.01 C15.73 0.01 19.56 0.02 23.39 0.04 C27.39 0.05 31.39 0.05 35.39 0.05 C42.97 0.06 50.54 0.08 58.12 0.1 C66.74 0.12 75.36 0.13 83.99 0.14 C101.73 0.16 119.47 0.2 137.21 0.24 C137.54 0.9 137.87 1.56 138.21 2.24 C90.69 2.24 43.17 2.24 -5.79 2.24 C-5.66 71.99 -5.66 71.99 -5.61 94.03 C-5.6 102.9 -5.6 102.9 -5.6 107.05 C-5.6 109.95 -5.59 112.85 -5.58 115.76 C-5.56 119.46 -5.56 123.16 -5.56 126.86 C-5.56 128.86 -5.55 130.86 -5.54 132.87 C-5.54 134.05 -5.55 135.23 -5.55 136.44 C-5.55 137.47 -5.55 138.5 -5.54 139.56 C-5.79 142.28 -6.39 143.92 -7.79 146.24 C-9.54 144.49 -8.92 142.08 -8.93 139.7 C-8.94 138.5 -8.94 137.3 -8.95 136.06 C-8.95 134.72 -8.95 133.38 -8.95 132.03 C-8.96 130.63 -8.96 129.22 -8.97 127.81 C-8.98 123.99 -8.99 120.16 -8.99 116.33 C-8.99 113.94 -9 111.55 -9 109.16 C-9.01 101.69 -9.02 94.23 -9.03 86.76 C-9.03 78.12 -9.05 69.49 -9.08 60.85 C-9.1 54.19 -9.11 47.52 -9.11 40.86 C-9.11 36.87 -9.12 32.89 -9.14 28.9 C-9.15 25.16 -9.16 21.41 -9.15 17.66 C-9.15 16.29 -9.15 14.91 -9.16 13.53 C-9.17 11.65 -9.17 9.78 -9.16 7.9 C-9.16 6.85 -9.16 5.8 -9.16 4.72 C-9.04 3.9 -8.92 3.08 -8.79 2.24 C-5.34 -0.06 -4.07 -0.01 0 0 Z " fill="#201519" transform="translate(61.78959655761719,70.75949096679688)"/>
<path d="M0 0 C0.33 0.17 0.33 0.17 2 1 C2 47.86 2 94.72 2 143 C-46.18 143 -94.36 143 -144 143 C-143.84 142.34 -143.84 142.34 -143 139 C-143 139.66 -143 140.32 -143 141 C-95.81 141 -48.62 141 0 141 C0 94.47 0 47.94 0 0 Z " fill="#080A09" transform="translate(199,74)"/>
<path d="M0 0 C3.63 0 7.26 0 11 0 C11 12.87 11 25.74 11 39 C7.37 39 3.74 39 0 39 C0 26.13 0 13.26 0 0 Z " fill="#F8F8F8" transform="translate(99,124)"/>
<path d="M0 0 C0.36 0 0.36 0 2.2 0.01 C2.96 0.01 3.72 0.01 4.51 0.01 C7.03 0.01 9.56 0.02 12.09 0.03 C13.83 0.03 15.58 0.03 17.33 0.03 C21.94 0.03 26.54 0.04 31.15 0.06 C35.85 0.07 40.55 0.07 45.25 0.08 C54.47 0.09 63.7 0.1 72.93 0.12 C72.93 1.77 72.93 3.42 72.93 5.12 C47.19 5.12 21.45 5.12 -5.07 5.12 C-5.4 3.8 -5.73 2.48 -6.07 1.12 C-4.38 -0.57 -2.26 0 0 0 Z " fill="#5B5B5B" transform="translate(94.07440185546875,184.87557983398438)"/>
<path d="M0 0 C4.95 0 9.9 0 15 0 C15 13.53 15 27.06 15 41 C13.02 41.16 13.02 41.16 3 42 C13.06 42.16 13.06 42.16 64 43 C64 43.33 64 43.66 64 44 C42.55 44 21.1 44 -1 44 C-0.67 43.01 -0.34 42.02 0 41 C0.09 39.63 0.12 38.26 0.11 36.9 C0.11 36.49 0.11 36.49 0.11 34.41 C0.11 33.53 0.1 32.65 0.1 31.74 C0.1 30.83 0.09 29.93 0.09 28.99 C0.09 26.1 0.08 23.21 0.06 20.31 C0.06 18.35 0.05 16.39 0.05 14.43 C0.04 9.62 0.02 4.81 0 0 Z M3 1 C3 13.87 3 26.74 3 40 C6.63 40 10.26 40 14 40 C14 27.13 14 14.26 14 1 C10.37 1 6.74 1 3 1 Z " fill="#5A5A5A" transform="translate(96,123)"/>
<path d="M0 0 C16.5 0 33 0 50 0 C50 9.57 50 19.14 50 29 C48.68 29 47.36 29 46 29 C46 19.76 46 10.52 46 1 C30.82 1 15.64 1 0 1 C0 0.67 0 0.34 0 0 Z " fill="#19090F" transform="translate(170,43)"/>
<path d="M0 0 C1.32 0 2.64 0 4 0 C4 13.2 4 26.4 4 40 C2.68 40 1.36 40 0 40 C0 26.8 0 13.6 0 0 Z " fill="#0B0B0B" transform="translate(111,124)"/>
</svg>
