<svg width="256" height="256" viewBox="0 0 256 256" fill="none" xmlns="http://www.w3.org/2000/svg">
<rect width="256" height="256" fill="white"/>
<path d="M100.663 61.856C76.739 62.4467 61.3312 63.7266 54.8826 65.5972C42.6253 69.1415 36.915 76.87 34.6506 93.0162C33.0754 103.944 33.3215 148.593 34.946 162.622C36.7673 177.882 42.4283 186.546 52.8151 189.992C57.2454 191.469 64.6786 192.798 72.604 193.585C81.4647 194.422 155.452 194.422 173.764 193.585C196.703 192.502 207.435 189.943 212.8 184.232C220.578 175.864 222.842 161.49 222.35 123.192C221.956 89.8165 220.184 79.922 213.145 72.2427C209.059 67.7631 203.792 65.548 194.193 64.2189C180.065 62.3483 170.613 61.9545 138.321 61.8068C120.846 61.7576 103.912 61.8068 100.663 61.856ZM156.732 97.4465C156.879 97.6927 150.627 108.769 142.801 122.06L128.574 146.23H142.801H157.076L156.928 152.481L156.781 158.782H127.983H99.1861L99.0385 152.481L98.8908 146.23H113.166H127.393L113.166 122.06C105.339 108.769 99.0877 97.6927 99.2354 97.4465C99.5799 96.8558 156.387 96.8558 156.732 97.4465Z" fill="#FF4C41"/>
</svg>
