<svg width="256" height="256" viewBox="0 0 256 256" fill="none" xmlns="http://www.w3.org/2000/svg">
<rect width="256" height="256" fill="#175476"/>
<g filter="url(#filter0_d_1102_4525)">
<path d="M127.9 227.398C182.852 227.398 227.4 182.851 227.4 127.898C227.4 72.9461 182.852 28.3984 127.9 28.3984C72.9477 28.3984 28.4 72.9461 28.4 127.898C28.4 182.851 72.9477 227.398 127.9 227.398Z" fill="url(#paint0_linear_1102_4525)"/>
<path d="M127.9 201.633C168.81 201.633 201.974 168.468 201.974 127.558C201.974 86.6485 168.81 53.4844 127.9 53.4844C86.99 53.4844 53.8259 86.6485 53.8259 127.558C53.8259 168.468 86.99 201.633 127.9 201.633Z" stroke="white" stroke-width="10" stroke-miterlimit="10"/>
<path d="M188.922 109.421C196.889 112.133 205.534 107.895 208.246 99.9283C210.958 91.9616 206.72 83.3167 198.754 80.6047C190.787 77.8926 182.142 82.1302 179.43 90.097C176.718 98.0638 180.955 106.709 188.922 109.421Z" fill="white"/>
<path d="M193.838 95.1797L142.817 137.556" stroke="white" stroke-width="10" stroke-miterlimit="10"/>
<path d="M159.937 182.654C159.259 190.96 165.361 198.418 173.836 199.266C182.311 199.944 189.6 193.841 190.448 185.366C191.126 177.06 185.024 169.602 176.548 168.755C168.073 168.077 160.615 174.179 159.937 182.654Z" fill="white"/>
<path d="M175.023 184.007L142.817 137.562" stroke="white" stroke-width="10" stroke-miterlimit="10"/>
<path d="M130.104 145.869C134.68 152.988 144.173 155.022 151.122 150.445C158.242 145.869 160.276 136.376 155.699 129.427C151.122 122.307 141.63 120.273 134.68 124.85C127.561 129.257 125.527 138.749 130.104 145.869Z" fill="white"/>
<path d="M64.3353 132.474C57.0465 128.237 47.7237 130.61 43.486 137.729C39.2484 145.018 41.6215 154.341 48.7407 158.578C56.0295 162.816 65.3523 160.443 69.59 153.324C73.8276 146.204 71.4545 136.882 64.3353 132.474Z" fill="white"/>
<path d="M56.538 147.529L142.817 139.562" stroke="white" stroke-width="10" stroke-miterlimit="10"/>
</g>
<defs>
<filter id="filter0_d_1102_4525" x="16" y="20" width="224.8" height="224.801" filterUnits="userSpaceOnUse" color-interpolation-filters="sRGB">
<feFlood flood-opacity="0" result="BackgroundImageFix"/>
<feColorMatrix in="SourceAlpha" type="matrix" values="0 0 0 0 0 0 0 0 0 0 0 0 0 0 0 0 0 0 127 0" result="hardAlpha"/>
<feOffset dy="4"/>
<feGaussianBlur stdDeviation="5"/>
<feComposite in2="hardAlpha" operator="out"/>
<feColorMatrix type="matrix" values="0 0 0 0 0 0 0 0 0 0 0 0 0 0 0 0 0 0 0.25 0"/>
<feBlend mode="normal" in2="BackgroundImageFix" result="effect1_dropShadow_1102_4525"/>
<feBlend mode="normal" in="SourceGraphic" in2="effect1_dropShadow_1102_4525" result="shape"/>
</filter>
<linearGradient id="paint0_linear_1102_4525" x1="127.842" y1="227.283" x2="127.842" y2="28.3984" gradientUnits="userSpaceOnUse">
<stop stop-color="#0882C8"/>
<stop offset="1" stop-color="#26B6DB"/>
</linearGradient>
</defs>
</svg>
