<svg width="256" height="256" viewBox="0 0 256 256" fill="none" xmlns="http://www.w3.org/2000/svg">
<g clip-path="url(#clip0_4_290)">
<rect width="256" height="256" fill="url(#paint0_linear_4_290)"/>
<g filter="url(#filter0_d_4_290)">
<path d="M181.228 66.6295C171.118 66.3166 165.879 71.0486 164.614 71.4875C165.765 69.3076 166.535 67.9342 169.478 64.8693C159.467 64.7644 150.184 66.9311 143.101 73.5571C133.601 82.4435 134.34 89.8061 134.321 89.7698C134.322 89.7735 132.822 84.9686 132.372 79.8294C122.034 94.1394 117.952 113.1 125.79 127.245C130.655 115.508 138.381 105.392 148.337 97.4162C148.665 89.0465 152.032 81.975 157.354 76.754C152.551 82.5023 150.432 89.0511 150.646 95.6514C162.227 87.0118 176.42 81.2536 192.011 79.3641C180.723 81.4384 170.496 85.9374 161.557 92.0738C167.152 94.6291 173.542 95.0297 180.257 92.6908C173.819 95.7082 166.671 96.2018 159.441 93.5738C153.023 98.2735 147.316 103.826 142.41 109.929C151.119 112.776 160.645 112.187 170.125 107.356C161.423 112.977 151.199 115.085 140.275 112.691C135.92 118.536 132.269 124.813 129.416 131.283C132.931 133.874 148.182 142.003 174.342 122.712C170.648 121.62 167.655 120.077 167.653 120.074C167.737 120.111 170.349 120.351 177.99 115.774C184.746 111.823 190.557 104.667 194.847 99.0971C191.198 97.7527 188.356 96.3417 188.355 96.3384C188.353 96.3366 193.07 96.6559 200.388 91.0541C206.915 86.0575 214.201 78.8144 214.224 79.019C214.27 79.0626 198.15 67.1521 181.228 66.6295Z" fill="url(#paint1_linear_4_290)"/>
<path d="M64.6968 92.6525C72.3697 90.422 77.2555 92.9971 78.3055 93.0818C77.0193 91.6468 76.1745 90.7518 73.3534 88.9959C80.9886 86.9429 88.4895 86.7647 95.1388 90.4198C104.057 95.3219 104.863 101.08 104.871 101.049C104.87 101.052 105.123 97.0934 104.511 93.087C115.079 101.958 121.731 115.607 118.371 127.934C112.466 119.946 104.676 113.758 95.5779 109.639C93.769 103.324 89.8775 98.5967 84.8364 95.6658C89.5788 99.101 92.418 103.676 93.4839 108.749C83.0207 104.445 71.0965 102.853 58.8237 104.485C67.8408 103.842 86.9409 105.149 102.439 118.009C96.3111 121.896 88.918 123.325 80.7706 121.51C88.4707 124.079 96.6799 123.672 104.587 119.694C109.005 123.291 112.965 127.357 116.351 131.726C114.146 134.394 103.999 143.596 80.4048 134.046C83.026 132.486 85.0272 130.719 85.028 130.717C84.9715 130.762 83.0185 131.46 76.3231 129.477C70.4228 127.797 64.6478 123.486 60.3301 120.085C62.8699 118.342 64.7805 116.706 64.7805 116.703C64.7813 116.702 61.2345 117.875 54.5965 115.047C48.6751 112.524 41.755 108.439 41.7761 108.599C41.749 108.642 51.8568 96.3855 64.6968 92.6525Z" fill="url(#paint2_linear_4_290)"/>
<path d="M119.775 198.15C114.179 192.943 113.94 187.641 113.499 186.735C112.932 188.508 112.599 189.647 112.513 192.843C107.083 187.579 103.279 181.494 103.079 174.203C102.811 164.426 107.209 160.899 107.179 160.908C107.183 160.908 103.766 162.668 100.731 165.164C102.961 152.053 111.075 139.791 122.969 136.426C119.201 145.259 117.849 154.748 118.856 164.285C114.484 168.914 112.448 174.467 112.466 180.074C113.013 174.463 115.435 169.851 119.136 166.451C120.655 177.203 125.143 187.81 132.482 197.099C127.553 189.997 119.33 173.627 122.477 154.474C128.697 157.587 133.49 162.96 135.951 170.57C134.336 162.954 129.996 156.399 122.832 151.869C123.671 146.445 125.125 141.164 127.109 136.203C130.404 136.692 143.006 140.467 146.559 164.636C143.984 163.254 141.539 162.486 141.536 162.487C141.602 162.511 143.134 163.771 144.747 170.268C146.225 175.96 145.454 182.857 144.728 188.102C142.039 186.878 139.747 186.119 139.746 186.121C139.744 186.121 142.448 188.457 143.331 195.327C144.118 201.455 144.092 209.182 144.215 209.085C144.263 209.086 129.139 206.861 119.775 198.15" fill="url(#paint3_linear_4_290)"/>
</g>
</g>
<defs>
<filter id="filter0_d_4_290" x="-6.22398" y="46.8657" width="268.448" height="240.22" filterUnits="userSpaceOnUse" color-interpolation-filters="sRGB">
<feFlood flood-opacity="0" result="BackgroundImageFix"/>
<feColorMatrix in="SourceAlpha" type="matrix" values="0 0 0 0 0 0 0 0 0 0 0 0 0 0 0 0 0 0 127 0" result="hardAlpha"/>
<feOffset dy="30"/>
<feGaussianBlur stdDeviation="24"/>
<feComposite in2="hardAlpha" operator="out"/>
<feColorMatrix type="matrix" values="0 0 0 0 1 0 0 0 0 1 0 0 0 0 1 0 0 0 0.08 0"/>
<feBlend mode="normal" in2="BackgroundImageFix" result="effect1_dropShadow_4_290"/>
<feBlend mode="normal" in="SourceGraphic" in2="effect1_dropShadow_4_290" result="shape"/>
</filter>
<linearGradient id="paint0_linear_4_290" x1="128" y1="0" x2="128" y2="256" gradientUnits="userSpaceOnUse">
<stop stop-color="#1D1D1D"/>
<stop offset="1"/>
</linearGradient>
<linearGradient id="paint1_linear_4_290" x1="167.96" y1="64.8657" x2="167.96" y2="135.204" gradientUnits="userSpaceOnUse">
<stop stop-color="white"/>
<stop offset="1" stop-color="#DEDEDE"/>
</linearGradient>
<linearGradient id="paint2_linear_4_290" x1="80.512" y1="87.5415" x2="80.512" y2="138.284" gradientUnits="userSpaceOnUse">
<stop stop-color="white"/>
<stop offset="1" stop-color="#DEDEDE"/>
</linearGradient>
<linearGradient id="paint3_linear_4_290" x1="123.645" y1="136.203" x2="123.645" y2="209.086" gradientUnits="userSpaceOnUse">
<stop stop-color="white"/>
<stop offset="1" stop-color="#DEDEDE"/>
</linearGradient>
<clipPath id="clip0_4_290">
<rect width="256" height="256" fill="white"/>
</clipPath>
</defs>
</svg>
