<svg width="256" height="256" viewBox="0 0 256 256" fill="none" xmlns="http://www.w3.org/2000/svg">
<rect width="256" height="256" fill="#FDFEFE"/>
<path d="M93.2771 63.3776C91.516 64.0233 89.8137 65.3442 88.9038 66.7824C87.5242 68.925 87.2014 70.5687 87.2014 75.0595V79.11L86.4676 79.2568C86.0567 79.3448 85.4109 79.4622 85.0294 79.5503C83.9433 79.7558 82.4758 81.1353 81.8887 82.4855C81.3604 83.6008 81.3311 85.538 81.3311 125.251V166.871H64.6007H47.8703V165.11V163.349H60.3447C73.6703 163.349 74.1106 163.32 74.8737 161.911C75.2846 161.118 75.2553 150.963 74.8444 150.053C74.6683 149.642 74.1986 149.172 73.7877 148.996C73.3181 148.791 69.0915 148.673 60.4621 148.673H47.841L47.929 146.824L48.0171 145.004L60.873 144.857L73.7584 144.711L74.4628 143.889C75.1672 143.067 75.1672 142.95 75.1672 137.52C75.1672 132.09 75.1672 131.972 74.4628 131.15L73.7584 130.328L60.8143 130.24L47.8703 130.152V128.421V126.66H60.3447C73.6703 126.66 74.1106 126.63 74.8737 125.221C75.0498 124.869 75.1672 122.345 75.1672 119.116C75.1672 113.246 75.2259 113.627 73.9051 112.219C73.8758 112.189 68.0348 112.072 60.9317 111.984L48.0171 111.837L47.841 98.9517L47.6648 86.0663L46.7256 85.2151C44.9058 83.5715 42.7044 84.5401 42.2642 87.211C42.1468 88.0035 42.0294 94.4902 42.0294 101.652C42 115.477 42.0587 116.21 43.4089 116.944C43.8198 117.15 47.6942 117.267 55.0027 117.267C61.0491 117.267 66.802 117.355 67.8 117.443L69.6198 117.649L69.5317 119.292L69.4437 120.936L56.5877 121.083L43.7024 121.229L43.0273 122.022C42.1761 122.991 41.9119 125.515 42.0587 130.563L42.1468 134.056L43.1154 134.907L44.0546 135.758H56.8225H69.5904V137.52V139.281H57.2628C43.9666 139.281 43.3502 139.339 42.5577 140.807C42.3229 141.247 42.1468 143.214 42.0587 146.325C41.9413 150.287 42 151.374 42.3816 152.283C43.2034 154.25 43.3208 154.25 57.2628 154.25H69.5904V156.011V157.772H56.8519H44.084L43.3208 158.447C42.2935 159.328 42.0294 160.766 42 165.785C42 170.276 42.3229 171.509 43.6437 172.125C44.172 172.36 49.6314 172.448 62.6928 172.448H81.0082L81.6539 173.915C82.4171 175.735 83.8846 177.056 85.3522 177.291C85.9686 177.408 86.6143 177.526 86.8198 177.584C87.0546 177.672 87.172 179.14 87.2601 182.339C87.3481 186.625 87.4068 187.094 88.1113 188.621C89.0212 190.558 90.5474 192.113 92.4259 193.023C94.5392 194.08 97.9147 194.021 100.175 192.906C101.965 192.025 103.257 190.734 104.284 188.797C104.9 187.711 104.988 187.036 105.106 182.574L105.253 177.584L106.456 177.496L107.689 177.408L107.806 182.193C107.924 186.361 108.012 187.182 108.599 188.444C110.506 192.73 115.526 194.931 119.811 193.317C122.1 192.436 123.685 190.969 124.83 188.679C125.769 186.771 125.769 186.625 125.887 182.075L126.004 177.438H127.119C128.147 177.438 128.235 177.496 128.411 178.553C128.499 179.14 128.587 181.224 128.587 183.191C128.587 187.652 128.998 189.032 131.053 191.115C134.663 194.784 140.063 194.784 143.703 191.115C145.875 188.943 146.257 187.711 146.433 182.046L146.55 177.408L147.783 177.496L148.986 177.584L149.133 182.574C149.28 187.27 149.339 187.652 150.072 189.061C151.07 190.939 152.861 192.524 154.915 193.287C159.171 194.872 163.985 192.877 166.069 188.65C166.803 187.153 166.861 186.683 167.008 182.31L167.184 177.584H168.358H169.532L169.679 182.574C169.826 187.417 169.855 187.593 170.706 189.149C173.554 194.315 180.158 195.43 184.502 191.468C186.938 189.266 187.378 187.946 187.554 182.281L187.73 177.584H188.904H190.079L190.225 182.427C190.372 186.801 190.431 187.417 191.106 188.738C191.487 189.53 192.397 190.763 193.072 191.438C197.358 195.577 204.578 194.168 207.279 188.65C207.895 187.447 207.983 186.713 208.13 182.457L208.276 177.614L209.832 177.291C211.564 176.88 212.943 175.794 213.589 174.297C213.941 173.505 214 165.932 214 128.362C214 85.1271 213.971 83.3073 213.442 82.1626C212.738 80.6363 211.446 79.6971 209.656 79.4622L208.276 79.2568L208.13 74.4138C207.954 68.9837 207.631 67.8684 205.694 65.6964C203.962 63.7885 202.259 63.1134 199.177 63.1134C197.005 63.1134 196.301 63.2308 195.303 63.7885C193.366 64.8158 192.074 66.0779 191.194 67.8977C190.401 69.4827 190.372 69.8056 190.284 74.3257L190.167 79.0807L189.139 79.2861C188.582 79.4035 188.024 79.3742 187.877 79.2274C187.76 79.0807 187.584 76.85 187.525 74.267C187.437 69.8349 187.378 69.4827 186.615 67.8977C185.734 66.0779 184.443 64.8158 182.506 63.7885C180.686 62.8199 176.547 62.8199 174.669 63.7885C172.878 64.7278 171.528 66.0486 170.618 67.8097C169.885 69.1892 169.826 69.5414 169.738 74.179L169.62 79.0807L168.593 79.2861C168.035 79.4035 167.478 79.3742 167.331 79.2274C167.214 79.0807 167.038 76.9087 166.979 74.4138C166.891 70.2752 166.803 69.7175 166.128 68.25C164.543 64.8745 162.224 63.2602 158.643 63.0254C154.71 62.7906 151.628 64.581 149.984 68.1032C149.162 69.8056 149.133 70.0111 149.133 74.4725V79.0807L148.076 79.2861C147.519 79.3742 146.932 79.3742 146.785 79.2274C146.668 79.0807 146.491 76.9087 146.433 74.4138C146.315 70.2752 146.257 69.7175 145.552 68.2206C144.085 65.0213 141.56 63.2602 138.097 63.0254C135.338 62.8493 133.459 63.4657 131.522 65.2268C128.998 67.4868 128.763 68.1913 128.587 73.9442L128.44 78.9046L127.618 79.1981C126.092 79.6971 126.033 79.5209 125.887 74.6486C125.711 69.4534 125.358 68.1032 123.539 66.0486C122.893 65.3148 121.748 64.3462 121.014 63.9059C119.782 63.2015 119.371 63.1134 116.846 63.1134C114.146 63.1134 113.97 63.1428 112.326 64.1407C110.448 65.2855 109.479 66.4008 108.54 68.4848C108.012 69.6588 107.924 70.5687 107.806 74.4725L107.689 79.0807L106.808 79.2568C105.253 79.609 105.106 79.1981 105.106 74.4431C105.106 68.9837 104.783 67.8684 102.494 65.579C101.378 64.4636 100.38 63.7885 99.4116 63.4657C97.6799 62.8786 94.8328 62.8493 93.2771 63.3776ZM98.6191 69.5708L99.529 70.6274V74.8247C99.529 78.9633 99.529 79.0513 98.8833 79.2274C97.6505 79.5503 93.5119 79.4329 93.1304 79.0513C92.602 78.523 92.6608 71.7428 93.1891 70.4807C93.7468 69.1305 94.7154 68.5435 96.3297 68.5435C97.5331 68.5435 97.8266 68.6609 98.6191 69.5708ZM118.784 69.0718C119.899 69.9817 120.075 70.7155 120.075 74.9421C120.075 78.9339 120.046 79.0513 119.429 79.2274C118.197 79.5503 114.058 79.4329 113.676 79.0513C113.266 78.6404 113.207 72.7994 113.618 71.0384C113.999 69.3947 115.056 68.5435 116.788 68.5435C117.639 68.5435 118.402 68.7489 118.784 69.0718ZM139.682 69.3947C140.739 70.4807 140.915 71.2732 140.915 75.4704C140.915 79.4916 140.944 79.4622 137.011 79.3448L134.311 79.2568L134.223 75.2943C134.193 73.1223 134.223 71.009 134.311 70.6568C134.839 68.4848 138.038 67.751 139.682 69.3947ZM159.964 69.0131C161.138 69.8643 161.461 71.1264 161.461 75.265V79.0807L160.522 79.2568C159.993 79.3448 158.496 79.4035 157.205 79.3448L154.857 79.2568L154.769 75.2943C154.681 70.6861 154.739 70.3633 155.767 69.336C156.383 68.6902 156.823 68.5435 157.909 68.5435C158.702 68.5435 159.553 68.7489 159.964 69.0131ZM180.481 69.0131C181.772 69.8936 182.007 70.8916 182.007 75.1182V79.0807L181.068 79.2568C180.539 79.3448 179.042 79.4035 177.751 79.3448L175.403 79.2568L175.315 74.9128L175.227 70.5687L176.254 69.5414C177.076 68.7196 177.457 68.5435 178.543 68.5435C179.248 68.5435 180.128 68.7489 180.481 69.0131ZM201.027 69.0131C202.318 69.8936 202.553 70.8916 202.553 75.0889C202.553 78.9339 202.524 79.0513 201.907 79.2274C200.909 79.4916 196.595 79.4329 196.154 79.1394C195.831 78.9633 195.773 77.936 195.861 74.5899L195.949 70.2459L196.917 69.3947C198.003 68.3967 199.911 68.2206 201.027 69.0131ZM206.633 84.8629L208.423 85.0684V128.45V171.861L147.754 171.802L87.0546 171.714L86.9666 128.45C86.9079 94.0206 86.9666 85.1271 87.2601 84.9216C87.7003 84.6575 203.991 84.5988 206.633 84.8629ZM99.529 181.84C99.529 186.243 99.529 186.243 98.7072 187.153C98.0908 187.857 97.5625 188.092 96.5352 188.21C95.3024 188.356 95.0969 188.268 94.0696 187.329L92.9249 186.302L92.8369 182.31C92.7782 180.109 92.8075 178.113 92.8956 177.878C93.013 177.526 93.7174 177.438 96.3003 177.438H99.529V181.84ZM120.075 181.87V186.302L119.077 187.3C118.285 188.092 117.844 188.298 116.905 188.298C115.526 188.298 114.322 187.447 113.735 186.067C113.324 185.069 113.148 178.847 113.5 177.907C113.647 177.526 114.234 177.438 116.876 177.438H120.075V181.87ZM140.856 181.107C140.973 185.186 140.68 186.478 139.418 187.535C138.068 188.679 136.453 188.591 135.162 187.3L134.164 186.302V181.87V177.408L137.481 177.496L140.768 177.584L140.856 181.107ZM161.314 181.928V186.302L160.169 187.329C159.142 188.268 158.937 188.356 157.704 188.21C156.676 188.092 156.148 187.857 155.532 187.153C154.71 186.243 154.71 186.214 154.71 182.046C154.71 179.727 154.798 177.731 154.915 177.614C155.033 177.526 156.5 177.467 158.203 177.496L161.314 177.584V181.928ZM181.948 181.606C182.007 184.805 181.919 185.832 181.567 186.537C180.51 188.562 177.545 188.855 176.078 187.094C175.256 186.126 175.256 186.067 175.256 181.987C175.256 179.698 175.344 177.731 175.461 177.614C175.579 177.526 177.046 177.467 178.749 177.496L181.86 177.584L181.948 181.606ZM202.494 181.606C202.582 186.126 202.318 187.065 200.792 187.857C199.119 188.709 197.299 188.268 196.389 186.771C195.89 185.92 195.802 185.275 195.802 181.811C195.802 179.61 195.89 177.731 196.008 177.614C196.125 177.526 197.592 177.467 199.295 177.496L202.406 177.584L202.494 181.606Z" fill="#101011"/>
<path d="M146.051 104.97C145.141 105.469 120.075 130.535 119.605 131.416C119.077 132.443 119.077 132.824 119.752 133.705C120.251 134.351 120.603 134.439 122.922 134.586L125.505 134.732L125.652 143.567C125.799 151.756 125.828 152.49 126.356 153.048C126.914 153.664 126.973 153.664 146.932 153.664H166.949L167.566 152.989C168.212 152.314 168.212 152.108 168.212 144.095C168.212 139.605 168.3 135.613 168.388 135.261C168.534 134.703 168.799 134.644 171.059 134.527C173.26 134.439 173.612 134.351 174.111 133.734C175.197 132.414 174.904 131.827 171.44 128.275L168.212 124.958V119.704C168.212 113.012 168.3 113.159 164.132 113.159C160.874 113.159 160.345 113.452 159.993 115.448L159.817 116.534L153.8 110.576C150.102 106.936 147.548 104.647 147.196 104.647C146.902 104.647 146.374 104.794 146.051 104.97Z" fill="#101011"/>
</svg>
