<svg width="256" height="256" viewBox="0 0 256 256" fill="none" xmlns="http://www.w3.org/2000/svg">
<rect width="256" height="256" fill="white"/>
<g clip-path="url(#clip0_1663_550)">
<path d="M128.461 43.6467C77.83 43.6467 36.7852 84.6915 36.7852 135.323C36.8034 156.711 44.299 177.419 57.9745 193.864C58.2385 193.422 58.5356 193.002 58.872 192.602C63.9902 186.523 69.7811 181.916 78.694 172.46C82.6562 168.257 85.3284 188.813 86.6909 187.431C88.0764 186.025 86.845 167.551 90.3592 161.616C96.6955 150.915 101.588 142.713 113.728 129.594C116.704 126.377 119.517 141.336 120.849 139.257C122.044 137.392 120.567 119.754 122.488 114.385C127.595 100.107 126.006 100.564 138.79 81.556C140.985 78.2923 145.586 89.8633 146.339 88.1753C147.072 86.5292 145.458 76.5297 145.636 71.6396C146.025 68.3441 149.406 57.9768 153.698 47.1922C145.492 44.8411 136.998 43.6475 128.462 43.646L128.461 43.6467ZM173.598 55.5278C179.422 119.971 154.32 181.808 107.899 224.652C114.643 226.206 121.542 226.992 128.462 226.994C179.094 226.994 220.139 185.949 220.139 135.317C220.138 102.276 202.358 71.7911 173.598 55.5232V55.5278Z" fill="url(#paint0_linear_1663_550)"/>
<path d="M128.461 43.6467C77.83 43.6467 36.7852 84.6915 36.7852 135.323C36.8034 156.711 44.299 177.419 57.9745 193.864C58.2385 193.422 58.5356 193.002 58.872 192.602C63.9902 186.523 69.7811 181.916 78.694 172.46C82.6562 168.257 85.3284 188.813 86.6909 187.431C88.0764 186.025 86.845 167.551 90.3592 161.616C96.6955 150.915 101.588 142.713 113.728 129.594C116.704 126.377 119.517 141.336 120.849 139.257C122.044 137.392 120.567 119.754 122.488 114.385C127.595 100.107 126.006 100.564 138.79 81.556C140.985 78.2923 145.586 89.8633 146.339 88.1753C147.072 86.5292 145.458 76.5297 145.636 71.6396C146.025 68.3441 149.406 57.9768 153.698 47.1922C145.492 44.8411 136.998 43.6475 128.462 43.646L128.461 43.6467ZM173.598 55.5278C179.422 119.971 154.32 181.808 107.899 224.652C114.643 226.206 121.542 226.992 128.462 226.994C179.094 226.994 220.139 185.949 220.139 135.317C220.138 102.276 202.358 71.7911 173.598 55.5232V55.5278Z" fill="url(#paint1_linear_1663_550)"/>
<path d="M167.293 20.1597C159.226 29.9927 146.419 65.0306 145.64 71.6386C145.462 76.5284 147.076 86.5276 146.343 88.1743C145.59 89.8623 140.989 78.2915 138.794 81.5552C126.01 100.563 127.599 100.106 122.492 114.384C120.571 119.753 122.047 137.391 120.853 139.256C119.521 141.335 116.707 126.377 113.732 129.593C101.592 142.713 96.6999 150.914 90.3628 161.615C86.8487 167.55 88.0803 186.024 86.6947 187.43C85.3322 188.813 82.6598 168.257 78.6977 172.459C69.7845 181.915 63.9939 186.522 58.8757 192.601C53.4373 199.061 58.057 210.998 53.5742 229.62L53.7257 229.851C134.753 177.217 159.939 96.8122 166.311 40.2842C165.599 107.17 135.541 189.665 56.1111 233.471L56.229 233.651C77.4059 231.369 79.5674 244.592 102.851 229.169C161.223 178.66 188.492 99.1324 167.292 20.1522L167.293 20.1597Z" fill="url(#paint2_linear_1663_550)"/>
</g>
<defs>
<linearGradient id="paint0_linear_1663_550" x1="71.426" y1="217.255" x2="174.443" y2="20.1598" gradientUnits="userSpaceOnUse">
<stop stop-color="#4F00DA"/>
<stop offset="1" stop-color="#E5311B"/>
</linearGradient>
<linearGradient id="paint1_linear_1663_550" x1="83.6868" y1="217.014" x2="219.84" y2="59.6813" gradientUnits="userSpaceOnUse">
<stop stop-color="#72004E"/>
<stop offset="1" stop-color="#0015B1"/>
</linearGradient>
<linearGradient id="paint2_linear_1663_550" x1="52.4032" y1="236.789" x2="178.999" y2="18.0869" gradientUnits="userSpaceOnUse">
<stop stop-color="#DC180D"/>
<stop offset="0.5" stop-color="#F96E20"/>
<stop offset="1" stop-color="#F4CE41"/>
</linearGradient>
<clipPath id="clip0_1663_550">
<rect width="216.61" height="216.61" fill="white" transform="translate(20.1602 20.1599)"/>
</clipPath>
</defs>
</svg>
