<?xml version="1.0" encoding="UTF-8"?>
<!-- Generated by Pixelmator Pro 3.6.18 -->
<svg width="700" height="700" viewBox="0 0 700 700" xmlns="http://www.w3.org/2000/svg">
    <path id="Path-copy" fill="#000000" stroke="none" d="M 0 0 L 700 0 L 700 700 L 0 700 Z"/>
    <path id="Path" fill="#000000" stroke="none" d="M 169.599991 531 L 94.800003 456 L 94.800003 244 L 169.599991 169 L 244.399994 94 L 455.700012 94 L 530.5 169 L 605.299988 244 L 605.299988 456 L 530.599976 531 L 455.899994 606 L 244.5 606 Z"/>
    <path id="path1" fill="#fdbe36" stroke="none" d="M 524.700012 525.599976 L 597.399963 452.899994 L 597.399963 247.100006 L 524.700012 174.399963 L 452 101.799988 L 246.100006 101.799988 L 173.5 174.5 L 100.800003 247.100006 L 100.800003 452.899994 L 173.599991 525.700012 L 246.399994 598.5 L 452.200012 598.5 Z"/>
    <path id="path2" fill="#ffffff" stroke="#ffffff" stroke-width="0.7498" d="M 363.100006 255.600006 C 369.399994 255.200012 373.5 254.600006 378.5 253.399994 C 379.799988 253.100006 380.600006 252.799988 380.600006 252.700012 C 380.600006 252.5 379.5 249.200012 378.799988 247.399994 C 377.799988 244.700012 375.700012 239.899994 375.5 239.600006 C 375.399994 239.5 375.100006 239.5 374.700012 239.600006 C 369.200012 240.700012 364.200012 241.299988 358.600006 241.600006 C 355.799988 241.700012 348.799988 241.700012 346.100006 241.600006 C 341.899994 241.399994 336.799988 240.799988 333.600006 240.299988 C 333.100006 240.200012 332.600006 240.200012 332.5 240.200012 C 332 240.700012 327.699982 251.799988 327.899994 252 C 328.100006 252.200012 332.799988 253.299988 335.399994 253.799988 C 340.399994 254.700012 346.699982 255.399994 351.399994 255.600006 C 354.600006 255.799988 360.700012 255.700012 363.100006 255.600006 Z M 365 300.299988 C 371.600006 299.799988 376.899994 298.899994 381.399994 297.5 L 382.799988 297.100006 L 383.200012 295.899994 C 383.899994 293.5 384.5 290.700012 384.899994 288.399994 C 385.100006 286.899994 385.399994 283.799988 385.399994 283 L 385.399994 282.5 L 384.100006 282.899994 C 367.399994 287.700012 343.399994 287.399994 325.399994 282 L 323.899994 281.5 L 324 282.899994 C 324.199982 286.399994 324.699982 290 325.600006 293.399994 C 326.299988 296.200012 326 295.899994 328.100006 296.5 C 335.600006 298.799988 344.5 300.200012 354 300.5 C 356 300.600006 362.700012 300.5 365 300.299988 Z"/>
    <path id="path3" fill="#000000" stroke="none" d="M 265.799988 266.899994 C 272.100006 266.5 277.699982 265.799988 282.799988 264.700012 C 290.399994 263 295.299988 261.100006 298.399994 258.700012 C 302.799988 255.299988 312.600006 246.799988 318.799988 241 C 321.5 238.5 327.399994 232.600006 329.100006 230.600006 C 329.899994 229.700012 330.699982 228.799988 330.899994 228.600006 L 331.299988 228.200012 L 332.299988 230.100006 L 333.299988 232 L 334 232.100006 C 335 232.299988 338.5 232.799988 340.399994 233 C 349 233.899994 358.399994 233.899994 366.600006 232.799988 C 370.200012 232.299988 375.299988 231.399994 375.399994 231.200012 C 376.399994 228.899994 376.700012 228.299988 376.700012 228.299988 C 376.700012 228.299988 377.200012 228.799988 377.799988 229.5 C 384.399994 236.799988 393.700012 245.399994 406.100006 255.700012 C 410.100006 259.100006 410.799988 259.5 413 260.5 C 421.5 264.299988 436.200012 266.700012 449 266.399994 C 466.700012 266 479.700012 261.200012 486.600006 252.600006 C 488.200012 250.600006 489.600006 248 490.5 245.700012 C 491.200012 243.799988 491.299988 243.299988 491.299988 241.200012 C 491.299988 239.5 491.299988 239.200012 491 238.299988 C 490.399994 236.299988 489.399994 234.600006 487.799988 232.700012 C 481.600006 225.399994 468.100006 219 445 212.299988 C 435.899994 209.700012 423 206.5 405.200012 202.399994 C 390.5 199 379.200012 196.299988 378.799988 195.899994 L 377.799988 193.899994 C 376.399994 191.100006 375.100006 189 374.399994 188.299988 L 373.799988 187.799988 L 374.200012 186.599976 C 375.799988 182.099976 376 177.099976 374.799988 172.399963 C 373.200012 166.099976 369.100006 160.700012 363.600006 157.799988 L 362.700012 157.299988 L 365.700012 147 C 367.299988 141.299988 368.700012 136.700012 368.700012 136.700012 C 368.700012 136.700012 372.600006 136.5 377.399994 136.399963 C 383.200012 136.200012 386.100006 136 386.299988 136 C 386.5 135.899963 386.700012 135.700012 386.799988 135.399963 L 387 135 L 386.799988 134.599976 C 386.600006 134.299988 386.5 134.099976 386.200012 134 C 385.899994 133.899963 383.700012 133.899963 377 134.200012 C 372.100006 134.399963 368 134.599976 367.799988 134.599976 C 367.600006 134.599976 367.299988 134.799988 367.200012 134.899963 C 367.100006 135 364.700012 139.799988 362 145.399963 L 357 155.599976 L 356.200012 155.5 C 355.700012 155.5 354.899994 155.399963 354.399994 155.399963 C 353.899994 155.399963 353.100006 155.399963 352.600006 155.5 L 351.799988 155.599976 L 346.799988 145.299988 C 344 139.700012 341.699982 134.899963 341.5 134.799988 C 341.199982 134.5 342 134.5 331.299988 134.099976 C 322.199982 133.799988 322.299988 133.799988 321.899994 134.299988 C 321.600006 134.700012 321.699982 135.099976 322 135.599976 C 322.399994 136 321.299988 136 331.899994 136.399963 L 339.899994 136.700012 L 342.799988 146.700012 C 344.399994 152.200012 345.699982 156.799988 345.699982 157 C 345.799988 157.399963 345.799988 157.399963 345 157.799988 C 340.100006 160.299988 336.100006 165.099976 334.199982 170.700012 C 333.299988 173.399963 333 175.399963 333 178.5 C 333 181.399963 333.399994 183.799988 334.299988 186.5 L 334.699982 187.700012 L 334.100006 188.299988 C 333.199982 189.100006 331.5 192.100006 330.299988 195 L 329.799988 196.200012 L 328.399994 196.600006 C 322.5 198.200012 316.600006 199.700012 304.399994 202.5 C 283.699982 207.200012 272.899994 209.899994 263.5 212.600006 C 239.899994 219.299988 225.899994 225.899994 219.5 233.299988 C 217.899994 235.200012 216.899994 236.899994 216.300003 238.899994 C 215.899994 240.299988 215.800003 242.5 216.099991 244 C 216.800003 247.700012 219.399994 252.200012 222.699997 255.5 C 229.5 262.299988 240.800003 266.200012 255.5 267 C 257.299988 267 264.100006 267 265.799988 266.899994 M 363.799988 277.299988 C 371.399994 276.799988 377.399994 275.799988 383.200012 273.899994 C 384.600006 273.399994 385 273.299988 385 273.100006 C 385 272.700012 384.600006 269.399994 384.399994 267.799988 C 384.100006 265.399994 383 259.899994 382.899994 259.700012 C 382.899994 259.700012 382.299988 259.799988 381.600006 260 C 369.899994 263.100006 353.200012 263.700012 338.699982 261.5 C 334.799988 260.899994 330.100006 260 327.299988 259.200012 C 326.600006 259 326.100006 258.899994 326 258.899994 C 325.799988 259.200012 324.699982 264.799988 324.399994 267.299988 C 324.199982 268.700012 323.799988 271.899994 323.799988 272.200012 C 323.799988 272.5 330.600006 274.399994 334.399994 275.200012 C 339.100006 276.200012 346.5 277.100006 351.200012 277.200012 C 354.200012 277.5 361.5 277.5 363.799988 277.299988 M 356.799988 324 C 359.799988 323.399994 362.399994 322.100006 366.799988 318.799988 C 369.899994 316.399994 373.200012 313.200012 375.5 310.299988 C 376.200012 309.399994 377.799988 307 377.799988 306.899994 C 377.799988 306.899994 377.399994 306.899994 377 307 C 375.200012 307.399994 371.200012 308 368.100006 308.299988 C 360.899994 309 352.299988 309 344.799988 308.299988 C 340 307.799988 334.799988 307 330.799988 306 C 330.100006 305.799988 329.5 305.700012 329.5 305.799988 C 329.5 305.799988 329.699982 306.299988 330.100006 306.899994 C 332.799988 311.299988 336.299988 315.100006 340.5 318.299988 C 342.299988 319.700012 345.600006 321.899994 346.799988 322.5 C 348.100006 323.100006 349.899994 323.799988 351.100006 324 C 352.399994 324.299988 355.399994 324.299988 356.799988 324 M 390.5 437.5 C 392.799988 437.399994 393.100006 437.399994 393.600006 437.200012 C 394.600006 436.799988 395.100006 436 395.200012 434.700012 C 395.299988 433.5 393.899994 354.799988 393.799988 354 C 393.600006 352.399994 392.799988 351.700012 391.299988 351.5 C 390.899994 351.5 387.299988 351.5 383.200012 351.600006 C 375.100006 351.700012 375.100006 351.799988 374.200012 352.399994 C 373.700012 352.799988 373.399994 353.5 373.299988 354.399994 C 373.200012 355.5 374.600006 435.299988 374.700012 435.700012 C 374.899994 436.399994 375.299988 437 375.700012 437.200012 C 376.600006 437.700012 376.700012 437.799988 382.600006 437.700012 C 385.600006 437.600006 389.200012 437.5 390.5 437.5 M 332.5 438.5 C 335.5 438.399994 338.199982 438.299988 338.399994 438.299988 C 339.199982 438.100006 339.899994 437.600006 340.199982 437 C 340.5 436.5 340.5 436.299988 340.5 434.700012 C 340.5 433.700012 340.199982 415.399994 339.799988 394 C 339 350.5 339.199982 354.200012 338.299988 353.299988 C 338 353 337.600006 352.799988 337.100006 352.600006 C 336.5 352.399994 335.899994 352.399994 328.699982 352.5 C 320.5 352.600006 320.199982 352.700012 319.399994 353.200012 C 319.199982 353.299988 318.899994 353.700012 318.699982 354 C 318.399994 354.5 318.399994 354.700012 318.299988 356.299988 C 318.299988 357.299988 318.600006 375.600006 318.899994 397 C 319.5 429.299988 319.600006 436.100006 319.799988 436.5 C 320.199982 437.799988 320.899994 438.299988 322.299988 438.5 C 323.199982 438.700012 323.699982 438.700012 332.5 438.5 M 461.399994 543.599976 C 462.100006 543.200012 462.600006 542.599976 462.700012 541.700012 C 462.799988 541.299988 462.799988 533.099976 462.799988 519.599976 L 462.799988 498.200012 L 469.600006 498.200012 C 473.799988 498.200012 476.600006 498.200012 476.799988 498.100006 C 477.399994 497.899994 478 497.5 478.299988 497 L 478.600006 496.5 L 478.600006 490.200012 C 478.600006 483.299988 478.600006 483.100006 478 482.399994 C 477.799988 482.200012 477.5 482 477.200012 481.799988 L 476.700012 481.600006 L 452.700012 481.600006 C 433 481.600006 428.700012 481.600006 428.299988 481.799988 C 427.700012 482 427.200012 482.399994 426.899994 483 C 426.600006 483.5 426.600006 483.5 426.600006 490 L 426.600006 496.5 L 426.899994 497.100006 C 427.100006 497.5 427.399994 497.799988 427.700012 498 L 428.299988 498.299988 L 442.299988 498.299988 L 442.299988 541.900024 L 442.600006 542.5 C 443 543.299988 443.5 543.700012 444.5 543.900024 L 460.700012 543.900024 Z M 404.5 543.700012 C 404.799988 543.599976 405.200012 543.299988 405.299988 543.099976 C 406 542.299988 406 543.599976 406 519.900024 L 406 498.200012 L 412.799988 498.200012 C 417 498.200012 419.799988 498.200012 420 498.100006 C 420.600006 497.899994 421.200012 497.5 421.5 497 L 421.799988 496.5 L 421.799988 483.5 L 421.5 482.899994 C 421.299988 482.399994 421.100006 482.299988 420.5 482 L 419.799988 481.700012 L 395.799988 481.700012 C 369.700012 481.700012 371.399994 481.700012 370.600006 482.299988 C 369.799988 483 369.799988 483 369.799988 490.100006 C 369.799988 497.100006 369.799988 496.899994 370.5 497.700012 C 371.200012 498.399994 371.299988 498.399994 378.799988 498.399994 L 385.600006 498.399994 L 385.600006 519.599976 C 385.600006 532.599976 385.600006 541.099976 385.700012 541.599976 C 385.899994 543 386.5 543.700012 387.700012 544 C 387.899994 544 391.600006 544.099976 396 544.099976 C 403.799988 543.900024 404 543.900024 404.5 543.700012 M 253.899994 543.700012 C 254.5 543.400024 254.800003 543.099976 255.100006 542.5 L 255.300003 542 L 255.399994 526.200012 L 255.5 510.399994 L 258.199982 515.400024 C 262 522.5 262 522.5 266.199982 522.599976 C 269.600006 522.700012 270.799988 522.5 271.899994 521.599976 C 272.600006 521 272.899994 520.599976 275.699982 515.299988 L 278.199982 510.600006 L 278.299988 526.400024 C 278.399994 541.299988 278.399994 542.200012 278.600006 542.599976 C 278.899994 543.200012 279.299988 543.599976 279.899994 543.900024 C 280.399994 544.099976 281 544.099976 288.199982 544.099976 L 296 544.099976 L 296.600006 543.799988 C 297 543.599976 297.299988 543.299988 297.5 543 L 297.799988 542.400024 L 297.799988 483.399994 L 297.5 482.899994 C 297.299988 482.5 297 482.299988 296.5 482 L 295.799988 481.700012 L 279.600006 481.700012 L 279 482 C 278.299988 482.299988 277.299988 483.200012 276.799988 484.100006 C 276.600006 484.399994 274.699982 487.899994 272.5 491.899994 C 270.299988 495.899994 268.399994 499.299988 268.199982 499.5 C 267.899994 499.899994 267.799988 499.899994 267 499.899994 C 266.100006 499.899994 265.899994 499.799988 265.5 499.200012 C 265.399994 499 263.5 495.600006 261.299988 491.700012 C 259.100006 487.799988 257.100006 484.200012 256.799988 483.799988 C 256.199982 482.899994 255.699997 482.5 254.899994 482.100006 L 254.399994 481.799988 L 238.199997 481.799988 L 237.5 482.100006 C 237 482.299988 236.800003 482.5 236.5 483 L 236.199997 483.5 L 236.199997 513 C 236.199997 541.400024 236.199997 542.5 236.399994 542.900024 C 236.800003 543.599976 237.300003 543.900024 238.100006 544.200012 C 238.300003 544.200012 241.800003 544.299988 245.800003 544.299988 C 252.899994 543.900024 253.5 543.900024 253.899994 543.700012 M 336.899994 480.299988 L 334.5 480.299988 C 328.899994 480.399994 325.899994 480.700012 322.399994 481.600006 C 315.5 483.299988 311.5 486.5 309.899994 491.299988 C 309.399994 492.700012 309.100006 494.399994 309 496 C 308.799988 497.899994 308.799988 527.200012 309 528.700012 C 309.5 533.900024 311.699982 538 315.100006 540.200012 C 317.299988 541.700012 320.799988 542.900024 324.799988 543.599976 L 325.899994 543.799988 L 325.899994 549.599976 L 326.199982 550.299988 C 326.600006 551.099976 327.199982 551.5 328.199982 551.599976 C 328.600006 551.700012 332.100006 551.700012 336.100006 551.700012 C 342.699982 551.700012 343.299988 551.700012 343.799988 551.5 C 344.399994 551.299988 345.100006 550.599976 345.299988 550 C 345.399994 549.700012 345.5 548.400024 345.5 546.700012 C 345.5 545.099976 345.600006 543.799988 345.600006 543.799988 L 347 543.599976 C 355.200012 542.200012 360.100006 538.599976 361.799988 532.900024 C 362.5 530.400024 362.5 531.599976 362.5 513.099976 C 362.5 501.600006 362.5 496 362.399994 495.299988 C 362 492.299988 361.299988 490.200012 360.200012 488.399994 C 358.100006 485.100006 354.5 482.899994 349.100006 481.600006 C 345.600006 480.700012 342.199982 480.299988 336.899994 480.299988 M 336.299988 497.299988 C 337.600006 497.299988 338.899994 497.399994 339.399994 497.5 C 341.600006 497.899994 342.799988 499 343.100006 500.799988 C 343.199982 501.600006 343.199982 524.5 343.100006 525.5 C 343 526.400024 342.600006 527.099976 342 527.700012 C 341.5 528.299988 340.899994 528.5 339.799988 528.799988 C 339.199982 528.900024 338.299988 529 336.199982 529 C 333.199982 529 332 528.900024 330.799988 528.5 C 329.899994 528.200012 329 527.299988 328.699982 526.400024 C 328.5 525.799988 328.5 525.700012 328.5 513.200012 C 328.5 500.799988 328.5 500.600006 328.699982 500 C 329.199982 498.700012 330.199982 498 331.899994 497.600006 C 332.699982 497.299988 334.600006 497.299988 336.299988 497.299988"/>
</svg>
