<svg width="256" height="256" viewBox="0 0 256 256" fill="none" xmlns="http://www.w3.org/2000/svg">
<g clip-path="url(#clip0_1765_977)">
<rect width="256" height="256" fill="#FCFCFC"/>
<g clip-path="url(#clip1_1765_977)">
<path d="M0 0C84.4805 0 168.961 0 256 0C256 84.4805 256 168.961 256 256C171.52 256 87.0391 256 0 256C0 171.52 0 87.0391 0 0Z" fill="#FCFCFC"/>
<path d="M43 75.6502C68.8064 75.181 68.8064 75.181 79.8294 75.0795C87.3435 75.0066 94.8545 74.9241 102.369 74.7656C108.429 74.6387 114.486 74.569 120.546 74.5373C122.853 74.5151 125.162 74.4739 127.472 74.4104C145.57 73.9348 145.57 73.9348 150.997 78.1521C153.192 81.139 154.738 84.034 156.332 87.373C157.716 89.1803 159.132 90.9687 160.611 92.7C161.133 91.4824 161.655 90.2648 162.192 89.0091C168.017 76.982 168.017 76.982 173.594 74.7212C179.972 73.5004 186.389 74.0933 192.818 74.5848C194.778 74.6704 196.737 74.7465 198.697 74.8163C203.475 75.0034 208.231 75.2983 213 75.6502C209.704 81.6622 206.303 87.5695 202.642 93.3659C201.961 94.4472 201.961 94.4472 201.268 95.5506C195.675 104.394 189.993 113.26 183.755 121.666C181.817 124.393 181.817 124.393 181.992 126.762C183.573 129.974 185.406 132.986 187.34 135.995C187.789 136.705 188.24 137.419 188.705 138.154C191.911 143.187 195.185 148.174 198.468 153.156C198.878 153.777 199.286 154.399 199.709 155.039C201.77 158.172 203.838 161.299 205.912 164.422C207.057 166.153 207.057 166.153 208.225 167.919C208.912 168.953 209.599 169.99 210.309 171.055C211.928 173.694 211.928 173.694 213 176.89C199.238 176.89 185.479 176.89 171.3 176.89C169.185 173.021 167.066 169.153 164.887 165.167C163.299 163.055 163.299 163.055 161.68 160.905C161.68 160.202 161.68 159.498 161.68 158.771C156.857 162.998 153.755 167.907 150.402 173.342C148.85 175.824 148.85 175.824 147.781 176.89C144.851 176.985 141.95 177.013 139.023 176.994C138.145 176.991 137.267 176.991 136.367 176.988C133.554 176.982 130.745 176.969 127.933 176.956C126.031 176.95 124.132 176.947 122.229 176.941C117.559 176.931 112.889 176.912 108.219 176.89C109.533 173.418 110.99 170.332 112.997 167.212C113.773 165.998 113.773 165.998 114.566 164.758C115.396 163.477 115.396 163.477 116.239 162.171C117.397 160.36 118.555 158.549 119.713 156.742C120.295 155.835 120.877 154.928 121.475 153.993C124.472 149.306 127.411 144.582 130.354 139.86C130.755 139.214 131.159 138.57 131.576 137.904C131.954 137.289 132.336 136.674 132.727 136.043C133.869 134.28 135.129 132.599 136.386 130.919C138.396 128.119 138.396 128.119 137.976 125.56C135.778 118.08 132.664 110.46 126.397 105.488C118.596 102.587 109.838 103.544 101.672 103.89C99.4037 103.925 97.1323 103.95 94.864 103.969C89.3318 104.033 83.8123 104.198 78.2833 104.423C78.2833 108.291 78.2833 112.16 78.2833 116.145C91.3392 116.145 104.392 116.145 117.842 116.145C117.842 125.29 117.842 134.432 117.842 143.853C104.79 143.853 91.7337 143.853 78.2833 143.853C78.2833 154.754 78.2833 165.659 78.2833 176.89C66.6399 176.89 54.9965 176.89 43 176.89C43 143.482 43 110.07 43 75.6502Z" fill="#07080A"/>
</g>
</g>
<defs>
<clipPath id="clip0_1765_977">
<rect width="256" height="256" fill="white"/>
</clipPath>
<clipPath id="clip1_1765_977">
<rect width="256" height="256" fill="white"/>
</clipPath>
</defs>
</svg>
