<?xml version="1.0" encoding="UTF-8"?>
<!-- Generated by Pixelmator Pro 3.7 -->
<svg width="256" height="256" viewBox="0 0 256 256" xmlns="http://www.w3.org/2000/svg">
    <g id="Group">
        <path id="Path" fill="#fcfcfc" stroke="none" d="M 0 0 L 256 0 L 256 256 L 0 256 Z"/>
        <path id="path1" fill="#568131" stroke="none" d="M 171.959564 54.67363 L 171.493347 54.67363 C 161.363861 54.67363 151.361511 57.131836 142.291595 61.497269 C 132.585938 40.093948 109.741608 25.04805 83.125198 25.04805 C 47.777931 25.04805 19 51.62207 19 84.256836 C 19 89.724228 23.407812 94.132034 28.875195 94.132034 L 48.583206 94.132034 C 51.210938 94.132034 53.711525 93.072464 55.57637 91.25 L 58.458397 88.367966 L 61.340431 91.25 C 61.679489 91.589066 62.188087 91.758591 62.569534 92.055283 C 61.806641 92.775772 61.001366 93.411514 60.23848 94.174423 C 35.275002 119.137894 33.749218 158.257233 56.763084 181.398239 C 58.62793 183.263092 61.128517 184.322662 63.756248 184.322662 C 66.383987 184.322662 68.884567 183.263092 70.749413 181.440628 L 136.06134 116.043945 C 142.884949 142.067001 149.708588 179.236725 140.045319 212.549606 L 122.15976 212.549606 C 127.923828 196.105087 131.611145 178.050003 127.288086 156.350006 C 126.228516 151.009766 121.057816 147.491989 115.675201 148.636337 C 110.334961 149.695908 106.859573 154.908981 107.961517 160.249222 C 112.454102 182.669724 106.139069 200.682419 98.637299 218.65274 C 97.365814 221.7043 97.70488 225.179688 99.527344 227.93457 C 101.349808 230.689453 104.443756 232.300003 107.749603 232.300003 L 147.208008 232.300003 C 151.361511 232.300003 155.048828 229.714645 156.489838 225.81543 C 169.162292 191.01915 164.796875 152.916992 158.269928 123.800003 L 176.791199 123.800003 C 179.418945 123.800003 181.919525 122.740433 183.784363 120.917969 L 186.666412 118.035934 L 189.548431 120.917969 C 191.413269 122.782822 193.913879 123.800003 196.541595 123.800003 L 226.124817 123.800003 C 231.592194 123.800003 236 119.392197 236 113.924805 C 236 81.205276 207.222076 54.67363 171.959564 54.67363 M 72.402344 74.381638 L 65.40918 67.388474 C 61.552345 63.531631 55.322067 63.531631 51.465233 67.388474 L 44.514454 74.381638 L 40.149025 74.381638 C 45.06543 57.386124 62.484764 44.798447 83.125198 44.798447 C 105.121872 44.798447 123.304108 59.123825 126.779495 77.814651 C 120.591599 75.610733 113.979889 74.254501 107.113861 74.254501 L 107.029099 74.254501 C 106.266205 74.254501 105.503326 74.339249 104.740433 74.381638 Z M 64.773438 159.443954 C 56.254494 143.88945 59.645119 122.655655 74.182419 108.118362 C 82.870895 99.429886 94.356644 94.471085 105.884766 94.132034 L 107.749603 94.132034 C 107.834381 94.132034 107.919144 94.089645 108.046295 94.089645 C 114.318939 94.259171 120.294922 95.784958 125.465622 98.666992 Z M 200.610352 103.964844 L 193.617188 96.97168 C 189.760345 93.114853 183.53009 93.114853 179.673248 96.97168 L 172.680084 103.964844 L 153.226379 103.964844 C 151.997253 99.514648 150.768158 95.445908 149.750977 91.928116 C 148.649017 88.198441 147.758972 85.104492 147.080872 82.603897 C 147.080872 82.180069 147.038483 81.756241 146.996094 81.290039 C 154.370697 76.882217 162.84726 74.339249 171.493347 74.339249 C 192.218567 74.339249 209.849792 86.842178 214.808594 103.92247 L 200.610352 103.92247 Z"/>
    </g>
</svg>
