<svg width="256" height="256" viewBox="0 0 256 256" fill="none" xmlns="http://www.w3.org/2000/svg">
<g clip-path="url(#clip0_1902_8242)">
<path d="M256 0H0V256H256V0Z" fill="#685E7A"/>
<path fill-rule="evenodd" clip-rule="evenodd" d="M139.832 160.299C131.357 164.817 121.674 167.379 111.391 167.379C78.0381 167.379 51 140.431 51 107.189C51 73.9476 78.0381 47 111.391 47C144.745 47 171.783 73.9476 171.783 107.189C171.783 119.262 168.216 130.505 162.076 139.928L205 189.29L182.181 209L139.832 160.299ZM148.297 107.189C148.297 127.504 131.774 143.972 111.391 143.972C91.0088 143.972 74.4855 127.504 74.4855 107.189C74.4855 86.8749 91.0088 70.4069 111.391 70.4069C131.774 70.4069 148.297 86.8749 148.297 107.189Z" fill="white"/>
</g>
<defs>
<clipPath id="clip0_1902_8242">
<rect width="256" height="256" fill="white"/>
</clipPath>
</defs>
</svg>
