<svg width="256" height="256" viewBox="0 0 256 256" fill="none" xmlns="http://www.w3.org/2000/svg">
<rect width="100%" height="100%" fill="#FFFFFF"/>
<g transform="translate(23.04 23.04) scale(0.82)">
<path d="M68.03 103.08L31.6667 109.15C25.8869 110.109 22.3581 116.049 24.275 121.582C32.1314 144.252 42.1226 159.153 53.4934 157.352C63.0199 155.841 73.0546 136.308 78.7618 114.858C80.5335 108.206 74.8408 101.947 68.0445 103.08H68.03Z" fill="#060606"/>
<path d="M124.272 16.8344C142.54 7.06042 181.198 68.0421 196.867 92.891C198.595 95.6212 206.074 108.256 207.222 110.391C233.245 159.203 244.05 216.219 216.56 235.143C192.918 251.423 145.605 222.406 114.586 194.697C101.378 182.529 100.67 181.234 89.6945 168.396C67.0548 138.304 81.3595 123.36 120.946 96.101C125.361 93.2109 127.844 91.5692 130.488 90.1605C133.973 88.3016 135.657 84.2353 134.495 80.4594C127.496 57.5713 110.781 24.0525 124.272 16.8344Z" fill="#060606"/>
</g>
</svg>
