<svg width="256" height="256" viewBox="0 0 256 256" fill="none" xmlns="http://www.w3.org/2000/svg">
<rect width="256" height="256" fill="white"/>
<mask id="mask0_1402_6136" style="mask-type:alpha" maskUnits="userSpaceOnUse" x="0" y="0" width="256" height="256">
<rect width="256" height="256" fill="#C4C4C4"/>
</mask>
<g mask="url(#mask0_1402_6136)">
<path d="M128 216C176.601 216 216 176.601 216 128C216 79.3989 176.601 40 128 40C79.3989 40 40 79.3989 40 128C40 176.601 79.3989 216 128 216Z" fill="#3457D5"/>
<path d="M128 172C152.301 172 172 152.301 172 128C172 103.699 152.301 84 128 84C103.699 84 84 103.699 84 128C84 152.301 103.699 172 128 172Z" fill="white"/>
<path d="M128.004 157.205C144.042 157.205 157.044 144.203 157.044 128.165C157.044 112.127 144.042 99.125 128.004 99.125C111.966 99.125 98.9639 112.127 98.9639 128.165C98.9639 144.203 111.966 157.205 128.004 157.205Z" fill="#438DDD"/>
<path d="M127.997 141.915C136.016 141.915 142.517 135.414 142.517 127.395C142.517 119.376 136.016 112.875 127.997 112.875C119.977 112.875 113.477 119.376 113.477 127.395C113.477 135.414 119.977 141.915 127.997 141.915Z" fill="black"/>
</g>
</svg>
