<?xml version="1.0" encoding="UTF-8"?>
<svg xmlns="http://www.w3.org/2000/svg" xmlns:xlink="http://www.w3.org/1999/xlink" width="256px" height="256px" viewBox="0 0 256 256" version="1.1">
<g id="surface1">
<path style=" stroke:none;fill-rule:nonzero;fill:rgb(6.27451%,9.411765%,14.117648%);fill-opacity:1;" d="M 174 257 C 116 257 58.5 257 1 257 C 1 171.667969 1 86.332031 1 1 C 86.332031 1 171.667969 1 257 1 C 257 86.332031 257 171.667969 257 257 C 229.5 257 202 257 174 257 M 88.796875 220.726562 C 106.359375 228.25 124.5625 230.621094 143.519531 228.019531 C 195.90625 220.839844 234.542969 171.398438 228.707031 118.847656 C 222.058594 58.964844 166.425781 18.738281 107.457031 31.171875 C 65.730469 39.96875 33.558594 76.222656 29.253906 119.304688 C 25.003906 161.824219 49.210938 203.386719 88.796875 220.726562 Z M 88.796875 220.726562 "/>
<path style=" stroke:none;fill-rule:nonzero;fill:rgb(90.980393%,48.235294%,9.411765%);fill-opacity:1;" d="M 88.457031 220.550781 C 49.210938 203.386719 25.003906 161.824219 29.253906 119.304688 C 33.558594 76.222656 65.730469 39.96875 107.457031 31.171875 C 166.425781 18.738281 222.058594 58.964844 228.707031 118.847656 C 234.542969 171.398438 195.90625 220.839844 143.519531 228.019531 C 124.5625 230.621094 106.359375 228.25 88.457031 220.550781 M 133.949219 73.398438 C 135.6875 65.695312 135.183594 65.199219 124.8125 64.65625 C 123.316406 70.320312 121.804688 76.03125 120.230469 81.980469 C 112.683594 80.175781 105.632812 78.488281 98.253906 76.726562 C 97.292969 80.601562 96.4375 84.0625 95.519531 87.757812 C 98.308594 88.570312 100.5 89.289062 102.730469 89.84375 C 107.289062 90.976562 109.113281 93.707031 107.957031 98.339844 C 104.140625 113.671875 100.371094 129.015625 96.519531 144.339844 C 95.660156 147.761719 93.476562 149.785156 89.890625 148.277344 C 84.292969 145.921875 81.277344 147.75 79.910156 153.410156 C 79.488281 155.148438 78.597656 156.773438 77.796875 158.761719 C 85.054688 160.695312 92.066406 162.558594 99.402344 164.511719 C 97.949219 170.757812 96.601562 176.550781 95.1875 182.628906 C 98.714844 183.523438 102.035156 184.367188 105.644531 185.28125 C 107.25 179.1875 108.757812 173.460938 110.355469 167.390625 C 113.488281 168.171875 116.15625 168.84375 119.183594 169.601562 C 117.804688 175.832031 116.527344 181.59375 115.199219 187.59375 C 118.96875 188.511719 122.257812 189.3125 125.652344 190.140625 C 127.339844 183.777344 128.890625 177.9375 130.109375 173.332031 C 136.796875 173.332031 142.441406 173.632812 148.042969 173.273438 C 162.835938 172.328125 173.585938 158.707031 169.972656 144.34375 C 168.679688 139.207031 164.105469 134.898438 160.988281 130.148438 C 169.402344 127.410156 173.144531 119.984375 172.988281 110.652344 C 172.828125 101.203125 166.046875 96.4375 158.382812 92.746094 C 156.015625 91.609375 153.609375 90.546875 151.054688 89.371094 C 152.460938 83.421875 153.8125 77.695312 155.238281 71.652344 C 151.480469 70.742188 148.316406 69.972656 144.8125 69.121094 C 143.242188 75.0625 141.777344 80.589844 140.222656 86.464844 C 137.003906 85.695312 134.339844 85.058594 131.304688 84.332031 C 132.195312 80.613281 132.964844 77.410156 133.949219 73.398438 Z M 133.949219 73.398438 "/>
<path style=" stroke:none;fill-rule:nonzero;fill:rgb(7.450981%,9.803922%,14.117648%);fill-opacity:1;" d="M 133.839844 73.804688 C 132.964844 77.410156 132.195312 80.613281 131.304688 84.332031 C 134.339844 85.058594 137.003906 85.695312 140.222656 86.464844 C 141.777344 80.589844 143.242188 75.0625 144.8125 69.121094 C 148.316406 69.972656 151.480469 70.742188 155.238281 71.652344 C 153.8125 77.695312 152.460938 83.421875 151.054688 89.371094 C 153.609375 90.546875 156.015625 91.609375 158.382812 92.746094 C 166.046875 96.4375 172.828125 101.203125 172.988281 110.652344 C 173.144531 119.984375 169.402344 127.410156 160.988281 130.148438 C 164.105469 134.898438 168.679688 139.207031 169.972656 144.34375 C 173.585938 158.707031 162.835938 172.328125 148.042969 173.273438 C 142.441406 173.632812 136.796875 173.332031 130.109375 173.332031 C 128.890625 177.9375 127.339844 183.777344 125.652344 190.140625 C 122.257812 189.3125 118.96875 188.511719 115.199219 187.59375 C 116.527344 181.59375 117.804688 175.832031 119.183594 169.601562 C 116.15625 168.84375 113.488281 168.171875 110.355469 167.390625 C 108.757812 173.460938 107.25 179.1875 105.644531 185.28125 C 102.035156 184.367188 98.714844 183.523438 95.1875 182.628906 C 96.601562 176.550781 97.949219 170.757812 99.402344 164.511719 C 92.066406 162.558594 85.054688 160.695312 77.796875 158.761719 C 78.597656 156.773438 79.488281 155.148438 79.910156 153.410156 C 81.277344 147.75 84.292969 145.921875 89.890625 148.277344 C 93.476562 149.785156 95.660156 147.761719 96.519531 144.339844 C 100.371094 129.015625 104.140625 113.671875 107.957031 98.339844 C 109.113281 93.707031 107.289062 90.976562 102.730469 89.84375 C 100.5 89.289062 98.308594 88.570312 95.519531 87.757812 C 96.4375 84.0625 97.292969 80.601562 98.253906 76.726562 C 105.632812 78.488281 112.683594 80.175781 120.230469 81.980469 C 121.804688 76.03125 123.316406 70.320312 124.8125 64.65625 C 135.183594 65.199219 135.6875 65.695312 133.839844 73.804688 M 144.933594 139.597656 C 137.964844 133.566406 129.234375 132.214844 120.152344 130.035156 C 118.105469 138.238281 116.128906 146.167969 113.847656 155.304688 C 122.015625 156.238281 129.5 157.355469 137.023438 157.847656 C 141.367188 158.128906 145.246094 156.296875 147.261719 152.074219 C 149.316406 147.773438 148.78125 143.6875 144.933594 139.597656 M 151.21875 115.453125 C 152.492188 109.332031 151.386719 105.617188 146.007812 102.945312 C 140.628906 100.269531 134.738281 98.625 128.554688 96.339844 C 126.507812 104.585938 124.730469 111.753906 122.742188 119.777344 C 128.824219 120.644531 134.328125 121.761719 139.878906 122.117188 C 144.527344 122.410156 148.828125 121.074219 151.21875 115.453125 Z M 151.21875 115.453125 "/>
<path style=" stroke:none;fill-rule:nonzero;fill:rgb(89.411765%,47.843137%,9.803922%);fill-opacity:1;" d="M 145.191406 139.855469 C 148.78125 143.6875 149.316406 147.773438 147.261719 152.074219 C 145.246094 156.296875 141.367188 158.128906 137.023438 157.847656 C 129.5 157.355469 122.015625 156.238281 113.847656 155.304688 C 116.128906 146.167969 118.105469 138.238281 120.152344 130.035156 C 129.234375 132.214844 137.964844 133.566406 145.191406 139.855469 Z M 145.191406 139.855469 "/>
<path style=" stroke:none;fill-rule:nonzero;fill:rgb(89.411765%,47.450981%,9.803922%);fill-opacity:1;" d="M 151.089844 115.820312 C 148.828125 121.074219 144.527344 122.410156 139.878906 122.117188 C 134.328125 121.761719 128.824219 120.644531 122.742188 119.777344 C 124.730469 111.753906 126.507812 104.585938 128.554688 96.339844 C 134.738281 98.625 140.628906 100.269531 146.007812 102.945312 C 151.386719 105.617188 152.492188 109.332031 151.089844 115.820312 Z M 151.089844 115.820312 "/>
</g>
</svg>
