<svg version="1.1" id="Layer_1" xmlns="http://www.w3.org/2000/svg" xmlns:xlink="http://www.w3.org/1999/xlink" x="0px" y="0px"
	 width="100%" viewBox="0 0 256 256" enable-background="new 0 0 256 256" xml:space="preserve">
<path fill="#101824" opacity="1.000000" stroke="none" 
	d="
M174.000000,257.000000 
	C116.000000,257.000000 58.500008,257.000000 1.000008,257.000000 
	C1.000005,171.666672 1.000005,86.333351 1.000003,1.000019 
	C86.333321,1.000013 171.666641,1.000013 257.000000,1.000006 
	C257.000000,86.333313 257.000000,171.666626 257.000000,256.999969 
	C229.500000,257.000000 202.000000,257.000000 174.000000,257.000000 
M88.795372,220.724670 
	C106.357971,228.248840 124.563400,230.619827 143.519745,228.020676 
	C195.904785,220.837997 234.544006,171.399826 228.707443,118.845810 
	C222.057129,58.964649 166.424896,18.737803 107.456337,31.170967 
	C65.730141,39.968685 33.559540,76.224319 29.254124,119.303329 
	C25.004625,161.822800 49.212723,203.386520 88.795372,220.724670 
z"/>
<path fill="#E87B18" opacity="1.000000" stroke="none" 
	d="
M88.458618,220.550049 
	C49.212723,203.386520 25.004625,161.822800 29.254124,119.303329 
	C33.559540,76.224319 65.730141,39.968685 107.456337,31.170967 
	C166.424896,18.737803 222.057129,58.964649 228.707443,118.845810 
	C234.544006,171.399826 195.904785,220.837997 143.519745,228.020676 
	C124.563400,230.619827 106.357971,228.248840 88.458618,220.550049 
M133.949005,73.399422 
	C135.686798,65.694366 135.181778,65.199684 124.814384,64.655807 
	C123.315132,70.320297 121.803482,76.031616 120.228844,81.980934 
	C112.684547,80.176308 105.633972,78.489777 98.254784,76.724648 
	C97.293320,80.602928 96.436104,84.060707 95.519119,87.759544 
	C98.307404,88.571175 100.498878,89.287315 102.730438,89.842262 
	C107.290627,90.976303 109.112572,93.705147 107.958717,98.340851 
	C104.142479,113.672997 100.369614,129.015991 96.518929,144.339447 
	C95.659248,147.760498 93.478165,149.784027 89.891022,148.275986 
	C84.294228,145.923065 81.275444,147.749008 79.909309,153.409027 
	C79.489616,155.147858 78.597023,156.772568 77.795059,158.761871 
	C85.054543,160.693954 92.064682,162.559677 99.400604,164.512100 
	C97.948036,170.757111 96.600464,176.550705 95.186584,182.629364 
	C98.715111,183.524338 102.035385,184.366486 105.645607,185.282181 
	C107.250534,179.187103 108.758713,173.459488 110.357231,167.388763 
	C113.486443,168.173752 116.154602,168.843079 119.183548,169.602921 
	C117.804100,175.832596 116.528053,181.595352 115.199974,187.593048 
	C118.970276,188.512314 122.259338,189.314255 125.653328,190.141785 
	C127.340805,183.777969 128.889557,177.937332 130.110428,173.333206 
	C136.796616,173.333206 142.441254,173.633408 148.043747,173.275009 
	C162.835617,172.328766 173.587128,158.705734 169.973297,144.345184 
	C168.680496,139.207886 164.104385,134.896851 160.987823,130.149246 
	C169.403351,127.411598 173.145035,119.983101 172.987701,110.651413 
	C172.828400,101.203674 166.048035,96.439285 158.383759,92.747734 
	C156.016434,91.607506 153.610764,90.546867 151.053299,89.371979 
	C152.459305,83.421112 153.812195,77.695015 155.239609,71.653481 
	C151.482147,70.740898 148.318039,69.972427 144.813492,69.121277 
	C143.241119,75.061607 141.777557,80.590805 140.222412,86.465973 
	C137.002502,85.695656 134.339203,85.058502 131.306580,84.332993 
	C132.197250,80.611435 132.963120,77.411285 133.949005,73.399422 
z"/>
<path fill="#131924" opacity="1.000000" stroke="none" 
	d="
M133.839005,73.805275 
	C132.963120,77.411285 132.197250,80.611435 131.306580,84.332993 
	C134.339203,85.058502 137.002502,85.695656 140.222412,86.465973 
	C141.777557,80.590805 143.241119,75.061607 144.813492,69.121277 
	C148.318039,69.972427 151.482147,70.740898 155.239609,71.653481 
	C153.812195,77.695015 152.459305,83.421112 151.053299,89.371979 
	C153.610764,90.546867 156.016434,91.607506 158.383759,92.747734 
	C166.048035,96.439285 172.828400,101.203674 172.987701,110.651413 
	C173.145035,119.983101 169.403351,127.411598 160.987823,130.149246 
	C164.104385,134.896851 168.680496,139.207886 169.973297,144.345184 
	C173.587128,158.705734 162.835617,172.328766 148.043747,173.275009 
	C142.441254,173.633408 136.796616,173.333206 130.110428,173.333206 
	C128.889557,177.937332 127.340805,183.777969 125.653328,190.141785 
	C122.259338,189.314255 118.970276,188.512314 115.199974,187.593048 
	C116.528053,181.595352 117.804100,175.832596 119.183548,169.602921 
	C116.154602,168.843079 113.486443,168.173752 110.357231,167.388763 
	C108.758713,173.459488 107.250534,179.187103 105.645607,185.282181 
	C102.035385,184.366486 98.715111,183.524338 95.186584,182.629364 
	C96.600464,176.550705 97.948036,170.757111 99.400604,164.512100 
	C92.064682,162.559677 85.054543,160.693954 77.795059,158.761871 
	C78.597023,156.772568 79.489616,155.147858 79.909309,153.409027 
	C81.275444,147.749008 84.294228,145.923065 89.891022,148.275986 
	C93.478165,149.784027 95.659248,147.760498 96.518929,144.339447 
	C100.369614,129.015991 104.142479,113.672997 107.958717,98.340851 
	C109.112572,93.705147 107.290627,90.976303 102.730438,89.842262 
	C100.498878,89.287315 98.307404,88.571175 95.519119,87.759544 
	C96.436104,84.060707 97.293320,80.602928 98.254784,76.724648 
	C105.633972,78.489777 112.684547,80.176308 120.228844,81.980934 
	C121.803482,76.031616 123.315132,70.320297 124.814384,64.655807 
	C135.181778,65.199684 135.686798,65.694366 133.839005,73.805275 
M144.932220,139.597839 
	C137.965088,133.567917 129.235672,132.213455 120.154053,130.033325 
	C118.107178,138.237335 116.128052,146.169769 113.848732,155.305420 
	C122.016640,156.237076 129.499863,157.357224 137.024124,157.846512 
	C141.368744,158.129028 145.247894,156.295898 147.262314,152.074326 
	C149.315109,147.772263 148.781250,143.686920 144.932220,139.597839 
M151.217712,115.454796 
	C152.492065,109.332916 151.386230,105.617584 146.006668,102.944283 
	C140.627380,100.271111 134.737000,98.626411 128.553650,96.339668 
	C126.508331,104.586151 124.730301,111.754982 122.740372,119.778198 
	C128.825867,120.644478 134.329041,121.760963 139.880844,122.115364 
	C144.528763,122.412071 148.828583,121.073891 151.217712,115.454796 
z"/>
<path fill="#E47A19" opacity="1.000000" stroke="none" 
	d="
M145.192368,139.854797 
	C148.781250,143.686920 149.315109,147.772263 147.262314,152.074326 
	C145.247894,156.295898 141.368744,158.129028 137.024124,157.846512 
	C129.499863,157.357224 122.016640,156.237076 113.848732,155.305420 
	C116.128052,146.169769 118.107178,138.237335 120.154053,130.033325 
	C129.235672,132.213455 137.965088,133.567917 145.192368,139.854797 
z"/>
<path fill="#E47919" opacity="1.000000" stroke="none" 
	d="
M151.088135,115.821182 
	C148.828583,121.073891 144.528763,122.412071 139.880844,122.115364 
	C134.329041,121.760963 128.825867,120.644478 122.740372,119.778198 
	C124.730301,111.754982 126.508331,104.586151 128.553650,96.339668 
	C134.737000,98.626411 140.627380,100.271111 146.006668,102.944283 
	C151.386230,105.617584 152.492065,109.332916 151.088135,115.821182 
z"/>
</svg>