<svg width="256" height="256" viewBox="0 0 256 256" fill="none" xmlns="http://www.w3.org/2000/svg">
<rect width="256" height="256" fill="white"/>
<path d="M91.1404 95.5742C81.0043 80.3698 85.0733 59.7457 100.259 49.5973C115.445 39.4489 136.045 43.5228 146.181 58.3998L215.426 161.193C225.563 176.398 221.494 197.022 206.307 207.17C191.121 217.318 170.522 213.244 160.386 198.367L130.341 153.736C126.635 149.008 118.533 149.663 113.774 154.428C109.705 158.501 108.724 168.286 107.344 177.089C107.344 178.434 107.017 179.453 107.017 180.799C106.326 186.546 104.328 191.966 100.95 197.022C89.7962 213.608 67.5257 217.973 50.9591 206.843C34.3925 195.712 30.0329 173.378 41.1499 156.792C46.8901 148.353 55.6821 142.933 65.1279 141.224C92.4847 137.15 97.5346 106.377 92.4847 97.9385L91.1404 95.5742Z" fill="#8244E0"/>
</svg>
