<svg width="256" height="256" viewBox="0 0 256 256" fill="none" xmlns="http://www.w3.org/2000/svg">
<rect width="256" height="256" fill="white"/>
<path d="M132.179 48.01C132.147 48.0412 130.083 48.1664 127.643 48.3227C123.046 48.573 120.95 48.7294 118.948 49.0734C118.291 49.1672 117.197 49.3549 116.571 49.4175C115.914 49.5113 114.82 49.7302 114.194 49.8866C113.569 50.043 112.38 50.2932 111.661 50.4496C110.066 50.6998 104.717 52.4514 101.558 53.8276C86.3571 60.2082 76.9739 69.091 72.3448 81.5082C71.5003 83.7915 70.1867 89.4527 69.9677 92.0487C69.7488 93.9567 69.7488 102.808 69.9364 103.84C69.999 104.31 70.1867 105.561 70.3118 106.562C71.0624 112.567 73.5021 118.822 76.88 123.576C84.1677 133.773 96.9602 140.341 122.577 147.035C129.927 148.943 136.057 151.445 138.34 153.447C139.748 154.666 140.843 156.699 140.905 158.232C141.062 161.203 139.81 163.205 136.902 164.581C133.023 166.395 123.765 166.646 115.477 165.082C112.161 164.488 106.531 162.611 102.934 160.953C98.9307 159.108 90.5796 153.572 89.6413 152.164C89.5162 151.945 88.9219 151.351 88.3589 150.819L87.2642 149.818L79.5699 157.638C75.3474 161.954 68.7166 168.679 64.8382 172.651L57.832 179.813L59.7712 181.69C69.7488 191.167 80.7585 197.485 96.5849 202.802C100.369 204.116 105.249 205.461 107.313 205.805C107.782 205.899 108.721 206.118 109.377 206.274C110.535 206.556 114.069 207.15 116.54 207.463C122.702 208.276 137.621 208.276 144.033 207.463C168.367 204.335 185.757 192.012 191.512 173.965C193.764 166.833 194.171 156.574 192.544 147.16C192.169 144.97 190.793 141.28 189.229 138.152C184.537 128.769 178.063 122.795 165.833 116.664C160.891 114.162 149.256 110.127 144.033 109.095C140.874 108.469 132.179 105.654 129.239 104.31C124.641 102.183 122.858 100.15 122.921 96.8968C122.952 94.1756 125.423 91.7047 129.051 90.6412C131.053 90.047 139.122 89.828 141.781 90.2972C146.285 91.0479 153.072 93.2373 156.638 95.0201C159.14 96.3025 163.519 99.5553 166.396 102.245L168.899 104.56L183.724 89.6716C197.017 76.3161 198.518 74.721 198.112 74.1893C196.829 72.5941 196.173 71.8435 195.203 70.8738C186.602 62.2412 177.312 56.8928 163.488 52.639C154.824 49.9492 148.412 48.7919 139.247 48.2915C137.214 48.1664 134.775 48.01 133.899 47.9474C133.054 47.9161 132.273 47.9161 132.179 48.01Z" fill="black"/>
</svg>
