<svg width="256" height="256" viewBox="0 0 256 256" fill="none" xmlns="http://www.w3.org/2000/svg">
<g clip-path="url(#clip0_1976_10386)">
<path fill-rule="evenodd" clip-rule="evenodd" d="M0 128V256H128H256V128V0H128H0V128ZM86.1626 36.2483C86.7859 36.6138 87.296 37.0278 87.296 37.168C87.296 37.3088 87.9296 38.2387 88.704 39.2358C89.4784 40.2323 90.112 41.168 90.112 41.3146C90.112 41.4618 90.3456 41.8163 90.631 42.103C91.159 42.633 91.6058 43.2557 93.3549 45.8989C93.8944 46.7142 94.9984 48.2118 95.808 49.2269C96.617 50.2419 97.2794 51.1962 97.28 51.3472C97.28 51.4989 97.568 51.8931 97.92 52.224C98.272 52.5549 98.56 52.921 98.56 53.0374C98.56 53.1546 99.1648 54.0525 99.904 55.0323C100.643 56.0128 101.536 57.2941 101.888 57.8803C102.24 58.4659 102.894 59.2941 103.342 59.7203C103.79 60.1466 104.227 60.7782 104.314 61.1251C104.401 61.4714 105.039 62.455 105.731 63.3101C106.422 64.1651 107.057 65.177 107.141 65.5584C107.226 65.9462 107.512 66.3091 107.789 66.3814C108.062 66.4531 108.365 66.7238 108.463 66.9837C108.561 67.2435 109.181 68.1549 109.841 69.0086C110.502 69.8624 111.233 70.8992 111.468 71.3126C111.898 72.0717 112.442 72.8442 113.728 74.5216C114.115 75.0272 114.432 75.6314 114.432 75.8643C114.432 76.0973 114.607 76.288 114.822 76.288C115.036 76.288 115.351 76.6048 115.523 76.992C115.695 77.3792 116.336 78.3181 116.948 79.0778C117.56 79.8381 118.192 80.7597 118.352 81.1258C118.511 81.4925 119.241 82.5082 119.973 83.383C120.705 84.2579 121.386 85.2314 121.485 85.5469C121.586 85.8624 121.825 86.2778 122.018 86.471C122.211 86.6637 122.897 87.5616 123.543 88.4666C124.189 89.3715 124.808 90.112 124.92 90.112C125.031 90.112 125.27 90.4864 125.45 90.944C125.631 91.4016 126.319 92.4102 126.98 93.1846C127.641 93.9597 128.264 94.8518 128.364 95.1674C128.463 95.4829 128.682 95.8874 128.849 96.0659C129.431 96.6893 132.345 100.619 132.74 101.315C132.96 101.7 133.485 102.477 133.908 103.04C134.33 103.603 135.293 105 136.048 106.145C136.803 107.29 137.548 108.305 137.704 108.401C137.86 108.497 138.525 109.404 139.183 110.416C139.84 111.428 140.876 112.872 141.485 113.624C142.094 114.376 142.592 115.151 142.592 115.348C142.592 115.544 143.221 116.447 143.99 117.354C144.76 118.26 145.463 119.299 145.554 119.661C145.645 120.024 145.885 120.32 146.089 120.32C146.292 120.32 146.616 120.694 146.81 121.152C147.004 121.61 147.681 122.589 148.316 123.329C148.951 124.069 149.552 124.932 149.652 125.248C149.752 125.564 150.451 126.548 151.203 127.436C151.956 128.323 152.643 129.331 152.73 129.677C152.817 130.022 152.965 130.304 153.06 130.304C153.156 130.304 153.451 130.678 153.716 131.136C153.982 131.594 154.417 132.198 154.683 132.48C155.575 133.425 156.928 135.214 156.928 135.45C156.928 135.578 157.562 136.508 158.336 137.517C159.11 138.527 159.744 139.544 159.744 139.779C159.744 140.014 160.035 140.339 160.391 140.5C160.747 140.663 161.105 140.97 161.187 141.182C161.268 141.394 161.437 141.568 161.564 141.568C161.697 141.568 161.792 119.943 161.792 89.6461V37.7242L162.496 36.9472C163.779 35.5309 162.982 35.584 182.91 35.584H201.502L202.703 36.7187L203.904 37.8534V127.964V218.074L203.376 218.781C202.004 220.619 203.231 220.5 186.212 220.438C168.818 220.374 169.857 220.508 168.329 218.151C167.911 217.507 167.256 216.623 166.874 216.188C166.492 215.752 166.102 215.09 166.008 214.716C165.914 214.34 165.624 213.967 165.364 213.884C165.103 213.802 164.811 213.48 164.714 213.171C164.618 212.861 164.258 212.262 163.916 211.84C162.621 210.243 161.792 209.073 161.792 208.842C161.792 208.71 161.159 207.856 160.386 206.945C159.612 206.033 158.909 205.005 158.822 204.659C158.735 204.314 158.523 204.032 158.349 204.032C158.176 204.032 157.901 203.74 157.738 203.383C157.576 203.026 156.952 202.091 156.353 201.305C155.754 200.519 155.091 199.566 154.88 199.187C154.408 198.34 153.158 196.709 152.384 195.931C152.067 195.612 151.808 195.188 151.808 194.989C151.808 194.791 151.175 193.836 150.401 192.866C149.628 191.897 148.994 190.964 148.993 190.794C148.993 190.624 148.697 190.163 148.336 189.77C147.479 188.838 144.89 185.325 144.694 184.832C144.611 184.621 144.003 183.749 143.343 182.895C142.682 182.042 141.958 180.986 141.732 180.55C141.507 180.115 141.229 179.719 141.115 179.671C141.001 179.623 140.682 179.224 140.406 178.783C140.13 178.344 139.357 177.255 138.688 176.364C138.019 175.474 137.472 174.605 137.472 174.434C137.472 174.263 137.386 174.084 137.28 174.037C136.956 173.893 134.656 170.966 134.656 170.697C134.656 170.379 131.606 166.304 131.276 166.18C131.14 166.129 130.824 165.61 130.573 165.028C130.323 164.445 129.6 163.392 128.967 162.688C128.334 161.984 127.726 161.12 127.615 160.768C127.505 160.416 127.204 159.898 126.947 159.616C126.058 158.646 123.392 155.031 123.392 154.797C123.392 154.669 123.075 154.184 122.688 153.719C121.571 152.378 120.321 150.627 120.303 150.375C120.294 150.248 119.919 149.665 119.471 149.079C119.023 148.493 118.185 147.398 117.61 146.647C117.034 145.895 116.41 144.992 116.223 144.64C116.037 144.288 115.327 143.311 114.646 142.468C113.965 141.625 113.408 140.77 113.408 140.568C113.408 140.365 112.849 139.557 112.167 138.772C111.484 137.987 110.733 136.97 110.497 136.512C110.26 136.054 109.949 135.68 109.804 135.68C109.66 135.68 109.384 135.306 109.19 134.848C108.996 134.39 108.319 133.411 107.684 132.671C107.049 131.931 106.451 131.067 106.355 130.751C106.259 130.435 105.645 129.542 104.991 128.768C104.337 127.994 103.63 127.014 103.421 126.592C103.212 126.17 102.896 125.672 102.72 125.485C102.544 125.3 102.4 125.057 102.4 124.945C102.4 124.835 102.026 124.333 101.568 123.83C100.708 122.886 99.5034 121.282 98.985 120.391C98.3194 119.248 97.3254 117.86 96.9472 117.546C96.7258 117.363 96.471 116.875 96.3802 116.462C96.2893 116.05 96.0544 115.712 95.8573 115.712C95.6608 115.712 95.2954 115.4 95.0458 115.02C94.6106 114.355 94.5869 116.424 94.464 166.166C94.3219 223.732 94.4749 219.039 92.7226 219.66C92.343 219.794 91.8067 220.035 91.5315 220.195C90.9818 220.515 66.6522 220.555 58.88 220.249C54.2445 220.067 53.0272 219.679 52.4685 218.21C52.3104 217.795 52.2445 185.046 52.2867 127.577L52.352 37.5955L53.4304 36.5894L54.5082 35.584H69.7683H85.0291L86.1626 36.2483ZM61.241 44.4307L60.672 44.8288V127.975C60.672 208.2 60.6886 211.135 61.1398 211.544C61.7446 212.092 84.9114 212.202 85.4528 211.661C85.6896 211.424 85.76 198.847 85.76 156.611C85.76 95.4195 85.6006 100.808 87.4502 99.353C88.8934 98.2182 92.3878 98.0026 94.1958 98.9376C94.9645 99.335 98.56 103.73 98.56 104.272C98.56 104.429 98.7936 104.792 99.079 105.079C99.6128 105.615 100.005 106.154 102.004 109.104C102.643 110.045 103.285 110.89 103.433 110.981C103.716 111.156 104.828 112.755 105.472 113.914C105.839 114.576 106.087 114.909 107.968 117.274C108.426 117.85 108.8 118.473 108.8 118.659C108.8 118.845 108.887 119.036 108.993 119.083C109.364 119.246 111.36 121.926 111.36 122.26C111.36 122.445 111.915 123.266 112.593 124.083C113.272 124.9 114.305 126.317 114.888 127.232C115.472 128.147 116.097 129.065 116.276 129.272C116.623 129.669 117.165 130.442 118.961 133.094C119.57 133.994 120.246 134.861 120.464 135.02C120.681 135.179 121.112 135.729 121.421 136.244C122.435 137.928 124.518 140.915 125.113 141.539C125.434 141.875 125.696 142.254 125.696 142.381C125.696 142.643 126.481 143.8 127.616 145.21C128.038 145.735 128.701 146.557 129.088 147.037C129.475 147.517 129.792 148.016 129.792 148.145C129.792 148.275 130.483 149.29 131.328 150.4C132.173 151.51 132.864 152.522 132.864 152.649C132.864 152.775 133.498 153.642 134.272 154.575C135.046 155.508 135.68 156.399 135.68 156.555C135.68 156.711 135.968 157.109 136.32 157.44C136.672 157.771 136.96 158.157 136.96 158.3C136.96 158.442 137.212 158.827 137.519 159.154C137.827 159.482 138.316 160.145 138.607 160.629C139.592 162.268 141.393 164.734 141.836 165.049C142.077 165.221 142.462 165.797 142.691 166.329C143.089 167.257 144.95 169.839 146.301 171.338C146.655 171.731 146.944 172.166 146.944 172.306C146.944 172.445 147.501 173.277 148.182 174.154C148.863 175.032 149.572 176.036 149.757 176.387C149.942 176.737 150.316 177.312 150.586 177.664C152.562 180.233 154.112 182.41 154.112 182.614C154.112 182.749 154.351 183.101 154.644 183.397C155.223 183.983 155.876 184.903 157.37 187.239C157.901 188.07 158.587 188.976 158.893 189.252C159.2 189.53 159.596 190.117 159.772 190.558C159.949 190.999 160.648 192.009 161.327 192.803C162.005 193.596 162.56 194.348 162.56 194.474C162.56 194.599 162.906 195.08 163.328 195.543C163.75 196.005 164.096 196.526 164.096 196.701C164.096 196.875 164.655 197.645 165.339 198.413C166.022 199.18 166.659 200.054 166.755 200.353C166.849 200.653 167.125 201.13 167.368 201.411C168.053 202.209 170.313 205.294 170.861 206.179C171.132 206.618 171.835 207.552 172.423 208.256C173.011 208.96 173.7 209.939 173.954 210.432C174.762 212.004 174.387 211.951 184.856 211.96C193.861 211.967 194.508 211.938 194.904 211.5C195.597 210.734 195.553 45.0835 194.86 44.4557C194.104 43.7709 171.286 43.8131 170.664 44.4998C170.272 44.9325 170.24 49.1296 170.24 99.6781C170.24 153.868 170.235 154.398 169.729 155.391C168.595 157.614 164.432 158.536 161.941 157.116C161.007 156.583 157.44 152.316 157.44 151.731C157.44 151.594 157.181 151.231 156.864 150.924C156.547 150.616 156.09 150.027 155.849 149.615C155.322 148.714 153.283 145.791 152.558 144.896C150.786 142.711 150.272 141.996 150.272 141.716C150.272 141.543 149.984 141.131 149.632 140.8C149.28 140.469 148.992 140.068 148.992 139.907C148.992 139.747 148.646 139.284 148.224 138.88C147.802 138.476 147.456 138.042 147.456 137.918C147.456 137.575 145.881 135.339 145.388 134.982C145.149 134.809 144.877 134.359 144.782 133.981C144.687 133.603 144.096 132.693 143.468 131.958C142.841 131.224 141.812 129.831 141.181 128.863C139.962 126.989 139.587 126.452 138.36 124.813C137.932 124.243 137.197 123.178 136.726 122.447C136.254 121.715 135.716 121.059 135.53 120.987C135.343 120.915 134.955 120.419 134.666 119.884C134.068 118.776 132.12 115.898 131.322 114.944C131.028 114.592 130.426 113.728 129.984 113.024C129.542 112.32 128.829 111.315 128.399 110.79C126.484 108.456 126.208 108.068 126.208 107.725C126.208 107.524 125.862 107.028 125.44 106.624C125.018 106.22 124.672 105.781 124.672 105.65C124.672 105.519 124.326 105.018 123.904 104.537C123.482 104.056 123.136 103.539 123.136 103.388C123.136 103.121 122.452 102.199 121.229 100.822C120.897 100.446 120.54 99.8746 120.438 99.5514C120.335 99.2282 119.978 98.7488 119.645 98.487C119.313 98.2253 119.04 97.8906 119.04 97.7434C119.04 97.5962 118.723 97.0957 118.336 96.631C117.949 96.167 117.292 95.2301 116.877 94.5491C116.036 93.1725 114.858 91.6147 113.984 90.7226C113.667 90.3994 113.408 89.9616 113.408 89.7498C113.408 89.5373 112.915 88.7546 112.311 88.0102C111.708 87.2653 110.95 86.224 110.627 85.696C110.303 85.168 109.93 84.736 109.796 84.736C109.664 84.736 109.442 84.4384 109.304 84.0742C109.165 83.7107 108.42 82.5722 107.646 81.5443C106.873 80.5171 106.24 79.5917 106.24 79.488C106.24 79.3843 105.923 78.9216 105.536 78.4602C104.275 76.9562 102.279 74.135 101.964 73.4112C101.795 73.0221 101.557 72.704 101.436 72.704C101.314 72.704 100.964 72.2579 100.657 71.7133C100.351 71.1686 99.9245 70.5766 99.7094 70.3981C99.4944 70.2195 99.1418 69.7011 98.9254 69.2454C98.7098 68.7898 98.0205 67.8176 97.3946 67.0835C96.768 66.3501 96.256 65.6013 96.256 65.4195C96.256 65.2378 95.6301 64.3258 94.8653 63.3926C94.1005 62.4589 93.401 61.465 93.312 61.184C93.2224 60.9024 93.0445 60.672 92.9158 60.672C92.7872 60.672 92.4614 60.24 92.1914 59.712C91.9213 59.184 91.241 58.231 90.6797 57.5942C90.1184 56.9574 89.4438 56.016 89.1814 55.5021C88.919 54.9882 87.9181 53.5667 86.9568 52.343C85.9962 51.1194 85.1398 49.9296 85.0541 49.6992C84.8774 49.2243 83.6102 47.5661 82.7622 46.7014C82.4512 46.384 82.121 45.8221 82.0282 45.4528C81.6864 44.0902 81.2397 44.032 71.1098 44.032C63.1072 44.032 61.7306 44.0877 61.241 44.4307Z" fill="#434242"/>
<path fill-rule="evenodd" clip-rule="evenodd" d="M53.4304 36.5916L52.352 37.5977L52.2867 127.579C52.2445 185.049 52.3104 217.797 52.4685 218.212C53.0272 219.682 54.2445 220.069 58.88 220.251C66.6522 220.557 90.9818 220.517 91.5315 220.197C91.8067 220.037 92.343 219.796 92.7226 219.662C94.4749 219.041 94.3219 223.735 94.464 166.169C94.5869 116.426 94.6106 114.357 95.0458 115.022C95.2954 115.403 95.6608 115.714 95.8573 115.714C96.0544 115.714 96.2893 116.052 96.3802 116.464C96.471 116.877 96.7258 117.365 96.9472 117.548C97.3254 117.863 98.3194 119.25 98.985 120.393C99.5034 121.284 100.708 122.888 101.568 123.832C102.026 124.335 102.4 124.837 102.4 124.947C102.4 125.059 102.544 125.302 102.72 125.488C102.896 125.674 103.212 126.172 103.421 126.594C103.63 127.017 104.337 127.996 104.991 128.77C105.645 129.545 106.259 130.437 106.355 130.753C106.451 131.069 107.049 131.933 107.684 132.673C108.319 133.413 108.996 134.393 109.19 134.85C109.384 135.308 109.66 135.682 109.804 135.682C109.949 135.682 110.26 136.057 110.497 136.514C110.733 136.972 111.484 137.989 112.167 138.774C112.849 139.559 113.408 140.368 113.408 140.57C113.408 140.772 113.965 141.627 114.646 142.47C115.327 143.313 116.037 144.29 116.223 144.642C116.41 144.994 117.034 145.897 117.61 146.649C118.185 147.401 119.023 148.495 119.471 149.081C119.919 149.667 120.294 150.25 120.303 150.377C120.321 150.629 121.571 152.38 122.688 153.721C123.075 154.186 123.392 154.671 123.392 154.8C123.392 155.033 126.058 158.649 126.947 159.618C127.204 159.9 127.505 160.418 127.615 160.77C127.726 161.122 128.334 161.986 128.967 162.69C129.6 163.394 130.323 164.447 130.573 165.03C130.824 165.612 131.14 166.131 131.276 166.182C131.606 166.306 134.656 170.381 134.656 170.699C134.656 170.968 136.956 173.895 137.28 174.039C137.386 174.087 137.472 174.265 137.472 174.436C137.472 174.608 138.019 175.476 138.688 176.366C139.357 177.257 140.13 178.346 140.406 178.786C140.682 179.226 141.001 179.625 141.115 179.673C141.229 179.721 141.507 180.117 141.732 180.553C141.958 180.988 142.682 182.044 143.343 182.898C144.003 183.751 144.611 184.623 144.694 184.834C144.89 185.328 147.479 188.84 148.336 189.772C148.697 190.165 148.993 190.626 148.993 190.796C148.994 190.967 149.628 191.899 150.401 192.868C151.175 193.838 151.808 194.793 151.808 194.992C151.808 195.191 152.067 195.614 152.384 195.933C153.158 196.711 154.408 198.343 154.88 199.189C155.091 199.568 155.754 200.521 156.353 201.307C156.952 202.093 157.576 203.028 157.738 203.385C157.901 203.742 158.176 204.034 158.349 204.034C158.523 204.034 158.735 204.316 158.822 204.661C158.909 205.007 159.612 206.035 160.386 206.947C161.159 207.858 161.792 208.712 161.792 208.844C161.792 209.075 162.621 210.245 163.916 211.842C164.258 212.265 164.618 212.864 164.714 213.173C164.811 213.482 165.103 213.804 165.364 213.886C165.624 213.969 165.914 214.343 166.008 214.718C166.102 215.092 166.492 215.755 166.874 216.19C167.256 216.626 167.911 217.509 168.329 218.153C169.857 220.51 168.818 220.377 186.212 220.441C203.231 220.503 202.004 220.621 203.376 218.784L203.904 218.076V127.966V37.8556L202.703 36.7209L201.502 35.5862H182.91C162.982 35.5862 163.779 35.5331 162.496 36.9494L161.792 37.7264V89.6483C161.792 119.945 161.697 141.57 161.564 141.57C161.437 141.57 161.268 141.396 161.187 141.184C161.105 140.972 160.747 140.665 160.391 140.503C160.035 140.341 159.744 140.016 159.744 139.781C159.744 139.547 159.11 138.529 158.336 137.52C157.562 136.51 156.928 135.58 156.928 135.452C156.928 135.216 155.575 133.427 154.683 132.482C154.417 132.201 153.982 131.596 153.716 131.138C153.451 130.681 153.156 130.306 153.06 130.306C152.965 130.306 152.817 130.024 152.73 129.679C152.643 129.333 151.956 128.325 151.203 127.438C150.451 126.55 149.752 125.566 149.652 125.25C149.552 124.935 148.951 124.071 148.316 123.331C147.681 122.592 147.004 121.612 146.81 121.154C146.616 120.697 146.292 120.322 146.089 120.322C145.885 120.322 145.645 120.026 145.554 119.663C145.463 119.301 144.76 118.262 143.99 117.356C143.221 116.449 142.592 115.547 142.592 115.35C142.592 115.154 142.094 114.378 141.485 113.626C140.876 112.874 139.84 111.43 139.183 110.418C138.525 109.406 137.86 108.499 137.704 108.403C137.548 108.307 136.803 107.292 136.048 106.147C135.293 105.003 134.33 103.605 133.908 103.042C133.485 102.479 132.96 101.703 132.74 101.317C132.345 100.621 129.431 96.6915 128.849 96.0681C128.682 95.8896 128.463 95.4851 128.364 95.1696C128.264 94.854 127.641 93.9619 126.98 93.1868C126.319 92.4124 125.631 91.4038 125.45 90.9462C125.27 90.4886 125.031 90.1142 124.92 90.1142C124.808 90.1142 124.189 89.3737 123.543 88.4688C122.897 87.5638 122.211 86.6659 122.018 86.4732C121.825 86.28 121.586 85.8646 121.485 85.5491C121.386 85.2336 120.705 84.2601 119.973 83.3852C119.241 82.5104 118.511 81.4947 118.352 81.128C118.192 80.7619 117.56 79.8403 116.948 79.08C116.336 78.3203 115.695 77.3814 115.523 76.9942C115.351 76.607 115.036 76.2902 114.822 76.2902C114.607 76.2902 114.432 76.0995 114.432 75.8665C114.432 75.6336 114.115 75.0294 113.728 74.5238C112.442 72.8464 111.898 72.0739 111.468 71.3148C111.233 70.9014 110.502 69.8646 109.841 69.0108C109.181 68.1571 108.561 67.2457 108.463 66.9859C108.365 66.726 108.062 66.4553 107.789 66.3836C107.512 66.3113 107.226 65.9484 107.141 65.5606C107.057 65.1792 106.422 64.1673 105.731 63.3123C105.039 62.4572 104.401 61.4736 104.314 61.1273C104.227 60.7804 103.79 60.1488 103.342 59.7225C102.894 59.2963 102.24 58.4681 101.888 57.8825C101.536 57.2963 100.643 56.015 99.904 55.0345C99.1648 54.0547 98.56 53.1568 98.56 53.0396C98.56 52.9232 98.272 52.5571 97.92 52.2262C97.568 51.8953 97.28 51.5011 97.28 51.3494C97.2794 51.1984 96.617 50.2441 95.808 49.2291C94.9984 48.214 93.8944 46.7164 93.3549 45.9011C91.6058 43.2579 91.159 42.6352 90.631 42.1052C90.3456 41.8185 90.112 41.464 90.112 41.3168C90.112 41.1702 89.4784 40.2345 88.704 39.238C87.9296 38.2409 87.296 37.311 87.296 37.1702C87.296 37.03 86.7859 36.616 86.1626 36.2505L85.0291 35.5862H69.7683H54.5082L53.4304 36.5916ZM81.1347 44.4092C81.5347 44.616 81.9354 45.0851 82.0282 45.455C82.121 45.8243 82.4512 46.3862 82.7622 46.7036C83.6102 47.5683 84.8774 49.2265 85.0541 49.7014C85.1398 49.9318 85.9962 51.1216 86.9568 52.3452C87.9181 53.5689 88.919 54.9904 89.1814 55.5043C89.4438 56.0182 90.1184 56.9596 90.6797 57.5964C91.241 58.2332 91.9213 59.1862 92.1914 59.7142C92.4614 60.2422 92.7872 60.6742 92.9158 60.6742C93.0445 60.6742 93.2224 60.9046 93.312 61.1862C93.401 61.4672 94.1005 62.4611 94.8653 63.3948C95.6301 64.328 96.256 65.24 96.256 65.4217C96.256 65.6035 96.768 66.3523 97.3946 67.0857C98.0205 67.8198 98.7098 68.792 98.9254 69.2476C99.1418 69.7033 99.4944 70.2217 99.7094 70.4003C99.9245 70.5788 100.351 71.1708 100.657 71.7155C100.964 72.2601 101.314 72.7062 101.436 72.7062C101.557 72.7062 101.795 73.0243 101.964 73.4134C102.279 74.1372 104.275 76.9584 105.536 78.4624C105.923 78.9238 106.24 79.3865 106.24 79.4902C106.24 79.5939 106.873 80.5193 107.646 81.5465C108.42 82.5744 109.165 83.7129 109.304 84.0764C109.442 84.4406 109.664 84.7382 109.796 84.7382C109.93 84.7382 110.303 85.1702 110.627 85.6982C110.95 86.2262 111.708 87.2675 112.311 88.0124C112.915 88.7568 113.408 89.5395 113.408 89.752C113.408 89.9638 113.667 90.4016 113.984 90.7248C114.858 91.6169 116.036 93.1747 116.877 94.5513C117.292 95.2323 117.949 96.1692 118.336 96.6332C118.723 97.0979 119.04 97.5984 119.04 97.7456C119.04 97.8928 119.313 98.2275 119.645 98.4892C119.978 98.751 120.335 99.2304 120.438 99.5536C120.54 99.8768 120.897 100.448 121.229 100.824C122.452 102.201 123.136 103.123 123.136 103.39C123.136 103.541 123.482 104.058 123.904 104.539C124.326 105.02 124.672 105.521 124.672 105.652C124.672 105.783 125.018 106.222 125.44 106.626C125.862 107.031 126.208 107.526 126.208 107.727C126.208 108.071 126.484 108.458 128.399 110.792C128.829 111.317 129.542 112.322 129.984 113.026C130.426 113.73 131.028 114.594 131.322 114.946C132.12 115.9 134.068 118.778 134.666 119.886C134.955 120.421 135.343 120.917 135.53 120.989C135.716 121.061 136.254 121.717 136.726 122.449C137.197 123.18 137.932 124.245 138.36 124.815C139.587 126.454 139.962 126.992 141.181 128.866C141.812 129.833 142.841 131.226 143.468 131.961C144.096 132.695 144.687 133.605 144.782 133.983C144.877 134.361 145.149 134.811 145.388 134.984C145.881 135.341 147.456 137.577 147.456 137.92C147.456 138.044 147.802 138.478 148.224 138.882C148.646 139.287 148.992 139.749 148.992 139.909C148.992 140.07 149.28 140.471 149.632 140.802C149.984 141.133 150.272 141.545 150.272 141.719C150.272 141.998 150.786 142.713 152.558 144.898C153.283 145.793 155.322 148.716 155.849 149.617C156.09 150.029 156.547 150.619 156.864 150.926C157.181 151.234 157.44 151.596 157.44 151.733C157.44 152.318 161.007 156.585 161.941 157.118C164.432 158.538 168.595 157.616 169.729 155.394C170.235 154.4 170.24 153.87 170.24 99.6803C170.24 49.1318 170.272 44.9347 170.664 44.502C171.286 43.8153 194.104 43.7731 194.86 44.4579C195.553 45.0857 195.597 210.736 194.904 211.502C194.508 211.94 193.861 211.97 184.856 211.962C174.387 211.953 174.762 212.006 173.954 210.434C173.7 209.941 173.011 208.962 172.423 208.258C171.835 207.554 171.132 206.62 170.861 206.181C170.313 205.296 168.053 202.211 167.368 201.413C167.125 201.132 166.849 200.656 166.755 200.355C166.659 200.056 166.022 199.182 165.339 198.415C164.655 197.648 164.096 196.877 164.096 196.703C164.096 196.528 163.75 196.007 163.328 195.545C162.906 195.083 162.56 194.601 162.56 194.476C162.56 194.35 162.005 193.598 161.327 192.805C160.648 192.011 159.949 191.001 159.772 190.56C159.596 190.119 159.2 189.532 158.893 189.255C158.587 188.978 157.901 188.072 157.37 187.241C155.876 184.905 155.223 183.985 154.644 183.399C154.351 183.103 154.112 182.751 154.112 182.617C154.112 182.412 152.562 180.235 150.586 177.666C150.316 177.314 149.942 176.739 149.757 176.389C149.572 176.039 148.863 175.034 148.182 174.156C147.501 173.279 146.944 172.447 146.944 172.308C146.944 172.169 146.655 171.733 146.301 171.34C144.95 169.841 143.089 167.259 142.691 166.331C142.462 165.799 142.077 165.223 141.836 165.051C141.393 164.736 139.592 162.27 138.607 160.631C138.316 160.147 137.827 159.484 137.519 159.156C137.212 158.829 136.96 158.444 136.96 158.302C136.96 158.16 136.672 157.773 136.32 157.442C135.968 157.111 135.68 156.713 135.68 156.557C135.68 156.401 135.046 155.51 134.272 154.577C133.498 153.644 132.864 152.777 132.864 152.651C132.864 152.524 132.173 151.513 131.328 150.402C130.483 149.292 129.792 148.277 129.792 148.147C129.792 148.018 129.475 147.52 129.088 147.04C128.701 146.56 128.038 145.737 127.616 145.212C126.481 143.802 125.696 142.645 125.696 142.384C125.696 142.256 125.434 141.877 125.113 141.541C124.518 140.917 122.435 137.93 121.421 136.246C121.112 135.731 120.681 135.181 120.464 135.022C120.246 134.863 119.57 133.996 118.961 133.096C117.165 130.444 116.623 129.671 116.276 129.274C116.097 129.067 115.472 128.149 114.888 127.234C114.305 126.319 113.272 124.902 112.593 124.085C111.915 123.268 111.36 122.448 111.36 122.262C111.36 121.928 109.364 119.248 108.993 119.085C108.887 119.038 108.8 118.847 108.8 118.661C108.8 118.475 108.426 117.852 107.968 117.276C106.087 114.911 105.839 114.578 105.472 113.916C104.828 112.757 103.716 111.159 103.433 110.983C103.285 110.892 102.643 110.048 102.004 109.106C100.005 106.156 99.6128 105.617 99.079 105.081C98.7936 104.795 98.56 104.432 98.56 104.274C98.56 103.732 94.9645 99.3372 94.1958 98.9398C92.3878 98.0048 88.8934 98.2204 87.4502 99.3552C85.6006 100.81 85.76 95.4217 85.76 156.613C85.76 198.85 85.6896 211.426 85.4528 211.663C84.9114 212.204 61.7446 212.094 61.1398 211.546C60.6886 211.138 60.672 208.203 60.672 127.977V44.831L61.241 44.4329C62.0659 43.855 80.0211 43.8332 81.1347 44.4092Z" fill="#E9675D"/>
</g>
<defs>
<clipPath id="clip0_1976_10386">
<rect width="256" height="256" fill="white"/>
</clipPath>
</defs>
</svg>
